<?xml version="1.0" encoding="utf-8"?>
<!-- Generator: Adobe Illustrator 22.1.0, SVG Export Plug-In . SVG Version: 6.00 Build 0)  -->
<svg version="1.1" id="Ebene_1" xmlns="http://www.w3.org/2000/svg" xmlns:xlink="http://www.w3.org/1999/xlink" x="0px" y="0px"
	 viewBox="0 0 595.2756 841.8898" enable-background="new 0 0 595.2756 841.8898" xml:space="preserve">
<path fill="#FFFFFF" d="M257.79,201.52c-0.44,0.54-0.94,1.04-1.48,1.48v-1.48H257.79z"/>
<circle fill="none" cx="334.63" cy="322.37" r="10.63"/>
<path fill="none" d="M387.79,301.1c0,5.87-4.7599,10.64-10.63,10.64c-5.87,0-10.6299-4.77-10.6299-10.64s-4.76-10.63-10.63-10.63
	c-5.88,0-10.64-4.76-10.64-10.63s4.76-10.63,10.64-10.63c5.87,0,10.63,4.76,10.63,10.63s4.7599,10.63,10.6299,10.63
	C383.03,290.47,387.79,295.23,387.79,301.1z"/>
<path fill="none" d="M387.79,492.49c0,5.87-4.7599,10.63-10.63,10.63c-5.87,0-10.6299-4.76-10.6299-10.63
	c0-5.88,4.7599-10.64,10.6299-10.64C383.03,481.85,387.79,486.61,387.79,492.49z"/>
<path fill="none" d="M387.79,258.57c0,5.87-4.7599,10.64-10.63,10.64c-5.87,0-10.6299-4.77-10.6299-10.64
	s4.7599-10.63,10.6299-10.63C383.03,247.94,387.79,252.7,387.79,258.57z"/>
<path fill="none" d="M409.06,386.16c0,5.87-4.76,10.63-10.63,10.63c-5.88,0-10.64-4.76-10.64-10.63s4.76-10.63,10.64-10.63
	C404.3,375.53,409.06,380.29,409.06,386.16z"/>
<path fill="none" d="M409.06,513.75c0,5.87-4.76,10.63-10.63,10.63c-5.88,0-10.64-4.76-10.64-10.63s4.76-10.63,10.64-10.63
	C404.3,503.12,409.06,507.88,409.06,513.75z"/>
<path fill="none" d="M451.59,237.31c0,5.87-4.76,10.63-10.63,10.63c-5.88,0-10.64-4.76-10.64-10.63s4.76-10.63,10.64-10.63
	C446.83,226.68,451.59,231.44,451.59,237.31z"/>
<circle fill="none" cx="504.75" cy="279.84" r="10.63"/>
<path fill="none" d="M579.18,258.57c0,5.87-4.76,10.64-10.64,10.64c-5.87,0-10.63-4.77-10.63-10.64s4.76-10.63,10.63-10.63
	C574.42,247.94,579.18,252.7,579.18,258.57z"/>
<path fill="none" stroke="#000000" stroke-width="0.9" stroke-miterlimit="10" d="M409.06,237.31c0,5.87-4.76,10.63-10.63,10.63
	c-5.88,0-10.64-4.76-10.64-10.63s-4.7599-10.63-10.63-10.63c-5.87,0-10.6299,4.76-10.6299,10.63s-4.76,10.63-10.63,10.63
	c-5.88,0-10.64-4.76-10.64-10.63s-4.76-10.63-10.63-10.63S324,221.92,324,216.04c0-5.87-4.76-10.63-10.63-10.63
	c-5.88,0-10.64,4.76-10.64,10.63c0,5.88-4.76,10.64-10.63,10.64s-10.63,4.76-10.63,10.63s-4.7599,10.63-10.6299,10.63
	c-5.88,0-10.64-4.76-10.64-10.63s4.76-10.63,10.64-10.63c5.87,0,10.6299-4.76,10.6299-10.64c0-5.87-4.7599-10.63-10.6299-10.63
	c-5.88,0-10.64,4.76-10.64,10.63c0,0.21-0.01,0.41-0.02,0.62c-0.01,0.2-0.03,0.41-0.05,0.61c-0.02,0.2-0.05,0.4-0.09,0.6
	c-0.05,0.28-0.11,0.55-0.17,0.83c-0.01,0.0099-0.01,0.0099-0.01,0.02c-0.07,0.28-0.15,0.55-0.25,0.82
	c-0.07,0.22-0.15,0.43-0.24,0.64c-0.14,0.32-0.29,0.63-0.45,0.93c-0.66,1.22-1.55,2.29-2.61,3.16V203c0.54-0.44,1.04-0.94,1.48-1.48
	h26.09c1.95,2.38,4.91,3.89,8.22,3.89s6.27-1.51,8.22-3.89h26.09c1.95,2.38,4.91,3.89,8.22,3.89s6.27-1.51,8.22-3.89h21.27
	c-0.03,0.03-0.05,0.06-0.08,0.09c-0.14,0.17-0.29,0.34-0.44,0.5c-0.18,0.18-0.36,0.36-0.54,0.53c-0.26,0.23-0.52,0.45-0.8,0.66
	c-0.28,0.2-0.56,0.39-0.85,0.57c-0.36,0.22-0.74,0.42-1.14,0.6c-0.19,0.09-0.39,0.17-0.6,0.25c-0.2,0.07-0.4,0.14-0.61,0.21
	c-0.18,0.06-0.36,0.11-0.55,0.16c-0.14,0.03-0.28,0.06-0.42,0.09c-0.1201,0.03-0.2401,0.05-0.3701,0.07c-0.2,0.04-0.4,0.07-0.6,0.09
	c-0.4,0.05-0.81,0.07-1.22,0.07c-5.88,0-10.64,4.76-10.64,10.63c0,5.88,4.76,10.64,10.64,10.64c5.87,0,10.63-4.76,10.63-10.64
	c0-5.87,4.7599-10.63,10.6299-10.63c5.8701,0,10.63,4.76,10.63,10.63c0,5.88,4.76,10.64,10.64,10.64
	C404.3,226.68,409.06,231.44,409.06,237.31z"/>
<path fill="none" stroke="#000000" stroke-width="0.9" stroke-miterlimit="10" d="M568.54,375.53c-5.87,0-10.63-4.76-10.63-10.63
	s-4.7599-10.64-10.6299-10.64c-5.8701,0-10.63-4.76-10.63-10.63S531.89,333,526.01,333c-5.87,0-10.63,4.76-10.63,10.63
	s4.76,10.63,10.63,10.63c5.88,0,10.64,4.77,10.64,10.64s-4.76,10.63-10.64,10.63c-5.87,0-10.63,4.76-10.63,10.63
	s-4.76,10.63-10.63,10.63s-10.63,4.77-10.63,10.64s-4.76,10.63-10.63,10.63c-5.88,0-10.64-4.76-10.64-10.63s4.76-10.64,10.64-10.64
	c5.87,0,10.63-4.76,10.63-10.63s-4.76-10.63-10.63-10.63c-5.88,0-10.64,4.76-10.64,10.63s-4.7599,10.63-10.63,10.63
	c-5.87,0-10.6299-4.76-10.6299-10.63s4.7599-10.63,10.6299-10.63c5.8701,0,10.63-4.76,10.63-10.63s4.76-10.64,10.64-10.64
	c5.87,0,10.63-4.76,10.63-10.63S498.88,333,504.75,333s10.63-4.76,10.63-10.63s-4.76-10.63-10.63-10.63s-10.63-4.77-10.63-10.64
	s-4.76-10.63-10.63-10.63c-5.88,0-10.64-4.76-10.64-10.63s-4.7599-10.63-10.63-10.63c-5.87,0-10.6299-4.77-10.6299-10.64
	s4.7599-10.63,10.6299-10.63c5.8701,0,10.63,4.76,10.63,10.63s4.76,10.64,10.64,10.64c5.87,0,10.63-4.77,10.63-10.64
	s-4.76-10.63-10.63-10.63c-5.88,0-10.64-4.76-10.64-10.63s-4.7599-10.63-10.63-10.63c-5.87,0-10.6299-4.76-10.6299-10.64
	c0-5.87,4.7599-10.63,10.6299-10.63c5.8701,0,10.63,4.76,10.63,10.63c0,5.88,4.76,10.64,10.64,10.64c5.87,0,10.63,4.76,10.63,10.63
	s4.76,10.63,10.63,10.63s10.63-4.76,10.63-10.63s4.76-10.63,10.63-10.63c5.88,0,10.64,4.76,10.64,10.63s4.7599,10.63,10.63,10.63
	c5.87,0,10.6299-4.76,10.6299-10.63s-4.7599-10.63-10.6299-10.63c-5.8701,0-10.63-4.76-10.63-10.64c0-5.87-4.76-10.63-10.64-10.63
	c-3.31,0-6.27-1.51-8.22-3.89h-26.08c-1.95,2.38-4.91,3.89-8.22,3.89c-3.32,0-6.28-1.51-8.23-3.89h-26.08
	c-1.95,2.38-4.91,3.89-8.22,3.89c-5.88,0-10.64,4.76-10.64,10.63c0,5.88-4.76,10.64-10.63,10.64s-10.63-4.76-10.63-10.64
	c0-5.87,4.76-10.63,10.63-10.63c0.21,0,0.41-0.01,0.62-0.02c0.2-0.01,0.4-0.03,0.61-0.05c0.2-0.02,0.4-0.05,0.59-0.09
	c0.25-0.04,0.49-0.09,0.73-0.15c0.21-0.05,0.41-0.11,0.61-0.17c0.08-0.02,0.16-0.05,0.2401-0.08c0.42-0.14,0.8199-0.3,1.21-0.49
	c0.07-0.03,0.13-0.06,0.2-0.1c0.24-0.12,0.47-0.25,0.7-0.39c0.29-0.18,0.58-0.37,0.85-0.57c0.38-0.29,0.74-0.59,1.08-0.93
	c0.14-0.13,0.27-0.27,0.4-0.41c0.1299-0.14,0.2599-0.29,0.3799-0.44H406.65c-1.95,2.38-4.91,3.89-8.22,3.89
	c-3.32,0-6.28-1.51-8.23-3.89h-26.08c-0.03,0.03-0.05,0.06-0.08,0.09c-0.14,0.17-0.28,0.34-0.44,0.5c-0.18,0.18-0.36,0.36-0.54,0.53
	c-0.26,0.23-0.52,0.45-0.8,0.66c-0.28,0.2-0.56,0.39-0.85,0.57c-0.36,0.22-0.74,0.42-1.14,0.6c-0.19,0.09-0.39,0.17-0.6,0.25
	c-0.2,0.07-0.4,0.14-0.61,0.21c-0.18,0.06-0.36,0.11-0.55,0.16c-0.14,0.03-0.28,0.06-0.42,0.09
	c-0.1201,0.03-0.2401,0.05-0.3701,0.07c-0.2,0.04-0.4,0.07-0.6,0.09c-0.4,0.05-0.81,0.07-1.22,0.07c-5.88,0-10.64,4.76-10.64,10.63
	c0,5.88,4.76,10.64,10.64,10.64c5.87,0,10.63-4.76,10.63-10.64c0-5.87,4.7599-10.63,10.6299-10.63c5.8701,0,10.63,4.76,10.63,10.63
	c0,5.88,4.76,10.64,10.64,10.64c5.87,0,10.63,4.76,10.63,10.63s-4.76,10.63-10.63,10.63c-5.88,0-10.64-4.76-10.64-10.63
	s-4.7599-10.63-10.63-10.63c-5.87,0-10.6299,4.76-10.6299,10.63s-4.76,10.63-10.63,10.63c-5.88,0-10.64-4.76-10.64-10.63
	s-4.76-10.63-10.63-10.63S324,221.92,324,216.04c0-5.87-4.76-10.63-10.63-10.63c-5.88,0-10.64,4.76-10.64,10.63
	c0,5.88-4.76,10.64-10.63,10.64s-10.63,4.76-10.63,10.63s-4.7599,10.63-10.6299,10.63c-5.88,0-10.64-4.76-10.64-10.63
	s4.76-10.63,10.64-10.63c5.87,0,10.6299-4.76,10.6299-10.64c0-5.87-4.7599-10.63-10.6299-10.63c-5.88,0-10.64,4.76-10.64,10.63
	c0,0.21-0.01,0.41-0.02,0.62c-0.01,0.2-0.03,0.41-0.05,0.61c-0.02,0.2-0.05,0.4-0.09,0.6c-0.05,0.28-0.11,0.55-0.17,0.83
	c-0.01,0.0099-0.01,0.0099-0.01,0.02c-0.07,0.28-0.15,0.55-0.25,0.82c-0.07,0.22-0.15,0.43-0.24,0.64
	c-0.13,0.32-0.28,0.63-0.45,0.93c-0.66,1.22-1.55,2.29-2.61,3.16v26.08c2.38,1.95,3.89,4.91,3.89,8.22s-1.51,6.27-3.89,8.23v26.08
	c2.38,1.95,3.89,4.91,3.89,8.22c0,5.87,4.76,10.64,10.64,10.64c5.87,0,10.6299-4.77,10.6299-10.64s-4.7599-10.63-10.6299-10.63
	c-5.88,0-10.64-4.76-10.64-10.63s4.76-10.63,10.64-10.63c5.87,0,10.6299-4.77,10.6299-10.64s4.76-10.63,10.63-10.63
	s10.63,4.76,10.63,10.63s4.76,10.64,10.64,10.64c5.87,0,10.63,4.76,10.63,10.63s4.76,10.63,10.63,10.63s10.63,4.76,10.63,10.63
	s4.76,10.64,10.64,10.64c5.87,0,10.63,4.76,10.63,10.63S361.77,333,355.9,333c-5.88,0-10.64,4.76-10.64,10.63
	s-4.76,10.63-10.63,10.63S324,359.03,324,364.9s4.76,10.63,10.63,10.63s10.63-4.76,10.63-10.63s4.76-10.64,10.64-10.64
	c5.87,0,10.63,4.77,10.63,10.64s-4.76,10.63-10.63,10.63c-5.88,0-10.64,4.76-10.64,10.63s-4.76,10.63-10.63,10.63
	S324,401.56,324,407.43s4.76,10.63,10.63,10.63s10.63-4.76,10.63-10.63s4.76-10.64,10.64-10.64c5.87,0,10.63-4.76,10.63-10.63
	s4.7599-10.63,10.6299-10.63c5.8701,0,10.63-4.76,10.63-10.63s-4.7599-10.64-10.63-10.64c-5.87,0-10.6299-4.76-10.6299-10.63
	S371.29,333,377.16,333c5.8701,0,10.63-4.76,10.63-10.63s4.76-10.63,10.64-10.63c5.87,0,10.63-4.77,10.63-10.64
	s-4.76-10.63-10.63-10.63c-5.88,0-10.64-4.76-10.64-10.63s4.76-10.63,10.64-10.63c5.87,0,10.63,4.76,10.63,10.63
	s4.76,10.63,10.63,10.63s10.63-4.76,10.63-10.63s4.76-10.63,10.64-10.63c5.87,0,10.63,4.76,10.63,10.63s4.7599,10.63,10.6299,10.63
	c5.8701,0,10.63,4.76,10.63,10.63s4.76,10.64,10.64,10.64c5.87,0,10.63,4.76,10.63,10.63S489.36,333,483.49,333
	c-5.88,0-10.64-4.76-10.64-10.63s-4.7599-10.63-10.63-10.63c-5.87,0-10.6299-4.77-10.6299-10.64s-4.76-10.63-10.63-10.63
	c-5.88,0-10.64,4.76-10.64,10.63s-4.76,10.64-10.63,10.64s-10.63,4.76-10.63,10.63S413.82,333,419.69,333s10.63,4.76,10.63,10.63
	s4.76,10.63,10.64,10.63c5.87,0,10.63-4.76,10.63-10.63S446.83,333,440.96,333c-5.88,0-10.64-4.76-10.64-10.63
	s4.76-10.63,10.64-10.63c5.87,0,10.63,4.76,10.63,10.63S456.35,333,462.22,333c5.8701,0,10.63,4.76,10.63,10.63
	s-4.7599,10.63-10.63,10.63c-5.87,0-10.6299,4.77-10.6299,10.64s-4.76,10.63-10.63,10.63c-5.88,0-10.64-4.76-10.64-10.63
	s-4.76-10.64-10.63-10.64s-10.63-4.76-10.63-10.63S404.3,333,398.43,333c-5.88,0-10.64,4.76-10.64,10.63s4.76,10.63,10.64,10.63
	c5.87,0,10.63,4.77,10.63,10.64s4.76,10.63,10.63,10.63s10.63,4.76,10.63,10.63s-4.76,10.63-10.63,10.63s-10.63,4.77-10.63,10.64
	s-4.76,10.63-10.63,10.63c-5.88,0-10.64-4.76-10.64-10.63s-4.7599-10.64-10.63-10.64c-5.87,0-10.6299,4.77-10.6299,10.64
	s-4.76,10.63-10.63,10.63c-5.88,0-10.64,4.76-10.64,10.63s-4.76,10.63-10.63,10.63S324,434.56,324,428.69s-4.76-10.63-10.63-10.63
	c-5.88,0-10.64,4.76-10.64,10.63s-4.76,10.63-10.63,10.63s-10.63,4.7599-10.63,10.64c0,5.87,4.76,10.63,10.63,10.63
	s10.63,4.76,10.63,10.63s4.76,10.63,10.64,10.63c5.87,0,10.63-4.76,10.63-10.63s4.76-10.63,10.63-10.63s10.63,4.76,10.63,10.63
	s4.76,10.63,10.64,10.63c5.87,0,10.63-4.76,10.63-10.63s-4.76-10.63-10.63-10.63c-5.88,0-10.64-4.76-10.64-10.63
	c0-5.88,4.76-10.64,10.64-10.64c5.87,0,10.63,4.7599,10.63,10.64c0,5.87,4.7599,10.63,10.6299,10.63
	c5.8701,0,10.63,4.76,10.63,10.63s4.76,10.63,10.64,10.63c5.87,0,10.63,4.76,10.63,10.64c0,5.87,4.76,10.63,10.63,10.63
	s10.63,4.76,10.63,10.63s4.76,10.63,10.64,10.63c5.87,0,10.63-4.76,10.63-10.63s4.7599-10.63,10.6299-10.63
	c5.8701,0,10.63,4.76,10.63,10.63s4.76,10.63,10.64,10.63c5.87,0,10.63,4.76,10.63,10.64h21.26c0-5.8799-4.76-10.64-10.63-10.64
	s-10.63-4.76-10.63-10.63s4.76-10.63,10.63-10.63s10.63-4.76,10.63-10.63c0-5.88,4.76-10.64,10.63-10.64
	c5.88,0,10.64-4.76,10.64-10.63s-4.76-10.63-10.64-10.63c-5.87,0-10.63,4.76-10.63,10.63s-4.76,10.63-10.63,10.63
	s-10.63-4.76-10.63-10.63s4.76-10.63,10.63-10.63s10.63-4.76,10.63-10.63c0-5.88,4.76-10.64,10.63-10.64
	c5.88,0,10.64,4.7599,10.64,10.64c0,5.87,4.7599,10.63,10.63,10.63c5.87,0,10.6299-4.76,10.6299-10.63
	c0-5.88-4.7599-10.64-10.6299-10.64c-5.8701,0-10.63-4.76-10.63-10.63s-4.76-10.63-10.64-10.63c-5.87,0-10.63-4.76-10.63-10.63
	s4.76-10.64,10.63-10.64c5.88,0,10.64-4.76,10.64-10.63s4.7599-10.63,10.63-10.63c5.87,0,10.6299,4.76,10.6299,10.63
	s-4.7599,10.63-10.6299,10.63c-5.8701,0-10.63,4.77-10.63,10.64s4.7599,10.63,10.63,10.63c5.87,0,10.6299-4.76,10.6299-10.63
	s4.76-10.64,10.63-10.64c5.88,0,10.64-4.76,10.64-10.63S574.42,375.53,568.54,375.53z M504.75,205.41c5.87,0,10.63,4.76,10.63,10.63
	c0,5.88-4.76,10.64-10.63,10.64s-10.63-4.76-10.63-10.64C494.12,210.17,498.88,205.41,504.75,205.41z M334.63,269.21
	c-5.87,0-10.63-4.77-10.63-10.64s-4.76-10.63-10.63-10.63c-5.88,0-10.64-4.76-10.64-10.63s4.76-10.63,10.64-10.63
	c5.87,0,10.63,4.76,10.63,10.63s4.76,10.63,10.63,10.63s10.63,4.76,10.63,10.63S340.5,269.21,334.63,269.21z M377.16,311.74
	c-5.87,0-10.6299-4.77-10.6299-10.64s-4.76-10.63-10.63-10.63c-5.88,0-10.64-4.76-10.64-10.63s4.76-10.63,10.64-10.63
	c5.87,0,10.63,4.76,10.63,10.63s4.7599,10.63,10.6299,10.63c5.8701,0,10.63,4.76,10.63,10.63S383.03,311.74,377.16,311.74z
	 M377.16,269.21c-5.87,0-10.6299-4.77-10.6299-10.64s4.7599-10.63,10.6299-10.63c5.8701,0,10.63,4.76,10.63,10.63
	S383.03,269.21,377.16,269.21z M419.69,269.21c-5.87,0-10.63-4.77-10.63-10.64s4.76-10.63,10.63-10.63s10.63,4.76,10.63,10.63
	S425.56,269.21,419.69,269.21z M440.96,247.94c-5.88,0-10.64-4.76-10.64-10.63s4.76-10.63,10.64-10.63
	c5.87,0,10.63,4.76,10.63,10.63S446.83,247.94,440.96,247.94z M313.37,460.59c-5.88,0-10.64-4.76-10.64-10.63
	c0-5.88,4.76-10.64,10.64-10.64c5.87,0,10.63,4.7599,10.63,10.64C324,455.83,319.24,460.59,313.37,460.59z M398.43,460.59
	c-5.88,0-10.64-4.76-10.64-10.63c0-5.88-4.7599-10.64-10.63-10.64c-5.87,0-10.6299-4.76-10.6299-10.63s4.7599-10.63,10.6299-10.63
	c5.8701,0,10.63,4.76,10.63,10.63s4.76,10.63,10.64,10.63c5.87,0,10.63-4.76,10.63-10.63s4.76-10.63,10.63-10.63
	s10.63,4.76,10.63,10.63s-4.76,10.63-10.63,10.63s-10.63,4.7599-10.63,10.64C409.06,455.83,404.3,460.59,398.43,460.59z
	 M504.75,439.32c-5.87,0-10.63,4.7599-10.63,10.64c0,5.87-4.76,10.63-10.63,10.63c-5.88,0-10.64,4.76-10.64,10.63
	s4.76,10.63,10.64,10.63c5.87,0,10.63,4.76,10.63,10.64c0,5.87-4.76,10.63-10.63,10.63c-5.88,0-10.64-4.76-10.64-10.63
	c0-5.88-4.7599-10.64-10.63-10.64c-5.87,0-10.6299,4.76-10.6299,10.64c0,5.87-4.76,10.63-10.63,10.63
	c-5.88,0-10.64-4.76-10.64-10.63c0-5.88,4.76-10.64,10.64-10.64c5.87,0,10.63-4.76,10.63-10.63s-4.76-10.63-10.63-10.63
	c-5.88,0-10.64,4.76-10.64,10.63s-4.76,10.63-10.63,10.63s-10.63-4.76-10.63-10.63s4.76-10.63,10.63-10.63s10.63-4.76,10.63-10.63
	c0-5.88,4.76-10.64,10.64-10.64c5.87,0,10.63,4.7599,10.63,10.64c0,5.87,4.7599,10.63,10.6299,10.63
	c5.8701,0,10.63-4.76,10.63-10.63c0-5.88-4.7599-10.64-10.63-10.64c-5.87,0-10.6299-4.76-10.6299-10.63s-4.76-10.63-10.63-10.63
	c-5.88,0-10.64-4.76-10.64-10.63s4.76-10.64,10.64-10.64c5.87,0,10.63,4.77,10.63,10.64s4.7599,10.63,10.6299,10.63
	c5.8701,0,10.63,4.76,10.63,10.63s4.76,10.63,10.64,10.63c5.87,0,10.63-4.76,10.63-10.63s4.76-10.63,10.63-10.63
	s10.63,4.76,10.63,10.63S510.62,439.32,504.75,439.32z"/>
<path fill="none" stroke="#000000" stroke-width="0.9" stroke-miterlimit="10" d="M424.3,204.36c-0.39,0.19-0.79,0.36-1.21,0.49
	C423.51,204.71,423.91,204.55,424.3,204.36z"/>
<path fill="none" stroke="#000000" stroke-width="0.9" stroke-miterlimit="10" d="M430.32,258.57c0,5.87-4.76,10.64-10.63,10.64
	s-10.63-4.77-10.63-10.64s4.76-10.63,10.63-10.63S430.32,252.7,430.32,258.57z"/>
<path fill="none" stroke="#000000" stroke-width="0.9" stroke-miterlimit="10" d="M515.38,216.04c0,5.88-4.76,10.64-10.63,10.64
	s-10.63-4.76-10.63-10.64c0-5.87,4.76-10.63,10.63-10.63S515.38,210.17,515.38,216.04z"/>
<path fill="none" stroke="#000000" stroke-width="0.9" stroke-miterlimit="10" d="M345.26,258.57c0,5.87-4.76,10.64-10.63,10.64
	S324,264.44,324,258.57s-4.76-10.63-10.63-10.63c-5.88,0-10.64-4.76-10.64-10.63s4.76-10.63,10.64-10.63
	c5.87,0,10.63,4.76,10.63,10.63s4.76,10.63,10.63,10.63S345.26,252.7,345.26,258.57z"/>
<path fill="none" stroke="#000000" stroke-width="0.9" stroke-miterlimit="10" d="M600,343.63c0,5.87-4.76,10.63-10.63,10.63
	c-5.88,0-10.64,4.77-10.64,10.64s-4.76,10.63-10.63,10.63s-10.63-4.76-10.63-10.63s4.76-10.64,10.63-10.64s10.63-4.76,10.63-10.63
	S573.97,333,568.1,333s-10.63-4.76-10.63-10.63s4.76-10.63,10.63-10.63s10.63-4.77,10.63-10.64s-4.76-10.63-10.63-10.63
	s-10.63-4.76-10.63-10.63s4.76-10.63,10.63-10.63s10.63,4.76,10.63,10.63s4.76,10.63,10.64,10.63c5.87,0,10.63,4.76,10.63,10.63
	s-4.76,10.64-10.63,10.64c-5.88,0-10.64,4.76-10.64,10.63S583.49,333,589.37,333C595.24,333,600,337.76,600,343.63z"/>
<path fill="none" stroke="#000000" stroke-width="0.9" stroke-miterlimit="10" d="M324,386.16c0,5.87-4.76,10.63-10.63,10.63
	c-5.88,0-10.64-4.76-10.64-10.63s4.76-10.63,10.64-10.63C319.24,375.53,324,380.29,324,386.16z"/>
<path fill="none" stroke="#000000" stroke-width="0.9" stroke-miterlimit="10" d="M515.38,364.9c0,5.87-4.76,10.63-10.63,10.63
	s-10.63-4.76-10.63-10.63s4.76-10.64,10.63-10.64S515.38,359.03,515.38,364.9z"/>
<path fill="none" stroke="#000000" stroke-width="0.9" stroke-miterlimit="10" d="M324,449.96c0,5.87-4.76,10.63-10.63,10.63
	c-5.88,0-10.64-4.76-10.64-10.63c0-5.88,4.76-10.64,10.64-10.64C319.24,439.32,324,444.08,324,449.96z"/>
<path fill="none" stroke="#000000" stroke-width="0.9" stroke-miterlimit="10" d="M292.1,481.85c-5.87,0-10.63-4.76-10.63-10.63
	s-4.7599-10.63-10.6299-10.63c-5.88,0-10.64-4.76-10.64-10.63c0-5.88,4.76-10.64,10.64-10.64c5.87,0,10.6299-4.76,10.6299-10.63
	s4.76-10.63,10.63-10.63s10.63-4.76,10.63-10.63s-4.76-10.64-10.63-10.64s-10.63-4.76-10.63-10.63s-4.7599-10.63-10.6299-10.63
	c-5.88,0-10.64,4.76-10.64,10.63c0,0.21-0.01,0.41-0.02,0.62c-0.01,0.2-0.03,0.4-0.05,0.61c-0.02,0.2-0.05,0.4-0.09,0.59
	c-0.04,0.25-0.09,0.49-0.15,0.73c-0.05,0.21-0.11,0.41-0.17,0.61c-0.02,0.08-0.05,0.16-0.08,0.24c-0.13,0.42-0.3,0.82-0.49,1.21
	c-0.03,0.07-0.06,0.13-0.1,0.2c-0.12,0.24-0.25,0.47-0.39,0.7c-0.18,0.3-0.37,0.58-0.5699,0.85c-0.16,0.22-0.33,0.4301-0.51,0.63
	c-0.13,0.15-0.27,0.3-0.42,0.45c-0.1299,0.14-0.27,0.27-0.41,0.4s-0.29,0.26-0.44,0.38v26.09c2.38,1.95,3.89,4.91,3.89,8.22
	s-1.51,6.27-3.89,8.22V463c2.38,1.95,3.89,4.91,3.89,8.22c0,5.87,4.76,10.63,10.64,10.63c5.87,0,10.6299,4.76,10.6299,10.64
	c0,5.87,4.76,10.63,10.63,10.63s10.63-4.76,10.63-10.63C302.73,486.61,297.97,481.85,292.1,481.85z M270.84,396.79
	c5.87,0,10.6299,4.77,10.6299,10.64s-4.7599,10.63-10.6299,10.63c-5.88,0-10.64-4.76-10.64-10.63S264.96,396.79,270.84,396.79z"/>
<path fill="none" stroke="#000000" stroke-width="0.9" stroke-miterlimit="10" d="M259.64,389.56c-0.13,0.42-0.3,0.82-0.49,1.21
	C259.34,390.38,259.5,389.98,259.64,389.56z"/>
<path fill="none" stroke="#000000" stroke-width="0.9" stroke-miterlimit="10" d="M281.47,407.43c0,5.87-4.7599,10.63-10.6299,10.63
	c-5.88,0-10.64-4.76-10.64-10.63s4.76-10.64,10.64-10.64C276.71,396.79,281.47,401.56,281.47,407.43z"/>
<path fill="none" stroke="#000000" stroke-width="0.9" stroke-miterlimit="10" d="M515.38,428.69c0,5.87-4.76,10.63-10.63,10.63
	s-10.63,4.7599-10.63,10.64c0,5.87-4.76,10.63-10.63,10.63c-5.88,0-10.64,4.76-10.64,10.63s4.76,10.63,10.64,10.63
	c5.87,0,10.63,4.76,10.63,10.64c0,5.87-4.76,10.63-10.63,10.63c-5.88,0-10.64-4.76-10.64-10.63c0-5.88-4.7599-10.64-10.63-10.64
	c-5.87,0-10.6299,4.76-10.6299,10.64c0,5.87-4.76,10.63-10.63,10.63c-5.88,0-10.64-4.76-10.64-10.63c0-5.88,4.76-10.64,10.64-10.64
	c5.87,0,10.63-4.76,10.63-10.63s-4.76-10.63-10.63-10.63c-5.88,0-10.64,4.76-10.64,10.63s-4.76,10.63-10.63,10.63
	s-10.63-4.76-10.63-10.63s4.76-10.63,10.63-10.63s10.63-4.76,10.63-10.63c0-5.88,4.76-10.64,10.64-10.64
	c5.87,0,10.63,4.7599,10.63,10.64c0,5.87,4.7599,10.63,10.6299,10.63c5.8701,0,10.63-4.76,10.63-10.63
	c0-5.88-4.7599-10.64-10.63-10.64c-5.87,0-10.6299-4.76-10.6299-10.63s-4.76-10.63-10.63-10.63c-5.88,0-10.64-4.76-10.64-10.63
	s4.76-10.64,10.64-10.64c5.87,0,10.63,4.77,10.63,10.64s4.7599,10.63,10.6299,10.63c5.8701,0,10.63,4.76,10.63,10.63
	s4.76,10.63,10.64,10.63c5.87,0,10.63-4.76,10.63-10.63s4.76-10.63,10.63-10.63S515.38,422.82,515.38,428.69z"/>
<path fill="none" stroke="#000000" stroke-width="0.9" stroke-miterlimit="10" d="M430.32,428.69c0,5.87-4.76,10.63-10.63,10.63
	s-10.63,4.7599-10.63,10.64c0,5.87-4.76,10.63-10.63,10.63c-5.88,0-10.64-4.76-10.64-10.63c0-5.88-4.7599-10.64-10.63-10.64
	c-5.87,0-10.6299-4.76-10.6299-10.63s4.7599-10.63,10.6299-10.63c5.8701,0,10.63,4.76,10.63,10.63s4.76,10.63,10.64,10.63
	c5.87,0,10.63-4.76,10.63-10.63s4.76-10.63,10.63-10.63S430.32,422.82,430.32,428.69z"/>
<path fill="none" stroke="#000000" stroke-width="0.9" stroke-miterlimit="10" d="M261.995,768.1949c0-5.88,4.76-10.64,10.63-10.64
	s10.63-4.7599,10.63-10.63c0-5.87-4.76-10.6299-10.63-10.6299s-10.63-4.76-10.63-10.63c0-5.88,4.76-10.64,10.63-10.64
	s10.63-4.76,10.63-10.63s4.76-10.63,10.63-10.63c5.88,0,10.64-4.76,10.64-10.63c0-5.88,4.76-10.64,10.63-10.64
	s10.63-4.76,10.63-10.63s4.76-10.63,10.63-10.63c5.88,0,10.64-4.76,10.64-10.63c0-5.88-4.7599-10.64-10.64-10.64
	c-5.87,0-10.63,4.76-10.63,10.64c0,5.87-4.76,10.63-10.63,10.63s-10.63-4.76-10.63-10.63c0-5.88,4.76-10.64,10.63-10.64
	s10.63-4.76,10.63-10.63s-4.76-10.63-10.63-10.63s-10.63-4.76-10.63-10.63c0-5.88,4.76-10.64,10.63-10.64s10.63-4.76,10.63-10.63
	s4.76-10.63,10.63-10.63c5.88,0,10.64,4.76,10.64,10.63s4.76,10.63,10.63,10.63s10.63,4.76,10.63,10.64
	c0,5.87-4.76,10.63-10.63,10.63s-10.63,4.76-10.63,10.63s4.76,10.63,10.63,10.63s10.63,4.76,10.63,10.64
	c0,5.87,4.76,10.63,10.63,10.63s10.64,4.76,10.64,10.63s-4.77,10.63-10.64,10.63s-10.63,4.76-10.63,10.64
	c0,5.87,4.76,10.63,10.63,10.63s10.64,4.76,10.64,10.63s4.76,10.63,10.63,10.63s10.63-4.76,10.63-10.63s4.76-10.63,10.63-10.63
	s10.64-4.76,10.64-10.63c0-5.88,4.76-10.64,10.63-10.64s10.63,4.76,10.63,10.64c0,5.87-4.76,10.63-10.63,10.63
	s-10.63,4.76-10.63,10.63s-4.77,10.63-10.64,10.63s-10.63,4.76-10.63,10.64c0,5.87,4.76,10.63,10.63,10.63
	s10.64,4.7599,10.64,10.6299c0,5.8701,4.76,10.63,10.63,10.63s10.63-4.7599,10.63-10.63c0-5.87,4.76-10.6299,10.63-10.6299
	s10.63-4.76,10.63-10.63c0-5.88-4.76-10.64-10.63-10.64s-10.63,4.76-10.63,10.64c0,5.87-4.76,10.63-10.63,10.63
	s-10.63-4.76-10.63-10.63c0-5.88,4.76-10.64,10.63-10.64s10.63-4.76,10.63-10.63s4.76-10.63,10.63-10.63s10.63,4.76,10.63,10.63
	s4.77,10.63,10.64,10.63s10.63,4.76,10.63,10.64c0,5.87-4.76,10.63-10.63,10.63s-10.64,4.7599-10.64,10.6299
	c0,5.8701-4.76,10.63-10.63,10.63s-10.63,4.76-10.63,10.64c0,5.87,4.76,10.63,10.63,10.63s10.63-4.76,10.63-10.63
	c0-5.88,4.77-10.64,10.64-10.64s10.63-4.7599,10.63-10.63c0-5.87,4.76-10.6299,10.63-10.6299c5.87,0,10.63-4.76,10.63-10.63
	c0-5.88-4.76-10.64-10.63-10.64c-5.87,0-10.63-4.76-10.63-10.63s4.76-10.63,10.63-10.63c5.87,0,10.63-4.76,10.63-10.63
	c0-5.88-4.76-10.64-10.63-10.64c-5.87,0-10.63,4.76-10.63,10.64c0,5.87-4.76,10.63-10.63,10.63s-10.64-4.76-10.64-10.63
	c0-5.88-4.76-10.64-10.63-10.64s-10.63-4.76-10.63-10.63s-4.76-10.63-10.63-10.63s-10.63,4.76-10.63,10.63s-4.77,10.63-10.64,10.63
	s-10.63-4.76-10.63-10.63s-4.76-10.63-10.63-10.63s-10.63-4.76-10.63-10.63c0-5.88-4.77-10.64-10.64-10.64s-10.63-4.76-10.63-10.63
	s4.76-10.63,10.63-10.63s10.64,4.76,10.64,10.63s4.76,10.63,10.63,10.63s10.63,4.76,10.63,10.64c0,5.87,4.76,10.63,10.63,10.63
	s10.64-4.76,10.64-10.63c0-5.88-4.77-10.64-10.64-10.64s-10.63-4.76-10.63-10.63s4.76-10.63,10.63-10.63s10.64,4.76,10.64,10.63
	s4.76,10.63,10.63,10.63s10.63,4.76,10.63,10.64c0,5.87,4.76,10.63,10.63,10.63s10.63-4.76,10.63-10.63
	c0-5.88,4.77-10.64,10.64-10.64s10.63-4.76,10.63-10.63s4.76-10.63,10.63-10.63c5.87,0,10.63-4.76,10.63-10.63
	c0-5.88,4.7699-10.64,10.6399-10.64s10.63-4.76,10.63-10.63s-4.76-10.63-10.63-10.63s-10.6399-4.7599-10.6399-10.6299
	c0-5.88-4.76-10.64-10.63-10.64c-5.87,0-10.63,4.76-10.63,10.64c0,5.87-4.76,10.6299-10.63,10.6299s-10.64-4.7599-10.64-10.6299
	c0-5.88,4.77-10.64,10.64-10.64c3.31,0,6.27-1.51,8.22-3.89h-21.27c-1.95,2.38-4.91,3.89-8.22,3.89s-6.27-1.51-8.22-3.89h-21.26
	c0.03,0.03,0.05,0.0599,0.08,0.09c0.14,0.17,0.29,0.34,0.44,0.5c0.18,0.1801,0.36,0.36,0.54,0.53c0.26,0.23,0.52,0.45,0.8,0.66
	c0.28,0.2,0.56,0.3899,0.85,0.5699c0.36,0.22,0.7401,0.42,1.14,0.6c0.19,0.09,0.39,0.17,0.6,0.25c0.2,0.0701,0.4,0.14,0.61,0.21
	c0.18,0.0601,0.36,0.1101,0.55,0.16c0.14,0.03,0.28,0.0601,0.42,0.09c0.12,0.03,0.2401,0.05,0.37,0.0701
	c0.2,0.04,0.4,0.0699,0.6,0.09c0.4,0.05,0.81,0.0701,1.22,0.0701c5.87,0,10.63,4.76,10.63,10.64c0,5.87-4.76,10.6299-10.63,10.6299
	s-10.63-4.7599-10.63-10.6299c0-5.88-4.77-10.64-10.64-10.64c-3.31,0-6.27-1.51-8.22-3.89h-21.26c0.12,0.15,0.25,0.2999,0.38,0.4399
	s0.26,0.28,0.4,0.41c0.15,0.15,0.3,0.29,0.45,0.42c0.2,0.1799,0.41,0.35,0.63,0.51c0.27,0.2,0.55,0.3899,0.85,0.5699
	c0.23,0.14,0.46,0.27,0.7,0.39c0.07,0.04,0.13,0.0699,0.2,0.1c0.39,0.1901,0.79,0.35,1.21,0.49c0.08,0.03,0.16,0.0601,0.24,0.08
	c0.2,0.0601,0.4,0.1201,0.61,0.17c0.24,0.0601,0.48,0.11,0.73,0.15c0.19,0.04,0.39,0.0699,0.59,0.09c0.21,0.02,0.41,0.04,0.61,0.05
	c0.21,0.01,0.41,0.02,0.62,0.02c5.87,0,10.63,4.76,10.63,10.64c0,5.87-4.76,10.6299-10.63,10.6299s-10.63,4.76-10.63,10.63
	s-4.77,10.63-10.64,10.63s-10.63-4.76-10.63-10.63s-4.76-10.63-10.63-10.63s-10.63-4.7599-10.63-10.6299
	c0-5.88-4.7599-10.64-10.64-10.64c-5.87,0-10.63,4.76-10.63,10.64c0,5.87-4.76,10.6299-10.63,10.6299s-10.63,4.76-10.63,10.63
	s-4.76,10.63-10.64,10.63c-5.87,0-10.63-4.76-10.63-10.63s4.76-10.63,10.63-10.63c5.88,0,10.64-4.7599,10.64-10.6299
	c0-5.88,4.76-10.64,10.63-10.64c3.31,0,6.27-1.51,8.22-3.89h-21.26c-1.95,2.38-4.91,3.89-8.23,3.89c-3.31,0-6.27-1.51-8.22-3.89
	h-21.26c0.03,0.03,0.05,0.0599,0.08,0.09c0.13,0.17,0.27,0.33,0.42,0.48c0.01,0.01,0.01,0.01,0.02,0.02
	c0.1801,0.1801,0.36,0.36,0.54,0.53c0.51,0.46,1.06,0.87,1.65,1.23c0.37,0.22,0.75,0.42,1.14,0.6c0.19,0.09,0.39,0.17,0.6,0.25
	c0.2,0.0801,0.4,0.15,0.61,0.21c0.13,0.04,0.25,0.0801,0.38,0.1101c0.1,0.0299,0.2,0.0499,0.3,0.08c0.11,0.03,0.23,0.05,0.34,0.0699
	c0.1,0.03,0.21,0.05,0.32,0.0601c0.2,0.04,0.4,0.0699,0.6,0.09c0.4,0.05,0.81,0.0701,1.22,0.0701c5.87,0,10.63,4.76,10.63,10.64
	c0,5.87-4.76,10.6299-10.63,10.6299s-10.63,4.76-10.63,10.63s4.76,10.63,10.63,10.63s10.63,4.76,10.63,10.64
	c0,5.87-4.76,10.63-10.63,10.63s-10.63,4.76-10.63,10.63s-4.76,10.63-10.64,10.63v21.27c5.8799,0,10.64-4.76,10.64-10.63
	c0-5.88,4.76-10.64,10.63-10.64s10.63,4.76,10.63,10.64c0,5.87-4.76,10.63-10.63,10.63s-10.63,4.76-10.63,10.63
	s-4.76,10.63-10.64,10.63v21.27c5.8799,0,10.64,4.76,10.64,10.63s-4.76,10.63-10.64,10.63v21.27
	c5.8799,0,10.64,4.7599,10.64,10.6299c0,5.8701-4.76,10.63-10.64,10.63v21.27C257.235,778.825,261.995,774.0649,261.995,768.1949z
	 M410.845,683.135c0,5.87-4.76,10.63-10.63,10.63s-10.63-4.76-10.63-10.63c0-5.88,4.76-10.64,10.63-10.64
	S410.845,677.255,410.845,683.135z M389.585,598.075c0-5.88,4.76-10.64,10.63-10.64s10.63,4.76,10.63,10.64
	c0,5.87-4.76,10.63-10.63,10.63S389.585,603.9449,389.585,598.075z M474.635,619.335c0,5.87-4.76,10.63-10.63,10.63
	s-10.63-4.76-10.63-10.63s4.76-10.63,10.63-10.63S474.635,613.465,474.635,619.335z M410.845,576.8049
	c0-5.87,4.76-10.63,10.63-10.63s10.64,4.76,10.64,10.63s4.76,10.63,10.63,10.63s10.63-4.76,10.63-10.63s4.76-10.63,10.63-10.63
	s10.63,4.76,10.63,10.63s4.77,10.63,10.64,10.63s10.63-4.76,10.63-10.63s4.76-10.63,10.63-10.63c5.87,0,10.63,4.76,10.63,10.63
	s-4.76,10.63-10.63,10.63c-5.87,0-10.63,4.76-10.63,10.64c0,5.87-4.76,10.63-10.63,10.63s-10.64-4.76-10.64-10.63
	c0-5.88-4.76-10.64-10.63-10.64s-10.63,4.76-10.63,10.64c0,5.87-4.76,10.63-10.63,10.63s-10.63-4.76-10.63-10.63
	c0-5.88-4.77-10.64-10.64-10.64S410.845,582.6749,410.845,576.8049z M283.255,619.335c0-5.87,4.76-10.63,10.63-10.63
	c5.88,0,10.64,4.76,10.64,10.63s-4.76,10.63-10.64,10.63C288.015,629.965,283.255,625.205,283.255,619.335z M283.255,661.865
	c0-5.87,4.76-10.63,10.63-10.63c5.88,0,10.64,4.76,10.64,10.63s-4.76,10.63-10.64,10.63
	C288.015,672.495,283.255,667.735,283.255,661.865z M261.995,683.135c0-5.88,4.76-10.64,10.63-10.64s10.63,4.76,10.63,10.64
	c0,5.87-4.76,10.63-10.63,10.63S261.995,689.005,261.995,683.135z"/>
<path fill="none" stroke="#000000" stroke-width="0.9" stroke-miterlimit="10" d="M345.26,492.49c0,5.87-4.76,10.63-10.63,10.63
	S324,498.36,324,492.49c0-5.88,4.76-10.64,10.63-10.64S345.26,486.61,345.26,492.49z"/>
<path fill="none" stroke="#000000" stroke-width="0.9" stroke-miterlimit="10" d="M345.26,535.02H324
	c0-5.8799-4.76-10.64-10.63-10.64c-5.88,0-10.64,4.76-10.64,10.64h-21.26c0-5.8799-4.7599-10.64-10.6299-10.64
	c-5.88,0-10.64,4.76-10.64,10.64h-3.89v-13.05c0.03-0.03,0.06-0.05,0.09-0.08c0.17-0.13,0.33-0.27,0.48-0.42
	c0.01-0.01,0.01-0.01,0.02-0.02c0.18-0.1801,0.36-0.36,0.53-0.54c0.46-0.51,0.87-1.06,1.23-1.65c0.22-0.37,0.42-0.75,0.6-1.14
	c0.09-0.19,0.17-0.39,0.25-0.6c0.08-0.2,0.15-0.4,0.21-0.61c0.04-0.13,0.08-0.25,0.11-0.38c0.03-0.1,0.05-0.2,0.08-0.3
	c0.03-0.11,0.05-0.23,0.07-0.34c0.03-0.1,0.05-0.21,0.06-0.32c0.04-0.2,0.07-0.4,0.09-0.6c0.05-0.4,0.07-0.81,0.07-1.22
	c0-5.87,4.76-10.63,10.64-10.63c5.87,0,10.6299,4.76,10.6299,10.63s4.76,10.63,10.63,10.63s10.63-4.76,10.63-10.63
	s4.76-10.63,10.64-10.63c5.87,0,10.63,4.76,10.63,10.63s4.76,10.63,10.63,10.63S345.26,529.14,345.26,535.02z"/>
<circle fill="none" stroke="#000000" stroke-width="0.9" stroke-miterlimit="10" cx="547.28" cy="513.75" r="10.63"/>
<path fill="none" stroke="#000000" stroke-width="0.9" stroke-miterlimit="10" d="M630.63,503.12c-5.87,0-10.63-4.76-10.63-10.63
	c0-5.88,4.76-10.64,10.63-10.64c5.88,0,10.64-4.76,10.64-10.63s-4.76-10.63-10.64-10.63c-5.87,0-10.63,4.76-10.63,10.63
	s-4.7599,10.63-10.6299,10.63c-5.8701,0-10.63,4.76-10.63,10.64c0,5.87-4.76,10.63-10.64,10.63c-5.87,0-10.63,4.76-10.63,10.63
	s4.76,10.63,10.63,10.63c5.88,0,10.64,4.76,10.64,10.64H620c0-5.8799,4.76-10.64,10.63-10.64c5.88,0,10.64-4.76,10.64-10.63
	S636.51,503.12,630.63,503.12z M609.3701,524.38c-5.8701,0-10.63-4.76-10.63-10.63s4.7599-10.63,10.63-10.63
	c5.87,0,10.6299,4.76,10.6299,10.63S615.2401,524.38,609.3701,524.38z"/>
<path fill="none" stroke="#000000" stroke-width="0.9" stroke-miterlimit="10" d="M224.54,205.41c5.88,0,10.64,4.76,10.64,10.63
	c0,5.88,4.76,10.64,10.63,10.64v-21.27c-3.31,0-6.27-1.51-8.22-3.89H211.5c-1.95,2.38-4.91,3.89-8.22,3.89
	c-3.3101,0-6.27-1.51-8.22-3.89h-21.27c1.95,2.38,4.91,3.89,8.22,3.89c5.88,0,10.64,4.76,10.64,10.63
	c0,5.88,4.7599,10.64,10.63,10.64c5.87,0,10.6299,4.76,10.6299,10.63s-4.7599,10.63-10.6299,10.63c-5.8701,0-10.63-4.76-10.63-10.63
	s-4.76-10.63-10.64-10.63c-5.87,0-10.63,4.76-10.63,10.63s-4.76,10.63-10.63,10.63s-10.63-4.76-10.63-10.63s-4.76-10.63-10.63-10.63
	c-5.88,0-10.64-4.76-10.64-10.64c0-5.87-4.7599-10.63-10.63-10.63c-5.87,0-10.6299,4.76-10.6299,10.63
	c0,5.88,4.7599,10.64,10.6299,10.64c5.8701,0,10.63,4.76,10.63,10.63s4.76,10.63,10.64,10.63c5.87,0,10.63,4.76,10.63,10.63
	s-4.76,10.64-10.63,10.64c-5.88,0-10.64-4.77-10.64-10.64s-4.7599-10.63-10.63-10.63c-5.87,0-10.6299,4.76-10.6299,10.63
	s4.7599,10.64,10.6299,10.64c5.8701,0,10.63,4.76,10.63,10.63s4.76,10.63,10.64,10.63c5.87,0,10.63,4.76,10.63,10.63
	s4.76,10.64,10.63,10.64s10.63,4.76,10.63,10.63S166.62,333,160.75,333s-10.63,4.76-10.63,10.63s-4.76,10.63-10.63,10.63
	c-5.88,0-10.64,4.77-10.64,10.64s-4.7599,10.63-10.63,10.63c-5.87,0-10.6299,4.76-10.6299,10.63s4.7599,10.63,10.6299,10.63
	c5.8701,0,10.63-4.76,10.63-10.63s4.76-10.63,10.64-10.63c5.87,0,10.63,4.76,10.63,10.63s-4.76,10.63-10.63,10.63
	c-5.88,0-10.64,4.77-10.64,10.64s4.76,10.63,10.64,10.63c5.87,0,10.63-4.76,10.63-10.63s4.76-10.64,10.63-10.64
	s10.63-4.76,10.63-10.63s4.76-10.63,10.63-10.63c5.88,0,10.64-4.76,10.64-10.63s-4.76-10.64-10.64-10.64
	c-5.87,0-10.63-4.76-10.63-10.63S176.14,333,182.01,333c5.88,0,10.64,4.76,10.64,10.63s4.7599,10.63,10.63,10.63
	c5.87,0,10.6299,4.77,10.6299,10.64s4.76,10.63,10.63,10.63c5.88,0,10.64,4.76,10.64,10.63s-4.76,10.63-10.64,10.63
	c-5.87,0-10.63,4.77-10.63,10.64s-4.7599,10.63-10.6299,10.63c-5.8701,0-10.63-4.76-10.63-10.63s4.7599-10.64,10.63-10.64
	c5.87,0,10.6299-4.76,10.6299-10.63s-4.7599-10.63-10.6299-10.63c-5.8701,0-10.63,4.76-10.63,10.63s-4.76,10.63-10.64,10.63
	c-5.87,0-10.63,4.77-10.63,10.64s4.76,10.63,10.63,10.63c5.88,0,10.64,4.76,10.64,10.63s4.7599,10.63,10.63,10.63
	c5.87,0,10.6299,4.7599,10.6299,10.64c0,5.87-4.7599,10.63-10.6299,10.63c-5.8701,0-10.63-4.76-10.63-10.63
	c0-5.88-4.76-10.64-10.64-10.64c-5.87,0-10.63,4.7599-10.63,10.64c0,5.87-4.76,10.63-10.63,10.63s-10.63,4.76-10.63,10.63
	s4.76,10.63,10.63,10.63s10.63-4.76,10.63-10.63s4.76-10.63,10.63-10.63c5.88,0,10.64,4.76,10.64,10.63s-4.76,10.63-10.64,10.63
	c-5.87,0-10.63,4.76-10.63,10.64c0,5.87-4.76,10.63-10.63,10.63s-10.63,4.76-10.63,10.63s4.76,10.63,10.63,10.63
	s10.63,4.76,10.63,10.64h21.27c0-5.8799-4.76-10.64-10.64-10.64c-5.87,0-10.63-4.76-10.63-10.63s4.76-10.63,10.63-10.63
	c5.88,0,10.64-4.76,10.64-10.63c0-5.88,4.7599-10.64,10.63-10.64c5.87,0,10.6299-4.76,10.6299-10.63s4.76-10.63,10.63-10.63
	c5.88,0,10.64,4.76,10.64,10.63s-4.76,10.63-10.64,10.63c-5.87,0-10.63,4.76-10.63,10.64c0,5.87,4.76,10.63,10.63,10.63
	c5.88,0,10.64,4.76,10.64,10.63s-4.76,10.63-10.64,10.63c-5.87,0-10.63,4.76-10.63,10.64h21.27c0-5.8799,4.76-10.64,10.63-10.64
	v-21.26c-5.87,0-10.63-4.76-10.63-10.63c0-5.88,4.76-10.64,10.63-10.64v-21.26c-5.87,0-10.63-4.76-10.63-10.63
	c0-5.88,4.76-10.64,10.63-10.64v-21.26c-5.87,0-10.63,4.76-10.63,10.63s-4.76,10.63-10.64,10.63c-5.87,0-10.63-4.76-10.63-10.63
	s4.76-10.63,10.63-10.63c5.88,0,10.64-4.76,10.64-10.63s4.76-10.64,10.63-10.64v-21.26c-5.87,0-10.63-4.76-10.63-10.63
	s4.76-10.64,10.63-10.64V333c-5.87,0-10.63-4.76-10.63-10.63s4.76-10.63,10.63-10.63v-21.27c-5.87,0-10.63,4.76-10.63,10.63
	s-4.76,10.64-10.64,10.64c-5.87,0-10.63,4.76-10.63,10.63S218.67,333,224.54,333c5.88,0,10.64,4.76,10.64,10.63
	s-4.76,10.63-10.64,10.63c-5.87,0-10.63-4.76-10.63-10.63S209.15,333,203.28,333c-5.8701,0-10.63-4.76-10.63-10.63
	s4.7599-10.63,10.63-10.63c5.87,0,10.6299-4.77,10.6299-10.64s-4.7599-10.63-10.6299-10.63c-5.8701,0-10.63,4.76-10.63,10.63
	s-4.76,10.64-10.64,10.64c-5.87,0-10.63-4.77-10.63-10.64s4.76-10.63,10.63-10.63c5.88,0,10.64-4.76,10.64-10.63
	s-4.76-10.63-10.64-10.63c-5.87,0-10.63-4.77-10.63-10.64s4.76-10.63,10.63-10.63c5.88,0,10.64,4.76,10.64,10.63
	s4.7599,10.64,10.63,10.64c5.87,0,10.6299,4.76,10.6299,10.63s4.76,10.63,10.63,10.63c5.88,0,10.64-4.76,10.64-10.63
	s4.76-10.63,10.63-10.63v-21.27c-5.87,0-10.63-4.76-10.63-10.63s-4.76-10.63-10.64-10.63c-5.87,0-10.63-4.76-10.63-10.64
	C213.91,210.17,218.67,205.41,224.54,205.41z M160.75,375.53c-5.87,0-10.63-4.76-10.63-10.63s4.76-10.64,10.63-10.64
	s10.63,4.77,10.63,10.64S166.62,375.53,160.75,375.53z M160.75,290.47c-5.87,0-10.63-4.76-10.63-10.63s4.76-10.63,10.63-10.63
	s10.63,4.76,10.63,10.63S166.62,290.47,160.75,290.47z M224.54,247.94c5.88,0,10.64,4.76,10.64,10.63s-4.76,10.64-10.64,10.64
	c-5.87,0-10.63-4.77-10.63-10.64S218.67,247.94,224.54,247.94z"/>
<rect x="124.0039" y="239" fill="none" stroke="#000000" stroke-width="0.8829" stroke-miterlimit="10" width="534.9961" height="550.0312"/>
<rect x="124.0039" y="90" fill="none" stroke="#000000" stroke-width="0.8863" stroke-miterlimit="10" width="595.6211" height="842.5039"/>
</svg>
