<?xml version="1.0" standalone="no"?>
  <!DOCTYPE svg PUBLIC "-//W3C//DTD SVG 1.1//EN" 
      "http://www.w3.org/Graphics/SVG/1.1/DTD/svg11.dtd">
  <svg width="29.7cm" height="42cm"
      xmlns="http://www.w3.org/2000/svg" version="1.1" viewBox="0 0 1052.3622 1488.18898">
    <g>
      <path d="M354.33071 389.76378 L352.88007 404.02903 L348.58756 417.71026 L341.62891 430.24735 L332.28899 441.12705 L320.95021 449.90392 L308.07675 456.21866 L294.19567 459.81272 L279.87526 460.53897 L265.70179 458.36767 L252.25553 453.38772 L240.08698 445.803 L229.69431 435.92403 L221.503 424.15526 L215.8484 410.97849 L212.96202 396.93319 L212.96202 382.59437 L215.8484 368.54907 L221.503 355.3723 L229.69431 343.60352 L240.08698 333.72455 L252.25553 326.13984 L265.70179 321.15989 L279.87526 318.98859 L294.19567 319.71484 L308.07675 323.3089 L320.95021 329.62364 L332.28899 338.40051 L341.62891 349.28021 L348.58756 361.8173 L352.88007 375.49853 L354.33071 389.76378 M359.7855 425.19685 L358.33486 439.4621 L354.04235 453.14333 L347.08369 465.68042 L337.74378 476.56012 L326.40499 485.33699 L313.53154 491.65173 L299.65046 495.24579 L285.33004 495.97204 L271.15658 493.80074 L257.71032 488.82079 L245.54176 481.23608 L235.14909 471.35711 L226.95778 459.58833 L221.30319 446.41156 L218.4168 432.36626 L218.4168 418.02744 L221.30319 403.98214 L226.95778 390.80537 L235.14909 379.0366 L245.54176 369.15762 L257.71032 361.57291 L271.15658 356.59296 L285.33004 354.42166 L299.65046 355.14791 L313.53154 358.74197 L326.40499 365.05671 L337.74378 373.83358 L347.08369 384.71328 L354.04235 397.25037 L358.33486 410.9316 L359.7855 425.19685 M376.83384 460.62992 L375.38321 474.89517 L371.09069 488.5764 L364.13204 501.1135 L354.79213 511.99319 L343.45334 520.77007 L330.57988 527.0848 L316.6988 530.67886 L302.37839 531.40511 L288.20492 529.23381 L274.75866 524.25387 L262.59011 516.66915 L252.19744 506.79018 L244.00613 495.0214 L238.35153 481.84463 L235.46515 467.79933 L235.46515 453.46051 L238.35153 439.41521 L244.00613 426.23844 L252.19744 414.46967 L262.59011 404.5907 L274.75866 397.00598 L288.20492 392.02603 L302.37839 389.85474 L316.6988 390.58098 L330.57988 394.17505 L343.45334 400.48978 L354.79213 409.26665 L364.13204 420.14635 L371.09069 432.68344 L375.38321 446.36467 L376.83384 460.62992 M404.99615 496.06299 L403.54552 510.32824 L399.253 524.00947 L392.29435 536.54657 L382.95444 547.42626 L371.61565 556.20314 L358.74219 562.51787 L344.86111 566.11193 L330.5407 566.83818 L316.36723 564.66688 L302.92097 559.68694 L290.75242 552.10222 L280.35975 542.22325 L272.16844 530.45447 L266.51384 517.2777 L263.62746 503.2324 L263.62746 488.89358 L266.51384 474.84828 L272.16844 461.67151 L280.35975 449.90274 L290.75242 440.02377 L302.92097 432.43905 L316.36723 427.4591 L330.5407 425.28781 L344.86111 426.01406 L358.74219 429.60812 L371.61565 435.92285 L382.95444 444.69972 L392.29435 455.57942 L399.253 468.11651 L403.54552 481.79774 L404.99615 496.06299 M443.08171 531.49606 L441.63108 545.76131 L437.33856 559.44254 L430.37991 571.97964 L421.04 582.85933 L409.70121 591.63621 L396.82775 597.95094 L382.94667 601.545 L368.62626 602.27125 L354.45279 600.09995 L341.00654 595.12001 L328.83798 587.53529 L318.44531 577.65632 L310.254 565.88754 L304.5994 552.71077 L301.71302 538.66547 L301.71302 524.32665 L304.5994 510.28135 L310.254 497.10459 L318.44531 485.33581 L328.83798 475.45684 L341.00654 467.87212 L354.45279 462.89217 L368.62626 460.72088 L382.94667 461.44713 L396.82775 465.04119 L409.70121 471.35592 L421.04 480.13279 L430.37991 491.01249 L437.33856 503.54959 L441.63108 517.23081 L443.08171 531.49606 M487.90535 566.92913 L486.45472 581.19438 L482.16221 594.87561 L475.20355 607.41271 L465.86364 618.2924 L454.52485 627.06928 L441.65139 633.38401 L427.77031 636.97807 L413.4499 637.70432 L399.27643 635.53302 L385.83018 630.55308 L373.66162 622.96836 L363.26895 613.08939 L355.07764 601.32061 L349.42304 588.14384 L346.53666 574.09854 L346.53666 559.75973 L349.42304 545.71442 L355.07764 532.53766 L363.26895 520.76888 L373.66162 510.88991 L385.83018 503.30519 L399.27643 498.32524 L413.4499 496.15395 L427.77031 496.8802 L441.65139 500.47426 L454.52485 506.78899 L465.86364 515.56587 L475.20355 526.44556 L482.16221 538.98266 L486.45472 552.66388 L487.90535 566.92913 M533.76931 602.3622 L532.31868 616.62745 L528.02617 630.30868 L521.06751 642.84578 L511.7276 653.72547 L500.38881 662.50235 L487.51536 668.81708 L473.63427 672.41114 L459.31386 673.13739 L445.14039 670.9661 L431.69414 665.98615 L419.52558 658.40143 L409.13291 648.52246 L400.9416 636.75368 L395.287 623.57691 L392.40062 609.53161 L392.40062 595.1928 L395.287 581.1475 L400.9416 567.97073 L409.13291 556.20195 L419.52558 546.32298 L431.69414 538.73826 L445.14039 533.75831 L459.31386 531.58702 L473.63427 532.31327 L487.51536 535.90733 L500.38881 542.22206 L511.7276 550.99894 L521.06751 561.87863 L528.02617 574.41573 L532.31868 588.09696 L533.76931 602.3622 M577.41196 637.79528 L575.96133 652.06053 L571.66881 665.74175 L564.71016 678.27885 L555.37025 689.15854 L544.03146 697.93542 L531.158 704.25015 L517.27692 707.84421 L502.95651 708.57046 L488.78304 706.39917 L475.33678 701.41922 L463.16823 693.8345 L452.77556 683.95553 L444.58425 672.18675 L438.92965 659.00999 L436.04327 644.96468 L436.04327 630.62587 L438.92965 616.58057 L444.58425 603.4038 L452.77556 591.63502 L463.16823 581.75605 L475.33678 574.17133 L488.78304 569.19139 L502.95651 567.02009 L517.27692 567.74634 L531.158 571.3404 L544.03146 577.65513 L555.37025 586.43201 L564.71016 597.3117 L571.66881 609.8488 L575.96133 623.53003 L577.41196 637.79528 M621.51507 673.22835 L620.06444 687.4936 L615.77192 701.17482 L608.81327 713.71192 L599.47336 724.59161 L588.13457 733.36849 L575.26111 739.68322 L561.38003 743.27728 L547.05962 744.00353 L532.88615 741.83224 L519.43989 736.85229 L507.27134 729.26757 L496.87867 719.3886 L488.68736 707.61982 L483.03276 694.44306 L480.14638 680.39776 L480.14638 666.05894 L483.03276 652.01364 L488.68736 638.83687 L496.87867 627.06809 L507.27134 617.18912 L519.43989 609.6044 L532.88615 604.62446 L547.05962 602.45316 L561.38003 603.17941 L575.26111 606.77347 L588.13457 613.0882 L599.47336 621.86508 L608.81327 632.74477 L615.77192 645.28187 L620.06444 658.9631 L621.51507 673.22835 M670.39872 708.66142 L668.94809 722.92667 L664.65557 736.6079 L657.69692 749.14499 L648.35701 760.02469 L637.01822 768.80156 L624.14476 775.11629 L610.26368 778.71035 L595.94327 779.4366 L581.7698 777.26531 L568.32354 772.28536 L556.15499 764.70064 L545.76232 754.82167 L537.57101 743.05289 L531.91641 729.87613 L529.03003 715.83083 L529.03003 701.49201 L531.91641 687.44671 L537.57101 674.26994 L545.76232 662.50116 L556.15499 652.62219 L568.32354 645.03747 L581.7698 640.05753 L595.94327 637.88623 L610.26368 638.61248 L624.14476 642.20654 L637.01822 648.52127 L648.35701 657.29815 L657.69692 668.17784 L664.65557 680.71494 L668.94809 694.39617 L670.39872 708.66142 M725.761 744.09449 L724.31036 758.35974 L720.01785 772.04097 L713.05919 784.57806 L703.71928 795.45776 L692.38049 804.23463 L679.50704 810.54936 L665.62596 814.14342 L651.30554 814.86967 L637.13208 812.69838 L623.68582 807.71843 L611.51727 800.13371 L601.1246 790.25474 L592.93328 778.48597 L587.27869 765.3092 L584.39231 751.2639 L584.39231 736.92508 L587.27869 722.87978 L592.93328 709.70301 L601.1246 697.93423 L611.51727 688.05526 L623.68582 680.47054 L637.13208 675.4906 L651.30554 673.3193 L665.62596 674.04555 L679.50704 677.63961 L692.38049 683.95434 L703.71928 692.73122 L713.05919 703.61091 L720.01785 716.14801 L724.31036 729.82924 L725.761 744.09449 M781.54646 779.52756 L780.09583 793.79281 L775.80332 807.47404 L768.84466 820.01113 L759.50475 830.89083 L748.16596 839.6677 L735.29251 845.98243 L721.41142 849.5765 L707.09101 850.30274 L692.91754 848.13145 L679.47129 843.1515 L667.30273 835.56678 L656.91006 825.68781 L648.71875 813.91904 L643.06415 800.74227 L640.17777 786.69697 L640.17777 772.35815 L643.06415 758.31285 L648.71875 745.13608 L656.91006 733.3673 L667.30273 723.48833 L679.47129 715.90362 L692.91754 710.92367 L707.09101 708.75237 L721.41142 709.47862 L735.29251 713.07268 L748.16596 719.38741 L759.50475 728.16429 L768.84466 739.04398 L775.80332 751.58108 L780.09583 765.26231 L781.54646 779.52756 M821.73965 814.96063 L820.28902 829.22588 L815.9965 842.90711 L809.03785 855.4442 L799.69794 866.3239 L788.35915 875.10077 L775.48569 881.41551 L761.60461 885.00957 L747.2842 885.73582 L733.11073 883.56452 L719.66448 878.58457 L707.49592 870.99986 L697.10325 861.12088 L688.91194 849.35211 L683.25734 836.17534 L680.37096 822.13004 L680.37096 807.79122 L683.25734 793.74592 L688.91194 780.56915 L697.10325 768.80038 L707.49592 758.9214 L719.66448 751.33669 L733.11073 746.35674 L747.2842 744.18544 L761.60461 744.91169 L775.48569 748.50575 L788.35915 754.82049 L799.69794 763.59736 L809.03785 774.47706 L815.9965 787.01415 L820.28902 800.69538 L821.73965 814.96063 M835.86318 850.3937 L834.41254 864.65895 L830.12003 878.34018 L823.16138 890.87728 L813.82146 901.75697 L802.48268 910.53385 L789.60922 916.84858 L775.72814 920.44264 L761.40773 921.16889 L747.23426 918.99759 L733.788 914.01764 L721.61945 906.43293 L711.22678 896.55396 L703.03547 884.78518 L697.38087 871.60841 L694.49449 857.56311 L694.49449 843.22429 L697.38087 829.17899 L703.03547 816.00222 L711.22678 804.23345 L721.61945 794.35448 L733.788 786.76976 L747.23426 781.78981 L761.40773 779.61852 L775.72814 780.34476 L789.60922 783.93883 L802.48268 790.25356 L813.82146 799.03043 L823.16138 809.91013 L830.12003 822.44722 L834.41254 836.12845 L835.86318 850.3937 M830.33572 885.82677 L828.88509 900.09202 L824.59257 913.77325 L817.63392 926.31035 L808.29401 937.19004 L796.95522 945.96692 L784.08176 952.28165 L770.20068 955.87571 L755.88027 956.60196 L741.7068 954.43066 L728.26055 949.45072 L716.09199 941.866 L705.69932 931.98703 L697.50801 920.21825 L691.85341 907.04148 L688.96703 892.99618 L688.96703 878.65736 L691.85341 864.61206 L697.50801 851.43529 L705.69932 839.66652 L716.09199 829.78755 L728.26055 822.20283 L741.7068 817.22288 L755.88027 815.05159 L770.20068 815.77784 L784.08176 819.3719 L796.95522 825.68663 L808.29401 834.4635 L817.63392 845.3432 L824.59257 857.88029 L828.88509 871.56152 L830.33572 885.82677 M814.92345 921.25984 L813.47282 935.52509 L809.1803 949.20632 L802.22165 961.74342 L792.88173 972.62311 L781.54295 981.39999 L768.66949 987.71472 L754.78841 991.30878 L740.468 992.03503 L726.29453 989.86373 L712.84827 984.88379 L700.67972 977.29907 L690.28705 967.4201 L682.09574 955.65132 L676.44114 942.47455 L673.55476 928.42925 L673.55476 914.09043 L676.44114 900.04513 L682.09574 886.86836 L690.28705 875.09959 L700.67972 865.22062 L712.84827 857.6359 L726.29453 852.65595 L740.468 850.48466 L754.78841 851.21091 L768.66949 854.80497 L781.54295 861.1197 L792.88173 869.89657 L802.22165 880.77627 L809.1803 893.31336 L813.47282 906.99459 L814.92345 921.25984 M795.33972 956.69291 L793.88908 970.95816 L789.59657 984.63939 L782.63791 997.17649 L773.298 1008.05618 L761.95921 1016.83306 L749.08576 1023.14779 L735.20468 1026.74185 L720.88426 1027.4681 L706.7108 1025.2968 L693.26454 1020.31686 L681.09599 1012.73214 L670.70331 1002.85317 L662.512 991.08439 L656.85741 977.90762 L653.97102 963.86232 L653.97102 949.5235 L656.85741 935.4782 L662.512 922.30144 L670.70331 910.53266 L681.09599 900.65369 L693.26454 893.06897 L706.7108 888.08902 L720.88426 885.91773 L735.20468 886.64398 L749.08576 890.23804 L761.95921 896.55277 L773.298 905.32964 L782.63791 916.20934 L789.59657 928.74644 L793.88908 942.42766 L795.33972 956.69291 M773.40982 992.12598 L771.95919 1006.39123 L767.66667 1020.07246 L760.70802 1032.60956 L751.36811 1043.48925 L740.02932 1052.26613 L727.15586 1058.58086 L713.27478 1062.17492 L698.95437 1062.90117 L684.7809 1060.72987 L671.33464 1055.74993 L659.16609 1048.16521 L648.77342 1038.28624 L640.58211 1026.51746 L634.92751 1013.34069 L632.04113 999.29539 L632.04113 984.95658 L634.92751 970.91127 L640.58211 957.73451 L648.77342 945.96573 L659.16609 936.08676 L671.33464 928.50204 L684.7809 923.52209 L698.95437 921.3508 L713.27478 922.07705 L727.15586 925.67111 L740.02932 931.98584 L751.36811 940.76272 L760.70802 951.64241 L767.66667 964.17951 L771.95919 977.86073 L773.40982 992.12598 M748.96169 1027.55906 L747.51105 1041.8243 L743.21854 1055.50553 L736.25988 1068.04263 L726.91997 1078.92232 L715.58118 1087.6992 L702.70773 1094.01393 L688.82665 1097.60799 L674.50623 1098.33424 L660.33277 1096.16295 L646.88651 1091.183 L634.71796 1083.59828 L624.32528 1073.71931 L616.13397 1061.95053 L610.47938 1048.77376 L607.59299 1034.72846 L607.59299 1020.38965 L610.47938 1006.34435 L616.13397 993.16758 L624.32528 981.3988 L634.71796 971.51983 L646.88651 963.93511 L660.33277 958.95516 L674.50623 956.78387 L688.82665 957.51012 L702.70773 961.10418 L715.58118 967.41891 L726.91997 976.19579 L736.25988 987.07548 L743.21854 999.61258 L747.51105 1013.29381 L748.96169 1027.55906 M721.31646 1062.99213 L719.86583 1077.25738 L715.57332 1090.9386 L708.61466 1103.4757 L699.27475 1114.35539 L687.93596 1123.13227 L675.06251 1129.447 L661.18143 1133.04106 L646.86101 1133.76731 L632.68755 1131.59602 L619.24129 1126.61607 L607.07273 1119.03135 L596.68006 1109.15238 L588.48875 1097.3836 L582.83416 1084.20684 L579.94777 1070.16153 L579.94777 1055.82272 L582.83416 1041.77742 L588.48875 1028.60065 L596.68006 1016.83187 L607.07273 1006.9529 L619.24129 999.36818 L632.68755 994.38824 L646.86101 992.21694 L661.18143 992.94319 L675.06251 996.53725 L687.93596 1002.85198 L699.27475 1011.62886 L708.61466 1022.50855 L715.57332 1035.04565 L719.86583 1048.72688 L721.31646 1062.99213 M690.28517 1098.4252 L688.83454 1112.69045 L684.54203 1126.37167 L677.58337 1138.90877 L668.24346 1149.78847 L656.90467 1158.56534 L644.03121 1164.88007 L630.15013 1168.47413 L615.82972 1169.20038 L601.65625 1167.02909 L588.21 1162.04914 L576.04144 1154.46442 L565.64877 1144.58545 L557.45746 1132.81667 L551.80286 1119.63991 L548.91648 1105.59461 L548.91648 1091.25579 L551.80286 1077.21049 L557.45746 1064.03372 L565.64877 1052.26494 L576.04144 1042.38597 L588.21 1034.80125 L601.65625 1029.82131 L615.82972 1027.65001 L630.15013 1028.37626 L644.03121 1031.97032 L656.90467 1038.28505 L668.24346 1047.06193 L677.58337 1057.94162 L684.54203 1070.47872 L688.83454 1084.15995 L690.28517 1098.4252 M496.06299 389.76378 L494.61236 404.02903 L490.31984 417.71026 L483.36119 430.24735 L474.02128 441.12705 L462.68249 449.90392 L449.80903 456.21866 L435.92795 459.81272 L421.60754 460.53897 L407.43407 458.36767 L393.98782 453.38772 L381.81926 445.803 L371.42659 435.92403 L363.23528 424.15526 L357.58068 410.97849 L354.6943 396.93319 L354.6943 382.59437 L357.58068 368.54907 L363.23528 355.3723 L371.42659 343.60352 L381.81926 333.72455 L393.98782 326.13984 L407.43407 321.15989 L421.60754 318.98859 L435.92795 319.71484 L449.80903 323.3089 L462.68249 329.62364 L474.02128 338.40051 L483.36119 349.28021 L490.31984 361.8173 L494.61236 375.49853 L496.06299 389.76378 M503.02784 425.19685 L501.5772 439.4621 L497.28469 453.14333 L490.32603 465.68042 L480.98612 476.56012 L469.64733 485.33699 L456.77388 491.65173 L442.8928 495.24579 L428.57238 495.97204 L414.39892 493.80074 L400.95266 488.82079 L388.78411 481.23608 L378.39143 471.35711 L370.20012 459.58833 L364.54553 446.41156 L361.65915 432.36626 L361.65915 418.02744 L364.54553 403.98214 L370.20012 390.80537 L378.39143 379.0366 L388.78411 369.15762 L400.95266 361.57291 L414.39892 356.59296 L428.57238 354.42166 L442.8928 355.14791 L456.77388 358.74197 L469.64733 365.05671 L480.98612 373.83358 L490.32603 384.71328 L497.28469 397.25037 L501.5772 410.9316 L503.02784 425.19685 M524.43248 460.62992 L522.98184 474.89517 L518.68933 488.5764 L511.73067 501.1135 L502.39076 511.99319 L491.05197 520.77007 L478.17852 527.0848 L464.29744 530.67886 L449.97702 531.40511 L435.80356 529.23381 L422.3573 524.25387 L410.18875 516.66915 L399.79608 506.79018 L391.60476 495.0214 L385.95017 481.84463 L383.06379 467.79933 L383.06379 453.46051 L385.95017 439.41521 L391.60476 426.23844 L399.79608 414.46967 L410.18875 404.5907 L422.3573 397.00598 L435.80356 392.02603 L449.97702 389.85474 L464.29744 390.58098 L478.17852 394.17505 L491.05197 400.48978 L502.39076 409.26665 L511.73067 420.14635 L518.68933 432.68344 L522.98184 446.36467 L524.43248 460.62992 M557.01062 496.06299 L555.55998 510.32824 L551.26747 524.00947 L544.30881 536.54657 L534.9689 547.42626 L523.63011 556.20314 L510.75666 562.51787 L496.87558 566.11193 L482.55516 566.83818 L468.3817 564.66688 L454.93544 559.68694 L442.76689 552.10222 L432.37422 542.22325 L424.1829 530.45447 L418.52831 517.2777 L415.64193 503.2324 L415.64193 488.89358 L418.52831 474.84828 L424.1829 461.67151 L432.37422 449.90274 L442.76689 440.02377 L454.93544 432.43905 L468.3817 427.4591 L482.55516 425.28781 L496.87558 426.01406 L510.75666 429.60812 L523.63011 435.92285 L534.9689 444.69972 L544.30881 455.57942 L551.26747 468.11651 L555.55998 481.79774 L557.01062 496.06299 M595.62202 531.49606 L594.17139 545.76131 L589.87887 559.44254 L582.92022 571.97964 L573.58031 582.85933 L562.24152 591.63621 L549.36806 597.95094 L535.48698 601.545 L521.16657 602.27125 L506.9931 600.09995 L493.54685 595.12001 L481.37829 587.53529 L470.98562 577.65632 L462.79431 565.88754 L457.13971 552.71077 L454.25333 538.66547 L454.25333 524.32665 L457.13971 510.28135 L462.79431 497.10459 L470.98562 485.33581 L481.37829 475.45684 L493.54685 467.87212 L506.9931 462.89217 L521.16657 460.72088 L535.48698 461.44713 L549.36806 465.04119 L562.24152 471.35592 L573.58031 480.13279 L582.92022 491.01249 L589.87887 503.54959 L594.17139 517.23081 L595.62202 531.49606 M637.68828 566.92913 L636.23764 581.19438 L631.94513 594.87561 L624.98647 607.41271 L615.64656 618.2924 L604.30777 627.06928 L591.43432 633.38401 L577.55324 636.97807 L563.23282 637.70432 L549.05936 635.53302 L535.6131 630.55308 L523.44454 622.96836 L513.05187 613.08939 L504.86056 601.32061 L499.20597 588.14384 L496.31958 574.09854 L496.31958 559.75973 L499.20597 545.71442 L504.86056 532.53766 L513.05187 520.76888 L523.44454 510.88991 L535.6131 503.30519 L549.05936 498.32524 L563.23282 496.15395 L577.55324 496.8802 L591.43432 500.47426 L604.30777 506.78899 L615.64656 515.56587 L624.98647 526.44556 L631.94513 538.98266 L636.23764 552.66388 L637.68828 566.92913 M685.24377 602.3622 L683.79313 616.62745 L679.50062 630.30868 L672.54196 642.84578 L663.20205 653.72547 L651.86326 662.50235 L638.98981 668.81708 L625.10873 672.41114 L610.78831 673.13739 L596.61485 670.9661 L583.16859 665.98615 L571.00004 658.40143 L560.60736 648.52246 L552.41605 636.75368 L546.76146 623.57691 L543.87507 609.53161 L543.87507 595.1928 L546.76146 581.1475 L552.41605 567.97073 L560.60736 556.20195 L571.00004 546.32298 L583.16859 538.73826 L596.61485 533.75831 L610.78831 531.58702 L625.10873 532.31327 L638.98981 535.90733 L651.86326 542.22206 L663.20205 550.99894 L672.54196 561.87863 L679.50062 574.41573 L683.79313 588.09696 L685.24377 602.3622 M741.88403 637.79528 L740.4334 652.06053 L736.14088 665.74175 L729.18223 678.27885 L719.84232 689.15854 L708.50353 697.93542 L695.63007 704.25015 L681.74899 707.84421 L667.42858 708.57046 L653.25511 706.39917 L639.80886 701.41922 L627.6403 693.8345 L617.24763 683.95553 L609.05632 672.18675 L603.40172 659.00999 L600.51534 644.96468 L600.51534 630.62587 L603.40172 616.58057 L609.05632 603.4038 L617.24763 591.63502 L627.6403 581.75605 L639.80886 574.17133 L653.25511 569.19139 L667.42858 567.02009 L681.74899 567.74634 L695.63007 571.3404 L708.50353 577.65513 L719.84232 586.43201 L729.18223 597.3117 L736.14088 609.8488 L740.4334 623.53003 L741.88403 637.79528 M807.23099 673.22835 L805.78036 687.4936 L801.48785 701.17482 L794.52919 713.71192 L785.18928 724.59161 L773.85049 733.36849 L760.97704 739.68322 L747.09596 743.27728 L732.77554 744.00353 L718.60208 741.83224 L705.15582 736.85229 L692.98726 729.26757 L682.59459 719.3886 L674.40328 707.61982 L668.74869 694.44306 L665.8623 680.39776 L665.8623 666.05894 L668.74869 652.01364 L674.40328 638.83687 L682.59459 627.06809 L692.98726 617.18912 L705.15582 609.6044 L718.60208 604.62446 L732.77554 602.45316 L747.09596 603.17941 L760.97704 606.77347 L773.85049 613.0882 L785.18928 621.86508 L794.52919 632.74477 L801.48785 645.28187 L805.78036 658.9631 L807.23099 673.22835 M868.97957 708.66142 L867.52893 722.92667 L863.23642 736.6079 L856.27776 749.14499 L846.93785 760.02469 L835.59906 768.80156 L822.72561 775.11629 L808.84453 778.71035 L794.52412 779.4366 L780.35065 777.26531 L766.90439 772.28536 L754.73584 764.70064 L744.34317 754.82167 L736.15185 743.05289 L730.49726 729.87613 L727.61088 715.83083 L727.61088 701.49201 L730.49726 687.44671 L736.15185 674.26994 L744.34317 662.50116 L754.73584 652.62219 L766.90439 645.03747 L780.35065 640.05753 L794.52412 637.88623 L808.84453 638.61248 L822.72561 642.20654 L835.59906 648.52127 L846.93785 657.29815 L856.27776 668.17784 L863.23642 680.71494 L867.52893 694.39617 L868.97957 708.66142 M906.51529 744.09449 L905.06465 758.35974 L900.77214 772.04097 L893.81348 784.57806 L884.47357 795.45776 L873.13478 804.23463 L860.26133 810.54936 L846.38025 814.14342 L832.05983 814.86967 L817.88637 812.69838 L804.44011 807.71843 L792.27156 800.13371 L781.87888 790.25474 L773.68757 778.48597 L768.03298 765.3092 L765.14659 751.2639 L765.14659 736.92508 L768.03298 722.87978 L773.68757 709.70301 L781.87888 697.93423 L792.27156 688.05526 L804.44011 680.47054 L817.88637 675.4906 L832.05983 673.3193 L846.38025 674.04555 L860.26133 677.63961 L873.13478 683.95434 L884.47357 692.73122 L893.81348 703.61091 L900.77214 716.14801 L905.06465 729.82924 L906.51529 744.09449 M915.61449 779.52756 L914.16386 793.79281 L909.87134 807.47404 L902.91269 820.01113 L893.57278 830.89083 L882.23399 839.6677 L869.36053 845.98243 L855.47945 849.5765 L841.15904 850.30274 L826.98557 848.13145 L813.53931 843.1515 L801.37076 835.56678 L790.97809 825.68781 L782.78678 813.91904 L777.13218 800.74227 L774.2458 786.69697 L774.2458 772.35815 L777.13218 758.31285 L782.78678 745.13608 L790.97809 733.3673 L801.37076 723.48833 L813.53931 715.90362 L826.98557 710.92367 L841.15904 708.75237 L855.47945 709.47862 L869.36053 713.07268 L882.23399 719.38741 L893.57278 728.16429 L902.91269 739.04398 L909.87134 751.58108 L914.16386 765.26231 L915.61449 779.52756 M905.61118 814.96063 L904.16055 829.22588 L899.86803 842.90711 L892.90938 855.4442 L883.56947 866.3239 L872.23068 875.10077 L859.35722 881.41551 L845.47614 885.00957 L831.15573 885.73582 L816.98226 883.56452 L803.536 878.58457 L791.36745 870.99986 L780.97478 861.12088 L772.78347 849.35211 L767.12887 836.17534 L764.24249 822.13004 L764.24249 807.79122 L767.12887 793.74592 L772.78347 780.56915 L780.97478 768.80038 L791.36745 758.9214 L803.536 751.33669 L816.98226 746.35674 L831.15573 744.18544 L845.47614 744.91169 L859.35722 748.50575 L872.23068 754.82049 L883.56947 763.59736 L892.90938 774.47706 L899.86803 787.01415 L904.16055 800.69538 L905.61118 814.96063 M884.80517 850.3937 L883.35453 864.65895 L879.06202 878.34018 L872.10336 890.87728 L862.76345 901.75697 L851.42466 910.53385 L838.55121 916.84858 L824.67013 920.44264 L810.34971 921.16889 L796.17625 918.99759 L782.72999 914.01764 L770.56143 906.43293 L760.16876 896.55396 L751.97745 884.78518 L746.32286 871.60841 L743.43647 857.56311 L743.43647 843.22429 L746.32286 829.17899 L751.97745 816.00222 L760.16876 804.23345 L770.56143 794.35448 L782.72999 786.76976 L796.17625 781.78981 L810.34971 779.61852 L824.67013 780.34476 L838.55121 783.93883 L851.42466 790.25356 L862.76345 799.03043 L872.10336 809.91013 L879.06202 822.44722 L883.35453 836.12845 L884.80517 850.3937 M859.12509 885.82677 L857.67446 900.09202 L853.38195 913.77325 L846.42329 926.31035 L837.08338 937.19004 L825.74459 945.96692 L812.87114 952.28165 L798.99006 955.87571 L784.66964 956.60196 L770.49617 954.43066 L757.04992 949.45072 L744.88136 941.866 L734.48869 931.98703 L726.29738 920.21825 L720.64278 907.04148 L717.7564 892.99618 L717.7564 878.65736 L720.64278 864.61206 L726.29738 851.43529 L734.48869 839.66652 L744.88136 829.78755 L757.04992 822.20283 L770.49617 817.22288 L784.66964 815.05159 L798.99006 815.77784 L812.87114 819.3719 L825.74459 825.68663 L837.08338 834.4635 L846.42329 845.3432 L853.38195 857.88029 L857.67446 871.56152 L859.12509 885.82677 M832.63898 921.25984 L831.18835 935.52509 L826.89583 949.20632 L819.93718 961.74342 L810.59727 972.62311 L799.25848 981.39999 L786.38502 987.71472 L772.50394 991.30878 L758.18353 992.03503 L744.01006 989.86373 L730.5638 984.88379 L718.39525 977.29907 L708.00258 967.4201 L699.81127 955.65132 L694.15667 942.47455 L691.27029 928.42925 L691.27029 914.09043 L694.15667 900.04513 L699.81127 886.86836 L708.00258 875.09959 L718.39525 865.22062 L730.5638 857.6359 L744.01006 852.65595 L758.18353 850.48466 L772.50394 851.21091 L786.38502 854.80497 L799.25848 861.1197 L810.59727 869.89657 L819.93718 880.77627 L826.89583 893.31336 L831.18835 906.99459 L832.63898 921.25984 M807.10925 956.69291 L805.65862 970.95816 L801.3661 984.63939 L794.40745 997.17649 L785.06754 1008.05618 L773.72875 1016.83306 L760.85529 1023.14779 L746.97421 1026.74185 L732.6538 1027.4681 L718.48033 1025.2968 L705.03408 1020.31686 L692.86552 1012.73214 L682.47285 1002.85317 L674.28154 991.08439 L668.62694 977.90762 L665.74056 963.86232 L665.74056 949.5235 L668.62694 935.4782 L674.28154 922.30144 L682.47285 910.53266 L692.86552 900.65369 L705.03408 893.06897 L718.48033 888.08902 L732.6538 885.91773 L746.97421 886.64398 L760.85529 890.23804 L773.72875 896.55277 L785.06754 905.32964 L794.40745 916.20934 L801.3661 928.74644 L805.65862 942.42766 L807.10925 956.69291 M781.93355 992.12598 L780.48291 1006.39123 L776.1904 1020.07246 L769.23174 1032.60956 L759.89183 1043.48925 L748.55305 1052.26613 L735.67959 1058.58086 L721.79851 1062.17492 L707.4781 1062.90117 L693.30463 1060.72987 L679.85837 1055.74993 L667.68982 1048.16521 L657.29715 1038.28624 L649.10584 1026.51746 L643.45124 1013.34069 L640.56486 999.29539 L640.56486 984.95658 L643.45124 970.91127 L649.10584 957.73451 L657.29715 945.96573 L667.68982 936.08676 L679.85837 928.50204 L693.30463 923.52209 L707.4781 921.3508 L721.79851 922.07705 L735.67959 925.67111 L748.55305 931.98584 L759.89183 940.76272 L769.23174 951.64241 L776.1904 964.17951 L780.48291 977.86073 L781.93355 992.12598 M755.57932 1027.55906 L754.12869 1041.8243 L749.83617 1055.50553 L742.87752 1068.04263 L733.53761 1078.92232 L722.19882 1087.6992 L709.32536 1094.01393 L695.44428 1097.60799 L681.12387 1098.33424 L666.9504 1096.16295 L653.50414 1091.183 L641.33559 1083.59828 L630.94292 1073.71931 L622.75161 1061.95053 L617.09701 1048.77376 L614.21063 1034.72846 L614.21063 1020.38965 L617.09701 1006.34435 L622.75161 993.16758 L630.94292 981.3988 L641.33559 971.51983 L653.50414 963.93511 L666.9504 958.95516 L681.12387 956.78387 L695.44428 957.51012 L709.32536 961.10418 L722.19882 967.41891 L733.53761 976.19579 L742.87752 987.07548 L749.83617 999.61258 L754.12869 1013.29381 L755.57932 1027.55906 M726.67157 1062.99213 L725.22094 1077.25738 L720.92843 1090.9386 L713.96977 1103.4757 L704.62986 1114.35539 L693.29107 1123.13227 L680.41762 1129.447 L666.53654 1133.04106 L652.21612 1133.76731 L638.04266 1131.59602 L624.5964 1126.61607 L612.42784 1119.03135 L602.03517 1109.15238 L593.84386 1097.3836 L588.18927 1084.20684 L585.30288 1070.16153 L585.30288 1055.82272 L588.18927 1041.77742 L593.84386 1028.60065 L602.03517 1016.83187 L612.42784 1006.9529 L624.5964 999.36818 L638.04266 994.38824 L652.21612 992.21694 L666.53654 992.94319 L680.41762 996.53725 L693.29107 1002.85198 L704.62986 1011.62886 L713.96977 1022.50855 L720.92843 1035.04565 L725.22094 1048.72688 L726.67157 1062.99213 M694.65892 1098.4252 L693.20829 1112.69045 L688.91578 1126.37167 L681.95712 1138.90877 L672.61721 1149.78847 L661.27842 1158.56534 L648.40497 1164.88007 L634.52388 1168.47413 L620.20347 1169.20038 L606.03 1167.02909 L592.58375 1162.04914 L580.41519 1154.46442 L570.02252 1144.58545 L561.83121 1132.81667 L556.17661 1119.63991 L553.29023 1105.59461 L553.29023 1091.25579 L556.17661 1077.21049 L561.83121 1064.03372 L570.02252 1052.26494 L580.41519 1042.38597 L592.58375 1034.80125 L606.03 1029.82131 L620.20347 1027.65001 L634.52388 1028.37626 L648.40497 1031.97032 L661.27842 1038.28505 L672.61721 1047.06193 L681.95712 1057.94162 L688.91578 1070.47872 L693.20829 1084.15995 L694.65892 1098.4252 M637.79528 389.76378 L636.34464 404.02903 L632.05213 417.71026 L625.09347 430.24735 L615.75356 441.12705 L604.41477 449.90392 L591.54132 456.21866 L577.66024 459.81272 L563.33982 460.53897 L549.16636 458.36767 L535.7201 453.38772 L523.55154 445.803 L513.15887 435.92403 L504.96756 424.15526 L499.31297 410.97849 L496.42658 396.93319 L496.42658 382.59437 L499.31297 368.54907 L504.96756 355.3723 L513.15887 343.60352 L523.55154 333.72455 L535.7201 326.13984 L549.16636 321.15989 L563.33982 318.98859 L577.66024 319.71484 L591.54132 323.3089 L604.41477 329.62364 L615.75356 338.40051 L625.09347 349.28021 L632.05213 361.8173 L636.34464 375.49853 L637.79528 389.76378 M642.88778 425.19685 L641.43714 439.4621 L637.14463 453.14333 L630.18597 465.68042 L620.84606 476.56012 L609.50727 485.33699 L596.63382 491.65173 L582.75274 495.24579 L568.43232 495.97204 L554.25886 493.80074 L540.8126 488.82079 L528.64405 481.23608 L518.25138 471.35711 L510.06006 459.58833 L504.40547 446.41156 L501.51909 432.36626 L501.51909 418.02744 L504.40547 403.98214 L510.06006 390.80537 L518.25138 379.0366 L528.64405 369.15762 L540.8126 361.57291 L554.25886 356.59296 L568.43232 354.42166 L582.75274 355.14791 L596.63382 358.74197 L609.50727 365.05671 L620.84606 373.83358 L630.18597 384.71328 L637.14463 397.25037 L641.43714 410.9316 L642.88778 425.19685 M657.82517 460.62992 L656.37453 474.89517 L652.08202 488.5764 L645.12337 501.1135 L635.78345 511.99319 L624.44467 520.77007 L611.57121 527.0848 L597.69013 530.67886 L583.36972 531.40511 L569.19625 529.23381 L555.74999 524.25387 L543.58144 516.66915 L533.18877 506.79018 L524.99746 495.0214 L519.34286 481.84463 L516.45648 467.79933 L516.45648 453.46051 L519.34286 439.41521 L524.99746 426.23844 L533.18877 414.46967 L543.58144 404.5907 L555.74999 397.00598 L569.19625 392.02603 L583.36972 389.85474 L597.69013 390.58098 L611.57121 394.17505 L624.44467 400.48978 L635.78345 409.26665 L645.12337 420.14635 L652.08202 432.68344 L656.37453 446.36467 L657.82517 460.62992 M681.9253 496.06299 L680.47467 510.32824 L676.18215 524.00947 L669.2235 536.54657 L659.88359 547.42626 L648.5448 556.20314 L635.67134 562.51787 L621.79026 566.11193 L607.46985 566.83818 L593.29638 564.66688 L579.85012 559.68694 L567.68157 552.10222 L557.2889 542.22325 L549.09759 530.45447 L543.44299 517.2777 L540.55661 503.2324 L540.55661 488.89358 L543.44299 474.84828 L549.09759 461.67151 L557.2889 449.90274 L567.68157 440.02377 L579.85012 432.43905 L593.29638 427.4591 L607.46985 425.28781 L621.79026 426.01406 L635.67134 429.60812 L648.5448 435.92285 L659.88359 444.69972 L669.2235 455.57942 L676.18215 468.11651 L680.47467 481.79774 L681.9253 496.06299 M715.25651 531.49606 L713.80587 545.76131 L709.51336 559.44254 L702.5547 571.97964 L693.21479 582.85933 L681.876 591.63621 L669.00255 597.95094 L655.12147 601.545 L640.80105 602.27125 L626.62759 600.09995 L613.18133 595.12001 L601.01278 587.53529 L590.62011 577.65632 L582.42879 565.88754 L576.7742 552.71077 L573.88782 538.66547 L573.88782 524.32665 L576.7742 510.28135 L582.42879 497.10459 L590.62011 485.33581 L601.01278 475.45684 L613.18133 467.87212 L626.62759 462.89217 L640.80105 460.72088 L655.12147 461.44713 L669.00255 465.04119 L681.876 471.35592 L693.21479 480.13279 L702.5547 491.01249 L709.51336 503.54959 L713.80587 517.23081 L715.25651 531.49606 M758.99632 566.92913 L757.54569 581.19438 L753.25317 594.87561 L746.29452 607.41271 L736.95461 618.2924 L725.61582 627.06928 L712.74236 633.38401 L698.86128 636.97807 L684.54087 637.70432 L670.3674 635.53302 L656.92114 630.55308 L644.75259 622.96836 L634.35992 613.08939 L626.16861 601.32061 L620.51401 588.14384 L617.62763 574.09854 L617.62763 559.75973 L620.51401 545.71442 L626.16861 532.53766 L634.35992 520.76888 L644.75259 510.88991 L656.92114 503.30519 L670.3674 498.32524 L684.54087 496.15395 L698.86128 496.8802 L712.74236 500.47426 L725.61582 506.78899 L736.95461 515.56587 L746.29452 526.44556 L753.25317 538.98266 L757.54569 552.66388 L758.99632 566.92913 M813.30007 602.3622 L811.84944 616.62745 L807.55693 630.30868 L800.59827 642.84578 L791.25836 653.72547 L779.91957 662.50235 L767.04612 668.81708 L753.16503 672.41114 L738.84462 673.13739 L724.67115 670.9661 L711.2249 665.98615 L699.05634 658.40143 L688.66367 648.52246 L680.47236 636.75368 L674.81776 623.57691 L671.93138 609.53161 L671.93138 595.1928 L674.81776 581.1475 L680.47236 567.97073 L688.66367 556.20195 L699.05634 546.32298 L711.2249 538.73826 L724.67115 533.75831 L738.84462 531.58702 L753.16503 532.31327 L767.04612 535.90733 L779.91957 542.22206 L791.25836 550.99894 L800.59827 561.87863 L807.55693 574.41573 L811.84944 588.09696 L813.30007 602.3622 M872.42946 637.79528 L870.97882 652.06053 L866.68631 665.74175 L859.72765 678.27885 L850.38774 689.15854 L839.04895 697.93542 L826.1755 704.25015 L812.29442 707.84421 L797.974 708.57046 L783.80054 706.39917 L770.35428 701.41922 L758.18573 693.8345 L747.79305 683.95553 L739.60174 672.18675 L733.94715 659.00999 L731.06076 644.96468 L731.06076 630.62587 L733.94715 616.58057 L739.60174 603.4038 L747.79305 591.63502 L758.18573 581.75605 L770.35428 574.17133 L783.80054 569.19139 L797.974 567.02009 L812.29442 567.74634 L826.1755 571.3404 L839.04895 577.65513 L850.38774 586.43201 L859.72765 597.3117 L866.68631 609.8488 L870.97882 623.53003 L872.42946 637.79528 M921.87813 673.22835 L920.4275 687.4936 L916.13498 701.17482 L909.17633 713.71192 L899.83642 724.59161 L888.49763 733.36849 L875.62417 739.68322 L861.74309 743.27728 L847.42268 744.00353 L833.24921 741.83224 L819.80296 736.85229 L807.6344 729.26757 L797.24173 719.3886 L789.05042 707.61982 L783.39582 694.44306 L780.50944 680.39776 L780.50944 666.05894 L783.39582 652.01364 L789.05042 638.83687 L797.24173 627.06809 L807.6344 617.18912 L819.80296 609.6044 L833.24921 604.62446 L847.42268 602.45316 L861.74309 603.17941 L875.62417 606.77347 L888.49763 613.0882 L899.83642 621.86508 L909.17633 632.74477 L916.13498 645.28187 L920.4275 658.9631 L921.87813 673.22835 M948.98155 708.66142 L947.53092 722.92667 L943.2384 736.6079 L936.27975 749.14499 L926.93984 760.02469 L915.60105 768.80156 L902.72759 775.11629 L888.84651 778.71035 L874.5261 779.4366 L860.35263 777.26531 L846.90637 772.28536 L834.73782 764.70064 L824.34515 754.82167 L816.15384 743.05289 L810.49924 729.87613 L807.61286 715.83083 L807.61286 701.49201 L810.49924 687.44671 L816.15384 674.26994 L824.34515 662.50116 L834.73782 652.62219 L846.90637 645.03747 L860.35263 640.05753 L874.5261 637.88623 L888.84651 638.61248 L902.72759 642.20654 L915.60105 648.52127 L926.93984 657.29815 L936.27975 668.17784 L943.2384 680.71494 L947.53092 694.39617 L948.98155 708.66142 M954.408 744.09449 L952.95737 758.35974 L948.66486 772.04097 L941.7062 784.57806 L932.36629 795.45776 L921.0275 804.23463 L908.15404 810.54936 L894.27296 814.14342 L879.95255 814.86967 L865.77908 812.69838 L852.33283 807.71843 L840.16427 800.13371 L829.7716 790.25474 L821.58029 778.48597 L815.92569 765.3092 L813.03931 751.2639 L813.03931 736.92508 L815.92569 722.87978 L821.58029 709.70301 L829.7716 697.93423 L840.16427 688.05526 L852.33283 680.47054 L865.77908 675.4906 L879.95255 673.3193 L894.27296 674.04555 L908.15404 677.63961 L921.0275 683.95434 L932.36629 692.73122 L941.7062 703.61091 L948.66486 716.14801 L952.95737 729.82924 L954.408 744.09449 M943.84763 779.52756 L942.397 793.79281 L938.10449 807.47404 L931.14583 820.01113 L921.80592 830.89083 L910.46713 839.6677 L897.59368 845.98243 L883.71259 849.5765 L869.39218 850.30274 L855.21871 848.13145 L841.77246 843.1515 L829.6039 835.56678 L819.21123 825.68781 L811.01992 813.91904 L805.36532 800.74227 L802.47894 786.69697 L802.47894 772.35815 L805.36532 758.31285 L811.01992 745.13608 L819.21123 733.3673 L829.6039 723.48833 L841.77246 715.90362 L855.21871 710.92367 L869.39218 708.75237 L883.71259 709.47862 L897.59368 713.07268 L910.46713 719.38741 L921.80592 728.16429 L931.14583 739.04398 L938.10449 751.58108 L942.397 765.26231 L943.84763 779.52756 M922.43364 814.96063 L920.983 829.22588 L916.69049 842.90711 L909.73184 855.4442 L900.39192 866.3239 L889.05314 875.10077 L876.17968 881.41551 L862.2986 885.00957 L847.97819 885.73582 L833.80472 883.56452 L820.35846 878.58457 L808.18991 870.99986 L797.79724 861.12088 L789.60593 849.35211 L783.95133 836.17534 L781.06495 822.13004 L781.06495 807.79122 L783.95133 793.74592 L789.60593 780.56915 L797.79724 768.80038 L808.18991 758.9214 L820.35846 751.33669 L833.80472 746.35674 L847.97819 744.18544 L862.2986 744.91169 L876.17968 748.50575 L889.05314 754.82049 L900.39192 763.59736 L909.73184 774.47706 L916.69049 787.01415 L920.983 800.69538 L922.43364 814.96063 M894.79257 850.3937 L893.34194 864.65895 L889.04942 878.34018 L882.09077 890.87728 L872.75086 901.75697 L861.41207 910.53385 L848.53861 916.84858 L834.65753 920.44264 L820.33712 921.16889 L806.16365 918.99759 L792.7174 914.01764 L780.54884 906.43293 L770.15617 896.55396 L761.96486 884.78518 L756.31026 871.60841 L753.42388 857.56311 L753.42388 843.22429 L756.31026 829.17899 L761.96486 816.00222 L770.15617 804.23345 L780.54884 794.35448 L792.7174 786.76976 L806.16365 781.78981 L820.33712 779.61852 L834.65753 780.34476 L848.53861 783.93883 L861.41207 790.25356 L872.75086 799.03043 L882.09077 809.91013 L889.04942 822.44722 L893.34194 836.12845 L894.79257 850.3937 M865.05936 885.82677 L863.60873 900.09202 L859.31621 913.77325 L852.35756 926.31035 L843.01765 937.19004 L831.67886 945.96692 L818.8054 952.28165 L804.92432 955.87571 L790.60391 956.60196 L776.43044 954.43066 L762.98418 949.45072 L750.81563 941.866 L740.42296 931.98703 L732.23165 920.21825 L726.57705 907.04148 L723.69067 892.99618 L723.69067 878.65736 L726.57705 864.61206 L732.23165 851.43529 L740.42296 839.66652 L750.81563 829.78755 L762.98418 822.20283 L776.43044 817.22288 L790.60391 815.05159 L804.92432 815.77784 L818.8054 819.3719 L831.67886 825.68663 L843.01765 834.4635 L852.35756 845.3432 L859.31621 857.88029 L863.60873 871.56152 L865.05936 885.82677 M836.27392 921.25984 L834.82328 935.52509 L830.53077 949.20632 L823.57211 961.74342 L814.2322 972.62311 L802.89341 981.39999 L790.01996 987.71472 L776.13888 991.30878 L761.81846 992.03503 L747.645 989.86373 L734.19874 984.88379 L722.03019 977.29907 L711.63751 967.4201 L703.4462 955.65132 L697.79161 942.47455 L694.90522 928.42925 L694.90522 914.09043 L697.79161 900.04513 L703.4462 886.86836 L711.63751 875.09959 L722.03019 865.22062 L734.19874 857.6359 L747.645 852.65595 L761.81846 850.48466 L776.13888 851.21091 L790.01996 854.80497 L802.89341 861.1197 L814.2322 869.89657 L823.57211 880.77627 L830.53077 893.31336 L834.82328 906.99459 L836.27392 921.25984 M809.50474 956.69291 L808.0541 970.95816 L803.76159 984.63939 L796.80293 997.17649 L787.46302 1008.05618 L776.12423 1016.83306 L763.25078 1023.14779 L749.3697 1026.74185 L735.04928 1027.4681 L720.87582 1025.2968 L707.42956 1020.31686 L695.261 1012.73214 L684.86833 1002.85317 L676.67702 991.08439 L671.02243 977.90762 L668.13604 963.86232 L668.13604 949.5235 L671.02243 935.4782 L676.67702 922.30144 L684.86833 910.53266 L695.261 900.65369 L707.42956 893.06897 L720.87582 888.08902 L735.04928 885.91773 L749.3697 886.64398 L763.25078 890.23804 L776.12423 896.55277 L787.46302 905.32964 L796.80293 916.20934 L803.76159 928.74644 L808.0541 942.42766 L809.50474 956.69291 M783.66416 992.12598 L782.21353 1006.39123 L777.92101 1020.07246 L770.96236 1032.60956 L761.62245 1043.48925 L750.28366 1052.26613 L737.4102 1058.58086 L723.52912 1062.17492 L709.20871 1062.90117 L695.03524 1060.72987 L681.58898 1055.74993 L669.42043 1048.16521 L659.02776 1038.28624 L650.83645 1026.51746 L645.18185 1013.34069 L642.29547 999.29539 L642.29547 984.95658 L645.18185 970.91127 L650.83645 957.73451 L659.02776 945.96573 L669.42043 936.08676 L681.58898 928.50204 L695.03524 923.52209 L709.20871 921.3508 L723.52912 922.07705 L737.4102 925.67111 L750.28366 931.98584 L761.62245 940.76272 L770.96236 951.64241 L777.92101 964.17951 L782.21353 977.86073 L783.66416 992.12598 M756.92689 1027.55906 L755.47626 1041.8243 L751.18375 1055.50553 L744.22509 1068.04263 L734.88518 1078.92232 L723.54639 1087.6992 L710.67294 1094.01393 L696.79185 1097.60799 L682.47144 1098.33424 L668.29797 1096.16295 L654.85172 1091.183 L642.68316 1083.59828 L632.29049 1073.71931 L624.09918 1061.95053 L618.44458 1048.77376 L615.5582 1034.72846 L615.5582 1020.38965 L618.44458 1006.34435 L624.09918 993.16758 L632.29049 981.3988 L642.68316 971.51983 L654.85172 963.93511 L668.29797 958.95516 L682.47144 956.78387 L696.79185 957.51012 L710.67294 961.10418 L723.54639 967.41891 L734.88518 976.19579 L744.22509 987.07548 L751.18375 999.61258 L755.47626 1013.29381 L756.92689 1027.55906 M727.76859 1062.99213 L726.31795 1077.25738 L722.02544 1090.9386 L715.06679 1103.4757 L705.72687 1114.35539 L694.38809 1123.13227 L681.51463 1129.447 L667.63355 1133.04106 L653.31314 1133.76731 L639.13967 1131.59602 L625.69341 1126.61607 L613.52486 1119.03135 L603.13219 1109.15238 L594.94088 1097.3836 L589.28628 1084.20684 L586.3999 1070.16153 L586.3999 1055.82272 L589.28628 1041.77742 L594.94088 1028.60065 L603.13219 1016.83187 L613.52486 1006.9529 L625.69341 999.36818 L639.13967 994.38824 L653.31314 992.21694 L667.63355 992.94319 L681.51463 996.53725 L694.38809 1002.85198 L705.72687 1011.62886 L715.06679 1022.50855 L722.02544 1035.04565 L726.31795 1048.72688 L727.76859 1062.99213 M695.56137 1098.4252 L694.11073 1112.69045 L689.81822 1126.37167 L682.85956 1138.90877 L673.51965 1149.78847 L662.18086 1158.56534 L649.30741 1164.88007 L635.42633 1168.47413 L621.10591 1169.20038 L606.93245 1167.02909 L593.48619 1162.04914 L581.31764 1154.46442 L570.92496 1144.58545 L562.73365 1132.81667 L557.07906 1119.63991 L554.19268 1105.59461 L554.19268 1091.25579 L557.07906 1077.21049 L562.73365 1064.03372 L570.92496 1052.26494 L581.31764 1042.38597 L593.48619 1034.80125 L606.93245 1029.82131 L621.10591 1027.65001 L635.42633 1028.37626 L649.30741 1031.97032 L662.18086 1038.28505 L673.51965 1047.06193 L682.85956 1057.94162 L689.81822 1070.47872 L694.11073 1084.15995 L695.56137 1098.4252 M779.52756 389.76378 L778.07692 404.02903 L773.78441 417.71026 L766.82576 430.24735 L757.48584 441.12705 L746.14706 449.90392 L733.2736 456.21866 L719.39252 459.81272 L705.07211 460.53897 L690.89864 458.36767 L677.45238 453.38772 L665.28383 445.803 L654.89116 435.92403 L646.69985 424.15526 L641.04525 410.97849 L638.15887 396.93319 L638.15887 382.59437 L641.04525 368.54907 L646.69985 355.3723 L654.89116 343.60352 L665.28383 333.72455 L677.45238 326.13984 L690.89864 321.15989 L705.07211 318.98859 L719.39252 319.71484 L733.2736 323.3089 L746.14706 329.62364 L757.48584 338.40051 L766.82576 349.28021 L773.78441 361.8173 L778.07692 375.49853 L779.52756 389.76378 M789.69694 425.19685 L788.24631 439.4621 L783.95379 453.14333 L776.99514 465.68042 L767.65523 476.56012 L756.31644 485.33699 L743.44298 491.65173 L729.5619 495.24579 L715.24149 495.97204 L701.06802 493.80074 L687.62176 488.82079 L675.45321 481.23608 L665.06054 471.35711 L656.86923 459.58833 L651.21463 446.41156 L648.32825 432.36626 L648.32825 418.02744 L651.21463 403.98214 L656.86923 390.80537 L665.06054 379.0366 L675.45321 369.15762 L687.62176 361.57291 L701.06802 356.59296 L715.24149 354.42166 L729.5619 355.14791 L743.44298 358.74197 L756.31644 365.05671 L767.65523 373.83358 L776.99514 384.71328 L783.95379 397.25037 L788.24631 410.9316 L789.69694 425.19685 M803.61763 460.62992 L802.167 474.89517 L797.87448 488.5764 L790.91583 501.1135 L781.57592 511.99319 L770.23713 520.77007 L757.36367 527.0848 L743.48259 530.67886 L729.16218 531.40511 L714.98871 529.23381 L701.54246 524.25387 L689.3739 516.66915 L678.98123 506.79018 L670.78992 495.0214 L665.13532 481.84463 L662.24894 467.79933 L662.24894 453.46051 L665.13532 439.41521 L670.78992 426.23844 L678.98123 414.46967 L689.3739 404.5907 L701.54246 397.00598 L714.98871 392.02603 L729.16218 389.85474 L743.48259 390.58098 L757.36367 394.17505 L770.23713 400.48978 L781.57592 409.26665 L790.91583 420.14635 L797.87448 432.68344 L802.167 446.36467 L803.61763 460.62992 M824.32812 496.06299 L822.87748 510.32824 L818.58497 524.00947 L811.62631 536.54657 L802.2864 547.42626 L790.94761 556.20314 L778.07416 562.51787 L764.19308 566.11193 L749.87266 566.83818 L735.6992 564.66688 L722.25294 559.68694 L710.08439 552.10222 L699.69171 542.22325 L691.5004 530.45447 L685.84581 517.2777 L682.95942 503.2324 L682.95942 488.89358 L685.84581 474.84828 L691.5004 461.67151 L699.69171 449.90274 L710.08439 440.02377 L722.25294 432.43905 L735.6992 427.4591 L749.87266 425.28781 L764.19308 426.01406 L778.07416 429.60812 L790.94761 435.92285 L802.2864 444.69972 L811.62631 455.57942 L818.58497 468.11651 L822.87748 481.79774 L824.32812 496.06299 M853.4728 531.49606 L852.02216 545.76131 L847.72965 559.44254 L840.77099 571.97964 L831.43108 582.85933 L820.09229 591.63621 L807.21884 597.95094 L793.33776 601.545 L779.01734 602.27125 L764.84388 600.09995 L751.39762 595.12001 L739.22906 587.53529 L728.83639 577.65632 L720.64508 565.88754 L714.99049 552.71077 L712.1041 538.66547 L712.1041 524.32665 L714.99049 510.28135 L720.64508 497.10459 L728.83639 485.33581 L739.22906 475.45684 L751.39762 467.87212 L764.84388 462.89217 L779.01734 460.72088 L793.33776 461.44713 L807.21884 465.04119 L820.09229 471.35592 L831.43108 480.13279 L840.77099 491.01249 L847.72965 503.54959 L852.02216 517.23081 L853.4728 531.49606 M889.80111 566.92913 L888.35048 581.19438 L884.05796 594.87561 L877.09931 607.41271 L867.7594 618.2924 L856.42061 627.06928 L843.54715 633.38401 L829.66607 636.97807 L815.34566 637.70432 L801.17219 635.53302 L787.72594 630.55308 L775.55738 622.96836 L765.16471 613.08939 L756.9734 601.32061 L751.3188 588.14384 L748.43242 574.09854 L748.43242 559.75973 L751.3188 545.71442 L756.9734 532.53766 L765.16471 520.76888 L775.55738 510.88991 L787.72594 503.30519 L801.17219 498.32524 L815.34566 496.15395 L829.66607 496.8802 L843.54715 500.47426 L856.42061 506.78899 L867.7594 515.56587 L877.09931 526.44556 L884.05796 538.98266 L888.35048 552.66388 L889.80111 566.92913 M928.04424 602.3622 L926.5936 616.62745 L922.30109 630.30868 L915.34244 642.84578 L906.00252 653.72547 L894.66374 662.50235 L881.79028 668.81708 L867.9092 672.41114 L853.58879 673.13739 L839.41532 670.9661 L825.96906 665.98615 L813.80051 658.40143 L803.40784 648.52246 L795.21653 636.75368 L789.56193 623.57691 L786.67555 609.53161 L786.67555 595.1928 L789.56193 581.1475 L795.21653 567.97073 L803.40784 556.20195 L813.80051 546.32298 L825.96906 538.73826 L839.41532 533.75831 L853.58879 531.58702 L867.9092 532.31327 L881.79028 535.90733 L894.66374 542.22206 L906.00252 550.99894 L915.34244 561.87863 L922.30109 574.41573 L926.5936 588.09696 L928.04424 602.3622 M960.14511 637.79528 L958.69448 652.06053 L954.40197 665.74175 L947.44331 678.27885 L938.1034 689.15854 L926.76461 697.93542 L913.89116 704.25015 L900.01007 707.84421 L885.68966 708.57046 L871.51619 706.39917 L858.06994 701.41922 L845.90138 693.8345 L835.50871 683.95553 L827.3174 672.18675 L821.6628 659.00999 L818.77642 644.96468 L818.77642 630.62587 L821.6628 616.58057 L827.3174 603.4038 L835.50871 591.63502 L845.90138 581.75605 L858.06994 574.17133 L871.51619 569.19139 L885.68966 567.02009 L900.01007 567.74634 L913.89116 571.3404 L926.76461 577.65513 L938.1034 586.43201 L947.44331 597.3117 L954.40197 609.8488 L958.69448 623.53003 L960.14511 637.79528 M979.95912 673.22835 L978.50849 687.4936 L974.21597 701.17482 L967.25732 713.71192 L957.91741 724.59161 L946.57862 733.36849 L933.70516 739.68322 L919.82408 743.27728 L905.50367 744.00353 L891.3302 741.83224 L877.88395 736.85229 L865.71539 729.26757 L855.32272 719.3886 L847.13141 707.61982 L841.47681 694.44306 L838.59043 680.39776 L838.59043 666.05894 L841.47681 652.01364 L847.13141 638.83687 L855.32272 627.06809 L865.71539 617.18912 L877.88395 609.6044 L891.3302 604.62446 L905.50367 602.45316 L919.82408 603.17941 L933.70516 606.77347 L946.57862 613.0882 L957.91741 621.86508 L967.25732 632.74477 L974.21597 645.28187 L978.50849 658.9631 L979.95912 673.22835 M985.61392 708.66142 L984.16329 722.92667 L979.87077 736.6079 L972.91212 749.14499 L963.57221 760.02469 L952.23342 768.80156 L939.35996 775.11629 L925.47888 778.71035 L911.15847 779.4366 L896.985 777.26531 L883.53874 772.28536 L871.37019 764.70064 L860.97752 754.82167 L852.78621 743.05289 L847.13161 729.87613 L844.24523 715.83083 L844.24523 701.49201 L847.13161 687.44671 L852.78621 674.26994 L860.97752 662.50116 L871.37019 652.62219 L883.53874 645.03747 L896.985 640.05753 L911.15847 637.88623 L925.47888 638.61248 L939.35996 642.20654 L952.23342 648.52127 L963.57221 657.29815 L972.91212 668.17784 L979.87077 680.71494 L984.16329 694.39617 L985.61392 708.66142 M977.93404 744.09449 L976.4834 758.35974 L972.19089 772.04097 L965.23224 784.57806 L955.89232 795.45776 L944.55354 804.23463 L931.68008 810.54936 L917.799 814.14342 L903.47859 814.86967 L889.30512 812.69838 L875.85886 807.71843 L863.69031 800.13371 L853.29764 790.25474 L845.10633 778.48597 L839.45173 765.3092 L836.56535 751.2639 L836.56535 736.92508 L839.45173 722.87978 L845.10633 709.70301 L853.29764 697.93423 L863.69031 688.05526 L875.85886 680.47054 L889.30512 675.4906 L903.47859 673.3193 L917.799 674.04555 L931.68008 677.63961 L944.55354 683.95434 L955.89232 692.73122 L965.23224 703.61091 L972.19089 716.14801 L976.4834 729.82924 L977.93404 744.09449 M959.14177 779.52756 L957.69114 793.79281 L953.39863 807.47404 L946.43997 820.01113 L937.10006 830.89083 L925.76127 839.6677 L912.88782 845.98243 L899.00673 849.5765 L884.68632 850.30274 L870.51285 848.13145 L857.0666 843.1515 L844.89804 835.56678 L834.50537 825.68781 L826.31406 813.91904 L820.65946 800.74227 L817.77308 786.69697 L817.77308 772.35815 L820.65946 758.31285 L826.31406 745.13608 L834.50537 733.3673 L844.89804 723.48833 L857.0666 715.90362 L870.51285 710.92367 L884.68632 708.75237 L899.00673 709.47862 L912.88782 713.07268 L925.76127 719.38741 L937.10006 728.16429 L946.43997 739.04398 L953.39863 751.58108 L957.69114 765.26231 L959.14177 779.52756 M932.19544 814.96063 L930.74481 829.22588 L926.4523 842.90711 L919.49364 855.4442 L910.15373 866.3239 L898.81494 875.10077 L885.94149 881.41551 L872.06041 885.00957 L857.73999 885.73582 L843.56653 883.56452 L830.12027 878.58457 L817.95171 870.99986 L807.55904 861.12088 L799.36773 849.35211 L793.71314 836.17534 L790.82675 822.13004 L790.82675 807.79122 L793.71314 793.74592 L799.36773 780.56915 L807.55904 768.80038 L817.95171 758.9214 L830.12027 751.33669 L843.56653 746.35674 L857.73999 744.18544 L872.06041 744.91169 L885.94149 748.50575 L898.81494 754.82049 L910.15373 763.59736 L919.49364 774.47706 L926.4523 787.01415 L930.74481 800.69538 L932.19544 814.96063 M900.80571 850.3937 L899.35508 864.65895 L895.06257 878.34018 L888.10391 890.87728 L878.764 901.75697 L867.42521 910.53385 L854.55175 916.84858 L840.67067 920.44264 L826.35026 921.16889 L812.17679 918.99759 L798.73054 914.01764 L786.56198 906.43293 L776.16931 896.55396 L767.978 884.78518 L762.3234 871.60841 L759.43702 857.56311 L759.43702 843.22429 L762.3234 829.17899 L767.978 816.00222 L776.16931 804.23345 L786.56198 794.35448 L798.73054 786.76976 L812.17679 781.78981 L826.35026 779.61852 L840.67067 780.34476 L854.55175 783.93883 L867.42521 790.25356 L878.764 799.03043 L888.10391 809.91013 L895.06257 822.44722 L899.35508 836.12845 L900.80571 850.3937 M868.68323 885.82677 L867.2326 900.09202 L862.94008 913.77325 L855.98143 926.31035 L846.64152 937.19004 L835.30273 945.96692 L822.42927 952.28165 L808.54819 955.87571 L794.22778 956.60196 L780.05431 954.43066 L766.60806 949.45072 L754.4395 941.866 L744.04683 931.98703 L735.85552 920.21825 L730.20092 907.04148 L727.31454 892.99618 L727.31454 878.65736 L730.20092 864.61206 L735.85552 851.43529 L744.04683 839.66652 L754.4395 829.78755 L766.60806 822.20283 L780.05431 817.22288 L794.22778 815.05159 L808.54819 815.77784 L822.42927 819.3719 L835.30273 825.68663 L846.64152 834.4635 L855.98143 845.3432 L862.94008 857.88029 L867.2326 871.56152 L868.68323 885.82677 M838.49903 921.25984 L837.04839 935.52509 L832.75588 949.20632 L825.79722 961.74342 L816.45731 972.62311 L805.11852 981.39999 L792.24507 987.71472 L778.36399 991.30878 L764.04357 992.03503 L749.87011 989.86373 L736.42385 984.88379 L724.2553 977.29907 L713.86262 967.4201 L705.67131 955.65132 L700.01672 942.47455 L697.13033 928.42925 L697.13033 914.09043 L700.01672 900.04513 L705.67131 886.86836 L713.86262 875.09959 L724.2553 865.22062 L736.42385 857.6359 L749.87011 852.65595 L764.04357 850.48466 L778.36399 851.21091 L792.24507 854.80497 L805.11852 861.1197 L816.45731 869.89657 L825.79722 880.77627 L832.75588 893.31336 L837.04839 906.99459 L838.49903 921.25984 M810.96928 956.69291 L809.51865 970.95816 L805.22613 984.63939 L798.26748 997.17649 L788.92757 1008.05618 L777.58878 1016.83306 L764.71532 1023.14779 L750.83424 1026.74185 L736.51383 1027.4681 L722.34036 1025.2968 L708.8941 1020.31686 L696.72555 1012.73214 L686.33288 1002.85317 L678.14157 991.08439 L672.48697 977.90762 L669.60059 963.86232 L669.60059 949.5235 L672.48697 935.4782 L678.14157 922.30144 L686.33288 910.53266 L696.72555 900.65369 L708.8941 893.06897 L722.34036 888.08902 L736.51383 885.91773 L750.83424 886.64398 L764.71532 890.23804 L777.58878 896.55277 L788.92757 905.32964 L798.26748 916.20934 L805.22613 928.74644 L809.51865 942.42766 L810.96928 956.69291 M784.72152 992.12598 L783.27088 1006.39123 L778.97837 1020.07246 L772.01971 1032.60956 L762.6798 1043.48925 L751.34101 1052.26613 L738.46756 1058.58086 L724.58648 1062.17492 L710.26606 1062.90117 L696.0926 1060.72987 L682.64634 1055.74993 L670.47778 1048.16521 L660.08511 1038.28624 L651.8938 1026.51746 L646.23921 1013.34069 L643.35282 999.29539 L643.35282 984.95658 L646.23921 970.91127 L651.8938 957.73451 L660.08511 945.96573 L670.47778 936.08676 L682.64634 928.50204 L696.0926 923.52209 L710.26606 921.3508 L724.58648 922.07705 L738.46756 925.67111 L751.34101 931.98584 L762.6798 940.76272 L772.01971 951.64241 L778.97837 964.17951 L783.27088 977.86073 L784.72152 992.12598 M757.75082 1027.55906 L756.30019 1041.8243 L752.00767 1055.50553 L745.04902 1068.04263 L735.7091 1078.92232 L724.37032 1087.6992 L711.49686 1094.01393 L697.61578 1097.60799 L683.29537 1098.33424 L669.1219 1096.16295 L655.67564 1091.183 L643.50709 1083.59828 L633.11442 1073.71931 L624.92311 1061.95053 L619.26851 1048.77376 L616.38213 1034.72846 L616.38213 1020.38965 L619.26851 1006.34435 L624.92311 993.16758 L633.11442 981.3988 L643.50709 971.51983 L655.67564 963.93511 L669.1219 958.95516 L683.29537 956.78387 L697.61578 957.51012 L711.49686 961.10418 L724.37032 967.41891 L735.7091 976.19579 L745.04902 987.07548 L752.00767 999.61258 L756.30019 1013.29381 L757.75082 1027.55906 M728.44038 1062.99213 L726.98974 1077.25738 L722.69723 1090.9386 L715.73857 1103.4757 L706.39866 1114.35539 L695.05987 1123.13227 L682.18642 1129.447 L668.30534 1133.04106 L653.98492 1133.76731 L639.81146 1131.59602 L626.3652 1126.61607 L614.19665 1119.03135 L603.80397 1109.15238 L595.61266 1097.3836 L589.95807 1084.20684 L587.07169 1070.16153 L587.07169 1055.82272 L589.95807 1041.77742 L595.61266 1028.60065 L603.80397 1016.83187 L614.19665 1006.9529 L626.3652 999.36818 L639.81146 994.38824 L653.98492 992.21694 L668.30534 992.94319 L682.18642 996.53725 L695.05987 1002.85198 L706.39866 1011.62886 L715.73857 1022.50855 L722.69723 1035.04565 L726.98974 1048.72688 L728.44038 1062.99213 M696.11508 1098.4252 L694.66445 1112.69045 L690.37193 1126.37167 L683.41328 1138.90877 L674.07337 1149.78847 L662.73458 1158.56534 L649.86112 1164.88007 L635.98004 1168.47413 L621.65963 1169.20038 L607.48616 1167.02909 L594.03991 1162.04914 L581.87135 1154.46442 L571.47868 1144.58545 L563.28737 1132.81667 L557.63277 1119.63991 L554.74639 1105.59461 L554.74639 1091.25579 L557.63277 1077.21049 L563.28737 1064.03372 L571.47868 1052.26494 L581.87135 1042.38597 L594.03991 1034.80125 L607.48616 1029.82131 L621.65963 1027.65001 L635.98004 1028.37626 L649.86112 1031.97032 L662.73458 1038.28505 L674.07337 1047.06193 L683.41328 1057.94162 L690.37193 1070.47872 L694.66445 1084.15995 L696.11508 1098.4252 M921.25984 389.76378 L919.80921 404.02903 L915.5167 417.71026 L908.55804 430.24735 L899.21813 441.12705 L887.87934 449.90392 L875.00588 456.21866 L861.1248 459.81272 L846.80439 460.53897 L832.63092 458.36767 L819.18467 453.38772 L807.01611 445.803 L796.62344 435.92403 L788.43213 424.15526 L782.77753 410.97849 L779.89115 396.93319 L779.89115 382.59437 L782.77753 368.54907 L788.43213 355.3723 L796.62344 343.60352 L807.01611 333.72455 L819.18467 326.13984 L832.63092 321.15989 L846.80439 318.98859 L861.1248 319.71484 L875.00588 323.3089 L887.87934 329.62364 L899.21813 338.40051 L908.55804 349.28021 L915.5167 361.8173 L919.80921 375.49853 L921.25984 389.76378 M914.32836 425.19685 L912.87773 439.4621 L908.58522 453.14333 L901.62656 465.68042 L892.28665 476.56012 L880.94786 485.33699 L868.07441 491.65173 L854.19333 495.24579 L839.87291 495.97204 L825.69944 493.80074 L812.25319 488.82079 L800.08463 481.23608 L789.69196 471.35711 L781.50065 459.58833 L775.84605 446.41156 L772.95967 432.36626 L772.95967 418.02744 L775.84605 403.98214 L781.50065 390.80537 L789.69196 379.0366 L800.08463 369.15762 L812.25319 361.57291 L825.69944 356.59296 L839.87291 354.42166 L854.19333 355.14791 L868.07441 358.74197 L880.94786 365.05671 L892.28665 373.83358 L901.62656 384.71328 L908.58522 397.25037 L912.87773 410.9316 L914.32836 425.19685 M910.43534 460.62992 L908.98471 474.89517 L904.69219 488.5764 L897.73354 501.1135 L888.39363 511.99319 L877.05484 520.77007 L864.18138 527.0848 L850.3003 530.67886 L835.97989 531.40511 L821.80642 529.23381 L808.36016 524.25387 L796.19161 516.66915 L785.79894 506.79018 L777.60763 495.0214 L771.95303 481.84463 L769.06665 467.79933 L769.06665 453.46051 L771.95303 439.41521 L777.60763 426.23844 L785.79894 414.46967 L796.19161 404.5907 L808.36016 397.00598 L821.80642 392.02603 L835.97989 389.85474 L850.3003 390.58098 L864.18138 394.17505 L877.05484 400.48978 L888.39363 409.26665 L897.73354 420.14635 L904.69219 432.68344 L908.98471 446.36467 L910.43534 460.62992 M913.82471 496.06299 L912.37408 510.32824 L908.08157 524.00947 L901.12291 536.54657 L891.783 547.42626 L880.44421 556.20314 L867.57076 562.51787 L853.68967 566.11193 L839.36926 566.83818 L825.19579 564.66688 L811.74954 559.68694 L799.58098 552.10222 L789.18831 542.22325 L780.997 530.45447 L775.3424 517.2777 L772.45602 503.2324 L772.45602 488.89358 L775.3424 474.84828 L780.997 461.67151 L789.18831 449.90274 L799.58098 440.02377 L811.74954 432.43905 L825.19579 427.4591 L839.36926 425.28781 L853.68967 426.01406 L867.57076 429.60812 L880.44421 435.92285 L891.783 444.69972 L901.12291 455.57942 L908.08157 468.11651 L912.37408 481.79774 L913.82471 496.06299 M926.02513 531.49606 L924.57449 545.76131 L920.28198 559.44254 L913.32333 571.97964 L903.98341 582.85933 L892.64463 591.63621 L879.77117 597.95094 L865.89009 601.545 L851.56968 602.27125 L837.39621 600.09995 L823.94995 595.12001 L811.7814 587.53529 L801.38873 577.65632 L793.19742 565.88754 L787.54282 552.71077 L784.65644 538.66547 L784.65644 524.32665 L787.54282 510.28135 L793.19742 497.10459 L801.38873 485.33581 L811.7814 475.45684 L823.94995 467.87212 L837.39621 462.89217 L851.56968 460.72088 L865.89009 461.44713 L879.77117 465.04119 L892.64463 471.35592 L903.98341 480.13279 L913.32333 491.01249 L920.28198 503.54959 L924.57449 517.23081 L926.02513 531.49606 M945.47471 566.92913 L944.02408 581.19438 L939.73156 594.87561 L932.77291 607.41271 L923.433 618.2924 L912.09421 627.06928 L899.22075 633.38401 L885.33967 636.97807 L871.01926 637.70432 L856.84579 635.53302 L843.39953 630.55308 L831.23098 622.96836 L820.83831 613.08939 L812.647 601.32061 L806.9924 588.14384 L804.10602 574.09854 L804.10602 559.75973 L806.9924 545.71442 L812.647 532.53766 L820.83831 520.76888 L831.23098 510.88991 L843.39953 503.30519 L856.84579 498.32524 L871.01926 496.15395 L885.33967 496.8802 L899.22075 500.47426 L912.09421 506.78899 L923.433 515.56587 L932.77291 526.44556 L939.73156 538.98266 L944.02408 552.66388 L945.47471 566.92913 M967.67064 602.3622 L966.22 616.62745 L961.92749 630.30868 L954.96883 642.84578 L945.62892 653.72547 L934.29013 662.50235 L921.41668 668.81708 L907.5356 672.41114 L893.21518 673.13739 L879.04172 670.9661 L865.59546 665.98615 L853.42691 658.40143 L843.03424 648.52246 L834.84292 636.75368 L829.18833 623.57691 L826.30195 609.53161 L826.30195 595.1928 L829.18833 581.1475 L834.84292 567.97073 L843.03424 556.20195 L853.42691 546.32298 L865.59546 538.73826 L879.04172 533.75831 L893.21518 531.58702 L907.5356 532.31327 L921.41668 535.90733 L934.29013 542.22206 L945.62892 550.99894 L954.96883 561.87863 L961.92749 574.41573 L966.22 588.09696 L967.67064 602.3622 M986.70656 637.79528 L985.25592 652.06053 L980.96341 665.74175 L974.00475 678.27885 L964.66484 689.15854 L953.32605 697.93542 L940.4526 704.25015 L926.57152 707.84421 L912.2511 708.57046 L898.07764 706.39917 L884.63138 701.41922 L872.46283 693.8345 L862.07016 683.95553 L853.87884 672.18675 L848.22425 659.00999 L845.33787 644.96468 L845.33787 630.62587 L848.22425 616.58057 L853.87884 603.4038 L862.07016 591.63502 L872.46283 581.75605 L884.63138 574.17133 L898.07764 569.19139 L912.2511 567.02009 L926.57152 567.74634 L940.4526 571.3404 L953.32605 577.65513 L964.66484 586.43201 L974.00475 597.3117 L980.96341 609.8488 L985.25592 623.53003 L986.70656 637.79528 M997.5623 673.22835 L996.11167 687.4936 L991.81916 701.17482 L984.8605 713.71192 L975.52059 724.59161 L964.1818 733.36849 L951.30835 739.68322 L937.42727 743.27728 L923.10685 744.00353 L908.93339 741.83224 L895.48713 736.85229 L883.31857 729.26757 L872.9259 719.3886 L864.73459 707.61982 L859.08 694.44306 L856.19361 680.39776 L856.19361 666.05894 L859.08 652.01364 L864.73459 638.83687 L872.9259 627.06809 L883.31857 617.18912 L895.48713 609.6044 L908.93339 604.62446 L923.10685 602.45316 L937.42727 603.17941 L951.30835 606.77347 L964.1818 613.0882 L975.52059 621.86508 L984.8605 632.74477 L991.81916 645.28187 L996.11167 658.9631 L997.5623 673.22835 M997.48134 708.66142 L996.03071 722.92667 L991.73819 736.6079 L984.77954 749.14499 L975.43963 760.02469 L964.10084 768.80156 L951.22738 775.11629 L937.3463 778.71035 L923.02589 779.4366 L908.85242 777.26531 L895.40617 772.28536 L883.23761 764.70064 L872.84494 754.82167 L864.65363 743.05289 L858.99903 729.87613 L856.11265 715.83083 L856.11265 701.49201 L858.99903 687.44671 L864.65363 674.26994 L872.84494 662.50116 L883.23761 652.62219 L895.40617 645.03747 L908.85242 640.05753 L923.02589 637.88623 L937.3463 638.61248 L951.22738 642.20654 L964.10084 648.52127 L975.43963 657.29815 L984.77954 668.17784 L991.73819 680.71494 L996.03071 694.39617 L997.48134 708.66142 M986.11287 744.09449 L984.66223 758.35974 L980.36972 772.04097 L973.41107 784.57806 L964.07115 795.45776 L952.73237 804.23463 L939.85891 810.54936 L925.97783 814.14342 L911.65742 814.86967 L897.48395 812.69838 L884.03769 807.71843 L871.86914 800.13371 L861.47647 790.25474 L853.28516 778.48597 L847.63056 765.3092 L844.74418 751.2639 L844.74418 736.92508 L847.63056 722.87978 L853.28516 709.70301 L861.47647 697.93423 L871.86914 688.05526 L884.03769 680.47054 L897.48395 675.4906 L911.65742 673.3193 L925.97783 674.04555 L939.85891 677.63961 L952.73237 683.95434 L964.07115 692.73122 L973.41107 703.61091 L980.36972 716.14801 L984.66223 729.82924 L986.11287 744.09449 M964.78029 779.52756 L963.32965 793.79281 L959.03714 807.47404 L952.07848 820.01113 L942.73857 830.89083 L931.39978 839.6677 L918.52633 845.98243 L904.64525 849.5765 L890.32483 850.30274 L876.15137 848.13145 L862.70511 843.1515 L850.53656 835.56678 L840.14388 825.68781 L831.95257 813.91904 L826.29798 800.74227 L823.41159 786.69697 L823.41159 772.35815 L826.29798 758.31285 L831.95257 745.13608 L840.14388 733.3673 L850.53656 723.48833 L862.70511 715.90362 L876.15137 710.92367 L890.32483 708.75237 L904.64525 709.47862 L918.52633 713.07268 L931.39978 719.38741 L942.73857 728.16429 L952.07848 739.04398 L959.03714 751.58108 L963.32965 765.26231 L964.78029 779.52756 M935.94233 814.96063 L934.4917 829.22588 L930.19918 842.90711 L923.24053 855.4442 L913.90062 866.3239 L902.56183 875.10077 L889.68837 881.41551 L875.80729 885.00957 L861.48688 885.73582 L847.31341 883.56452 L833.86716 878.58457 L821.6986 870.99986 L811.30593 861.12088 L803.11462 849.35211 L797.46002 836.17534 L794.57364 822.13004 L794.57364 807.79122 L797.46002 793.74592 L803.11462 780.56915 L811.30593 768.80038 L821.6986 758.9214 L833.86716 751.33669 L847.31341 746.35674 L861.48688 744.18544 L875.80729 744.91169 L889.68837 748.50575 L902.56183 754.82049 L913.90062 763.59736 L923.24053 774.47706 L930.19918 787.01415 L934.4917 800.69538 L935.94233 814.96063 M903.1657 850.3937 L901.71506 864.65895 L897.42255 878.34018 L890.46389 890.87728 L881.12398 901.75697 L869.78519 910.53385 L856.91174 916.84858 L843.03066 920.44264 L828.71024 921.16889 L814.53678 918.99759 L801.09052 914.01764 L788.92197 906.43293 L778.52929 896.55396 L770.33798 884.78518 L764.68339 871.60841 L761.797 857.56311 L761.797 843.22429 L764.68339 829.17899 L770.33798 816.00222 L778.52929 804.23345 L788.92197 794.35448 L801.09052 786.76976 L814.53678 781.78981 L828.71024 779.61852 L843.03066 780.34476 L856.91174 783.93883 L869.78519 790.25356 L881.12398 799.03043 L890.46389 809.91013 L897.42255 822.44722 L901.71506 836.12845 L903.1657 850.3937 M870.11833 885.82677 L868.6677 900.09202 L864.37519 913.77325 L857.41653 926.31035 L848.07662 937.19004 L836.73783 945.96692 L823.86437 952.28165 L809.98329 955.87571 L795.66288 956.60196 L781.48941 954.43066 L768.04316 949.45072 L755.8746 941.866 L745.48193 931.98703 L737.29062 920.21825 L731.63602 907.04148 L728.74964 892.99618 L728.74964 878.65736 L731.63602 864.61206 L737.29062 851.43529 L745.48193 839.66652 L755.8746 829.78755 L768.04316 822.20283 L781.48941 817.22288 L795.66288 815.05159 L809.98329 815.77784 L823.86437 819.3719 L836.73783 825.68663 L848.07662 834.4635 L857.41653 845.3432 L864.37519 857.88029 L868.6677 871.56152 L870.11833 885.82677 M839.38182 921.25984 L837.93119 935.52509 L833.63868 949.20632 L826.68002 961.74342 L817.34011 972.62311 L806.00132 981.39999 L793.12786 987.71472 L779.24678 991.30878 L764.92637 992.03503 L750.7529 989.86373 L737.30665 984.88379 L725.13809 977.29907 L714.74542 967.4201 L706.55411 955.65132 L700.89951 942.47455 L698.01313 928.42925 L698.01313 914.09043 L700.89951 900.04513 L706.55411 886.86836 L714.74542 875.09959 L725.13809 865.22062 L737.30665 857.6359 L750.7529 852.65595 L764.92637 850.48466 L779.24678 851.21091 L793.12786 854.80497 L806.00132 861.1197 L817.34011 869.89657 L826.68002 880.77627 L833.63868 893.31336 L837.93119 906.99459 L839.38182 921.25984 M811.55004 956.69291 L810.0994 970.95816 L805.80689 984.63939 L798.84823 997.17649 L789.50832 1008.05618 L778.16953 1016.83306 L765.29608 1023.14779 L751.415 1026.74185 L737.09459 1027.4681 L722.92112 1025.2968 L709.47486 1020.31686 L697.30631 1012.73214 L686.91364 1002.85317 L678.72233 991.08439 L673.06773 977.90762 L670.18135 963.86232 L670.18135 949.5235 L673.06773 935.4782 L678.72233 922.30144 L686.91364 910.53266 L697.30631 900.65369 L709.47486 893.06897 L722.92112 888.08902 L737.09459 885.91773 L751.415 886.64398 L765.29608 890.23804 L778.16953 896.55277 L789.50832 905.32964 L798.84823 916.20934 L805.80689 928.74644 L810.0994 942.42766 L811.55004 956.69291 M785.14066 992.12598 L783.69002 1006.39123 L779.39751 1020.07246 L772.43886 1032.60956 L763.09894 1043.48925 L751.76016 1052.26613 L738.8867 1058.58086 L725.00562 1062.17492 L710.68521 1062.90117 L696.51174 1060.72987 L683.06548 1055.74993 L670.89693 1048.16521 L660.50426 1038.28624 L652.31295 1026.51746 L646.65835 1013.34069 L643.77197 999.29539 L643.77197 984.95658 L646.65835 970.91127 L652.31295 957.73451 L660.50426 945.96573 L670.89693 936.08676 L683.06548 928.50204 L696.51174 923.52209 L710.68521 921.3508 L725.00562 922.07705 L738.8867 925.67111 L751.76016 931.98584 L763.09894 940.76272 L772.43886 951.64241 L779.39751 964.17951 L783.69002 977.86073 L785.14066 992.12598 M758.07755 1027.55906 L756.62692 1041.8243 L752.3344 1055.50553 L745.37575 1068.04263 L736.03584 1078.92232 L724.69705 1087.6992 L711.82359 1094.01393 L697.94251 1097.60799 L683.6221 1098.33424 L669.44863 1096.16295 L656.00237 1091.183 L643.83382 1083.59828 L633.44115 1073.71931 L625.24984 1061.95053 L619.59524 1048.77376 L616.70886 1034.72846 L616.70886 1020.38965 L619.59524 1006.34435 L625.24984 993.16758 L633.44115 981.3988 L643.83382 971.51983 L656.00237 963.93511 L669.44863 958.95516 L683.6221 956.78387 L697.94251 957.51012 L711.82359 961.10418 L724.69705 967.41891 L736.03584 976.19579 L745.37575 987.07548 L752.3344 999.61258 L756.62692 1013.29381 L758.07755 1027.55906 M728.707 1062.99213 L727.25636 1077.25738 L722.96385 1090.9386 L716.0052 1103.4757 L706.66528 1114.35539 L695.3265 1123.13227 L682.45304 1129.447 L668.57196 1133.04106 L654.25155 1133.76731 L640.07808 1131.59602 L626.63182 1126.61607 L614.46327 1119.03135 L604.0706 1109.15238 L595.87929 1097.3836 L590.22469 1084.20684 L587.33831 1070.16153 L587.33831 1055.82272 L590.22469 1041.77742 L595.87929 1028.60065 L604.0706 1016.83187 L614.46327 1006.9529 L626.63182 999.36818 L640.07808 994.38824 L654.25155 992.21694 L668.57196 992.94319 L682.45304 996.53725 L695.3265 1002.85198 L706.66528 1011.62886 L716.0052 1022.50855 L722.96385 1035.04565 L727.25636 1048.72688 L728.707 1062.99213 M696.33507 1098.4252 L694.88443 1112.69045 L690.59192 1126.37167 L683.63326 1138.90877 L674.29335 1149.78847 L662.95456 1158.56534 L650.08111 1164.88007 L636.20003 1168.47413 L621.87961 1169.20038 L607.70615 1167.02909 L594.25989 1162.04914 L582.09134 1154.46442 L571.69867 1144.58545 L563.50735 1132.81667 L557.85276 1119.63991 L554.96638 1105.59461 L554.96638 1091.25579 L557.85276 1077.21049 L563.50735 1064.03372 L571.69867 1052.26494 L582.09134 1042.38597 L594.25989 1034.80125 L607.70615 1029.82131 L621.87961 1027.65001 L636.20003 1028.37626 L650.08111 1031.97032 L662.95456 1038.28505 L674.29335 1047.06193 L683.63326 1057.94162 L690.59192 1070.47872 L694.88443 1084.15995 L696.33507 1098.4252" fill="none" stroke="black" stroke-width="0.03cm" />
    </g>
</svg>