<?xml version="1.0" standalone="no"?>
  <!DOCTYPE svg PUBLIC "-//W3C//DTD SVG 1.1//EN" 
      "http://www.w3.org/Graphics/SVG/1.1/DTD/svg11.dtd">
  <svg width="29.7cm" height="42cm"
      xmlns="http://www.w3.org/2000/svg" version="1.1" viewBox="0 0 1052.3622 1488.18898">
    <g>
      <path d="M328.64173 389.76378 L327.1911 404.02903 L322.89859 417.71026 L315.93993 430.24735 L306.60002 441.12705 L295.26123 449.90392 L282.38777 456.21866 L268.50669 459.81272 L254.18628 460.53897 L240.01281 458.36767 L226.56656 453.38772 L214.398 445.803 L204.00533 435.92403 L195.81402 424.15526 L190.15942 410.97849 L187.27304 396.93319 L187.27304 382.59437 L190.15942 368.54907 L195.81402 355.3723 L204.00533 343.60352 L214.398 333.72455 L226.56656 326.13984 L240.01281 321.15989 L254.18628 318.98859 L268.50669 319.71484 L282.38777 323.3089 L295.26123 329.62364 L306.60002 338.40051 L315.93993 349.28021 L322.89859 361.8173 L327.1911 375.49853 L328.64173 389.76378 M374.51379 425.19685 L373.06316 439.4621 L368.77064 453.14333 L361.81199 465.68042 L352.47207 476.56012 L341.13329 485.33699 L328.25983 491.65173 L314.37875 495.24579 L300.05834 495.97204 L285.88487 493.80074 L272.43861 488.82079 L260.27006 481.23608 L249.87739 471.35711 L241.68608 459.58833 L236.03148 446.41156 L233.1451 432.36626 L233.1451 418.02744 L236.03148 403.98214 L241.68608 390.80537 L249.87739 379.0366 L260.27006 369.15762 L272.43861 361.57291 L285.88487 356.59296 L300.05834 354.42166 L314.37875 355.14791 L328.25983 358.74197 L341.13329 365.05671 L352.47207 373.83358 L361.81199 384.71328 L368.77064 397.25037 L373.06316 410.9316 L374.51379 425.19685 M411.4237 460.62992 L409.97306 474.89517 L405.68055 488.5764 L398.72189 501.1135 L389.38198 511.99319 L378.0432 520.77007 L365.16974 527.0848 L351.28866 530.67886 L336.96825 531.40511 L322.79478 529.23381 L309.34852 524.25387 L297.17997 516.66915 L286.7873 506.79018 L278.59599 495.0214 L272.94139 481.84463 L270.05501 467.79933 L270.05501 453.46051 L272.94139 439.41521 L278.59599 426.23844 L286.7873 414.46967 L297.17997 404.5907 L309.34852 397.00598 L322.79478 392.02603 L336.96825 389.85474 L351.28866 390.58098 L365.16974 394.17505 L378.0432 400.48978 L389.38198 409.26665 L398.72189 420.14635 L405.68055 432.68344 L409.97306 446.36467 L411.4237 460.62992 M435.99819 496.06299 L434.54755 510.32824 L430.25504 524.00947 L423.29638 536.54657 L413.95647 547.42626 L402.61768 556.20314 L389.74423 562.51787 L375.86315 566.11193 L361.54273 566.83818 L347.36927 564.66688 L333.92301 559.68694 L321.75446 552.10222 L311.36178 542.22325 L303.17047 530.45447 L297.51588 517.2777 L294.62949 503.2324 L294.62949 488.89358 L297.51588 474.84828 L303.17047 461.67151 L311.36178 449.90274 L321.75446 440.02377 L333.92301 432.43905 L347.36927 427.4591 L361.54273 425.28781 L375.86315 426.01406 L389.74423 429.60812 L402.61768 435.92285 L413.95647 444.69972 L423.29638 455.57942 L430.25504 468.11651 L434.54755 481.79774 L435.99819 496.06299 M450.85351 531.49606 L449.40288 545.76131 L445.11037 559.44254 L438.15171 571.97964 L428.8118 582.85933 L417.47301 591.63621 L404.59955 597.95094 L390.71847 601.545 L376.39806 602.27125 L362.22459 600.09995 L348.77834 595.12001 L336.60978 587.53529 L326.21711 577.65632 L318.0258 565.88754 L312.3712 552.71077 L309.48482 538.66547 L309.48482 524.32665 L312.3712 510.28135 L318.0258 497.10459 L326.21711 485.33581 L336.60978 475.45684 L348.77834 467.87212 L362.22459 462.89217 L376.39806 460.72088 L390.71847 461.44713 L404.59955 465.04119 L417.47301 471.35592 L428.8118 480.13279 L438.15171 491.01249 L445.11037 503.54959 L449.40288 517.23081 L450.85351 531.49606 M460.57593 566.92913 L459.1253 581.19438 L454.83278 594.87561 L447.87413 607.41271 L438.53421 618.2924 L427.19543 627.06928 L414.32197 633.38401 L400.44089 636.97807 L386.12048 637.70432 L371.94701 635.53302 L358.50075 630.55308 L346.3322 622.96836 L335.93953 613.08939 L327.74822 601.32061 L322.09362 588.14384 L319.20724 574.09854 L319.20724 559.75973 L322.09362 545.71442 L327.74822 532.53766 L335.93953 520.76888 L346.3322 510.88991 L358.50075 503.30519 L371.94701 498.32524 L386.12048 496.15395 L400.44089 496.8802 L414.32197 500.47426 L427.19543 506.78899 L438.53421 515.56587 L447.87413 526.44556 L454.83278 538.98266 L459.1253 552.66388 L460.57593 566.92913 M469.10275 602.3622 L467.65212 616.62745 L463.3596 630.30868 L456.40095 642.84578 L447.06104 653.72547 L435.72225 662.50235 L422.84879 668.81708 L408.96771 672.41114 L394.6473 673.13739 L380.47383 670.9661 L367.02757 665.98615 L354.85902 658.40143 L344.46635 648.52246 L336.27504 636.75368 L330.62044 623.57691 L327.73406 609.53161 L327.73406 595.1928 L330.62044 581.1475 L336.27504 567.97073 L344.46635 556.20195 L354.85902 546.32298 L367.02757 538.73826 L380.47383 533.75831 L394.6473 531.58702 L408.96771 532.31327 L422.84879 535.90733 L435.72225 542.22206 L447.06104 550.99894 L456.40095 561.87863 L463.3596 574.41573 L467.65212 588.09696 L469.10275 602.3622 M479.30914 637.79528 L477.85851 652.06053 L473.56599 665.74175 L466.60734 678.27885 L457.26743 689.15854 L445.92864 697.93542 L433.05518 704.25015 L419.1741 707.84421 L404.85369 708.57046 L390.68022 706.39917 L377.23397 701.41922 L365.06541 693.8345 L354.67274 683.95553 L346.48143 672.18675 L340.82683 659.00999 L337.94045 644.96468 L337.94045 630.62587 L340.82683 616.58057 L346.48143 603.4038 L354.67274 591.63502 L365.06541 581.75605 L377.23397 574.17133 L390.68022 569.19139 L404.85369 567.02009 L419.1741 567.74634 L433.05518 571.3404 L445.92864 577.65513 L457.26743 586.43201 L466.60734 597.3117 L473.56599 609.8488 L477.85851 623.53003 L479.30914 637.79528 M493.00381 673.22835 L491.55318 687.4936 L487.26067 701.17482 L480.30201 713.71192 L470.9621 724.59161 L459.62331 733.36849 L446.74985 739.68322 L432.86877 743.27728 L418.54836 744.00353 L404.37489 741.83224 L390.92864 736.85229 L378.76008 729.26757 L368.36741 719.3886 L360.1761 707.61982 L354.5215 694.44306 L351.63512 680.39776 L351.63512 666.05894 L354.5215 652.01364 L360.1761 638.83687 L368.36741 627.06809 L378.76008 617.18912 L390.92864 609.6044 L404.37489 604.62446 L418.54836 602.45316 L432.86877 603.17941 L446.74985 606.77347 L459.62331 613.0882 L470.9621 621.86508 L480.30201 632.74477 L487.26067 645.28187 L491.55318 658.9631 L493.00381 673.22835 M510.96366 708.66142 L509.51302 722.92667 L505.22051 736.6079 L498.26185 749.14499 L488.92194 760.02469 L477.58315 768.80156 L464.7097 775.11629 L450.82862 778.71035 L436.5082 779.4366 L422.33474 777.26531 L408.88848 772.28536 L396.71993 764.70064 L386.32726 754.82167 L378.13594 743.05289 L372.48135 729.87613 L369.59497 715.83083 L369.59497 701.49201 L372.48135 687.44671 L378.13594 674.26994 L386.32726 662.50116 L396.71993 652.62219 L408.88848 645.03747 L422.33474 640.05753 L436.5082 637.88623 L450.82862 638.61248 L464.7097 642.20654 L477.58315 648.52127 L488.92194 657.29815 L498.26185 668.17784 L505.22051 680.71494 L509.51302 694.39617 L510.96366 708.66142 M533.20038 744.09449 L531.74975 758.35974 L527.45723 772.04097 L520.49858 784.57806 L511.15866 795.45776 L499.81988 804.23463 L486.94642 810.54936 L473.06534 814.14342 L458.74493 814.86967 L444.57146 812.69838 L431.1252 807.71843 L418.95665 800.13371 L408.56398 790.25474 L400.37267 778.48597 L394.71807 765.3092 L391.83169 751.2639 L391.83169 736.92508 L394.71807 722.87978 L400.37267 709.70301 L408.56398 697.93423 L418.95665 688.05526 L431.1252 680.47054 L444.57146 675.4906 L458.74493 673.3193 L473.06534 674.04555 L486.94642 677.63961 L499.81988 683.95434 L511.15866 692.73122 L520.49858 703.61091 L527.45723 716.14801 L531.74975 729.82924 L533.20038 744.09449 M559.45141 779.52756 L558.00078 793.79281 L553.70826 807.47404 L546.74961 820.01113 L537.4097 830.89083 L526.07091 839.6677 L513.19745 845.98243 L499.31637 849.5765 L484.99596 850.30274 L470.82249 848.13145 L457.37623 843.1515 L445.20768 835.56678 L434.81501 825.68781 L426.6237 813.91904 L420.9691 800.74227 L418.08272 786.69697 L418.08272 772.35815 L420.9691 758.31285 L426.6237 745.13608 L434.81501 733.3673 L445.20768 723.48833 L457.37623 715.90362 L470.82249 710.92367 L484.99596 708.75237 L499.31637 709.47862 L513.19745 713.07268 L526.07091 719.38741 L537.4097 728.16429 L546.74961 739.04398 L553.70826 751.58108 L558.00078 765.26231 L559.45141 779.52756 M589.70226 814.96063 L588.25163 829.22588 L583.95911 842.90711 L577.00046 855.4442 L567.66054 866.3239 L556.32176 875.10077 L543.4483 881.41551 L529.56722 885.00957 L515.24681 885.73582 L501.07334 883.56452 L487.62708 878.58457 L475.45853 870.99986 L465.06586 861.12088 L456.87455 849.35211 L451.21995 836.17534 L448.33357 822.13004 L448.33357 807.79122 L451.21995 793.74592 L456.87455 780.56915 L465.06586 768.80038 L475.45853 758.9214 L487.62708 751.33669 L501.07334 746.35674 L515.24681 744.18544 L529.56722 744.91169 L543.4483 748.50575 L556.32176 754.82049 L567.66054 763.59736 L577.00046 774.47706 L583.95911 787.01415 L588.25163 800.69538 L589.70226 814.96063 M624.60597 850.3937 L623.15534 864.65895 L618.86282 878.34018 L611.90417 890.87728 L602.56426 901.75697 L591.22547 910.53385 L578.35201 916.84858 L564.47093 920.44264 L550.15052 921.16889 L535.97705 918.99759 L522.53079 914.01764 L510.36224 906.43293 L499.96957 896.55396 L491.77826 884.78518 L486.12366 871.60841 L483.23728 857.56311 L483.23728 843.22429 L486.12366 829.17899 L491.77826 816.00222 L499.96957 804.23345 L510.36224 794.35448 L522.53079 786.76976 L535.97705 781.78981 L550.15052 779.61852 L564.47093 780.34476 L578.35201 783.93883 L591.22547 790.25356 L602.56426 799.03043 L611.90417 809.91013 L618.86282 822.44722 L623.15534 836.12845 L624.60597 850.3937 M665.71008 885.82677 L664.25944 900.09202 L659.96693 913.77325 L653.00827 926.31035 L643.66836 937.19004 L632.32957 945.96692 L619.45612 952.28165 L605.57504 955.87571 L591.25462 956.60196 L577.08116 954.43066 L563.6349 949.45072 L551.46635 941.866 L541.07368 931.98703 L532.88236 920.21825 L527.22777 907.04148 L524.34139 892.99618 L524.34139 878.65736 L527.22777 864.61206 L532.88236 851.43529 L541.07368 839.66652 L551.46635 829.78755 L563.6349 822.20283 L577.08116 817.22288 L591.25462 815.05159 L605.57504 815.77784 L619.45612 819.3719 L632.32957 825.68663 L643.66836 834.4635 L653.00827 845.3432 L659.96693 857.88029 L664.25944 871.56152 L665.71008 885.82677 M714.85209 921.25984 L713.40145 935.52509 L709.10894 949.20632 L702.15029 961.74342 L692.81037 972.62311 L681.47159 981.39999 L668.59813 987.71472 L654.71705 991.30878 L640.39664 992.03503 L626.22317 989.86373 L612.77691 984.88379 L600.60836 977.29907 L590.21569 967.4201 L582.02438 955.65132 L576.36978 942.47455 L573.4834 928.42925 L573.4834 914.09043 L576.36978 900.04513 L582.02438 886.86836 L590.21569 875.09959 L600.60836 865.22062 L612.77691 857.6359 L626.22317 852.65595 L640.39664 850.48466 L654.71705 851.21091 L668.59813 854.80497 L681.47159 861.1197 L692.81037 869.89657 L702.15029 880.77627 L709.10894 893.31336 L713.40145 906.99459 L714.85209 921.25984 M771.71623 956.69291 L770.26559 970.95816 L765.97308 984.63939 L759.01442 997.17649 L749.67451 1008.05618 L738.33572 1016.83306 L725.46227 1023.14779 L711.58119 1026.74185 L697.26078 1027.4681 L683.08731 1025.2968 L669.64105 1020.31686 L657.4725 1012.73214 L647.07983 1002.85317 L638.88852 991.08439 L633.23392 977.90762 L630.34754 963.86232 L630.34754 949.5235 L633.23392 935.4782 L638.88852 922.30144 L647.07983 910.53266 L657.4725 900.65369 L669.64105 893.06897 L683.08731 888.08902 L697.26078 885.91773 L711.58119 886.64398 L725.46227 890.23804 L738.33572 896.55277 L749.67451 905.32964 L759.01442 916.20934 L765.97308 928.74644 L770.26559 942.42766 L771.71623 956.69291 M831.02812 992.12598 L829.57749 1006.39123 L825.28498 1020.07246 L818.32632 1032.60956 L808.98641 1043.48925 L797.64762 1052.26613 L784.77417 1058.58086 L770.89308 1062.17492 L756.57267 1062.90117 L742.3992 1060.72987 L728.95295 1055.74993 L716.78439 1048.16521 L706.39172 1038.28624 L698.20041 1026.51746 L692.54581 1013.34069 L689.65943 999.29539 L689.65943 984.95658 L692.54581 970.91127 L698.20041 957.73451 L706.39172 945.96573 L716.78439 936.08676 L728.95295 928.50204 L742.3992 923.52209 L756.57267 921.3508 L770.89308 922.07705 L784.77417 925.67111 L797.64762 931.98584 L808.98641 940.76272 L818.32632 951.64241 L825.28498 964.17951 L829.57749 977.86073 L831.02812 992.12598 M884.04414 1027.55906 L882.59351 1041.8243 L878.301 1055.50553 L871.34234 1068.04263 L862.00243 1078.92232 L850.66364 1087.6992 L837.79018 1094.01393 L823.9091 1097.60799 L809.58869 1098.33424 L795.41522 1096.16295 L781.96897 1091.183 L769.80041 1083.59828 L759.40774 1073.71931 L751.21643 1061.95053 L745.56183 1048.77376 L742.67545 1034.72846 L742.67545 1020.38965 L745.56183 1006.34435 L751.21643 993.16758 L759.40774 981.3988 L769.80041 971.51983 L781.96897 963.93511 L795.41522 958.95516 L809.58869 956.78387 L823.9091 957.51012 L837.79018 961.10418 L850.66364 967.41891 L862.00243 976.19579 L871.34234 987.07548 L878.301 999.61258 L882.59351 1013.29381 L884.04414 1027.55906 M925.19093 1062.99213 L923.74029 1077.25738 L919.44778 1090.9386 L912.48912 1103.4757 L903.14921 1114.35539 L891.81042 1123.13227 L878.93697 1129.447 L865.05589 1133.04106 L850.73547 1133.76731 L836.56201 1131.59602 L823.11575 1126.61607 L810.9472 1119.03135 L800.55452 1109.15238 L792.36321 1097.3836 L786.70862 1084.20684 L783.82223 1070.16153 L783.82223 1055.82272 L786.70862 1041.77742 L792.36321 1028.60065 L800.55452 1016.83187 L810.9472 1006.9529 L823.11575 999.36818 L836.56201 994.38824 L850.73547 992.21694 L865.05589 992.94319 L878.93697 996.53725 L891.81042 1002.85198 L903.14921 1011.62886 L912.48912 1022.50855 L919.44778 1035.04565 L923.74029 1048.72688 L925.19093 1062.99213 M952.56139 1098.4252 L951.11075 1112.69045 L946.81824 1126.37167 L939.85958 1138.90877 L930.51967 1149.78847 L919.18088 1158.56534 L906.30743 1164.88007 L892.42635 1168.47413 L878.10593 1169.20038 L863.93247 1167.02909 L850.48621 1162.04914 L838.31765 1154.46442 L827.92498 1144.58545 L819.73367 1132.81667 L814.07908 1119.63991 L811.19269 1105.59461 L811.19269 1091.25579 L814.07908 1077.21049 L819.73367 1064.03372 L827.92498 1052.26494 L838.31765 1042.38597 L850.48621 1034.80125 L863.93247 1029.82131 L878.10593 1027.65001 L892.42635 1028.37626 L906.30743 1031.97032 L919.18088 1038.28505 L930.51967 1047.06193 L939.85958 1057.94162 L946.81824 1070.47872 L951.11075 1084.15995 L952.56139 1098.4252 M470.37402 389.76378 L468.92338 404.02903 L464.63087 417.71026 L457.67221 430.24735 L448.3323 441.12705 L436.99351 449.90392 L424.12006 456.21866 L410.23898 459.81272 L395.91856 460.53897 L381.7451 458.36767 L368.29884 453.38772 L356.13028 445.803 L345.73761 435.92403 L337.5463 424.15526 L331.89171 410.97849 L329.00532 396.93319 L329.00532 382.59437 L331.89171 368.54907 L337.5463 355.3723 L345.73761 343.60352 L356.13028 333.72455 L368.29884 326.13984 L381.7451 321.15989 L395.91856 318.98859 L410.23898 319.71484 L424.12006 323.3089 L436.99351 329.62364 L448.3323 338.40051 L457.67221 349.28021 L464.63087 361.8173 L468.92338 375.49853 L470.37402 389.76378 M474.56714 425.19685 L473.1165 439.4621 L468.82399 453.14333 L461.86534 465.68042 L452.52542 476.56012 L441.18664 485.33699 L428.31318 491.65173 L414.4321 495.24579 L400.11169 495.97204 L385.93822 493.80074 L372.49196 488.82079 L360.32341 481.23608 L349.93074 471.35711 L341.73943 459.58833 L336.08483 446.41156 L333.19845 432.36626 L333.19845 418.02744 L336.08483 403.98214 L341.73943 390.80537 L349.93074 379.0366 L360.32341 369.15762 L372.49196 361.57291 L385.93822 356.59296 L400.11169 354.42166 L414.4321 355.14791 L428.31318 358.74197 L441.18664 365.05671 L452.52542 373.83358 L461.86534 384.71328 L468.82399 397.25037 L473.1165 410.9316 L474.56714 425.19685 M476.84918 460.62992 L475.39854 474.89517 L471.10603 488.5764 L464.14737 501.1135 L454.80746 511.99319 L443.46867 520.77007 L430.59522 527.0848 L416.71414 530.67886 L402.39372 531.40511 L388.22026 529.23381 L374.774 524.25387 L362.60544 516.66915 L352.21277 506.79018 L344.02146 495.0214 L338.36687 481.84463 L335.48048 467.79933 L335.48048 453.46051 L338.36687 439.41521 L344.02146 426.23844 L352.21277 414.46967 L362.60544 404.5907 L374.774 397.00598 L388.22026 392.02603 L402.39372 389.85474 L416.71414 390.58098 L430.59522 394.17505 L443.46867 400.48978 L454.80746 409.26665 L464.14737 420.14635 L471.10603 432.68344 L475.39854 446.36467 L476.84918 460.62992 M478.07367 496.06299 L476.62303 510.32824 L472.33052 524.00947 L465.37186 536.54657 L456.03195 547.42626 L444.69316 556.20314 L431.81971 562.51787 L417.93863 566.11193 L403.61821 566.83818 L389.44475 564.66688 L375.99849 559.68694 L363.82994 552.10222 L353.43726 542.22325 L345.24595 530.45447 L339.59136 517.2777 L336.70497 503.2324 L336.70497 488.89358 L339.59136 474.84828 L345.24595 461.67151 L353.43726 449.90274 L363.82994 440.02377 L375.99849 432.43905 L389.44475 427.4591 L403.61821 425.28781 L417.93863 426.01406 L431.81971 429.60812 L444.69316 435.92285 L456.03195 444.69972 L465.37186 455.57942 L472.33052 468.11651 L476.62303 481.79774 L478.07367 496.06299 M478.84424 531.49606 L477.39361 545.76131 L473.10109 559.44254 L466.14244 571.97964 L456.80252 582.85933 L445.46374 591.63621 L432.59028 597.95094 L418.7092 601.545 L404.38879 602.27125 L390.21532 600.09995 L376.76906 595.12001 L364.60051 587.53529 L354.20784 577.65632 L346.01653 565.88754 L340.36193 552.71077 L337.47555 538.66547 L337.47555 524.32665 L340.36193 510.28135 L346.01653 497.10459 L354.20784 485.33581 L364.60051 475.45684 L376.76906 467.87212 L390.21532 462.89217 L404.38879 460.72088 L418.7092 461.44713 L432.59028 465.04119 L445.46374 471.35592 L456.80252 480.13279 L466.14244 491.01249 L473.10109 503.54959 L477.39361 517.23081 L478.84424 531.49606 M480.13401 566.92913 L478.68337 581.19438 L474.39086 594.87561 L467.4322 607.41271 L458.09229 618.2924 L446.7535 627.06928 L433.88005 633.38401 L419.99897 636.97807 L405.67855 637.70432 L391.50509 635.53302 L378.05883 630.55308 L365.89027 622.96836 L355.4976 613.08939 L347.30629 601.32061 L341.6517 588.14384 L338.76531 574.09854 L338.76531 559.75973 L341.6517 545.71442 L347.30629 532.53766 L355.4976 520.76888 L365.89027 510.88991 L378.05883 503.30519 L391.50509 498.32524 L405.67855 496.15395 L419.99897 496.8802 L433.88005 500.47426 L446.7535 506.78899 L458.09229 515.56587 L467.4322 526.44556 L474.39086 538.98266 L478.68337 552.66388 L480.13401 566.92913 M483.41193 602.3622 L481.9613 616.62745 L477.66878 630.30868 L470.71013 642.84578 L461.37022 653.72547 L450.03143 662.50235 L437.15797 668.81708 L423.27689 672.41114 L408.95648 673.13739 L394.78301 670.9661 L381.33675 665.98615 L369.1682 658.40143 L358.77553 648.52246 L350.58422 636.75368 L344.92962 623.57691 L342.04324 609.53161 L342.04324 595.1928 L344.92962 581.1475 L350.58422 567.97073 L358.77553 556.20195 L369.1682 546.32298 L381.33675 538.73826 L394.78301 533.75831 L408.95648 531.58702 L423.27689 532.31327 L437.15797 535.90733 L450.03143 542.22206 L461.37022 550.99894 L470.71013 561.87863 L477.66878 574.41573 L481.9613 588.09696 L483.41193 602.3622 M490.2213 637.79528 L488.77066 652.06053 L484.47815 665.74175 L477.51949 678.27885 L468.17958 689.15854 L456.84079 697.93542 L443.96734 704.25015 L430.08626 707.84421 L415.76584 708.57046 L401.59238 706.39917 L388.14612 701.41922 L375.97757 693.8345 L365.5849 683.95553 L357.39358 672.18675 L351.73899 659.00999 L348.85261 644.96468 L348.85261 630.62587 L351.73899 616.58057 L357.39358 603.4038 L365.5849 591.63502 L375.97757 581.75605 L388.14612 574.17133 L401.59238 569.19139 L415.76584 567.02009 L430.08626 567.74634 L443.96734 571.3404 L456.84079 577.65513 L468.17958 586.43201 L477.51949 597.3117 L484.47815 609.8488 L488.77066 623.53003 L490.2213 637.79528 M501.68479 673.22835 L500.23416 687.4936 L495.94165 701.17482 L488.98299 713.71192 L479.64308 724.59161 L468.30429 733.36849 L455.43083 739.68322 L441.54975 743.27728 L427.22934 744.00353 L413.05587 741.83224 L399.60962 736.85229 L387.44106 729.26757 L377.04839 719.3886 L368.85708 707.61982 L363.20248 694.44306 L360.3161 680.39776 L360.3161 666.05894 L363.20248 652.01364 L368.85708 638.83687 L377.04839 627.06809 L387.44106 617.18912 L399.60962 609.6044 L413.05587 604.62446 L427.22934 602.45316 L441.54975 603.17941 L455.43083 606.77347 L468.30429 613.0882 L479.64308 621.86508 L488.98299 632.74477 L495.94165 645.28187 L500.23416 658.9631 L501.68479 673.22835 M518.23461 708.66142 L516.78398 722.92667 L512.49147 736.6079 L505.53281 749.14499 L496.1929 760.02469 L484.85411 768.80156 L471.98065 775.11629 L458.09957 778.71035 L443.77916 779.4366 L429.60569 777.26531 L416.15944 772.28536 L403.99088 764.70064 L393.59821 754.82167 L385.4069 743.05289 L379.7523 729.87613 L376.86592 715.83083 L376.86592 701.49201 L379.7523 687.44671 L385.4069 674.26994 L393.59821 662.50116 L403.99088 652.62219 L416.15944 645.03747 L429.60569 640.05753 L443.77916 637.88623 L458.09957 638.61248 L471.98065 642.20654 L484.85411 648.52127 L496.1929 657.29815 L505.53281 668.17784 L512.49147 680.71494 L516.78398 694.39617 L518.23461 708.66142 M539.71623 744.09449 L538.26559 758.35974 L533.97308 772.04097 L527.01442 784.57806 L517.67451 795.45776 L506.33572 804.23463 L493.46227 810.54936 L479.58119 814.14342 L465.26077 814.86967 L451.08731 812.69838 L437.64105 807.71843 L425.4725 800.13371 L415.07982 790.25474 L406.88851 778.48597 L401.23392 765.3092 L398.34753 751.2639 L398.34753 736.92508 L401.23392 722.87978 L406.88851 709.70301 L415.07982 697.93423 L425.4725 688.05526 L437.64105 680.47054 L451.08731 675.4906 L465.26077 673.3193 L479.58119 674.04555 L493.46227 677.63961 L506.33572 683.95434 L517.67451 692.73122 L527.01442 703.61091 L533.97308 716.14801 L538.26559 729.82924 L539.71623 744.09449 M565.79918 779.52756 L564.34855 793.79281 L560.05603 807.47404 L553.09738 820.01113 L543.75747 830.89083 L532.41868 839.6677 L519.54522 845.98243 L505.66414 849.5765 L491.34373 850.30274 L477.17026 848.13145 L463.724 843.1515 L451.55545 835.56678 L441.16278 825.68781 L432.97147 813.91904 L427.31687 800.74227 L424.43049 786.69697 L424.43049 772.35815 L427.31687 758.31285 L432.97147 745.13608 L441.16278 733.3673 L451.55545 723.48833 L463.724 715.90362 L477.17026 710.92367 L491.34373 708.75237 L505.66414 709.47862 L519.54522 713.07268 L532.41868 719.38741 L543.75747 728.16429 L553.09738 739.04398 L560.05603 751.58108 L564.34855 765.26231 L565.79918 779.52756 M596.4737 814.96063 L595.02307 829.22588 L590.73055 842.90711 L583.7719 855.4442 L574.43199 866.3239 L563.0932 875.10077 L550.21974 881.41551 L536.33866 885.00957 L522.01825 885.73582 L507.84478 883.56452 L494.39852 878.58457 L482.22997 870.99986 L471.8373 861.12088 L463.64599 849.35211 L457.99139 836.17534 L455.10501 822.13004 L455.10501 807.79122 L457.99139 793.74592 L463.64599 780.56915 L471.8373 768.80038 L482.22997 758.9214 L494.39852 751.33669 L507.84478 746.35674 L522.01825 744.18544 L536.33866 744.91169 L550.21974 748.50575 L563.0932 754.82049 L574.43199 763.59736 L583.7719 774.47706 L590.73055 787.01415 L595.02307 800.69538 L596.4737 814.96063 M632.46674 850.3937 L631.01611 864.65895 L626.7236 878.34018 L619.76494 890.87728 L610.42503 901.75697 L599.08624 910.53385 L586.21279 916.84858 L572.3317 920.44264 L558.01129 921.16889 L543.83782 918.99759 L530.39157 914.01764 L518.22301 906.43293 L507.83034 896.55396 L499.63903 884.78518 L493.98443 871.60841 L491.09805 857.56311 L491.09805 843.22429 L493.98443 829.17899 L499.63903 816.00222 L507.83034 804.23345 L518.22301 794.35448 L530.39157 786.76976 L543.83782 781.78981 L558.01129 779.61852 L572.3317 780.34476 L586.21279 783.93883 L599.08624 790.25356 L610.42503 799.03043 L619.76494 809.91013 L626.7236 822.44722 L631.01611 836.12845 L632.46674 850.3937 M675.42583 885.82677 L673.9752 900.09202 L669.68269 913.77325 L662.72403 926.31035 L653.38412 937.19004 L642.04533 945.96692 L629.17188 952.28165 L615.2908 955.87571 L600.97038 956.60196 L586.79692 954.43066 L573.35066 949.45072 L561.1821 941.866 L550.78943 931.98703 L542.59812 920.21825 L536.94353 907.04148 L534.05714 892.99618 L534.05714 878.65736 L536.94353 864.61206 L542.59812 851.43529 L550.78943 839.66652 L561.1821 829.78755 L573.35066 822.20283 L586.79692 817.22288 L600.97038 815.05159 L615.2908 815.77784 L629.17188 819.3719 L642.04533 825.68663 L653.38412 834.4635 L662.72403 845.3432 L669.68269 857.88029 L673.9752 871.56152 L675.42583 885.82677 M727.07377 921.25984 L725.62314 935.52509 L721.33062 949.20632 L714.37197 961.74342 L705.03206 972.62311 L693.69327 981.39999 L680.81981 987.71472 L666.93873 991.30878 L652.61832 992.03503 L638.44485 989.86373 L624.99859 984.88379 L612.83004 977.29907 L602.43737 967.4201 L594.24606 955.65132 L588.59146 942.47455 L585.70508 928.42925 L585.70508 914.09043 L588.59146 900.04513 L594.24606 886.86836 L602.43737 875.09959 L612.83004 865.22062 L624.99859 857.6359 L638.44485 852.65595 L652.61832 850.48466 L666.93873 851.21091 L680.81981 854.80497 L693.69327 861.1197 L705.03206 869.89657 L714.37197 880.77627 L721.33062 893.31336 L725.62314 906.99459 L727.07377 921.25984 M786.30244 956.69291 L784.85181 970.95816 L780.55929 984.63939 L773.60064 997.17649 L764.26073 1008.05618 L752.92194 1016.83306 L740.04848 1023.14779 L726.1674 1026.74185 L711.84699 1027.4681 L697.67352 1025.2968 L684.22727 1020.31686 L672.05871 1012.73214 L661.66604 1002.85317 L653.47473 991.08439 L647.82013 977.90762 L644.93375 963.86232 L644.93375 949.5235 L647.82013 935.4782 L653.47473 922.30144 L661.66604 910.53266 L672.05871 900.65369 L684.22727 893.06897 L697.67352 888.08902 L711.84699 885.91773 L726.1674 886.64398 L740.04848 890.23804 L752.92194 896.55277 L764.26073 905.32964 L773.60064 916.20934 L780.55929 928.74644 L784.85181 942.42766 L786.30244 956.69291 M846.38387 992.12598 L844.93324 1006.39123 L840.64073 1020.07246 L833.68207 1032.60956 L824.34216 1043.48925 L813.00337 1052.26613 L800.12991 1058.58086 L786.24883 1062.17492 L771.92842 1062.90117 L757.75495 1060.72987 L744.3087 1055.74993 L732.14014 1048.16521 L721.74747 1038.28624 L713.55616 1026.51746 L707.90156 1013.34069 L705.01518 999.29539 L705.01518 984.95658 L707.90156 970.91127 L713.55616 957.73451 L721.74747 945.96573 L732.14014 936.08676 L744.3087 928.50204 L757.75495 923.52209 L771.92842 921.3508 L786.24883 922.07705 L800.12991 925.67111 L813.00337 931.98584 L824.34216 940.76272 L833.68207 951.64241 L840.64073 964.17951 L844.93324 977.86073 L846.38387 992.12598 M898.06591 1027.55906 L896.61528 1041.8243 L892.32277 1055.50553 L885.36411 1068.04263 L876.0242 1078.92232 L864.68541 1087.6992 L851.81195 1094.01393 L837.93087 1097.60799 L823.61046 1098.33424 L809.43699 1096.16295 L795.99074 1091.183 L783.82218 1083.59828 L773.42951 1073.71931 L765.2382 1061.95053 L759.5836 1048.77376 L756.69722 1034.72846 L756.69722 1020.38965 L759.5836 1006.34435 L765.2382 993.16758 L773.42951 981.3988 L783.82218 971.51983 L795.99074 963.93511 L809.43699 958.95516 L823.61046 956.78387 L837.93087 957.51012 L851.81195 961.10418 L864.68541 967.41891 L876.0242 976.19579 L885.36411 987.07548 L892.32277 999.61258 L896.61528 1013.29381 L898.06591 1027.55906 M936.54216 1062.99213 L935.09152 1077.25738 L930.79901 1090.9386 L923.84036 1103.4757 L914.50044 1114.35539 L903.16166 1123.13227 L890.2882 1129.447 L876.40712 1133.04106 L862.08671 1133.76731 L847.91324 1131.59602 L834.46698 1126.61607 L822.29843 1119.03135 L811.90576 1109.15238 L803.71445 1097.3836 L798.05985 1084.20684 L795.17347 1070.16153 L795.17347 1055.82272 L798.05985 1041.77742 L803.71445 1028.60065 L811.90576 1016.83187 L822.29843 1006.9529 L834.46698 999.36818 L847.91324 994.38824 L862.08671 992.21694 L876.40712 992.94319 L890.2882 996.53725 L903.16166 1002.85198 L914.50044 1011.62886 L923.84036 1022.50855 L930.79901 1035.04565 L935.09152 1048.72688 L936.54216 1062.99213 M960.64859 1098.4252 L959.19795 1112.69045 L954.90544 1126.37167 L947.94678 1138.90877 L938.60687 1149.78847 L927.26808 1158.56534 L914.39463 1164.88007 L900.51355 1168.47413 L886.19313 1169.20038 L872.01967 1167.02909 L858.57341 1162.04914 L846.40486 1154.46442 L836.01218 1144.58545 L827.82087 1132.81667 L822.16628 1119.63991 L819.27989 1105.59461 L819.27989 1091.25579 L822.16628 1077.21049 L827.82087 1064.03372 L836.01218 1052.26494 L846.40486 1042.38597 L858.57341 1034.80125 L872.01967 1029.82131 L886.19313 1027.65001 L900.51355 1028.37626 L914.39463 1031.97032 L927.26808 1038.28505 L938.60687 1047.06193 L947.94678 1057.94162 L954.90544 1070.47872 L959.19795 1084.15995 L960.64859 1098.4252 M612.1063 389.76378 L610.65567 404.02903 L606.36315 417.71026 L599.4045 430.24735 L590.06458 441.12705 L578.7258 449.90392 L565.85234 456.21866 L551.97126 459.81272 L537.65085 460.53897 L523.47738 458.36767 L510.03112 453.38772 L497.86257 445.803 L487.4699 435.92403 L479.27859 424.15526 L473.62399 410.97849 L470.73761 396.93319 L470.73761 382.59437 L473.62399 368.54907 L479.27859 355.3723 L487.4699 343.60352 L497.86257 333.72455 L510.03112 326.13984 L523.47738 321.15989 L537.65085 318.98859 L551.97126 319.71484 L565.85234 323.3089 L578.7258 329.62364 L590.06458 338.40051 L599.4045 349.28021 L606.36315 361.8173 L610.65567 375.49853 L612.1063 389.76378 M569.0231 425.19685 L567.57247 439.4621 L563.27995 453.14333 L556.3213 465.68042 L546.98139 476.56012 L535.6426 485.33699 L522.76914 491.65173 L508.88806 495.24579 L494.56765 495.97204 L480.39418 493.80074 L466.94793 488.82079 L454.77937 481.23608 L444.3867 471.35711 L436.19539 459.58833 L430.54079 446.41156 L427.65441 432.36626 L427.65441 418.02744 L430.54079 403.98214 L436.19539 390.80537 L444.3867 379.0366 L454.77937 369.15762 L466.94793 361.57291 L480.39418 356.59296 L494.56765 354.42166 L508.88806 355.14791 L522.76914 358.74197 L535.6426 365.05671 L546.98139 373.83358 L556.3213 384.71328 L563.27995 397.25037 L567.57247 410.9316 L569.0231 425.19685 M536.23648 460.62992 L534.78585 474.89517 L530.49333 488.5764 L523.53468 501.1135 L514.19476 511.99319 L502.85598 520.77007 L489.98252 527.0848 L476.10144 530.67886 L461.78103 531.40511 L447.60756 529.23381 L434.1613 524.25387 L421.99275 516.66915 L411.60008 506.79018 L403.40877 495.0214 L397.75417 481.84463 L394.86779 467.79933 L394.86779 453.46051 L397.75417 439.41521 L403.40877 426.23844 L411.60008 414.46967 L421.99275 404.5907 L434.1613 397.00598 L447.60756 392.02603 L461.78103 389.85474 L476.10144 390.58098 L489.98252 394.17505 L502.85598 400.48978 L514.19476 409.26665 L523.53468 420.14635 L530.49333 432.68344 L534.78585 446.36467 L536.23648 460.62992 M515.57689 496.06299 L514.12625 510.32824 L509.83374 524.00947 L502.87509 536.54657 L493.53517 547.42626 L482.19639 556.20314 L469.32293 562.51787 L455.44185 566.11193 L441.12144 566.83818 L426.94797 564.66688 L413.50171 559.68694 L401.33316 552.10222 L390.94049 542.22325 L382.74918 530.45447 L377.09458 517.2777 L374.2082 503.2324 L374.2082 488.89358 L377.09458 474.84828 L382.74918 461.67151 L390.94049 449.90274 L401.33316 440.02377 L413.50171 432.43905 L426.94797 427.4591 L441.12144 425.28781 L455.44185 426.01406 L469.32293 429.60812 L482.19639 435.92285 L493.53517 444.69972 L502.87509 455.57942 L509.83374 468.11651 L514.12625 481.79774 L515.57689 496.06299 M503.69706 531.49606 L502.24643 545.76131 L497.95391 559.44254 L490.99526 571.97964 L481.65535 582.85933 L470.31656 591.63621 L457.4431 597.95094 L443.56202 601.545 L429.24161 602.27125 L415.06814 600.09995 L401.62189 595.12001 L389.45333 587.53529 L379.06066 577.65632 L370.86935 565.88754 L365.21475 552.71077 L362.32837 538.66547 L362.32837 524.32665 L365.21475 510.28135 L370.86935 497.10459 L379.06066 485.33581 L389.45333 475.45684 L401.62189 467.87212 L415.06814 462.89217 L429.24161 460.72088 L443.56202 461.44713 L457.4431 465.04119 L470.31656 471.35592 L481.65535 480.13279 L490.99526 491.01249 L497.95391 503.54959 L502.24643 517.23081 L503.69706 531.49606 M497.55206 566.92913 L496.10142 581.19438 L491.80891 594.87561 L484.85025 607.41271 L475.51034 618.2924 L464.17155 627.06928 L451.2981 633.38401 L437.41702 636.97807 L423.0966 637.70432 L408.92314 635.53302 L395.47688 630.55308 L383.30832 622.96836 L372.91565 613.08939 L364.72434 601.32061 L359.06975 588.14384 L356.18336 574.09854 L356.18336 559.75973 L359.06975 545.71442 L364.72434 532.53766 L372.91565 520.76888 L383.30832 510.88991 L395.47688 503.30519 L408.92314 498.32524 L423.0966 496.15395 L437.41702 496.8802 L451.2981 500.47426 L464.17155 506.78899 L475.51034 515.56587 L484.85025 526.44556 L491.80891 538.98266 L496.10142 552.66388 L497.55206 566.92913 M496.24538 602.3622 L494.79475 616.62745 L490.50223 630.30868 L483.54358 642.84578 L474.20367 653.72547 L462.86488 662.50235 L449.99142 668.81708 L436.11034 672.41114 L421.78993 673.13739 L407.61646 670.9661 L394.1702 665.98615 L382.00165 658.40143 L371.60898 648.52246 L363.41767 636.75368 L357.76307 623.57691 L354.87669 609.53161 L354.87669 595.1928 L357.76307 581.1475 L363.41767 567.97073 L371.60898 556.20195 L382.00165 546.32298 L394.1702 538.73826 L407.61646 533.75831 L421.78993 531.58702 L436.11034 532.31327 L449.99142 535.90733 L462.86488 542.22206 L474.20367 550.99894 L483.54358 561.87863 L490.50223 574.41573 L494.79475 588.09696 L496.24538 602.3622 M500.10667 637.79528 L498.65604 652.06053 L494.36353 665.74175 L487.40487 678.27885 L478.06496 689.15854 L466.72617 697.93542 L453.85272 704.25015 L439.97164 707.84421 L425.65122 708.57046 L411.47775 706.39917 L398.0315 701.41922 L385.86294 693.8345 L375.47027 683.95553 L367.27896 672.18675 L361.62436 659.00999 L358.73798 644.96468 L358.73798 630.62587 L361.62436 616.58057 L367.27896 603.4038 L375.47027 591.63502 L385.86294 581.75605 L398.0315 574.17133 L411.47775 569.19139 L425.65122 567.02009 L439.97164 567.74634 L453.85272 571.3404 L466.72617 577.65513 L478.06496 586.43201 L487.40487 597.3117 L494.36353 609.8488 L498.65604 623.53003 L500.10667 637.79528 M509.64802 673.22835 L508.19738 687.4936 L503.90487 701.17482 L496.94622 713.71192 L487.6063 724.59161 L476.26752 733.36849 L463.39406 739.68322 L449.51298 743.27728 L435.19257 744.00353 L421.0191 741.83224 L407.57284 736.85229 L395.40429 729.26757 L385.01162 719.3886 L376.82031 707.61982 L371.16571 694.44306 L368.27933 680.39776 L368.27933 666.05894 L371.16571 652.01364 L376.82031 638.83687 L385.01162 627.06809 L395.40429 617.18912 L407.57284 609.6044 L421.0191 604.62446 L435.19257 602.45316 L449.51298 603.17941 L463.39406 606.77347 L476.26752 613.0882 L487.6063 621.86508 L496.94622 632.74477 L503.90487 645.28187 L508.19738 658.9631 L509.64802 673.22835 M524.99976 708.66142 L523.54913 722.92667 L519.25662 736.6079 L512.29796 749.14499 L502.95805 760.02469 L491.61926 768.80156 L478.7458 775.11629 L464.86472 778.71035 L450.54431 779.4366 L436.37084 777.26531 L422.92459 772.28536 L410.75603 764.70064 L400.36336 754.82167 L392.17205 743.05289 L386.51745 729.87613 L383.63107 715.83083 L383.63107 701.49201 L386.51745 687.44671 L392.17205 674.26994 L400.36336 662.50116 L410.75603 652.62219 L422.92459 645.03747 L436.37084 640.05753 L450.54431 637.88623 L464.86472 638.61248 L478.7458 642.20654 L491.61926 648.52127 L502.95805 657.29815 L512.29796 668.17784 L519.25662 680.71494 L523.54913 694.39617 L524.99976 708.66142 M545.86744 744.09449 L544.41681 758.35974 L540.12429 772.04097 L533.16564 784.57806 L523.82573 795.45776 L512.48694 804.23463 L499.61348 810.54936 L485.7324 814.14342 L471.41199 814.86967 L457.23852 812.69838 L443.79226 807.71843 L431.62371 800.13371 L421.23104 790.25474 L413.03973 778.48597 L407.38513 765.3092 L404.49875 751.2639 L404.49875 736.92508 L407.38513 722.87978 L413.03973 709.70301 L421.23104 697.93423 L431.62371 688.05526 L443.79226 680.47054 L457.23852 675.4906 L471.41199 673.3193 L485.7324 674.04555 L499.61348 677.63961 L512.48694 683.95434 L523.82573 692.73122 L533.16564 703.61091 L540.12429 716.14801 L544.41681 729.82924 L545.86744 744.09449 M571.87198 779.52756 L570.42135 793.79281 L566.12884 807.47404 L559.17018 820.01113 L549.83027 830.89083 L538.49148 839.6677 L525.61802 845.98243 L511.73694 849.5765 L497.41653 850.30274 L483.24306 848.13145 L469.79681 843.1515 L457.62825 835.56678 L447.23558 825.68781 L439.04427 813.91904 L433.38967 800.74227 L430.50329 786.69697 L430.50329 772.35815 L433.38967 758.31285 L439.04427 745.13608 L447.23558 733.3673 L457.62825 723.48833 L469.79681 715.90362 L483.24306 710.92367 L497.41653 708.75237 L511.73694 709.47862 L525.61802 713.07268 L538.49148 719.38741 L549.83027 728.16429 L559.17018 739.04398 L566.12884 751.58108 L570.42135 765.26231 L571.87198 779.52756 M603.02163 814.96063 L601.57099 829.22588 L597.27848 842.90711 L590.31982 855.4442 L580.97991 866.3239 L569.64112 875.10077 L556.76767 881.41551 L542.88659 885.00957 L528.56617 885.73582 L514.39271 883.56452 L500.94645 878.58457 L488.7779 870.99986 L478.38522 861.12088 L470.19391 849.35211 L464.53932 836.17534 L461.65294 822.13004 L461.65294 807.79122 L464.53932 793.74592 L470.19391 780.56915 L478.38522 768.80038 L488.7779 758.9214 L500.94645 751.33669 L514.39271 746.35674 L528.56617 744.18544 L542.88659 744.91169 L556.76767 748.50575 L569.64112 754.82049 L580.97991 763.59736 L590.31982 774.47706 L597.27848 787.01415 L601.57099 800.69538 L603.02163 814.96063 M640.11881 850.3937 L638.66818 864.65895 L634.37567 878.34018 L627.41701 890.87728 L618.0771 901.75697 L606.73831 910.53385 L593.86486 916.84858 L579.98377 920.44264 L565.66336 921.16889 L551.48989 918.99759 L538.04364 914.01764 L525.87508 906.43293 L515.48241 896.55396 L507.2911 884.78518 L501.6365 871.60841 L498.75012 857.56311 L498.75012 843.22429 L501.6365 829.17899 L507.2911 816.00222 L515.48241 804.23345 L525.87508 794.35448 L538.04364 786.76976 L551.48989 781.78981 L565.66336 779.61852 L579.98377 780.34476 L593.86486 783.93883 L606.73831 790.25356 L618.0771 799.03043 L627.41701 809.91013 L634.37567 822.44722 L638.66818 836.12845 L640.11881 850.3937 M684.88406 885.82677 L683.43342 900.09202 L679.14091 913.77325 L672.18225 926.31035 L662.84234 937.19004 L651.50355 945.96692 L638.6301 952.28165 L624.74902 955.87571 L610.4286 956.60196 L596.25514 954.43066 L582.80888 949.45072 L570.64032 941.866 L560.24765 931.98703 L552.05634 920.21825 L546.40175 907.04148 L543.51536 892.99618 L543.51536 878.65736 L546.40175 864.61206 L552.05634 851.43529 L560.24765 839.66652 L570.64032 829.78755 L582.80888 822.20283 L596.25514 817.22288 L610.4286 815.05159 L624.74902 815.77784 L638.6301 819.3719 L651.50355 825.68663 L662.84234 834.4635 L672.18225 845.3432 L679.14091 857.88029 L683.43342 871.56152 L684.88406 885.82677 M738.83316 921.25984 L737.38253 935.52509 L733.09002 949.20632 L726.13136 961.74342 L716.79145 972.62311 L705.45266 981.39999 L692.57921 987.71472 L678.69813 991.30878 L664.37771 992.03503 L650.20424 989.86373 L636.75799 984.88379 L624.58943 977.29907 L614.19676 967.4201 L606.00545 955.65132 L600.35085 942.47455 L597.46447 928.42925 L597.46447 914.09043 L600.35085 900.04513 L606.00545 886.86836 L614.19676 875.09959 L624.58943 865.22062 L636.75799 857.6359 L650.20424 852.65595 L664.37771 850.48466 L678.69813 851.21091 L692.57921 854.80497 L705.45266 861.1197 L716.79145 869.89657 L726.13136 880.77627 L733.09002 893.31336 L737.38253 906.99459 L738.83316 921.25984 M799.92446 956.69291 L798.47382 970.95816 L794.18131 984.63939 L787.22265 997.17649 L777.88274 1008.05618 L766.54395 1016.83306 L753.6705 1023.14779 L739.78942 1026.74185 L725.469 1027.4681 L711.29554 1025.2968 L697.84928 1020.31686 L685.68073 1012.73214 L675.28806 1002.85317 L667.09674 991.08439 L661.44215 977.90762 L658.55577 963.86232 L658.55577 949.5235 L661.44215 935.4782 L667.09674 922.30144 L675.28806 910.53266 L685.68073 900.65369 L697.84928 893.06897 L711.29554 888.08902 L725.469 885.91773 L739.78942 886.64398 L753.6705 890.23804 L766.54395 896.55277 L777.88274 905.32964 L787.22265 916.20934 L794.18131 928.74644 L798.47382 942.42766 L799.92446 956.69291 M860.06633 992.12598 L858.61569 1006.39123 L854.32318 1020.07246 L847.36452 1032.60956 L838.02461 1043.48925 L826.68582 1052.26613 L813.81237 1058.58086 L799.93129 1062.17492 L785.61087 1062.90117 L771.43741 1060.72987 L757.99115 1055.74993 L745.82259 1048.16521 L735.42992 1038.28624 L727.23861 1026.51746 L721.58402 1013.34069 L718.69763 999.29539 L718.69763 984.95658 L721.58402 970.91127 L727.23861 957.73451 L735.42992 945.96573 L745.82259 936.08676 L757.99115 928.50204 L771.43741 923.52209 L785.61087 921.3508 L799.93129 922.07705 L813.81237 925.67111 L826.68582 931.98584 L838.02461 940.76272 L847.36452 951.64241 L854.32318 964.17951 L858.61569 977.86073 L860.06633 992.12598 M909.98822 1027.55906 L908.53758 1041.8243 L904.24507 1055.50553 L897.28641 1068.04263 L887.9465 1078.92232 L876.60771 1087.6992 L863.73426 1094.01393 L849.85318 1097.60799 L835.53276 1098.33424 L821.3593 1096.16295 L807.91304 1091.183 L795.74448 1083.59828 L785.35181 1073.71931 L777.1605 1061.95053 L771.50591 1048.77376 L768.61952 1034.72846 L768.61952 1020.38965 L771.50591 1006.34435 L777.1605 993.16758 L785.35181 981.3988 L795.74448 971.51983 L807.91304 963.93511 L821.3593 958.95516 L835.53276 956.78387 L849.85318 957.51012 L863.73426 961.10418 L876.60771 967.41891 L887.9465 976.19579 L897.28641 987.07548 L904.24507 999.61258 L908.53758 1013.29381 L909.98822 1027.55906 M945.73539 1062.99213 L944.28475 1077.25738 L939.99224 1090.9386 L933.03358 1103.4757 L923.69367 1114.35539 L912.35488 1123.13227 L899.48143 1129.447 L885.60035 1133.04106 L871.27993 1133.76731 L857.10647 1131.59602 L843.66021 1126.61607 L831.49165 1119.03135 L821.09898 1109.15238 L812.90767 1097.3836 L807.25308 1084.20684 L804.36669 1070.16153 L804.36669 1055.82272 L807.25308 1041.77742 L812.90767 1028.60065 L821.09898 1016.83187 L831.49165 1006.9529 L843.66021 999.36818 L857.10647 994.38824 L871.27993 992.21694 L885.60035 992.94319 L899.48143 996.53725 L912.35488 1002.85198 L923.69367 1011.62886 L933.03358 1022.50855 L939.99224 1035.04565 L944.28475 1048.72688 L945.73539 1062.99213 M966.94375 1098.4252 L965.49311 1112.69045 L961.2006 1126.37167 L954.24194 1138.90877 L944.90203 1149.78847 L933.56324 1158.56534 L920.68979 1164.88007 L906.80871 1168.47413 L892.48829 1169.20038 L878.31483 1167.02909 L864.86857 1162.04914 L852.70001 1154.46442 L842.30734 1144.58545 L834.11603 1132.81667 L828.46144 1119.63991 L825.57505 1105.59461 L825.57505 1091.25579 L828.46144 1077.21049 L834.11603 1064.03372 L842.30734 1052.26494 L852.70001 1042.38597 L864.86857 1034.80125 L878.31483 1029.82131 L892.48829 1027.65001 L906.80871 1028.37626 L920.68979 1031.97032 L933.56324 1038.28505 L944.90203 1047.06193 L954.24194 1057.94162 L961.2006 1070.47872 L965.49311 1084.15995 L966.94375 1098.4252 M753.83858 389.76378 L752.38795 404.02903 L748.09544 417.71026 L741.13678 430.24735 L731.79687 441.12705 L720.45808 449.90392 L707.58462 456.21866 L693.70354 459.81272 L679.38313 460.53897 L665.20966 458.36767 L651.76341 453.38772 L639.59485 445.803 L629.20218 435.92403 L621.01087 424.15526 L615.35627 410.97849 L612.46989 396.93319 L612.46989 382.59437 L615.35627 368.54907 L621.01087 355.3723 L629.20218 343.60352 L639.59485 333.72455 L651.76341 326.13984 L665.20966 321.15989 L679.38313 318.98859 L693.70354 319.71484 L707.58462 323.3089 L720.45808 329.62364 L731.79687 338.40051 L741.13678 349.28021 L748.09544 361.8173 L752.38795 375.49853 L753.83858 389.76378 M731.4406 425.19685 L729.98996 439.4621 L725.69745 453.14333 L718.73879 465.68042 L709.39888 476.56012 L698.0601 485.33699 L685.18664 491.65173 L671.30556 495.24579 L656.98515 495.97204 L642.81168 493.80074 L629.36542 488.82079 L617.19687 481.23608 L606.8042 471.35711 L598.61289 459.58833 L592.95829 446.41156 L590.07191 432.36626 L590.07191 418.02744 L592.95829 403.98214 L598.61289 390.80537 L606.8042 379.0366 L617.19687 369.15762 L629.36542 361.57291 L642.81168 356.59296 L656.98515 354.42166 L671.30556 355.14791 L685.18664 358.74197 L698.0601 365.05671 L709.39888 373.83358 L718.73879 384.71328 L725.69745 397.25037 L729.98996 410.9316 L731.4406 425.19685 M700.82944 460.62992 L699.3788 474.89517 L695.08629 488.5764 L688.12763 501.1135 L678.78772 511.99319 L667.44893 520.77007 L654.57548 527.0848 L640.6944 530.67886 L626.37398 531.40511 L612.20052 529.23381 L598.75426 524.25387 L586.5857 516.66915 L576.19303 506.79018 L568.00172 495.0214 L562.34713 481.84463 L559.46074 467.79933 L559.46074 453.46051 L562.34713 439.41521 L568.00172 426.23844 L576.19303 414.46967 L586.5857 404.5907 L598.75426 397.00598 L612.20052 392.02603 L626.37398 389.85474 L640.6944 390.58098 L654.57548 394.17505 L667.44893 400.48978 L678.78772 409.26665 L688.12763 420.14635 L695.08629 432.68344 L699.3788 446.36467 L700.82944 460.62992 M664.65409 496.06299 L663.20345 510.32824 L658.91094 524.00947 L651.95228 536.54657 L642.61237 547.42626 L631.27358 556.20314 L618.40013 562.51787 L604.51905 566.11193 L590.19863 566.83818 L576.02517 564.66688 L562.57891 559.68694 L550.41036 552.10222 L540.01769 542.22325 L531.82637 530.45447 L526.17178 517.2777 L523.2854 503.2324 L523.2854 488.89358 L526.17178 474.84828 L531.82637 461.67151 L540.01769 449.90274 L550.41036 440.02377 L562.57891 432.43905 L576.02517 427.4591 L590.19863 425.28781 L604.51905 426.01406 L618.40013 429.60812 L631.27358 435.92285 L642.61237 444.69972 L651.95228 455.57942 L658.91094 468.11651 L663.20345 481.79774 L664.65409 496.06299 M629.50349 531.49606 L628.05285 545.76131 L623.76034 559.44254 L616.80168 571.97964 L607.46177 582.85933 L596.12298 591.63621 L583.24953 597.95094 L569.36845 601.545 L555.04803 602.27125 L540.87457 600.09995 L527.42831 595.12001 L515.25976 587.53529 L504.86708 577.65632 L496.67577 565.88754 L491.02118 552.71077 L488.13479 538.66547 L488.13479 524.32665 L491.02118 510.28135 L496.67577 497.10459 L504.86708 485.33581 L515.25976 475.45684 L527.42831 467.87212 L540.87457 462.89217 L555.04803 460.72088 L569.36845 461.44713 L583.24953 465.04119 L596.12298 471.35592 L607.46177 480.13279 L616.80168 491.01249 L623.76034 503.54959 L628.05285 517.23081 L629.50349 531.49606 M601.28341 566.92913 L599.83277 581.19438 L595.54026 594.87561 L588.5816 607.41271 L579.24169 618.2924 L567.9029 627.06928 L555.02945 633.38401 L541.14837 636.97807 L526.82795 637.70432 L512.65449 635.53302 L499.20823 630.55308 L487.03967 622.96836 L476.647 613.08939 L468.45569 601.32061 L462.8011 588.14384 L459.91471 574.09854 L459.91471 559.75973 L462.8011 545.71442 L468.45569 532.53766 L476.647 520.76888 L487.03967 510.88991 L499.20823 503.30519 L512.65449 498.32524 L526.82795 496.15395 L541.14837 496.8802 L555.02945 500.47426 L567.9029 506.78899 L579.24169 515.56587 L588.5816 526.44556 L595.54026 538.98266 L599.83277 552.66388 L601.28341 566.92913 M582.20915 602.3622 L580.75852 616.62745 L576.466 630.30868 L569.50735 642.84578 L560.16744 653.72547 L548.82865 662.50235 L535.95519 668.81708 L522.07411 672.41114 L507.7537 673.13739 L493.58023 670.9661 L480.13397 665.98615 L467.96542 658.40143 L457.57275 648.52246 L449.38144 636.75368 L443.72684 623.57691 L440.84046 609.53161 L440.84046 595.1928 L443.72684 581.1475 L449.38144 567.97073 L457.57275 556.20195 L467.96542 546.32298 L480.13397 538.73826 L493.58023 533.75831 L507.7537 531.58702 L522.07411 532.31327 L535.95519 535.90733 L548.82865 542.22206 L560.16744 550.99894 L569.50735 561.87863 L576.466 574.41573 L580.75852 588.09696 L582.20915 602.3622 M572.75326 637.79528 L571.30263 652.06053 L567.01011 665.74175 L560.05146 678.27885 L550.71155 689.15854 L539.37276 697.93542 L526.4993 704.25015 L512.61822 707.84421 L498.29781 708.57046 L484.12434 706.39917 L470.67808 701.41922 L458.50953 693.8345 L448.11686 683.95553 L439.92555 672.18675 L434.27095 659.00999 L431.38457 644.96468 L431.38457 630.62587 L434.27095 616.58057 L439.92555 603.4038 L448.11686 591.63502 L458.50953 581.75605 L470.67808 574.17133 L484.12434 569.19139 L498.29781 567.02009 L512.61822 567.74634 L526.4993 571.3404 L539.37276 577.65513 L550.71155 586.43201 L560.05146 597.3117 L567.01011 609.8488 L571.30263 623.53003 L572.75326 637.79528 M573.03857 673.22835 L571.58793 687.4936 L567.29542 701.17482 L560.33676 713.71192 L550.99685 724.59161 L539.65806 733.36849 L526.78461 739.68322 L512.90353 743.27728 L498.58312 744.00353 L484.40965 741.83224 L470.96339 736.85229 L458.79484 729.26757 L448.40217 719.3886 L440.21086 707.61982 L434.55626 694.44306 L431.66988 680.39776 L431.66988 666.05894 L434.55626 652.01364 L440.21086 638.83687 L448.40217 627.06809 L458.79484 617.18912 L470.96339 609.6044 L484.40965 604.62446 L498.58312 602.45316 L512.90353 603.17941 L526.78461 606.77347 L539.65806 613.0882 L550.99685 621.86508 L560.33676 632.74477 L567.29542 645.28187 L571.58793 658.9631 L573.03857 673.22835 M582.92779 708.66142 L581.47716 722.92667 L577.18464 736.6079 L570.22599 749.14499 L560.88608 760.02469 L549.54729 768.80156 L536.67383 775.11629 L522.79275 778.71035 L508.47234 779.4366 L494.29887 777.26531 L480.85262 772.28536 L468.68406 764.70064 L458.29139 754.82167 L450.10008 743.05289 L444.44548 729.87613 L441.5591 715.83083 L441.5591 701.49201 L444.44548 687.44671 L450.10008 674.26994 L458.29139 662.50116 L468.68406 652.62219 L480.85262 645.03747 L494.29887 640.05753 L508.47234 637.88623 L522.79275 638.61248 L536.67383 642.20654 L549.54729 648.52127 L560.88608 657.29815 L570.22599 668.17784 L577.18464 680.71494 L581.47716 694.39617 L582.92779 708.66142 M602.13045 744.09449 L600.67981 758.35974 L596.3873 772.04097 L589.42864 784.57806 L580.08873 795.45776 L568.74994 804.23463 L555.87649 810.54936 L541.99541 814.14342 L527.67499 814.86967 L513.50153 812.69838 L500.05527 807.71843 L487.88672 800.13371 L477.49404 790.25474 L469.30273 778.48597 L463.64814 765.3092 L460.76175 751.2639 L460.76175 736.92508 L463.64814 722.87978 L469.30273 709.70301 L477.49404 697.93423 L487.88672 688.05526 L500.05527 680.47054 L513.50153 675.4906 L527.67499 673.3193 L541.99541 674.04555 L555.87649 677.63961 L568.74994 683.95434 L580.08873 692.73122 L589.42864 703.61091 L596.3873 716.14801 L600.67981 729.82924 L602.13045 744.09449 M630.54917 779.52756 L629.09854 793.79281 L624.80602 807.47404 L617.84737 820.01113 L608.50745 830.89083 L597.16867 839.6677 L584.29521 845.98243 L570.41413 849.5765 L556.09372 850.30274 L541.92025 848.13145 L528.47399 843.1515 L516.30544 835.56678 L505.91277 825.68781 L497.72146 813.91904 L492.06686 800.74227 L489.18048 786.69697 L489.18048 772.35815 L492.06686 758.31285 L497.72146 745.13608 L505.91277 733.3673 L516.30544 723.48833 L528.47399 715.90362 L541.92025 710.92367 L556.09372 708.75237 L570.41413 709.47862 L584.29521 713.07268 L597.16867 719.38741 L608.50745 728.16429 L617.84737 739.04398 L624.80602 751.58108 L629.09854 765.26231 L630.54917 779.52756 M668.64437 814.96063 L667.19374 829.22588 L662.90123 842.90711 L655.94257 855.4442 L646.60266 866.3239 L635.26387 875.10077 L622.39042 881.41551 L608.50933 885.00957 L594.18892 885.73582 L580.01545 883.56452 L566.5692 878.58457 L554.40064 870.99986 L544.00797 861.12088 L535.81666 849.35211 L530.16206 836.17534 L527.27568 822.13004 L527.27568 807.79122 L530.16206 793.74592 L535.81666 780.56915 L544.00797 768.80038 L554.40064 758.9214 L566.5692 751.33669 L580.01545 746.35674 L594.18892 744.18544 L608.50933 744.91169 L622.39042 748.50575 L635.26387 754.82049 L646.60266 763.59736 L655.94257 774.47706 L662.90123 787.01415 L667.19374 800.69538 L668.64437 814.96063 M717.35869 850.3937 L715.90806 864.65895 L711.61554 878.34018 L704.65689 890.87728 L695.31698 901.75697 L683.97819 910.53385 L671.10473 916.84858 L657.22365 920.44264 L642.90324 921.16889 L628.72977 918.99759 L615.28352 914.01764 L603.11496 906.43293 L592.72229 896.55396 L584.53098 884.78518 L578.87638 871.60841 L575.99 857.56311 L575.99 843.22429 L578.87638 829.17899 L584.53098 816.00222 L592.72229 804.23345 L603.11496 794.35448 L615.28352 786.76976 L628.72977 781.78981 L642.90324 779.61852 L657.22365 780.34476 L671.10473 783.93883 L683.97819 790.25356 L695.31698 799.03043 L704.65689 809.91013 L711.61554 822.44722 L715.90806 836.12845 L717.35869 850.3937 M776.50894 885.82677 L775.05831 900.09202 L770.76579 913.77325 L763.80714 926.31035 L754.46723 937.19004 L743.12844 945.96692 L730.25498 952.28165 L716.3739 955.87571 L702.05349 956.60196 L687.88002 954.43066 L674.43377 949.45072 L662.26521 941.866 L651.87254 931.98703 L643.68123 920.21825 L638.02663 907.04148 L635.14025 892.99618 L635.14025 878.65736 L638.02663 864.61206 L643.68123 851.43529 L651.87254 839.66652 L662.26521 829.78755 L674.43377 822.20283 L687.88002 817.22288 L702.05349 815.05159 L716.3739 815.77784 L730.25498 819.3719 L743.12844 825.68663 L754.46723 834.4635 L763.80714 845.3432 L770.76579 857.88029 L775.05831 871.56152 L776.50894 885.82677 M840.46012 921.25984 L839.00949 935.52509 L834.71698 949.20632 L827.75832 961.74342 L818.41841 972.62311 L807.07962 981.39999 L794.20616 987.71472 L780.32508 991.30878 L766.00467 992.03503 L751.8312 989.86373 L738.38495 984.88379 L726.21639 977.29907 L715.82372 967.4201 L707.63241 955.65132 L701.97781 942.47455 L699.09143 928.42925 L699.09143 914.09043 L701.97781 900.04513 L707.63241 886.86836 L715.82372 875.09959 L726.21639 865.22062 L738.38495 857.6359 L751.8312 852.65595 L766.00467 850.48466 L780.32508 851.21091 L794.20616 854.80497 L807.07962 861.1197 L818.41841 869.89657 L827.75832 880.77627 L834.71698 893.31336 L839.00949 906.99459 L840.46012 921.25984 M897.84153 956.69291 L896.3909 970.95816 L892.09838 984.63939 L885.13973 997.17649 L875.79982 1008.05618 L864.46103 1016.83306 L851.58757 1023.14779 L837.70649 1026.74185 L823.38608 1027.4681 L809.21261 1025.2968 L795.76636 1020.31686 L783.5978 1012.73214 L773.20513 1002.85317 L765.01382 991.08439 L759.35922 977.90762 L756.47284 963.86232 L756.47284 949.5235 L759.35922 935.4782 L765.01382 922.30144 L773.20513 910.53266 L783.5978 900.65369 L795.76636 893.06897 L809.21261 888.08902 L823.38608 885.91773 L837.70649 886.64398 L851.58757 890.23804 L864.46103 896.55277 L875.79982 905.32964 L885.13973 916.20934 L892.09838 928.74644 L896.3909 942.42766 L897.84153 956.69291 M941.61211 992.12598 L940.16148 1006.39123 L935.86896 1020.07246 L928.91031 1032.60956 L919.5704 1043.48925 L908.23161 1052.26613 L895.35815 1058.58086 L881.47707 1062.17492 L867.15666 1062.90117 L852.98319 1060.72987 L839.53693 1055.74993 L827.36838 1048.16521 L816.97571 1038.28624 L808.7844 1026.51746 L803.1298 1013.34069 L800.24342 999.29539 L800.24342 984.95658 L803.1298 970.91127 L808.7844 957.73451 L816.97571 945.96573 L827.36838 936.08676 L839.53693 928.50204 L852.98319 923.52209 L867.15666 921.3508 L881.47707 922.07705 L895.35815 925.67111 L908.23161 931.98584 L919.5704 940.76272 L928.91031 951.64241 L935.86896 964.17951 L940.16148 977.86073 L941.61211 992.12598 M971.2125 1027.55906 L969.76186 1041.8243 L965.46935 1055.50553 L958.51069 1068.04263 L949.17078 1078.92232 L937.83199 1087.6992 L924.95854 1094.01393 L911.07746 1097.60799 L896.75705 1098.33424 L882.58358 1096.16295 L869.13732 1091.183 L856.96877 1083.59828 L846.5761 1073.71931 L838.38479 1061.95053 L832.73019 1048.77376 L829.84381 1034.72846 L829.84381 1020.38965 L832.73019 1006.34435 L838.38479 993.16758 L846.5761 981.3988 L856.96877 971.51983 L869.13732 963.93511 L882.58358 958.95516 L896.75705 956.78387 L911.07746 957.51012 L924.95854 961.10418 L937.83199 967.41891 L949.17078 976.19579 L958.51069 987.07548 L965.46935 999.61258 L969.76186 1013.29381 L971.2125 1027.55906 M987.60177 1062.99213 L986.15114 1077.25738 L981.85863 1090.9386 L974.89997 1103.4757 L965.56006 1114.35539 L954.22127 1123.13227 L941.34782 1129.447 L927.46673 1133.04106 L913.14632 1133.76731 L898.97285 1131.59602 L885.5266 1126.61607 L873.35804 1119.03135 L862.96537 1109.15238 L854.77406 1097.3836 L849.11946 1084.20684 L846.23308 1070.16153 L846.23308 1055.82272 L849.11946 1041.77742 L854.77406 1028.60065 L862.96537 1016.83187 L873.35804 1006.9529 L885.5266 999.36818 L898.97285 994.38824 L913.14632 992.21694 L927.46673 992.94319 L941.34782 996.53725 L954.22127 1002.85198 L965.56006 1011.62886 L974.89997 1022.50855 L981.85863 1035.04565 L986.15114 1048.72688 L987.60177 1062.99213 M993.58632 1098.4252 L992.13569 1112.69045 L987.84317 1126.37167 L980.88452 1138.90877 L971.54461 1149.78847 L960.20582 1158.56534 L947.33236 1164.88007 L933.45128 1168.47413 L919.13087 1169.20038 L904.9574 1167.02909 L891.51114 1162.04914 L879.34259 1154.46442 L868.94992 1144.58545 L860.75861 1132.81667 L855.10401 1119.63991 L852.21763 1105.59461 L852.21763 1091.25579 L855.10401 1077.21049 L860.75861 1064.03372 L868.94992 1052.26494 L879.34259 1042.38597 L891.51114 1034.80125 L904.9574 1029.82131 L919.13087 1027.65001 L933.45128 1028.37626 L947.33236 1031.97032 L960.20582 1038.28505 L971.54461 1047.06193 L980.88452 1057.94162 L987.84317 1070.47872 L992.13569 1084.15995 L993.58632 1098.4252 M895.57087 389.76378 L894.12023 404.02903 L889.82772 417.71026 L882.86906 430.24735 L873.52915 441.12705 L862.19036 449.90392 L849.31691 456.21866 L835.43583 459.81272 L821.11541 460.53897 L806.94195 458.36767 L793.49569 453.38772 L781.32714 445.803 L770.93446 435.92403 L762.74315 424.15526 L757.08856 410.97849 L754.20217 396.93319 L754.20217 382.59437 L757.08856 368.54907 L762.74315 355.3723 L770.93446 343.60352 L781.32714 333.72455 L793.49569 326.13984 L806.94195 321.15989 L821.11541 318.98859 L835.43583 319.71484 L849.31691 323.3089 L862.19036 329.62364 L873.52915 338.40051 L882.86906 349.28021 L889.82772 361.8173 L894.12023 375.49853 L895.57087 389.76378 M921.07022 425.19685 L919.61959 439.4621 L915.32707 453.14333 L908.36842 465.68042 L899.02851 476.56012 L887.68972 485.33699 L874.81626 491.65173 L860.93518 495.24579 L846.61477 495.97204 L832.4413 493.80074 L818.99505 488.82079 L806.82649 481.23608 L796.43382 471.35711 L788.24251 459.58833 L782.58791 446.41156 L779.70153 432.36626 L779.70153 418.02744 L782.58791 403.98214 L788.24251 390.80537 L796.43382 379.0366 L806.82649 369.15762 L818.99505 361.57291 L832.4413 356.59296 L846.61477 354.42166 L860.93518 355.14791 L874.81626 358.74197 L887.68972 365.05671 L899.02851 373.83358 L908.36842 384.71328 L915.32707 397.25037 L919.61959 410.9316 L921.07022 425.19685 M944.27532 460.62992 L942.82469 474.89517 L938.53217 488.5764 L931.57352 501.1135 L922.23361 511.99319 L910.89482 520.77007 L898.02136 527.0848 L884.14028 530.67886 L869.81987 531.40511 L855.6464 529.23381 L842.20015 524.25387 L830.03159 516.66915 L819.63892 506.79018 L811.44761 495.0214 L805.79301 481.84463 L802.90663 467.79933 L802.90663 453.46051 L805.79301 439.41521 L811.44761 426.23844 L819.63892 414.46967 L830.03159 404.5907 L842.20015 397.00598 L855.6464 392.02603 L869.81987 389.85474 L884.14028 390.58098 L898.02136 394.17505 L910.89482 400.48978 L922.23361 409.26665 L931.57352 420.14635 L938.53217 432.68344 L942.82469 446.36467 L944.27532 460.62992 M957.53352 496.06299 L956.08288 510.32824 L951.79037 524.00947 L944.83171 536.54657 L935.4918 547.42626 L924.15301 556.20314 L911.27956 562.51787 L897.39848 566.11193 L883.07806 566.83818 L868.9046 564.66688 L855.45834 559.68694 L843.28979 552.10222 L832.89711 542.22325 L824.7058 530.45447 L819.05121 517.2777 L816.16482 503.2324 L816.16482 488.89358 L819.05121 474.84828 L824.7058 461.67151 L832.89711 449.90274 L843.28979 440.02377 L855.45834 432.43905 L868.9046 427.4591 L883.07806 425.28781 L897.39848 426.01406 L911.27956 429.60812 L924.15301 435.92285 L935.4918 444.69972 L944.83171 455.57942 L951.79037 468.11651 L956.08288 481.79774 L957.53352 496.06299 M954.40597 531.49606 L952.95533 545.76131 L948.66282 559.44254 L941.70416 571.97964 L932.36425 582.85933 L921.02546 591.63621 L908.15201 597.95094 L894.27093 601.545 L879.95051 602.27125 L865.77705 600.09995 L852.33079 595.12001 L840.16224 587.53529 L829.76957 577.65632 L821.57825 565.88754 L815.92366 552.71077 L813.03728 538.66547 L813.03728 524.32665 L815.92366 510.28135 L821.57825 497.10459 L829.76957 485.33581 L840.16224 475.45684 L852.33079 467.87212 L865.77705 462.89217 L879.95051 460.72088 L894.27093 461.44713 L908.15201 465.04119 L921.02546 471.35592 L932.36425 480.13279 L941.70416 491.01249 L948.66282 503.54959 L952.95533 517.23081 L954.40597 531.49606 M931.61353 566.92913 L930.16289 581.19438 L925.87038 594.87561 L918.91172 607.41271 L909.57181 618.2924 L898.23302 627.06928 L885.35957 633.38401 L871.47849 636.97807 L857.15807 637.70432 L842.98461 635.53302 L829.53835 630.55308 L817.36979 622.96836 L806.97712 613.08939 L798.78581 601.32061 L793.13122 588.14384 L790.24483 574.09854 L790.24483 559.75973 L793.13122 545.71442 L798.78581 532.53766 L806.97712 520.76888 L817.36979 510.88991 L829.53835 503.30519 L842.98461 498.32524 L857.15807 496.15395 L871.47849 496.8802 L885.35957 500.47426 L898.23302 506.78899 L909.57181 515.56587 L918.91172 526.44556 L925.87038 538.98266 L930.16289 552.66388 L931.61353 566.92913 M891.98532 602.3622 L890.53468 616.62745 L886.24217 630.30868 L879.28351 642.84578 L869.9436 653.72547 L858.60481 662.50235 L845.73136 668.81708 L831.85028 672.41114 L817.52986 673.13739 L803.3564 670.9661 L789.91014 665.98615 L777.74159 658.40143 L767.34892 648.52246 L759.1576 636.75368 L753.50301 623.57691 L750.61663 609.53161 L750.61663 595.1928 L753.50301 581.1475 L759.1576 567.97073 L767.34892 556.20195 L777.74159 546.32298 L789.91014 538.73826 L803.3564 533.75831 L817.52986 531.58702 L831.85028 532.31327 L845.73136 535.90733 L858.60481 542.22206 L869.9436 550.99894 L879.28351 561.87863 L886.24217 574.41573 L890.53468 588.09696 L891.98532 602.3622 M848.26882 637.79528 L846.81819 652.06053 L842.52567 665.74175 L835.56702 678.27885 L826.22711 689.15854 L814.88832 697.93542 L802.01486 704.25015 L788.13378 707.84421 L773.81337 708.57046 L759.6399 706.39917 L746.19365 701.41922 L734.02509 693.8345 L723.63242 683.95553 L715.44111 672.18675 L709.78651 659.00999 L706.90013 644.96468 L706.90013 630.62587 L709.78651 616.58057 L715.44111 603.4038 L723.63242 591.63502 L734.02509 581.75605 L746.19365 574.17133 L759.6399 569.19139 L773.81337 567.02009 L788.13378 567.74634 L802.01486 571.3404 L814.88832 577.65513 L826.22711 586.43201 L835.56702 597.3117 L842.52567 609.8488 L846.81819 623.53003 L848.26882 637.79528 M817.06388 673.22835 L815.61325 687.4936 L811.32074 701.17482 L804.36208 713.71192 L795.02217 724.59161 L783.68338 733.36849 L770.80993 739.68322 L756.92885 743.27728 L742.60843 744.00353 L728.43497 741.83224 L714.98871 736.85229 L702.82015 729.26757 L692.42748 719.3886 L684.23617 707.61982 L678.58158 694.44306 L675.69519 680.39776 L675.69519 666.05894 L678.58158 652.01364 L684.23617 638.83687 L692.42748 627.06809 L702.82015 617.18912 L714.98871 609.6044 L728.43497 604.62446 L742.60843 602.45316 L756.92885 603.17941 L770.80993 606.77347 L783.68338 613.0882 L795.02217 621.86508 L804.36208 632.74477 L811.32074 645.28187 L815.61325 658.9631 L817.06388 673.22835 M804.50977 708.66142 L803.05913 722.92667 L798.76662 736.6079 L791.80796 749.14499 L782.46805 760.02469 L771.12926 768.80156 L758.25581 775.11629 L744.37473 778.71035 L730.05431 779.4366 L715.88085 777.26531 L702.43459 772.28536 L690.26603 764.70064 L679.87336 754.82167 L671.68205 743.05289 L666.02746 729.87613 L663.14107 715.83083 L663.14107 701.49201 L666.02746 687.44671 L671.68205 674.26994 L679.87336 662.50116 L690.26603 652.62219 L702.43459 645.03747 L715.88085 640.05753 L730.05431 637.88623 L744.37473 638.61248 L758.25581 642.20654 L771.12926 648.52127 L782.46805 657.29815 L791.80796 668.17784 L798.76662 680.71494 L803.05913 694.39617 L804.50977 708.66142 M808.18111 744.09449 L806.73048 758.35974 L802.43796 772.04097 L795.47931 784.57806 L786.1394 795.45776 L774.80061 804.23463 L761.92715 810.54936 L748.04607 814.14342 L733.72566 814.86967 L719.55219 812.69838 L706.10594 807.71843 L693.93738 800.13371 L683.54471 790.25474 L675.3534 778.48597 L669.6988 765.3092 L666.81242 751.2639 L666.81242 736.92508 L669.6988 722.87978 L675.3534 709.70301 L683.54471 697.93423 L693.93738 688.05526 L706.10594 680.47054 L719.55219 675.4906 L733.72566 673.3193 L748.04607 674.04555 L761.92715 677.63961 L774.80061 683.95434 L786.1394 692.73122 L795.47931 703.61091 L802.43796 716.14801 L806.73048 729.82924 L808.18111 744.09449 M824.38964 779.52756 L822.93901 793.79281 L818.64649 807.47404 L811.68784 820.01113 L802.34793 830.89083 L791.00914 839.6677 L778.13568 845.98243 L764.2546 849.5765 L749.93419 850.30274 L735.76072 848.13145 L722.31447 843.1515 L710.14591 835.56678 L699.75324 825.68781 L691.56193 813.91904 L685.90733 800.74227 L683.02095 786.69697 L683.02095 772.35815 L685.90733 758.31285 L691.56193 745.13608 L699.75324 733.3673 L710.14591 723.48833 L722.31447 715.90362 L735.76072 710.92367 L749.93419 708.75237 L764.2546 709.47862 L778.13568 713.07268 L791.00914 719.38741 L802.34793 728.16429 L811.68784 739.04398 L818.64649 751.58108 L822.93901 765.26231 L824.38964 779.52756 M849.51222 814.96063 L848.06159 829.22588 L843.76907 842.90711 L836.81042 855.4442 L827.47051 866.3239 L816.13172 875.10077 L803.25826 881.41551 L789.37718 885.00957 L775.05677 885.73582 L760.8833 883.56452 L747.43704 878.58457 L735.26849 870.99986 L724.87582 861.12088 L716.68451 849.35211 L711.02991 836.17534 L708.14353 822.13004 L708.14353 807.79122 L711.02991 793.74592 L716.68451 780.56915 L724.87582 768.80038 L735.26849 758.9214 L747.43704 751.33669 L760.8833 746.35674 L775.05677 744.18544 L789.37718 744.91169 L803.25826 748.50575 L816.13172 754.82049 L827.47051 763.59736 L836.81042 774.47706 L843.76907 787.01415 L848.06159 800.69538 L849.51222 814.96063 M879.62065 850.3937 L878.17002 864.65895 L873.87751 878.34018 L866.91885 890.87728 L857.57894 901.75697 L846.24015 910.53385 L833.36669 916.84858 L819.48561 920.44264 L805.1652 921.16889 L790.99173 918.99759 L777.54548 914.01764 L765.37692 906.43293 L754.98425 896.55396 L746.79294 884.78518 L741.13834 871.60841 L738.25196 857.56311 L738.25196 843.22429 L741.13834 829.17899 L746.79294 816.00222 L754.98425 804.23345 L765.37692 794.35448 L777.54548 786.76976 L790.99173 781.78981 L805.1652 779.61852 L819.48561 780.34476 L833.36669 783.93883 L846.24015 790.25356 L857.57894 799.03043 L866.91885 809.91013 L873.87751 822.44722 L878.17002 836.12845 L879.62065 850.3937 M910.9096 885.82677 L909.45897 900.09202 L905.16645 913.77325 L898.2078 926.31035 L888.86789 937.19004 L877.5291 945.96692 L864.65564 952.28165 L850.77456 955.87571 L836.45415 956.60196 L822.28068 954.43066 L808.83443 949.45072 L796.66587 941.866 L786.2732 931.98703 L778.08189 920.21825 L772.42729 907.04148 L769.54091 892.99618 L769.54091 878.65736 L772.42729 864.61206 L778.08189 851.43529 L786.2732 839.66652 L796.66587 829.78755 L808.83443 822.20283 L822.28068 817.22288 L836.45415 815.05159 L850.77456 815.77784 L864.65564 819.3719 L877.5291 825.68663 L888.86789 834.4635 L898.2078 845.3432 L905.16645 857.88029 L909.45897 871.56152 L910.9096 885.82677 M940.57602 921.25984 L939.12538 935.52509 L934.83287 949.20632 L927.87421 961.74342 L918.5343 972.62311 L907.19551 981.39999 L894.32206 987.71472 L880.44098 991.30878 L866.12056 992.03503 L851.9471 989.86373 L838.50084 984.88379 L826.33229 977.29907 L815.93961 967.4201 L807.7483 955.65132 L802.09371 942.47455 L799.20732 928.42925 L799.20732 914.09043 L802.09371 900.04513 L807.7483 886.86836 L815.93961 875.09959 L826.33229 865.22062 L838.50084 857.6359 L851.9471 852.65595 L866.12056 850.48466 L880.44098 851.21091 L894.32206 854.80497 L907.19551 861.1197 L918.5343 869.89657 L927.87421 880.77627 L934.83287 893.31336 L939.12538 906.99459 L940.57602 921.25984 M966.82603 956.69291 L965.3754 970.95816 L961.08288 984.63939 L954.12423 997.17649 L944.78432 1008.05618 L933.44553 1016.83306 L920.57207 1023.14779 L906.69099 1026.74185 L892.37058 1027.4681 L878.19711 1025.2968 L864.75085 1020.31686 L852.5823 1012.73214 L842.18963 1002.85317 L833.99832 991.08439 L828.34372 977.90762 L825.45734 963.86232 L825.45734 949.5235 L828.34372 935.4782 L833.99832 922.30144 L842.18963 910.53266 L852.5823 900.65369 L864.75085 893.06897 L878.19711 888.08902 L892.37058 885.91773 L906.69099 886.64398 L920.57207 890.23804 L933.44553 896.55277 L944.78432 905.32964 L954.12423 916.20934 L961.08288 928.74644 L965.3754 942.42766 L966.82603 956.69291 M987.56515 992.12598 L986.11452 1006.39123 L981.82201 1020.07246 L974.86335 1032.60956 L965.52344 1043.48925 L954.18465 1052.26613 L941.3112 1058.58086 L927.43011 1062.17492 L913.1097 1062.90117 L898.93623 1060.72987 L885.48998 1055.74993 L873.32142 1048.16521 L862.92875 1038.28624 L854.73744 1026.51746 L849.08284 1013.34069 L846.19646 999.29539 L846.19646 984.95658 L849.08284 970.91127 L854.73744 957.73451 L862.92875 945.96573 L873.32142 936.08676 L885.48998 928.50204 L898.93623 923.52209 L913.1097 921.3508 L927.43011 922.07705 L941.3112 925.67111 L954.18465 931.98584 L965.52344 940.76272 L974.86335 951.64241 L981.82201 964.17951 L986.11452 977.86073 L987.56515 992.12598 M1000.83691 1027.55906 L999.38627 1041.8243 L995.09376 1055.50553 L988.1351 1068.04263 L978.79519 1078.92232 L967.4564 1087.6992 L954.58295 1094.01393 L940.70187 1097.60799 L926.38145 1098.33424 L912.20799 1096.16295 L898.76173 1091.183 L886.59318 1083.59828 L876.2005 1073.71931 L868.00919 1061.95053 L862.3546 1048.77376 L859.46821 1034.72846 L859.46821 1020.38965 L862.3546 1006.34435 L868.00919 993.16758 L876.2005 981.3988 L886.59318 971.51983 L898.76173 963.93511 L912.20799 958.95516 L926.38145 956.78387 L940.70187 957.51012 L954.58295 961.10418 L967.4564 967.41891 L978.79519 976.19579 L988.1351 987.07548 L995.09376 999.61258 L999.38627 1013.29381 L1000.83691 1027.55906 M1006.15747 1062.99213 L1004.70684 1077.25738 L1000.41433 1090.9386 L993.45567 1103.4757 L984.11576 1114.35539 L972.77697 1123.13227 L959.90351 1129.447 L946.02243 1133.04106 L931.70202 1133.76731 L917.52855 1131.59602 L904.0823 1126.61607 L891.91374 1119.03135 L881.52107 1109.15238 L873.32976 1097.3836 L867.67516 1084.20684 L864.78878 1070.16153 L864.78878 1055.82272 L867.67516 1041.77742 L873.32976 1028.60065 L881.52107 1016.83187 L891.91374 1006.9529 L904.0823 999.36818 L917.52855 994.38824 L931.70202 992.21694 L946.02243 992.94319 L959.90351 996.53725 L972.77697 1002.85198 L984.11576 1011.62886 L993.45567 1022.50855 L1000.41433 1035.04565 L1004.70684 1048.72688 L1006.15747 1062.99213 M1004.92756 1098.4252 L1003.47693 1112.69045 L999.18441 1126.37167 L992.22576 1138.90877 L982.88585 1149.78847 L971.54706 1158.56534 L958.6736 1164.88007 L944.79252 1168.47413 L930.47211 1169.20038 L916.29864 1167.02909 L902.85238 1162.04914 L890.68383 1154.46442 L880.29116 1144.58545 L872.09985 1132.81667 L866.44525 1119.63991 L863.55887 1105.59461 L863.55887 1091.25579 L866.44525 1077.21049 L872.09985 1064.03372 L880.29116 1052.26494 L890.68383 1042.38597 L902.85238 1034.80125 L916.29864 1029.82131 L930.47211 1027.65001 L944.79252 1028.37626 L958.6736 1031.97032 L971.54706 1038.28505 L982.88585 1047.06193 L992.22576 1057.94162 L999.18441 1070.47872 L1003.47693 1084.15995 L1004.92756 1098.4252" fill="none" stroke="black" stroke-width="0.03cm" />
    </g>
</svg>