<?xml version="1.0" standalone="no"?>
  <!DOCTYPE svg PUBLIC "-//W3C//DTD SVG 1.1//EN" 
      "http://www.w3.org/Graphics/SVG/1.1/DTD/svg11.dtd">
  <svg width="29.7cm" height="42cm"
      xmlns="http://www.w3.org/2000/svg" version="1.1" viewBox="0 0 1052.3622 1488.18898">
    <g>
      <path d="M242.71654 389.76378 L241.2659 404.02903 L236.97339 417.71026 L230.01473 430.24735 L220.67482 441.12705 L209.33603 449.90392 L196.46258 456.21866 L182.5815 459.81272 L168.26108 460.53897 L154.08762 458.36767 L140.64136 453.38772 L128.4728 445.803 L118.08013 435.92403 L109.88882 424.15526 L104.23423 410.97849 L101.34784 396.93319 L101.34784 382.59437 L104.23423 368.54907 L109.88882 355.3723 L118.08013 343.60352 L128.4728 333.72455 L140.64136 326.13984 L154.08762 321.15989 L168.26108 318.98859 L182.5815 319.71484 L196.46258 323.3089 L209.33603 329.62364 L220.67482 338.40051 L230.01473 349.28021 L236.97339 361.8173 L241.2659 375.49853 L242.71654 389.76378 M288.57289 413.27482 L287.12226 427.54007 L282.82974 441.2213 L275.87109 453.7584 L266.53118 464.63809 L255.19239 473.41497 L242.31893 479.7297 L228.43785 483.32376 L214.11744 484.05001 L199.94397 481.87871 L186.49772 476.89877 L174.32916 469.31405 L163.93649 459.43508 L155.74518 447.6663 L150.09058 434.48953 L147.2042 420.44423 L147.2042 406.10541 L150.09058 392.06011 L155.74518 378.88335 L163.93649 367.11457 L174.32916 357.2356 L186.49772 349.65088 L199.94397 344.67093 L214.11744 342.49964 L228.43785 343.22589 L242.31893 346.81995 L255.19239 353.13468 L266.53118 361.91156 L275.87109 372.79125 L282.82974 385.32835 L287.12226 399.00957 L288.57289 413.27482 M330.41358 436.6902 L328.96294 450.95545 L324.67043 464.63668 L317.71178 477.17378 L308.37186 488.05347 L297.03308 496.83035 L284.15962 503.14508 L270.27854 506.73914 L255.95813 507.46539 L241.78466 505.2941 L228.3384 500.31415 L216.16985 492.72943 L205.77718 482.85046 L197.58587 471.08168 L191.93127 457.90491 L189.04489 443.85961 L189.04489 429.5208 L191.93127 415.4755 L197.58587 402.29873 L205.77718 390.52995 L216.16985 380.65098 L228.3384 373.06626 L241.78466 368.08631 L255.95813 365.91502 L270.27854 366.64127 L284.15962 370.23533 L297.03308 376.55006 L308.37186 385.32694 L317.71178 396.20663 L324.67043 408.74373 L328.96294 422.42496 L330.41358 436.6902 M361.68232 455.32676 L360.23168 469.59201 L355.93917 483.27324 L348.98051 495.81033 L339.6406 506.69003 L328.30181 515.4669 L315.42836 521.78164 L301.54728 525.3757 L287.22686 526.10195 L273.0534 523.93065 L259.60714 518.9507 L247.43859 511.36599 L237.04592 501.48702 L228.8546 489.71824 L223.20001 476.54147 L220.31363 462.49617 L220.31363 448.15735 L223.20001 434.11205 L228.8546 420.93528 L237.04592 409.16651 L247.43859 399.28753 L259.60714 391.70282 L273.0534 386.72287 L287.22686 384.55157 L301.54728 385.27782 L315.42836 388.87188 L328.30181 395.18662 L339.6406 403.96349 L348.98051 414.84319 L355.93917 427.38028 L360.23168 441.06151 L361.68232 455.32676 M381.62529 467.53843 L380.17466 481.80368 L375.88215 495.4849 L368.92349 508.022 L359.58358 518.9017 L348.24479 527.67857 L335.37134 533.9933 L321.49026 537.58736 L307.16984 538.31361 L292.99638 536.14232 L279.55012 531.16237 L267.38156 523.57765 L256.98889 513.69868 L248.79758 501.9299 L243.14299 488.75314 L240.2566 474.70784 L240.2566 460.36902 L243.14299 446.32372 L248.79758 433.14695 L256.98889 421.37817 L267.38156 411.4992 L279.55012 403.91448 L292.99638 398.93454 L307.16984 396.76324 L321.49026 397.48949 L335.37134 401.08355 L348.24479 407.39828 L359.58358 416.17516 L368.92349 427.05485 L375.88215 439.59195 L380.17466 453.27318 L381.62529 467.53843 M393.12981 474.62309 L391.67918 488.88834 L387.38667 502.56957 L380.42801 515.10666 L371.0881 525.98636 L359.74931 534.76323 L346.87585 541.07796 L332.99477 544.67202 L318.67436 545.39827 L304.50089 543.22698 L291.05464 538.24703 L278.88608 530.66231 L268.49341 520.78334 L260.3021 509.01457 L254.6475 495.8378 L251.76112 481.7925 L251.76112 467.45368 L254.6475 453.40838 L260.3021 440.23161 L268.49341 428.46283 L278.88608 418.58386 L291.05464 410.99914 L304.50089 406.0192 L318.67436 403.8479 L332.99477 404.57415 L346.87585 408.16821 L359.74931 414.48294 L371.0881 423.25982 L380.42801 434.13951 L387.38667 446.67661 L391.67918 460.35784 L393.12981 474.62309 M399.41243 478.48832 L397.9618 492.75357 L393.66928 506.4348 L386.71063 518.97189 L377.37072 529.85159 L366.03193 538.62846 L353.15847 544.94319 L339.27739 548.53725 L324.95698 549.2635 L310.78351 547.09221 L297.33726 542.11226 L285.1687 534.52754 L274.77603 524.64857 L266.58472 512.8798 L260.93012 499.70303 L258.04374 485.65773 L258.04374 471.31891 L260.93012 457.27361 L266.58472 444.09684 L274.77603 432.32806 L285.1687 422.44909 L297.33726 414.86437 L310.78351 409.88443 L324.95698 407.71313 L339.27739 408.43938 L353.15847 412.03344 L366.03193 418.34817 L377.37072 427.12505 L386.71063 438.00474 L393.66928 450.54184 L397.9618 464.22307 L399.41243 478.48832 M402.74997 480.53802 L401.29934 494.80327 L397.00682 508.4845 L390.04817 521.0216 L380.70825 531.90129 L369.36947 540.67817 L356.49601 546.9929 L342.61493 550.58696 L328.29452 551.31321 L314.12105 549.14191 L300.67479 544.16197 L288.50624 536.57725 L278.11357 526.69828 L269.92226 514.9295 L264.26766 501.75273 L261.38128 487.70743 L261.38128 473.36861 L264.26766 459.32331 L269.92226 446.14655 L278.11357 434.37777 L288.50624 424.4988 L300.67479 416.91408 L314.12105 411.93413 L328.29452 409.76284 L342.61493 410.48909 L356.49601 414.08315 L369.36947 420.39788 L380.70825 429.17476 L390.04817 440.05445 L397.00682 452.59155 L401.29934 466.27277 L402.74997 480.53802 M404.49909 481.61085 L403.04846 495.8761 L398.75594 509.55732 L391.79729 522.09442 L382.45738 532.97411 L371.11859 541.75099 L358.24513 548.06572 L344.36405 551.65978 L330.04364 552.38603 L315.87017 550.21474 L302.42391 545.23479 L290.25536 537.65007 L279.86269 527.7711 L271.67138 516.00232 L266.01678 502.82556 L263.1304 488.78025 L263.1304 474.44144 L266.01678 460.39614 L271.67138 447.21937 L279.86269 435.45059 L290.25536 425.57162 L302.42391 417.9869 L315.87017 413.00696 L330.04364 410.83566 L344.36405 411.56191 L358.24513 415.15597 L371.11859 421.4707 L382.45738 430.24758 L391.79729 441.12727 L398.75594 453.66437 L403.04846 467.3456 L404.49909 481.61085 M405.40963 482.1689 L403.95899 496.43415 L399.66648 510.11537 L392.70783 522.65247 L383.36791 533.53216 L372.02913 542.30904 L359.15567 548.62377 L345.27459 552.21783 L330.95418 552.94408 L316.78071 550.77279 L303.33445 545.79284 L291.1659 538.20812 L280.77323 528.32915 L272.58192 516.56037 L266.92732 503.38361 L264.04094 489.33831 L264.04094 474.99949 L266.92732 460.95419 L272.58192 447.77742 L280.77323 436.00864 L291.1659 426.12967 L303.33445 418.54495 L316.78071 413.56501 L330.95418 411.39371 L345.27459 412.11996 L359.15567 415.71402 L372.02913 422.02875 L383.36791 430.80563 L392.70783 441.68532 L399.66648 454.22242 L403.95899 467.90365 L405.40963 482.1689 M405.88203 482.4583 L404.4314 496.72355 L400.13888 510.40478 L393.18023 522.94187 L383.84032 533.82157 L372.50153 542.59844 L359.62807 548.91318 L345.74699 552.50724 L331.42658 553.23349 L317.25311 551.06219 L303.80685 546.08224 L291.6383 538.49753 L281.24563 528.61855 L273.05432 516.84978 L267.39972 503.67301 L264.51334 489.62771 L264.51334 475.28889 L267.39972 461.24359 L273.05432 448.06682 L281.24563 436.29804 L291.6383 426.41907 L303.80685 418.83436 L317.25311 413.85441 L331.42658 411.68311 L345.74699 412.40936 L359.62807 416.00342 L372.50153 422.31816 L383.84032 431.09503 L393.18023 441.97473 L400.13888 454.51182 L404.4314 468.19305 L405.88203 482.4583 M406.1267 482.60816 L404.67607 496.87341 L400.38355 510.55463 L393.4249 523.09173 L384.08499 533.97142 L372.7462 542.7483 L359.87274 549.06303 L345.99166 552.65709 L331.67125 553.38334 L317.49778 551.21205 L304.05152 546.2321 L291.88297 538.64738 L281.4903 528.76841 L273.29899 516.99963 L267.64439 503.82287 L264.75801 489.77756 L264.75801 475.43875 L267.64439 461.39345 L273.29899 448.21668 L281.4903 436.4479 L291.88297 426.56893 L304.05152 418.98421 L317.49778 414.00427 L331.67125 411.83297 L345.99166 412.55922 L359.87274 416.15328 L372.7462 422.46801 L384.08499 431.24489 L393.4249 442.12458 L400.38355 454.66168 L404.67607 468.34291 L406.1267 482.60816 M406.25331 482.68569 L404.80268 496.95094 L400.51016 510.63217 L393.55151 523.16927 L384.2116 534.04896 L372.87281 542.82584 L359.99935 549.14057 L346.11827 552.73463 L331.79786 553.46088 L317.62439 551.28958 L304.17813 546.30964 L292.00958 538.72492 L281.61691 528.84595 L273.4256 517.07717 L267.771 503.9004 L264.88462 489.8551 L264.88462 475.51628 L267.771 461.47098 L273.4256 448.29422 L281.61691 436.52544 L292.00958 426.64647 L304.17813 419.06175 L317.62439 414.0818 L331.79786 411.91051 L346.11827 412.63676 L359.99935 416.23082 L372.87281 422.54555 L384.2116 431.32242 L393.55151 442.20212 L400.51016 454.73922 L404.80268 468.42044 L406.25331 482.68569 M406.3188 482.7258 L404.86816 496.99105 L400.57565 510.67227 L393.617 523.20937 L384.27708 534.08906 L372.9383 542.86594 L360.06484 549.18067 L346.18376 552.77473 L331.86335 553.50098 L317.68988 551.32969 L304.24362 546.34974 L292.07507 538.76502 L281.6824 528.88605 L273.49109 517.11727 L267.83649 503.94051 L264.95011 489.8952 L264.95011 475.55639 L267.83649 461.51109 L273.49109 448.33432 L281.6824 436.56554 L292.07507 426.68657 L304.24362 419.10185 L317.68988 414.12191 L331.86335 411.95061 L346.18376 412.67686 L360.06484 416.27092 L372.9383 422.58565 L384.27708 431.36253 L393.617 442.24222 L400.57565 454.77932 L404.86816 468.46055 L406.3188 482.7258 M406.35266 482.74653 L404.90203 497.01178 L400.60952 510.69301 L393.65086 523.23011 L384.31095 534.1098 L372.97216 542.88668 L360.09871 549.20141 L346.21762 552.79547 L331.89721 553.52172 L317.72374 551.35042 L304.27749 546.37048 L292.10893 538.78576 L281.71626 528.90679 L273.52495 517.13801 L267.87035 503.96124 L264.98397 489.91594 L264.98397 475.57712 L267.87035 461.53182 L273.52495 448.35506 L281.71626 436.58628 L292.10893 426.70731 L304.27749 419.12259 L317.72374 414.14264 L331.89721 411.97135 L346.21762 412.6976 L360.09871 416.29166 L372.97216 422.60639 L384.31095 431.38326 L393.65086 442.26296 L400.60952 454.80006 L404.90203 468.48128 L406.35266 482.74653 M406.37017 482.75726 L404.91954 497.0225 L400.62703 510.70373 L393.66837 523.24083 L384.32846 534.12052 L372.98967 542.8974 L360.11622 549.21213 L346.23513 552.80619 L331.91472 553.53244 L317.74125 551.36115 L304.295 546.3812 L292.12644 538.79648 L281.73377 528.91751 L273.54246 517.14873 L267.88786 503.97196 L265.00148 489.92666 L265.00148 475.58785 L267.88786 461.54255 L273.54246 448.36578 L281.73377 436.597 L292.12644 426.71803 L304.295 419.13331 L317.74125 414.15337 L331.91472 411.98207 L346.23513 412.70832 L360.11622 416.30238 L372.98967 422.61711 L384.32846 431.39399 L393.66837 442.27368 L400.62703 454.81078 L404.91954 468.49201 L406.37017 482.75726 M406.37923 482.7628 L404.92859 497.02805 L400.63608 510.70928 L393.67742 523.24637 L384.33751 534.12607 L372.99872 542.90294 L360.12527 549.21767 L346.24419 552.81174 L331.92377 553.53798 L317.75031 551.36669 L304.30405 546.38674 L292.1355 538.80202 L281.74282 528.92305 L273.55151 517.15428 L267.89692 503.97751 L265.01053 489.93221 L265.01053 475.59339 L267.89692 461.54809 L273.55151 448.37132 L281.74282 436.60254 L292.1355 426.72357 L304.30405 419.13886 L317.75031 414.15891 L331.92377 411.98761 L346.24419 412.71386 L360.12527 416.30792 L372.99872 422.62265 L384.33751 431.39953 L393.67742 442.27922 L400.63608 454.81632 L404.92859 468.49755 L406.37923 482.7628 M406.38391 482.76567 L404.93327 497.03091 L400.64076 510.71214 L393.6821 523.24924 L384.34219 534.12893 L373.0034 542.90581 L360.12995 549.22054 L346.24887 552.8146 L331.92845 553.54085 L317.75499 551.36956 L304.30873 546.38961 L292.14018 538.80489 L281.74751 528.92592 L273.55619 517.15714 L267.9016 503.98037 L265.01522 489.93507 L265.01522 475.59626 L267.9016 461.55096 L273.55619 448.37419 L281.74751 436.60541 L292.14018 426.72644 L304.30873 419.14172 L317.75499 414.16177 L331.92845 411.99048 L346.24887 412.71673 L360.12995 416.31079 L373.0034 422.62552 L384.34219 431.4024 L393.6821 442.28209 L400.64076 454.81919 L404.93327 468.50042 L406.38391 482.76567 M406.38633 482.76715 L404.93569 497.0324 L400.64318 510.71362 L393.68452 523.25072 L384.34461 534.13042 L373.00582 542.90729 L360.13237 549.22202 L346.25129 552.81608 L331.93087 553.54233 L317.75741 551.37104 L304.31115 546.39109 L292.1426 538.80637 L281.74993 528.9274 L273.55861 517.15862 L267.90402 503.98186 L265.01764 489.93656 L265.01764 475.59774 L267.90402 461.55244 L273.55861 448.37567 L281.74993 436.60689 L292.1426 426.72792 L304.31115 419.1432 L317.75741 414.16326 L331.93087 411.99196 L346.25129 412.71821 L360.13237 416.31227 L373.00582 422.627 L384.34461 431.40388 L393.68452 442.28357 L400.64318 454.82067 L404.93569 468.5019 L406.38633 482.76715 M406.38758 482.76791 L404.93694 497.03316 L400.64443 510.71439 L393.68578 523.25149 L384.34586 534.13118 L373.00708 542.90806 L360.13362 549.22279 L346.25254 552.81685 L331.93213 553.5431 L317.75866 551.3718 L304.3124 546.39186 L292.14385 538.80714 L281.75118 528.92817 L273.55987 517.15939 L267.90527 503.98262 L265.01889 489.93732 L265.01889 475.5985 L267.90527 461.5532 L273.55987 448.37644 L281.75118 436.60766 L292.14385 426.72869 L304.3124 419.14397 L317.75866 414.16402 L331.93213 411.99273 L346.25254 412.71898 L360.13362 416.31304 L373.00708 422.62777 L384.34586 431.40464 L393.68578 442.28434 L400.64443 454.82144 L404.93694 468.50266 L406.38758 482.76791 M406.38823 482.76831 L404.93759 497.03356 L400.64508 510.71479 L393.68642 523.25188 L384.34651 534.13158 L373.00772 542.90845 L360.13427 549.22318 L346.25319 552.81725 L331.93277 553.54349 L317.75931 551.3722 L304.31305 546.39225 L292.14449 538.80753 L281.75182 528.92856 L273.56051 517.15979 L267.90592 503.98302 L265.01953 489.93772 L265.01953 475.5989 L267.90592 461.5536 L273.56051 448.37683 L281.75182 436.60805 L292.14449 426.72908 L304.31305 419.14437 L317.75931 414.16442 L331.93277 411.99312 L346.25319 412.71937 L360.13427 416.31343 L373.00772 422.62816 L384.34651 431.40504 L393.68642 442.28473 L400.64508 454.82183 L404.93759 468.50306 L406.38823 482.76831 M384.44882 389.76378 L382.99818 404.02903 L378.70567 417.71026 L371.74702 430.24735 L362.4071 441.12705 L351.06832 449.90392 L338.19486 456.21866 L324.31378 459.81272 L309.99337 460.53897 L295.8199 458.36767 L282.37364 453.38772 L270.20509 445.803 L259.81242 435.92403 L251.62111 424.15526 L245.96651 410.97849 L243.08013 396.93319 L243.08013 382.59437 L245.96651 368.54907 L251.62111 355.3723 L259.81242 343.60352 L270.20509 333.72455 L282.37364 326.13984 L295.8199 321.15989 L309.99337 318.98859 L324.31378 319.71484 L338.19486 323.3089 L351.06832 329.62364 L362.4071 338.40051 L371.74702 349.28021 L378.70567 361.8173 L382.99818 375.49853 L384.44882 389.76378 M419.68227 411.31067 L418.23164 425.57592 L413.93913 439.25715 L406.98047 451.79425 L397.64056 462.67394 L386.30177 471.45082 L373.42832 477.76555 L359.54724 481.35961 L345.22682 482.08586 L331.05335 479.91456 L317.6071 474.93461 L305.43854 467.3499 L295.04587 457.47093 L286.85456 445.70215 L281.19996 432.52538 L278.31358 418.48008 L278.31358 404.14126 L281.19996 390.09596 L286.85456 376.91919 L295.04587 365.15042 L305.43854 355.27145 L317.6071 347.68673 L331.05335 342.70678 L345.22682 340.53549 L359.54724 341.26173 L373.42832 344.8558 L386.30177 351.17053 L397.64056 359.9474 L406.98047 370.8271 L413.93913 383.36419 L418.23164 397.04542 L419.68227 411.31067 M438.67155 423.31151 L437.22092 437.57676 L432.9284 451.25799 L425.96975 463.79509 L416.62984 474.67478 L405.29105 483.45166 L392.41759 489.76639 L378.53651 493.36045 L364.2161 494.0867 L350.04263 491.91541 L336.59638 486.93546 L324.42782 479.35074 L314.03515 469.47177 L305.84384 457.70299 L300.18924 444.52622 L297.30286 430.48092 L297.30286 416.14211 L300.18924 402.09681 L305.84384 388.92004 L314.03515 377.15126 L324.42782 367.27229 L336.59638 359.68757 L350.04263 354.70762 L364.2161 352.53633 L378.53651 353.26258 L392.41759 356.85664 L405.29105 363.17137 L416.62984 371.94825 L425.96975 382.82794 L432.9284 395.36504 L437.22092 409.04627 L438.67155 423.31151 M447.72769 429.07722 L446.27706 443.34246 L441.98454 457.02369 L435.02589 469.56079 L425.68598 480.44048 L414.34719 489.21736 L401.47373 495.53209 L387.59265 499.12615 L373.27224 499.8524 L359.09877 497.68111 L345.65251 492.70116 L333.48396 485.11644 L323.09129 475.23747 L314.89998 463.46869 L309.24538 450.29192 L306.359 436.24662 L306.359 421.90781 L309.24538 407.86251 L314.89998 394.68574 L323.09129 382.91696 L333.48396 373.03799 L345.65251 365.45327 L359.09877 360.47332 L373.27224 358.30203 L387.59265 359.02828 L401.47373 362.62234 L414.34719 368.93707 L425.68598 377.71395 L435.02589 388.59364 L441.98454 401.13074 L446.27706 414.81197 L447.72769 429.07722 M451.8727 431.71799 L450.42207 445.98324 L446.12956 459.66447 L439.1709 472.20156 L429.83099 483.08126 L418.4922 491.85813 L405.61875 498.17286 L391.73766 501.76693 L377.41725 502.49317 L363.24378 500.32188 L349.79753 495.34193 L337.62897 487.75721 L327.2363 477.87824 L319.04499 466.10947 L313.39039 452.9327 L310.50401 438.8874 L310.50401 424.54858 L313.39039 410.50328 L319.04499 397.32651 L327.2363 385.55773 L337.62897 375.67876 L349.79753 368.09405 L363.24378 363.1141 L377.41725 360.9428 L391.73766 361.66905 L405.61875 365.26311 L418.4922 371.57784 L429.83099 380.35472 L439.1709 391.23441 L446.12956 403.77151 L450.42207 417.45274 L451.8727 431.71799 M453.74548 432.91076 L452.29485 447.17601 L448.00233 460.85724 L441.04368 473.39433 L431.70377 484.27403 L420.36498 493.0509 L407.49152 499.36563 L393.61044 502.95969 L379.29003 503.68594 L365.11656 501.51465 L351.6703 496.5347 L339.50175 488.94998 L329.10908 479.07101 L320.91777 467.30224 L315.26317 454.12547 L312.37679 440.08017 L312.37679 425.74135 L315.26317 411.69605 L320.91777 398.51928 L329.10908 386.7505 L339.50175 376.87153 L351.6703 369.28681 L365.11656 364.30687 L379.29003 362.13557 L393.61044 362.86182 L407.49152 366.45588 L420.36498 372.77061 L431.70377 381.54749 L441.04368 392.42718 L448.00233 404.96428 L452.29485 418.64551 L453.74548 432.91076 M454.58787 433.44713 L453.13724 447.71238 L448.84473 461.39361 L441.88607 473.93071 L432.54616 484.8104 L421.20737 493.58728 L408.33391 499.90201 L394.45283 503.49607 L380.13242 504.22232 L365.95895 502.05102 L352.5127 497.07108 L340.34414 489.48636 L329.95147 479.60739 L321.76016 467.83861 L316.10556 454.66184 L313.21918 440.61654 L313.21918 426.27772 L316.10556 412.23242 L321.76016 399.05565 L329.95147 387.28688 L340.34414 377.40791 L352.5127 369.82319 L365.95895 364.84324 L380.13242 362.67195 L394.45283 363.3982 L408.33391 366.99226 L421.20737 373.30699 L432.54616 382.08386 L441.88607 392.96356 L448.84473 405.50065 L453.13724 419.18188 L454.58787 433.44713 M454.96614 433.68795 L453.51551 447.9532 L449.223 461.63443 L442.26434 474.17153 L432.92443 485.05122 L421.58564 493.8281 L408.71219 500.14283 L394.83111 503.73689 L380.51069 504.46314 L366.33722 502.29184 L352.89097 497.3119 L340.72241 489.72718 L330.32974 479.84821 L322.13843 468.07943 L316.48383 454.90266 L313.59745 440.85736 L313.59745 426.51854 L316.48383 412.47324 L322.13843 399.29648 L330.32974 387.5277 L340.72241 377.64873 L352.89097 370.06401 L366.33722 365.08406 L380.51069 362.91277 L394.83111 363.63902 L408.71219 367.23308 L421.58564 373.54781 L432.92443 382.32468 L442.26434 393.20438 L449.223 405.74148 L453.51551 419.4227 L454.96614 433.68795 M455.13589 433.79601 L453.68525 448.06126 L449.39274 461.74249 L442.43408 474.27958 L433.09417 485.15928 L421.75538 493.93615 L408.88193 500.25088 L395.00085 503.84495 L380.68043 504.57119 L366.50697 502.3999 L353.06071 497.41995 L340.89216 489.83523 L330.49948 479.95626 L322.30817 468.18749 L316.65358 455.01072 L313.76719 440.96542 L313.76719 426.6266 L316.65358 412.5813 L322.30817 399.40453 L330.49948 387.63575 L340.89216 377.75678 L353.06071 370.17206 L366.50697 365.19212 L380.68043 363.02082 L395.00085 363.74707 L408.88193 367.34113 L421.75538 373.65586 L433.09417 382.43274 L442.43408 393.31243 L449.39274 405.84953 L453.68525 419.53076 L455.13589 433.79601 M455.21203 433.84448 L453.7614 448.10973 L449.46888 461.79096 L442.51023 474.32805 L433.17032 485.20775 L421.83153 493.98462 L408.95807 500.29936 L395.07699 503.89342 L380.75658 504.61967 L366.58311 502.44837 L353.13686 497.46842 L340.9683 489.88371 L330.57563 480.00473 L322.38432 468.23596 L316.72972 455.05919 L313.84334 441.01389 L313.84334 426.67507 L316.72972 412.62977 L322.38432 399.453 L330.57563 387.68423 L340.9683 377.80525 L353.13686 370.22054 L366.58311 365.24059 L380.75658 363.06929 L395.07699 363.79554 L408.95807 367.3896 L421.83153 373.70434 L433.17032 382.48121 L442.51023 393.36091 L449.46888 405.898 L453.7614 419.57923 L455.21203 433.84448 M455.24619 433.86622 L453.79555 448.13147 L449.50304 461.8127 L442.54438 474.3498 L433.20447 485.22949 L421.86568 494.00637 L408.99223 500.3211 L395.11115 503.91516 L380.79073 504.64141 L366.61727 502.47011 L353.17101 497.49016 L341.00245 489.90545 L330.60978 480.02648 L322.41847 468.2577 L316.76388 455.08093 L313.87749 441.03563 L313.87749 426.69681 L316.76388 412.65151 L322.41847 399.47474 L330.60978 387.70597 L341.00245 377.827 L353.17101 370.24228 L366.61727 365.26233 L380.79073 363.09104 L395.11115 363.81728 L408.99223 367.41135 L421.86568 373.72608 L433.20447 382.50295 L442.54438 393.38265 L449.50304 405.91974 L453.79555 419.60097 L455.24619 433.86622 M455.2615 433.87597 L453.81087 448.14122 L449.51836 461.82245 L442.5597 474.35955 L433.21979 485.23924 L421.881 494.01612 L409.00754 500.33085 L395.12646 503.92491 L380.80605 504.65116 L366.63258 502.47986 L353.18633 497.49992 L341.01777 489.9152 L330.6251 480.03623 L322.43379 468.26745 L316.77919 455.09068 L313.89281 441.04538 L313.89281 426.70656 L316.77919 412.66126 L322.43379 399.48449 L330.6251 387.71572 L341.01777 377.83675 L353.18633 370.25203 L366.63258 365.27208 L380.80605 363.10079 L395.12646 363.82704 L409.00754 367.4211 L421.881 373.73583 L433.21979 382.5127 L442.5597 393.3924 L449.51836 405.92949 L453.81087 419.61072 L455.2615 433.87597 M455.26837 433.88035 L453.81774 448.14559 L449.52523 461.82682 L442.56657 474.36392 L433.22666 485.24361 L421.88787 494.02049 L409.01442 500.33522 L395.13333 503.92928 L380.81292 504.65553 L366.63945 502.48424 L353.1932 497.50429 L341.02464 489.91957 L330.63197 480.0406 L322.44066 468.27182 L316.78606 455.09505 L313.89968 441.04975 L313.89968 426.71094 L316.78606 412.66564 L322.44066 399.48887 L330.63197 387.72009 L341.02464 377.84112 L353.1932 370.2564 L366.63945 365.27645 L380.81292 363.10516 L395.13333 363.83141 L409.01442 367.42547 L421.88787 373.7402 L433.22666 382.51708 L442.56657 393.39677 L449.52523 405.93387 L453.81774 419.6151 L455.26837 433.88035 M455.27145 433.88231 L453.82082 448.14756 L449.52831 461.82878 L442.56965 474.36588 L433.22974 485.24557 L421.89095 494.02245 L409.0175 500.33718 L395.13642 503.93124 L380.816 504.65749 L366.64254 502.4862 L353.19628 497.50625 L341.02772 489.92153 L330.63505 480.04256 L322.44374 468.27378 L316.78915 455.09702 L313.90276 441.05172 L313.90276 426.7129 L316.78915 412.6676 L322.44374 399.49083 L330.63505 387.72205 L341.02772 377.84308 L353.19628 370.25836 L366.64254 365.27842 L380.816 363.10712 L395.13642 363.83337 L409.0175 367.42743 L421.89095 373.74216 L433.22974 382.51904 L442.56965 393.39873 L449.52831 405.93583 L453.82082 419.61706 L455.27145 433.88231 M455.27284 433.88319 L453.8222 448.14844 L449.52969 461.82966 L442.57103 474.36676 L433.23112 485.24645 L421.89233 494.02333 L409.01888 500.33806 L395.1378 503.93212 L380.81738 504.65837 L366.64392 502.48708 L353.19766 497.50713 L341.02911 489.92241 L330.63643 480.04344 L322.44512 468.27466 L316.79053 455.0979 L313.90414 441.05259 L313.90414 426.71378 L316.79053 412.66848 L322.44512 399.49171 L330.63643 387.72293 L341.02911 377.84396 L353.19766 370.25924 L366.64392 365.2793 L380.81738 363.108 L395.1378 363.83425 L409.01888 367.42831 L421.89233 373.74304 L433.23112 382.51992 L442.57103 393.39961 L449.52969 405.93671 L453.8222 419.61794 L455.27284 433.88319 M455.27346 433.88358 L453.82282 448.14883 L449.53031 461.83006 L442.57165 474.36715 L433.23174 485.24685 L421.89295 494.02372 L409.0195 500.33846 L395.13842 503.93252 L380.818 504.65877 L366.64454 502.48747 L353.19828 497.50752 L341.02973 489.92281 L330.63705 480.04384 L322.44574 468.27506 L316.79115 455.09829 L313.90476 441.05299 L313.90476 426.71417 L316.79115 412.66887 L322.44574 399.4921 L330.63705 387.72333 L341.02973 377.84436 L353.19828 370.25964 L366.64454 365.27969 L380.818 363.1084 L395.13842 363.83464 L409.0195 367.42871 L421.89295 373.74344 L433.23174 382.52031 L442.57165 393.40001 L449.53031 405.9371 L453.82282 419.61833 L455.27346 433.88358 M455.27373 433.88376 L453.8231 448.14901 L449.53059 461.83024 L442.57193 474.36733 L433.23202 485.24703 L421.89323 494.0239 L409.01978 500.33863 L395.13869 503.93269 L380.81828 504.65894 L366.64481 502.48765 L353.19856 497.5077 L341.03 489.92298 L330.63733 480.04401 L322.44602 468.27524 L316.79142 455.09847 L313.90504 441.05317 L313.90504 426.71435 L316.79142 412.66905 L322.44602 399.49228 L330.63733 387.7235 L341.03 377.84453 L353.19856 370.25981 L366.64481 365.27987 L380.81828 363.10857 L395.13869 363.83482 L409.01978 367.42888 L421.89323 373.74361 L433.23202 382.52049 L442.57193 393.40018 L449.53059 405.93728 L453.8231 419.61851 L455.27373 433.88376 M455.27386 433.88384 L453.82322 448.14909 L449.53071 461.83031 L442.57206 474.36741 L433.23214 485.24711 L421.89336 494.02398 L409.0199 500.33871 L395.13882 503.93277 L380.81841 504.65902 L366.64494 502.48773 L353.19868 497.50778 L341.03013 489.92306 L330.63746 480.04409 L322.44615 468.27531 L316.79155 455.09855 L313.90517 441.05325 L313.90517 426.71443 L316.79155 412.66913 L322.44615 399.49236 L330.63746 387.72358 L341.03013 377.84461 L353.19868 370.25989 L366.64494 365.27995 L380.81841 363.10865 L395.13882 363.8349 L409.0199 367.42896 L421.89336 373.74369 L433.23214 382.52057 L442.57206 393.40026 L449.53071 405.93736 L453.82322 419.61859 L455.27386 433.88384 M455.27391 433.88387 L453.82328 448.14912 L449.53077 461.83035 L442.57211 474.36745 L433.2322 485.24714 L421.89341 494.02402 L409.01996 500.33875 L395.13888 503.93281 L380.81846 504.65906 L366.645 502.48776 L353.19874 497.50782 L341.03018 489.9231 L330.63751 480.04413 L322.4462 468.27535 L316.79161 455.09858 L313.90522 441.05328 L313.90522 426.71446 L316.79161 412.66916 L322.4462 399.49239 L330.63751 387.72362 L341.03018 377.84465 L353.19874 370.25993 L366.645 365.27998 L380.81846 363.10869 L395.13888 363.83494 L409.01996 367.429 L421.89341 373.74373 L433.2322 382.5206 L442.57211 393.4003 L449.53077 405.93739 L453.82328 419.61862 L455.27391 433.88387 M455.27394 433.88389 L453.82331 448.14914 L449.53079 461.83037 L442.57214 474.36746 L433.23223 485.24716 L421.89344 494.02403 L409.01998 500.33876 L395.1389 503.93282 L380.81849 504.65907 L366.64502 502.48778 L353.19876 497.50783 L341.03021 489.92311 L330.63754 480.04414 L322.44623 468.27537 L316.79163 455.0986 L313.90525 441.0533 L313.90525 426.71448 L316.79163 412.66918 L322.44623 399.49241 L330.63754 387.72363 L341.03021 377.84466 L353.19876 370.25994 L366.64502 365.28 L380.81849 363.1087 L395.1389 363.83495 L409.01998 367.42901 L421.89344 373.74374 L433.23223 382.52062 L442.57214 393.40031 L449.53079 405.93741 L453.82331 419.61864 L455.27394 433.88389 M455.27395 433.8839 L453.82332 448.14915 L449.5308 461.83037 L442.57215 474.36747 L433.23224 485.24716 L421.89345 494.02404 L409.01999 500.33877 L395.13891 503.93283 L380.8185 504.65908 L366.64503 502.48779 L353.19878 497.50784 L341.03022 489.92312 L330.63755 480.04415 L322.44624 468.27537 L316.79164 455.09861 L313.90526 441.0533 L313.90526 426.71449 L316.79164 412.66919 L322.44624 399.49242 L330.63755 387.72364 L341.03022 377.84467 L353.19878 370.25995 L366.64503 365.28001 L380.8185 363.10871 L395.13891 363.83496 L409.01999 367.42902 L421.89345 373.74375 L433.23224 382.52063 L442.57215 393.40032 L449.5308 405.93742 L453.82332 419.61865 L455.27395 433.8839 M526.1811 389.76378 L524.73047 404.02903 L520.43796 417.71026 L513.4793 430.24735 L504.13939 441.12705 L492.8006 449.90392 L479.92714 456.21866 L466.04606 459.81272 L451.72565 460.53897 L437.55218 458.36767 L424.10593 453.38772 L411.93737 445.803 L401.5447 435.92403 L393.35339 424.15526 L387.69879 410.97849 L384.81241 396.93319 L384.81241 382.59437 L387.69879 368.54907 L393.35339 355.3723 L401.5447 343.60352 L411.93737 333.72455 L424.10593 326.13984 L437.55218 321.15989 L451.72565 318.98859 L466.04606 319.71484 L479.92714 323.3089 L492.8006 329.62364 L504.13939 338.40051 L513.4793 349.28021 L520.43796 361.8173 L524.73047 375.49853 L526.1811 389.76378 M517.32443 384.13467 L515.87379 398.39992 L511.58128 412.08115 L504.62262 424.61825 L495.28271 435.49794 L483.94392 444.27482 L471.07047 450.58955 L457.18939 454.18361 L442.86897 454.90986 L428.69551 452.73856 L415.24925 447.75862 L403.0807 440.1739 L392.68802 430.29493 L384.49671 418.52615 L378.84212 405.34938 L375.95573 391.30408 L375.95573 376.96526 L378.84212 362.91996 L384.49671 349.7432 L392.68802 337.97442 L403.0807 328.09545 L415.24925 320.51073 L428.69551 315.53078 L442.86897 313.35949 L457.18939 314.08574 L471.07047 317.6798 L483.94392 323.99453 L495.28271 332.7714 L504.62262 343.6511 L511.58128 356.18819 L515.87379 369.86942 L517.32443 384.13467 M513.22626 381.52923 L511.77563 395.79448 L507.48312 409.47571 L500.52446 422.01281 L491.18455 432.8925 L479.84576 441.66938 L466.97231 447.98411 L453.09122 451.57817 L438.77081 452.30442 L424.59734 450.13312 L411.15109 445.15318 L398.98253 437.56846 L388.58986 427.68949 L380.39855 415.92071 L374.74395 402.74394 L371.85757 388.69864 L371.85757 374.35982 L374.74395 360.31452 L380.39855 347.13776 L388.58986 335.36898 L398.98253 325.49001 L411.15109 317.90529 L424.59734 312.92534 L438.77081 310.75405 L453.09122 311.4803 L466.97231 315.07436 L479.84576 321.38909 L491.18455 330.16597 L500.52446 341.04566 L507.48312 353.58276 L511.77563 367.26398 L513.22626 381.52923 M511.35598 380.34074 L509.90534 394.60599 L505.61283 408.28722 L498.65417 420.82432 L489.31426 431.70401 L477.97547 440.48089 L465.10202 446.79562 L451.22094 450.38968 L436.90052 451.11593 L422.72706 448.94463 L409.2808 443.96469 L397.11225 436.37997 L386.71957 426.501 L378.52826 414.73222 L372.87367 401.55545 L369.98729 387.51015 L369.98729 373.17133 L372.87367 359.12603 L378.52826 345.94926 L386.71957 334.18049 L397.11225 324.30152 L409.2808 316.7168 L422.72706 311.73685 L436.90052 309.56556 L451.22094 310.29181 L465.10202 313.88587 L477.97547 320.2006 L489.31426 328.97747 L498.65417 339.85717 L505.61283 352.39426 L509.90534 366.07549 L511.35598 380.34074 M510.50667 379.80123 L509.05604 394.06648 L504.76352 407.7477 L497.80487 420.2848 L488.46496 431.1645 L477.12617 439.94137 L464.25271 446.2561 L450.37163 449.85016 L436.05122 450.57641 L421.87775 448.40512 L408.4315 443.42517 L396.26294 435.84045 L385.87027 425.96148 L377.67896 414.1927 L372.02436 401.01594 L369.13798 386.97064 L369.13798 372.63182 L372.02436 358.58652 L377.67896 345.40975 L385.87027 333.64097 L396.26294 323.762 L408.4315 316.17728 L421.87775 311.19734 L436.05122 309.02604 L450.37163 309.75229 L464.25271 313.34635 L477.12617 319.66108 L488.46496 328.43796 L497.80487 339.31765 L504.76352 351.85475 L509.05604 365.53598 L510.50667 379.80123 M510.12176 379.55676 L508.67112 393.82201 L504.37861 407.50324 L497.41995 420.04033 L488.08004 430.92003 L476.74125 439.6969 L463.8678 446.01163 L449.98672 449.60569 L435.66631 450.33194 L421.49284 448.16065 L408.04658 443.1807 L395.87803 435.59598 L385.48536 425.71701 L377.29405 413.94824 L371.63945 400.77147 L368.75307 386.72617 L368.75307 372.38735 L371.63945 358.34205 L377.29405 345.16528 L385.48536 333.3965 L395.87803 323.51753 L408.04658 315.93281 L421.49284 310.95287 L435.66631 308.78157 L449.98672 309.50782 L463.8678 313.10188 L476.74125 319.41661 L488.08004 328.19349 L497.41995 339.07318 L504.37861 351.61028 L508.67112 365.29151 L510.12176 379.55676 M509.94746 379.44606 L508.49682 393.71131 L504.20431 407.39254 L497.24565 419.92964 L487.90574 430.80933 L476.56695 439.58621 L463.6935 445.90094 L449.81242 449.495 L435.492 450.22125 L421.31854 448.04995 L407.87228 443.07001 L395.70373 435.48529 L385.31105 425.60632 L377.11974 413.83754 L371.46515 400.66077 L368.57876 386.61547 L368.57876 372.27665 L371.46515 358.23135 L377.11974 345.05459 L385.31105 333.28581 L395.70373 323.40684 L407.87228 315.82212 L421.31854 310.84217 L435.492 308.67088 L449.81242 309.39713 L463.6935 312.99119 L476.56695 319.30592 L487.90574 328.0828 L497.24565 338.96249 L504.20431 351.49959 L508.49682 365.18081 L509.94746 379.44606 M509.86856 379.39596 L508.41792 393.66121 L504.12541 407.34244 L497.16675 419.87953 L487.82684 430.75923 L476.48805 439.5361 L463.6146 445.85083 L449.73352 449.44489 L435.4131 450.17114 L421.23964 447.99985 L407.79338 443.0199 L395.62483 435.43518 L385.23215 425.55621 L377.04084 413.78744 L371.38625 400.61067 L368.49986 386.56537 L368.49986 372.22655 L371.38625 358.18125 L377.04084 345.00448 L385.23215 333.2357 L395.62483 323.35673 L407.79338 315.77201 L421.23964 310.79207 L435.4131 308.62077 L449.73352 309.34702 L463.6146 312.94108 L476.48805 319.25581 L487.82684 328.03269 L497.16675 338.91238 L504.12541 351.44948 L508.41792 365.13071 L509.86856 379.39596 M509.83285 379.37328 L508.38221 393.63853 L504.0897 407.31976 L497.13104 419.85686 L487.79113 430.73655 L476.45234 439.51343 L463.57889 445.82816 L449.69781 449.42222 L435.37739 450.14847 L421.20393 447.97717 L407.75767 442.99722 L395.58912 435.41251 L385.19644 425.53354 L377.00513 413.76476 L371.35054 400.58799 L368.46415 386.54269 L368.46415 372.20387 L371.35054 358.15857 L377.00513 344.9818 L385.19644 333.21303 L395.58912 323.33406 L407.75767 315.74934 L421.20393 310.76939 L435.37739 308.5981 L449.69781 309.32434 L463.57889 312.91841 L476.45234 319.23314 L487.79113 328.01001 L497.13104 338.88971 L504.0897 351.4268 L508.38221 365.10803 L509.83285 379.37328 M509.81669 379.36302 L508.36605 393.62827 L504.07354 407.3095 L497.11488 419.84659 L487.77497 430.72629 L476.43618 439.50316 L463.56273 445.81789 L449.68165 449.41195 L435.36123 450.1382 L421.18777 447.96691 L407.74151 442.98696 L395.57295 435.40224 L385.18028 425.52327 L376.98897 413.7545 L371.33438 400.57773 L368.44799 386.53243 L368.44799 372.19361 L371.33438 358.14831 L376.98897 344.97154 L385.18028 333.20276 L395.57295 323.32379 L407.74151 315.73907 L421.18777 310.75913 L435.36123 308.58783 L449.68165 309.31408 L463.56273 312.90814 L476.43618 319.22287 L487.77497 327.99975 L497.11488 338.87944 L504.07354 351.41654 L508.36605 365.09777 L509.81669 379.36302 M509.80937 379.35837 L508.35874 393.62362 L504.06622 407.30485 L497.10757 419.84195 L487.76766 430.72164 L476.42887 439.49852 L463.55541 445.81325 L449.67433 449.40731 L435.35392 450.13356 L421.18045 447.96226 L407.7342 442.98232 L395.56564 435.3976 L385.17297 425.51863 L376.98166 413.74985 L371.32706 400.57308 L368.44068 386.52778 L368.44068 372.18897 L371.32706 358.14366 L376.98166 344.9669 L385.17297 333.19812 L395.56564 323.31915 L407.7342 315.73443 L421.18045 310.75448 L435.35392 308.58319 L449.67433 309.30944 L463.55541 312.9035 L476.42887 319.21823 L487.76766 327.99511 L497.10757 338.8748 L504.06622 351.4119 L508.35874 365.09312 L509.80937 379.35837 M509.80606 379.35627 L508.35543 393.62152 L504.06292 407.30275 L497.10426 419.83985 L487.76435 430.71954 L476.42556 439.49642 L463.5521 445.81115 L449.67102 449.40521 L435.35061 450.13146 L421.17714 447.96016 L407.73089 442.98022 L395.56233 435.3955 L385.16966 425.51653 L376.97835 413.74775 L371.32375 400.57098 L368.43737 386.52568 L368.43737 372.18686 L371.32375 358.14156 L376.97835 344.96479 L385.16966 333.19602 L395.56233 323.31705 L407.73089 315.73233 L421.17714 310.75238 L435.35061 308.58109 L449.67102 309.30734 L463.5521 312.9014 L476.42556 319.21613 L487.76435 327.993 L497.10426 338.8727 L504.06292 351.40979 L508.35543 365.09102 L509.80606 379.35627 M509.80456 379.35532 L508.35393 393.62057 L504.06142 407.3018 L497.10276 419.8389 L487.76285 430.71859 L476.42406 439.49547 L463.55061 445.8102 L449.66953 449.40426 L435.34911 450.13051 L421.17565 447.95921 L407.72939 442.97927 L395.56083 435.39455 L385.16816 425.51558 L376.97685 413.7468 L371.32226 400.57003 L368.43587 386.52473 L368.43587 372.18591 L371.32226 358.14061 L376.97685 344.96384 L385.16816 333.19507 L395.56083 323.3161 L407.72939 315.73138 L421.17565 310.75143 L435.34911 308.58014 L449.66953 309.30638 L463.55061 312.90045 L476.42406 319.21518 L487.76285 327.99205 L497.10276 338.87175 L504.06142 351.40884 L508.35393 365.09007 L509.80456 379.35532 M509.80389 379.35489 L508.35325 393.62014 L504.06074 407.30137 L497.10208 419.83847 L487.76217 430.71816 L476.42338 439.49504 L463.54993 445.80977 L449.66885 449.40383 L435.34843 450.13008 L421.17497 447.95878 L407.72871 442.97883 L395.56016 435.39412 L385.16748 425.51515 L376.97617 413.74637 L371.32158 400.5696 L368.43519 386.5243 L368.43519 372.18548 L371.32158 358.14018 L376.97617 344.96341 L385.16748 333.19464 L395.56016 323.31567 L407.72871 315.73095 L421.17497 310.751 L435.34843 308.57971 L449.66885 309.30595 L463.54993 312.90002 L476.42338 319.21475 L487.76217 327.99162 L497.10208 338.87132 L504.06074 351.40841 L508.35325 365.08964 L509.80389 379.35489 M509.80358 379.3547 L508.35295 393.61995 L504.06043 407.30117 L497.10178 419.83827 L487.76187 430.71796 L476.42308 439.49484 L463.54962 445.80957 L449.66854 449.40363 L435.34813 450.12988 L421.17466 447.95859 L407.7284 442.97864 L395.55985 435.39392 L385.16718 425.51495 L376.97587 413.74617 L371.32127 400.56941 L368.43489 386.5241 L368.43489 372.18529 L371.32127 358.13999 L376.97587 344.96322 L385.16718 333.19444 L395.55985 323.31547 L407.7284 315.73075 L421.17466 310.75081 L435.34813 308.57951 L449.66854 309.30576 L463.54962 312.89982 L476.42308 319.21455 L487.76187 327.99143 L497.10178 338.87112 L504.06043 351.40822 L508.35295 365.08945 L509.80358 379.3547 M509.80344 379.35461 L508.35281 393.61986 L504.06029 407.30109 L497.10164 419.83818 L487.76173 430.71788 L476.42294 439.49475 L463.54948 445.80948 L449.6684 449.40354 L435.34799 450.12979 L421.17452 447.9585 L407.72827 442.97855 L395.55971 435.39383 L385.16704 425.51486 L376.97573 413.74609 L371.32113 400.56932 L368.43475 386.52402 L368.43475 372.1852 L371.32113 358.1399 L376.97573 344.96313 L385.16704 333.19435 L395.55971 323.31538 L407.72827 315.73066 L421.17452 310.75072 L435.34799 308.57942 L449.6684 309.30567 L463.54948 312.89973 L476.42294 319.21446 L487.76173 327.99134 L497.10164 338.87103 L504.06029 351.40813 L508.35281 365.08936 L509.80344 379.35461 M509.80338 379.35457 L508.35274 393.61982 L504.06023 407.30105 L497.10158 419.83814 L487.76166 430.71784 L476.42288 439.49471 L463.54942 445.80944 L449.66834 449.4035 L435.34793 450.12975 L421.17446 447.95846 L407.7282 442.97851 L395.55965 435.39379 L385.16698 425.51482 L376.97567 413.74605 L371.32107 400.56928 L368.43469 386.52398 L368.43469 372.18516 L371.32107 358.13986 L376.97567 344.96309 L385.16698 333.19431 L395.55965 323.31534 L407.7282 315.73062 L421.17446 310.75068 L435.34793 308.57938 L449.66834 309.30563 L463.54942 312.89969 L476.42288 319.21442 L487.76166 327.9913 L497.10158 338.87099 L504.06023 351.40809 L508.35274 365.08932 L509.80338 379.35457 M509.80335 379.35455 L508.35272 393.6198 L504.0602 407.30103 L497.10155 419.83812 L487.76164 430.71782 L476.42285 439.49469 L463.54939 445.80943 L449.66831 449.40349 L435.3479 450.12974 L421.17443 447.95844 L407.72817 442.97849 L395.55962 435.39378 L385.16695 425.5148 L376.97564 413.74603 L371.32104 400.56926 L368.43466 386.52396 L368.43466 372.18514 L371.32104 358.13984 L376.97564 344.96307 L385.16695 333.1943 L395.55962 323.31532 L407.72817 315.73061 L421.17443 310.75066 L435.3479 308.57936 L449.66831 309.30561 L463.54939 312.89967 L476.42285 319.21441 L487.76164 327.99128 L497.10155 338.87098 L504.0602 351.40807 L508.35272 365.0893 L509.80335 379.35455 M509.80334 379.35454 L508.3527 393.61979 L504.06019 407.30102 L497.10153 419.83812 L487.76162 430.71781 L476.42283 439.49469 L463.54938 445.80942 L449.6683 449.40348 L435.34788 450.12973 L421.17442 447.95843 L407.72816 442.97849 L395.55961 435.39377 L385.16693 425.5148 L376.97562 413.74602 L371.32103 400.56925 L368.43465 386.52395 L368.43465 372.18513 L371.32103 358.13983 L376.97562 344.96306 L385.16693 333.19429 L395.55961 323.31532 L407.72816 315.7306 L421.17442 310.75065 L435.34788 308.57936 L449.6683 309.30561 L463.54938 312.89967 L476.42283 319.2144 L487.76162 327.99127 L497.10153 338.87097 L504.06019 351.40806 L508.3527 365.08929 L509.80334 379.35454 M509.80333 379.35454 L508.3527 393.61979 L504.06018 407.30102 L497.10153 419.83811 L487.76162 430.71781 L476.42283 439.49468 L463.54937 445.80941 L449.66829 449.40347 L435.34788 450.12972 L421.17441 447.95843 L407.72816 442.97848 L395.5596 435.39376 L385.16693 425.51479 L376.97562 413.74602 L371.32102 400.56925 L368.43464 386.52395 L368.43464 372.18513 L371.32102 358.13983 L376.97562 344.96306 L385.16693 333.19428 L395.5596 323.31531 L407.72816 315.73059 L421.17441 310.75065 L435.34788 308.57935 L449.66829 309.3056 L463.54937 312.89966 L476.42283 319.21439 L487.76162 327.99127 L497.10153 338.87096 L504.06018 351.40806 L508.3527 365.08929 L509.80333 379.35454 M509.80333 379.35454 L508.35269 393.61979 L504.06018 407.30101 L497.10153 419.83811 L487.76161 430.7178 L476.42283 439.49468 L463.54937 445.80941 L449.66829 449.40347 L435.34788 450.12972 L421.17441 447.95843 L407.72815 442.97848 L395.5596 435.39376 L385.16693 425.51479 L376.97562 413.74601 L371.32102 400.56925 L368.43464 386.52395 L368.43464 372.18513 L371.32102 358.13983 L376.97562 344.96306 L385.16693 333.19428 L395.5596 323.31531 L407.72815 315.73059 L421.17441 310.75065 L435.34788 308.57935 L449.66829 309.3056 L463.54937 312.89966 L476.42283 319.21439 L487.76161 327.99127 L497.10153 338.87096 L504.06018 351.40806 L508.35269 365.08929 L509.80333 379.35454 M667.91339 389.76378 L666.46275 404.02903 L662.17024 417.71026 L655.21158 430.24735 L645.87167 441.12705 L634.53288 449.90392 L621.65943 456.21866 L607.77835 459.81272 L593.45793 460.53897 L579.28447 458.36767 L565.83821 453.38772 L553.66965 445.803 L543.27698 435.92403 L535.08567 424.15526 L529.43108 410.97849 L526.54469 396.93319 L526.54469 382.59437 L529.43108 368.54907 L535.08567 355.3723 L543.27698 343.60352 L553.66965 333.72455 L565.83821 326.13984 L579.28447 321.15989 L593.45793 318.98859 L607.77835 319.71484 L621.65943 323.3089 L634.53288 329.62364 L645.87167 338.40051 L655.21158 349.28021 L662.17024 361.8173 L666.46275 375.49853 L667.91339 389.76378 M632.36743 369.17613 L630.91679 383.44138 L626.62428 397.12261 L619.66562 409.65971 L610.32571 420.5394 L598.98692 429.31628 L586.11347 435.63101 L572.23239 439.22507 L557.91197 439.95132 L543.73851 437.78002 L530.29225 432.80008 L518.1237 425.21536 L507.73102 415.33639 L499.53971 403.56761 L493.88512 390.39084 L490.99873 376.34554 L490.99873 362.00673 L493.88512 347.96142 L499.53971 334.78466 L507.73102 323.01588 L518.1237 313.13691 L530.29225 305.55219 L543.73851 300.57224 L557.91197 298.40095 L572.23239 299.1272 L586.11347 302.72126 L598.98692 309.03599 L610.32571 317.81287 L619.66562 328.69256 L626.62428 341.22966 L630.91679 354.91089 L632.36743 369.17613 M605.06917 352.78156 L603.61854 367.04681 L599.32603 380.72804 L592.36737 393.26513 L583.02746 404.14483 L571.68867 412.9217 L558.81522 419.23643 L544.93413 422.83049 L530.61372 423.55674 L516.44025 421.38545 L502.994 416.4055 L490.82544 408.82078 L480.43277 398.94181 L472.24146 387.17304 L466.58686 373.99627 L463.70048 359.95097 L463.70048 345.61215 L466.58686 331.56685 L472.24146 318.39008 L480.43277 306.6213 L490.82544 296.74233 L502.994 289.15761 L516.44025 284.17767 L530.61372 282.00637 L544.93413 282.73262 L558.81522 286.32668 L571.68867 292.64141 L583.02746 301.41829 L592.36737 312.29798 L599.32603 324.83508 L603.61854 338.51631 L605.06917 352.78156 M586.94191 341.73341 L585.49127 355.99866 L581.19876 369.67988 L574.2401 382.21698 L564.90019 393.09667 L553.5614 401.87355 L540.68795 408.18828 L526.80687 411.78234 L512.48645 412.50859 L498.31299 410.3373 L484.86673 405.35735 L472.69818 397.77263 L462.30551 387.89366 L454.11419 376.12488 L448.4596 362.94812 L445.57322 348.90281 L445.57322 334.564 L448.4596 320.5187 L454.11419 307.34193 L462.30551 295.57315 L472.69818 285.69418 L484.86673 278.10946 L498.31299 273.12952 L512.48645 270.95822 L526.80687 271.68447 L540.68795 275.27853 L553.5614 281.59326 L564.90019 290.37014 L574.2401 301.24983 L581.19876 313.78693 L585.49127 327.46816 L586.94191 341.73341 M576.0404 335.07629 L574.58977 349.34154 L570.29725 363.02277 L563.3386 375.55986 L553.99869 386.43956 L542.6599 395.21643 L529.78644 401.53116 L515.90536 405.12522 L501.58495 405.85147 L487.41148 403.68018 L473.96523 398.70023 L461.79667 391.11551 L451.404 381.23654 L443.21269 369.46777 L437.55809 356.291 L434.67171 342.2457 L434.67171 327.90688 L437.55809 313.86158 L443.21269 300.68481 L451.404 288.91603 L461.79667 279.03706 L473.96523 271.45234 L487.41148 266.4724 L501.58495 264.3011 L515.90536 265.02735 L529.78644 268.62141 L542.6599 274.93614 L553.99869 283.71302 L563.3386 294.59271 L570.29725 307.12981 L574.58977 320.81104 L576.0404 335.07629 M569.84111 331.29853 L568.39047 345.56378 L564.09796 359.24501 L557.1393 371.7821 L547.79939 382.6618 L536.4606 391.43867 L523.58715 397.7534 L509.70607 401.34747 L495.38565 402.07371 L481.21219 399.90242 L467.76593 394.92247 L455.59737 387.33775 L445.2047 377.45878 L437.01339 365.69001 L431.3588 352.51324 L428.47241 338.46794 L428.47241 324.12912 L431.3588 310.08382 L437.01339 296.90705 L445.2047 285.13827 L455.59737 275.2593 L467.76593 267.67458 L481.21219 262.69464 L495.38565 260.52334 L509.70607 261.24959 L523.58715 264.84365 L536.4606 271.15838 L547.79939 279.93526 L557.1393 290.81495 L564.09796 303.35205 L568.39047 317.03328 L569.84111 331.29853 M566.41615 329.21617 L564.96552 343.48142 L560.673 357.16265 L553.71435 369.69974 L544.37444 380.57944 L533.03565 389.35631 L520.16219 395.67104 L506.28111 399.2651 L491.9607 399.99135 L477.78723 397.82006 L464.34098 392.84011 L452.17242 385.25539 L441.77975 375.37642 L433.58844 363.60765 L427.93384 350.43088 L425.04746 336.38558 L425.04746 322.04676 L427.93384 308.00146 L433.58844 294.82469 L441.77975 283.05591 L452.17242 273.17694 L464.34098 265.59222 L477.78723 260.61228 L491.9607 258.44098 L506.28111 259.16723 L520.16219 262.76129 L533.03565 269.07602 L544.37444 277.8529 L553.71435 288.73259 L560.673 301.26969 L564.96552 314.95092 L566.41615 329.21617 M564.55142 328.08422 L563.10079 342.34947 L558.80827 356.0307 L551.84962 368.5678 L542.50971 379.44749 L531.17092 388.22437 L518.29746 394.5391 L504.41638 398.13316 L490.09597 398.85941 L475.9225 396.68811 L462.47625 391.70817 L450.30769 384.12345 L439.91502 374.24448 L431.72371 362.4757 L426.06911 349.29893 L423.18273 335.25363 L423.18273 320.91482 L426.06911 306.86951 L431.72371 293.69275 L439.91502 281.92397 L450.30769 272.045 L462.47625 264.46028 L475.9225 259.48033 L490.09597 257.30904 L504.41638 258.03529 L518.29746 261.62935 L531.17092 267.94408 L542.50971 276.72096 L551.84962 287.60065 L558.80827 300.13775 L563.10079 313.81897 L564.55142 328.08422 M563.54373 327.47312 L562.09309 341.73837 L557.80058 355.41959 L550.84192 367.95669 L541.50201 378.83639 L530.16322 387.61326 L517.28977 393.92799 L503.40869 397.52205 L489.08827 398.2483 L474.91481 396.07701 L461.46855 391.09706 L449.3 383.51234 L438.90732 373.63337 L430.71601 361.86459 L425.06142 348.68783 L422.17504 334.64253 L422.17504 320.30371 L425.06142 306.25841 L430.71601 293.08164 L438.90732 281.31286 L449.3 271.43389 L461.46855 263.84917 L474.91481 258.86923 L489.08827 256.69793 L503.40869 257.42418 L517.28977 261.01824 L530.16322 267.33297 L541.50201 276.10985 L550.84192 286.98954 L557.80058 299.52664 L562.09309 313.20787 L563.54373 327.47312 M563.00129 327.14434 L561.55065 341.40959 L557.25814 355.09082 L550.29948 367.62791 L540.95957 378.50761 L529.62078 387.28448 L516.74733 393.59921 L502.86625 397.19328 L488.54583 397.91952 L474.37237 395.74823 L460.92611 390.76828 L448.75756 383.18356 L438.36488 373.30459 L430.17357 361.53582 L424.51898 348.35905 L421.63259 334.31375 L421.63259 319.97493 L424.51898 305.92963 L430.17357 292.75286 L438.36488 280.98408 L448.75756 271.10511 L460.92611 263.5204 L474.37237 258.54045 L488.54583 256.36915 L502.86625 257.0954 L516.74733 260.68946 L529.62078 267.00419 L540.95957 275.78107 L550.29948 286.66076 L557.25814 299.19786 L561.55065 312.87909 L563.00129 327.14434 M562.70989 326.96777 L561.25925 341.23302 L556.96674 354.91425 L550.00808 367.45135 L540.66817 378.33104 L529.32938 387.10792 L516.45593 393.42265 L502.57485 397.01671 L488.25443 397.74296 L474.08097 395.57166 L460.63471 390.59172 L448.46616 383.007 L438.07348 373.12803 L429.88217 361.35925 L424.22758 348.18248 L421.34119 334.13718 L421.34119 319.79836 L424.22758 305.75306 L429.88217 292.5763 L438.07348 280.80752 L448.46616 270.92855 L460.63471 263.34383 L474.08097 258.36388 L488.25443 256.19259 L502.57485 256.91884 L516.45593 260.5129 L529.32938 266.82763 L540.66817 275.60451 L550.00808 286.4842 L556.96674 299.0213 L561.25925 312.70252 L562.70989 326.96777 M562.55352 326.87304 L561.10288 341.13829 L556.81037 354.81952 L549.85171 367.35662 L540.5118 378.23631 L529.17301 387.01319 L516.29956 393.32792 L502.41848 396.92198 L488.09806 397.64823 L473.9246 395.47693 L460.47834 390.49698 L448.30979 382.91227 L437.91711 373.0333 L429.7258 361.26452 L424.07121 348.08775 L421.18483 334.04245 L421.18483 319.70363 L424.07121 305.65833 L429.7258 292.48156 L437.91711 280.71279 L448.30979 270.83382 L460.47834 263.2491 L473.9246 258.26915 L488.09806 256.09786 L502.41848 256.8241 L516.29956 260.41817 L529.17301 266.7329 L540.5118 275.50977 L549.85171 286.38947 L556.81037 298.92656 L561.10288 312.60779 L562.55352 326.87304 M562.46966 326.82224 L561.01902 341.08749 L556.72651 354.76872 L549.76785 367.30581 L540.42794 378.18551 L529.08915 386.96238 L516.2157 393.27712 L502.33462 396.87118 L488.0142 397.59743 L473.84074 395.42613 L460.39448 390.44618 L448.22592 382.86147 L437.83325 372.98249 L429.64194 361.21372 L423.98735 348.03695 L421.10096 333.99165 L421.10096 319.65283 L423.98735 305.60753 L429.64194 292.43076 L437.83325 280.66199 L448.22592 270.78301 L460.39448 263.1983 L473.84074 258.21835 L488.0142 256.04705 L502.33462 256.7733 L516.2157 260.36736 L529.08915 266.6821 L540.42794 275.45897 L549.76785 286.33867 L556.72651 298.87576 L561.01902 312.55699 L562.46966 326.82224 M562.42469 326.795 L560.97406 341.06025 L556.68155 354.74148 L549.72289 367.27858 L540.38298 378.15827 L529.04419 386.93515 L516.17073 393.24988 L502.28965 396.84394 L487.96924 397.57019 L473.79577 395.3989 L460.34952 390.41895 L448.18096 382.83423 L437.78829 372.95526 L429.59698 361.18648 L423.94238 348.00971 L421.056 333.96441 L421.056 319.6256 L423.94238 305.5803 L429.59698 292.40353 L437.78829 280.63475 L448.18096 270.75578 L460.34952 263.17106 L473.79577 258.19111 L487.96924 256.01982 L502.28965 256.74607 L516.17073 260.34013 L529.04419 266.65486 L540.38298 275.43174 L549.72289 286.31143 L556.68155 298.84853 L560.97406 312.52976 L562.42469 326.795 M562.40059 326.78041 L560.94996 341.04566 L556.65744 354.72688 L549.69879 367.26398 L540.35888 378.14367 L529.02009 386.92055 L516.14663 393.23528 L502.26555 396.82934 L487.94514 397.55559 L473.77167 395.3843 L460.32542 390.40435 L448.15686 382.81963 L437.76419 372.94066 L429.57288 361.17188 L423.91828 347.99512 L421.0319 333.94981 L421.0319 319.611 L423.91828 305.5657 L429.57288 292.38893 L437.76419 280.62015 L448.15686 270.74118 L460.32542 263.15646 L473.77167 258.17652 L487.94514 256.00522 L502.26555 256.73147 L516.14663 260.32553 L529.02009 266.64026 L540.35888 275.41714 L549.69879 286.29683 L556.65744 298.83393 L560.94996 312.51516 L562.40059 326.78041 M562.38767 326.77258 L560.93704 341.03783 L556.64453 354.71906 L549.68587 367.25616 L540.34596 378.13585 L529.00717 386.91272 L516.13371 393.22746 L502.25263 396.82152 L487.93222 397.54777 L473.75875 395.37647 L460.3125 390.39652 L448.14394 382.81181 L437.75127 372.93284 L429.55996 361.16406 L423.90536 347.98729 L421.01898 333.94199 L421.01898 319.60317 L423.90536 305.55787 L429.55996 292.3811 L437.75127 280.61233 L448.14394 270.73336 L460.3125 263.14864 L473.75875 258.16869 L487.93222 255.9974 L502.25263 256.72364 L516.13371 260.31771 L529.00717 266.63244 L540.34596 275.40931 L549.68587 286.28901 L556.64453 298.8261 L560.93704 312.50733 L562.38767 326.77258 M562.38075 326.76839 L560.93011 341.03364 L556.6376 354.71486 L549.67894 367.25196 L540.33903 378.13166 L529.00025 386.90853 L516.12679 393.22326 L502.24571 396.81732 L487.9253 397.54357 L473.75183 395.37228 L460.30557 390.39233 L448.13702 382.80761 L437.74435 372.92864 L429.55304 361.15986 L423.89844 347.9831 L421.01206 333.9378 L421.01206 319.59898 L423.89844 305.55368 L429.55304 292.37691 L437.74435 280.60813 L448.13702 270.72916 L460.30557 263.14444 L473.75183 258.1645 L487.9253 255.9932 L502.24571 256.71945 L516.12679 260.31351 L529.00025 266.62824 L540.33903 275.40512 L549.67894 286.28481 L556.6376 298.82191 L560.93011 312.50314 L562.38075 326.76839 M562.37704 326.76614 L560.9264 341.03139 L556.63389 354.71262 L549.67523 367.24971 L540.33532 378.12941 L528.99653 386.90628 L516.12308 393.22101 L502.242 396.81508 L487.92158 397.54132 L473.74812 395.37003 L460.30186 390.39008 L448.13331 382.80536 L437.74063 372.92639 L429.54932 361.15762 L423.89473 347.98085 L421.00834 333.93555 L421.00834 319.59673 L423.89473 305.55143 L429.54932 292.37466 L437.74063 280.60588 L448.13331 270.72691 L460.30186 263.1422 L473.74812 258.16225 L487.92158 255.99095 L502.242 256.7172 L516.12308 260.31126 L528.99653 266.62599 L540.33532 275.40287 L549.67523 286.28256 L556.63389 298.81966 L560.9264 312.50089 L562.37704 326.76614 M562.37505 326.76493 L560.92441 341.03018 L556.6319 354.71141 L549.67324 367.24851 L540.33333 378.1282 L528.99454 386.90508 L516.12109 393.21981 L502.24001 396.81387 L487.9196 397.54012 L473.74613 395.36882 L460.29987 390.38888 L448.13132 382.80416 L437.73865 372.92519 L429.54734 361.15641 L423.89274 347.97964 L421.00636 333.93434 L421.00636 319.59553 L423.89274 305.55022 L429.54734 292.37346 L437.73865 280.60468 L448.13132 270.72571 L460.29987 263.14099 L473.74613 258.16104 L487.9196 255.98975 L502.24001 256.716 L516.12109 260.31006 L528.99454 266.62479 L540.33333 275.40167 L549.67324 286.28136 L556.6319 298.81846 L560.92441 312.49968 L562.37505 326.76493 M562.37398 326.76429 L560.92335 341.02954 L556.63083 354.71077 L549.67218 367.24786 L540.33227 378.12756 L528.99348 386.90443 L516.12002 393.21916 L502.23894 396.81322 L487.91853 397.53947 L473.74506 395.36818 L460.29881 390.38823 L448.13025 382.80351 L437.73758 372.92454 L429.54627 361.15577 L423.89167 347.979 L421.00529 333.9337 L421.00529 319.59488 L423.89167 305.54958 L429.54627 292.37281 L437.73758 280.60403 L448.13025 270.72506 L460.29881 263.14034 L473.74506 258.1604 L487.91853 255.9891 L502.23894 256.71535 L516.12002 260.30941 L528.99348 266.62414 L540.33227 275.40102 L549.67218 286.28071 L556.63083 298.81781 L560.92335 312.49904 L562.37398 326.76429 M562.37341 326.76394 L560.92278 341.02919 L556.63026 354.71042 L549.67161 367.24752 L540.3317 378.12721 L528.99291 386.90409 L516.11945 393.21882 L502.23837 396.81288 L487.91796 397.53913 L473.74449 395.36783 L460.29823 390.38789 L448.12968 382.80317 L437.73701 372.9242 L429.5457 361.15542 L423.8911 347.97865 L421.00472 333.93335 L421.00472 319.59453 L423.8911 305.54923 L429.5457 292.37246 L437.73701 280.60369 L448.12968 270.72472 L460.29823 263.14 L473.74449 258.16005 L487.91796 255.98876 L502.23837 256.71501 L516.11945 260.30907 L528.99291 266.6238 L540.3317 275.40067 L549.67161 286.28037 L556.63026 298.81746 L560.92278 312.49869 L562.37341 326.76394 M809.64567 389.76378 L808.19504 404.02903 L803.90252 417.71026 L796.94387 430.24735 L787.60395 441.12705 L776.26517 449.90392 L763.39171 456.21866 L749.51063 459.81272 L735.19022 460.53897 L721.01675 458.36767 L707.57049 453.38772 L695.40194 445.803 L685.00927 435.92403 L676.81796 424.15526 L671.16336 410.97849 L668.27698 396.93319 L668.27698 382.59437 L671.16336 368.54907 L676.81796 355.3723 L685.00927 343.60352 L695.40194 333.72455 L707.57049 326.13984 L721.01675 321.15989 L735.19022 318.98859 L749.51063 319.71484 L763.39171 323.3089 L776.26517 329.62364 L787.60395 338.40051 L796.94387 349.28021 L803.90252 361.8173 L808.19504 375.49853 L809.64567 389.76378 M781.77181 375.07931 L780.32117 389.34456 L776.02866 403.02579 L769.07 415.56288 L759.73009 426.44258 L748.3913 435.21945 L735.51785 441.53419 L721.63677 445.12825 L707.31635 445.8545 L693.14289 443.6832 L679.69663 438.70325 L667.52808 431.11854 L657.1354 421.23957 L648.94409 409.47079 L643.2895 396.29402 L640.40311 382.24872 L640.40311 367.9099 L643.2895 353.8646 L648.94409 340.68783 L657.1354 328.91906 L667.52808 319.04009 L679.69663 311.45537 L693.14289 306.47542 L707.31635 304.30412 L721.63677 305.03037 L735.51785 308.62443 L748.3913 314.93917 L759.73009 323.71604 L769.07 334.59574 L776.02866 347.13283 L780.32117 360.81406 L781.77181 375.07931 M754.23693 360.19475 L752.78629 374.46 L748.49378 388.14122 L741.53512 400.67832 L732.19521 411.55802 L720.85642 420.33489 L707.98297 426.64962 L694.10189 430.24368 L679.78147 430.96993 L665.60801 428.79864 L652.16175 423.81869 L639.9932 416.23397 L629.60052 406.355 L621.40921 394.58622 L615.75462 381.40946 L612.86824 367.36416 L612.86824 353.02534 L615.75462 338.98004 L621.40921 325.80327 L629.60052 314.03449 L639.9932 304.15552 L652.16175 296.5708 L665.60801 291.59086 L679.78147 289.41956 L694.10189 290.14581 L707.98297 293.73987 L720.85642 300.0546 L732.19521 308.83148 L741.53512 319.71117 L748.49378 332.24827 L752.78629 345.9295 L754.23693 360.19475 M727.42727 345.33752 L725.97664 359.60276 L721.68412 373.28399 L714.72547 385.82109 L705.38556 396.70078 L694.04677 405.47766 L681.17331 411.79239 L667.29223 415.38645 L652.97182 416.1127 L638.79835 413.94141 L625.35209 408.96146 L613.18354 401.37674 L602.79087 391.49777 L594.59956 379.72899 L588.94496 366.55222 L586.05858 352.50692 L586.05858 338.16811 L588.94496 324.12281 L594.59956 310.94604 L602.79087 299.17726 L613.18354 289.29829 L625.35209 281.71357 L638.79835 276.73362 L652.97182 274.56233 L667.29223 275.28858 L681.17331 278.88264 L694.04677 285.19737 L705.38556 293.97425 L714.72547 304.85394 L721.68412 317.39104 L725.97664 331.07227 L727.42727 345.33752 M702.27332 331.10394 L700.82268 345.36919 L696.53017 359.05042 L689.57151 371.58751 L680.2316 382.46721 L668.89281 391.24408 L656.01936 397.55881 L642.13828 401.15287 L627.81786 401.87912 L613.6444 399.70783 L600.19814 394.72788 L588.02959 387.14316 L577.63691 377.26419 L569.4456 365.49542 L563.79101 352.31865 L560.90462 338.27335 L560.90462 323.93453 L563.79101 309.88923 L569.4456 296.71246 L577.63691 284.94368 L588.02959 275.06471 L600.19814 267.47999 L613.6444 262.50005 L627.81786 260.32875 L642.13828 261.055 L656.01936 264.64906 L668.89281 270.96379 L680.2316 279.74067 L689.57151 290.62036 L696.53017 303.15746 L700.82268 316.83869 L702.27332 331.10394 M679.8901 318.26316 L678.43947 332.52841 L674.14696 346.20963 L667.1883 358.74673 L657.84839 369.62643 L646.5096 378.4033 L633.63615 384.71803 L619.75506 388.31209 L605.43465 389.03834 L591.26118 386.86705 L577.81493 381.8871 L565.64637 374.30238 L555.2537 364.42341 L547.06239 352.65463 L541.40779 339.47787 L538.52141 325.43257 L538.52141 311.09375 L541.40779 297.04845 L547.06239 283.87168 L555.2537 272.1029 L565.64637 262.22393 L577.81493 254.63921 L591.26118 249.65927 L605.43465 247.48797 L619.75506 248.21422 L633.63615 251.80828 L646.5096 258.12301 L657.84839 266.89989 L667.1883 277.77958 L674.14696 290.31668 L678.43947 303.99791 L679.8901 318.26316 M661.09595 307.43496 L659.64532 321.7002 L655.35281 335.38143 L648.39415 347.91853 L639.05424 358.79822 L627.71545 367.5751 L614.842 373.88983 L600.96091 377.48389 L586.6405 378.21014 L572.46703 376.03885 L559.02078 371.0589 L546.85222 363.47418 L536.45955 353.59521 L528.26824 341.82643 L522.61364 328.64966 L519.72726 314.60436 L519.72726 300.26555 L522.61364 286.22025 L528.26824 273.04348 L536.45955 261.2747 L546.85222 251.39573 L559.02078 243.81101 L572.46703 238.83107 L586.6405 236.65977 L600.96091 237.38602 L614.842 240.98008 L627.71545 247.29481 L639.05424 256.07169 L648.39415 266.95138 L655.35281 279.48848 L659.64532 293.16971 L661.09595 307.43496 M646.16068 298.8547 L644.71004 313.11995 L640.41753 326.80118 L633.45887 339.33827 L624.11896 350.21797 L612.78018 358.99484 L599.90672 365.30957 L586.02564 368.90363 L571.70523 369.62988 L557.53176 367.45859 L544.0855 362.47864 L531.91695 354.89392 L521.52428 345.01495 L513.33297 333.24618 L507.67837 320.06941 L504.79199 306.02411 L504.79199 291.68529 L507.67837 277.63999 L513.33297 264.46322 L521.52428 252.69444 L531.91695 242.81547 L544.0855 235.23075 L557.53176 230.25081 L571.70523 228.07951 L586.02564 228.80576 L599.90672 232.39982 L612.78018 238.71455 L624.11896 247.49143 L633.45887 258.37112 L640.41753 270.90822 L644.71004 284.58945 L646.16068 298.8547 M634.83822 292.39063 L633.38759 306.65588 L629.09508 320.33711 L622.13642 332.87421 L612.79651 343.7539 L601.45772 352.53078 L588.58426 358.84551 L574.70318 362.43957 L560.38277 363.16582 L546.2093 360.99452 L532.76305 356.01458 L520.59449 348.42986 L510.20182 338.55089 L502.01051 326.78211 L496.35591 313.60534 L493.46953 299.56004 L493.46953 285.22123 L496.35591 271.17592 L502.01051 257.99916 L510.20182 246.23038 L520.59449 236.35141 L532.76305 228.76669 L546.2093 223.78674 L560.38277 221.61545 L574.70318 222.3417 L588.58426 225.93576 L601.45772 232.25049 L612.79651 241.02737 L622.13642 251.90706 L629.09508 264.44416 L633.38759 278.12538 L634.83822 292.39063 M626.56686 287.7007 L625.11622 301.96595 L620.82371 315.64718 L613.86505 328.18428 L604.52514 339.06397 L593.18635 347.84085 L580.3129 354.15558 L566.43182 357.74964 L552.1114 358.47589 L537.93794 356.30459 L524.49168 351.32465 L512.32312 343.73993 L501.93045 333.86096 L493.73914 322.09218 L488.08455 308.91541 L485.19816 294.87011 L485.19816 280.53129 L488.08455 266.48599 L493.73914 253.30922 L501.93045 241.54045 L512.32312 231.66148 L524.49168 224.07676 L537.93794 219.09681 L552.1114 216.92552 L566.43182 217.65177 L580.3129 221.24583 L593.18635 227.56056 L604.52514 236.33743 L613.86505 247.21713 L620.82371 259.75422 L625.11622 273.43545 L626.56686 287.7007 M620.68701 284.3868 L619.23637 298.65205 L614.94386 312.33327 L607.9852 324.87037 L598.64529 335.75006 L587.3065 344.52694 L574.43305 350.84167 L560.55197 354.43573 L546.23156 355.16198 L532.05809 352.99069 L518.61183 348.01074 L506.44328 340.42602 L496.05061 330.54705 L487.8593 318.77827 L482.2047 305.60151 L479.31832 291.55621 L479.31832 277.21739 L482.2047 263.17209 L487.8593 249.99532 L496.05061 238.22654 L506.44328 228.34757 L518.61183 220.76285 L532.05809 215.78291 L546.23156 213.61161 L560.55197 214.33786 L574.43305 217.93192 L587.3065 224.24665 L598.64529 233.02353 L607.9852 243.90322 L614.94386 256.44032 L619.23637 270.12155 L620.68701 284.3868 M616.58673 282.08682 L615.1361 296.35207 L610.84358 310.0333 L603.88493 322.57039 L594.54502 333.45009 L583.20623 342.22696 L570.33277 348.5417 L556.45169 352.13576 L542.13128 352.86201 L527.95781 350.69071 L514.51155 345.71076 L502.343 338.12605 L491.95033 328.24707 L483.75902 316.4783 L478.10442 303.30153 L475.21804 289.25623 L475.21804 274.91741 L478.10442 260.87211 L483.75902 247.69534 L491.95033 235.92657 L502.343 226.04759 L514.51155 218.46288 L527.95781 213.48293 L542.13128 211.31163 L556.45169 212.03788 L570.33277 215.63194 L583.20623 221.94668 L594.54502 230.72355 L603.88493 241.60325 L610.84358 254.14034 L615.1361 267.82157 L616.58673 282.08682 M613.76482 280.50949 L612.31418 294.77474 L608.02167 308.45597 L601.06302 320.99307 L591.7231 331.87276 L580.38432 340.64964 L567.51086 346.96437 L553.62978 350.55843 L539.30937 351.28468 L525.1359 349.11339 L511.68964 344.13344 L499.52109 336.54872 L489.12842 326.66975 L480.93711 314.90097 L475.28251 301.7242 L472.39613 287.6789 L472.39613 273.34009 L475.28251 259.29479 L480.93711 246.11802 L489.12842 234.34924 L499.52109 224.47027 L511.68964 216.88555 L525.1359 211.9056 L539.30937 209.73431 L553.62978 210.46056 L567.51086 214.05462 L580.38432 220.36935 L591.7231 229.14623 L601.06302 240.02592 L608.02167 252.56302 L612.31418 266.24425 L613.76482 280.50949 M611.83991 279.43627 L610.38927 293.70152 L606.09676 307.38275 L599.13811 319.91984 L589.79819 330.79954 L578.45941 339.57641 L565.58595 345.89114 L551.70487 349.4852 L537.38446 350.21145 L523.21099 348.04016 L509.76473 343.06021 L497.59618 335.47549 L487.20351 325.59652 L479.0122 313.82774 L473.3576 300.65098 L470.47122 286.60568 L470.47122 272.26686 L473.3576 258.22156 L479.0122 245.04479 L487.20351 233.27601 L497.59618 223.39704 L509.76473 215.81232 L523.21099 210.83238 L537.38446 208.66108 L551.70487 209.38733 L565.58595 212.98139 L578.45941 219.29612 L589.79819 228.073 L599.13811 238.95269 L606.09676 251.48979 L610.38927 265.17102 L611.83991 279.43627 M610.53469 278.70983 L609.08405 292.97508 L604.79154 306.65631 L597.83288 319.1934 L588.49297 330.0731 L577.15418 338.84997 L564.28073 345.1647 L550.39965 348.75876 L536.07923 349.48501 L521.90577 347.31372 L508.45951 342.33377 L496.29096 334.74905 L485.89828 324.87008 L477.70697 313.10131 L472.05238 299.92454 L469.16599 285.87924 L469.16599 271.54042 L472.05238 257.49512 L477.70697 244.31835 L485.89828 232.54957 L496.29096 222.6706 L508.45951 215.08588 L521.90577 210.10594 L536.07923 207.93464 L550.39965 208.66089 L564.28073 212.25495 L577.15418 218.56968 L588.49297 227.34656 L597.83288 238.22625 L604.79154 250.76335 L609.08405 264.44458 L610.53469 278.70983 M609.65318 278.21981 L608.20255 292.48506 L603.91004 306.16629 L596.95138 318.70339 L587.61147 329.58308 L576.27268 338.35996 L563.39923 344.67469 L549.51815 348.26875 L535.19773 348.995 L521.02427 346.8237 L507.57801 341.84376 L495.40945 334.25904 L485.01678 324.38007 L476.82547 312.61129 L471.17088 299.43452 L468.28449 285.38922 L468.28449 271.0504 L471.17088 257.0051 L476.82547 243.82834 L485.01678 232.05956 L495.40945 222.18059 L507.57801 214.59587 L521.02427 209.61592 L535.19773 207.44463 L549.51815 208.17088 L563.39923 211.76494 L576.27268 218.07967 L587.61147 226.85654 L596.95138 237.73624 L603.91004 250.27333 L608.20255 263.95456 L609.65318 278.21981 M609.05944 277.89003 L607.60881 292.15528 L603.31629 305.83651 L596.35764 318.37361 L587.01772 329.2533 L575.67894 338.03018 L562.80548 344.34491 L548.9244 347.93897 L534.60399 348.66522 L520.43052 346.49392 L506.98426 341.51398 L494.81571 333.92926 L484.42304 324.05029 L476.23173 312.28151 L470.57713 299.10474 L467.69075 285.05944 L467.69075 270.72062 L470.57713 256.67532 L476.23173 243.49855 L484.42304 231.72978 L494.81571 221.85081 L506.98426 214.26609 L520.43052 209.28614 L534.60399 207.11485 L548.9244 207.8411 L562.80548 211.43516 L575.67894 217.74989 L587.01772 226.52676 L596.35764 237.40646 L603.31629 249.94355 L607.60881 263.62478 L609.05944 277.89003 M608.66023 277.66843 L607.2096 291.93367 L602.91708 305.6149 L595.95843 318.152 L586.61851 329.03169 L575.27973 337.80857 L562.40627 344.1233 L548.52519 347.71736 L534.20478 348.44361 L520.03131 346.27232 L506.58505 341.29237 L494.4165 333.70765 L484.02383 323.82868 L475.83252 312.0599 L470.17792 298.88313 L467.29154 284.83783 L467.29154 270.49902 L470.17792 256.45372 L475.83252 243.27695 L484.02383 231.50817 L494.4165 221.6292 L506.58505 214.04448 L520.03131 209.06453 L534.20478 206.89324 L548.52519 207.61949 L562.40627 211.21355 L575.27973 217.52828 L586.61851 226.30516 L595.95843 237.18485 L602.91708 249.72195 L607.2096 263.40318 L608.66023 277.66843 M608.39214 277.51966 L606.9415 291.78491 L602.64899 305.46614 L595.69033 318.00324 L586.35042 328.88293 L575.01164 337.65981 L562.13818 343.97454 L548.2571 347.5686 L533.93669 348.29485 L519.76322 346.12355 L506.31696 341.1436 L494.14841 333.55889 L483.75574 323.67992 L475.56443 311.91114 L469.90983 298.73437 L467.02345 284.68907 L467.02345 270.35025 L469.90983 256.30495 L475.56443 243.12818 L483.75574 231.35941 L494.14841 221.48044 L506.31696 213.89572 L519.76322 208.91577 L533.93669 206.74448 L548.2571 207.47072 L562.13818 211.06479 L575.01164 217.37952 L586.35042 226.15639 L595.69033 237.03609 L602.64899 249.57318 L606.9415 263.25441 L608.39214 277.51966 M608.21224 277.41986 L606.76161 291.68511 L602.4691 305.36634 L595.51044 317.90344 L586.17053 328.78313 L574.83174 337.56001 L561.95829 343.87474 L548.07721 347.4688 L533.75679 348.19505 L519.58333 346.02375 L506.13707 341.04381 L493.96851 333.45909 L483.57584 323.58012 L475.38453 311.81134 L469.72994 298.63457 L466.84355 284.58927 L466.84355 270.25045 L469.72994 256.20515 L475.38453 243.02839 L483.57584 231.25961 L493.96851 221.38064 L506.13707 213.79592 L519.58333 208.81597 L533.75679 206.64468 L548.07721 207.37093 L561.95829 210.96499 L574.83174 217.27972 L586.17053 226.05659 L595.51044 236.93629 L602.4691 249.47339 L606.76161 263.15461 L608.21224 277.41986 M608.0916 277.35294 L606.64096 291.61819 L602.34845 305.29942 L595.38979 317.83652 L586.04988 328.71621 L574.71109 337.49309 L561.83764 343.80782 L547.95656 347.40188 L533.63614 348.12813 L519.46268 345.95683 L506.01642 340.97689 L493.84787 333.39217 L483.4552 323.5132 L475.26388 311.74442 L469.60929 298.56765 L466.72291 284.52235 L466.72291 270.18354 L469.60929 256.13824 L475.26388 242.96147 L483.4552 231.19269 L493.84787 221.31372 L506.01642 213.729 L519.46268 208.74905 L533.63614 206.57776 L547.95656 207.30401 L561.83764 210.89807 L574.71109 217.2128 L586.04988 225.98968 L595.38979 236.86937 L602.34845 249.40647 L606.64096 263.0877 L608.0916 277.35294 M951.37795 389.76378 L949.92732 404.02903 L945.63481 417.71026 L938.67615 430.24735 L929.33624 441.12705 L917.99745 449.90392 L905.12399 456.21866 L891.24291 459.81272 L876.9225 460.53897 L862.74903 458.36767 L849.30278 453.38772 L837.13422 445.803 L826.74155 435.92403 L818.55024 424.15526 L812.89564 410.97849 L810.00926 396.93319 L810.00926 382.59437 L812.89564 368.54907 L818.55024 355.3723 L826.74155 343.60352 L837.13422 333.72455 L849.30278 326.13984 L862.74903 321.15989 L876.9225 318.98859 L891.24291 319.71484 L905.12399 323.3089 L917.99745 329.62364 L929.33624 338.40051 L938.67615 349.28021 L945.63481 361.8173 L949.92732 375.49853 L951.37795 389.76378 M916.38553 370.83025 L914.93489 385.0955 L910.64238 398.77673 L903.68372 411.31382 L894.34381 422.19352 L883.00502 430.97039 L870.13157 437.28512 L856.25049 440.87918 L841.93007 441.60543 L827.75661 439.43414 L814.31035 434.45419 L802.1418 426.86947 L791.74912 416.9905 L783.55781 405.22173 L777.90322 392.04496 L775.01683 377.99966 L775.01683 363.66084 L777.90322 349.61554 L783.55781 336.43877 L791.74912 324.66999 L802.1418 314.79102 L814.31035 307.2063 L827.75661 302.22636 L841.93007 300.05506 L856.25049 300.78131 L870.13157 304.37537 L883.00502 310.6901 L894.34381 319.46698 L903.68372 330.34667 L910.64238 342.88377 L914.93489 356.565 L916.38553 370.83025 M887.95981 355.20473 L886.50918 369.46997 L882.21666 383.1512 L875.25801 395.6883 L865.9181 406.56799 L854.57931 415.34487 L841.70585 421.6596 L827.82477 425.25366 L813.50436 425.97991 L799.33089 423.80862 L785.88464 418.82867 L773.71608 411.24395 L763.32341 401.36498 L755.1321 389.5962 L749.4775 376.41943 L746.59112 362.37413 L746.59112 348.03532 L749.4775 333.99002 L755.1321 320.81325 L763.32341 309.04447 L773.71608 299.1655 L785.88464 291.58078 L799.33089 286.60083 L813.50436 284.42954 L827.82477 285.15579 L841.70585 288.74985 L854.57931 295.06458 L865.9181 303.84146 L875.25801 314.72115 L882.21666 327.25825 L886.50918 340.93948 L887.95981 355.20473 M864.49332 342.17714 L863.04269 356.44239 L858.75017 370.12362 L851.79152 382.66071 L842.45161 393.54041 L831.11282 402.31728 L818.23936 408.63201 L804.35828 412.22607 L790.03787 412.95232 L775.8644 410.78103 L762.41814 405.80108 L750.24959 398.21636 L739.85692 388.33739 L731.66561 376.56862 L726.01101 363.39185 L723.12463 349.34655 L723.12463 335.00773 L726.01101 320.96243 L731.66561 307.78566 L739.85692 296.01688 L750.24959 286.13791 L762.41814 278.55319 L775.8644 273.57325 L790.03787 271.40195 L804.35828 272.1282 L818.23936 275.72226 L831.11282 282.03699 L842.45161 290.81387 L851.79152 301.69356 L858.75017 314.23066 L863.04269 327.91189 L864.49332 342.17714 M844.47808 330.99102 L843.02744 345.25627 L838.73493 358.9375 L831.77628 371.47459 L822.43636 382.35429 L811.09758 391.13116 L798.22412 397.4459 L784.34304 401.03996 L770.02263 401.76621 L755.84916 399.59491 L742.4029 394.61496 L730.23435 387.03025 L719.84168 377.15127 L711.65037 365.3825 L705.99577 352.20573 L703.10939 338.16043 L703.10939 323.82161 L705.99577 309.77631 L711.65037 296.59954 L719.84168 284.83077 L730.23435 274.95179 L742.4029 267.36708 L755.84916 262.38713 L770.02263 260.21583 L784.34304 260.94208 L798.22412 264.53614 L811.09758 270.85088 L822.43636 279.62775 L831.77628 290.50745 L838.73493 303.04454 L843.02744 316.72577 L844.47808 330.99102 M826.8616 321.09975 L825.41096 335.365 L821.11845 349.04623 L814.15979 361.58333 L804.81988 372.46302 L793.48109 381.2399 L780.60764 387.55463 L766.72656 391.14869 L752.40614 391.87494 L738.23268 389.70364 L724.78642 384.72369 L712.61787 377.13898 L702.22519 367.26001 L694.03388 355.49123 L688.37929 342.31446 L685.4929 328.26916 L685.4929 313.93034 L688.37929 299.88504 L694.03388 286.70827 L702.22519 274.9395 L712.61787 265.06053 L724.78642 257.47581 L738.23268 252.49586 L752.40614 250.32457 L766.72656 251.05081 L780.60764 254.64488 L793.48109 260.95961 L804.81988 269.73648 L814.15979 280.61618 L821.11845 293.15327 L825.41096 306.8345 L826.8616 321.09975 M810.96419 312.14546 L809.51355 326.41071 L805.22104 340.09194 L798.26239 352.62903 L788.92247 363.50873 L777.58369 372.2856 L764.71023 378.60034 L750.82915 382.1944 L736.50874 382.92065 L722.33527 380.74935 L708.88901 375.7694 L696.72046 368.18469 L686.32779 358.30571 L678.13648 346.53694 L672.48188 333.36017 L669.5955 319.31487 L669.5955 304.97605 L672.48188 290.93075 L678.13648 277.75398 L686.32779 265.9852 L696.72046 256.10623 L708.88901 248.52152 L722.33527 243.54157 L736.50874 241.37027 L750.82915 242.09652 L764.71023 245.69058 L777.58369 252.00532 L788.92247 260.78219 L798.26239 271.66189 L805.22104 284.19898 L809.51355 297.88021 L810.96419 312.14546 M796.35768 303.90268 L794.90705 318.16793 L790.61453 331.84916 L783.65588 344.38625 L774.31597 355.26595 L762.97718 364.04282 L750.10372 370.35755 L736.22264 373.95161 L721.90223 374.67786 L707.72876 372.50657 L694.2825 367.52662 L682.11395 359.9419 L671.72128 350.06293 L663.52997 338.29415 L657.87537 325.11739 L654.98899 311.07209 L654.98899 296.73327 L657.87537 282.68797 L663.52997 269.5112 L671.72128 257.74242 L682.11395 247.86345 L694.2825 240.27873 L707.72876 235.29879 L721.90223 233.12749 L736.22264 233.85374 L750.10372 237.4478 L762.97718 243.76253 L774.31597 252.53941 L783.65588 263.4191 L790.61453 275.9562 L794.90705 289.63743 L796.35768 303.90268 M782.76307 296.23224 L781.31244 310.49749 L777.01992 324.17872 L770.06127 336.71582 L760.72136 347.59551 L749.38257 356.37239 L736.50911 362.68712 L722.62803 366.28118 L708.30762 367.00743 L694.13415 364.83613 L680.68789 359.85619 L668.51934 352.27147 L658.12667 342.3925 L649.93536 330.62372 L644.28076 317.44695 L641.39438 303.40165 L641.39438 289.06284 L644.28076 275.01754 L649.93536 261.84077 L658.12667 250.07199 L668.51934 240.19302 L680.68789 232.6083 L694.13415 227.62835 L708.30762 225.45706 L722.62803 226.18331 L736.50911 229.77737 L749.38257 236.0921 L760.72136 244.86898 L770.06127 255.74867 L777.01992 268.28577 L781.31244 281.967 L782.76307 296.23224 M769.98383 289.04231 L768.5332 303.30756 L764.24068 316.98879 L757.28203 329.52589 L747.94212 340.40558 L736.60333 349.18246 L723.72987 355.49719 L709.84879 359.09125 L695.52838 359.8175 L681.35491 357.6462 L667.90865 352.66626 L655.7401 345.08154 L645.34743 335.20257 L637.15612 323.43379 L631.50152 310.25702 L628.61514 296.21172 L628.61514 281.87291 L631.50152 267.8276 L637.15612 254.65084 L645.34743 242.88206 L655.7401 233.00309 L667.90865 225.41837 L681.35491 220.43842 L695.52838 218.26713 L709.84879 218.99338 L723.72987 222.58744 L736.60333 228.90217 L747.94212 237.67905 L757.28203 248.55874 L764.24068 261.09584 L768.5332 274.77706 L769.98383 289.04231 M757.87723 282.26762 L756.4266 296.53287 L752.13408 310.2141 L745.17543 322.75119 L735.83552 333.63089 L724.49673 342.40776 L711.62327 348.72249 L697.74219 352.31655 L683.42178 353.0428 L669.24831 350.87151 L655.80206 345.89156 L643.6335 338.30684 L633.24083 328.42787 L625.04952 316.65909 L619.39492 303.48233 L616.50854 289.43703 L616.50854 275.09821 L619.39492 261.05291 L625.04952 247.87614 L633.24083 236.10736 L643.6335 226.22839 L655.80206 218.64367 L669.24831 213.66373 L683.42178 211.49243 L697.74219 212.21868 L711.62327 215.81274 L724.49673 222.12747 L735.83552 230.90435 L745.17543 241.78404 L752.13408 254.32114 L756.4266 268.00237 L757.87723 282.26762 M746.3418 275.8614 L744.89117 290.12665 L740.59866 303.80788 L733.64 316.34498 L724.30009 327.22467 L712.9613 336.00155 L700.08785 342.31628 L686.20676 345.91034 L671.88635 346.63659 L657.71288 344.46529 L644.26663 339.48535 L632.09807 331.90063 L621.7054 322.02166 L613.51409 310.25288 L607.85949 297.07611 L604.97311 283.03081 L604.97311 268.692 L607.85949 254.6467 L613.51409 241.46993 L621.7054 229.70115 L632.09807 219.82218 L644.26663 212.23746 L657.71288 207.25751 L671.88635 205.08622 L686.20676 205.81247 L700.08785 209.40653 L712.9613 215.72126 L724.30009 224.49814 L733.64 235.37783 L740.59866 247.91493 L744.89117 261.59616 L746.3418 275.8614 M735.31106 269.79211 L733.86042 284.05736 L729.56791 297.73859 L722.60925 310.27568 L713.26934 321.15538 L701.93055 329.93225 L689.0571 336.24698 L675.17602 339.84104 L660.8556 340.56729 L646.68214 338.396 L633.23588 333.41605 L621.06733 325.83133 L610.67465 315.95236 L602.48334 304.18359 L596.82875 291.00682 L593.94236 276.96152 L593.94236 262.6227 L596.82875 248.5774 L602.48334 235.40063 L610.67465 223.63185 L621.06733 213.75288 L633.23588 206.16816 L646.68214 201.18822 L660.8556 199.01692 L675.17602 199.74317 L689.0571 203.33723 L701.93055 209.65196 L713.26934 218.42884 L722.60925 229.30853 L729.56791 241.84563 L733.86042 255.52686 L735.31106 269.79211 M724.74946 264.04152 L723.29882 278.30677 L719.00631 291.988 L712.04765 304.5251 L702.70774 315.40479 L691.36895 324.18167 L678.4955 330.4964 L664.61442 334.09046 L650.294 334.81671 L636.12054 332.64541 L622.67428 327.66547 L610.50573 320.08075 L600.11306 310.20178 L591.92174 298.433 L586.26715 285.25623 L583.38077 271.21093 L583.38077 256.87212 L586.26715 242.82681 L591.92174 229.65005 L600.11306 217.88127 L610.50573 208.0023 L622.67428 200.41758 L636.12054 195.43763 L650.294 193.26634 L664.61442 193.99259 L678.4955 197.58665 L691.36895 203.90138 L702.70774 212.67826 L712.04765 223.55795 L719.00631 236.09505 L723.29882 249.77627 L724.74946 264.04152 M714.6488 258.60317 L713.19817 272.86842 L708.90565 286.54965 L701.947 299.08674 L692.60709 309.96644 L681.2683 318.74331 L668.39484 325.05804 L654.51376 328.6521 L640.19335 329.37835 L626.01988 327.20706 L612.57363 322.22711 L600.40507 314.64239 L590.0124 304.76342 L581.82109 292.99465 L576.16649 279.81788 L573.28011 265.77258 L573.28011 251.43376 L576.16649 237.38846 L581.82109 224.21169 L590.0124 212.44291 L600.40507 202.56394 L612.57363 194.97922 L626.01988 189.99928 L640.19335 187.82798 L654.51376 188.55423 L668.39484 192.14829 L681.2683 198.46302 L692.60709 207.2399 L701.947 218.11959 L708.90565 230.65669 L713.19817 244.33792 L714.6488 258.60317 M705.02387 253.48021 L703.57323 267.74546 L699.28072 281.42669 L692.32207 293.96378 L682.98215 304.84348 L671.64337 313.62035 L658.76991 319.93508 L644.88883 323.52914 L630.56842 324.25539 L616.39495 322.0841 L602.94869 317.10415 L590.78014 309.51943 L580.38747 299.64046 L572.19616 287.87169 L566.54156 274.69492 L563.65518 260.64962 L563.65518 246.3108 L566.54156 232.2655 L572.19616 219.08873 L580.38747 207.31995 L590.78014 197.44098 L602.94869 189.85626 L616.39495 184.87632 L630.56842 182.70502 L644.88883 183.43127 L658.76991 187.02533 L671.64337 193.34006 L682.98215 202.11694 L692.32207 212.99663 L699.28072 225.53373 L703.57323 239.21496 L705.02387 253.48021 M695.90682 248.68276 L694.45619 262.94801 L690.16368 276.62924 L683.20502 289.16633 L673.86511 300.04603 L662.52632 308.8229 L649.65286 315.13764 L635.77178 318.7317 L621.45137 319.45795 L607.2779 317.28665 L593.83165 312.3067 L581.66309 304.72199 L571.27042 294.84301 L563.07911 283.07424 L557.42451 269.89747 L554.53813 255.85217 L554.53813 241.51335 L557.42451 227.46805 L563.07911 214.29128 L571.27042 202.5225 L581.66309 192.64353 L593.83165 185.05882 L607.2779 180.07887 L621.45137 177.90757 L635.77178 178.63382 L649.65286 182.22788 L662.52632 188.54262 L673.86511 197.31949 L683.20502 208.19919 L690.16368 220.73628 L694.45619 234.41751 L695.90682 248.68276 M687.34025 244.22461 L685.88961 258.48986 L681.5971 272.17108 L674.63844 284.70818 L665.29853 295.58787 L653.95974 304.36475 L641.08629 310.67948 L627.20521 314.27354 L612.88479 314.99979 L598.71133 312.8285 L585.26507 307.84855 L573.09651 300.26383 L562.70384 290.38486 L554.51253 278.61608 L548.85794 265.43932 L545.97155 251.39401 L545.97155 237.0552 L548.85794 223.0099 L554.51253 209.83313 L562.70384 198.06435 L573.09651 188.18538 L585.26507 180.60066 L598.71133 175.62072 L612.88479 173.44942 L627.20521 174.17567 L641.08629 177.76973 L653.95974 184.08446 L665.29853 192.86134 L674.63844 203.74103 L681.5971 216.27813 L685.88961 229.95936 L687.34025 244.22461 M679.36929 240.11962 L677.91866 254.38487 L673.62614 268.0661 L666.66749 280.6032 L657.32758 291.48289 L645.98879 300.25977 L633.11533 306.5745 L619.23425 310.16856 L604.91384 310.89481 L590.74037 308.72351 L577.29411 303.74357 L565.12556 296.15885 L554.73289 286.27988 L546.54158 274.5111 L540.88698 261.33433 L538.0006 247.28903 L538.0006 232.95021 L540.88698 218.90491 L546.54158 205.72815 L554.73289 193.95937 L565.12556 184.0804 L577.29411 176.49568 L590.74037 171.51573 L604.91384 169.34444 L619.23425 170.07069 L633.11533 173.66475 L645.98879 179.97948 L657.32758 188.75635 L666.66749 199.63605 L673.62614 212.17315 L677.91866 225.85437 L679.36929 240.11962 M672.03389 236.3784 L670.58325 250.64365 L666.29074 264.32488 L659.33208 276.86197 L649.99217 287.74167 L638.65338 296.51854 L625.77993 302.83327 L611.89885 306.42733 L597.57843 307.15358 L583.40497 304.98229 L569.95871 300.00234 L557.79016 292.41762 L547.39748 282.53865 L539.20617 270.76988 L533.55158 257.59311 L530.66519 243.54781 L530.66519 229.20899 L533.55158 215.16369 L539.20617 201.98692 L547.39748 190.21814 L557.79016 180.33917 L569.95871 172.75445 L583.40497 167.77451 L597.57843 165.60321 L611.89885 166.32946 L625.77993 169.92352 L638.65338 176.23825 L649.99217 185.01513 L659.33208 195.89482 L666.29074 208.43192 L670.58325 222.11315 L672.03389 236.3784 M665.36217 233.00554 L663.91154 247.27079 L659.61903 260.95201 L652.66037 273.48911 L643.32046 284.3688 L631.98167 293.14568 L619.10821 299.46041 L605.22713 303.05447 L590.90672 303.78072 L576.73325 301.60943 L563.287 296.62948 L551.11844 289.04476 L540.72577 279.16579 L532.53446 267.39701 L526.87986 254.22025 L523.99348 240.17494 L523.99348 225.83613 L526.87986 211.79083 L532.53446 198.61406 L540.72577 186.84528 L551.11844 176.96631 L563.287 169.38159 L576.73325 164.40165 L590.90672 162.23035 L605.22713 162.9566 L619.10821 166.55066 L631.98167 172.86539 L643.32046 181.64227 L652.66037 192.52196 L659.61903 205.05906 L663.91154 218.74029 L665.36217 233.00554" fill="none" stroke="black" stroke-width="0.03cm" />
    </g>
</svg>