<?xml version="1.0" standalone="no"?>
  <!DOCTYPE svg PUBLIC "-//W3C//DTD SVG 1.1//EN" 
      "http://www.w3.org/Graphics/SVG/1.1/DTD/svg11.dtd">
  <svg width="29.7cm" height="42cm"
      xmlns="http://www.w3.org/2000/svg" version="1.1" viewBox="0 0 1052.3622 1488.18898">
    <g>
      <path d="M354.33071 389.76378 L333.5745 439.87371 L283.46457 460.62992 L233.35464 439.87371 L212.59843 389.76378 L233.35464 339.65385 L283.46457 318.89764 L333.5745 339.65385 L354.33071 389.76378 M343.86681 425.19685 L323.1106 475.30678 L273.00067 496.06299 L222.89074 475.30678 L202.13453 425.19685 L222.89074 375.08692 L273.00067 354.33071 L323.1106 375.08692 L343.86681 425.19685 M330.24769 460.62992 L309.49148 510.73985 L259.38155 531.49606 L209.27162 510.73985 L188.51541 460.62992 L209.27162 410.51999 L259.38155 389.76378 L309.49148 410.51999 L330.24769 460.62992 M313.37077 496.06299 L292.61456 546.17292 L242.50463 566.92913 L192.3947 546.17292 L171.63849 496.06299 L192.3947 445.95306 L242.50463 425.19685 L292.61456 445.95306 L313.37077 496.06299 M293.14622 531.49606 L272.39001 581.60599 L222.28008 602.3622 L172.17015 581.60599 L151.41394 531.49606 L172.17015 481.38613 L222.28008 460.62992 L272.39001 481.38613 L293.14622 531.49606 M269.50488 566.92913 L248.74867 617.03906 L198.63874 637.79528 L148.52881 617.03906 L127.7726 566.92913 L148.52881 516.8192 L198.63874 496.06299 L248.74867 516.8192 L269.50488 566.92913 M242.4114 602.3622 L221.65518 652.47213 L171.54525 673.22835 L121.43533 652.47213 L100.67911 602.3622 L121.43533 552.25228 L171.54525 531.49606 L221.65518 552.25228 L242.4114 602.3622 M211.87993 637.79528 L191.12372 687.9052 L141.01379 708.66142 L90.90386 687.9052 L70.14764 637.79528 L90.90386 587.68535 L141.01379 566.92913 L191.12372 587.68535 L211.87993 637.79528 M177.99134 673.22835 L157.23513 723.33828 L107.1252 744.09449 L57.01527 723.33828 L36.25906 673.22835 L57.01527 623.11842 L107.1252 602.3622 L157.23513 623.11842 L177.99134 673.22835 M140.91054 708.66142 L120.15433 758.77135 L70.0444 779.52756 L35.43307 765.19108 M35.43307 652.13176 L70.0444 637.79528 L120.15433 658.55149 L140.91054 708.66142 M100.902 744.09449 L80.14579 794.20442 L35.43307 812.72503 M35.43307 675.46394 L80.14579 693.98456 L100.902 744.09449 M58.34096 779.52756 L37.58475 829.63749 L35.43307 830.52874 M35.43307 728.52637 L37.58475 729.41763 L58.34096 779.52756 M496.06299 389.76378 L475.30678 439.87371 L425.19685 460.62992 L375.08692 439.87371 L354.33071 389.76378 L375.08692 339.65385 L425.19685 318.89764 L475.30678 339.65385 L496.06299 389.76378 M496.06299 425.19685 L475.30678 475.30678 L425.19685 496.06299 L375.08692 475.30678 L354.33071 425.19685 L375.08692 375.08692 L425.19685 354.33071 L475.30678 375.08692 L496.06299 425.19685 M493.66568 460.62992 L472.90946 510.73985 L422.79953 531.49606 L372.6896 510.73985 L351.93339 460.62992 L372.6896 410.51999 L422.79953 389.76378 L472.90946 410.51999 L493.66568 460.62992 M488.81231 496.06299 L468.0561 546.17292 L417.94617 566.92913 L367.83624 546.17292 L347.08003 496.06299 L367.83624 445.95306 L417.94617 425.19685 L468.0561 445.95306 L488.81231 496.06299 M481.44957 531.49606 L460.69336 581.60599 L410.58343 602.3622 L360.4735 581.60599 L339.71728 531.49606 L360.4735 481.38613 L410.58343 460.62992 L460.69336 481.38613 L481.44957 531.49606 M471.53045 566.92913 L450.77424 617.03906 L400.66431 637.79528 L350.55438 617.03906 L329.79817 566.92913 L350.55438 516.8192 L400.66431 496.06299 L450.77424 516.8192 L471.53045 566.92913 M459.01591 602.3622 L438.2597 652.47213 L388.14977 673.22835 L338.03984 652.47213 L317.28363 602.3622 L338.03984 552.25228 L388.14977 531.49606 L438.2597 552.25228 L459.01591 602.3622 M443.87883 637.79528 L423.12262 687.9052 L373.01269 708.66142 L322.90276 687.9052 L302.14654 637.79528 L322.90276 587.68535 L373.01269 566.92913 L423.12262 587.68535 L443.87883 637.79528 M426.11166 673.22835 L405.35545 723.33828 L355.24552 744.09449 L305.13559 723.33828 L284.37938 673.22835 L305.13559 623.11842 L355.24552 602.3622 L405.35545 623.11842 L426.11166 673.22835 M405.73567 708.66142 L384.97946 758.77135 L334.86953 779.52756 L284.7596 758.77135 L264.00338 708.66142 L284.7596 658.55149 L334.86953 637.79528 L384.97946 658.55149 L405.73567 708.66142 M382.81114 744.09449 L362.05492 794.20442 L311.94499 814.96063 L261.83506 794.20442 L241.07885 744.09449 L261.83506 693.98456 L311.94499 673.22835 L362.05492 693.98456 L382.81114 744.09449 M357.44811 779.52756 L336.6919 829.63749 L286.58197 850.3937 L236.47204 829.63749 L215.71583 779.52756 L236.47204 729.41763 L286.58197 708.66142 L336.6919 729.41763 L357.44811 779.52756 M329.81664 814.96063 L309.06043 865.07056 L258.9505 885.82677 L208.84057 865.07056 L188.08436 814.96063 L208.84057 764.8507 L258.9505 744.09449 L309.06043 764.8507 L329.81664 814.96063 M300.1555 850.3937 L279.39929 900.50363 L229.28936 921.25984 L179.17943 900.50363 L158.42322 850.3937 L179.17943 800.28377 L229.28936 779.52756 L279.39929 800.28377 L300.1555 850.3937 M268.77794 885.82677 L248.02173 935.9367 L197.9118 956.69291 L147.80187 935.9367 L127.04566 885.82677 L147.80187 835.71684 L197.9118 814.96063 L248.02173 835.71684 L268.77794 885.82677 M236.07323 921.25984 L215.31702 971.36977 L165.20709 992.12598 L115.09716 971.36977 L94.34095 921.25984 L115.09716 871.14991 L165.20709 850.3937 L215.31702 871.14991 L236.07323 921.25984 M202.50278 956.69291 L181.74656 1006.80284 L131.63663 1027.55906 L81.5267 1006.80284 L60.77049 956.69291 L81.5267 906.58298 L131.63663 885.82677 L181.74656 906.58298 L202.50278 956.69291 M168.59026 992.12598 L147.83405 1042.23591 L97.72412 1062.99213 L47.61419 1042.23591 L35.43307 1012.82809 M35.43307 971.42388 L47.61419 942.01605 L97.72412 921.25984 L147.83405 942.01605 L168.59026 992.12598 M134.90606 1027.55906 L114.14985 1077.66898 L64.03992 1098.4252 L35.43307 1086.57585 M35.43307 968.54226 L64.03992 956.69291 L114.14985 977.44913 L134.90606 1027.55906 M102.04697 1062.99213 L81.29076 1113.10206 L35.43307 1132.09693 M35.43307 993.88732 L81.29076 1012.8822 L102.04697 1062.99213 M70.61315 1098.4252 L49.85694 1148.53513 L35.43307 1154.50969 M35.43307 1042.34071 L49.85694 1048.31527 L70.61315 1098.4252 M637.79528 389.76378 L617.03906 439.87371 L566.92913 460.62992 L516.8192 439.87371 L496.06299 389.76378 L516.8192 339.65385 L566.92913 318.89764 L617.03906 339.65385 L637.79528 389.76378 M646.71642 425.19685 L625.9602 475.30678 L575.85027 496.06299 L525.74034 475.30678 L504.98413 425.19685 L525.74034 375.08692 L575.85027 354.33071 L625.9602 375.08692 L646.71642 425.19685 M653.77618 460.62992 L633.01997 510.73985 L582.91004 531.49606 L532.80011 510.73985 L512.04389 460.62992 L532.80011 410.51999 L582.91004 389.76378 L633.01997 410.51999 L653.77618 460.62992 M658.95594 496.06299 L638.19973 546.17292 L588.0898 566.92913 L537.97987 546.17292 L517.22366 496.06299 L537.97987 445.95306 L588.0898 425.19685 L638.19973 445.95306 L658.95594 496.06299 M662.24172 531.49606 L641.48551 581.60599 L591.37558 602.3622 L541.26565 581.60599 L520.50944 531.49606 L541.26565 481.38613 L591.37558 460.62992 L641.48551 481.38613 L662.24172 531.49606 M663.62353 566.92913 L642.86732 617.03906 L592.75739 637.79528 L542.64746 617.03906 L521.89125 566.92913 L542.64746 516.8192 L592.75739 496.06299 L642.86732 516.8192 L663.62353 566.92913 M663.09492 602.3622 L642.33871 652.47213 L592.22878 673.22835 L542.11885 652.47213 L521.36264 602.3622 L542.11885 552.25228 L592.22878 531.49606 L642.33871 552.25228 L663.09492 602.3622 M660.65293 637.79528 L639.89672 687.9052 L589.78679 708.66142 L539.67686 687.9052 L518.92064 637.79528 L539.67686 587.68535 L589.78679 566.92913 L639.89672 587.68535 L660.65293 637.79528 M656.29829 673.22835 L635.54208 723.33828 L585.43215 744.09449 L535.32222 723.33828 L514.56601 673.22835 L535.32222 623.11842 L585.43215 602.3622 L635.54208 623.11842 L656.29829 673.22835 M650.03619 708.66142 L629.27998 758.77135 L579.17005 779.52756 L529.06012 758.77135 L508.30391 708.66142 L529.06012 658.55149 L579.17005 637.79528 L629.27998 658.55149 L650.03619 708.66142 M641.87865 744.09449 L621.12244 794.20442 L571.01251 814.96063 L520.90258 794.20442 L500.14637 744.09449 L520.90258 693.98456 L571.01251 673.22835 L621.12244 693.98456 L641.87865 744.09449 M631.84909 779.52756 L611.09288 829.63749 L560.98295 850.3937 L510.87302 829.63749 L490.11681 779.52756 L510.87302 729.41763 L560.98295 708.66142 L611.09288 729.41763 L631.84909 779.52756 M619.98776 814.96063 L599.23155 865.07056 L549.12162 885.82677 L499.01169 865.07056 L478.25548 814.96063 L499.01169 764.8507 L549.12162 744.09449 L599.23155 764.8507 L619.98776 814.96063 M606.35777 850.3937 L585.60155 900.50363 L535.49163 921.25984 L485.3817 900.50363 L464.62548 850.3937 L485.3817 800.28377 L535.49163 779.52756 L585.60155 800.28377 L606.35777 850.3937 M591.05126 885.82677 L570.29504 935.9367 L520.18511 956.69291 L470.07518 935.9367 L449.31897 885.82677 L470.07518 835.71684 L520.18511 814.96063 L570.29504 835.71684 L591.05126 885.82677 M574.19547 921.25984 L553.43926 971.36977 L503.32933 992.12598 L453.2194 971.36977 L432.46319 921.25984 L453.2194 871.14991 L503.32933 850.3937 L553.43926 871.14991 L574.19547 921.25984 M555.95806 956.69291 L535.20185 1006.80284 L485.09192 1027.55906 L434.98199 1006.80284 L414.22578 956.69291 L434.98199 906.58298 L485.09192 885.82677 L535.20185 906.58298 L555.95806 956.69291 M536.551 992.12598 L515.79479 1042.23591 L465.68486 1062.99213 L415.57493 1042.23591 L394.81871 992.12598 L415.57493 942.01605 L465.68486 921.25984 L515.79479 942.01605 L536.551 992.12598 M516.23237 1027.55906 L495.47615 1077.66898 L445.36622 1098.4252 L395.2563 1077.66898 L374.50008 1027.55906 L395.2563 977.44913 L445.36622 956.69291 L495.47615 977.44913 L516.23237 1027.55906 M495.30547 1062.99213 L474.54926 1113.10206 L424.43933 1133.85827 L374.3294 1113.10206 L353.57319 1062.99213 L374.3294 1012.8822 L424.43933 992.12598 L474.54926 1012.8822 L495.30547 1062.99213 M474.11469 1098.4252 L453.35848 1148.53513 L403.24855 1169.29134 L353.13862 1148.53513 L332.38241 1098.4252 L353.13862 1048.31527 L403.24855 1027.55906 L453.35848 1048.31527 L474.11469 1098.4252 M779.52756 389.76378 L758.77135 439.87371 L708.66142 460.62992 L658.55149 439.87371 L637.79528 389.76378 L658.55149 339.65385 L708.66142 318.89764 L758.77135 339.65385 L779.52756 389.76378 M795.383 425.19685 L774.62678 475.30678 L724.51686 496.06299 L674.40693 475.30678 L653.65071 425.19685 L674.40693 375.08692 L724.51686 354.33071 L774.62678 375.08692 L795.383 425.19685 M809.65496 460.62992 L788.89875 510.73985 L738.78882 531.49606 L688.67889 510.73985 L667.92268 460.62992 L688.67889 410.51999 L738.78882 389.76378 L788.89875 410.51999 L809.65496 460.62992 M822.35336 496.06299 L801.59715 546.17292 L751.48722 566.92913 L701.37729 546.17292 L680.62108 496.06299 L701.37729 445.95306 L751.48722 425.19685 L801.59715 445.95306 L822.35336 496.06299 M833.49318 531.49606 L812.73696 581.60599 L762.62703 602.3622 L712.5171 581.60599 L691.76089 531.49606 L712.5171 481.38613 L762.62703 460.62992 L812.73696 481.38613 L833.49318 531.49606 M843.09274 566.92913 L822.33653 617.03906 L772.2266 637.79528 L722.11667 617.03906 L701.36046 566.92913 L722.11667 516.8192 L772.2266 496.06299 L822.33653 516.8192 L843.09274 566.92913 M851.1722 602.3622 L830.41599 652.47213 L780.30606 673.22835 L730.19613 652.47213 L709.43992 602.3622 L730.19613 552.25228 L780.30606 531.49606 L830.41599 552.25228 L851.1722 602.3622 M857.75208 637.79528 L836.99586 687.9052 L786.88594 708.66142 L736.77601 687.9052 L716.01979 637.79528 L736.77601 587.68535 L786.88594 566.92913 L836.99586 587.68535 L857.75208 637.79528 M862.85208 673.22835 L842.09587 723.33828 L791.98594 744.09449 L741.87601 723.33828 L721.1198 673.22835 L741.87601 623.11842 L791.98594 602.3622 L842.09587 623.11842 L862.85208 673.22835 M866.49018 708.66142 L845.73397 758.77135 L795.62404 779.52756 L745.51411 758.77135 L724.75789 708.66142 L745.51411 658.55149 L795.62404 637.79528 L845.73397 658.55149 L866.49018 708.66142 M868.68199 744.09449 L847.92577 794.20442 L797.81584 814.96063 L747.70591 794.20442 L726.9497 744.09449 L747.70591 693.98456 L797.81584 673.22835 L847.92577 693.98456 L868.68199 744.09449 M869.44064 779.52756 L848.68442 829.63749 L798.5745 850.3937 L748.46457 829.63749 L727.70835 779.52756 L748.46457 729.41763 L798.5745 708.66142 L848.68442 729.41763 L869.44064 779.52756 M868.77705 814.96063 L848.02084 865.07056 L797.91091 885.82677 L747.80098 865.07056 L727.04477 814.96063 L747.80098 764.8507 L797.91091 744.09449 L848.02084 764.8507 L868.77705 814.96063 M866.70044 850.3937 L845.94423 900.50363 L795.8343 921.25984 L745.72437 900.50363 L724.96816 850.3937 L745.72437 800.28377 L795.8343 779.52756 L845.94423 800.28377 L866.70044 850.3937 M863.21964 885.82677 L842.46343 935.9367 L792.3535 956.69291 L742.24357 935.9367 L721.48735 885.82677 L742.24357 835.71684 L792.3535 814.96063 L842.46343 835.71684 L863.21964 885.82677 M858.34586 921.25984 L837.58964 971.36977 L787.47971 992.12598 L737.36979 971.36977 L716.61357 921.25984 L737.36979 871.14991 L787.47971 850.3937 L837.58964 871.14991 L858.34586 921.25984 M852.09606 956.69291 L831.33985 1006.80284 L781.22992 1027.55906 L731.11999 1006.80284 L710.36378 956.69291 L731.11999 906.58298 L781.22992 885.82677 L831.33985 906.58298 L852.09606 956.69291 M844.49674 992.12598 L823.74053 1042.23591 L773.6306 1062.99213 L723.52067 1042.23591 L702.76446 992.12598 L723.52067 942.01605 L773.6306 921.25984 L823.74053 942.01605 L844.49674 992.12598 M835.58787 1027.55906 L814.83166 1077.66898 L764.72173 1098.4252 L714.6118 1077.66898 L693.85558 1027.55906 L714.6118 977.44913 L764.72173 956.69291 L814.83166 977.44913 L835.58787 1027.55906 M825.42703 1062.99213 L804.67082 1113.10206 L754.56089 1133.85827 L704.45096 1113.10206 L683.69475 1062.99213 L704.45096 1012.8822 L754.56089 992.12598 L804.67082 1012.8822 L825.42703 1062.99213 M814.0933 1098.4252 L793.33709 1148.53513 L743.22716 1169.29134 L693.11723 1148.53513 L672.36102 1098.4252 L693.11723 1048.31527 L743.22716 1027.55906 L793.33709 1048.31527 L814.0933 1098.4252 M921.25984 389.76378 L900.50363 439.87371 L850.3937 460.62992 L800.28377 439.87371 L779.52756 389.76378 L800.28377 339.65385 L850.3937 318.89764 L900.50363 339.65385 L921.25984 389.76378 M942.09585 425.19685 L921.33963 475.30678 L871.2297 496.06299 L821.11978 475.30678 L800.36356 425.19685 L821.11978 375.08692 L871.2297 354.33071 L921.33963 375.08692 L942.09585 425.19685 M961.46041 460.62992 L940.70419 510.73985 L890.59426 531.49606 L840.48433 510.73985 L819.72812 460.62992 L840.48433 410.51999 L890.59426 389.76378 L940.70419 410.51999 L961.46041 460.62992 M979.3883 496.06299 L958.63208 546.17292 L908.52215 566.92913 L858.41223 546.17292 L837.65601 496.06299 L858.41223 445.95306 L908.52215 425.19685 L958.63208 445.95306 L979.3883 496.06299 M995.91952 531.49606 L975.16331 581.60599 L925.05338 602.3622 L874.94345 581.60599 L854.18723 531.49606 L874.94345 481.38613 L925.05338 460.62992 L975.16331 481.38613 L995.91952 531.49606 M1011.09724 566.92913 L990.34103 617.03906 L940.2311 637.79528 L890.12117 617.03906 L869.36496 566.92913 L890.12117 516.8192 L940.2311 496.06299 L990.34103 516.8192 L1011.09724 566.92913 M1016.92913 621.76463 L1004.20967 652.47213 L954.09974 673.22835 L903.98981 652.47213 L883.2336 602.3622 L903.98981 552.25228 L954.09974 531.49606 L1004.20967 552.25228 L1016.92913 582.95978 M1016.92913 687.62509 L1016.81311 687.9052 L966.70318 708.66142 L916.59325 687.9052 L895.83703 637.79528 L916.59325 587.68535 L966.70318 566.92913 L1016.81311 587.68535 L1016.92913 587.96546 M1016.92913 728.00393 L978.08309 744.09449 L927.97316 723.33828 L907.21694 673.22835 L927.97316 623.11842 L978.08309 602.3622 L1016.92913 618.45276 M1016.92913 767.65964 L988.27744 779.52756 L938.16751 758.77135 L917.41129 708.66142 L938.16751 658.55149 L988.27744 637.79528 L1016.92913 649.6632 M1016.92913 806.83789 L997.3191 814.96063 L947.20917 794.20442 L926.45296 744.09449 L947.20917 693.98456 L997.3191 673.22835 L1016.92913 681.35109 M1016.92913 845.54968 L1005.23462 850.3937 L955.12469 829.63749 L934.36848 779.52756 L955.12469 729.41763 L1005.23462 708.66142 L1016.92913 713.50544 M1016.92913 883.80293 L1012.04314 885.82677 L961.93321 865.07056 L941.177 814.96063 L961.93321 764.8507 L1012.04314 744.09449 L1016.92913 746.11833 M1016.92913 920.91757 L967.64553 900.50363 L946.88932 850.3937 L967.64553 800.28377 L1016.92913 779.86983 M1016.92913 954.43784 L972.26343 935.9367 L951.50722 885.82677 L972.26343 835.71684 L1016.92913 817.2157 M1016.92913 988.41464 L975.77919 971.36977 L955.02298 921.25984 L975.77919 871.14991 L1016.92913 854.10505 M1016.92913 1022.85514 L978.17545 1006.80284 L957.41924 956.69291 L978.17545 906.58298 L1016.92913 890.53068 M1016.92913 1057.77045 L979.42544 1042.23591 L958.66923 992.12598 L979.42544 942.01605 L1016.92913 926.48152 M1016.92913 1093.17522 L979.49377 1077.66898 L958.73755 1027.55906 L979.49377 977.44913 L1016.92913 961.94289 M1016.92913 1129.0871 L978.33783 1113.10206 L957.58162 1062.99213 L978.33783 1012.8822 L1016.92913 996.89715 M1016.92913 1165.52581 L975.91 1148.53513 L955.15378 1098.4252 L975.91 1048.31527 L1016.92913 1031.32458" fill="none" stroke="black" stroke-width="0.03cm" />
    </g>
</svg>