<?xml version="1.0" standalone="no"?>
  <!DOCTYPE svg PUBLIC "-//W3C//DTD SVG 1.1//EN" 
      "http://www.w3.org/Graphics/SVG/1.1/DTD/svg11.dtd">
  <svg width="29.7cm" height="42cm"
      xmlns="http://www.w3.org/2000/svg" version="1.1" viewBox="0 0 1052.3622 1488.18898">
    <g>
      <path d="M242.71654 389.76378 L241.2659 404.02903 L236.97339 417.71026 L230.01473 430.24735 L220.67482 441.12705 L209.33603 449.90392 L196.46258 456.21866 L182.5815 459.81272 L168.26108 460.53897 L154.08762 458.36767 L140.64136 453.38772 L128.4728 445.803 L118.08013 435.92403 L109.88882 424.15526 L104.23423 410.97849 L101.34784 396.93319 L101.34784 382.59437 L104.23423 368.54907 L109.88882 355.3723 L118.08013 343.60352 L128.4728 333.72455 L140.64136 326.13984 L154.08762 321.15989 L168.26108 318.98859 L182.5815 319.71484 L196.46258 323.3089 L209.33603 329.62364 L220.67482 338.40051 L230.01473 349.28021 L236.97339 361.8173 L241.2659 375.49853 L242.71654 389.76378 M247.04943 425.39082 L245.59879 439.65607 L241.30628 453.3373 L234.34762 465.8744 L225.00771 476.75409 L213.66892 485.53097 L200.79547 491.8457 L186.91439 495.43976 L172.59397 496.16601 L158.42051 493.99471 L144.97425 489.01477 L132.8057 481.43005 L122.41302 471.55108 L114.22171 459.7823 L108.56712 446.60553 L105.68073 432.56023 L105.68073 418.22141 L108.56712 404.17611 L114.22171 390.99934 L122.41302 379.23057 L132.8057 369.3516 L144.97425 361.76688 L158.42051 356.78693 L172.59397 354.61564 L186.91439 355.34189 L200.79547 358.93595 L213.66892 365.25068 L225.00771 374.02755 L234.34762 384.90725 L241.30628 397.44434 L245.59879 411.12557 L247.04943 425.39082 M251.53416 467.93784 L250.08353 482.20309 L245.79101 495.88432 L238.83236 508.42141 L229.49245 519.30111 L218.15366 528.07798 L205.2802 534.39272 L191.39912 537.98678 L177.07871 538.71303 L162.90524 536.54173 L149.45899 531.56178 L137.29043 523.97707 L126.89776 514.09809 L118.70645 502.32932 L113.05185 489.15255 L110.16547 475.10725 L110.16547 460.76843 L113.05185 446.72313 L118.70645 433.54636 L126.89776 421.77759 L137.29043 411.89861 L149.45899 404.3139 L162.90524 399.33395 L177.07871 397.16265 L191.39912 397.8889 L205.2802 401.48296 L218.15366 407.7977 L229.49245 416.57457 L238.83236 427.45427 L245.79101 439.99136 L250.08353 453.67259 L251.53416 467.93784 M255.91956 507.40758 L254.46893 521.67283 L250.17641 535.35406 L243.21776 547.89116 L233.87785 558.77085 L222.53906 567.54773 L209.6656 573.86246 L195.78452 577.45652 L181.46411 578.18277 L167.29064 576.01148 L153.84439 571.03153 L141.67583 563.44681 L131.28316 553.56784 L123.09185 541.79906 L117.43725 528.62229 L114.55087 514.57699 L114.55087 500.23818 L117.43725 486.19288 L123.09185 473.01611 L131.28316 461.24733 L141.67583 451.36836 L153.84439 443.78364 L167.29064 438.80369 L181.46411 436.6324 L195.78452 437.35865 L209.6656 440.95271 L222.53906 447.26744 L233.87785 456.04432 L243.21776 466.92401 L250.17641 479.46111 L254.46893 493.14234 L255.91956 507.40758 M260.16741 528.29065 L258.71678 542.5559 L254.42426 556.23712 L247.46561 568.77422 L238.1257 579.65391 L226.78691 588.43079 L213.91345 594.74552 L200.03237 598.33958 L185.71196 599.06583 L171.53849 596.89454 L158.09223 591.91459 L145.92368 584.32987 L135.53101 574.4509 L127.3397 562.68212 L121.6851 549.50536 L118.79872 535.46005 L118.79872 521.12124 L121.6851 507.07594 L127.3397 493.89917 L135.53101 482.13039 L145.92368 472.25142 L158.09223 464.6667 L171.53849 459.68676 L185.71196 457.51546 L200.03237 458.24171 L213.91345 461.83577 L226.78691 468.1505 L238.1257 476.92738 L247.46561 487.80707 L254.42426 500.34417 L258.71678 514.0254 L260.16741 528.29065 M264.34942 534.99191 L262.89878 549.25716 L258.60627 562.93838 L251.64762 575.47548 L242.3077 586.35517 L230.96892 595.13205 L218.09546 601.44678 L204.21438 605.04084 L189.89397 605.76709 L175.7205 603.5958 L162.27424 598.61585 L150.10569 591.03113 L139.71302 581.15216 L131.52171 569.38338 L125.86711 556.20662 L122.98073 542.16132 L122.98073 527.8225 L125.86711 513.7772 L131.52171 500.60043 L139.71302 488.83165 L150.10569 478.95268 L162.27424 471.36796 L175.7205 466.38802 L189.89397 464.21672 L204.21438 464.94297 L218.09546 468.53703 L230.96892 474.85176 L242.3077 483.62864 L251.64762 494.50833 L258.60627 507.04543 L262.89878 520.72666 L264.34942 534.99191 M268.49561 536.94094 L267.04498 551.20619 L262.75247 564.88742 L255.79381 577.42452 L246.4539 588.30421 L235.11511 597.08109 L222.24166 603.39582 L208.36058 606.98988 L194.04016 607.71613 L179.86669 605.54483 L166.42044 600.56489 L154.25188 592.98017 L143.85921 583.1012 L135.6679 571.33242 L130.0133 558.15565 L127.12692 544.11035 L127.12692 529.77154 L130.0133 515.72623 L135.6679 502.54947 L143.85921 490.78069 L154.25188 480.90172 L166.42044 473.317 L179.86669 468.33705 L194.04016 466.16576 L208.36058 466.89201 L222.24166 470.48607 L235.11511 476.8008 L246.4539 485.57768 L255.79381 496.45737 L262.75247 508.99447 L267.04498 522.67569 L268.49561 536.94094 M272.61477 537.52822 L271.16413 551.79346 L266.87162 565.47469 L259.91297 578.01179 L250.57305 588.89148 L239.23427 597.66836 L226.36081 603.98309 L212.47973 607.57715 L198.15932 608.3034 L183.98585 606.13211 L170.53959 601.15216 L158.37104 593.56744 L147.97837 583.68847 L139.78706 571.91969 L134.13246 558.74292 L131.24608 544.69762 L131.24608 530.35881 L134.13246 516.31351 L139.78706 503.13674 L147.97837 491.36796 L158.37104 481.48899 L170.53959 473.90427 L183.98585 468.92433 L198.15932 466.75303 L212.47973 467.47928 L226.36081 471.07334 L239.23427 477.38807 L250.57305 486.16495 L259.91297 497.04464 L266.87162 509.58174 L271.16413 523.26297 L272.61477 537.52822 M276.70904 537.71874 L275.2584 551.98399 L270.96589 565.66522 L264.00724 578.20231 L254.66732 589.08201 L243.32854 597.85888 L230.45508 604.17361 L216.574 607.76767 L202.25359 608.49392 L188.08012 606.32263 L174.63386 601.34268 L162.46531 593.75796 L152.07264 583.87899 L143.88133 572.11022 L138.22673 558.93345 L135.34035 544.88815 L135.34035 530.54933 L138.22673 516.50403 L143.88133 503.32726 L152.07264 491.55848 L162.46531 481.67951 L174.63386 474.09479 L188.08012 469.11485 L202.25359 466.94355 L216.574 467.6698 L230.45508 471.26386 L243.32854 477.57859 L254.66732 486.35547 L264.00724 497.23516 L270.96589 509.77226 L275.2584 523.45349 L276.70904 537.71874 M280.77848 537.79524 L279.32785 552.06049 L275.03534 565.74172 L268.07668 578.27882 L258.73677 589.15851 L247.39798 597.93539 L234.52452 604.25012 L220.64344 607.84418 L206.32303 608.57043 L192.14956 606.39913 L178.70331 601.41919 L166.53475 593.83447 L156.14208 583.9555 L147.95077 572.18672 L142.29617 559.00995 L139.40979 544.96465 L139.40979 530.62583 L142.29617 516.58053 L147.95077 503.40376 L156.14208 491.63499 L166.53475 481.75602 L178.70331 474.1713 L192.14956 469.19135 L206.32303 467.02006 L220.64344 467.7463 L234.52452 471.34037 L247.39798 477.6551 L258.73677 486.43197 L268.07668 497.31167 L275.03534 509.84876 L279.32785 523.52999 L280.77848 537.79524 M284.82242 537.84781 L283.37178 552.11306 L279.07927 565.79429 L272.12061 578.33139 L262.7807 589.21108 L251.44191 597.98796 L238.56846 604.30269 L224.68738 607.89675 L210.36696 608.623 L196.1935 606.4517 L182.74724 601.47176 L170.57868 593.88704 L160.18601 584.00807 L151.9947 572.23929 L146.34011 559.06252 L143.45372 545.01722 L143.45372 530.6784 L146.34011 516.6331 L151.9947 503.45633 L160.18601 491.68756 L170.57868 481.80859 L182.74724 474.22387 L196.1935 469.24392 L210.36696 467.07263 L224.68738 467.79888 L238.56846 471.39294 L251.44191 477.70767 L262.7807 486.48454 L272.12061 497.36424 L279.07927 509.90133 L283.37178 523.58256 L284.82242 537.84781 M288.83982 537.91021 L287.38919 552.17546 L283.09667 565.85669 L276.13802 578.39379 L266.79811 589.27348 L255.45932 598.05036 L242.58586 604.36509 L228.70478 607.95915 L214.38437 608.6854 L200.2109 606.5141 L186.76465 601.53416 L174.59609 593.94944 L164.20342 584.07047 L156.01211 572.30169 L150.35751 559.12492 L147.47113 545.07962 L147.47113 530.7408 L150.35751 516.6955 L156.01211 503.51873 L164.20342 491.74996 L174.59609 481.87099 L186.76465 474.28627 L200.2109 469.30632 L214.38437 467.13503 L228.70478 467.86128 L242.58586 471.45534 L255.45932 477.77007 L266.79811 486.54694 L276.13802 497.42664 L283.09667 509.96373 L287.38919 523.64496 L288.83982 537.91021 M292.82948 537.99911 L291.37885 552.26436 L287.08633 565.94559 L280.12768 578.48268 L270.78777 589.36238 L259.44898 598.13925 L246.57552 604.45398 L232.69444 608.04804 L218.37403 608.77429 L204.20056 606.603 L190.7543 601.62305 L178.58575 594.03833 L168.19308 584.15936 L160.00177 572.39059 L154.34717 559.21382 L151.46079 545.16852 L151.46079 530.8297 L154.34717 516.7844 L160.00177 503.60763 L168.19308 491.83885 L178.58575 481.95988 L190.7543 474.37516 L204.20056 469.39522 L218.37403 467.22392 L232.69444 467.95017 L246.57552 471.54423 L259.44898 477.85896 L270.78777 486.63584 L280.12768 497.51553 L287.08633 510.05263 L291.37885 523.73386 L292.82948 537.99911 M296.79001 538.12564 L295.33938 552.39088 L291.04687 566.07211 L284.08821 578.60921 L274.7483 589.4889 L263.40951 598.26578 L250.53606 604.58051 L236.65497 608.17457 L222.33456 608.90082 L208.16109 606.72953 L194.71484 601.74958 L182.54628 594.16486 L172.15361 584.28589 L163.9623 572.51711 L158.3077 559.34034 L155.42132 545.29504 L155.42132 530.95623 L158.3077 516.91093 L163.9623 503.73416 L172.15361 491.96538 L182.54628 482.08641 L194.71484 474.50169 L208.16109 469.52174 L222.33456 467.35045 L236.65497 468.0767 L250.53606 471.67076 L263.40951 477.98549 L274.7483 486.76237 L284.08821 497.64206 L291.04687 510.17916 L295.33938 523.86039 L296.79001 538.12564 M300.7199 538.29881 L299.26926 552.56406 L294.97675 566.24529 L288.01809 578.78238 L278.67818 589.66208 L267.33939 598.43895 L254.46594 604.75369 L240.58486 608.34775 L226.26445 609.074 L212.09098 606.9027 L198.64472 601.92275 L186.47617 594.33804 L176.0835 584.45907 L167.89218 572.69029 L162.23759 559.51352 L159.35121 545.46822 L159.35121 531.1294 L162.23759 517.0841 L167.89218 503.90733 L176.0835 492.13856 L186.47617 482.25958 L198.64472 474.67487 L212.09098 469.69492 L226.26445 467.52362 L240.58486 468.24987 L254.46594 471.84393 L267.33939 478.15867 L278.67818 486.93554 L288.01809 497.81524 L294.97675 510.35233 L299.26926 524.03356 L300.7199 538.29881 M304.61748 538.52642 L303.16685 552.79167 L298.87434 566.4729 L291.91568 579.00999 L282.57577 589.88969 L271.23698 598.66656 L258.36352 604.9813 L244.48244 608.57536 L230.16203 609.30161 L215.98856 607.13031 L202.54231 602.15036 L190.37375 594.56565 L179.98108 584.68667 L171.78977 572.9179 L166.13517 559.74113 L163.24879 545.69583 L163.24879 531.35701 L166.13517 517.31171 L171.78977 504.13494 L179.98108 492.36617 L190.37375 482.48719 L202.54231 474.90248 L215.98856 469.92253 L230.16203 467.75123 L244.48244 468.47748 L258.36352 472.07154 L271.23698 478.38628 L282.57577 487.16315 L291.91568 498.04285 L298.87434 510.57994 L303.16685 524.26117 L304.61748 538.52642 M308.48101 538.81512 L307.03037 553.08037 L302.73786 566.7616 L295.7792 579.29869 L286.43929 590.17839 L275.1005 598.95526 L262.22705 605.26999 L248.34597 608.86405 L234.02555 609.5903 L219.85209 607.41901 L206.40583 602.43906 L194.23727 594.85434 L183.8446 584.97537 L175.65329 573.2066 L169.9987 560.02983 L167.11231 545.98453 L167.11231 531.64571 L169.9987 517.60041 L175.65329 504.42364 L183.8446 492.65486 L194.23727 482.77589 L206.40583 475.19117 L219.85209 470.21123 L234.02555 468.03993 L248.34597 468.76618 L262.22705 472.36024 L275.1005 478.67497 L286.43929 487.45185 L295.7792 498.33154 L302.73786 510.86864 L307.03037 524.54987 L308.48101 538.81512 M312.30862 539.17026 L310.85799 553.43551 L306.56547 567.11674 L299.60682 579.65384 L290.26691 590.53353 L278.92812 599.31041 L266.05466 605.62514 L252.17358 609.2192 L237.85317 609.94545 L223.6797 607.77415 L210.23344 602.79421 L198.06489 595.20949 L187.67222 585.33052 L179.48091 573.56174 L173.82631 560.38497 L170.93993 546.33967 L170.93993 532.00086 L173.82631 517.95555 L179.48091 504.77879 L187.67222 493.01001 L198.06489 483.13104 L210.23344 475.54632 L223.6797 470.56637 L237.85317 468.39508 L252.17358 469.12133 L266.05466 472.71539 L278.92812 479.03012 L290.26691 487.807 L299.60682 498.68669 L306.56547 511.22379 L310.85799 524.90501 L312.30862 539.17026 M316.09842 539.59569 L314.64779 553.86094 L310.35527 567.54217 L303.39662 580.07927 L294.05671 590.95896 L282.71792 599.73584 L269.84446 606.05057 L255.96338 609.64463 L241.64297 610.37088 L227.4695 608.19958 L214.02324 603.21964 L201.85469 595.63492 L191.46202 585.75595 L183.27071 573.98717 L177.61611 560.8104 L174.72973 546.7651 L174.72973 532.42629 L177.61611 518.38098 L183.27071 505.20422 L191.46202 493.43544 L201.85469 483.55647 L214.02324 475.97175 L227.4695 470.9918 L241.64297 468.82051 L255.96338 469.54676 L269.84446 473.14082 L282.71792 479.45555 L294.05671 488.23243 L303.39662 499.11212 L310.35527 511.64922 L314.64779 525.33044 L316.09842 539.59569 M319.84847 540.09349 L318.39783 554.35874 L314.10532 568.03997 L307.14666 580.57707 L297.80675 591.45676 L286.46796 600.23364 L273.59451 606.54837 L259.71343 610.14243 L245.39301 610.86868 L231.21955 608.69738 L217.77329 603.71744 L205.60474 596.13272 L195.21206 586.25375 L187.02075 574.48497 L181.36616 561.3082 L178.47978 547.2629 L178.47978 532.92408 L181.36616 518.87878 L187.02075 505.70202 L195.21206 493.93324 L205.60474 484.05427 L217.77329 476.46955 L231.21955 471.4896 L245.39301 469.31831 L259.71343 470.04456 L273.59451 473.63862 L286.46796 479.95335 L297.80675 488.73022 L307.14666 499.60992 L314.10532 512.14701 L318.39783 525.82824 L319.84847 540.09349 M323.55684 540.66381 L322.1062 554.92906 L317.81369 568.61028 L310.85503 581.14738 L301.51512 592.02707 L290.17634 600.80395 L277.30288 607.11868 L263.4218 610.71274 L249.10139 611.43899 L234.92792 609.2677 L221.48166 604.28775 L209.31311 596.70303 L198.92044 586.82406 L190.72913 575.05528 L185.07453 561.87852 L182.18815 547.83321 L182.18815 533.4944 L185.07453 519.4491 L190.72913 506.27233 L198.92044 494.50355 L209.31311 484.62458 L221.48166 477.03986 L234.92792 472.05992 L249.10139 469.88862 L263.4218 470.61487 L277.30288 474.20893 L290.17634 480.52366 L301.51512 489.30054 L310.85503 500.18023 L317.81369 512.71733 L322.1062 526.39856 L323.55684 540.66381 M384.44882 389.76378 L382.99818 404.02903 L378.70567 417.71026 L371.74702 430.24735 L362.4071 441.12705 L351.06832 449.90392 L338.19486 456.21866 L324.31378 459.81272 L309.99337 460.53897 L295.8199 458.36767 L282.37364 453.38772 L270.20509 445.803 L259.81242 435.92403 L251.62111 424.15526 L245.96651 410.97849 L243.08013 396.93319 L243.08013 382.59437 L245.96651 368.54907 L251.62111 355.3723 L259.81242 343.60352 L270.20509 333.72455 L282.37364 326.13984 L295.8199 321.15989 L309.99337 318.98859 L324.31378 319.71484 L338.19486 323.3089 L351.06832 329.62364 L362.4071 338.40051 L371.74702 349.28021 L378.70567 361.8173 L382.99818 375.49853 L384.44882 389.76378 M388.0456 421.16433 L386.59497 435.42958 L382.30245 449.1108 L375.3438 461.6479 L366.00389 472.5276 L354.6651 481.30447 L341.79164 487.6192 L327.91056 491.21326 L313.59015 491.93951 L299.41668 489.76822 L285.97042 484.78827 L273.80187 477.20355 L263.4092 467.32458 L255.21789 455.5558 L249.56329 442.37904 L246.67691 428.33374 L246.67691 413.99492 L249.56329 399.94962 L255.21789 386.77285 L263.4092 375.00407 L273.80187 365.1251 L285.97042 357.54038 L299.41668 352.56044 L313.59015 350.38914 L327.91056 351.11539 L341.79164 354.70945 L354.6651 361.02418 L366.00389 369.80106 L375.3438 380.68075 L382.30245 393.21785 L386.59497 406.89908 L388.0456 421.16433 M391.38867 463.28724 L389.93804 477.55249 L385.64553 491.23371 L378.68687 503.77081 L369.34696 514.6505 L358.00817 523.42738 L345.13471 529.74211 L331.25363 533.33617 L316.93322 534.06242 L302.75975 531.89113 L289.3135 526.91118 L277.14494 519.32646 L266.75227 509.44749 L258.56096 497.67871 L252.90636 484.50195 L250.01998 470.45664 L250.01998 456.11783 L252.90636 442.07253 L258.56096 428.89576 L266.75227 417.12698 L277.14494 407.24801 L289.3135 399.66329 L302.75975 394.68335 L316.93322 392.51205 L331.25363 393.2383 L345.13471 396.83236 L358.00817 403.14709 L369.34696 411.92397 L378.68687 422.80366 L385.64553 435.34076 L389.93804 449.02199 L391.38867 463.28724 M394.35132 501.93102 L392.90069 516.19627 L388.60818 529.8775 L381.64952 542.41459 L372.30961 553.29429 L360.97082 562.07116 L348.09737 568.3859 L334.21628 571.97996 L319.89587 572.70621 L305.7224 570.53491 L292.27615 565.55496 L280.10759 557.97025 L269.71492 548.09127 L261.52361 536.3225 L255.86901 523.14573 L252.98263 509.10043 L252.98263 494.76161 L255.86901 480.71631 L261.52361 467.53954 L269.71492 455.77077 L280.10759 445.89179 L292.27615 438.30708 L305.7224 433.32713 L319.89587 431.15583 L334.21628 431.88208 L348.09737 435.47614 L360.97082 441.79088 L372.30961 450.56775 L381.64952 461.44745 L388.60818 473.98454 L392.90069 487.66577 L394.35132 501.93102 M397.0338 525.66722 L395.58316 539.93247 L391.29065 553.6137 L384.33199 566.1508 L374.99208 577.03049 L363.65329 585.80737 L350.77984 592.1221 L336.89876 595.71616 L322.57834 596.44241 L308.40488 594.27111 L294.95862 589.29117 L282.79007 581.70645 L272.3974 571.82748 L264.20608 560.0587 L258.55149 546.88193 L255.66511 532.83663 L255.66511 518.49782 L258.55149 504.45251 L264.20608 491.27575 L272.3974 479.50697 L282.79007 469.628 L294.95862 462.04328 L308.40488 457.06333 L322.57834 454.89204 L336.89876 455.61829 L350.77984 459.21235 L363.65329 465.52708 L374.99208 474.30396 L384.33199 485.18365 L391.29065 497.72075 L395.58316 511.40197 L397.0338 525.66722 M399.55132 538.49944 L398.10068 552.76469 L393.80817 566.44592 L386.84951 578.98301 L377.5096 589.86271 L366.17081 598.63958 L353.29736 604.95431 L339.41628 608.54838 L325.09586 609.27462 L310.9224 607.10333 L297.47614 602.12338 L285.30758 594.53866 L274.91491 584.65969 L266.7236 572.89092 L261.06901 559.71415 L258.18262 545.66885 L258.18262 531.33003 L261.06901 517.28473 L266.7236 504.10796 L274.91491 492.33918 L285.30758 482.46021 L297.47614 474.8755 L310.9224 469.89555 L325.09586 467.72425 L339.41628 468.4505 L353.29736 472.04456 L366.17081 478.35929 L377.5096 487.13617 L386.84951 498.01586 L393.80817 510.55296 L398.10068 524.23419 L399.55132 538.49944 M401.96382 545.19777 L400.51318 559.46302 L396.22067 573.14424 L389.26201 585.68134 L379.9221 596.56103 L368.58331 605.33791 L355.70986 611.65264 L341.82878 615.2467 L327.50836 615.97295 L313.3349 613.80166 L299.88864 608.82171 L287.72009 601.23699 L277.32742 591.35802 L269.1361 579.58924 L263.48151 566.41248 L260.59513 552.36717 L260.59513 538.02836 L263.48151 523.98306 L269.1361 510.80629 L277.32742 499.03751 L287.72009 489.15854 L299.88864 481.57382 L313.3349 476.59388 L327.50836 474.42258 L341.82878 475.14883 L355.70986 478.74289 L368.58331 485.05762 L379.9221 493.8345 L389.26201 504.71419 L396.22067 517.25129 L400.51318 530.93252 L401.96382 545.19777 M404.29921 548.55303 L402.84858 562.81828 L398.55606 576.49951 L391.59741 589.03661 L382.2575 599.9163 L370.91871 608.69318 L358.04525 615.00791 L344.16417 618.60197 L329.84376 619.32822 L315.67029 617.15692 L302.22404 612.17698 L290.05548 604.59226 L279.66281 594.71329 L271.4715 582.94451 L265.8169 569.76774 L262.93052 555.72244 L262.93052 541.38362 L265.8169 527.33832 L271.4715 514.16155 L279.66281 502.39278 L290.05548 492.51381 L302.22404 484.92909 L315.67029 479.94914 L329.84376 477.77785 L344.16417 478.5041 L358.04525 482.09816 L370.91871 488.41289 L382.2575 497.18976 L391.59741 508.06946 L398.55606 520.60655 L402.84858 534.28778 L404.29921 548.55303 M406.57073 550.0857 L405.1201 564.35095 L400.82758 578.03218 L393.86893 590.56928 L384.52902 601.44897 L373.19023 610.22585 L360.31677 616.54058 L346.43569 620.13464 L332.11528 620.86089 L317.94181 618.68959 L304.49555 613.70965 L292.327 606.12493 L281.93433 596.24596 L273.74302 584.47718 L268.08842 571.30041 L265.20204 557.25511 L265.20204 542.91629 L268.08842 528.87099 L273.74302 515.69423 L281.93433 503.92545 L292.327 494.04648 L304.49555 486.46176 L317.94181 481.48181 L332.11528 479.31052 L346.43569 480.03677 L360.31677 483.63083 L373.19023 489.94556 L384.52902 498.72243 L393.86893 509.60213 L400.82758 522.13923 L405.1201 535.82045 L406.57073 550.0857 M408.78494 550.61528 L407.33431 564.88053 L403.0418 578.56176 L396.08314 591.09886 L386.74323 601.97855 L375.40444 610.75543 L362.53099 617.07016 L348.6499 620.66422 L334.32949 621.39047 L320.15602 619.21917 L306.70977 614.23923 L294.54121 606.65451 L284.14854 596.77554 L275.95723 585.00676 L270.30263 571.82999 L267.41625 557.78469 L267.41625 543.44588 L270.30263 529.40057 L275.95723 516.22381 L284.14854 504.45503 L294.54121 494.57606 L306.70977 486.99134 L320.15602 482.01139 L334.32949 479.8401 L348.6499 480.56635 L362.53099 484.16041 L375.40444 490.47514 L386.74323 499.25202 L396.08314 510.13171 L403.0418 522.66881 L407.33431 536.35003 L408.78494 550.61528 M410.94529 550.58508 L409.49465 564.85033 L405.20214 578.53156 L398.24348 591.06866 L388.90357 601.94835 L377.56478 610.72523 L364.69133 617.03996 L350.81025 620.63402 L336.48983 621.36027 L322.31637 619.18897 L308.87011 614.20903 L296.70155 606.62431 L286.30888 596.74534 L278.11757 584.97656 L272.46298 571.79979 L269.57659 557.75449 L269.57659 543.41567 L272.46298 529.37037 L278.11757 516.1936 L286.30888 504.42483 L296.70155 494.54586 L308.87011 486.96114 L322.31637 481.98119 L336.48983 479.8099 L350.81025 480.53615 L364.69133 484.13021 L377.56478 490.44494 L388.90357 499.22181 L398.24348 510.10151 L405.20214 522.6386 L409.49465 536.31983 L410.94529 550.58508 M413.05367 550.23605 L411.60303 564.5013 L407.31052 578.18253 L400.35186 590.71962 L391.01195 601.59932 L379.67316 610.37619 L366.79971 616.69092 L352.91863 620.28499 L338.59821 621.01123 L324.42475 618.83994 L310.97849 613.85999 L298.80994 606.27527 L288.41726 596.3963 L280.22595 584.62753 L274.57136 571.45076 L271.68497 557.40546 L271.68497 543.06664 L274.57136 529.02134 L280.22595 515.84457 L288.41726 504.07579 L298.80994 494.19682 L310.97849 486.61211 L324.42475 481.63216 L338.59821 479.46086 L352.91863 480.18711 L366.79971 483.78117 L379.67316 490.09591 L391.01195 498.87278 L400.35186 509.75248 L407.31052 522.28957 L411.60303 535.9708 L413.05367 550.23605 M415.11125 549.69974 L413.66062 563.96499 L409.36811 577.64622 L402.40945 590.18332 L393.06954 601.06301 L381.73075 609.83989 L368.8573 616.15462 L354.97622 619.74868 L340.6558 620.47493 L326.48234 618.30363 L313.03608 613.32369 L300.86752 605.73897 L290.47485 595.86 L282.28354 584.09122 L276.62895 570.91445 L273.74256 556.86915 L273.74256 542.53033 L276.62895 528.48503 L282.28354 515.30826 L290.47485 503.53949 L300.86752 493.66052 L313.03608 486.0758 L326.48234 481.09585 L340.6558 478.92456 L354.97622 479.65081 L368.8573 483.24487 L381.73075 489.5596 L393.06954 498.33647 L402.40945 509.21617 L409.36811 521.75326 L413.66062 535.43449 L415.11125 549.69974 M417.11885 549.04848 L415.66822 563.31373 L411.3757 576.99496 L404.41705 589.53206 L395.07714 600.41175 L383.73835 609.18863 L370.86489 615.50336 L356.98381 619.09742 L342.6634 619.82367 L328.48993 617.65237 L315.04368 612.67243 L302.87512 605.08771 L292.48245 595.20874 L284.29114 583.43996 L278.63654 570.26319 L275.75016 556.21789 L275.75016 541.87907 L278.63654 527.83377 L284.29114 514.657 L292.48245 502.88823 L302.87512 493.00926 L315.04368 485.42454 L328.48993 480.44459 L342.6634 478.2733 L356.98381 478.99955 L370.86489 482.59361 L383.73835 488.90834 L395.07714 497.68521 L404.41705 508.56491 L411.3757 521.102 L415.66822 534.78323 L417.11885 549.04848 M419.07709 548.32256 L417.62646 562.58781 L413.33394 576.26904 L406.37529 588.80614 L397.03538 599.68583 L385.69659 608.46271 L372.82313 614.77744 L358.94205 618.3715 L344.62164 619.09775 L330.44817 616.92646 L317.00192 611.94651 L304.83336 604.36179 L294.44069 594.48282 L286.24938 582.71404 L280.59478 569.53727 L277.7084 555.49197 L277.7084 541.15316 L280.59478 527.10786 L286.24938 513.93109 L294.44069 502.16231 L304.83336 492.28334 L317.00192 484.69862 L330.44817 479.71867 L344.62164 477.54738 L358.94205 478.27363 L372.82313 481.86769 L385.69659 488.18242 L397.03538 496.9593 L406.37529 507.83899 L413.33394 520.37609 L417.62646 534.05732 L419.07709 548.32256 M420.98655 547.54501 L419.53591 561.81026 L415.2434 575.49149 L408.28474 588.02859 L398.94483 598.90828 L387.60604 607.68516 L374.73259 613.99989 L360.85151 617.59395 L346.53109 618.3202 L332.35763 616.1489 L318.91137 611.16895 L306.74282 603.58424 L296.35014 593.70527 L288.15883 581.93649 L282.50424 568.75972 L279.61785 554.71442 L279.61785 540.3756 L282.50424 526.3303 L288.15883 513.15353 L296.35014 501.38476 L306.74282 491.50579 L318.91137 483.92107 L332.35763 478.94112 L346.53109 476.76983 L360.85151 477.49607 L374.73259 481.09014 L387.60604 487.40487 L398.94483 496.18174 L408.28474 507.06144 L415.2434 519.59853 L419.53591 533.27976 L420.98655 547.54501 M422.84777 546.72953 L421.39714 560.99478 L417.10462 574.67601 L410.14597 587.21311 L400.80606 598.0928 L389.46727 606.86968 L376.59381 613.18441 L362.71273 616.77847 L348.39232 617.50472 L334.21885 615.33342 L320.77259 610.35348 L308.60404 602.76876 L298.21137 592.88979 L290.02006 581.12101 L284.36546 567.94424 L281.47908 553.89894 L281.47908 539.56012 L284.36546 525.51482 L290.02006 512.33806 L298.21137 500.56928 L308.60404 490.69031 L320.77259 483.10559 L334.21885 478.12564 L348.39232 475.95435 L362.71273 476.6806 L376.59381 480.27466 L389.46727 486.58939 L400.80606 495.36626 L410.14597 506.24596 L417.10462 518.78306 L421.39714 532.46428 L422.84777 546.72953 M424.66133 545.88482 L423.21069 560.15007 L418.91818 573.8313 L411.95952 586.36839 L402.61961 597.24809 L391.28082 606.02496 L378.40737 612.33969 L364.52629 615.93376 L350.20588 616.66 L336.03241 614.48871 L322.58615 609.50876 L310.4176 601.92404 L300.02493 592.04507 L291.83362 580.2763 L286.17902 567.09953 L283.29264 553.05423 L283.29264 538.71541 L286.17902 524.67011 L291.83362 511.49334 L300.02493 499.72456 L310.4176 489.84559 L322.58615 482.26088 L336.03241 477.28093 L350.20588 475.10963 L364.52629 475.83588 L378.40737 479.42994 L391.28082 485.74468 L402.61961 494.52155 L411.95952 505.40124 L418.91818 517.93834 L423.21069 531.61957 L424.66133 545.88482 M426.42781 545.01682 L424.97717 559.28207 L420.68466 572.9633 L413.726 585.5004 L404.38609 596.38009 L393.0473 605.15697 L380.17385 611.4717 L366.29277 615.06576 L351.97235 615.79201 L337.79889 613.62071 L324.35263 608.64076 L312.18408 601.05605 L301.7914 591.17708 L293.60009 579.4083 L287.9455 566.23153 L285.05912 552.18623 L285.05912 537.84741 L287.9455 523.80211 L293.60009 510.62534 L301.7914 498.85657 L312.18408 488.9776 L324.35263 481.39288 L337.79889 476.41293 L351.97235 474.24164 L366.29277 474.96788 L380.17385 478.56195 L393.0473 484.87668 L404.38609 493.65355 L413.726 504.53325 L420.68466 517.07034 L424.97717 530.75157 L426.42781 545.01682 M428.14782 544.12997 L426.69719 558.39522 L422.40468 572.07645 L415.44602 584.61354 L406.10611 595.49324 L394.76732 604.27011 L381.89387 610.58485 L368.01278 614.17891 L353.69237 614.90516 L339.5189 612.73386 L326.07265 607.75391 L313.90409 600.1692 L303.51142 590.29022 L295.32011 578.52145 L289.66551 565.34468 L286.77913 551.29938 L286.77913 536.96056 L289.66551 522.91526 L295.32011 509.73849 L303.51142 497.96972 L313.90409 488.09074 L326.07265 480.50603 L339.5189 475.52608 L353.69237 473.35478 L368.01278 474.08103 L381.89387 477.67509 L394.76732 483.98983 L406.10611 492.7667 L415.44602 503.6464 L422.40468 516.18349 L426.69719 529.86472 L428.14782 544.12997 M429.82202 543.22782 L428.37139 557.49307 L424.07887 571.1743 L417.12022 583.7114 L407.78031 594.59109 L396.44152 603.36797 L383.56806 609.6827 L369.68698 613.27676 L355.36657 614.00301 L341.1931 611.83171 L327.74684 606.85177 L315.57829 599.26705 L305.18562 589.38808 L296.99431 577.6193 L291.33971 564.44253 L288.45333 550.39723 L288.45333 536.05841 L291.33971 522.01311 L296.99431 508.83635 L305.18562 497.06757 L315.57829 487.1886 L327.74684 479.60388 L341.1931 474.62393 L355.36657 472.45264 L369.68698 473.17889 L383.56806 476.77295 L396.44152 483.08768 L407.78031 491.86455 L417.12022 502.74425 L424.07887 515.28135 L428.37139 528.96257 L429.82202 543.22782 M526.1811 389.76378 L524.73047 404.02903 L520.43796 417.71026 L513.4793 430.24735 L504.13939 441.12705 L492.8006 449.90392 L479.92714 456.21866 L466.04606 459.81272 L451.72565 460.53897 L437.55218 458.36767 L424.10593 453.38772 L411.93737 445.803 L401.5447 435.92403 L393.35339 424.15526 L387.69879 410.97849 L384.81241 396.93319 L384.81241 382.59437 L387.69879 368.54907 L393.35339 355.3723 L401.5447 343.60352 L411.93737 333.72455 L424.10593 326.13984 L437.55218 321.15989 L451.72565 318.98859 L466.04606 319.71484 L479.92714 323.3089 L492.8006 329.62364 L504.13939 338.40051 L513.4793 349.28021 L520.43796 361.8173 L524.73047 375.49853 L526.1811 389.76378 M524.24272 430.14763 L522.79209 444.41288 L518.49957 458.09411 L511.54092 470.63121 L502.20101 481.5109 L490.86222 490.28778 L477.98876 496.60251 L464.10768 500.19657 L449.78727 500.92282 L435.6138 498.75152 L422.16754 493.77158 L409.99899 486.18686 L399.60632 476.30789 L391.41501 464.53911 L385.76041 451.36234 L382.87403 437.31704 L382.87403 422.97822 L385.76041 408.93292 L391.41501 395.75615 L399.60632 383.98738 L409.99899 374.10841 L422.16754 366.52369 L435.6138 361.54374 L449.78727 359.37245 L464.10768 360.0987 L477.98876 363.69276 L490.86222 370.00749 L502.20101 378.78436 L511.54092 389.66406 L518.49957 402.20115 L522.79209 415.88238 L524.24272 430.14763 M522.41641 449.75859 L520.96577 464.02384 L516.67326 477.70507 L509.7146 490.24216 L500.37469 501.12186 L489.0359 509.89873 L476.16245 516.21347 L462.28137 519.80753 L447.96095 520.53378 L433.78749 518.36248 L420.34123 513.38253 L408.17267 505.79782 L397.78 495.91884 L389.58869 484.15007 L383.9341 470.9733 L381.04771 456.928 L381.04771 442.58918 L383.9341 428.54388 L389.58869 415.36711 L397.78 403.59834 L408.17267 393.71936 L420.34123 386.13465 L433.78749 381.1547 L447.96095 378.9834 L462.28137 379.70965 L476.16245 383.30371 L489.0359 389.61845 L500.37469 398.39532 L509.7146 409.27502 L516.67326 421.81211 L520.96577 435.49334 L522.41641 449.75859 M520.67637 455.97258 L519.22574 470.23783 L514.93323 483.91906 L507.97457 496.45615 L498.63466 507.33585 L487.29587 516.11272 L474.42241 522.42745 L460.54133 526.02151 L446.22092 526.74776 L432.04745 524.57647 L418.6012 519.59652 L406.43264 512.0118 L396.03997 502.13283 L387.84866 490.36406 L382.19406 477.18729 L379.30768 463.14199 L379.30768 448.80317 L382.19406 434.75787 L387.84866 421.5811 L396.03997 409.81232 L406.43264 399.93335 L418.6012 392.34863 L432.04745 387.36869 L446.22092 385.19739 L460.54133 385.92364 L474.42241 389.5177 L487.29587 395.83243 L498.63466 404.60931 L507.97457 415.489 L514.93323 428.0261 L519.22574 441.70733 L520.67637 455.97258 M519.01086 458.67041 L517.56022 472.93565 L513.26771 486.61688 L506.30905 499.15398 L496.96914 510.03367 L485.63035 518.81055 L472.7569 525.12528 L458.87582 528.71934 L444.5554 529.44559 L430.38194 527.2743 L416.93568 522.29435 L404.76713 514.70963 L394.37445 504.83066 L386.18314 493.06188 L380.52855 479.88511 L377.64216 465.83981 L377.64216 451.501 L380.52855 437.4557 L386.18314 424.27893 L394.37445 412.51015 L404.76713 402.63118 L416.93568 395.04646 L430.38194 390.06651 L444.5554 387.89522 L458.87582 388.62147 L472.7569 392.21553 L485.63035 398.53026 L496.96914 407.30714 L506.30905 418.18683 L513.26771 430.72393 L517.56022 444.40516 L519.01086 458.67041 M517.41504 460.55308 L515.9644 474.81833 L511.67189 488.49956 L504.71323 501.03666 L495.37332 511.91635 L484.03453 520.69323 L471.16108 527.00796 L457.28 530.60202 L442.95958 531.32827 L428.78612 529.15697 L415.33986 524.17702 L403.17131 516.59231 L392.77864 506.71334 L384.58732 494.94456 L378.93273 481.76779 L376.04635 467.72249 L376.04635 453.38367 L378.93273 439.33837 L384.58732 426.1616 L392.77864 414.39283 L403.17131 404.51386 L415.33986 396.92914 L428.78612 391.94919 L442.95958 389.7779 L457.28 390.50414 L471.16108 394.09821 L484.03453 400.41294 L495.37332 409.18981 L504.71323 420.06951 L511.67189 432.6066 L515.9644 446.28783 L517.41504 460.55308 M515.88578 462.20694 L514.43515 476.47219 L510.14263 490.15342 L503.18398 502.69052 L493.84407 513.57021 L482.50528 522.34709 L469.63182 528.66182 L455.75074 532.25588 L441.43033 532.98213 L427.25686 530.81083 L413.8106 525.83088 L401.64205 518.24617 L391.24938 508.3672 L383.05807 496.59842 L377.40347 483.42165 L374.51709 469.37635 L374.51709 455.03753 L377.40347 440.99223 L383.05807 427.81546 L391.24938 416.04669 L401.64205 406.16772 L413.8106 398.583 L427.25686 393.60305 L441.43033 391.43176 L455.75074 392.158 L469.63182 395.75207 L482.50528 402.0668 L493.84407 410.84367 L503.18398 421.72337 L510.14263 434.26046 L514.43515 447.94169 L515.88578 462.20694 M514.42036 463.75922 L512.96972 478.02446 L508.67721 491.70569 L501.71855 504.24279 L492.37864 515.12248 L481.03985 523.89936 L468.1664 530.21409 L454.28532 533.80815 L439.9649 534.5344 L425.79144 532.36311 L412.34518 527.38316 L400.17662 519.79844 L389.78395 509.91947 L381.59264 498.15069 L375.93805 484.97392 L373.05166 470.92862 L373.05166 456.58981 L375.93805 442.54451 L381.59264 429.36774 L389.78395 417.59896 L400.17662 407.71999 L412.34518 400.13527 L425.79144 395.15533 L439.9649 392.98403 L454.28532 393.71028 L468.1664 397.30434 L481.03985 403.61907 L492.37864 412.39595 L501.71855 423.27564 L508.67721 435.81274 L512.96972 449.49397 L514.42036 463.75922 M513.01618 465.23931 L511.56555 479.50456 L507.27303 493.18579 L500.31438 505.72288 L490.97446 516.60258 L479.63568 525.37945 L466.76222 531.69418 L452.88114 535.28825 L438.56073 536.01449 L424.38726 533.8432 L410.941 528.86325 L398.77245 521.27853 L388.37978 511.39956 L380.18847 499.63079 L374.53387 486.45402 L371.64749 472.40872 L371.64749 458.0699 L374.53387 444.0246 L380.18847 430.84783 L388.37978 419.07905 L398.77245 409.20008 L410.941 401.61537 L424.38726 396.63542 L438.56073 394.46412 L452.88114 395.19037 L466.76222 398.78443 L479.63568 405.09916 L490.97446 413.87604 L500.31438 424.75573 L507.27303 437.29283 L511.56555 450.97406 L513.01618 465.23931 M511.67075 466.65568 L510.22012 480.92092 L505.9276 494.60215 L498.96895 507.13925 L489.62904 518.01894 L478.29025 526.79582 L465.41679 533.11055 L451.53571 536.70461 L437.2153 537.43086 L423.04183 535.25957 L409.59558 530.27962 L397.42702 522.6949 L387.03435 512.81593 L378.84304 501.04715 L373.18844 487.87038 L370.30206 473.82508 L370.30206 459.48627 L373.18844 445.44097 L378.84304 432.2642 L387.03435 420.49542 L397.42702 410.61645 L409.59558 403.03173 L423.04183 398.05178 L437.2153 395.88049 L451.53571 396.60674 L465.41679 400.2008 L478.29025 406.51553 L489.62904 415.29241 L498.96895 426.1721 L505.9276 438.7092 L510.22012 452.39043 L511.67075 466.65568 M510.38165 468.0122 L508.93102 482.27745 L504.63851 495.95868 L497.67985 508.49577 L488.33994 519.37547 L477.00115 528.15234 L464.12769 534.46707 L450.24661 538.06113 L435.9262 538.78738 L421.75273 536.61609 L408.30648 531.63614 L396.13792 524.05142 L385.74525 514.17245 L377.55394 502.40367 L371.89934 489.22691 L369.01296 475.18161 L369.01296 460.84279 L371.89934 446.79749 L377.55394 433.62072 L385.74525 421.85194 L396.13792 411.97297 L408.30648 404.38825 L421.75273 399.40831 L435.9262 397.23701 L450.24661 397.96326 L464.12769 401.55732 L477.00115 407.87205 L488.33994 416.64893 L497.67985 427.52862 L504.63851 440.06572 L508.93102 453.74695 L510.38165 468.0122 M509.14654 469.31169 L507.69591 483.57694 L503.4034 497.25817 L496.44474 509.79527 L487.10483 520.67496 L475.76604 529.45184 L462.89258 535.76657 L449.0115 539.36063 L434.69109 540.08688 L420.51762 537.91558 L407.07137 532.93563 L394.90281 525.35092 L384.51014 515.47195 L376.31883 503.70317 L370.66423 490.5264 L367.77785 476.4811 L367.77785 462.14228 L370.66423 448.09698 L376.31883 434.92021 L384.51014 423.15144 L394.90281 413.27247 L407.07137 405.68775 L420.51762 400.7078 L434.69109 398.53651 L449.0115 399.26275 L462.89258 402.85682 L475.76604 409.17155 L487.10483 417.94842 L496.44474 428.82812 L503.4034 441.36521 L507.69591 455.04644 L509.14654 469.31169 M507.96316 470.55666 L506.51253 484.82191 L502.22001 498.50314 L495.26136 511.04024 L485.92145 521.91993 L474.58266 530.69681 L461.7092 537.01154 L447.82812 540.6056 L433.50771 541.33185 L419.33424 539.16055 L405.88798 534.18061 L393.71943 526.59589 L383.32676 516.71692 L375.13545 504.94814 L369.48085 491.77137 L366.59447 477.72607 L366.59447 463.38725 L369.48085 449.34195 L375.13545 436.16518 L383.32676 424.39641 L393.71943 414.51744 L405.88798 406.93272 L419.33424 401.95277 L433.50771 399.78148 L447.82812 400.50773 L461.7092 404.10179 L474.58266 410.41652 L485.92145 419.19339 L495.26136 430.07309 L502.22001 442.61018 L506.51253 456.29141 L507.96316 470.55666 M506.82932 471.74947 L505.37869 486.01472 L501.08618 499.69595 L494.12752 512.23305 L484.78761 523.11274 L473.44882 531.88962 L460.57536 538.20435 L446.69428 541.79841 L432.37387 542.52466 L418.2004 540.35336 L404.75415 535.37342 L392.58559 527.7887 L382.19292 517.90973 L374.00161 506.14095 L368.34701 492.96418 L365.46063 478.91888 L365.46063 464.58006 L368.34701 450.53476 L374.00161 437.358 L382.19292 425.58922 L392.58559 415.71025 L404.75415 408.12553 L418.2004 403.14558 L432.37387 400.97429 L446.69428 401.70054 L460.57536 405.2946 L473.44882 411.60933 L484.78761 420.3862 L494.12752 431.2659 L501.08618 443.803 L505.37869 457.48422 L506.82932 471.74947 M505.74293 472.89238 L504.2923 487.15763 L499.99979 500.83886 L493.04113 513.37595 L483.70122 524.25565 L472.36243 533.03252 L459.48897 539.34725 L445.60789 542.94131 L431.28748 543.66756 L417.11401 541.49627 L403.66776 536.51632 L391.4992 528.9316 L381.10653 519.05263 L372.91522 507.28386 L367.26062 494.10709 L364.37424 480.06179 L364.37424 465.72297 L367.26062 451.67767 L372.91522 438.5009 L381.10653 426.73212 L391.4992 416.85315 L403.66776 409.26843 L417.11401 404.28849 L431.28748 402.11719 L445.60789 402.84344 L459.48897 406.4375 L472.36243 412.75223 L483.70122 421.52911 L493.04113 432.4088 L499.99979 444.9459 L504.2923 458.62713 L505.74293 472.89238 M504.70197 473.98754 L503.25134 488.25279 L498.95882 501.93401 L492.00017 514.47111 L482.66026 525.35081 L471.32147 534.12768 L458.44801 540.44241 L444.56693 544.03647 L430.24652 544.76272 L416.07305 542.59143 L402.62679 537.61148 L390.45824 530.02676 L380.06557 520.14779 L371.87426 508.37901 L366.21966 495.20225 L363.33328 481.15695 L363.33328 466.81813 L366.21966 452.77283 L371.87426 439.59606 L380.06557 427.82728 L390.45824 417.94831 L402.62679 410.36359 L416.07305 405.38365 L430.24652 403.21235 L444.56693 403.9386 L458.44801 407.53266 L471.32147 413.84739 L482.66026 422.62427 L492.00017 433.50396 L498.95882 446.04106 L503.25134 459.72229 L504.70197 473.98754 M503.70449 475.03701 L502.25386 489.30226 L497.96135 502.98349 L491.00269 515.52059 L481.66278 526.40028 L470.32399 535.17716 L457.45054 541.49189 L443.56945 545.08595 L429.24904 545.8122 L415.07557 543.64091 L401.62932 538.66096 L389.46076 531.07624 L379.06809 521.19727 L370.87678 509.42849 L365.22218 496.25172 L362.3358 482.20642 L362.3358 467.86761 L365.22218 453.82231 L370.87678 440.64554 L379.06809 428.87676 L389.46076 418.99779 L401.62932 411.41307 L415.07557 406.43312 L429.24904 404.26183 L443.56945 404.98808 L457.45054 408.58214 L470.32399 414.89687 L481.66278 423.67375 L491.00269 434.55344 L497.96135 447.09054 L502.25386 460.77177 L503.70449 475.03701 M502.74864 476.04279 L501.29801 490.30804 L497.0055 503.98927 L490.04684 516.52637 L480.70693 527.40606 L469.36814 536.18293 L456.49468 542.49767 L442.6136 546.09173 L428.29319 546.81798 L414.11972 544.64668 L400.67347 539.66673 L388.50491 532.08202 L378.11224 522.20305 L369.92093 510.43427 L364.26633 497.2575 L361.37995 483.2122 L361.37995 468.87338 L364.26633 454.82808 L369.92093 441.65131 L378.11224 429.88254 L388.50491 420.00357 L400.67347 412.41885 L414.11972 407.4389 L428.29319 405.26761 L442.6136 405.99385 L456.49468 409.58792 L469.36814 415.90265 L480.70693 424.67952 L490.04684 435.55922 L497.0055 448.09631 L501.29801 461.77754 L502.74864 476.04279 M501.83263 477.00676 L500.38199 491.27201 L496.08948 504.95324 L489.13082 517.49033 L479.79091 528.37003 L468.45212 537.1469 L455.57867 543.46163 L441.69759 547.05569 L427.37718 547.78194 L413.20371 545.61065 L399.75745 540.6307 L387.5889 533.04598 L377.19623 523.16701 L369.00492 511.39823 L363.35032 498.22147 L360.46394 484.17617 L360.46394 469.83735 L363.35032 455.79205 L369.00492 442.61528 L377.19623 430.8465 L387.5889 420.96753 L399.75745 413.38281 L413.20371 408.40287 L427.37718 406.23157 L441.69759 406.95782 L455.57867 410.55188 L468.45212 416.86661 L479.79091 425.64349 L489.13082 436.52318 L496.08948 449.06028 L500.38199 462.74151 L501.83263 477.00676 M500.95474 477.93072 L499.5041 492.19597 L495.21159 505.8772 L488.25294 518.4143 L478.91302 529.29399 L467.57424 538.07087 L454.70078 544.3856 L440.8197 547.97966 L426.49929 548.70591 L412.32582 546.53461 L398.87956 541.55467 L386.71101 533.96995 L376.31834 524.09098 L368.12703 512.3222 L362.47243 499.14543 L359.58605 485.10013 L359.58605 470.76132 L362.47243 456.71601 L368.12703 443.53925 L376.31834 431.77047 L386.71101 421.8915 L398.87956 414.30678 L412.32582 409.32683 L426.49929 407.15554 L440.8197 407.88179 L454.70078 411.47585 L467.57424 417.79058 L478.91302 426.56746 L488.25294 437.44715 L495.21159 449.98425 L499.5041 463.66547 L500.95474 477.93072 M500.11333 478.81642 L498.6627 493.08167 L494.37019 506.7629 L487.41153 519.3 L478.07162 530.17969 L466.73283 538.95657 L453.85938 545.2713 L439.9783 548.86536 L425.65788 549.59161 L411.48442 547.42031 L398.03816 542.44037 L385.8696 534.85565 L375.47693 524.97668 L367.28562 513.2079 L361.63103 500.03113 L358.74464 485.98583 L358.74464 471.64701 L361.63103 457.60171 L367.28562 444.42495 L375.47693 432.65617 L385.8696 422.7772 L398.03816 415.19248 L411.48442 410.21253 L425.65788 408.04124 L439.9783 408.76749 L453.85938 412.36155 L466.73283 418.67628 L478.07162 427.45315 L487.41153 438.33285 L494.37019 450.86994 L498.6627 464.55117 L500.11333 478.81642 M667.91339 389.76378 L666.46275 404.02903 L662.17024 417.71026 L655.21158 430.24735 L645.87167 441.12705 L634.53288 449.90392 L621.65943 456.21866 L607.77835 459.81272 L593.45793 460.53897 L579.28447 458.36767 L565.83821 453.38772 L553.66965 445.803 L543.27698 435.92403 L535.08567 424.15526 L529.43108 410.97849 L526.54469 396.93319 L526.54469 382.59437 L529.43108 368.54907 L535.08567 355.3723 L543.27698 343.60352 L553.66965 333.72455 L565.83821 326.13984 L579.28447 321.15989 L593.45793 318.98859 L607.77835 319.71484 L621.65943 323.3089 L634.53288 329.62364 L645.87167 338.40051 L655.21158 349.28021 L662.17024 361.8173 L666.46275 375.49853 L667.91339 389.76378 M663.19441 353.13292 L661.74377 367.39817 L657.45126 381.07939 L650.4926 393.61649 L641.15269 404.49619 L629.81391 413.27306 L616.94045 419.58779 L603.05937 423.18185 L588.73896 423.9081 L574.56549 421.73681 L561.11923 416.75686 L548.95068 409.17214 L538.55801 399.29317 L530.3667 387.52439 L524.7121 374.34763 L521.82572 360.30233 L521.82572 345.96351 L524.7121 331.91821 L530.3667 318.74144 L538.55801 306.97266 L548.95068 297.09369 L561.11923 289.50897 L574.56549 284.52903 L588.73896 282.35773 L603.05937 283.08398 L616.94045 286.67804 L629.81391 292.99277 L641.15269 301.76965 L650.4926 312.64934 L657.45126 325.18644 L661.74377 338.86767 L663.19441 353.13292 M658.64863 333.0242 L657.198 347.28945 L652.90548 360.97068 L645.94683 373.50778 L636.60692 384.38747 L625.26813 393.16435 L612.39467 399.47908 L598.51359 403.07314 L584.19318 403.79939 L570.01971 401.62809 L556.57345 396.64815 L544.4049 389.06343 L534.01223 379.18446 L525.82092 367.41568 L520.16632 354.23891 L517.27994 340.19361 L517.27994 325.85479 L520.16632 311.80949 L525.82092 298.63273 L534.01223 286.86395 L544.4049 276.98498 L556.57345 269.40026 L570.01971 264.42031 L584.19318 262.24902 L598.51359 262.97527 L612.39467 266.56933 L625.26813 272.88406 L636.60692 281.66093 L645.94683 292.54063 L652.90548 305.07773 L657.198 318.75895 L658.64863 333.0242 M654.24083 322.61171 L652.7902 336.87696 L648.49769 350.55819 L641.53903 363.09528 L632.19912 373.97498 L620.86033 382.75185 L607.98688 389.06659 L594.10579 392.66065 L579.78538 393.3869 L565.61191 391.2156 L552.16566 386.23565 L539.9971 378.65094 L529.60443 368.77197 L521.41312 357.00319 L515.75852 343.82642 L512.87214 329.78112 L512.87214 315.4423 L515.75852 301.397 L521.41312 288.22023 L529.60443 276.45146 L539.9971 266.57249 L552.16566 258.98777 L565.61191 254.00782 L579.78538 251.83653 L594.10579 252.56277 L607.98688 256.15684 L620.86033 262.47157 L632.19912 271.24844 L641.53903 282.12814 L648.49769 294.66523 L652.7902 308.34646 L654.24083 322.61171 M649.93088 317.33565 L648.48024 331.6009 L644.18773 345.28213 L637.22907 357.81922 L627.88916 368.69892 L616.55037 377.47579 L603.67692 383.79053 L589.79584 387.38459 L575.47542 388.11084 L561.30196 385.93954 L547.8557 380.95959 L535.68714 373.37488 L525.29447 363.4959 L517.10316 351.72713 L511.44857 338.55036 L508.56218 324.50506 L508.56218 310.16624 L511.44857 296.12094 L517.10316 282.94417 L525.29447 271.1754 L535.68714 261.29642 L547.8557 253.71171 L561.30196 248.73176 L575.47542 246.56046 L589.79584 247.28671 L603.67692 250.88077 L616.55037 257.19551 L627.88916 265.97238 L637.22907 276.85208 L644.18773 289.38917 L648.48024 303.0704 L649.93088 317.33565 M645.68963 314.91741 L644.239 329.18266 L639.94648 342.86389 L632.98783 355.40099 L623.64792 366.28068 L612.30913 375.05756 L599.43567 381.37229 L585.55459 384.96635 L571.23418 385.6926 L557.06071 383.5213 L543.61445 378.54136 L531.4459 370.95664 L521.05323 361.07767 L512.86192 349.30889 L507.20732 336.13212 L504.32094 322.08682 L504.32094 307.748 L507.20732 293.7027 L512.86192 280.52594 L521.05323 268.75716 L531.4459 258.87819 L543.61445 251.29347 L557.06071 246.31352 L571.23418 244.14223 L585.55459 244.86848 L599.43567 248.46254 L612.30913 254.77727 L623.64792 263.55415 L632.98783 274.43384 L639.94648 286.97094 L644.239 300.65216 L645.68963 314.91741 M641.49769 314.21696 L640.04705 328.48221 L635.75454 342.16344 L628.79589 354.70053 L619.45597 365.58023 L608.11719 374.3571 L595.24373 380.67184 L581.36265 384.2659 L567.04224 384.99215 L552.86877 382.82085 L539.42251 377.8409 L527.25396 370.25619 L516.86129 360.37722 L508.66998 348.60844 L503.01538 335.43167 L500.129 321.38637 L500.129 307.04755 L503.01538 293.00225 L508.66998 279.82548 L516.86129 268.05671 L527.25396 258.17774 L539.42251 250.59302 L552.86877 245.61307 L567.04224 243.44178 L581.36265 244.16802 L595.24373 247.76209 L608.11719 254.07682 L619.45597 262.85369 L628.79589 273.73339 L635.75454 286.27048 L640.04705 299.95171 L641.49769 314.21696 M637.3422 314.64806 L635.89156 328.91331 L631.59905 342.59454 L624.64039 355.13163 L615.30048 366.01133 L603.96169 374.7882 L591.08824 381.10293 L577.20716 384.69699 L562.88674 385.42324 L548.71328 383.25195 L535.26702 378.272 L523.09847 370.68728 L512.70579 360.80831 L504.51448 349.03954 L498.85989 335.86277 L495.9735 321.81747 L495.9735 307.47865 L498.85989 293.43335 L504.51448 280.25658 L512.70579 268.4878 L523.09847 258.60883 L535.26702 251.02411 L548.71328 246.04417 L562.88674 243.87287 L577.20716 244.59912 L591.08824 248.19318 L603.96169 254.50791 L615.30048 263.28479 L624.64039 274.16448 L631.59905 286.70158 L635.89156 300.38281 L637.3422 314.64806 M633.21442 315.90896 L631.76379 330.17421 L627.47127 343.85544 L620.51262 356.39254 L611.17271 367.27223 L599.83392 376.04911 L586.96046 382.36384 L573.07938 385.9579 L558.75897 386.68415 L544.5855 384.51285 L531.13924 379.5329 L518.97069 371.94819 L508.57802 362.06922 L500.38671 350.30044 L494.73211 337.12367 L491.84573 323.07837 L491.84573 308.73955 L494.73211 294.69425 L500.38671 281.51748 L508.57802 269.74871 L518.97069 259.86974 L531.13924 252.28502 L544.5855 247.30507 L558.75897 245.13378 L573.07938 245.86002 L586.96046 249.45409 L599.83392 255.76882 L611.17271 264.54569 L620.51262 275.42539 L627.47127 287.96248 L631.76379 301.64371 L633.21442 315.90896 M629.10816 317.85395 L627.65752 332.1192 L623.36501 345.80043 L616.40635 358.33752 L607.06644 369.21722 L595.72765 377.99409 L582.8542 384.30882 L568.97312 387.90289 L554.6527 388.62913 L540.47924 386.45784 L527.03298 381.47789 L514.86443 373.89317 L504.47176 364.0142 L496.28044 352.24543 L490.62585 339.06866 L487.73947 325.02336 L487.73947 310.68454 L490.62585 296.63924 L496.28044 283.46247 L504.47176 271.69369 L514.86443 261.81472 L527.03298 254.23001 L540.47924 249.25006 L554.6527 247.07876 L568.97312 247.80501 L582.8542 251.39907 L595.72765 257.71381 L607.06644 266.49068 L616.40635 277.37038 L623.36501 289.90747 L627.65752 303.5887 L629.10816 317.85395 M625.0188 320.42865 L623.56816 334.6939 L619.27565 348.37512 L612.31699 360.91222 L602.97708 371.79192 L591.63829 380.56879 L578.76484 386.88352 L564.88376 390.47758 L550.56334 391.20383 L536.38988 389.03254 L522.94362 384.05259 L510.77506 376.46787 L500.38239 366.5889 L492.19108 354.82012 L486.53649 341.64336 L483.6501 327.59806 L483.6501 313.25924 L486.53649 299.21394 L492.19108 286.03717 L500.38239 274.26839 L510.77506 264.38942 L522.94362 256.8047 L536.38988 251.82476 L550.56334 249.65346 L564.88376 250.37971 L578.76484 253.97377 L591.63829 260.2885 L602.97708 269.06538 L612.31699 279.94507 L619.27565 292.48217 L623.56816 306.1634 L625.0188 320.42865 M620.94279 323.63495 L619.49215 337.9002 L615.19964 351.58143 L608.24098 364.11852 L598.90107 374.99822 L587.56229 383.77509 L574.68883 390.08983 L560.80775 393.68389 L546.48734 394.41014 L532.31387 392.23884 L518.86761 387.25889 L506.69906 379.67418 L496.30639 369.79521 L488.11508 358.02643 L482.46048 344.84966 L479.5741 330.80436 L479.5741 316.46554 L482.46048 302.42024 L488.11508 289.24347 L496.30639 277.4747 L506.69906 267.59572 L518.86761 260.01101 L532.31387 255.03106 L546.48734 252.85976 L560.80775 253.58601 L574.68883 257.18007 L587.56229 263.49481 L598.90107 272.27168 L608.24098 283.15138 L615.19964 295.68847 L619.49215 309.3697 L620.94279 323.63495 M616.87747 327.50894 L615.42683 341.77419 L611.13432 355.45542 L604.17566 367.99251 L594.83575 378.87221 L583.49696 387.64908 L570.62351 393.96382 L556.74243 397.55788 L542.42201 398.28413 L528.24855 396.11283 L514.80229 391.13288 L502.63373 383.54817 L492.24106 373.66919 L484.04975 361.90042 L478.39516 348.72365 L475.50877 334.67835 L475.50877 320.33953 L478.39516 306.29423 L484.04975 293.11746 L492.24106 281.34869 L502.63373 271.46971 L514.80229 263.885 L528.24855 258.90505 L542.42201 256.73375 L556.74243 257.46 L570.62351 261.05406 L583.49696 267.3688 L594.83575 276.14567 L604.17566 287.02537 L611.13432 299.56246 L615.42683 313.24369 L616.87747 327.50894 M612.8211 332.10244 L611.37046 346.36769 L607.07795 360.04891 L600.11929 372.58601 L590.77938 383.4657 L579.44059 392.24258 L566.56714 398.55731 L552.68606 402.15137 L538.36564 402.87762 L524.19218 400.70633 L510.74592 395.72638 L498.57736 388.14166 L488.18469 378.26269 L479.99338 366.49391 L474.33879 353.31715 L471.4524 339.27185 L471.4524 324.93303 L474.33879 310.88773 L479.99338 297.71096 L488.18469 285.94218 L498.57736 276.06321 L510.74592 268.47849 L524.19218 263.49855 L538.36564 261.32725 L552.68606 262.0535 L566.56714 265.64756 L579.44059 271.96229 L590.77938 280.73917 L600.11929 291.61886 L607.07795 304.15596 L611.37046 317.83719 L612.8211 332.10244 M608.77319 337.46197 L607.32255 351.72722 L603.03004 365.40845 L596.07138 377.94555 L586.73147 388.82524 L575.39268 397.60212 L562.51923 403.91685 L548.63815 407.51091 L534.31773 408.23716 L520.14427 406.06586 L506.69801 401.08592 L494.52945 393.5012 L484.13678 383.62223 L475.94547 371.85345 L470.29088 358.67668 L467.40449 344.63138 L467.40449 330.29256 L470.29088 316.24726 L475.94547 303.07049 L484.13678 291.30172 L494.52945 281.42275 L506.69801 273.83803 L520.14427 268.85808 L534.31773 266.68679 L548.63815 267.41304 L562.51923 271.0071 L575.39268 277.32183 L586.73147 286.0987 L596.07138 296.9784 L603.03004 309.51549 L607.32255 323.19672 L608.77319 337.46197 M604.73499 343.60113 L603.28435 357.86638 L598.99184 371.54761 L592.03318 384.0847 L582.69327 394.9644 L571.35448 403.74127 L558.48103 410.05601 L544.59995 413.65007 L530.27953 414.37632 L516.10607 412.20502 L502.65981 407.22507 L490.49125 399.64036 L480.09858 389.76138 L471.90727 377.99261 L466.25268 364.81584 L463.36629 350.77054 L463.36629 336.43172 L466.25268 322.38642 L471.90727 309.20965 L480.09858 297.44088 L490.49125 287.5619 L502.65981 279.97719 L516.10607 274.99724 L530.27953 272.82594 L544.59995 273.55219 L558.48103 277.14625 L571.35448 283.46099 L582.69327 292.23786 L592.03318 303.11756 L598.99184 315.65465 L603.28435 329.33588 L604.73499 343.60113 M600.71015 350.46613 L599.25952 364.73138 L594.967 378.41261 L588.00835 390.94971 L578.66844 401.8294 L567.32965 410.60628 L554.45619 416.92101 L540.57511 420.51507 L526.2547 421.24132 L512.08123 419.07002 L498.63497 414.09008 L486.46642 406.50536 L476.07375 396.62639 L467.88244 384.85761 L462.22784 371.68084 L459.34146 357.63554 L459.34146 343.29672 L462.22784 329.25142 L467.88244 316.07465 L476.07375 304.30588 L486.46642 294.42691 L498.63497 286.84219 L512.08123 281.86224 L526.2547 279.69095 L540.57511 280.4172 L554.45619 284.01126 L567.32965 290.32599 L578.66844 299.10286 L588.00835 309.98256 L594.967 322.51965 L599.25952 336.20088 L600.71015 350.46613 M596.70539 357.90246 L595.25476 372.16771 L590.96224 385.84894 L584.00359 398.38604 L574.66368 409.26573 L563.32489 418.04261 L550.45143 424.35734 L536.57035 427.9514 L522.24994 428.67765 L508.07647 426.50635 L494.63022 421.52641 L482.46166 413.94169 L472.06899 404.06272 L463.87768 392.29394 L458.22308 379.11717 L455.3367 365.07187 L455.3367 350.73306 L458.22308 336.68776 L463.87768 323.51099 L472.06899 311.74221 L482.46166 301.86324 L494.63022 294.27852 L508.07647 289.29857 L522.24994 287.12728 L536.57035 287.85353 L550.45143 291.44759 L563.32489 297.76232 L574.66368 306.5392 L584.00359 317.41889 L590.96224 329.95599 L595.25476 343.63722 L596.70539 357.90246 M592.73063 365.64156 L591.28 379.90681 L586.98749 393.58804 L580.02883 406.12514 L570.68892 417.00483 L559.35013 425.78171 L546.47667 432.09644 L532.59559 435.6905 L518.27518 436.41675 L504.10171 434.24545 L490.65546 429.26551 L478.4869 421.68079 L468.09423 411.80182 L459.90292 400.03304 L454.24832 386.85627 L451.36194 372.81097 L451.36194 358.47215 L454.24832 344.42685 L459.90292 331.25009 L468.09423 319.48131 L478.4869 309.60234 L490.65546 302.01762 L504.10171 297.03767 L518.27518 294.86638 L532.59559 295.59263 L546.47667 299.18669 L559.35013 305.50142 L570.68892 314.27829 L580.02883 325.15799 L586.98749 337.69508 L591.28 351.37631 L592.73063 365.64156 M588.7982 373.33191 L587.34757 387.59716 L583.05505 401.27838 L576.0964 413.81548 L566.75649 424.69517 L555.4177 433.47205 L542.54424 439.78678 L528.66316 443.38084 L514.34275 444.10709 L500.16928 441.9358 L486.72302 436.95585 L474.55447 429.37113 L464.1618 419.49216 L455.97049 407.72338 L450.31589 394.54662 L447.42951 380.50131 L447.42951 366.1625 L450.31589 352.1172 L455.97049 338.94043 L464.1618 327.17165 L474.55447 317.29268 L486.72302 309.70796 L500.16928 304.72802 L514.34275 302.55672 L528.66316 303.28297 L542.54424 306.87703 L555.4177 313.19176 L566.75649 321.96864 L576.0964 332.84833 L583.05505 345.38543 L587.34757 359.06666 L588.7982 373.33191 M584.92122 380.62189 L583.47059 394.88714 L579.17808 408.56837 L572.21942 421.10546 L562.87951 431.98516 L551.54072 440.76203 L538.66726 447.07677 L524.78618 450.67083 L510.46577 451.39708 L496.2923 449.22578 L482.84605 444.24583 L470.67749 436.66112 L460.28482 426.78214 L452.09351 415.01337 L446.43891 401.8366 L443.55253 387.7913 L443.55253 373.45248 L446.43891 359.40718 L452.09351 346.23041 L460.28482 334.46164 L470.67749 324.58266 L482.84605 316.99795 L496.2923 312.018 L510.46577 309.8467 L524.78618 310.57295 L538.66726 314.16701 L551.54072 320.48175 L562.87951 329.25862 L572.21942 340.13832 L579.17808 352.67541 L583.47059 366.35664 L584.92122 380.62189 M809.64567 389.76378 L808.19504 404.02903 L803.90252 417.71026 L796.94387 430.24735 L787.60395 441.12705 L776.26517 449.90392 L763.39171 456.21866 L749.51063 459.81272 L735.19022 460.53897 L721.01675 458.36767 L707.57049 453.38772 L695.40194 445.803 L685.00927 435.92403 L676.81796 424.15526 L671.16336 410.97849 L668.27698 396.93319 L668.27698 382.59437 L671.16336 368.54907 L676.81796 355.3723 L685.00927 343.60352 L695.40194 333.72455 L707.57049 326.13984 L721.01675 321.15989 L735.19022 318.98859 L749.51063 319.71484 L763.39171 323.3089 L776.26517 329.62364 L787.60395 338.40051 L796.94387 349.28021 L803.90252 361.8173 L808.19504 375.49853 L809.64567 389.76378 M805.04353 356.40834 L803.5929 370.67359 L799.30039 384.35482 L792.34173 396.89191 L783.00182 407.77161 L771.66303 416.54848 L758.78958 422.86322 L744.9085 426.45728 L730.58808 427.18353 L716.41461 425.01223 L702.96836 420.03228 L690.7998 412.44757 L680.40713 402.5686 L672.21582 390.79982 L666.56122 377.62305 L663.67484 363.57775 L663.67484 349.23893 L666.56122 335.19363 L672.21582 322.01686 L680.40713 310.24809 L690.7998 300.36912 L702.96836 292.7844 L716.41461 287.80445 L730.58808 285.63316 L744.9085 286.3594 L758.78958 289.95347 L771.66303 296.2682 L783.00182 305.04507 L792.34173 315.92477 L799.30039 328.46186 L803.5929 342.14309 L805.04353 356.40834 M800.32504 344.60999 L798.87441 358.87524 L794.5819 372.55647 L787.62324 385.09357 L778.28333 395.97326 L766.94454 404.75014 L754.07109 411.06487 L740.19 414.65893 L725.86959 415.38518 L711.69612 413.21388 L698.24987 408.23394 L686.08131 400.64922 L675.68864 390.77025 L667.49733 379.00147 L661.84273 365.8247 L658.95635 351.7794 L658.95635 337.44058 L661.84273 323.39528 L667.49733 310.21851 L675.68864 298.44974 L686.08131 288.57077 L698.24987 280.98605 L711.69612 276.0061 L725.86959 273.83481 L740.19 274.56106 L754.07109 278.15512 L766.94454 284.46985 L778.28333 293.24672 L787.62324 304.12642 L794.5819 316.66351 L798.87441 330.34474 L800.32504 344.60999 M795.55504 338.32768 L794.1044 352.59293 L789.81189 366.27415 L782.85323 378.81125 L773.51332 389.69095 L762.17453 398.46782 L749.30108 404.78255 L735.42 408.37661 L721.09958 409.10286 L706.92612 406.93157 L693.47986 401.95162 L681.31131 394.3669 L670.91864 384.48793 L662.72732 372.71915 L657.07273 359.54239 L654.18635 345.49709 L654.18635 331.15827 L657.07273 317.11297 L662.72732 303.9362 L670.91864 292.16742 L681.31131 282.28845 L693.47986 274.70373 L706.92612 269.72379 L721.09958 267.55249 L735.42 268.27874 L749.30108 271.8728 L762.17453 278.18753 L773.51332 286.96441 L782.85323 297.8441 L789.81189 310.3812 L794.1044 324.06243 L795.55504 338.32768 M790.75275 333.32188 L789.30212 347.58713 L785.0096 361.26836 L778.05095 373.80545 L768.71104 384.68515 L757.37225 393.46202 L744.49879 399.77675 L730.61771 403.37081 L716.2973 404.09706 L702.12383 401.92577 L688.67758 396.94582 L676.50902 389.3611 L666.11635 379.48213 L657.92504 367.71336 L652.27044 354.53659 L649.38406 340.49129 L649.38406 326.15247 L652.27044 312.10717 L657.92504 298.9304 L666.11635 287.16162 L676.50902 277.28265 L688.67758 269.69793 L702.12383 264.71799 L716.2973 262.54669 L730.61771 263.27294 L744.49879 266.867 L757.37225 273.18173 L768.71104 281.95861 L778.05095 292.8383 L785.0096 305.3754 L789.30212 319.05663 L790.75275 333.32188 M785.92982 328.67072 L784.47919 342.93597 L780.18668 356.6172 L773.22802 369.1543 L763.88811 380.03399 L752.54932 388.81087 L739.67587 395.1256 L725.79479 398.71966 L711.47437 399.44591 L697.3009 397.27461 L683.85465 392.29467 L671.68609 384.70995 L661.29342 374.83098 L653.10211 363.0622 L647.44751 349.88543 L644.56113 335.84013 L644.56113 321.50132 L647.44751 307.45601 L653.10211 294.27925 L661.29342 282.51047 L671.68609 272.6315 L683.85465 265.04678 L697.3009 260.06683 L711.47437 257.89554 L725.79479 258.62179 L739.67587 262.21585 L752.54932 268.53058 L763.88811 277.30746 L773.22802 288.18715 L780.18668 300.72425 L784.47919 314.40547 L785.92982 328.67072 M781.09638 324.17898 L779.64574 338.44423 L775.35323 352.12546 L768.39458 364.66256 L759.05466 375.54225 L747.71588 384.31913 L734.84242 390.63386 L720.96134 394.22792 L706.64093 394.95417 L692.46746 392.78287 L679.0212 387.80293 L666.85265 380.21821 L656.45998 370.33924 L648.26867 358.57046 L642.61407 345.39369 L639.72769 331.34839 L639.72769 317.00957 L642.61407 302.96427 L648.26867 289.7875 L656.45998 278.01873 L666.85265 268.13976 L679.0212 260.55504 L692.46746 255.57509 L706.64093 253.4038 L720.96134 254.13004 L734.84242 257.72411 L747.71588 264.03884 L759.05466 272.81571 L768.39458 283.69541 L775.35323 296.2325 L779.64574 309.91373 L781.09638 324.17898 M776.26204 319.8354 L774.8114 334.10065 L770.51889 347.78187 L763.56024 360.31897 L754.22032 371.19867 L742.88154 379.97554 L730.00808 386.29027 L716.127 389.88433 L701.80659 390.61058 L687.63312 388.43929 L674.18686 383.45934 L662.01831 375.87462 L651.62564 365.99565 L643.43433 354.22687 L637.77973 341.05011 L634.89335 327.00481 L634.89335 312.66599 L637.77973 298.62069 L643.43433 285.44392 L651.62564 273.67514 L662.01831 263.79617 L674.18686 256.21145 L687.63312 251.23151 L701.80659 249.06021 L716.127 249.78646 L730.00808 253.38052 L742.88154 259.69525 L754.22032 268.47213 L763.56024 279.35182 L770.51889 291.88892 L774.8114 305.57015 L776.26204 319.8354 M771.43592 315.68101 L769.98528 329.94626 L765.69277 343.62748 L758.73412 356.16458 L749.3942 367.04427 L738.05542 375.82115 L725.18196 382.13588 L711.30088 385.72994 L696.98047 386.45619 L682.807 384.2849 L669.36074 379.30495 L657.19219 371.72023 L646.79952 361.84126 L638.60821 350.07248 L632.95361 336.89572 L630.06723 322.85041 L630.06723 308.5116 L632.95361 294.4663 L638.60821 281.28953 L646.79952 269.52075 L657.19219 259.64178 L669.36074 252.05706 L682.807 247.07712 L696.98047 244.90582 L711.30088 245.63207 L725.18196 249.22613 L738.05542 255.54086 L749.3942 264.31774 L758.73412 275.19743 L765.69277 287.73453 L769.98528 301.41576 L771.43592 315.68101 M766.62637 311.77063 L765.17573 326.03587 L760.88322 339.7171 L753.92456 352.2542 L744.58465 363.13389 L733.24586 371.91077 L720.37241 378.2255 L706.49133 381.81956 L692.17091 382.54581 L677.99745 380.37452 L664.55119 375.39457 L652.38263 367.80985 L641.98996 357.93088 L633.79865 346.1621 L628.14406 332.98533 L625.25767 318.94003 L625.25767 304.60122 L628.14406 290.55592 L633.79865 277.37915 L641.98996 265.61037 L652.38263 255.7314 L664.55119 248.14668 L677.99745 243.16673 L692.17091 240.99544 L706.49133 241.72169 L720.37241 245.31575 L733.24586 251.63048 L744.58465 260.40736 L753.92456 271.28705 L760.88322 283.82415 L765.17573 297.50538 L766.62637 311.77063 M761.84065 308.15781 L760.39001 322.42306 L756.0975 336.10428 L749.13884 348.64138 L739.79893 359.52107 L728.46014 368.29795 L715.58669 374.61268 L701.70561 378.20674 L687.3852 378.93299 L673.21173 376.7617 L659.76547 371.78175 L647.59692 364.19703 L637.20425 354.31806 L629.01294 342.54928 L623.35834 329.37252 L620.47196 315.32721 L620.47196 300.9884 L623.35834 286.9431 L629.01294 273.76633 L637.20425 261.99755 L647.59692 252.11858 L659.76547 244.53386 L673.21173 239.55392 L687.3852 237.38262 L701.70561 238.10887 L715.58669 241.70293 L728.46014 248.01766 L739.79893 256.79454 L749.13884 267.67423 L756.0975 280.21133 L760.39001 293.89256 L761.84065 308.15781 M757.08471 304.88692 L755.63407 319.15216 L751.34156 332.83339 L744.3829 345.37049 L735.04299 356.25018 L723.7042 365.02706 L710.83075 371.34179 L696.94967 374.93585 L682.62926 375.6621 L668.45579 373.49081 L655.00953 368.51086 L642.84098 360.92614 L632.44831 351.04717 L624.257 339.27839 L618.6024 326.10162 L615.71602 312.05632 L615.71602 297.71751 L618.6024 283.67221 L624.257 270.49544 L632.44831 258.72666 L642.84098 248.84769 L655.00953 241.26297 L668.45579 236.28302 L682.62926 234.11173 L696.94967 234.83798 L710.83075 238.43204 L723.7042 244.74677 L735.04299 253.52365 L744.3829 264.40334 L751.34156 276.94044 L755.63407 290.62167 L757.08471 304.88692 M752.36301 301.98863 L750.91237 316.25388 L746.61986 329.93511 L739.66121 342.4722 L730.32129 353.3519 L718.98251 362.12877 L706.10905 368.44351 L692.22797 372.03757 L677.90756 372.76382 L663.73409 370.59252 L650.28783 365.61257 L638.11928 358.02786 L627.72661 348.14888 L619.5353 336.38011 L613.8807 323.20334 L610.99432 309.15804 L610.99432 294.81922 L613.8807 280.77392 L619.5353 267.59715 L627.72661 255.82838 L638.11928 245.9494 L650.28783 238.36469 L663.73409 233.38474 L677.90756 231.21344 L692.22797 231.93969 L706.10905 235.53375 L718.98251 241.84849 L730.32129 250.62536 L739.66121 261.50506 L746.61986 274.04215 L750.91237 287.72338 L752.36301 301.98863 M747.67852 299.47802 L746.22789 313.74327 L741.93538 327.4245 L734.97672 339.9616 L725.63681 350.84129 L714.29802 359.61817 L701.42457 365.9329 L687.54348 369.52696 L673.22307 370.25321 L659.0496 368.08191 L645.60335 363.10197 L633.43479 355.51725 L623.04212 345.63828 L614.85081 333.8695 L609.19621 320.69273 L606.30983 306.64743 L606.30983 292.30861 L609.19621 278.26331 L614.85081 265.08655 L623.04212 253.31777 L633.43479 243.4388 L645.60335 235.85408 L659.0496 230.87413 L673.22307 228.70284 L687.54348 229.42909 L701.42457 233.02315 L714.29802 239.33788 L725.63681 248.11475 L734.97672 258.99445 L741.93538 271.53155 L746.22789 285.21277 L747.67852 299.47802 M743.03284 297.35495 L741.58221 311.6202 L737.2897 325.30142 L730.33104 337.83852 L720.99113 348.71822 L709.65234 357.49509 L696.77889 363.80982 L682.89781 367.40388 L668.57739 368.13013 L654.40393 365.95884 L640.95767 360.97889 L628.78911 353.39417 L618.39644 343.5152 L610.20513 331.74642 L604.55054 318.56966 L601.66415 304.52436 L601.66415 290.18554 L604.55054 276.14024 L610.20513 262.96347 L618.39644 251.19469 L628.78911 241.31572 L640.95767 233.731 L654.40393 228.75106 L668.57739 226.57976 L682.89781 227.30601 L696.77889 230.90007 L709.65234 237.2148 L720.99113 245.99168 L730.33104 256.87137 L737.2897 269.40847 L741.58221 283.0897 L743.03284 297.35495 M738.42638 295.60622 L736.97575 309.87147 L732.68324 323.5527 L725.72458 336.08979 L716.38467 346.96949 L705.04588 355.74636 L692.17243 362.06109 L678.29134 365.65516 L663.97093 366.3814 L649.79746 364.21011 L636.35121 359.23016 L624.18265 351.64544 L613.78998 341.76647 L605.59867 329.9977 L599.94407 316.82093 L597.05769 302.77563 L597.05769 288.43681 L599.94407 274.39151 L605.59867 261.21474 L613.78998 249.44596 L624.18265 239.56699 L636.35121 231.98228 L649.79746 227.00233 L663.97093 224.83103 L678.29134 225.55728 L692.17243 229.15134 L705.04588 235.46607 L716.38467 244.24295 L725.72458 255.12264 L732.68324 267.65974 L736.97575 281.34097 L738.42638 295.60622 M733.85862 294.20886 L732.40798 308.47411 L728.11547 322.15534 L721.15681 334.69244 L711.8169 345.57213 L700.47811 354.34901 L687.60466 360.66374 L673.72358 364.2578 L659.40316 364.98405 L645.2297 362.81275 L631.78344 357.83281 L619.61488 350.24809 L609.22221 340.36912 L601.0309 328.60034 L595.37631 315.42357 L592.48992 301.37827 L592.48992 287.03946 L595.37631 272.99415 L601.0309 259.81739 L609.22221 248.04861 L619.61488 238.16964 L631.78344 230.58492 L645.2297 225.60497 L659.40316 223.43368 L673.72358 224.15993 L687.60466 227.75399 L700.47811 234.06872 L711.8169 242.8456 L721.15681 253.72529 L728.11547 266.26239 L732.40798 279.94361 L733.85862 294.20886 M729.32834 293.13367 L727.8777 307.39891 L723.58519 321.08014 L716.62653 333.61724 L707.28662 344.49693 L695.94783 353.27381 L683.07438 359.58854 L669.1933 363.1826 L654.87288 363.90885 L640.69942 361.73756 L627.25316 356.75761 L615.0846 349.17289 L604.69193 339.29392 L596.50062 327.52514 L590.84603 314.34838 L587.95964 300.30307 L587.95964 285.96426 L590.84603 271.91896 L596.50062 258.74219 L604.69193 246.97341 L615.0846 237.09444 L627.25316 229.50972 L640.69942 224.52978 L654.87288 222.35848 L669.1933 223.08473 L683.07438 226.67879 L695.94783 232.99352 L707.28662 241.7704 L716.62653 252.65009 L723.58519 265.18719 L727.8777 278.86842 L729.32834 293.13367 M724.83389 292.34843 L723.38325 306.61368 L719.09074 320.29491 L712.13208 332.832 L702.79217 343.7117 L691.45338 352.48857 L678.57993 358.80331 L664.69885 362.39737 L650.37843 363.12362 L636.20497 360.95232 L622.75871 355.97237 L610.59015 348.38766 L600.19748 338.50868 L592.00617 326.73991 L586.35158 313.56314 L583.46519 299.51784 L583.46519 285.17902 L586.35158 271.13372 L592.00617 257.95695 L600.19748 246.18817 L610.59015 236.3092 L622.75871 228.72449 L636.20497 223.74454 L650.37843 221.57324 L664.69885 222.29949 L678.57993 225.89355 L691.45338 232.20829 L702.79217 240.98516 L712.13208 251.86486 L719.09074 264.40195 L723.38325 278.08318 L724.83389 292.34843 M720.37335 291.82061 L718.92271 306.08586 L714.6302 319.76709 L707.67154 332.30419 L698.33163 343.18388 L686.99284 351.96076 L674.11939 358.27549 L660.23831 361.86955 L645.91789 362.5958 L631.74443 360.4245 L618.29817 355.44456 L606.12961 347.85984 L595.73694 337.98087 L587.54563 326.21209 L581.89104 313.03532 L579.00465 298.99002 L579.00465 284.6512 L581.89104 270.6059 L587.54563 257.42914 L595.73694 245.66036 L606.12961 235.78139 L618.29817 228.19667 L631.74443 223.21672 L645.91789 221.04543 L660.23831 221.77168 L674.11939 225.36574 L686.99284 231.68047 L698.33163 240.45734 L707.67154 251.33704 L714.6302 263.87414 L718.92271 277.55536 L720.37335 291.82061 M715.94468 291.51919 L714.49405 305.78444 L710.20154 319.46567 L703.24288 332.00277 L693.90297 342.88246 L682.56418 351.65934 L669.69073 357.97407 L655.80964 361.56813 L641.48923 362.29438 L627.31576 360.12308 L613.86951 355.14314 L601.70095 347.55842 L591.30828 337.67945 L583.11697 325.91067 L577.46237 312.7339 L574.57599 298.6886 L574.57599 284.34978 L577.46237 270.30448 L583.11697 257.12771 L591.30828 245.35894 L601.70095 235.47997 L613.86951 227.89525 L627.31576 222.9153 L641.48923 220.74401 L655.80964 221.47026 L669.69073 225.06432 L682.56418 231.37905 L693.90297 240.15592 L703.24288 251.03562 L710.20154 263.57271 L714.49405 277.25394 L715.94468 291.51919 M951.37795 389.76378 L949.92732 404.02903 L945.63481 417.71026 L938.67615 430.24735 L929.33624 441.12705 L917.99745 449.90392 L905.12399 456.21866 L891.24291 459.81272 L876.9225 460.53897 L862.74903 458.36767 L849.30278 453.38772 L837.13422 445.803 L826.74155 435.92403 L818.55024 424.15526 L812.89564 410.97849 L810.00926 396.93319 L810.00926 382.59437 L812.89564 368.54907 L818.55024 355.3723 L826.74155 343.60352 L837.13422 333.72455 L849.30278 326.13984 L862.74903 321.15989 L876.9225 318.98859 L891.24291 319.71484 L905.12399 323.3089 L917.99745 329.62364 L929.33624 338.40051 L938.67615 349.28021 L945.63481 361.8173 L949.92732 375.49853 L951.37795 389.76378 M949.62018 428.53189 L948.16955 442.79714 L943.87703 456.47837 L936.91838 469.01547 L927.57847 479.89516 L916.23968 488.67204 L903.36622 494.98677 L889.48514 498.58083 L875.16473 499.30708 L860.99126 497.13578 L847.54501 492.15584 L835.37645 484.57112 L824.98378 474.69215 L816.79247 462.92337 L811.13787 449.7466 L808.25149 435.7013 L808.25149 421.36248 L811.13787 407.31718 L816.79247 394.14042 L824.98378 382.37164 L835.37645 372.49267 L847.54501 364.90795 L860.99126 359.928 L875.16473 357.75671 L889.48514 358.48296 L903.36622 362.07702 L916.23968 368.39175 L927.57847 377.16862 L936.91838 388.04832 L943.87703 400.58541 L948.16955 414.26664 L949.62018 428.53189 M948.36266 450.53979 L946.91203 464.80504 L942.61951 478.48627 L935.66086 491.02337 L926.32095 501.90306 L914.98216 510.67994 L902.1087 516.99467 L888.22762 520.58873 L873.90721 521.31498 L859.73374 519.14368 L846.28748 514.16374 L834.11893 506.57902 L823.72626 496.70005 L815.53495 484.93127 L809.88035 471.7545 L806.99397 457.7092 L806.99397 443.37039 L809.88035 429.32508 L815.53495 416.14832 L823.72626 404.37954 L834.11893 394.50057 L846.28748 386.91585 L859.73374 381.9359 L873.90721 379.76461 L888.22762 380.49086 L902.1087 384.08492 L914.98216 390.39965 L926.32095 399.17653 L935.66086 410.05622 L942.61951 422.59332 L946.91203 436.27454 L948.36266 450.53979 M947.54297 467.25279 L946.09233 481.51804 L941.79982 495.19927 L934.84116 507.73637 L925.50125 518.61606 L914.16246 527.39294 L901.28901 533.70767 L887.40793 537.30173 L873.08751 538.02798 L858.91405 535.85668 L845.46779 530.87674 L833.29923 523.29202 L822.90656 513.41305 L814.71525 501.64427 L809.06066 488.4675 L806.17427 474.4222 L806.17427 460.08338 L809.06066 446.03808 L814.71525 432.86131 L822.90656 421.09254 L833.29923 411.21357 L845.46779 403.62885 L858.91405 398.6489 L873.08751 396.47761 L887.40793 397.20386 L901.28901 400.79792 L914.16246 407.11265 L925.50125 415.88952 L934.84116 426.76922 L941.79982 439.30631 L946.09233 452.98754 L947.54297 467.25279 M947.1651 482.74612 L945.71447 497.01137 L941.42195 510.6926 L934.4633 523.2297 L925.12339 534.10939 L913.7846 542.88627 L900.91114 549.201 L887.03006 552.79506 L872.70965 553.52131 L858.53618 551.35001 L845.08993 546.37007 L832.92137 538.78535 L822.5287 528.90638 L814.33739 517.1376 L808.68279 503.96083 L805.79641 489.91553 L805.79641 475.57671 L808.68279 461.53141 L814.33739 448.35465 L822.5287 436.58587 L832.92137 426.7069 L845.08993 419.12218 L858.53618 414.14223 L872.70965 411.97094 L887.03006 412.69719 L900.91114 416.29125 L913.7846 422.60598 L925.12339 431.38285 L934.4633 442.26255 L941.42195 454.79964 L945.71447 468.48087 L947.1651 482.74612 M947.28149 499.29776 L945.83085 513.56301 L941.53834 527.24424 L934.57968 539.78134 L925.23977 550.66103 L913.90098 559.43791 L901.02753 565.75264 L887.14645 569.3467 L872.82603 570.07295 L858.65257 567.90165 L845.20631 562.92171 L833.03776 555.33699 L822.64509 545.45802 L814.45377 533.68924 L808.79918 520.51247 L805.9128 506.46717 L805.9128 492.12835 L808.79918 478.08305 L814.45377 464.90628 L822.64509 453.13751 L833.03776 443.25854 L845.20631 435.67382 L858.65257 430.69387 L872.82603 428.52258 L887.14645 429.24883 L901.02753 432.84289 L913.90098 439.15762 L925.23977 447.93449 L934.57968 458.81419 L941.53834 471.35128 L945.83085 485.03251 L947.28149 499.29776 M947.98934 519.03584 L946.53871 533.30109 L942.24619 546.98232 L935.28754 559.51942 L925.94763 570.39911 L914.60884 579.17599 L901.73538 585.49072 L887.8543 589.08478 L873.53389 589.81103 L859.36042 587.63973 L845.91416 582.65979 L833.74561 575.07507 L823.35294 565.1961 L815.16163 553.42732 L809.50703 540.25055 L806.62065 526.20525 L806.62065 511.86643 L809.50703 497.82113 L815.16163 484.64437 L823.35294 472.87559 L833.74561 462.99662 L845.91416 455.4119 L859.36042 450.43195 L873.53389 448.26066 L887.8543 448.98691 L901.73538 452.58097 L914.60884 458.8957 L925.94763 467.67258 L935.28754 478.55227 L942.24619 491.08937 L946.53871 504.77059 L947.98934 519.03584 M949.40904 544.42886 L947.95841 558.69411 L943.6659 572.37534 L936.70724 584.91243 L927.36733 595.79213 L916.02854 604.569 L903.15508 610.88373 L889.274 614.47779 L874.95359 615.20404 L860.78012 613.03275 L847.33387 608.0528 L835.16531 600.46808 L824.77264 590.58911 L816.58133 578.82034 L810.92673 565.64357 L808.04035 551.59827 L808.04035 537.25945 L810.92673 523.21415 L816.58133 510.03738 L824.77264 498.2686 L835.16531 488.38963 L847.33387 480.80491 L860.78012 475.82497 L874.95359 473.65367 L889.274 474.37992 L903.15508 477.97398 L916.02854 484.28871 L927.36733 493.06559 L936.70724 503.94528 L943.6659 516.48238 L947.95841 530.16361 L949.40904 544.42886 M951.57372 577.62738 L950.12309 591.89263 L945.83058 605.57386 L938.87192 618.11096 L929.53201 628.99065 L918.19322 637.76752 L905.31977 644.08226 L891.43868 647.67632 L877.11827 648.40257 L862.9448 646.23127 L849.49855 641.25132 L837.32999 633.66661 L826.93732 623.78764 L818.74601 612.01886 L813.09141 598.84209 L810.20503 584.79679 L810.20503 570.45797 L813.09141 556.41267 L818.74601 543.2359 L826.93732 531.46713 L837.32999 521.58816 L849.49855 514.00344 L862.9448 509.02349 L877.11827 506.8522 L891.43868 507.57844 L905.31977 511.17251 L918.19322 517.48724 L929.53201 526.26411 L938.87192 537.14381 L945.83058 549.6809 L950.12309 563.36213 L951.57372 577.62738 M954.19277 617.26121 L952.74214 631.52646 L948.44963 645.20768 L941.49097 657.74478 L932.15106 668.62448 L920.81227 677.40135 L907.93882 683.71608 L894.05773 687.31014 L879.73732 688.03639 L865.56385 685.8651 L852.1176 680.88515 L839.94904 673.30043 L829.55637 663.42146 L821.36506 651.65268 L815.71046 638.47592 L812.82408 624.43062 L812.82408 610.0918 L815.71046 596.0465 L821.36506 582.86973 L829.55637 571.10095 L839.94904 561.22198 L852.1176 553.63726 L865.56385 548.65732 L879.73732 546.48602 L894.05773 547.21227 L907.93882 550.80633 L920.81227 557.12106 L932.15106 565.89794 L941.49097 576.77763 L948.44963 589.31473 L952.74214 602.99596 L954.19277 617.26121 M956.67748 655.38347 L955.22685 669.64872 L950.93434 683.32995 L943.97568 695.86705 L934.63577 706.74674 L923.29698 715.52362 L910.42352 721.83835 L896.54244 725.43241 L882.22203 726.15866 L868.04856 723.98736 L854.60231 719.00742 L842.43375 711.4227 L832.04108 701.54373 L823.84977 689.77495 L818.19517 676.59818 L815.30879 662.55288 L815.30879 648.21406 L818.19517 634.16876 L823.84977 620.992 L832.04108 609.22322 L842.43375 599.34425 L854.60231 591.75953 L868.04856 586.77958 L882.22203 584.60829 L896.54244 585.33454 L910.42352 588.9286 L923.29698 595.24333 L934.63577 604.0202 L943.97568 614.8999 L950.93434 627.43699 L955.22685 641.11822 L956.67748 655.38347 M958.64814 684.88034 L957.19751 699.14559 L952.90499 712.82681 L945.94634 725.36391 L936.60643 736.24361 L925.26764 745.02048 L912.39418 751.33521 L898.5131 754.92927 L884.19269 755.65552 L870.01922 753.48423 L856.57297 748.50428 L844.40441 740.91956 L834.01174 731.04059 L825.82043 719.27181 L820.16583 706.09505 L817.27945 692.04975 L817.27945 677.71093 L820.16583 663.66563 L825.82043 650.48886 L834.01174 638.72008 L844.40441 628.84111 L856.57297 621.25639 L870.01922 616.27645 L884.19269 614.10515 L898.5131 614.8314 L912.39418 618.42546 L925.26764 624.74019 L936.60643 633.51707 L945.94634 644.39676 L952.90499 656.93386 L957.19751 670.61509 L958.64814 684.88034 M960.11601 703.4745 L958.66537 717.73975 L954.37286 731.42098 L947.4142 743.95808 L938.07429 754.83777 L926.7355 763.61465 L913.86205 769.92938 L899.98097 773.52344 L885.66056 774.24969 L871.48709 772.07839 L858.04083 767.09845 L845.87228 759.51373 L835.47961 749.63476 L827.2883 737.86598 L821.6337 724.68921 L818.74732 710.64391 L818.74732 696.30509 L821.6337 682.25979 L827.2883 669.08303 L835.47961 657.31425 L845.87228 647.43528 L858.04083 639.85056 L871.48709 634.87061 L885.66056 632.69932 L899.98097 633.42557 L913.86205 637.01963 L926.7355 643.33436 L938.07429 652.11124 L947.4142 662.99093 L954.37286 675.52803 L958.66537 689.20925 L960.11601 703.4745 M961.27198 712.78868 L959.82135 727.05393 L955.52884 740.73516 L948.57018 753.27226 L939.23027 764.15195 L927.89148 772.92883 L915.01802 779.24356 L901.13694 782.83762 L886.81653 783.56387 L872.64306 781.39257 L859.19681 776.41263 L847.02825 768.82791 L836.63558 758.94894 L828.44427 747.18016 L822.78967 734.00339 L819.90329 719.95809 L819.90329 705.61927 L822.78967 691.57397 L828.44427 678.3972 L836.63558 666.62843 L847.02825 656.74946 L859.19681 649.16474 L872.64306 644.18479 L886.81653 642.0135 L901.13694 642.73975 L915.01802 646.33381 L927.89148 652.64854 L939.23027 661.42541 L948.57018 672.30511 L955.52884 684.8422 L959.82135 698.52343 L961.27198 712.78868 M962.26334 716.90604 L960.8127 731.17129 L956.52019 744.85251 L949.56153 757.38961 L940.22162 768.2693 L928.88283 777.04618 L916.00938 783.36091 L902.1283 786.95497 L887.80788 787.68122 L873.63442 785.50993 L860.18816 780.52998 L848.01961 772.94526 L837.62693 763.06629 L829.43562 751.29751 L823.78103 738.12075 L820.89464 724.07544 L820.89464 709.73663 L823.78103 695.69133 L829.43562 682.51456 L837.62693 670.74578 L848.01961 660.86681 L860.18816 653.28209 L873.63442 648.30215 L887.80788 646.13085 L902.1283 646.8571 L916.00938 650.45116 L928.88283 656.76589 L940.22162 665.54277 L949.56153 676.42246 L956.52019 688.95956 L960.8127 702.64079 L962.26334 716.90604 M963.16249 718.73987 L961.71186 733.00512 L957.41935 746.68635 L950.46069 759.22345 L941.12078 770.10314 L929.78199 778.88002 L916.90853 785.19475 L903.02745 788.78881 L888.70704 789.51506 L874.53357 787.34376 L861.08732 782.36382 L848.91876 774.7791 L838.52609 764.90013 L830.33478 753.13135 L824.68018 739.95458 L821.7938 725.90928 L821.7938 711.57046 L824.68018 697.52516 L830.33478 684.3484 L838.52609 672.57962 L848.91876 662.70065 L861.08732 655.11593 L874.53357 650.13598 L888.70704 647.96469 L903.02745 648.69094 L916.90853 652.285 L929.78199 658.59973 L941.12078 667.3766 L950.46069 678.2563 L957.41935 690.7934 L961.71186 704.47462 L963.16249 718.73987 M964.00057 719.65731 L962.54993 733.92256 L958.25742 747.60379 L951.29876 760.14088 L941.95885 771.02058 L930.62006 779.79745 L917.74661 786.11219 L903.86553 789.70625 L889.54511 790.4325 L875.37165 788.2612 L861.92539 783.28125 L849.75683 775.69654 L839.36416 765.81756 L831.17285 754.04879 L825.51826 740.87202 L822.63187 726.82672 L822.63187 712.4879 L825.51826 698.4426 L831.17285 685.26583 L839.36416 673.49706 L849.75683 663.61808 L861.92539 656.03337 L875.37165 651.05342 L889.54511 648.88212 L903.86553 649.60837 L917.74661 653.20243 L930.62006 659.51717 L941.95885 668.29404 L951.29876 679.17374 L958.25742 691.71083 L962.54993 705.39206 L964.00057 719.65731 M964.79101 720.21111 L963.34037 734.47636 L959.04786 748.15759 L952.0892 760.69469 L942.74929 771.57438 L931.4105 780.35126 L918.53705 786.66599 L904.65597 790.26005 L890.33555 790.9863 L876.16209 788.815 L862.71583 783.83506 L850.54728 776.25034 L840.1546 766.37137 L831.96329 754.60259 L826.3087 741.42582 L823.42231 727.38052 L823.42231 713.04171 L826.3087 698.9964 L831.96329 685.81964 L840.1546 674.05086 L850.54728 664.17189 L862.71583 656.58717 L876.16209 651.60722 L890.33555 649.43593 L904.65597 650.16218 L918.53705 653.75624 L931.4105 660.07097 L942.74929 668.84785 L952.0892 679.72754 L959.04786 692.26464 L963.34037 705.94586 L964.79101 720.21111 M965.54029 720.61334 L964.08966 734.87859 L959.79715 748.55982 L952.83849 761.09691 L943.49858 771.97661 L932.15979 780.75348 L919.28634 787.06822 L905.40525 790.66228 L891.08484 791.38853 L876.91137 789.21723 L863.46512 784.23728 L851.29656 776.65257 L840.90389 766.77359 L832.71258 755.00482 L827.05798 741.82805 L824.1716 727.78275 L824.1716 713.44393 L827.05798 699.39863 L832.71258 686.22186 L840.90389 674.45308 L851.29656 664.57411 L863.46512 656.9894 L876.91137 652.00945 L891.08484 649.83815 L905.40525 650.5644 L919.28634 654.15846 L932.15979 660.4732 L943.49858 669.25007 L952.83849 680.12977 L959.79715 692.66686 L964.08966 706.34809 L965.54029 720.61334 M966.25218 720.94422 L964.80155 735.20947 L960.50904 748.89069 L953.55038 761.42779 L944.21047 772.30748 L932.87168 781.08436 L919.99823 787.39909 L906.11715 790.99315 L891.79673 791.7194 L877.62326 789.54811 L864.17701 784.56816 L852.00845 776.98344 L841.61578 767.10447 L833.42447 755.33569 L827.76987 742.15893 L824.88349 728.11362 L824.88349 713.77481 L827.76987 699.72951 L833.42447 686.55274 L841.61578 674.78396 L852.00845 664.90499 L864.17701 657.32027 L877.62326 652.34033 L891.79673 650.16903 L906.11715 650.89528 L919.99823 654.48934 L932.87168 660.80407 L944.21047 669.58095 L953.55038 680.46064 L960.50904 692.99774 L964.80155 706.67897 L966.25218 720.94422 M966.92934 721.23457 L965.47871 735.49982 L961.18619 749.18105 L954.22754 761.71815 L944.88763 772.59784 L933.54884 781.37472 L920.67538 787.68945 L906.7943 791.28351 L892.47389 792.00976 L878.30042 789.83846 L864.85416 784.85851 L852.68561 777.2738 L842.29294 767.39483 L834.10163 755.62605 L828.44703 742.44928 L825.56065 728.40398 L825.56065 714.06516 L828.44703 700.01986 L834.10163 686.84309 L842.29294 675.07432 L852.68561 665.19535 L864.85416 657.61063 L878.30042 652.63068 L892.47389 650.45939 L906.7943 651.18563 L920.67538 654.7797 L933.54884 661.09443 L944.88763 669.8713 L954.22754 680.751 L961.18619 693.28809 L965.47871 706.96932 L966.92934 721.23457" fill="none" stroke="black" stroke-width="0.03cm" />
    </g>
</svg>