<?xml version="1.0" standalone="no"?>
  <!DOCTYPE svg PUBLIC "-//W3C//DTD SVG 1.1//EN" 
      "http://www.w3.org/Graphics/SVG/1.1/DTD/svg11.dtd">
  <svg width="29.7cm" height="42cm"
      xmlns="http://www.w3.org/2000/svg" version="1.1" viewBox="0 0 1052.3622 1488.18898">
    <g>
      <path d="M354.33071 389.76378 L352.88007 404.02903 L348.58756 417.71026 L341.62891 430.24735 L332.28899 441.12705 L320.95021 449.90392 L308.07675 456.21866 L294.19567 459.81272 L279.87526 460.53897 L265.70179 458.36767 L252.25553 453.38772 L240.08698 445.803 L229.69431 435.92403 L221.503 424.15526 L215.8484 410.97849 L212.96202 396.93319 L212.96202 382.59437 L215.8484 368.54907 L221.503 355.3723 L229.69431 343.60352 L240.08698 333.72455 L252.25553 326.13984 L265.70179 321.15989 L279.87526 318.98859 L294.19567 319.71484 L308.07675 323.3089 L320.95021 329.62364 L332.28899 338.40051 L341.62891 349.28021 L348.58756 361.8173 L352.88007 375.49853 L354.33071 389.76378 M364.78508 425.19685 L363.33445 439.4621 L359.04194 453.14333 L352.08328 465.68042 L342.74337 476.56012 L331.40458 485.33699 L318.53113 491.65173 L304.65005 495.24579 L290.32963 495.97204 L276.15617 493.80074 L262.70991 488.82079 L250.54135 481.23608 L240.14868 471.35711 L231.95737 459.58833 L226.30278 446.41156 L223.41639 432.36626 L223.41639 418.02744 L226.30278 403.98214 L231.95737 390.80537 L240.14868 379.0366 L250.54135 369.15762 L262.70991 361.57291 L276.15617 356.59296 L290.32963 354.42166 L304.65005 355.14791 L318.53113 358.74197 L331.40458 365.05671 L342.74337 373.83358 L352.08328 384.71328 L359.04194 397.25037 L363.33445 410.9316 L364.78508 425.19685 M376.76574 460.62992 L375.3151 474.89517 L371.02259 488.5764 L364.06393 501.1135 L354.72402 511.99319 L343.38523 520.77007 L330.51178 527.0848 L316.6307 530.67886 L302.31028 531.40511 L288.13682 529.23381 L274.69056 524.25387 L262.52201 516.66915 L252.12933 506.79018 L243.93802 495.0214 L238.28343 481.84463 L235.39704 467.79933 L235.39704 453.46051 L238.28343 439.41521 L243.93802 426.23844 L252.12933 414.46967 L262.52201 404.5907 L274.69056 397.00598 L288.13682 392.02603 L302.31028 389.85474 L316.6307 390.58098 L330.51178 394.17505 L343.38523 400.48978 L354.72402 409.26665 L364.06393 420.14635 L371.02259 432.68344 L375.3151 446.36467 L376.76574 460.62992 M390.0348 496.06299 L388.58416 510.32824 L384.29165 524.00947 L377.33299 536.54657 L367.99308 547.42626 L356.65429 556.20314 L343.78084 562.51787 L329.89976 566.11193 L315.57934 566.83818 L301.40588 564.66688 L287.95962 559.68694 L275.79107 552.10222 L265.39839 542.22325 L257.20708 530.45447 L251.55249 517.2777 L248.6661 503.2324 L248.6661 488.89358 L251.55249 474.84828 L257.20708 461.67151 L265.39839 449.90274 L275.79107 440.02377 L287.95962 432.43905 L301.40588 427.4591 L315.57934 425.28781 L329.89976 426.01406 L343.78084 429.60812 L356.65429 435.92285 L367.99308 444.69972 L377.33299 455.57942 L384.29165 468.11651 L388.58416 481.79774 L390.0348 496.06299 M404.36574 531.49606 L402.91511 545.76131 L398.6226 559.44254 L391.66394 571.97964 L382.32403 582.85933 L370.98524 591.63621 L358.11179 597.95094 L344.23071 601.545 L329.91029 602.27125 L315.73682 600.09995 L302.29057 595.12001 L290.12201 587.53529 L279.72934 577.65632 L271.53803 565.88754 L265.88343 552.71077 L262.99705 538.66547 L262.99705 524.32665 L265.88343 510.28135 L271.53803 497.10459 L279.72934 485.33581 L290.12201 475.45684 L302.29057 467.87212 L315.73682 462.89217 L329.91029 460.72088 L344.23071 461.44713 L358.11179 465.04119 L370.98524 471.35592 L382.32403 480.13279 L391.66394 491.01249 L398.6226 503.54959 L402.91511 517.23081 L404.36574 531.49606 M419.54204 566.92913 L418.09141 581.19438 L413.7989 594.87561 L406.84024 607.41271 L397.50033 618.2924 L386.16154 627.06928 L373.28808 633.38401 L359.407 636.97807 L345.08659 637.70432 L330.91312 635.53302 L317.46687 630.55308 L305.29831 622.96836 L294.90564 613.08939 L286.71433 601.32061 L281.05973 588.14384 L278.17335 574.09854 L278.17335 559.75973 L281.05973 545.71442 L286.71433 532.53766 L294.90564 520.76888 L305.29831 510.88991 L317.46687 503.30519 L330.91312 498.32524 L345.08659 496.15395 L359.407 496.8802 L373.28808 500.47426 L386.16154 506.78899 L397.50033 515.56587 L406.84024 526.44556 L413.7989 538.98266 L418.09141 552.66388 L419.54204 566.92913 M435.3564 602.3622 L433.90577 616.62745 L429.61325 630.30868 L422.6546 642.84578 L413.31469 653.72547 L401.9759 662.50235 L389.10244 668.81708 L375.22136 672.41114 L360.90095 673.13739 L346.72748 670.9661 L333.28122 665.98615 L321.11267 658.40143 L310.72 648.52246 L302.52869 636.75368 L296.87409 623.57691 L293.98771 609.53161 L293.98771 595.1928 L296.87409 581.1475 L302.52869 567.97073 L310.72 556.20195 L321.11267 546.32298 L333.28122 538.73826 L346.72748 533.75831 L360.90095 531.58702 L375.22136 532.31327 L389.10244 535.90733 L401.9759 542.22206 L413.31469 550.99894 L422.6546 561.87863 L429.61325 574.41573 L433.90577 588.09696 L435.3564 602.3622 M451.61044 637.79528 L450.15981 652.06053 L445.86729 665.74175 L438.90864 678.27885 L429.56873 689.15854 L418.22994 697.93542 L405.35648 704.25015 L391.4754 707.84421 L377.15499 708.57046 L362.98152 706.39917 L349.53527 701.41922 L337.36671 693.8345 L326.97404 683.95553 L318.78273 672.18675 L313.12813 659.00999 L310.24175 644.96468 L310.24175 630.62587 L313.12813 616.58057 L318.78273 603.4038 L326.97404 591.63502 L337.36671 581.75605 L349.53527 574.17133 L362.98152 569.19139 L377.15499 567.02009 L391.4754 567.74634 L405.35648 571.3404 L418.22994 577.65513 L429.56873 586.43201 L438.90864 597.3117 L445.86729 609.8488 L450.15981 623.53003 L451.61044 637.79528 M468.11454 673.22835 L466.66391 687.4936 L462.37139 701.17482 L455.41274 713.71192 L446.07283 724.59161 L434.73404 733.36849 L421.86058 739.68322 L407.9795 743.27728 L393.65909 744.00353 L379.48562 741.83224 L366.03936 736.85229 L353.87081 729.26757 L343.47814 719.3886 L335.28683 707.61982 L329.63223 694.44306 L326.74585 680.39776 L326.74585 666.05894 L329.63223 652.01364 L335.28683 638.83687 L343.47814 627.06809 L353.87081 617.18912 L366.03936 609.6044 L379.48562 604.62446 L393.65909 602.45316 L407.9795 603.17941 L421.86058 606.77347 L434.73404 613.0882 L446.07283 621.86508 L455.41274 632.74477 L462.37139 645.28187 L466.66391 658.9631 L468.11454 673.22835 M484.68785 708.66142 L483.23722 722.92667 L478.9447 736.6079 L471.98605 749.14499 L462.64614 760.02469 L451.30735 768.80156 L438.43389 775.11629 L424.55281 778.71035 L410.2324 779.4366 L396.05893 777.26531 L382.61268 772.28536 L370.44412 764.70064 L360.05145 754.82167 L351.86014 743.05289 L346.20554 729.87613 L343.31916 715.83083 L343.31916 701.49201 L346.20554 687.44671 L351.86014 674.26994 L360.05145 662.50116 L370.44412 652.62219 L382.61268 645.03747 L396.05893 640.05753 L410.2324 637.88623 L424.55281 638.61248 L438.43389 642.20654 L451.30735 648.52127 L462.64614 657.29815 L471.98605 668.17784 L478.9447 680.71494 L483.23722 694.39617 L484.68785 708.66142 M501.15862 744.09449 L499.70798 758.35974 L495.41547 772.04097 L488.45682 784.57806 L479.1169 795.45776 L467.77812 804.23463 L454.90466 810.54936 L441.02358 814.14342 L426.70317 814.86967 L412.5297 812.69838 L399.08344 807.71843 L386.91489 800.13371 L376.52222 790.25474 L368.33091 778.48597 L362.67631 765.3092 L359.78993 751.2639 L359.78993 736.92508 L362.67631 722.87978 L368.33091 709.70301 L376.52222 697.93423 L386.91489 688.05526 L399.08344 680.47054 L412.5297 675.4906 L426.70317 673.3193 L441.02358 674.04555 L454.90466 677.63961 L467.77812 683.95434 L479.1169 692.73122 L488.45682 703.61091 L495.41547 716.14801 L499.70798 729.82924 L501.15862 744.09449 M517.36471 779.52756 L515.91407 793.79281 L511.62156 807.47404 L504.6629 820.01113 L495.32299 830.89083 L483.9842 839.6677 L471.11075 845.98243 L457.22967 849.5765 L442.90925 850.30274 L428.73579 848.13145 L415.28953 843.1515 L403.12098 835.56678 L392.7283 825.68781 L384.53699 813.91904 L378.8824 800.74227 L375.99601 786.69697 L375.99601 772.35815 L378.8824 758.31285 L384.53699 745.13608 L392.7283 733.3673 L403.12098 723.48833 L415.28953 715.90362 L428.73579 710.92367 L442.90925 708.75237 L457.22967 709.47862 L471.11075 713.07268 L483.9842 719.38741 L495.32299 728.16429 L504.6629 739.04398 L511.62156 751.58108 L515.91407 765.26231 L517.36471 779.52756 M533.15432 814.96063 L531.70369 829.22588 L527.41118 842.90711 L520.45252 855.4442 L511.11261 866.3239 L499.77382 875.10077 L486.90037 881.41551 L473.01929 885.00957 L458.69887 885.73582 L444.52541 883.56452 L431.07915 878.58457 L418.91059 870.99986 L408.51792 861.12088 L400.32661 849.35211 L394.67202 836.17534 L391.78563 822.13004 L391.78563 807.79122 L394.67202 793.74592 L400.32661 780.56915 L408.51792 768.80038 L418.91059 758.9214 L431.07915 751.33669 L444.52541 746.35674 L458.69887 744.18544 L473.01929 744.91169 L486.90037 748.50575 L499.77382 754.82049 L511.11261 763.59736 L520.45252 774.47706 L527.41118 787.01415 L531.70369 800.69538 L533.15432 814.96063 M548.38688 850.3937 L546.93625 864.65895 L542.64373 878.34018 L535.68508 890.87728 L526.34517 901.75697 L515.00638 910.53385 L502.13292 916.84858 L488.25184 920.44264 L473.93143 921.16889 L459.75796 918.99759 L446.31171 914.01764 L434.14315 906.43293 L423.75048 896.55396 L415.55917 884.78518 L409.90457 871.60841 L407.01819 857.56311 L407.01819 843.22429 L409.90457 829.17899 L415.55917 816.00222 L423.75048 804.23345 L434.14315 794.35448 L446.31171 786.76976 L459.75796 781.78981 L473.93143 779.61852 L488.25184 780.34476 L502.13292 783.93883 L515.00638 790.25356 L526.34517 799.03043 L535.68508 809.91013 L542.64373 822.44722 L546.93625 836.12845 L548.38688 850.3937 M562.93387 885.82677 L561.48324 900.09202 L557.19073 913.77325 L550.23207 926.31035 L540.89216 937.19004 L529.55337 945.96692 L516.67992 952.28165 L502.79883 955.87571 L488.47842 956.60196 L474.30495 954.43066 L460.8587 949.45072 L448.69014 941.866 L438.29747 931.98703 L430.10616 920.21825 L424.45156 907.04148 L421.56518 892.99618 L421.56518 878.65736 L424.45156 864.61206 L430.10616 851.43529 L438.29747 839.66652 L448.69014 829.78755 L460.8587 822.20283 L474.30495 817.22288 L488.47842 815.05159 L502.79883 815.77784 L516.67992 819.3719 L529.55337 825.68663 L540.89216 834.4635 L550.23207 845.3432 L557.19073 857.88029 L561.48324 871.56152 L562.93387 885.82677 M576.67975 921.25984 L575.22912 935.52509 L570.9366 949.20632 L563.97795 961.74342 L554.63804 972.62311 L543.29925 981.39999 L530.42579 987.71472 L516.54471 991.30878 L502.2243 992.03503 L488.05083 989.86373 L474.60458 984.88379 L462.43602 977.29907 L452.04335 967.4201 L443.85204 955.65132 L438.19744 942.47455 L435.31106 928.42925 L435.31106 914.09043 L438.19744 900.04513 L443.85204 886.86836 L452.04335 875.09959 L462.43602 865.22062 L474.60458 857.6359 L488.05083 852.65595 L502.2243 850.48466 L516.54471 851.21091 L530.42579 854.80497 L543.29925 861.1197 L554.63804 869.89657 L563.97795 880.77627 L570.9366 893.31336 L575.22912 906.99459 L576.67975 921.25984 M589.5227 956.69291 L588.07207 970.95816 L583.77955 984.63939 L576.8209 997.17649 L567.48098 1008.05618 L556.1422 1016.83306 L543.26874 1023.14779 L529.38766 1026.74185 L515.06725 1027.4681 L500.89378 1025.2968 L487.44752 1020.31686 L475.27897 1012.73214 L464.8863 1002.85317 L456.69499 991.08439 L451.04039 977.90762 L448.15401 963.86232 L448.15401 949.5235 L451.04039 935.4782 L456.69499 922.30144 L464.8863 910.53266 L475.27897 900.65369 L487.44752 893.06897 L500.89378 888.08902 L515.06725 885.91773 L529.38766 886.64398 L543.26874 890.23804 L556.1422 896.55277 L567.48098 905.32964 L576.8209 916.20934 L583.77955 928.74644 L588.07207 942.42766 L589.5227 956.69291 M601.37526 992.12598 L599.92463 1006.39123 L595.63212 1020.07246 L588.67346 1032.60956 L579.33355 1043.48925 L567.99476 1052.26613 L555.12131 1058.58086 L541.24023 1062.17492 L526.91981 1062.90117 L512.74634 1060.72987 L499.30009 1055.74993 L487.13153 1048.16521 L476.73886 1038.28624 L468.54755 1026.51746 L462.89296 1013.34069 L460.00657 999.29539 L460.00657 984.95658 L462.89296 970.91127 L468.54755 957.73451 L476.73886 945.96573 L487.13153 936.08676 L499.30009 928.50204 L512.74634 923.52209 L526.91981 921.3508 L541.24023 922.07705 L555.12131 925.67111 L567.99476 931.98584 L579.33355 940.76272 L588.67346 951.64241 L595.63212 964.17951 L599.92463 977.86073 L601.37526 992.12598 M612.16482 1027.55906 L610.71419 1041.8243 L606.42167 1055.50553 L599.46302 1068.04263 L590.12311 1078.92232 L578.78432 1087.6992 L565.91086 1094.01393 L552.02978 1097.60799 L537.70937 1098.33424 L523.5359 1096.16295 L510.08964 1091.183 L497.92109 1083.59828 L487.52842 1073.71931 L479.33711 1061.95053 L473.68251 1048.77376 L470.79613 1034.72846 L470.79613 1020.38965 L473.68251 1006.34435 L479.33711 993.16758 L487.52842 981.3988 L497.92109 971.51983 L510.08964 963.93511 L523.5359 958.95516 L537.70937 956.78387 L552.02978 957.51012 L565.91086 961.10418 L578.78432 967.41891 L590.12311 976.19579 L599.46302 987.07548 L606.42167 999.61258 L610.71419 1013.29381 L612.16482 1027.55906 M621.83382 1062.99213 L620.38319 1077.25738 L616.09068 1090.9386 L609.13202 1103.4757 L599.79211 1114.35539 L588.45332 1123.13227 L575.57986 1129.447 L561.69878 1133.04106 L547.37837 1133.76731 L533.2049 1131.59602 L519.75865 1126.61607 L507.59009 1119.03135 L497.19742 1109.15238 L489.00611 1097.3836 L483.35151 1084.20684 L480.46513 1070.16153 L480.46513 1055.82272 L483.35151 1041.77742 L489.00611 1028.60065 L497.19742 1016.83187 L507.59009 1006.9529 L519.75865 999.36818 L533.2049 994.38824 L547.37837 992.21694 L561.69878 992.94319 L575.57986 996.53725 L588.45332 1002.85198 L599.79211 1011.62886 L609.13202 1022.50855 L616.09068 1035.04565 L620.38319 1048.72688 L621.83382 1062.99213 M630.33988 1098.4252 L628.88924 1112.69045 L624.59673 1126.37167 L617.63807 1138.90877 L608.29816 1149.78847 L596.95937 1158.56534 L584.08592 1164.88007 L570.20484 1168.47413 L555.88442 1169.20038 L541.71096 1167.02909 L528.2647 1162.04914 L516.09615 1154.46442 L505.70347 1144.58545 L497.51216 1132.81667 L491.85757 1119.63991 L488.97118 1105.59461 L488.97118 1091.25579 L491.85757 1077.21049 L497.51216 1064.03372 L505.70347 1052.26494 L516.09615 1042.38597 L528.2647 1034.80125 L541.71096 1029.82131 L555.88442 1027.65001 L570.20484 1028.37626 L584.08592 1031.97032 L596.95937 1038.28505 L608.29816 1047.06193 L617.63807 1057.94162 L624.59673 1070.47872 L628.88924 1084.15995 L630.33988 1098.4252 M496.06299 389.76378 L494.61236 404.02903 L490.31984 417.71026 L483.36119 430.24735 L474.02128 441.12705 L462.68249 449.90392 L449.80903 456.21866 L435.92795 459.81272 L421.60754 460.53897 L407.43407 458.36767 L393.98782 453.38772 L381.81926 445.803 L371.42659 435.92403 L363.23528 424.15526 L357.58068 410.97849 L354.6943 396.93319 L354.6943 382.59437 L357.58068 368.54907 L363.23528 355.3723 L371.42659 343.60352 L381.81926 333.72455 L393.98782 326.13984 L407.43407 321.15989 L421.60754 318.98859 L435.92795 319.71484 L449.80903 323.3089 L462.68249 329.62364 L474.02128 338.40051 L483.36119 349.28021 L490.31984 361.8173 L494.61236 375.49853 L496.06299 389.76378 M495.9621 425.19685 L494.51147 439.4621 L490.21895 453.14333 L483.2603 465.68042 L473.92039 476.56012 L462.5816 485.33699 L449.70814 491.65173 L435.82706 495.24579 L421.50665 495.97204 L407.33318 493.80074 L393.88692 488.82079 L381.71837 481.23608 L371.3257 471.35711 L363.13439 459.58833 L357.47979 446.41156 L354.59341 432.36626 L354.59341 418.02744 L357.47979 403.98214 L363.13439 390.80537 L371.3257 379.0366 L381.71837 369.15762 L393.88692 361.57291 L407.33318 356.59296 L421.50665 354.42166 L435.82706 355.14791 L449.70814 358.74197 L462.5816 365.05671 L473.92039 373.83358 L483.2603 384.71328 L490.21895 397.25037 L494.51147 410.9316 L495.9621 425.19685 M498.20959 460.62992 L496.75895 474.89517 L492.46644 488.5764 L485.50778 501.1135 L476.16787 511.99319 L464.82908 520.77007 L451.95563 527.0848 L438.07455 530.67886 L423.75413 531.40511 L409.58067 529.23381 L396.13441 524.25387 L383.96586 516.66915 L373.57319 506.79018 L365.38187 495.0214 L359.72728 481.84463 L356.8409 467.79933 L356.8409 453.46051 L359.72728 439.41521 L365.38187 426.23844 L373.57319 414.46967 L383.96586 404.5907 L396.13441 397.00598 L409.58067 392.02603 L423.75413 389.85474 L438.07455 390.58098 L451.95563 394.17505 L464.82908 400.48978 L476.16787 409.26665 L485.50778 420.14635 L492.46644 432.68344 L496.75895 446.36467 L498.20959 460.62992 M502.51317 496.06299 L501.06254 510.32824 L496.77003 524.00947 L489.81137 536.54657 L480.47146 547.42626 L469.13267 556.20314 L456.25921 562.51787 L442.37813 566.11193 L428.05772 566.83818 L413.88425 564.66688 L400.438 559.68694 L388.26944 552.10222 L377.87677 542.22325 L369.68546 530.45447 L364.03086 517.2777 L361.14448 503.2324 L361.14448 488.89358 L364.03086 474.84828 L369.68546 461.67151 L377.87677 449.90274 L388.26944 440.02377 L400.438 432.43905 L413.88425 427.4591 L428.05772 425.28781 L442.37813 426.01406 L456.25921 429.60812 L469.13267 435.92285 L480.47146 444.69972 L489.81137 455.57942 L496.77003 468.11651 L501.06254 481.79774 L502.51317 496.06299 M508.58895 531.49606 L507.13832 545.76131 L502.84581 559.44254 L495.88715 571.97964 L486.54724 582.85933 L475.20845 591.63621 L462.335 597.95094 L448.45392 601.545 L434.1335 602.27125 L419.96004 600.09995 L406.51378 595.12001 L394.34522 587.53529 L383.95255 577.65632 L375.76124 565.88754 L370.10665 552.71077 L367.22026 538.66547 L367.22026 524.32665 L370.10665 510.28135 L375.76124 497.10459 L383.95255 485.33581 L394.34522 475.45684 L406.51378 467.87212 L419.96004 462.89217 L434.1335 460.72088 L448.45392 461.44713 L462.335 465.04119 L475.20845 471.35592 L486.54724 480.13279 L495.88715 491.01249 L502.84581 503.54959 L507.13832 517.23081 L508.58895 531.49606 M516.16291 566.92913 L514.71228 581.19438 L510.41976 594.87561 L503.46111 607.41271 L494.1212 618.2924 L482.78241 627.06928 L469.90895 633.38401 L456.02787 636.97807 L441.70746 637.70432 L427.53399 635.53302 L414.08773 630.55308 L401.91918 622.96836 L391.52651 613.08939 L383.3352 601.32061 L377.6806 588.14384 L374.79422 574.09854 L374.79422 559.75973 L377.6806 545.71442 L383.3352 532.53766 L391.52651 520.76888 L401.91918 510.88991 L414.08773 503.30519 L427.53399 498.32524 L441.70746 496.15395 L456.02787 496.8802 L469.90895 500.47426 L482.78241 506.78899 L494.1212 515.56587 L503.46111 526.44556 L510.41976 538.98266 L514.71228 552.66388 L516.16291 566.92913 M524.97175 602.3622 L523.52111 616.62745 L519.2286 630.30868 L512.26994 642.84578 L502.93003 653.72547 L491.59124 662.50235 L478.71779 668.81708 L464.83671 672.41114 L450.5163 673.13739 L436.34283 670.9661 L422.89657 665.98615 L410.72802 658.40143 L400.33535 648.52246 L392.14404 636.75368 L386.48944 623.57691 L383.60306 609.53161 L383.60306 595.1928 L386.48944 581.1475 L392.14404 567.97073 L400.33535 556.20195 L410.72802 546.32298 L422.89657 538.73826 L436.34283 533.75831 L450.5163 531.58702 L464.83671 532.31327 L478.71779 535.90733 L491.59124 542.22206 L502.93003 550.99894 L512.26994 561.87863 L519.2286 574.41573 L523.52111 588.09696 L524.97175 602.3622 M534.76352 637.79528 L533.31289 652.06053 L529.02037 665.74175 L522.06172 678.27885 L512.72181 689.15854 L501.38302 697.93542 L488.50956 704.25015 L474.62848 707.84421 L460.30807 708.57046 L446.1346 706.39917 L432.68835 701.41922 L420.51979 693.8345 L410.12712 683.95553 L401.93581 672.18675 L396.28121 659.00999 L393.39483 644.96468 L393.39483 630.62587 L396.28121 616.58057 L401.93581 603.4038 L410.12712 591.63502 L420.51979 581.75605 L432.68835 574.17133 L446.1346 569.19139 L460.30807 567.02009 L474.62848 567.74634 L488.50956 571.3404 L501.38302 577.65513 L512.72181 586.43201 L522.06172 597.3117 L529.02037 609.8488 L533.31289 623.53003 L534.76352 637.79528 M545.29853 673.22835 L543.8479 687.4936 L539.55538 701.17482 L532.59673 713.71192 L523.25682 724.59161 L511.91803 733.36849 L499.04457 739.68322 L485.16349 743.27728 L470.84308 744.00353 L456.66961 741.83224 L443.22335 736.85229 L431.0548 729.26757 L420.66213 719.3886 L412.47082 707.61982 L406.81622 694.44306 L403.92984 680.39776 L403.92984 666.05894 L406.81622 652.01364 L412.47082 638.83687 L420.66213 627.06809 L431.0548 617.18912 L443.22335 609.6044 L456.66961 604.62446 L470.84308 602.45316 L485.16349 603.17941 L499.04457 606.77347 L511.91803 613.0882 L523.25682 621.86508 L532.59673 632.74477 L539.55538 645.28187 L543.8479 658.9631 L545.29853 673.22835 M556.35012 708.66142 L554.89949 722.92667 L550.60697 736.6079 L543.64832 749.14499 L534.30841 760.02469 L522.96962 768.80156 L510.09616 775.11629 L496.21508 778.71035 L481.89467 779.4366 L467.7212 777.26531 L454.27494 772.28536 L442.10639 764.70064 L431.71372 754.82167 L423.52241 743.05289 L417.86781 729.87613 L414.98143 715.83083 L414.98143 701.49201 L417.86781 687.44671 L423.52241 674.26994 L431.71372 662.50116 L442.10639 652.62219 L454.27494 645.03747 L467.7212 640.05753 L481.89467 637.88623 L496.21508 638.61248 L510.09616 642.20654 L522.96962 648.52127 L534.30841 657.29815 L543.64832 668.17784 L550.60697 680.71494 L554.89949 694.39617 L556.35012 708.66142 M567.70527 744.09449 L566.25463 758.35974 L561.96212 772.04097 L555.00346 784.57806 L545.66355 795.45776 L534.32476 804.23463 L521.45131 810.54936 L507.57023 814.14342 L493.24981 814.86967 L479.07635 812.69838 L465.63009 807.71843 L453.46154 800.13371 L443.06886 790.25474 L434.87755 778.48597 L429.22296 765.3092 L426.33657 751.2639 L426.33657 736.92508 L429.22296 722.87978 L434.87755 709.70301 L443.06886 697.93423 L453.46154 688.05526 L465.63009 680.47054 L479.07635 675.4906 L493.24981 673.3193 L507.57023 674.04555 L521.45131 677.63961 L534.32476 683.95434 L545.66355 692.73122 L555.00346 703.61091 L561.96212 716.14801 L566.25463 729.82924 L567.70527 744.09449 M579.16506 779.52756 L577.71443 793.79281 L573.42191 807.47404 L566.46326 820.01113 L557.12335 830.89083 L545.78456 839.6677 L532.9111 845.98243 L519.03002 849.5765 L504.70961 850.30274 L490.53614 848.13145 L477.08988 843.1515 L464.92133 835.56678 L454.52866 825.68781 L446.33735 813.91904 L440.68275 800.74227 L437.79637 786.69697 L437.79637 772.35815 L440.68275 758.31285 L446.33735 745.13608 L454.52866 733.3673 L464.92133 723.48833 L477.08988 715.90362 L490.53614 710.92367 L504.70961 708.75237 L519.03002 709.47862 L532.9111 713.07268 L545.78456 719.38741 L557.12335 728.16429 L566.46326 739.04398 L573.42191 751.58108 L577.71443 765.26231 L579.16506 779.52756 M590.54518 814.96063 L589.09455 829.22588 L584.80203 842.90711 L577.84338 855.4442 L568.50347 866.3239 L557.16468 875.10077 L544.29122 881.41551 L530.41014 885.00957 L516.08973 885.73582 L501.91626 883.56452 L488.47 878.58457 L476.30145 870.99986 L465.90878 861.12088 L457.71747 849.35211 L452.06287 836.17534 L449.17649 822.13004 L449.17649 807.79122 L452.06287 793.74592 L457.71747 780.56915 L465.90878 768.80038 L476.30145 758.9214 L488.47 751.33669 L501.91626 746.35674 L516.08973 744.18544 L530.41014 744.91169 L544.29122 748.50575 L557.16468 754.82049 L568.50347 763.59736 L577.84338 774.47706 L584.80203 787.01415 L589.09455 800.69538 L590.54518 814.96063 M601.67635 850.3937 L600.22572 864.65895 L595.9332 878.34018 L588.97455 890.87728 L579.63464 901.75697 L568.29585 910.53385 L555.42239 916.84858 L541.54131 920.44264 L527.2209 921.16889 L513.04743 918.99759 L499.60117 914.01764 L487.43262 906.43293 L477.03995 896.55396 L468.84864 884.78518 L463.19404 871.60841 L460.30766 857.56311 L460.30766 843.22429 L463.19404 829.17899 L468.84864 816.00222 L477.03995 804.23345 L487.43262 794.35448 L499.60117 786.76976 L513.04743 781.78981 L527.2209 779.61852 L541.54131 780.34476 L555.42239 783.93883 L568.29585 790.25356 L579.63464 799.03043 L588.97455 809.91013 L595.9332 822.44722 L600.22572 836.12845 L601.67635 850.3937 M612.4048 885.82677 L610.95417 900.09202 L606.66166 913.77325 L599.703 926.31035 L590.36309 937.19004 L579.0243 945.96692 L566.15084 952.28165 L552.26976 955.87571 L537.94935 956.60196 L523.77588 954.43066 L510.32963 949.45072 L498.16107 941.866 L487.7684 931.98703 L479.57709 920.21825 L473.92249 907.04148 L471.03611 892.99618 L471.03611 878.65736 L473.92249 864.61206 L479.57709 851.43529 L487.7684 839.66652 L498.16107 829.78755 L510.32963 822.20283 L523.77588 817.22288 L537.94935 815.05159 L552.26976 815.77784 L566.15084 819.3719 L579.0243 825.68663 L590.36309 834.4635 L599.703 845.3432 L606.66166 857.88029 L610.95417 871.56152 L612.4048 885.82677 M622.59269 921.25984 L621.14206 935.52509 L616.84954 949.20632 L609.89089 961.74342 L600.55098 972.62311 L589.21219 981.39999 L576.33873 987.71472 L562.45765 991.30878 L548.13724 992.03503 L533.96377 989.86373 L520.51751 984.88379 L508.34896 977.29907 L497.95629 967.4201 L489.76498 955.65132 L484.11038 942.47455 L481.224 928.42925 L481.224 914.09043 L484.11038 900.04513 L489.76498 886.86836 L497.95629 875.09959 L508.34896 865.22062 L520.51751 857.6359 L533.96377 852.65595 L548.13724 850.48466 L562.45765 851.21091 L576.33873 854.80497 L589.21219 861.1197 L600.55098 869.89657 L609.89089 880.77627 L616.84954 893.31336 L621.14206 906.99459 L622.59269 921.25984 M632.11843 956.69291 L630.6678 970.95816 L626.37528 984.63939 L619.41663 997.17649 L610.07672 1008.05618 L598.73793 1016.83306 L585.86447 1023.14779 L571.98339 1026.74185 L557.66298 1027.4681 L543.48951 1025.2968 L530.04325 1020.31686 L517.8747 1012.73214 L507.48203 1002.85317 L499.29072 991.08439 L493.63612 977.90762 L490.74974 963.86232 L490.74974 949.5235 L493.63612 935.4782 L499.29072 922.30144 L507.48203 910.53266 L517.8747 900.65369 L530.04325 893.06897 L543.48951 888.08902 L557.66298 885.91773 L571.98339 886.64398 L585.86447 890.23804 L598.73793 896.55277 L610.07672 905.32964 L619.41663 916.20934 L626.37528 928.74644 L630.6678 942.42766 L632.11843 956.69291 M640.87695 992.12598 L639.42632 1006.39123 L635.1338 1020.07246 L628.17515 1032.60956 L618.83524 1043.48925 L607.49645 1052.26613 L594.62299 1058.58086 L580.74191 1062.17492 L566.4215 1062.90117 L552.24803 1060.72987 L538.80177 1055.74993 L526.63322 1048.16521 L516.24055 1038.28624 L508.04924 1026.51746 L502.39464 1013.34069 L499.50826 999.29539 L499.50826 984.95658 L502.39464 970.91127 L508.04924 957.73451 L516.24055 945.96573 L526.63322 936.08676 L538.80177 928.50204 L552.24803 923.52209 L566.4215 921.3508 L580.74191 922.07705 L594.62299 925.67111 L607.49645 931.98584 L618.83524 940.76272 L628.17515 951.64241 L635.1338 964.17951 L639.42632 977.86073 L640.87695 992.12598 M648.77981 1027.55906 L647.32918 1041.8243 L643.03666 1055.50553 L636.07801 1068.04263 L626.7381 1078.92232 L615.39931 1087.6992 L602.52585 1094.01393 L588.64477 1097.60799 L574.32436 1098.33424 L560.15089 1096.16295 L546.70463 1091.183 L534.53608 1083.59828 L524.14341 1073.71931 L515.9521 1061.95053 L510.2975 1048.77376 L507.41112 1034.72846 L507.41112 1020.38965 L510.2975 1006.34435 L515.9521 993.16758 L524.14341 981.3988 L534.53608 971.51983 L546.70463 963.93511 L560.15089 958.95516 L574.32436 956.78387 L588.64477 957.51012 L602.52585 961.10418 L615.39931 967.41891 L626.7381 976.19579 L636.07801 987.07548 L643.03666 999.61258 L647.32918 1013.29381 L648.77981 1027.55906 M655.75518 1062.99213 L654.30455 1077.25738 L650.01203 1090.9386 L643.05338 1103.4757 L633.71346 1114.35539 L622.37468 1123.13227 L609.50122 1129.447 L595.62014 1133.04106 L581.29973 1133.76731 L567.12626 1131.59602 L553.68 1126.61607 L541.51145 1119.03135 L531.11878 1109.15238 L522.92747 1097.3836 L517.27287 1084.20684 L514.38649 1070.16153 L514.38649 1055.82272 L517.27287 1041.77742 L522.92747 1028.60065 L531.11878 1016.83187 L541.51145 1006.9529 L553.68 999.36818 L567.12626 994.38824 L581.29973 992.21694 L595.62014 992.94319 L609.50122 996.53725 L622.37468 1002.85198 L633.71346 1011.62886 L643.05338 1022.50855 L650.01203 1035.04565 L654.30455 1048.72688 L655.75518 1062.99213 M661.74767 1098.4252 L660.29703 1112.69045 L656.00452 1126.37167 L649.04586 1138.90877 L639.70595 1149.78847 L628.36716 1158.56534 L615.49371 1164.88007 L601.61263 1168.47413 L587.29221 1169.20038 L573.11875 1167.02909 L559.67249 1162.04914 L547.50393 1154.46442 L537.11126 1144.58545 L528.91995 1132.81667 L523.26536 1119.63991 L520.37897 1105.59461 L520.37897 1091.25579 L523.26536 1077.21049 L528.91995 1064.03372 L537.11126 1052.26494 L547.50393 1042.38597 L559.67249 1034.80125 L573.11875 1029.82131 L587.29221 1027.65001 L601.61263 1028.37626 L615.49371 1031.97032 L628.36716 1038.28505 L639.70595 1047.06193 L649.04586 1057.94162 L656.00452 1070.47872 L660.29703 1084.15995 L661.74767 1098.4252 M637.79528 389.76378 L636.34464 404.02903 L632.05213 417.71026 L625.09347 430.24735 L615.75356 441.12705 L604.41477 449.90392 L591.54132 456.21866 L577.66024 459.81272 L563.33982 460.53897 L549.16636 458.36767 L535.7201 453.38772 L523.55154 445.803 L513.15887 435.92403 L504.96756 424.15526 L499.31297 410.97849 L496.42658 396.93319 L496.42658 382.59437 L499.31297 368.54907 L504.96756 355.3723 L513.15887 343.60352 L523.55154 333.72455 L535.7201 326.13984 L549.16636 321.15989 L563.33982 318.98859 L577.66024 319.71484 L591.54132 323.3089 L604.41477 329.62364 L615.75356 338.40051 L625.09347 349.28021 L632.05213 361.8173 L636.34464 375.49853 L637.79528 389.76378 M628.52755 425.19685 L627.07691 439.4621 L622.7844 453.14333 L615.82574 465.68042 L606.48583 476.56012 L595.14705 485.33699 L582.27359 491.65173 L568.39251 495.24579 L554.0721 495.97204 L539.89863 493.80074 L526.45237 488.82079 L514.28382 481.23608 L503.89115 471.35711 L495.69984 459.58833 L490.04524 446.41156 L487.15886 432.36626 L487.15886 418.02744 L490.04524 403.98214 L495.69984 390.80537 L503.89115 379.0366 L514.28382 369.15762 L526.45237 361.57291 L539.89863 356.59296 L554.0721 354.42166 L568.39251 355.14791 L582.27359 358.74197 L595.14705 365.05671 L606.48583 373.83358 L615.82574 384.71328 L622.7844 397.25037 L627.07691 410.9316 L628.52755 425.19685 M622.04829 460.62992 L620.59765 474.89517 L616.30514 488.5764 L609.34648 501.1135 L600.00657 511.99319 L588.66779 520.77007 L575.79433 527.0848 L561.91325 530.67886 L547.59284 531.40511 L533.41937 529.23381 L519.97311 524.25387 L507.80456 516.66915 L497.41189 506.79018 L489.22058 495.0214 L483.56598 481.84463 L480.6796 467.79933 L480.6796 453.46051 L483.56598 439.41521 L489.22058 426.23844 L497.41189 414.46967 L507.80456 404.5907 L519.97311 397.00598 L533.41937 392.02603 L547.59284 389.85474 L561.91325 390.58098 L575.79433 394.17505 L588.66779 400.48978 L600.00657 409.26665 L609.34648 420.14635 L616.30514 432.68344 L620.59765 446.36467 L622.04829 460.62992 M618.09316 496.06299 L616.64252 510.32824 L612.35001 524.00947 L605.39135 536.54657 L596.05144 547.42626 L584.71265 556.20314 L571.8392 562.51787 L557.95812 566.11193 L543.6377 566.83818 L529.46424 564.66688 L516.01798 559.68694 L503.84943 552.10222 L493.45675 542.22325 L485.26544 530.45447 L479.61085 517.2777 L476.72446 503.2324 L476.72446 488.89358 L479.61085 474.84828 L485.26544 461.67151 L493.45675 449.90274 L503.84943 440.02377 L516.01798 432.43905 L529.46424 427.4591 L543.6377 425.28781 L557.95812 426.01406 L571.8392 429.60812 L584.71265 435.92285 L596.05144 444.69972 L605.39135 455.57942 L612.35001 468.11651 L616.64252 481.79774 L618.09316 496.06299 M616.38807 531.49606 L614.93743 545.76131 L610.64492 559.44254 L603.68626 571.97964 L594.34635 582.85933 L583.00756 591.63621 L570.13411 597.95094 L556.25303 601.545 L541.93261 602.27125 L527.75915 600.09995 L514.31289 595.12001 L502.14434 587.53529 L491.75166 577.65632 L483.56035 565.88754 L477.90576 552.71077 L475.01937 538.66547 L475.01937 524.32665 L477.90576 510.28135 L483.56035 497.10459 L491.75166 485.33581 L502.14434 475.45684 L514.31289 467.87212 L527.75915 462.89217 L541.93261 460.72088 L556.25303 461.44713 L570.13411 465.04119 L583.00756 471.35592 L594.34635 480.13279 L603.68626 491.01249 L610.64492 503.54959 L614.93743 517.23081 L616.38807 531.49606 M616.65567 566.92913 L615.20504 581.19438 L610.91252 594.87561 L603.95387 607.41271 L594.61395 618.2924 L583.27517 627.06928 L570.40171 633.38401 L556.52063 636.97807 L542.20022 637.70432 L528.02675 635.53302 L514.58049 630.55308 L502.41194 622.96836 L492.01927 613.08939 L483.82796 601.32061 L478.17336 588.14384 L475.28698 574.09854 L475.28698 559.75973 L478.17336 545.71442 L483.82796 532.53766 L492.01927 520.76888 L502.41194 510.88991 L514.58049 503.30519 L528.02675 498.32524 L542.20022 496.15395 L556.52063 496.8802 L570.40171 500.47426 L583.27517 506.78899 L594.61395 515.56587 L603.95387 526.44556 L610.91252 538.98266 L615.20504 552.66388 L616.65567 566.92913 M618.62029 602.3622 L617.16966 616.62745 L612.87715 630.30868 L605.91849 642.84578 L596.57858 653.72547 L585.23979 662.50235 L572.36633 668.81708 L558.48525 672.41114 L544.16484 673.13739 L529.99137 670.9661 L516.54512 665.98615 L504.37656 658.40143 L493.98389 648.52246 L485.79258 636.75368 L480.13798 623.57691 L477.2516 609.53161 L477.2516 595.1928 L480.13798 581.1475 L485.79258 567.97073 L493.98389 556.20195 L504.37656 546.32298 L516.54512 538.73826 L529.99137 533.75831 L544.16484 531.58702 L558.48525 532.31327 L572.36633 535.90733 L585.23979 542.22206 L596.57858 550.99894 L605.91849 561.87863 L612.87715 574.41573 L617.16966 588.09696 L618.62029 602.3622 M622.01164 637.79528 L620.56101 652.06053 L616.26849 665.74175 L609.30984 678.27885 L599.96993 689.15854 L588.63114 697.93542 L575.75768 704.25015 L561.8766 707.84421 L547.55619 708.57046 L533.38272 706.39917 L519.93647 701.41922 L507.76791 693.8345 L497.37524 683.95553 L489.18393 672.18675 L483.52933 659.00999 L480.64295 644.96468 L480.64295 630.62587 L483.52933 616.58057 L489.18393 603.4038 L497.37524 591.63502 L507.76791 581.75605 L519.93647 574.17133 L533.38272 569.19139 L547.55619 567.02009 L561.8766 567.74634 L575.75768 571.3404 L588.63114 577.65513 L599.96993 586.43201 L609.30984 597.3117 L616.26849 609.8488 L620.56101 623.53003 L622.01164 637.79528 M626.56758 673.22835 L625.11695 687.4936 L620.82443 701.17482 L613.86578 713.71192 L604.52586 724.59161 L593.18708 733.36849 L580.31362 739.68322 L566.43254 743.27728 L552.11213 744.00353 L537.93866 741.83224 L524.4924 736.85229 L512.32385 729.26757 L501.93118 719.3886 L493.73987 707.61982 L488.08527 694.44306 L485.19889 680.39776 L485.19889 666.05894 L488.08527 652.01364 L493.73987 638.83687 L501.93118 627.06809 L512.32385 617.18912 L524.4924 609.6044 L537.93866 604.62446 L552.11213 602.45316 L566.43254 603.17941 L580.31362 606.77347 L593.18708 613.0882 L604.52586 621.86508 L613.86578 632.74477 L620.82443 645.28187 L625.11695 658.9631 L626.56758 673.22835 M632.03648 708.66142 L630.58585 722.92667 L626.29333 736.6079 L619.33468 749.14499 L609.99477 760.02469 L598.65598 768.80156 L585.78252 775.11629 L571.90144 778.71035 L557.58103 779.4366 L543.40756 777.26531 L529.96131 772.28536 L517.79275 764.70064 L507.40008 754.82167 L499.20877 743.05289 L493.55417 729.87613 L490.66779 715.83083 L490.66779 701.49201 L493.55417 687.44671 L499.20877 674.26994 L507.40008 662.50116 L517.79275 652.62219 L529.96131 645.03747 L543.40756 640.05753 L557.58103 637.88623 L571.90144 638.61248 L585.78252 642.20654 L598.65598 648.52127 L609.99477 657.29815 L619.33468 668.17784 L626.29333 680.71494 L630.58585 694.39617 L632.03648 708.66142 M638.17955 744.09449 L636.72891 758.35974 L632.4364 772.04097 L625.47774 784.57806 L616.13783 795.45776 L604.79904 804.23463 L591.92559 810.54936 L578.04451 814.14342 L563.72409 814.86967 L549.55063 812.69838 L536.10437 807.71843 L523.93582 800.13371 L513.54314 790.25474 L505.35183 778.48597 L499.69724 765.3092 L496.81085 751.2639 L496.81085 736.92508 L499.69724 722.87978 L505.35183 709.70301 L513.54314 697.93423 L523.93582 688.05526 L536.10437 680.47054 L549.55063 675.4906 L563.72409 673.3193 L578.04451 674.04555 L591.92559 677.63961 L604.79904 683.95434 L616.13783 692.73122 L625.47774 703.61091 L632.4364 716.14801 L636.72891 729.82924 L638.17955 744.09449 M644.77252 779.52756 L643.32188 793.79281 L639.02937 807.47404 L632.07072 820.01113 L622.7308 830.89083 L611.39202 839.6677 L598.51856 845.98243 L584.63748 849.5765 L570.31707 850.30274 L556.1436 848.13145 L542.69734 843.1515 L530.52879 835.56678 L520.13612 825.68781 L511.94481 813.91904 L506.29021 800.74227 L503.40383 786.69697 L503.40383 772.35815 L506.29021 758.31285 L511.94481 745.13608 L520.13612 733.3673 L530.52879 723.48833 L542.69734 715.90362 L556.1436 710.92367 L570.31707 708.75237 L584.63748 709.47862 L598.51856 713.07268 L611.39202 719.38741 L622.7308 728.16429 L632.07072 739.04398 L639.02937 751.58108 L643.32188 765.26231 L644.77252 779.52756 M651.60689 814.96063 L650.15626 829.22588 L645.86374 842.90711 L638.90509 855.4442 L629.56518 866.3239 L618.22639 875.10077 L605.35293 881.41551 L591.47185 885.00957 L577.15144 885.73582 L562.97797 883.56452 L549.53171 878.58457 L537.36316 870.99986 L526.97049 861.12088 L518.77918 849.35211 L513.12458 836.17534 L510.2382 822.13004 L510.2382 807.79122 L513.12458 793.74592 L518.77918 780.56915 L526.97049 768.80038 L537.36316 758.9214 L549.53171 751.33669 L562.97797 746.35674 L577.15144 744.18544 L591.47185 744.91169 L605.35293 748.50575 L618.22639 754.82049 L629.56518 763.59736 L638.90509 774.47706 L645.86374 787.01415 L650.15626 800.69538 L651.60689 814.96063 M658.49076 850.3937 L657.04012 864.65895 L652.74761 878.34018 L645.78895 890.87728 L636.44904 901.75697 L625.11025 910.53385 L612.2368 916.84858 L598.35572 920.44264 L584.0353 921.16889 L569.86184 918.99759 L556.41558 914.01764 L544.24703 906.43293 L533.85435 896.55396 L525.66304 884.78518 L520.00845 871.60841 L517.12206 857.56311 L517.12206 843.22429 L520.00845 829.17899 L525.66304 816.00222 L533.85435 804.23345 L544.24703 794.35448 L556.41558 786.76976 L569.86184 781.78981 L584.0353 779.61852 L598.35572 780.34476 L612.2368 783.93883 L625.11025 790.25356 L636.44904 799.03043 L645.78895 809.91013 L652.74761 822.44722 L657.04012 836.12845 L658.49076 850.3937 M665.24941 885.82677 L663.79877 900.09202 L659.50626 913.77325 L652.54761 926.31035 L643.20769 937.19004 L631.86891 945.96692 L618.99545 952.28165 L605.11437 955.87571 L590.79396 956.60196 L576.62049 954.43066 L563.17423 949.45072 L551.00568 941.866 L540.61301 931.98703 L532.4217 920.21825 L526.7671 907.04148 L523.88072 892.99618 L523.88072 878.65736 L526.7671 864.61206 L532.4217 851.43529 L540.61301 839.66652 L551.00568 829.78755 L563.17423 822.20283 L576.62049 817.22288 L590.79396 815.05159 L605.11437 815.77784 L618.99545 819.3719 L631.86891 825.68663 L643.20769 834.4635 L652.54761 845.3432 L659.50626 857.88029 L663.79877 871.56152 L665.24941 885.82677 M671.72576 921.25984 L670.27512 935.52509 L665.98261 949.20632 L659.02395 961.74342 L649.68404 972.62311 L638.34525 981.39999 L625.4718 987.71472 L611.59072 991.30878 L597.27031 992.03503 L583.09684 989.86373 L569.65058 984.88379 L557.48203 977.29907 L547.08936 967.4201 L538.89805 955.65132 L533.24345 942.47455 L530.35707 928.42925 L530.35707 914.09043 L533.24345 900.04513 L538.89805 886.86836 L547.08936 875.09959 L557.48203 865.22062 L569.65058 857.6359 L583.09684 852.65595 L597.27031 850.48466 L611.59072 851.21091 L625.4718 854.80497 L638.34525 861.1197 L649.68404 869.89657 L659.02395 880.77627 L665.98261 893.31336 L670.27512 906.99459 L671.72576 921.25984 M677.78059 956.69291 L676.32996 970.95816 L672.03744 984.63939 L665.07879 997.17649 L655.73888 1008.05618 L644.40009 1016.83306 L631.52663 1023.14779 L617.64555 1026.74185 L603.32514 1027.4681 L589.15167 1025.2968 L575.70541 1020.31686 L563.53686 1012.73214 L553.14419 1002.85317 L544.95288 991.08439 L539.29828 977.90762 L536.4119 963.86232 L536.4119 949.5235 L539.29828 935.4782 L544.95288 922.30144 L553.14419 910.53266 L563.53686 900.65369 L575.70541 893.06897 L589.15167 888.08902 L603.32514 885.91773 L617.64555 886.64398 L631.52663 890.23804 L644.40009 896.55277 L655.73888 905.32964 L665.07879 916.20934 L672.03744 928.74644 L676.32996 942.42766 L677.78059 956.69291 M683.29268 992.12598 L681.84205 1006.39123 L677.54953 1020.07246 L670.59088 1032.60956 L661.25096 1043.48925 L649.91218 1052.26613 L637.03872 1058.58086 L623.15764 1062.17492 L608.83723 1062.90117 L594.66376 1060.72987 L581.2175 1055.74993 L569.04895 1048.16521 L558.65628 1038.28624 L550.46497 1026.51746 L544.81037 1013.34069 L541.92399 999.29539 L541.92399 984.95658 L544.81037 970.91127 L550.46497 957.73451 L558.65628 945.96573 L569.04895 936.08676 L581.2175 928.50204 L594.66376 923.52209 L608.83723 921.3508 L623.15764 922.07705 L637.03872 925.67111 L649.91218 931.98584 L661.25096 940.76272 L670.59088 951.64241 L677.54953 964.17951 L681.84205 977.86073 L683.29268 992.12598 M688.15877 1027.55906 L686.70814 1041.8243 L682.41562 1055.50553 L675.45697 1068.04263 L666.11706 1078.92232 L654.77827 1087.6992 L641.90481 1094.01393 L628.02373 1097.60799 L613.70332 1098.33424 L599.52985 1096.16295 L586.0836 1091.183 L573.91504 1083.59828 L563.52237 1073.71931 L555.33106 1061.95053 L549.67646 1048.77376 L546.79008 1034.72846 L546.79008 1020.38965 L549.67646 1006.34435 L555.33106 993.16758 L563.52237 981.3988 L573.91504 971.51983 L586.0836 963.93511 L599.52985 958.95516 L613.70332 956.78387 L628.02373 957.51012 L641.90481 961.10418 L654.77827 967.41891 L666.11706 976.19579 L675.45697 987.07548 L682.41562 999.61258 L686.70814 1013.29381 L688.15877 1027.55906 M692.29342 1062.99213 L690.84279 1077.25738 L686.55027 1090.9386 L679.59162 1103.4757 L670.25171 1114.35539 L658.91292 1123.13227 L646.03946 1129.447 L632.15838 1133.04106 L617.83797 1133.76731 L603.6645 1131.59602 L590.21825 1126.61607 L578.04969 1119.03135 L567.65702 1109.15238 L559.46571 1097.3836 L553.81111 1084.20684 L550.92473 1070.16153 L550.92473 1055.82272 L553.81111 1041.77742 L559.46571 1028.60065 L567.65702 1016.83187 L578.04969 1006.9529 L590.21825 999.36818 L603.6645 994.38824 L617.83797 992.21694 L632.15838 992.94319 L646.03946 996.53725 L658.91292 1002.85198 L670.25171 1011.62886 L679.59162 1022.50855 L686.55027 1035.04565 L690.84279 1048.72688 L692.29342 1062.99213 M695.6287 1098.4252 L694.17806 1112.69045 L689.88555 1126.37167 L682.92689 1138.90877 L673.58698 1149.78847 L662.24819 1158.56534 L649.37474 1164.88007 L635.49366 1168.47413 L621.17324 1169.20038 L606.99978 1167.02909 L593.55352 1162.04914 L581.38497 1154.46442 L570.99229 1144.58545 L562.80098 1132.81667 L557.14639 1119.63991 L554.26 1105.59461 L554.26 1091.25579 L557.14639 1077.21049 L562.80098 1064.03372 L570.99229 1052.26494 L581.38497 1042.38597 L593.55352 1034.80125 L606.99978 1029.82131 L621.17324 1027.65001 L635.49366 1028.37626 L649.37474 1031.97032 L662.24819 1038.28505 L673.58698 1047.06193 L682.92689 1057.94162 L689.88555 1070.47872 L694.17806 1084.15995 L695.6287 1098.4252 M779.52756 389.76378 L778.07692 404.02903 L773.78441 417.71026 L766.82576 430.24735 L757.48584 441.12705 L746.14706 449.90392 L733.2736 456.21866 L719.39252 459.81272 L705.07211 460.53897 L690.89864 458.36767 L677.45238 453.38772 L665.28383 445.803 L654.89116 435.92403 L646.69985 424.15526 L641.04525 410.97849 L638.15887 396.93319 L638.15887 382.59437 L641.04525 368.54907 L646.69985 355.3723 L654.89116 343.60352 L665.28383 333.72455 L677.45238 326.13984 L690.89864 321.15989 L705.07211 318.98859 L719.39252 319.71484 L733.2736 323.3089 L746.14706 329.62364 L757.48584 338.40051 L766.82576 349.28021 L773.78441 361.8173 L778.07692 375.49853 L779.52756 389.76378 M762.98327 425.19685 L761.53263 439.4621 L757.24012 453.14333 L750.28146 465.68042 L740.94155 476.56012 L729.60276 485.33699 L716.72931 491.65173 L702.84823 495.24579 L688.52782 495.97204 L674.35435 493.80074 L660.90809 488.82079 L648.73954 481.23608 L638.34687 471.35711 L630.15556 459.58833 L624.50096 446.41156 L621.61458 432.36626 L621.61458 418.02744 L624.50096 403.98214 L630.15556 390.80537 L638.34687 379.0366 L648.73954 369.15762 L660.90809 361.57291 L674.35435 356.59296 L688.52782 354.42166 L702.84823 355.14791 L716.72931 358.74197 L729.60276 365.05671 L740.94155 373.83358 L750.28146 384.71328 L757.24012 397.25037 L761.53263 410.9316 L762.98327 425.19685 M749.21962 460.62992 L747.76899 474.89517 L743.47648 488.5764 L736.51782 501.1135 L727.17791 511.99319 L715.83912 520.77007 L702.96566 527.0848 L689.08458 530.67886 L674.76417 531.40511 L660.5907 529.23381 L647.14445 524.25387 L634.97589 516.66915 L624.58322 506.79018 L616.39191 495.0214 L610.73731 481.84463 L607.85093 467.79933 L607.85093 453.46051 L610.73731 439.41521 L616.39191 426.23844 L624.58322 414.46967 L634.97589 404.5907 L647.14445 397.00598 L660.5907 392.02603 L674.76417 389.85474 L689.08458 390.58098 L702.96566 394.17505 L715.83912 400.48978 L727.17791 409.26665 L736.51782 420.14635 L743.47648 432.68344 L747.76899 446.36467 L749.21962 460.62992 M738.07616 496.06299 L736.62553 510.32824 L732.33301 524.00947 L725.37436 536.54657 L716.03445 547.42626 L704.69566 556.20314 L691.8222 562.51787 L677.94112 566.11193 L663.62071 566.83818 L649.44724 564.66688 L636.00098 559.68694 L623.83243 552.10222 L613.43976 542.22325 L605.24845 530.45447 L599.59385 517.2777 L596.70747 503.2324 L596.70747 488.89358 L599.59385 474.84828 L605.24845 461.67151 L613.43976 449.90274 L623.83243 440.02377 L636.00098 432.43905 L649.44724 427.4591 L663.62071 425.28781 L677.94112 426.01406 L691.8222 429.60812 L704.69566 435.92285 L716.03445 444.69972 L725.37436 455.57942 L732.33301 468.11651 L736.62553 481.79774 L738.07616 496.06299 M729.35575 531.49606 L727.90511 545.76131 L723.6126 559.44254 L716.65394 571.97964 L707.31403 582.85933 L695.97524 591.63621 L683.10179 597.95094 L669.22071 601.545 L654.90029 602.27125 L640.72683 600.09995 L627.28057 595.12001 L615.11202 587.53529 L604.71934 577.65632 L596.52803 565.88754 L590.87344 552.71077 L587.98705 538.66547 L587.98705 524.32665 L590.87344 510.28135 L596.52803 497.10459 L604.71934 485.33581 L615.11202 475.45684 L627.28057 467.87212 L640.72683 462.89217 L654.90029 460.72088 L669.22071 461.44713 L683.10179 465.04119 L695.97524 471.35592 L707.31403 480.13279 L716.65394 491.01249 L723.6126 503.54959 L727.90511 517.23081 L729.35575 531.49606 M722.83605 566.92913 L721.38541 581.19438 L717.0929 594.87561 L710.13425 607.41271 L700.79433 618.2924 L689.45555 627.06928 L676.58209 633.38401 L662.70101 636.97807 L648.3806 637.70432 L634.20713 635.53302 L620.76087 630.55308 L608.59232 622.96836 L598.19965 613.08939 L590.00834 601.32061 L584.35374 588.14384 L581.46736 574.09854 L581.46736 559.75973 L584.35374 545.71442 L590.00834 532.53766 L598.19965 520.76888 L608.59232 510.88991 L620.76087 503.30519 L634.20713 498.32524 L648.3806 496.15395 L662.70101 496.8802 L676.58209 500.47426 L689.45555 506.78899 L700.79433 515.56587 L710.13425 526.44556 L717.0929 538.98266 L721.38541 552.66388 L722.83605 566.92913 M718.27902 602.3622 L716.82839 616.62745 L712.53588 630.30868 L705.57722 642.84578 L696.23731 653.72547 L684.89852 662.50235 L672.02507 668.81708 L658.14399 672.41114 L643.82357 673.13739 L629.65011 670.9661 L616.20385 665.98615 L604.03529 658.40143 L593.64262 648.52246 L585.45131 636.75368 L579.79672 623.57691 L576.91033 609.53161 L576.91033 595.1928 L579.79672 581.1475 L585.45131 567.97073 L593.64262 556.20195 L604.03529 546.32298 L616.20385 538.73826 L629.65011 533.75831 L643.82357 531.58702 L658.14399 532.31327 L672.02507 535.90733 L684.89852 542.22206 L696.23731 550.99894 L705.57722 561.87863 L712.53588 574.41573 L716.82839 588.09696 L718.27902 602.3622 M715.43834 637.79528 L713.98771 652.06053 L709.6952 665.74175 L702.73654 678.27885 L693.39663 689.15854 L682.05784 697.93542 L669.18438 704.25015 L655.3033 707.84421 L640.98289 708.57046 L626.80942 706.39917 L613.36317 701.41922 L601.19461 693.8345 L590.80194 683.95553 L582.61063 672.18675 L576.95603 659.00999 L574.06965 644.96468 L574.06965 630.62587 L576.95603 616.58057 L582.61063 603.4038 L590.80194 591.63502 L601.19461 581.75605 L613.36317 574.17133 L626.80942 569.19139 L640.98289 567.02009 L655.3033 567.74634 L669.18438 571.3404 L682.05784 577.65513 L693.39663 586.43201 L702.73654 597.3117 L709.6952 609.8488 L713.98771 623.53003 L715.43834 637.79528 M714.06516 673.22835 L712.61453 687.4936 L708.32202 701.17482 L701.36336 713.71192 L692.02345 724.59161 L680.68466 733.36849 L667.8112 739.68322 L653.93012 743.27728 L639.60971 744.00353 L625.43624 741.83224 L611.98999 736.85229 L599.82143 729.26757 L589.42876 719.3886 L581.23745 707.61982 L575.58285 694.44306 L572.69647 680.39776 L572.69647 666.05894 L575.58285 652.01364 L581.23745 638.83687 L589.42876 627.06809 L599.82143 617.18912 L611.98999 609.6044 L625.43624 604.62446 L639.60971 602.45316 L653.93012 603.17941 L667.8112 606.77347 L680.68466 613.0882 L692.02345 621.86508 L701.36336 632.74477 L708.32202 645.28187 L712.61453 658.9631 L714.06516 673.22835 M713.9128 708.66142 L712.46217 722.92667 L708.16966 736.6079 L701.211 749.14499 L691.87109 760.02469 L680.5323 768.80156 L667.65885 775.11629 L653.77777 778.71035 L639.45735 779.4366 L625.28389 777.26531 L611.83763 772.28536 L599.66907 764.70064 L589.2764 754.82167 L581.08509 743.05289 L575.4305 729.87613 L572.54411 715.83083 L572.54411 701.49201 L575.4305 687.44671 L581.08509 674.26994 L589.2764 662.50116 L599.66907 652.62219 L611.83763 645.03747 L625.28389 640.05753 L639.45735 637.88623 L653.77777 638.61248 L667.65885 642.20654 L680.5323 648.52127 L691.87109 657.29815 L701.211 668.17784 L708.16966 680.71494 L712.46217 694.39617 L713.9128 708.66142 M714.74051 744.09449 L713.28988 758.35974 L708.99736 772.04097 L702.03871 784.57806 L692.6988 795.45776 L681.36001 804.23463 L668.48655 810.54936 L654.60547 814.14342 L640.28506 814.86967 L626.11159 812.69838 L612.66533 807.71843 L600.49678 800.13371 L590.10411 790.25474 L581.9128 778.48597 L576.2582 765.3092 L573.37182 751.2639 L573.37182 736.92508 L576.2582 722.87978 L581.9128 709.70301 L590.10411 697.93423 L600.49678 688.05526 L612.66533 680.47054 L626.11159 675.4906 L640.28506 673.3193 L654.60547 674.04555 L668.48655 677.63961 L681.36001 683.95434 L692.6988 692.73122 L702.03871 703.61091 L708.99736 716.14801 L713.28988 729.82924 L714.74051 744.09449 M716.3169 779.52756 L714.86627 793.79281 L710.57376 807.47404 L703.6151 820.01113 L694.27519 830.89083 L682.9364 839.6677 L670.06294 845.98243 L656.18186 849.5765 L641.86145 850.30274 L627.68798 848.13145 L614.24173 843.1515 L602.07317 835.56678 L591.6805 825.68781 L583.48919 813.91904 L577.83459 800.74227 L574.94821 786.69697 L574.94821 772.35815 L577.83459 758.31285 L583.48919 745.13608 L591.6805 733.3673 L602.07317 723.48833 L614.24173 715.90362 L627.68798 710.92367 L641.86145 708.75237 L656.18186 709.47862 L670.06294 713.07268 L682.9364 719.38741 L694.27519 728.16429 L703.6151 739.04398 L710.57376 751.58108 L714.86627 765.26231 L716.3169 779.52756 M718.42308 814.96063 L716.97245 829.22588 L712.67994 842.90711 L705.72128 855.4442 L696.38137 866.3239 L685.04258 875.10077 L672.16913 881.41551 L658.28805 885.00957 L643.96763 885.73582 L629.79416 883.56452 L616.34791 878.58457 L604.17935 870.99986 L593.78668 861.12088 L585.59537 849.35211 L579.94077 836.17534 L577.05439 822.13004 L577.05439 807.79122 L579.94077 793.74592 L585.59537 780.56915 L593.78668 768.80038 L604.17935 758.9214 L616.34791 751.33669 L629.79416 746.35674 L643.96763 744.18544 L658.28805 744.91169 L672.16913 748.50575 L685.04258 754.82049 L696.38137 763.59736 L705.72128 774.47706 L712.67994 787.01415 L716.97245 800.69538 L718.42308 814.96063 M720.85489 850.3937 L719.40425 864.65895 L715.11174 878.34018 L708.15308 890.87728 L698.81317 901.75697 L687.47438 910.53385 L674.60093 916.84858 L660.71985 920.44264 L646.39943 921.16889 L632.22597 918.99759 L618.77971 914.01764 L606.61115 906.43293 L596.21848 896.55396 L588.02717 884.78518 L582.37258 871.60841 L579.48619 857.56311 L579.48619 843.22429 L582.37258 829.17899 L588.02717 816.00222 L596.21848 804.23345 L606.61115 794.35448 L618.77971 786.76976 L632.22597 781.78981 L646.39943 779.61852 L660.71985 780.34476 L674.60093 783.93883 L687.47438 790.25356 L698.81317 799.03043 L708.15308 809.91013 L715.11174 822.44722 L719.40425 836.12845 L720.85489 850.3937 M723.42441 885.82677 L721.97378 900.09202 L717.68127 913.77325 L710.72261 926.31035 L701.3827 937.19004 L690.04391 945.96692 L677.17045 952.28165 L663.28937 955.87571 L648.96896 956.60196 L634.79549 954.43066 L621.34924 949.45072 L609.18068 941.866 L598.78801 931.98703 L590.5967 920.21825 L584.9421 907.04148 L582.05572 892.99618 L582.05572 878.65736 L584.9421 864.61206 L590.5967 851.43529 L598.78801 839.66652 L609.18068 829.78755 L621.34924 822.20283 L634.79549 817.22288 L648.96896 815.05159 L663.28937 815.77784 L677.17045 819.3719 L690.04391 825.68663 L701.3827 834.4635 L710.72261 845.3432 L717.68127 857.88029 L721.97378 871.56152 L723.42441 885.82677 M725.96109 921.25984 L724.51046 935.52509 L720.21795 949.20632 L713.25929 961.74342 L703.91938 972.62311 L692.58059 981.39999 L679.70714 987.71472 L665.82605 991.30878 L651.50564 992.03503 L637.33217 989.86373 L623.88592 984.88379 L611.71736 977.29907 L601.32469 967.4201 L593.13338 955.65132 L587.47878 942.47455 L584.5924 928.42925 L584.5924 914.09043 L587.47878 900.04513 L593.13338 886.86836 L601.32469 875.09959 L611.71736 865.22062 L623.88592 857.6359 L637.33217 852.65595 L651.50564 850.48466 L665.82605 851.21091 L679.70714 854.80497 L692.58059 861.1197 L703.91938 869.89657 L713.25929 880.77627 L720.21795 893.31336 L724.51046 906.99459 L725.96109 921.25984 M728.31234 956.69291 L726.86171 970.95816 L722.5692 984.63939 L715.61054 997.17649 L706.27063 1008.05618 L694.93184 1016.83306 L682.05839 1023.14779 L668.1773 1026.74185 L653.85689 1027.4681 L639.68342 1025.2968 L626.23717 1020.31686 L614.06861 1012.73214 L603.67594 1002.85317 L595.48463 991.08439 L589.83003 977.90762 L586.94365 963.86232 L586.94365 949.5235 L589.83003 935.4782 L595.48463 922.30144 L603.67594 910.53266 L614.06861 900.65369 L626.23717 893.06897 L639.68342 888.08902 L653.85689 885.91773 L668.1773 886.64398 L682.05839 890.23804 L694.93184 896.55277 L706.27063 905.32964 L715.61054 916.20934 L722.5692 928.74644 L726.86171 942.42766 L728.31234 956.69291 M730.34393 992.12598 L728.89329 1006.39123 L724.60078 1020.07246 L717.64212 1032.60956 L708.30221 1043.48925 L696.96342 1052.26613 L684.08997 1058.58086 L670.20889 1062.17492 L655.88847 1062.90117 L641.71501 1060.72987 L628.26875 1055.74993 L616.10019 1048.16521 L605.70752 1038.28624 L597.51621 1026.51746 L591.86162 1013.34069 L588.97523 999.29539 L588.97523 984.95658 L591.86162 970.91127 L597.51621 957.73451 L605.70752 945.96573 L616.10019 936.08676 L628.26875 928.50204 L641.71501 923.52209 L655.88847 921.3508 L670.20889 922.07705 L684.08997 925.67111 L696.96342 931.98584 L708.30221 940.76272 L717.64212 951.64241 L724.60078 964.17951 L728.89329 977.86073 L730.34393 992.12598 M731.94008 1027.55906 L730.48944 1041.8243 L726.19693 1055.50553 L719.23827 1068.04263 L709.89836 1078.92232 L698.55957 1087.6992 L685.68612 1094.01393 L671.80504 1097.60799 L657.48462 1098.33424 L643.31116 1096.16295 L629.8649 1091.183 L617.69635 1083.59828 L607.30367 1073.71931 L599.11236 1061.95053 L593.45777 1048.77376 L590.57138 1034.72846 L590.57138 1020.38965 L593.45777 1006.34435 L599.11236 993.16758 L607.30367 981.3988 L617.69635 971.51983 L629.8649 963.93511 L643.31116 958.95516 L657.48462 956.78387 L671.80504 957.51012 L685.68612 961.10418 L698.55957 967.41891 L709.89836 976.19579 L719.23827 987.07548 L726.19693 999.61258 L730.48944 1013.29381 L731.94008 1027.55906 M733.00344 1062.99213 L731.55281 1077.25738 L727.26029 1090.9386 L720.30164 1103.4757 L710.96173 1114.35539 L699.62294 1123.13227 L686.74948 1129.447 L672.8684 1133.04106 L658.54799 1133.76731 L644.37452 1131.59602 L630.92826 1126.61607 L618.75971 1119.03135 L608.36704 1109.15238 L600.17573 1097.3836 L594.52113 1084.20684 L591.63475 1070.16153 L591.63475 1055.82272 L594.52113 1041.77742 L600.17573 1028.60065 L608.36704 1016.83187 L618.75971 1006.9529 L630.92826 999.36818 L644.37452 994.38824 L658.54799 992.21694 L672.8684 992.94319 L686.74948 996.53725 L699.62294 1002.85198 L710.96173 1011.62886 L720.30164 1022.50855 L727.26029 1035.04565 L731.55281 1048.72688 L733.00344 1062.99213 M733.4548 1098.4252 L732.00417 1112.69045 L727.71166 1126.37167 L720.753 1138.90877 L711.41309 1149.78847 L700.0743 1158.56534 L687.20084 1164.88007 L673.31976 1168.47413 L658.99935 1169.20038 L644.82588 1167.02909 L631.37963 1162.04914 L619.21107 1154.46442 L608.8184 1144.58545 L600.62709 1132.81667 L594.97249 1119.63991 L592.08611 1105.59461 L592.08611 1091.25579 L594.97249 1077.21049 L600.62709 1064.03372 L608.8184 1052.26494 L619.21107 1042.38597 L631.37963 1034.80125 L644.82588 1029.82131 L658.99935 1027.65001 L673.31976 1028.37626 L687.20084 1031.97032 L700.0743 1038.28505 L711.41309 1047.06193 L720.753 1057.94162 L727.71166 1070.47872 L732.00417 1084.15995 L733.4548 1098.4252 M921.25984 389.76378 L919.80921 404.02903 L915.5167 417.71026 L908.55804 430.24735 L899.21813 441.12705 L887.87934 449.90392 L875.00588 456.21866 L861.1248 459.81272 L846.80439 460.53897 L832.63092 458.36767 L819.18467 453.38772 L807.01611 445.803 L796.62344 435.92403 L788.43213 424.15526 L782.77753 410.97849 L779.89115 396.93319 L779.89115 382.59437 L782.77753 368.54907 L788.43213 355.3723 L796.62344 343.60352 L807.01611 333.72455 L819.18467 326.13984 L832.63092 321.15989 L846.80439 318.98859 L861.1248 319.71484 L875.00588 323.3089 L887.87934 329.62364 L899.21813 338.40051 L908.55804 349.28021 L915.5167 361.8173 L919.80921 375.49853 L921.25984 389.76378 M899.81323 425.19685 L898.3626 439.4621 L894.07009 453.14333 L887.11143 465.68042 L877.77152 476.56012 L866.43273 485.33699 L853.55927 491.65173 L839.67819 495.24579 L825.35778 495.97204 L811.18431 493.80074 L797.73806 488.82079 L785.5695 481.23608 L775.17683 471.35711 L766.98552 459.58833 L761.33092 446.41156 L758.44454 432.36626 L758.44454 418.02744 L761.33092 403.98214 L766.98552 390.80537 L775.17683 379.0366 L785.5695 369.15762 L797.73806 361.57291 L811.18431 356.59296 L825.35778 354.42166 L839.67819 355.14791 L853.55927 358.74197 L866.43273 365.05671 L877.77152 373.83358 L887.11143 384.71328 L894.07009 397.25037 L898.3626 410.9316 L899.81323 425.19685 M880.674 460.62992 L879.22337 474.89517 L874.93086 488.5764 L867.9722 501.1135 L858.63229 511.99319 L847.2935 520.77007 L834.42005 527.0848 L820.53896 530.67886 L806.21855 531.40511 L792.04508 529.23381 L778.59883 524.25387 L766.43027 516.66915 L756.0376 506.79018 L747.84629 495.0214 L742.19169 481.84463 L739.30531 467.79933 L739.30531 453.46051 L742.19169 439.41521 L747.84629 426.23844 L756.0376 414.46967 L766.43027 404.5907 L778.59883 397.00598 L792.04508 392.02603 L806.21855 389.85474 L820.53896 390.58098 L834.42005 394.17505 L847.2935 400.48978 L858.63229 409.26665 L867.9722 420.14635 L874.93086 432.68344 L879.22337 446.36467 L880.674 460.62992 M863.83632 496.06299 L862.38569 510.32824 L858.09318 524.00947 L851.13452 536.54657 L841.79461 547.42626 L830.45582 556.20314 L817.58237 562.51787 L803.70129 566.11193 L789.38087 566.83818 L775.20741 564.66688 L761.76115 559.68694 L749.59259 552.10222 L739.19992 542.22325 L731.00861 530.45447 L725.35402 517.2777 L722.46763 503.2324 L722.46763 488.89358 L725.35402 474.84828 L731.00861 461.67151 L739.19992 449.90274 L749.59259 440.02377 L761.76115 432.43905 L775.20741 427.4591 L789.38087 425.28781 L803.70129 426.01406 L817.58237 429.60812 L830.45582 435.92285 L841.79461 444.69972 L851.13452 455.57942 L858.09318 468.11651 L862.38569 481.79774 L863.83632 496.06299 M849.23561 531.49606 L847.78498 545.76131 L843.49246 559.44254 L836.53381 571.97964 L827.1939 582.85933 L815.85511 591.63621 L802.98165 597.95094 L789.10057 601.545 L774.78016 602.27125 L760.60669 600.09995 L747.16043 595.12001 L734.99188 587.53529 L724.59921 577.65632 L716.4079 565.88754 L710.7533 552.71077 L707.86692 538.66547 L707.86692 524.32665 L710.7533 510.28135 L716.4079 497.10459 L724.59921 485.33581 L734.99188 475.45684 L747.16043 467.87212 L760.60669 462.89217 L774.78016 460.72088 L789.10057 461.44713 L802.98165 465.04119 L815.85511 471.35592 L827.1939 480.13279 L836.53381 491.01249 L843.49246 503.54959 L847.78498 517.23081 L849.23561 531.49606 M836.75895 566.92913 L835.30831 581.19438 L831.0158 594.87561 L824.05715 607.41271 L814.71723 618.2924 L803.37845 627.06928 L790.50499 633.38401 L776.62391 636.97807 L762.3035 637.70432 L748.13003 635.53302 L734.68377 630.55308 L722.51522 622.96836 L712.12255 613.08939 L703.93124 601.32061 L698.27664 588.14384 L695.39026 574.09854 L695.39026 559.75973 L698.27664 545.71442 L703.93124 532.53766 L712.12255 520.76888 L722.51522 510.88991 L734.68377 503.30519 L748.13003 498.32524 L762.3035 496.15395 L776.62391 496.8802 L790.50499 500.47426 L803.37845 506.78899 L814.71723 515.56587 L824.05715 526.44556 L831.0158 538.98266 L835.30831 552.66388 L836.75895 566.92913 M826.25569 602.3622 L824.80506 616.62745 L820.51255 630.30868 L813.55389 642.84578 L804.21398 653.72547 L792.87519 662.50235 L780.00174 668.81708 L766.12065 672.41114 L751.80024 673.13739 L737.62677 670.9661 L724.18052 665.98615 L712.01196 658.40143 L701.61929 648.52246 L693.42798 636.75368 L687.77338 623.57691 L684.887 609.53161 L684.887 595.1928 L687.77338 581.1475 L693.42798 567.97073 L701.61929 556.20195 L712.01196 546.32298 L724.18052 538.73826 L737.62677 533.75831 L751.80024 531.58702 L766.12065 532.31327 L780.00174 535.90733 L792.87519 542.22206 L804.21398 550.99894 L813.55389 561.87863 L820.51255 574.41573 L824.80506 588.09696 L826.25569 602.3622 M817.54746 637.79528 L816.09683 652.06053 L811.80431 665.74175 L804.84566 678.27885 L795.50575 689.15854 L784.16696 697.93542 L771.2935 704.25015 L757.41242 707.84421 L743.09201 708.57046 L728.91854 706.39917 L715.47228 701.41922 L703.30373 693.8345 L692.91106 683.95553 L684.71975 672.18675 L679.06515 659.00999 L676.17877 644.96468 L676.17877 630.62587 L679.06515 616.58057 L684.71975 603.4038 L692.91106 591.63502 L703.30373 581.75605 L715.47228 574.17133 L728.91854 569.19139 L743.09201 567.02009 L757.41242 567.74634 L771.2935 571.3404 L784.16696 577.65513 L795.50575 586.43201 L804.84566 597.3117 L811.80431 609.8488 L816.09683 623.53003 L817.54746 637.79528 M810.43709 673.22835 L808.98646 687.4936 L804.69395 701.17482 L797.73529 713.71192 L788.39538 724.59161 L777.05659 733.36849 L764.18313 739.68322 L750.30205 743.27728 L735.98164 744.00353 L721.80817 741.83224 L708.36192 736.85229 L696.19336 729.26757 L685.80069 719.3886 L677.60938 707.61982 L671.95478 694.44306 L669.0684 680.39776 L669.0684 666.05894 L671.95478 652.01364 L677.60938 638.83687 L685.80069 627.06809 L696.19336 617.18912 L708.36192 609.6044 L721.80817 604.62446 L735.98164 602.45316 L750.30205 603.17941 L764.18313 606.77347 L777.05659 613.0882 L788.39538 621.86508 L797.73529 632.74477 L804.69395 645.28187 L808.98646 658.9631 L810.43709 673.22835 M804.71643 708.66142 L803.26579 722.92667 L798.97328 736.6079 L792.01462 749.14499 L782.67471 760.02469 L771.33592 768.80156 L758.46247 775.11629 L744.58139 778.71035 L730.26097 779.4366 L716.08751 777.26531 L702.64125 772.28536 L690.4727 764.70064 L680.08003 754.82167 L671.88871 743.05289 L666.23412 729.87613 L663.34774 715.83083 L663.34774 701.49201 L666.23412 687.44671 L671.88871 674.26994 L680.08003 662.50116 L690.4727 652.62219 L702.64125 645.03747 L716.08751 640.05753 L730.26097 637.88623 L744.58139 638.61248 L758.46247 642.20654 L771.33592 648.52127 L782.67471 657.29815 L792.01462 668.17784 L798.97328 680.71494 L803.26579 694.39617 L804.71643 708.66142 M800.17269 744.09449 L798.72205 758.35974 L794.42954 772.04097 L787.47088 784.57806 L778.13097 795.45776 L766.79218 804.23463 L753.91873 810.54936 L740.03765 814.14342 L725.71723 814.86967 L711.54377 812.69838 L698.09751 807.71843 L685.92896 800.13371 L675.53629 790.25474 L667.34497 778.48597 L661.69038 765.3092 L658.804 751.2639 L658.804 736.92508 L661.69038 722.87978 L667.34497 709.70301 L675.53629 697.93423 L685.92896 688.05526 L698.09751 680.47054 L711.54377 675.4906 L725.71723 673.3193 L740.03765 674.04555 L753.91873 677.63961 L766.79218 683.95434 L778.13097 692.73122 L787.47088 703.61091 L794.42954 716.14801 L798.72205 729.82924 L800.17269 744.09449 M796.59336 779.52756 L795.14273 793.79281 L790.85021 807.47404 L783.89156 820.01113 L774.55165 830.89083 L763.21286 839.6677 L750.3394 845.98243 L736.45832 849.5765 L722.13791 850.30274 L707.96444 848.13145 L694.51818 843.1515 L682.34963 835.56678 L671.95696 825.68781 L663.76565 813.91904 L658.11105 800.74227 L655.22467 786.69697 L655.22467 772.35815 L658.11105 758.31285 L663.76565 745.13608 L671.95696 733.3673 L682.34963 723.48833 L694.51818 715.90362 L707.96444 710.92367 L722.13791 708.75237 L736.45832 709.47862 L750.3394 713.07268 L763.21286 719.38741 L774.55165 728.16429 L783.89156 739.04398 L790.85021 751.58108 L795.14273 765.26231 L796.59336 779.52756 M793.77024 814.96063 L792.3196 829.22588 L788.02709 842.90711 L781.06843 855.4442 L771.72852 866.3239 L760.38973 875.10077 L747.51628 881.41551 L733.6352 885.00957 L719.31478 885.73582 L705.14132 883.56452 L691.69506 878.58457 L679.5265 870.99986 L669.13383 861.12088 L660.94252 849.35211 L655.28793 836.17534 L652.40154 822.13004 L652.40154 807.79122 L655.28793 793.74592 L660.94252 780.56915 L669.13383 768.80038 L679.5265 758.9214 L691.69506 751.33669 L705.14132 746.35674 L719.31478 744.18544 L733.6352 744.91169 L747.51628 748.50575 L760.38973 754.82049 L771.72852 763.59736 L781.06843 774.47706 L788.02709 787.01415 L792.3196 800.69538 L793.77024 814.96063 M791.50338 850.3937 L790.05274 864.65895 L785.76023 878.34018 L778.80157 890.87728 L769.46166 901.75697 L758.12287 910.53385 L745.24942 916.84858 L731.36834 920.44264 L717.04792 921.16889 L702.87446 918.99759 L689.4282 914.01764 L677.25965 906.43293 L666.86697 896.55396 L658.67566 884.78518 L653.02107 871.60841 L650.13469 857.56311 L650.13469 843.22429 L653.02107 829.17899 L658.67566 816.00222 L666.86697 804.23345 L677.25965 794.35448 L689.4282 786.76976 L702.87446 781.78981 L717.04792 779.61852 L731.36834 780.34476 L745.24942 783.93883 L758.12287 790.25356 L769.46166 799.03043 L778.80157 809.91013 L785.76023 822.44722 L790.05274 836.12845 L791.50338 850.3937 M789.60453 885.82677 L788.15389 900.09202 L783.86138 913.77325 L776.90272 926.31035 L767.56281 937.19004 L756.22402 945.96692 L743.35057 952.28165 L729.46949 955.87571 L715.14907 956.60196 L700.97561 954.43066 L687.52935 949.45072 L675.3608 941.866 L664.96812 931.98703 L656.77681 920.21825 L651.12222 907.04148 L648.23583 892.99618 L648.23583 878.65736 L651.12222 864.61206 L656.77681 851.43529 L664.96812 839.66652 L675.3608 829.78755 L687.52935 822.20283 L700.97561 817.22288 L715.14907 815.05159 L729.46949 815.77784 L743.35057 819.3719 L756.22402 825.68663 L767.56281 834.4635 L776.90272 845.3432 L783.86138 857.88029 L788.15389 871.56152 L789.60453 885.82677 M787.89955 921.25984 L786.44891 935.52509 L782.1564 949.20632 L775.19774 961.74342 L765.85783 972.62311 L754.51904 981.39999 L741.64559 987.71472 L727.76451 991.30878 L713.44409 992.03503 L699.27063 989.86373 L685.82437 984.88379 L673.65582 977.29907 L663.26314 967.4201 L655.07183 955.65132 L649.41724 942.47455 L646.53085 928.42925 L646.53085 914.09043 L649.41724 900.04513 L655.07183 886.86836 L663.26314 875.09959 L673.65582 865.22062 L685.82437 857.6359 L699.27063 852.65595 L713.44409 850.48466 L727.76451 851.21091 L741.64559 854.80497 L754.51904 861.1197 L765.85783 869.89657 L775.19774 880.77627 L782.1564 893.31336 L786.44891 906.99459 L787.89955 921.25984 M786.23012 956.69291 L784.77949 970.95816 L780.48698 984.63939 L773.52832 997.17649 L764.18841 1008.05618 L752.84962 1016.83306 L739.97617 1023.14779 L726.09508 1026.74185 L711.77467 1027.4681 L697.6012 1025.2968 L684.15495 1020.31686 L671.98639 1012.73214 L661.59372 1002.85317 L653.40241 991.08439 L647.74781 977.90762 L644.86143 963.86232 L644.86143 949.5235 L647.74781 935.4782 L653.40241 922.30144 L661.59372 910.53266 L671.98639 900.65369 L684.15495 893.06897 L697.6012 888.08902 L711.77467 885.91773 L726.09508 886.64398 L739.97617 890.23804 L752.84962 896.55277 L764.18841 905.32964 L773.52832 916.20934 L780.48698 928.74644 L784.77949 942.42766 L786.23012 956.69291 M784.45489 992.12598 L783.00426 1006.39123 L778.71175 1020.07246 L771.75309 1032.60956 L762.41318 1043.48925 L751.07439 1052.26613 L738.20094 1058.58086 L724.31985 1062.17492 L709.99944 1062.90117 L695.82597 1060.72987 L682.37972 1055.74993 L670.21116 1048.16521 L659.81849 1038.28624 L651.62718 1026.51746 L645.97258 1013.34069 L643.0862 999.29539 L643.0862 984.95658 L645.97258 970.91127 L651.62718 957.73451 L659.81849 945.96573 L670.21116 936.08676 L682.37972 928.50204 L695.82597 923.52209 L709.99944 921.3508 L724.31985 922.07705 L738.20094 925.67111 L751.07439 931.98584 L762.41318 940.76272 L771.75309 951.64241 L778.71175 964.17951 L783.00426 977.86073 L784.45489 992.12598 M782.45012 1027.55906 L780.99949 1041.8243 L776.70698 1055.50553 L769.74832 1068.04263 L760.40841 1078.92232 L749.06962 1087.6992 L736.19616 1094.01393 L722.31508 1097.60799 L707.99467 1098.33424 L693.8212 1096.16295 L680.37495 1091.183 L668.20639 1083.59828 L657.81372 1073.71931 L649.62241 1061.95053 L643.96781 1048.77376 L641.08143 1034.72846 L641.08143 1020.38965 L643.96781 1006.34435 L649.62241 993.16758 L657.81372 981.3988 L668.20639 971.51983 L680.37495 963.93511 L693.8212 958.95516 L707.99467 956.78387 L722.31508 957.51012 L736.19616 961.10418 L749.06962 967.41891 L760.40841 976.19579 L769.74832 987.07548 L776.70698 999.61258 L780.99949 1013.29381 L782.45012 1027.55906 M780.11004 1062.99213 L778.6594 1077.25738 L774.36689 1090.9386 L767.40823 1103.4757 L758.06832 1114.35539 L746.72953 1123.13227 L733.85608 1129.447 L719.975 1133.04106 L705.65458 1133.76731 L691.48112 1131.59602 L678.03486 1126.61607 L665.86631 1119.03135 L655.47364 1109.15238 L647.28232 1097.3836 L641.62773 1084.20684 L638.74135 1070.16153 L638.74135 1055.82272 L641.62773 1041.77742 L647.28232 1028.60065 L655.47364 1016.83187 L665.86631 1006.9529 L678.03486 999.36818 L691.48112 994.38824 L705.65458 992.21694 L719.975 992.94319 L733.85608 996.53725 L746.72953 1002.85198 L758.06832 1011.62886 L767.40823 1022.50855 L774.36689 1035.04565 L778.6594 1048.72688 L780.11004 1062.99213 M777.34686 1098.4252 L775.89623 1112.69045 L771.60372 1126.37167 L764.64506 1138.90877 L755.30515 1149.78847 L743.96636 1158.56534 L731.0929 1164.88007 L717.21182 1168.47413 L702.89141 1169.20038 L688.71794 1167.02909 L675.27169 1162.04914 L663.10313 1154.46442 L652.71046 1144.58545 L644.51915 1132.81667 L638.86455 1119.63991 L635.97817 1105.59461 L635.97817 1091.25579 L638.86455 1077.21049 L644.51915 1064.03372 L652.71046 1052.26494 L663.10313 1042.38597 L675.27169 1034.80125 L688.71794 1029.82131 L702.89141 1027.65001 L717.21182 1028.37626 L731.0929 1031.97032 L743.96636 1038.28505 L755.30515 1047.06193 L764.64506 1057.94162 L771.60372 1070.47872 L775.89623 1084.15995 L777.34686 1098.4252" fill="none" stroke="black" stroke-width="0.03cm" />
    </g>
</svg>