<?xml version="1.0" standalone="no"?>
  <!DOCTYPE svg PUBLIC "-//W3C//DTD SVG 1.1//EN" 
      "http://www.w3.org/Graphics/SVG/1.1/DTD/svg11.dtd">
  <svg width="29.7cm" height="42cm"
      xmlns="http://www.w3.org/2000/svg" version="1.1" viewBox="0 0 1052.3622 1488.18898">
    <g>
      <path d="M354.33071 389.76378 L318.89764 451.13566 L248.0315 451.13566 L212.59843 389.76378 L248.0315 328.3919 L318.89764 328.3919 L354.33071 389.76378 M350.09682 425.19685 L314.66375 486.56873 L243.79761 486.56873 L208.36454 425.19685 L243.79761 363.82497 L314.66375 363.82497 L350.09682 425.19685 M345.74209 460.62992 L310.30902 522.0018 L239.44288 522.0018 L204.00981 460.62992 L239.44288 399.25804 L310.30902 399.25804 L345.74209 460.62992 M341.73459 496.06299 L306.30151 557.43487 L235.43537 557.43487 L200.0023 496.06299 L235.43537 434.69111 L306.30151 434.69111 L341.73459 496.06299 M338.80304 531.49606 L303.36997 592.86794 L232.50383 592.86794 L197.07076 531.49606 L232.50383 470.12418 L303.36997 470.12418 L338.80304 531.49606 M337.78478 566.92913 L302.35171 628.30101 L231.48557 628.30101 L196.0525 566.92913 L231.48557 505.55725 L302.35171 505.55725 L337.78478 566.92913 M339.15474 602.3622 L303.72167 663.73408 L232.85553 663.73408 L197.42246 602.3622 L232.85553 540.99033 L303.72167 540.99033 L339.15474 602.3622 M342.51001 637.79528 L307.07694 699.16715 L236.2108 699.16715 L200.77773 637.79528 L236.2108 576.4234 L307.07694 576.4234 L342.51001 637.79528 M346.66932 673.22835 L311.23625 734.60023 L240.37011 734.60023 L204.93704 673.22835 L240.37011 611.85647 L311.23625 611.85647 L346.66932 673.22835 M350.6353 708.66142 L315.20223 770.0333 L244.33609 770.0333 L208.90302 708.66142 L244.33609 647.28954 L315.20223 647.28954 L350.6353 708.66142 M353.82025 744.09449 L318.38718 805.46637 L247.52103 805.46637 L212.08796 744.09449 L247.52103 682.72261 L318.38718 682.72261 L353.82025 744.09449 M356.4354 779.52756 L321.00233 840.89944 L250.13619 840.89944 L214.70312 779.52756 L250.13619 718.15568 L321.00233 718.15568 L356.4354 779.52756 M359.42721 814.96063 L323.99414 876.33251 L253.128 876.33251 L217.69493 814.96063 L253.128 753.58875 L323.99414 753.58875 L359.42721 814.96063 M363.3354 850.3937 L327.90233 911.76558 L257.03619 911.76558 L221.60312 850.3937 L257.03619 789.02182 L327.90233 789.02182 L363.3354 850.3937 M367.60666 885.82677 L332.17358 947.19865 L261.30744 947.19865 L225.87437 885.82677 L261.30744 824.45489 L332.17358 824.45489 L367.60666 885.82677 M370.84316 921.25984 L335.41009 982.63172 L264.54395 982.63172 L229.11088 921.25984 L264.54395 859.88796 L335.41009 859.88796 L370.84316 921.25984 M371.72906 956.69291 L336.29599 1018.06479 L265.42985 1018.06479 L229.99678 956.69291 L265.42985 895.32103 L336.29599 895.32103 L371.72906 956.69291 M369.91469 992.12598 L334.48162 1053.49786 L263.61548 1053.49786 L228.18241 992.12598 L263.61548 930.75411 L334.48162 930.75411 L369.91469 992.12598 M366.24965 1027.55906 L330.81658 1088.93093 L259.95044 1088.93093 L224.51737 1027.55906 L259.95044 966.18718 L330.81658 966.18718 L366.24965 1027.55906 M362.46314 1062.99213 L327.03007 1124.364 L256.16393 1124.364 L220.73086 1062.99213 L256.16393 1001.62025 L327.03007 1001.62025 L362.46314 1062.99213 M360.24946 1098.4252 L324.81639 1159.79708 L253.95025 1159.79708 L218.51718 1098.4252 L253.95025 1037.05332 L324.81639 1037.05332 L360.24946 1098.4252 M496.06299 389.76378 L460.62992 451.13566 L389.76378 451.13566 L354.33071 389.76378 L389.76378 328.3919 L460.62992 328.3919 L496.06299 389.76378 M497.42191 425.19685 L461.98884 486.56873 L391.12269 486.56873 L355.68962 425.19685 L391.12269 363.82497 L461.98884 363.82497 L497.42191 425.19685 M498.67845 460.62992 L463.24538 522.0018 L392.37924 522.0018 L356.94617 460.62992 L392.37924 399.25804 L463.24538 399.25804 L498.67845 460.62992 M499.61668 496.06299 L464.18361 557.43487 L393.31747 557.43487 L357.8844 496.06299 L393.31747 434.69111 L464.18361 434.69111 L499.61668 496.06299 M499.89467 531.49606 L464.46159 592.86794 L393.59545 592.86794 L358.16238 531.49606 L393.59545 470.12418 L464.46159 470.12418 L499.89467 531.49606 M499.01113 566.92913 L463.57806 628.30101 L392.71192 628.30101 L357.27885 566.92913 L392.71192 505.55725 L463.57806 505.55725 L499.01113 566.92913 M496.61553 602.3622 L461.18246 663.73408 L390.31632 663.73408 L354.88325 602.3622 L390.31632 540.99033 L461.18246 540.99033 L496.61553 602.3622 M492.82748 637.79528 L457.39441 699.16715 L386.52827 699.16715 L351.0952 637.79528 L386.52827 576.4234 L457.39441 576.4234 L492.82748 637.79528 M488.27022 673.22835 L452.83714 734.60023 L381.971 734.60023 L346.53793 673.22835 L381.971 611.85647 L452.83714 611.85647 L488.27022 673.22835 M483.74359 708.66142 L448.31052 770.0333 L377.44438 770.0333 L342.01131 708.66142 L377.44438 647.28954 L448.31052 647.28954 L483.74359 708.66142 M479.53458 744.09449 L444.10151 805.46637 L373.23537 805.46637 L337.80229 744.09449 L373.23537 682.72261 L444.10151 682.72261 L479.53458 744.09449 M475.51154 779.52756 L440.07847 840.89944 L369.21233 840.89944 L333.77926 779.52756 L369.21233 718.15568 L440.07847 718.15568 L475.51154 779.52756 M471.71937 814.96063 L436.2863 876.33251 L365.42016 876.33251 L329.98709 814.96063 L365.42016 753.58875 L436.2863 753.58875 L471.71937 814.96063 M468.64087 850.3937 L433.20779 911.76558 L362.34165 911.76558 L326.90858 850.3937 L362.34165 789.02182 L433.20779 789.02182 L468.64087 850.3937 M466.62918 885.82677 L431.19611 947.19865 L360.32997 947.19865 L324.8969 885.82677 L360.32997 824.45489 L431.19611 824.45489 L466.62918 885.82677 M465.52382 921.25984 L430.09075 982.63172 L359.2246 982.63172 L323.79153 921.25984 L359.2246 859.88796 L430.09075 859.88796 L465.52382 921.25984 M464.83498 956.69291 L429.40191 1018.06479 L358.53577 1018.06479 L323.1027 956.69291 L358.53577 895.32103 L429.40191 895.32103 L464.83498 956.69291 M464.21304 992.12598 L428.77997 1053.49786 L357.91382 1053.49786 L322.48075 992.12598 L357.91382 930.75411 L428.77997 930.75411 L464.21304 992.12598 M463.9447 1027.55906 L428.51162 1088.93093 L357.64548 1088.93093 L322.21241 1027.55906 L357.64548 966.18718 L428.51162 966.18718 L463.9447 1027.55906 M464.80777 1062.99213 L429.3747 1124.364 L358.50855 1124.364 L323.07548 1062.99213 L358.50855 1001.62025 L429.3747 1001.62025 L464.80777 1062.99213 M467.34395 1098.4252 L431.91088 1159.79708 L361.04474 1159.79708 L325.61167 1098.4252 L361.04474 1037.05332 L431.91088 1037.05332 L467.34395 1098.4252 M637.79528 389.76378 L602.3622 451.13566 L531.49606 451.13566 L496.06299 389.76378 L531.49606 328.3919 L602.3622 328.3919 L637.79528 389.76378 M641.69787 425.19685 L606.2648 486.56873 L535.39865 486.56873 L499.96558 425.19685 L535.39865 363.82497 L606.2648 363.82497 L641.69787 425.19685 M645.39957 460.62992 L609.9665 522.0018 L539.10036 522.0018 L503.66729 460.62992 L539.10036 399.25804 L609.9665 399.25804 L645.39957 460.62992 M649.50604 496.06299 L614.07297 557.43487 L543.20682 557.43487 L507.77375 496.06299 L543.20682 434.69111 L614.07297 434.69111 L649.50604 496.06299 M653.81765 531.49606 L618.38458 592.86794 L547.51843 592.86794 L512.08536 531.49606 L547.51843 470.12418 L618.38458 470.12418 L653.81765 531.49606 M657.15634 566.92913 L621.72327 628.30101 L550.85713 628.30101 L515.42406 566.92913 L550.85713 505.55725 L621.72327 505.55725 L657.15634 566.92913 M658.09541 602.3622 L622.66234 663.73408 L551.79619 663.73408 L516.36312 602.3622 L551.79619 540.99033 L622.66234 540.99033 L658.09541 602.3622 M656.15553 637.79528 L620.72246 699.16715 L549.85631 699.16715 L514.42324 637.79528 L549.85631 576.4234 L620.72246 576.4234 L656.15553 637.79528 M652.22647 673.22835 L616.7934 734.60023 L545.92725 734.60023 L510.49418 673.22835 L545.92725 611.85647 L616.7934 611.85647 L652.22647 673.22835 M647.67541 708.66142 L612.24234 770.0333 L541.3762 770.0333 L505.94313 708.66142 L541.3762 647.28954 L612.24234 647.28954 L647.67541 708.66142 M643.35201 744.09449 L607.91894 805.46637 L537.0528 805.46637 L501.61973 744.09449 L537.0528 682.72261 L607.91894 682.72261 L643.35201 744.09449 M639.62244 779.52756 L604.18937 840.89944 L533.32322 840.89944 L497.89015 779.52756 L533.32322 718.15568 L604.18937 718.15568 L639.62244 779.52756 M636.80044 814.96063 L601.36737 876.33251 L530.50123 876.33251 L495.06816 814.96063 L530.50123 753.58875 L601.36737 753.58875 L636.80044 814.96063 M635.63851 850.3937 L600.20544 911.76558 L529.3393 911.76558 L493.90623 850.3937 L529.3393 789.02182 L600.20544 789.02182 L635.63851 850.3937 M637.19103 885.82677 L601.75796 947.19865 L530.89181 947.19865 L495.45874 885.82677 L530.89181 824.45489 L601.75796 824.45489 L637.19103 885.82677 M641.5926 921.25984 L606.15953 982.63172 L535.29339 982.63172 L499.86032 921.25984 L535.29339 859.88796 L606.15953 859.88796 L641.5926 921.25984 M647.53748 956.69291 L612.10441 1018.06479 L541.23826 1018.06479 L505.80519 956.69291 L541.23826 895.32103 L612.10441 895.32103 L647.53748 956.69291 M652.72998 992.12598 L617.29691 1053.49786 L546.43077 1053.49786 L510.9977 992.12598 L546.43077 930.75411 L617.29691 930.75411 L652.72998 992.12598 M655.30398 1027.55906 L619.87091 1088.93093 L549.00477 1088.93093 L513.5717 1027.55906 L549.00477 966.18718 L619.87091 966.18718 L655.30398 1027.55906 M655.0432 1062.99213 L619.61013 1124.364 L548.74399 1124.364 L513.31091 1062.99213 L548.74399 1001.62025 L619.61013 1001.62025 L655.0432 1062.99213 M652.94256 1098.4252 L617.50949 1159.79708 L546.64335 1159.79708 L511.21028 1098.4252 L546.64335 1037.05332 L617.50949 1037.05332 L652.94256 1098.4252 M779.52756 389.76378 L744.09449 451.13566 L673.22835 451.13566 L637.79528 389.76378 L673.22835 328.3919 L744.09449 328.3919 L779.52756 389.76378 M778.65092 425.19685 L743.21785 486.56873 L672.35171 486.56873 L636.91864 425.19685 L672.35171 363.82497 L743.21785 363.82497 L778.65092 425.19685 M778.74454 460.62992 L743.31147 522.0018 L672.44533 522.0018 L637.01226 460.62992 L672.44533 399.25804 L743.31147 399.25804 L778.74454 460.62992 M779.86309 496.06299 L744.43002 557.43487 L673.56388 557.43487 L638.13081 496.06299 L673.56388 434.69111 L744.43002 434.69111 L779.86309 496.06299 M781.39121 531.49606 L745.95814 592.86794 L675.092 592.86794 L639.65893 531.49606 L675.092 470.12418 L745.95814 470.12418 L781.39121 531.49606 M782.407 566.92913 L746.97393 628.30101 L676.10779 628.30101 L640.67472 566.92913 L676.10779 505.55725 L746.97393 505.55725 L782.407 566.92913 M782.30686 602.3622 L746.87379 663.73408 L676.00765 663.73408 L640.57458 602.3622 L676.00765 540.99033 L746.87379 540.99033 L782.30686 602.3622 M780.8874 637.79528 L745.45433 699.16715 L674.58819 699.16715 L639.15512 637.79528 L674.58819 576.4234 L745.45433 576.4234 L780.8874 637.79528 M778.10775 673.22835 L742.67468 734.60023 L671.80853 734.60023 L636.37546 673.22835 L671.80853 611.85647 L742.67468 611.85647 L778.10775 673.22835 M774.56475 708.66142 L739.13168 770.0333 L668.26554 770.0333 L632.83247 708.66142 L668.26554 647.28954 L739.13168 647.28954 L774.56475 708.66142 M771.4999 744.09449 L736.06683 805.46637 L665.20068 805.46637 L629.76761 744.09449 L665.20068 682.72261 L736.06683 682.72261 L771.4999 744.09449 M769.9277 779.52756 L734.49463 840.89944 L663.62849 840.89944 L628.19542 779.52756 L663.62849 718.15568 L734.49463 718.15568 L769.9277 779.52756 M770.19219 814.96063 L734.75912 876.33251 L663.89298 876.33251 L628.45991 814.96063 L663.89298 753.58875 L734.75912 753.58875 L770.19219 814.96063 M772.13712 850.3937 L736.70405 911.76558 L665.83791 911.76558 L630.40484 850.3937 L665.83791 789.02182 L736.70405 789.02182 L772.13712 850.3937 M775.07552 885.82677 L739.64245 947.19865 L668.7763 947.19865 L633.34323 885.82677 L668.7763 824.45489 L739.64245 824.45489 L775.07552 885.82677 M777.19355 921.25984 L741.76048 982.63172 L670.89433 982.63172 L635.46126 921.25984 L670.89433 859.88796 L741.76048 859.88796 L777.19355 921.25984 M776.71762 956.69291 L741.28455 1018.06479 L670.41841 1018.06479 L634.98534 956.69291 L670.41841 895.32103 L741.28455 895.32103 L776.71762 956.69291 M773.68348 992.12598 L738.25041 1053.49786 L667.38427 1053.49786 L631.9512 992.12598 L667.38427 930.75411 L738.25041 930.75411 L773.68348 992.12598 M769.90912 1027.55906 L734.47605 1088.93093 L663.60991 1088.93093 L628.17684 1027.55906 L663.60991 966.18718 L734.47605 966.18718 L769.90912 1027.55906 M767.44735 1062.99213 L732.01428 1124.364 L661.14814 1124.364 L625.71507 1062.99213 L661.14814 1001.62025 L732.01428 1001.62025 L767.44735 1062.99213 M767.49895 1098.4252 L732.06588 1159.79708 L661.19974 1159.79708 L625.76667 1098.4252 L661.19974 1037.05332 L732.06588 1037.05332 L767.49895 1098.4252 M921.25984 389.76378 L885.82677 451.13566 L814.96063 451.13566 L779.52756 389.76378 L814.96063 328.3919 L885.82677 328.3919 L921.25984 389.76378 M922.65766 425.19685 L887.22459 486.56873 L816.35845 486.56873 L780.92538 425.19685 L816.35845 363.82497 L887.22459 363.82497 L922.65766 425.19685 M924.393 460.62992 L888.95993 522.0018 L818.09378 522.0018 L782.66071 460.62992 L818.09378 399.25804 L888.95993 399.25804 L924.393 460.62992 M924.60514 496.06299 L889.17207 557.43487 L818.30593 557.43487 L782.87286 496.06299 L818.30593 434.69111 L889.17207 434.69111 L924.60514 496.06299 M922.07441 531.49606 L886.64134 592.86794 L815.77519 592.86794 L780.34212 531.49606 L815.77519 470.12418 L886.64134 470.12418 L922.07441 531.49606 M916.88181 566.92913 L881.44874 628.30101 L810.5826 628.30101 L775.14953 566.92913 L810.5826 505.55725 L881.44874 505.55725 L916.88181 566.92913 M910.45176 602.3622 L875.01869 663.73408 L804.15255 663.73408 L768.71948 602.3622 L804.15255 540.99033 L875.01869 540.99033 L910.45176 602.3622 M904.2338 637.79528 L868.80073 699.16715 L797.93459 699.16715 L762.50152 637.79528 L797.93459 576.4234 L868.80073 576.4234 L904.2338 637.79528 M898.66959 673.22835 L863.23651 734.60023 L792.37037 734.60023 L756.9373 673.22835 L792.37037 611.85647 L863.23651 611.85647 L898.66959 673.22835 M893.571 708.66142 L858.13793 770.0333 L787.27178 770.0333 L751.83871 708.66142 L787.27178 647.28954 L858.13793 647.28954 L893.571 708.66142 M888.98589 744.09449 L853.55282 805.46637 L782.68668 805.46637 L747.25361 744.09449 L782.68668 682.72261 L853.55282 682.72261 L888.98589 744.09449 M885.90732 779.52756 L850.47425 840.89944 L779.60811 840.89944 L744.17504 779.52756 L779.60811 718.15568 L850.47425 718.15568 L885.90732 779.52756 M885.61625 814.96063 L850.18318 876.33251 L779.31704 876.33251 L743.88397 814.96063 L779.31704 753.58875 L850.18318 753.58875 L885.61625 814.96063 M888.24309 850.3937 L852.81001 911.76558 L781.94387 911.76558 L746.5108 850.3937 L781.94387 789.02182 L852.81001 789.02182 L888.24309 850.3937 M892.58485 885.82677 L857.15178 947.19865 L786.28564 947.19865 L750.85257 885.82677 L786.28564 824.45489 L857.15178 824.45489 L892.58485 885.82677 M896.48283 921.25984 L861.04976 982.63172 L790.18362 982.63172 L754.75055 921.25984 L790.18362 859.88796 L861.04976 859.88796 L896.48283 921.25984 M898.09945 956.69291 L862.66638 1018.06479 L791.80024 1018.06479 L756.36717 956.69291 L791.80024 895.32103 L862.66638 895.32103 L898.09945 956.69291 M897.17519 992.12598 L861.74212 1053.49786 L790.87598 1053.49786 L755.44291 992.12598 L790.87598 930.75411 L861.74212 930.75411 L897.17519 992.12598 M895.03038 1027.55906 L859.59731 1088.93093 L788.73117 1088.93093 L753.2981 1027.55906 L788.73117 966.18718 L859.59731 966.18718 L895.03038 1027.55906 M893.4801 1062.99213 L858.04703 1124.364 L787.18088 1124.364 L751.74781 1062.99213 L787.18088 1001.62025 L858.04703 1001.62025 L893.4801 1062.99213 M893.61167 1098.4252 L858.1786 1159.79708 L787.31246 1159.79708 L751.87939 1098.4252 L787.31246 1037.05332 L858.1786 1037.05332 L893.61167 1098.4252" fill="none" stroke="black" stroke-width="0.03cm" />
    </g>
</svg>