<?xml version="1.0" standalone="no"?>
  <!DOCTYPE svg PUBLIC "-//W3C//DTD SVG 1.1//EN" 
      "http://www.w3.org/Graphics/SVG/1.1/DTD/svg11.dtd">
  <svg width="29.7cm" height="42cm"
      xmlns="http://www.w3.org/2000/svg" version="1.1" viewBox="0 0 1052.3622 1488.18898">
    <g>
      <path d="M354.33071 389.76378 L283.46457 460.62992 L212.59843 389.76378 L283.46457 318.89764 L354.33071 389.76378 M357.16383 425.19685 L286.29769 496.06299 L215.43155 425.19685 L286.29769 354.33071 L357.16383 425.19685 M359.74276 460.62992 L288.87662 531.49606 L218.01048 460.62992 L288.87662 389.76378 L359.74276 460.62992 M361.66369 496.06299 L290.79754 566.92913 L219.9314 496.06299 L290.79754 425.19685 L361.66369 496.06299 M362.49502 531.49606 L291.62888 602.3622 L220.76274 531.49606 L291.62888 460.62992 L362.49502 531.49606 M361.98954 566.92913 L291.1234 637.79528 L220.25726 566.92913 L291.1234 496.06299 L361.98954 566.92913 M360.1905 602.3622 L289.32436 673.22835 L218.45821 602.3622 L289.32436 531.49606 L360.1905 602.3622 M357.32025 637.79528 L286.45411 708.66142 L215.58797 637.79528 L286.45411 566.92913 L357.32025 637.79528 M353.7696 673.22835 L282.90346 744.09449 L212.03732 673.22835 L282.90346 602.3622 L353.7696 673.22835 M350.08595 708.66142 L279.21981 779.52756 L208.35367 708.66142 L279.21981 637.79528 L350.08595 708.66142 M346.86224 744.09449 L275.9961 814.96063 L205.12996 744.09449 L275.9961 673.22835 L346.86224 744.09449 M344.05739 779.52756 L273.19125 850.3937 L202.32511 779.52756 L273.19125 708.66142 L344.05739 779.52756 M340.83937 814.96063 L269.97323 885.82677 L199.10708 814.96063 L269.97323 744.09449 L340.83937 814.96063 M336.668 850.3937 L265.80186 921.25984 L194.93572 850.3937 L265.80186 779.52756 L336.668 850.3937 M332.06808 885.82677 L261.20194 956.69291 L190.3358 885.82677 L261.20194 814.96063 L332.06808 885.82677 M328.51664 921.25984 L257.6505 992.12598 L186.78436 921.25984 L257.6505 850.3937 L328.51664 921.25984 M327.53127 956.69291 L256.66513 1027.55906 L185.79899 956.69291 L256.66513 885.82677 L327.53127 956.69291 M329.56026 992.12598 L258.69411 1062.99213 L187.82797 992.12598 L258.69411 921.25984 L329.56026 992.12598 M333.69571 1027.55906 L262.82957 1098.4252 L191.96343 1027.55906 L262.82957 956.69291 L333.69571 1027.55906 M338.41191 1062.99213 L267.54577 1133.85827 L196.67963 1062.99213 L267.54577 992.12598 L338.41191 1062.99213 M342.51083 1098.4252 L271.64468 1169.29134 L200.77854 1098.4252 L271.64468 1027.55906 L342.51083 1098.4252 M496.06299 389.76378 L425.19685 460.62992 L354.33071 389.76378 L425.19685 318.89764 L496.06299 389.76378 M494.70408 425.19685 L423.83794 496.06299 L352.97179 425.19685 L423.83794 354.33071 L494.70408 425.19685 M493.63753 460.62992 L422.77139 531.49606 L351.90525 460.62992 L422.77139 389.76378 L493.63753 460.62992 M492.94204 496.06299 L422.0759 566.92913 L351.20976 496.06299 L422.0759 425.19685 L492.94204 496.06299 M492.77493 531.49606 L421.90879 602.3622 L351.04265 531.49606 L421.90879 460.62992 L492.77493 531.49606 M493.49978 566.92913 L422.63364 637.79528 L351.76749 566.92913 L422.63364 496.06299 L493.49978 566.92913 M495.47791 602.3622 L424.61177 673.22835 L353.74563 602.3622 L424.61177 531.49606 L495.47791 602.3622 M498.7541 637.79528 L427.88796 708.66142 L357.02182 637.79528 L427.88796 566.92913 L498.7541 637.79528 M502.90001 673.22835 L432.03387 744.09449 L361.16773 673.22835 L432.03387 602.3622 L502.90001 673.22835 M507.18902 708.66142 L436.32288 779.52756 L365.45673 708.66142 L436.32288 637.79528 L507.18902 708.66142 M511.25343 744.09449 L440.38729 814.96063 L369.52115 744.09449 L440.38729 673.22835 L511.25343 744.09449 M515.01155 779.52756 L444.14541 850.3937 L373.27926 779.52756 L444.14541 708.66142 L515.01155 779.52756 M518.19176 814.96063 L447.32562 885.82677 L376.45948 814.96063 L447.32562 744.09449 L518.19176 814.96063 M520.21482 850.3937 L449.34868 921.25984 L378.48254 850.3937 L449.34868 779.52756 L520.21482 850.3937 M520.52081 885.82677 L449.65467 956.69291 L378.78853 885.82677 L449.65467 814.96063 L520.52081 885.82677 M519.07862 921.25984 L448.21248 992.12598 L377.34634 921.25984 L448.21248 850.3937 L519.07862 921.25984 M516.62844 956.69291 L445.7623 1027.55906 L374.89616 956.69291 L445.7623 885.82677 L516.62844 956.69291 M513.66378 992.12598 L442.79764 1062.99213 L371.93149 992.12598 L442.79764 921.25984 L513.66378 992.12598 M509.8856 1027.55906 L439.01946 1098.4252 L368.15331 1027.55906 L439.01946 956.69291 L509.8856 1027.55906 M504.89364 1062.99213 L434.0275 1133.85827 L363.16136 1062.99213 L434.0275 992.12598 L504.89364 1062.99213 M498.99778 1098.4252 L428.13164 1169.29134 L357.2655 1098.4252 L428.13164 1027.55906 L498.99778 1098.4252 M637.79528 389.76378 L566.92913 460.62992 L496.06299 389.76378 L566.92913 318.89764 L637.79528 389.76378 M633.78895 425.19685 L562.92281 496.06299 L492.05667 425.19685 L562.92281 354.33071 L633.78895 425.19685 M629.50243 460.62992 L558.63628 531.49606 L487.77014 460.62992 L558.63628 389.76378 L629.50243 460.62992 M624.08889 496.06299 L553.22275 566.92913 L482.35661 496.06299 L553.22275 425.19685 L624.08889 496.06299 M617.61194 531.49606 L546.7458 602.3622 L475.87966 531.49606 L546.7458 460.62992 L617.61194 531.49606 M611.16286 566.92913 L540.29672 637.79528 L469.43057 566.92913 L540.29672 496.06299 L611.16286 566.92913 M606.05806 602.3622 L535.19192 673.22835 L464.32577 602.3622 L535.19192 531.49606 L606.05806 602.3622 M603.20939 637.79528 L532.34324 708.66142 L461.4771 637.79528 L532.34324 566.92913 L603.20939 637.79528 M602.64729 673.22835 L531.78115 744.09449 L460.91501 673.22835 L531.78115 602.3622 L602.64729 673.22835 M604.04128 708.66142 L533.17514 779.52756 L462.309 708.66142 L533.17514 637.79528 L604.04128 708.66142 M607.15865 744.09449 L536.29251 814.96063 L465.42637 744.09449 L536.29251 673.22835 L607.15865 744.09449 M611.52053 779.52756 L540.65439 850.3937 L469.78825 779.52756 L540.65439 708.66142 L611.52053 779.52756 M616.12054 814.96063 L545.2544 885.82677 L474.38826 814.96063 L545.2544 744.09449 L616.12054 814.96063 M619.43686 850.3937 L548.57071 921.25984 L477.70457 850.3937 L548.57071 779.52756 L619.43686 850.3937 M620.07338 885.82677 L549.20724 956.69291 L478.34109 885.82677 L549.20724 814.96063 L620.07338 885.82677 M617.75299 921.25984 L546.88685 992.12598 L476.02071 921.25984 L546.88685 850.3937 L617.75299 921.25984 M613.50485 956.69291 L542.63871 1027.55906 L471.77257 956.69291 L542.63871 885.82677 L613.50485 956.69291 M608.91556 992.12598 L538.04941 1062.99213 L467.18327 992.12598 L538.04941 921.25984 L608.91556 992.12598 M605.17475 1027.55906 L534.30861 1098.4252 L463.44247 1027.55906 L534.30861 956.69291 L605.17475 1027.55906 M602.91436 1062.99213 L532.04822 1133.85827 L461.18208 1062.99213 L532.04822 992.12598 L602.91436 1062.99213 M602.4423 1098.4252 L531.57616 1169.29134 L460.71002 1098.4252 L531.57616 1027.55906 L602.4423 1098.4252 M779.52756 389.76378 L708.66142 460.62992 L637.79528 389.76378 L708.66142 318.89764 L779.52756 389.76378 M780.39809 425.19685 L709.53195 496.06299 L638.66581 425.19685 L709.53195 354.33071 L780.39809 425.19685 M780.55447 460.62992 L709.68833 531.49606 L638.82219 460.62992 L709.68833 389.76378 L780.55447 460.62992 M780.31979 496.06299 L709.45364 566.92913 L638.5875 496.06299 L709.45364 425.19685 L780.31979 496.06299 M780.6929 531.49606 L709.82675 602.3622 L638.96061 531.49606 L709.82675 460.62992 L780.6929 531.49606 M782.72794 566.92913 L711.86179 637.79528 L640.99565 566.92913 L711.86179 496.06299 L782.72794 566.92913 M786.75107 602.3622 L715.88493 673.22835 L645.01879 602.3622 L715.88493 531.49606 L786.75107 602.3622 M792.04233 637.79528 L721.17619 708.66142 L650.31005 637.79528 L721.17619 566.92913 L792.04233 637.79528 M797.24103 673.22835 L726.37488 744.09449 L655.50874 673.22835 L726.37488 602.3622 L797.24103 673.22835 M800.89 708.66142 L730.02385 779.52756 L659.15771 708.66142 L730.02385 637.79528 L800.89 708.66142 M801.91866 744.09449 L731.05251 814.96063 L660.18637 744.09449 L731.05251 673.22835 L801.91866 744.09449 M800.0135 779.52756 L729.14736 850.3937 L658.28122 779.52756 L729.14736 708.66142 L800.0135 779.52756 M795.73592 814.96063 L724.86977 885.82677 L654.00363 814.96063 L724.86977 744.09449 L795.73592 814.96063 M790.26408 850.3937 L719.39794 921.25984 L648.53179 850.3937 L719.39794 779.52756 L790.26408 850.3937 M785.03091 885.82677 L714.16477 956.69291 L643.29863 885.82677 L714.16477 814.96063 L785.03091 885.82677 M780.58339 921.25984 L709.71725 992.12598 L638.85111 921.25984 L709.71725 850.3937 L780.58339 921.25984 M776.46867 956.69291 L705.60253 1027.55906 L634.73639 956.69291 L705.60253 885.82677 L776.46867 956.69291 M772.21733 992.12598 L701.35119 1062.99213 L630.48505 992.12598 L701.35119 921.25984 L772.21733 992.12598 M768.21945 1027.55906 L697.3533 1098.4252 L626.48716 1027.55906 L697.3533 956.69291 L768.21945 1027.55906 M765.76845 1062.99213 L694.90231 1133.85827 L624.03617 1062.99213 L694.90231 992.12598 L765.76845 1062.99213 M765.81985 1098.4252 L694.95371 1169.29134 L624.08757 1098.4252 L694.95371 1027.55906 L765.81985 1098.4252 M921.25984 389.76378 L850.3937 460.62992 L779.52756 389.76378 L850.3937 318.89764 L921.25984 389.76378 M918.24183 425.19685 L847.37569 496.06299 L776.50954 425.19685 L847.37569 354.33071 L918.24183 425.19685 M914.52715 460.62992 L843.66101 531.49606 L772.79487 460.62992 L843.66101 389.76378 L914.52715 460.62992 M911.72712 496.06299 L840.86098 566.92913 L769.99484 496.06299 L840.86098 425.19685 L911.72712 496.06299 M911.1917 531.49606 L840.32556 602.3622 L769.45942 531.49606 L840.32556 460.62992 L911.1917 531.49606 M913.14217 566.92913 L842.27603 637.79528 L771.40988 566.92913 L842.27603 496.06299 L913.14217 566.92913 M916.79382 602.3622 L845.92768 673.22835 L775.06153 602.3622 L845.92768 531.49606 L916.79382 602.3622 M921.37957 637.79528 L850.51343 708.66142 L779.64728 637.79528 L850.51343 566.92913 L921.37957 637.79528 M926.68261 673.22835 L855.81647 744.09449 L784.95033 673.22835 L855.81647 602.3622 L926.68261 673.22835 M932.67266 708.66142 L861.80652 779.52756 L790.94038 708.66142 L861.80652 637.79528 L932.67266 708.66142 M939.08253 744.09449 L868.21638 814.96063 L797.35024 744.09449 L868.21638 673.22835 L939.08253 744.09449 M945.04964 779.52756 L874.1835 850.3937 L803.31736 779.52756 L874.1835 708.66142 L945.04964 779.52756 M949.27288 814.96063 L878.40674 885.82677 L807.5406 814.96063 L878.40674 744.09449 L949.27288 814.96063 M951.05751 850.3937 L880.19137 921.25984 L809.32522 850.3937 L880.19137 779.52756 L951.05751 850.3937 M950.52871 885.82677 L879.66257 956.69291 L808.79642 885.82677 L879.66257 814.96063 L950.52871 885.82677 M948.37264 921.25984 L877.50649 992.12598 L806.64035 921.25984 L877.50649 850.3937 L948.37264 921.25984 M945.33206 956.69291 L874.46592 1027.55906 L803.59978 956.69291 L874.46592 885.82677 L945.33206 956.69291 M941.89916 992.12598 L871.03302 1062.99213 L800.16688 992.12598 L871.03302 921.25984 L941.89916 992.12598 M938.5332 1027.55906 L867.66706 1098.4252 L796.80091 1027.55906 L867.66706 956.69291 L938.5332 1027.55906 M935.99379 1062.99213 L865.12764 1133.85827 L794.2615 1062.99213 L865.12764 992.12598 L935.99379 1062.99213 M935.0119 1098.4252 L864.14576 1169.29134 L793.27961 1098.4252 L864.14576 1027.55906 L935.0119 1098.4252" fill="none" stroke="black" stroke-width="0.03cm" />
    </g>
</svg>