<?xml version="1.0" standalone="no"?>
  <!DOCTYPE svg PUBLIC "-//W3C//DTD SVG 1.1//EN" 
      "http://www.w3.org/Graphics/SVG/1.1/DTD/svg11.dtd">
  <svg width="29.7cm" height="42cm"
      xmlns="http://www.w3.org/2000/svg" version="1.1" viewBox="0 0 1052.3622 1488.18898">
    <g>
      <path d="M343.70079 389.76378 L342.25015 404.02903 L337.95764 417.71026 L330.99898 430.24735 L321.65907 441.12705 L310.32028 449.90392 L297.44683 456.21866 L283.56575 459.81272 L269.24533 460.53897 L255.07187 458.36767 L241.62561 453.38772 L229.45706 445.803 L219.06439 435.92403 L210.87307 424.15526 L205.21848 410.97849 L202.3321 396.93319 L202.3321 382.59437 L205.21848 368.54907 L210.87307 355.3723 L219.06439 343.60352 L229.45706 333.72455 L241.62561 326.13984 L255.07187 321.15989 L269.24533 318.98859 L283.56575 319.71484 L297.44683 323.3089 L310.32028 329.62364 L321.65907 338.40051 L330.99898 349.28021 L337.95764 361.8173 L342.25015 375.49853 L343.70079 389.76378 M348.9724 425.19685 L347.52177 439.4621 L343.22926 453.14333 L336.2706 465.68042 L326.93069 476.56012 L315.5919 485.33699 L302.71844 491.65173 L288.83736 495.24579 L274.51695 495.97204 L260.34348 493.80074 L246.89723 488.82079 L234.72867 481.23608 L224.336 471.35711 L216.14469 459.58833 L210.49009 446.41156 L207.60371 432.36626 L207.60371 418.02744 L210.49009 403.98214 L216.14469 390.80537 L224.336 379.0366 L234.72867 369.15762 L246.89723 361.57291 L260.34348 356.59296 L274.51695 354.42166 L288.83736 355.14791 L302.71844 358.74197 L315.5919 365.05671 L326.93069 373.83358 L336.2706 384.71328 L343.22926 397.25037 L347.52177 410.9316 L348.9724 425.19685 M365.30868 460.62992 L363.85805 474.89517 L359.56554 488.5764 L352.60688 501.1135 L343.26697 511.99319 L331.92818 520.77007 L319.05473 527.0848 L305.17365 530.67886 L290.85323 531.40511 L276.67977 529.23381 L263.23351 524.25387 L251.06495 516.66915 L240.67228 506.79018 L232.48097 495.0214 L226.82638 481.84463 L223.93999 467.79933 L223.93999 453.46051 L226.82638 439.41521 L232.48097 426.23844 L240.67228 414.46967 L251.06495 404.5907 L263.23351 397.00598 L276.67977 392.02603 L290.85323 389.85474 L305.17365 390.58098 L319.05473 394.17505 L331.92818 400.48978 L343.26697 409.26665 L352.60688 420.14635 L359.56554 432.68344 L363.85805 446.36467 L365.30868 460.62992 M392.2722 496.06299 L390.82157 510.32824 L386.52905 524.00947 L379.5704 536.54657 L370.23049 547.42626 L358.8917 556.20314 L346.01824 562.51787 L332.13716 566.11193 L317.81675 566.83818 L303.64328 564.66688 L290.19703 559.68694 L278.02847 552.10222 L267.6358 542.22325 L259.44449 530.45447 L253.78989 517.2777 L250.90351 503.2324 L250.90351 488.89358 L253.78989 474.84828 L259.44449 461.67151 L267.6358 449.90274 L278.02847 440.02377 L290.19703 432.43905 L303.64328 427.4591 L317.81675 425.28781 L332.13716 426.01406 L346.01824 429.60812 L358.8917 435.92285 L370.23049 444.69972 L379.5704 455.57942 L386.52905 468.11651 L390.82157 481.79774 L392.2722 496.06299 M428.44123 531.49606 L426.9906 545.76131 L422.69809 559.44254 L415.73943 571.97964 L406.39952 582.85933 L395.06073 591.63621 L382.18727 597.95094 L368.30619 601.545 L353.98578 602.27125 L339.81231 600.09995 L326.36606 595.12001 L314.1975 587.53529 L303.80483 577.65632 L295.61352 565.88754 L289.95892 552.71077 L287.07254 538.66547 L287.07254 524.32665 L289.95892 510.28135 L295.61352 497.10459 L303.80483 485.33581 L314.1975 475.45684 L326.36606 467.87212 L339.81231 462.89217 L353.98578 460.72088 L368.30619 461.44713 L382.18727 465.04119 L395.06073 471.35592 L406.39952 480.13279 L415.73943 491.01249 L422.69809 503.54959 L426.9906 517.23081 L428.44123 531.49606 M469.94399 566.92913 L468.49336 581.19438 L464.20085 594.87561 L457.24219 607.41271 L447.90228 618.2924 L436.56349 627.06928 L423.69004 633.38401 L409.80895 636.97807 L395.48854 637.70432 L381.31507 635.53302 L367.86882 630.55308 L355.70026 622.96836 L345.30759 613.08939 L337.11628 601.32061 L331.46168 588.14384 L328.5753 574.09854 L328.5753 559.75973 L331.46168 545.71442 L337.11628 532.53766 L345.30759 520.76888 L355.70026 510.88991 L367.86882 503.30519 L381.31507 498.32524 L395.48854 496.15395 L409.80895 496.8802 L423.69004 500.47426 L436.56349 506.78899 L447.90228 515.56587 L457.24219 526.44556 L464.20085 538.98266 L468.49336 552.66388 L469.94399 566.92913 M510.55573 602.3622 L509.10509 616.62745 L504.81258 630.30868 L497.85393 642.84578 L488.51401 653.72547 L477.17523 662.50235 L464.30177 668.81708 L450.42069 672.41114 L436.10028 673.13739 L421.92681 670.9661 L408.48055 665.98615 L396.312 658.40143 L385.91933 648.52246 L377.72802 636.75368 L372.07342 623.57691 L369.18704 609.53161 L369.18704 595.1928 L372.07342 581.1475 L377.72802 567.97073 L385.91933 556.20195 L396.312 546.32298 L408.48055 538.73826 L421.92681 533.75831 L436.10028 531.58702 L450.42069 532.31327 L464.30177 535.90733 L477.17523 542.22206 L488.51401 550.99894 L497.85393 561.87863 L504.81258 574.41573 L509.10509 588.09696 L510.55573 602.3622 M543.2153 637.79528 L541.76467 652.06053 L537.47216 665.74175 L530.5135 678.27885 L521.17359 689.15854 L509.8348 697.93542 L496.96135 704.25015 L483.08027 707.84421 L468.75985 708.57046 L454.58639 706.39917 L441.14013 701.41922 L428.97157 693.8345 L418.5789 683.95553 L410.38759 672.18675 L404.733 659.00999 L401.84661 644.96468 L401.84661 630.62587 L404.733 616.58057 L410.38759 603.4038 L418.5789 591.63502 L428.97157 581.75605 L441.14013 574.17133 L454.58639 569.19139 L468.75985 567.02009 L483.08027 567.74634 L496.96135 571.3404 L509.8348 577.65513 L521.17359 586.43201 L530.5135 597.3117 L537.47216 609.8488 L541.76467 623.53003 L543.2153 637.79528 M562.22623 673.22835 L560.77559 687.4936 L556.48308 701.17482 L549.52442 713.71192 L540.18451 724.59161 L528.84572 733.36849 L515.97227 739.68322 L502.09119 743.27728 L487.77077 744.00353 L473.59731 741.83224 L460.15105 736.85229 L447.9825 729.26757 L437.58982 719.3886 L429.39851 707.61982 L423.74392 694.44306 L420.85753 680.39776 L420.85753 666.05894 L423.74392 652.01364 L429.39851 638.83687 L437.58982 627.06809 L447.9825 617.18912 L460.15105 609.6044 L473.59731 604.62446 L487.77077 602.45316 L502.09119 603.17941 L515.97227 606.77347 L528.84572 613.0882 L540.18451 621.86508 L549.52442 632.74477 L556.48308 645.28187 L560.77559 658.9631 L562.22623 673.22835 M565.61308 708.66142 L564.16244 722.92667 L559.86993 736.6079 L552.91127 749.14499 L543.57136 760.02469 L532.23257 768.80156 L519.35912 775.11629 L505.47804 778.71035 L491.15762 779.4366 L476.98416 777.26531 L463.5379 772.28536 L451.36934 764.70064 L440.97667 754.82167 L432.78536 743.05289 L427.13077 729.87613 L424.24438 715.83083 L424.24438 701.49201 L427.13077 687.44671 L432.78536 674.26994 L440.97667 662.50116 L451.36934 652.62219 L463.5379 645.03747 L476.98416 640.05753 L491.15762 637.88623 L505.47804 638.61248 L519.35912 642.20654 L532.23257 648.52127 L543.57136 657.29815 L552.91127 668.17784 L559.86993 680.71494 L564.16244 694.39617 L565.61308 708.66142 M554.78203 744.09449 L553.33139 758.35974 L549.03888 772.04097 L542.08023 784.57806 L532.74031 795.45776 L521.40153 804.23463 L508.52807 810.54936 L494.64699 814.14342 L480.32658 814.86967 L466.15311 812.69838 L452.70685 807.71843 L440.5383 800.13371 L430.14563 790.25474 L421.95432 778.48597 L416.29972 765.3092 L413.41334 751.2639 L413.41334 736.92508 L416.29972 722.87978 L421.95432 709.70301 L430.14563 697.93423 L440.5383 688.05526 L452.70685 680.47054 L466.15311 675.4906 L480.32658 673.3193 L494.64699 674.04555 L508.52807 677.63961 L521.40153 683.95434 L532.74031 692.73122 L542.08023 703.61091 L549.03888 716.14801 L553.33139 729.82924 L554.78203 744.09449 M533.23547 779.52756 L531.78484 793.79281 L527.49232 807.47404 L520.53367 820.01113 L511.19376 830.89083 L499.85497 839.6677 L486.98151 845.98243 L473.10043 849.5765 L458.78002 850.30274 L444.60655 848.13145 L431.16029 843.1515 L418.99174 835.56678 L408.59907 825.68781 L400.40776 813.91904 L394.75316 800.74227 L391.86678 786.69697 L391.86678 772.35815 L394.75316 758.31285 L400.40776 745.13608 L408.59907 733.3673 L418.99174 723.48833 L431.16029 715.90362 L444.60655 710.92367 L458.78002 708.75237 L473.10043 709.47862 L486.98151 713.07268 L499.85497 719.38741 L511.19376 728.16429 L520.53367 739.04398 L527.49232 751.58108 L531.78484 765.26231 L533.23547 779.52756 M505.75398 814.96063 L504.30335 829.22588 L500.01083 842.90711 L493.05218 855.4442 L483.71227 866.3239 L472.37348 875.10077 L459.50002 881.41551 L445.61894 885.00957 L431.29853 885.73582 L417.12506 883.56452 L403.67881 878.58457 L391.51025 870.99986 L381.11758 861.12088 L372.92627 849.35211 L367.27167 836.17534 L364.38529 822.13004 L364.38529 807.79122 L367.27167 793.74592 L372.92627 780.56915 L381.11758 768.80038 L391.51025 758.9214 L403.67881 751.33669 L417.12506 746.35674 L431.29853 744.18544 L445.61894 744.91169 L459.50002 748.50575 L472.37348 754.82049 L483.71227 763.59736 L493.05218 774.47706 L500.01083 787.01415 L504.30335 800.69538 L505.75398 814.96063 M477.5372 850.3937 L476.08656 864.65895 L471.79405 878.34018 L464.83539 890.87728 L455.49548 901.75697 L444.15669 910.53385 L431.28324 916.84858 L417.40216 920.44264 L403.08174 921.16889 L388.90828 918.99759 L375.46202 914.01764 L363.29347 906.43293 L352.9008 896.55396 L344.70948 884.78518 L339.05489 871.60841 L336.16851 857.56311 L336.16851 843.22429 L339.05489 829.17899 L344.70948 816.00222 L352.9008 804.23345 L363.29347 794.35448 L375.46202 786.76976 L388.90828 781.78981 L403.08174 779.61852 L417.40216 780.34476 L431.28324 783.93883 L444.15669 790.25356 L455.49548 799.03043 L464.83539 809.91013 L471.79405 822.44722 L476.08656 836.12845 L477.5372 850.3937 M453.4544 885.82677 L452.00376 900.09202 L447.71125 913.77325 L440.75259 926.31035 L431.41268 937.19004 L420.07389 945.96692 L407.20044 952.28165 L393.31936 955.87571 L378.99894 956.60196 L364.82548 954.43066 L351.37922 949.45072 L339.21067 941.866 L328.818 931.98703 L320.62668 920.21825 L314.97209 907.04148 L312.08571 892.99618 L312.08571 878.65736 L314.97209 864.61206 L320.62668 851.43529 L328.818 839.66652 L339.21067 829.78755 L351.37922 822.20283 L364.82548 817.22288 L378.99894 815.05159 L393.31936 815.77784 L407.20044 819.3719 L420.07389 825.68663 L431.41268 834.4635 L440.75259 845.3432 L447.71125 857.88029 L452.00376 871.56152 L453.4544 885.82677 M437.69592 921.25984 L436.24529 935.52509 L431.95278 949.20632 L424.99412 961.74342 L415.65421 972.62311 L404.31542 981.39999 L391.44197 987.71472 L377.56089 991.30878 L363.24047 992.03503 L349.06701 989.86373 L335.62075 984.88379 L323.45219 977.29907 L313.05952 967.4201 L304.86821 955.65132 L299.21362 942.47455 L296.32723 928.42925 L296.32723 914.09043 L299.21362 900.04513 L304.86821 886.86836 L313.05952 875.09959 L323.45219 865.22062 L335.62075 857.6359 L349.06701 852.65595 L363.24047 850.48466 L377.56089 851.21091 L391.44197 854.80497 L404.31542 861.1197 L415.65421 869.89657 L424.99412 880.77627 L431.95278 893.31336 L436.24529 906.99459 L437.69592 921.25984 M433.54821 956.69291 L432.09757 970.95816 L427.80506 984.63939 L420.8464 997.17649 L411.50649 1008.05618 L400.1677 1016.83306 L387.29425 1023.14779 L373.41317 1026.74185 L359.09275 1027.4681 L344.91929 1025.2968 L331.47303 1020.31686 L319.30447 1012.73214 L308.9118 1002.85317 L300.72049 991.08439 L295.0659 977.90762 L292.17951 963.86232 L292.17951 949.5235 L295.0659 935.4782 L300.72049 922.30144 L308.9118 910.53266 L319.30447 900.65369 L331.47303 893.06897 L344.91929 888.08902 L359.09275 885.91773 L373.41317 886.64398 L387.29425 890.23804 L400.1677 896.55277 L411.50649 905.32964 L420.8464 916.20934 L427.80506 928.74644 L432.09757 942.42766 L433.54821 956.69291 M442.31493 992.12598 L440.8643 1006.39123 L436.57179 1020.07246 L429.61313 1032.60956 L420.27322 1043.48925 L408.93443 1052.26613 L396.06098 1058.58086 L382.1799 1062.17492 L367.85948 1062.90117 L353.68602 1060.72987 L340.23976 1055.74993 L328.0712 1048.16521 L317.67853 1038.28624 L309.48722 1026.51746 L303.83263 1013.34069 L300.94624 999.29539 L300.94624 984.95658 L303.83263 970.91127 L309.48722 957.73451 L317.67853 945.96573 L328.0712 936.08676 L340.23976 928.50204 L353.68602 923.52209 L367.85948 921.3508 L382.1799 922.07705 L396.06098 925.67111 L408.93443 931.98584 L420.27322 940.76272 L429.61313 951.64241 L436.57179 964.17951 L440.8643 977.86073 L442.31493 992.12598 M462.27262 1027.55906 L460.82198 1041.8243 L456.52947 1055.50553 L449.57081 1068.04263 L440.2309 1078.92232 L428.89211 1087.6992 L416.01866 1094.01393 L402.13758 1097.60799 L387.81716 1098.33424 L373.6437 1096.16295 L360.19744 1091.183 L348.02888 1083.59828 L337.63621 1073.71931 L329.4449 1061.95053 L323.79031 1048.77376 L320.90392 1034.72846 L320.90392 1020.38965 L323.79031 1006.34435 L329.4449 993.16758 L337.63621 981.3988 L348.02888 971.51983 L360.19744 963.93511 L373.6437 958.95516 L387.81716 956.78387 L402.13758 957.51012 L416.01866 961.10418 L428.89211 967.41891 L440.2309 976.19579 L449.57081 987.07548 L456.52947 999.61258 L460.82198 1013.29381 L462.27262 1027.55906 M488.75441 1062.99213 L487.30378 1077.25738 L483.01127 1090.9386 L476.05261 1103.4757 L466.7127 1114.35539 L455.37391 1123.13227 L442.50046 1129.447 L428.61937 1133.04106 L414.29896 1133.76731 L400.12549 1131.59602 L386.67924 1126.61607 L374.51068 1119.03135 L364.11801 1109.15238 L355.9267 1097.3836 L350.2721 1084.20684 L347.38572 1070.16153 L347.38572 1055.82272 L350.2721 1041.77742 L355.9267 1028.60065 L364.11801 1016.83187 L374.51068 1006.9529 L386.67924 999.36818 L400.12549 994.38824 L414.29896 992.21694 L428.61937 992.94319 L442.50046 996.53725 L455.37391 1002.85198 L466.7127 1011.62886 L476.05261 1022.50855 L483.01127 1035.04565 L487.30378 1048.72688 L488.75441 1062.99213 M515.65586 1098.4252 L514.20523 1112.69045 L509.91271 1126.37167 L502.95406 1138.90877 L493.61415 1149.78847 L482.27536 1158.56534 L469.4019 1164.88007 L455.52082 1168.47413 L441.20041 1169.20038 L427.02694 1167.02909 L413.58068 1162.04914 L401.41213 1154.46442 L391.01946 1144.58545 L382.82815 1132.81667 L377.17355 1119.63991 L374.28717 1105.59461 L374.28717 1091.25579 L377.17355 1077.21049 L382.82815 1064.03372 L391.01946 1052.26494 L401.41213 1042.38597 L413.58068 1034.80125 L427.02694 1029.82131 L441.20041 1027.65001 L455.52082 1028.37626 L469.4019 1031.97032 L482.27536 1038.28505 L493.61415 1047.06193 L502.95406 1057.94162 L509.91271 1070.47872 L514.20523 1084.15995 L515.65586 1098.4252 M485.43307 389.76378 L483.98244 404.02903 L479.68992 417.71026 L472.73127 430.24735 L463.39136 441.12705 L452.05257 449.90392 L439.17911 456.21866 L425.29803 459.81272 L410.97762 460.53897 L396.80415 458.36767 L383.35789 453.38772 L371.18934 445.803 L360.79667 435.92403 L352.60536 424.15526 L346.95076 410.97849 L344.06438 396.93319 L344.06438 382.59437 L346.95076 368.54907 L352.60536 355.3723 L360.79667 343.60352 L371.18934 333.72455 L383.35789 326.13984 L396.80415 321.15989 L410.97762 318.98859 L425.29803 319.71484 L439.17911 323.3089 L452.05257 329.62364 L463.39136 338.40051 L472.73127 349.28021 L479.68992 361.8173 L483.98244 375.49853 L485.43307 389.76378 M492.42333 425.19685 L490.97269 439.4621 L486.68018 453.14333 L479.72152 465.68042 L470.38161 476.56012 L459.04282 485.33699 L446.16937 491.65173 L432.28829 495.24579 L417.96787 495.97204 L403.79441 493.80074 L390.34815 488.82079 L378.1796 481.23608 L367.78692 471.35711 L359.59561 459.58833 L353.94102 446.41156 L351.05463 432.36626 L351.05463 418.02744 L353.94102 403.98214 L359.59561 390.80537 L367.78692 379.0366 L378.1796 369.15762 L390.34815 361.57291 L403.79441 356.59296 L417.96787 354.42166 L432.28829 355.14791 L446.16937 358.74197 L459.04282 365.05671 L470.38161 373.83358 L479.72152 384.71328 L486.68018 397.25037 L490.97269 410.9316 L492.42333 425.19685 M513.95801 460.62992 L512.50737 474.89517 L508.21486 488.5764 L501.2562 501.1135 L491.91629 511.99319 L480.5775 520.77007 L467.70405 527.0848 L453.82297 530.67886 L439.50255 531.40511 L425.32909 529.23381 L411.88283 524.25387 L399.71427 516.66915 L389.3216 506.79018 L381.13029 495.0214 L375.4757 481.84463 L372.58931 467.79933 L372.58931 453.46051 L375.4757 439.41521 L381.13029 426.23844 L389.3216 414.46967 L399.71427 404.5907 L411.88283 397.00598 L425.32909 392.02603 L439.50255 389.85474 L453.82297 390.58098 L467.70405 394.17505 L480.5775 400.48978 L491.91629 409.26665 L501.2562 420.14635 L508.21486 432.68344 L512.50737 446.36467 L513.95801 460.62992 M546.97803 496.06299 L545.5274 510.32824 L541.23489 524.00947 L534.27623 536.54657 L524.93632 547.42626 L513.59753 556.20314 L500.72408 562.51787 L486.843 566.11193 L472.52258 566.83818 L458.34912 564.66688 L444.90286 559.68694 L432.7343 552.10222 L422.34163 542.22325 L414.15032 530.45447 L408.49573 517.2777 L405.60934 503.2324 L405.60934 488.89358 L408.49573 474.84828 L414.15032 461.67151 L422.34163 449.90274 L432.7343 440.02377 L444.90286 432.43905 L458.34912 427.4591 L472.52258 425.28781 L486.843 426.01406 L500.72408 429.60812 L513.59753 435.92285 L524.93632 444.69972 L534.27623 455.57942 L541.23489 468.11651 L545.5274 481.79774 L546.97803 496.06299 M585.70261 531.49606 L584.25198 545.76131 L579.95946 559.44254 L573.00081 571.97964 L563.6609 582.85933 L552.32211 591.63621 L539.44865 597.95094 L525.56757 601.545 L511.24716 602.27125 L497.07369 600.09995 L483.62744 595.12001 L471.45888 587.53529 L461.06621 577.65632 L452.8749 565.88754 L447.2203 552.71077 L444.33392 538.66547 L444.33392 524.32665 L447.2203 510.28135 L452.8749 497.10459 L461.06621 485.33581 L471.45888 475.45684 L483.62744 467.87212 L497.07369 462.89217 L511.24716 460.72088 L525.56757 461.44713 L539.44865 465.04119 L552.32211 471.35592 L563.6609 480.13279 L573.00081 491.01249 L579.95946 503.54959 L584.25198 517.23081 L585.70261 531.49606 M622.32821 566.92913 L620.87758 581.19438 L616.58507 594.87561 L609.62641 607.41271 L600.2865 618.2924 L588.94771 627.06928 L576.07425 633.38401 L562.19317 636.97807 L547.87276 637.70432 L533.69929 635.53302 L520.25304 630.55308 L508.08448 622.96836 L497.69181 613.08939 L489.5005 601.32061 L483.8459 588.14384 L480.95952 574.09854 L480.95952 559.75973 L483.8459 545.71442 L489.5005 532.53766 L497.69181 520.76888 L508.08448 510.88991 L520.25304 503.30519 L533.69929 498.32524 L547.87276 496.15395 L562.19317 496.8802 L576.07425 500.47426 L588.94771 506.78899 L600.2865 515.56587 L609.62641 526.44556 L616.58507 538.98266 L620.87758 552.66388 L622.32821 566.92913 M650.33651 602.3622 L648.88587 616.62745 L644.59336 630.30868 L637.63471 642.84578 L628.29479 653.72547 L616.95601 662.50235 L604.08255 668.81708 L590.20147 672.41114 L575.88106 673.13739 L561.70759 670.9661 L548.26133 665.98615 L536.09278 658.40143 L525.70011 648.52246 L517.5088 636.75368 L511.8542 623.57691 L508.96782 609.53161 L508.96782 595.1928 L511.8542 581.1475 L517.5088 567.97073 L525.70011 556.20195 L536.09278 546.32298 L548.26133 538.73826 L561.70759 533.75831 L575.88106 531.58702 L590.20147 532.31327 L604.08255 535.90733 L616.95601 542.22206 L628.29479 550.99894 L637.63471 561.87863 L644.59336 574.41573 L648.88587 588.09696 L650.33651 602.3622 M666.80448 637.79528 L665.35385 652.06053 L661.06134 665.74175 L654.10268 678.27885 L644.76277 689.15854 L633.42398 697.93542 L620.55052 704.25015 L606.66944 707.84421 L592.34903 708.57046 L578.17556 706.39917 L564.72931 701.41922 L552.56075 693.8345 L542.16808 683.95553 L533.97677 672.18675 L528.32217 659.00999 L525.43579 644.96468 L525.43579 630.62587 L528.32217 616.58057 L533.97677 603.4038 L542.16808 591.63502 L552.56075 581.75605 L564.72931 574.17133 L578.17556 569.19139 L592.34903 567.02009 L606.66944 567.74634 L620.55052 571.3404 L633.42398 577.65513 L644.76277 586.43201 L654.10268 597.3117 L661.06134 609.8488 L665.35385 623.53003 L666.80448 637.79528 M670.9103 673.22835 L669.45967 687.4936 L665.16715 701.17482 L658.2085 713.71192 L648.86859 724.59161 L637.5298 733.36849 L624.65634 739.68322 L610.77526 743.27728 L596.45485 744.00353 L582.28138 741.83224 L568.83512 736.85229 L556.66657 729.26757 L546.2739 719.3886 L538.08259 707.61982 L532.42799 694.44306 L529.54161 680.39776 L529.54161 666.05894 L532.42799 652.01364 L538.08259 638.83687 L546.2739 627.06809 L556.66657 617.18912 L568.83512 609.6044 L582.28138 604.62446 L596.45485 602.45316 L610.77526 603.17941 L624.65634 606.77347 L637.5298 613.0882 L648.86859 621.86508 L658.2085 632.74477 L665.16715 645.28187 L669.45967 658.9631 L670.9103 673.22835 M662.28366 708.66142 L660.83302 722.92667 L656.54051 736.6079 L649.58185 749.14499 L640.24194 760.02469 L628.90316 768.80156 L616.0297 775.11629 L602.14862 778.71035 L587.82821 779.4366 L573.65474 777.26531 L560.20848 772.28536 L548.03993 764.70064 L537.64726 754.82167 L529.45595 743.05289 L523.80135 729.87613 L520.91497 715.83083 L520.91497 701.49201 L523.80135 687.44671 L529.45595 674.26994 L537.64726 662.50116 L548.03993 652.62219 L560.20848 645.03747 L573.65474 640.05753 L587.82821 637.88623 L602.14862 638.61248 L616.0297 642.20654 L628.90316 648.52127 L640.24194 657.29815 L649.58185 668.17784 L656.54051 680.71494 L660.83302 694.39617 L662.28366 708.66142 M641.35441 744.09449 L639.90377 758.35974 L635.61126 772.04097 L628.6526 784.57806 L619.31269 795.45776 L607.9739 804.23463 L595.10045 810.54936 L581.21937 814.14342 L566.89895 814.86967 L552.72549 812.69838 L539.27923 807.71843 L527.11068 800.13371 L516.718 790.25474 L508.52669 778.48597 L502.8721 765.3092 L499.98571 751.2639 L499.98571 736.92508 L502.8721 722.87978 L508.52669 709.70301 L516.718 697.93423 L527.11068 688.05526 L539.27923 680.47054 L552.72549 675.4906 L566.89895 673.3193 L581.21937 674.04555 L595.10045 677.63961 L607.9739 683.95434 L619.31269 692.73122 L628.6526 703.61091 L635.61126 716.14801 L639.90377 729.82924 L641.35441 744.09449 M610.80241 779.52756 L609.35178 793.79281 L605.05926 807.47404 L598.10061 820.01113 L588.7607 830.89083 L577.42191 839.6677 L564.54845 845.98243 L550.66737 849.5765 L536.34696 850.30274 L522.17349 848.13145 L508.72723 843.1515 L496.55868 835.56678 L486.16601 825.68781 L477.9747 813.91904 L472.3201 800.74227 L469.43372 786.69697 L469.43372 772.35815 L472.3201 758.31285 L477.9747 745.13608 L486.16601 733.3673 L496.55868 723.48833 L508.72723 715.90362 L522.17349 710.92367 L536.34696 708.75237 L550.66737 709.47862 L564.54845 713.07268 L577.42191 719.38741 L588.7607 728.16429 L598.10061 739.04398 L605.05926 751.58108 L609.35178 765.26231 L610.80241 779.52756 M576.04497 814.96063 L574.59434 829.22588 L570.30182 842.90711 L563.34317 855.4442 L554.00326 866.3239 L542.66447 875.10077 L529.79101 881.41551 L515.90993 885.00957 L501.58952 885.73582 L487.41605 883.56452 L473.9698 878.58457 L461.80124 870.99986 L451.40857 861.12088 L443.21726 849.35211 L437.56266 836.17534 L434.67628 822.13004 L434.67628 807.79122 L437.56266 793.74592 L443.21726 780.56915 L451.40857 768.80038 L461.80124 758.9214 L473.9698 751.33669 L487.41605 746.35674 L501.58952 744.18544 L515.90993 744.91169 L529.79101 748.50575 L542.66447 754.82049 L554.00326 763.59736 L563.34317 774.47706 L570.30182 787.01415 L574.59434 800.69538 L576.04497 814.96063 M543.32624 850.3937 L541.87561 864.65895 L537.5831 878.34018 L530.62444 890.87728 L521.28453 901.75697 L509.94574 910.53385 L497.07228 916.84858 L483.1912 920.44264 L468.87079 921.16889 L454.69732 918.99759 L441.25107 914.01764 L429.08251 906.43293 L418.68984 896.55396 L410.49853 884.78518 L404.84393 871.60841 L401.95755 857.56311 L401.95755 843.22429 L404.84393 829.17899 L410.49853 816.00222 L418.68984 804.23345 L429.08251 794.35448 L441.25107 786.76976 L454.69732 781.78981 L468.87079 779.61852 L483.1912 780.34476 L497.07228 783.93883 L509.94574 790.25356 L521.28453 799.03043 L530.62444 809.91013 L537.5831 822.44722 L541.87561 836.12845 L543.32624 850.3937 M517.34931 885.82677 L515.89867 900.09202 L511.60616 913.77325 L504.64751 926.31035 L495.30759 937.19004 L483.96881 945.96692 L471.09535 952.28165 L457.21427 955.87571 L442.89386 956.60196 L428.72039 954.43066 L415.27413 949.45072 L403.10558 941.866 L392.71291 931.98703 L384.5216 920.21825 L378.867 907.04148 L375.98062 892.99618 L375.98062 878.65736 L378.867 864.61206 L384.5216 851.43529 L392.71291 839.66652 L403.10558 829.78755 L415.27413 822.20283 L428.72039 817.22288 L442.89386 815.05159 L457.21427 815.77784 L471.09535 819.3719 L483.96881 825.68663 L495.30759 834.4635 L504.64751 845.3432 L511.60616 857.88029 L515.89867 871.56152 L517.34931 885.82677 M500.85623 921.25984 L499.40559 935.52509 L495.11308 949.20632 L488.15442 961.74342 L478.81451 972.62311 L467.47572 981.39999 L454.60227 987.71472 L440.72119 991.30878 L426.40077 992.03503 L412.22731 989.86373 L398.78105 984.88379 L386.61249 977.29907 L376.21982 967.4201 L368.02851 955.65132 L362.37392 942.47455 L359.48753 928.42925 L359.48753 914.09043 L362.37392 900.04513 L368.02851 886.86836 L376.21982 875.09959 L386.61249 865.22062 L398.78105 857.6359 L412.22731 852.65595 L426.40077 850.48466 L440.72119 851.21091 L454.60227 854.80497 L467.47572 861.1197 L478.81451 869.89657 L488.15442 880.77627 L495.11308 893.31336 L499.40559 906.99459 L500.85623 921.25984 M495.31025 956.69291 L493.85961 970.95816 L489.5671 984.63939 L482.60844 997.17649 L473.26853 1008.05618 L461.92974 1016.83306 L449.05629 1023.14779 L435.17521 1026.74185 L420.8548 1027.4681 L406.68133 1025.2968 L393.23507 1020.31686 L381.06652 1012.73214 L370.67385 1002.85317 L362.48254 991.08439 L356.82794 977.90762 L353.94156 963.86232 L353.94156 949.5235 L356.82794 935.4782 L362.48254 922.30144 L370.67385 910.53266 L381.06652 900.65369 L393.23507 893.06897 L406.68133 888.08902 L420.8548 885.91773 L435.17521 886.64398 L449.05629 890.23804 L461.92974 896.55277 L473.26853 905.32964 L482.60844 916.20934 L489.5671 928.74644 L493.85961 942.42766 L495.31025 956.69291 M500.67235 992.12598 L499.22172 1006.39123 L494.92921 1020.07246 L487.97055 1032.60956 L478.63064 1043.48925 L467.29185 1052.26613 L454.41839 1058.58086 L440.53731 1062.17492 L426.2169 1062.90117 L412.04343 1060.72987 L398.59718 1055.74993 L386.42862 1048.16521 L376.03595 1038.28624 L367.84464 1026.51746 L362.19004 1013.34069 L359.30366 999.29539 L359.30366 984.95658 L362.19004 970.91127 L367.84464 957.73451 L376.03595 945.96573 L386.42862 936.08676 L398.59718 928.50204 L412.04343 923.52209 L426.2169 921.3508 L440.53731 922.07705 L454.41839 925.67111 L467.29185 931.98584 L478.63064 940.76272 L487.97055 951.64241 L494.92921 964.17951 L499.22172 977.86073 L500.67235 992.12598 M514.61367 1027.55906 L513.16304 1041.8243 L508.87053 1055.50553 L501.91187 1068.04263 L492.57196 1078.92232 L481.23317 1087.6992 L468.35972 1094.01393 L454.47864 1097.60799 L440.15822 1098.33424 L425.98475 1096.16295 L412.5385 1091.183 L400.36994 1083.59828 L389.97727 1073.71931 L381.78596 1061.95053 L376.13137 1048.77376 L373.24498 1034.72846 L373.24498 1020.38965 L376.13137 1006.34435 L381.78596 993.16758 L389.97727 981.3988 L400.36994 971.51983 L412.5385 963.93511 L425.98475 958.95516 L440.15822 956.78387 L454.47864 957.51012 L468.35972 961.10418 L481.23317 967.41891 L492.57196 976.19579 L501.91187 987.07548 L508.87053 999.61258 L513.16304 1013.29381 L514.61367 1027.55906 M532.68993 1062.99213 L531.2393 1077.25738 L526.94678 1090.9386 L519.98813 1103.4757 L510.64822 1114.35539 L499.30943 1123.13227 L486.43597 1129.447 L472.55489 1133.04106 L458.23448 1133.76731 L444.06101 1131.59602 L430.61475 1126.61607 L418.4462 1119.03135 L408.05353 1109.15238 L399.86222 1097.3836 L394.20762 1084.20684 L391.32124 1070.16153 L391.32124 1055.82272 L394.20762 1041.77742 L399.86222 1028.60065 L408.05353 1016.83187 L418.4462 1006.9529 L430.61475 999.36818 L444.06101 994.38824 L458.23448 992.21694 L472.55489 992.94319 L486.43597 996.53725 L499.30943 1002.85198 L510.64822 1011.62886 L519.98813 1022.50855 L526.94678 1035.04565 L531.2393 1048.72688 L532.68993 1062.99213 M550.03493 1098.4252 L548.58429 1112.69045 L544.29178 1126.37167 L537.33312 1138.90877 L527.99321 1149.78847 L516.65443 1158.56534 L503.78097 1164.88007 L489.89989 1168.47413 L475.57948 1169.20038 L461.40601 1167.02909 L447.95975 1162.04914 L435.7912 1154.46442 L425.39853 1144.58545 L417.20722 1132.81667 L411.55262 1119.63991 L408.66624 1105.59461 L408.66624 1091.25579 L411.55262 1077.21049 L417.20722 1064.03372 L425.39853 1052.26494 L435.7912 1042.38597 L447.95975 1034.80125 L461.40601 1029.82131 L475.57948 1027.65001 L489.89989 1028.37626 L503.78097 1031.97032 L516.65443 1038.28505 L527.99321 1047.06193 L537.33312 1057.94162 L544.29178 1070.47872 L548.58429 1084.15995 L550.03493 1098.4252 M627.16535 389.76378 L625.71472 404.02903 L621.42221 417.71026 L614.46355 430.24735 L605.12364 441.12705 L593.78485 449.90392 L580.9114 456.21866 L567.03031 459.81272 L552.7099 460.53897 L538.53643 458.36767 L525.09018 453.38772 L512.92162 445.803 L502.52895 435.92403 L494.33764 424.15526 L488.68304 410.97849 L485.79666 396.93319 L485.79666 382.59437 L488.68304 368.54907 L494.33764 355.3723 L502.52895 343.60352 L512.92162 333.72455 L525.09018 326.13984 L538.53643 321.15989 L552.7099 318.98859 L567.03031 319.71484 L580.9114 323.3089 L593.78485 329.62364 L605.12364 338.40051 L614.46355 349.28021 L621.42221 361.8173 L625.71472 375.49853 L627.16535 389.76378 M632.43518 425.19685 L630.98454 439.4621 L626.69203 453.14333 L619.73337 465.68042 L610.39346 476.56012 L599.05467 485.33699 L586.18122 491.65173 L572.30014 495.24579 L557.97972 495.97204 L543.80626 493.80074 L530.36 488.82079 L518.19145 481.23608 L507.79878 471.35711 L499.60746 459.58833 L493.95287 446.41156 L491.06649 432.36626 L491.06649 418.02744 L493.95287 403.98214 L499.60746 390.80537 L507.79878 379.0366 L518.19145 369.15762 L530.36 361.57291 L543.80626 356.59296 L557.97972 354.42166 L572.30014 355.14791 L586.18122 358.74197 L599.05467 365.05671 L610.39346 373.83358 L619.73337 384.71328 L626.69203 397.25037 L630.98454 410.9316 L632.43518 425.19685 M647.32125 460.62992 L645.87061 474.89517 L641.5781 488.5764 L634.61945 501.1135 L625.27953 511.99319 L613.94075 520.77007 L601.06729 527.0848 L587.18621 530.67886 L572.8658 531.40511 L558.69233 529.23381 L545.24607 524.25387 L533.07752 516.66915 L522.68485 506.79018 L514.49354 495.0214 L508.83894 481.84463 L505.95256 467.79933 L505.95256 453.46051 L508.83894 439.41521 L514.49354 426.23844 L522.68485 414.46967 L533.07752 404.5907 L545.24607 397.00598 L558.69233 392.02603 L572.8658 389.85474 L587.18621 390.58098 L601.06729 394.17505 L613.94075 400.48978 L625.27953 409.26665 L634.61945 420.14635 L641.5781 432.68344 L645.87061 446.36467 L647.32125 460.62992 M668.65147 496.06299 L667.20083 510.32824 L662.90832 524.00947 L655.94966 536.54657 L646.60975 547.42626 L635.27096 556.20314 L622.39751 562.51787 L608.51643 566.11193 L594.19602 566.83818 L580.02255 564.66688 L566.57629 559.68694 L554.40774 552.10222 L544.01507 542.22325 L535.82376 530.45447 L530.16916 517.2777 L527.28278 503.2324 L527.28278 488.89358 L530.16916 474.84828 L535.82376 461.67151 L544.01507 449.90274 L554.40774 440.02377 L566.57629 432.43905 L580.02255 427.4591 L594.19602 425.28781 L608.51643 426.01406 L622.39751 429.60812 L635.27096 435.92285 L646.60975 444.69972 L655.94966 455.57942 L662.90832 468.11651 L667.20083 481.79774 L668.65147 496.06299 M692.05907 531.49606 L690.60844 545.76131 L686.31593 559.44254 L679.35727 571.97964 L670.01736 582.85933 L658.67857 591.63621 L645.80511 597.95094 L631.92403 601.545 L617.60362 602.27125 L603.43015 600.09995 L589.9839 595.12001 L577.81534 587.53529 L567.42267 577.65632 L559.23136 565.88754 L553.57676 552.71077 L550.69038 538.66547 L550.69038 524.32665 L553.57676 510.28135 L559.23136 497.10459 L567.42267 485.33581 L577.81534 475.45684 L589.9839 467.87212 L603.43015 462.89217 L617.60362 460.72088 L631.92403 461.44713 L645.80511 465.04119 L658.67857 471.35592 L670.01736 480.13279 L679.35727 491.01249 L686.31593 503.54959 L690.60844 517.23081 L692.05907 531.49606 M713.80943 566.92913 L712.35879 581.19438 L708.06628 594.87561 L701.10762 607.41271 L691.76771 618.2924 L680.42892 627.06928 L667.55547 633.38401 L653.67439 636.97807 L639.35397 637.70432 L625.18051 635.53302 L611.73425 630.55308 L599.5657 622.96836 L589.17302 613.08939 L580.98171 601.32061 L575.32712 588.14384 L572.44073 574.09854 L572.44073 559.75973 L575.32712 545.71442 L580.98171 532.53766 L589.17302 520.76888 L599.5657 510.88991 L611.73425 503.30519 L625.18051 498.32524 L639.35397 496.15395 L653.67439 496.8802 L667.55547 500.47426 L680.42892 506.78899 L691.76771 515.56587 L701.10762 526.44556 L708.06628 538.98266 L712.35879 552.66388 L713.80943 566.92913 M731.52534 602.3622 L730.0747 616.62745 L725.78219 630.30868 L718.82354 642.84578 L709.48362 653.72547 L698.14484 662.50235 L685.27138 668.81708 L671.3903 672.41114 L657.06989 673.13739 L642.89642 670.9661 L629.45016 665.98615 L617.28161 658.40143 L606.88894 648.52246 L598.69763 636.75368 L593.04303 623.57691 L590.15665 609.53161 L590.15665 595.1928 L593.04303 581.1475 L598.69763 567.97073 L606.88894 556.20195 L617.28161 546.32298 L629.45016 538.73826 L642.89642 533.75831 L657.06989 531.58702 L671.3903 532.31327 L685.27138 535.90733 L698.14484 542.22206 L709.48362 550.99894 L718.82354 561.87863 L725.78219 574.41573 L730.0747 588.09696 L731.52534 602.3622 M743.56418 637.79528 L742.11354 652.06053 L737.82103 665.74175 L730.86237 678.27885 L721.52246 689.15854 L710.18367 697.93542 L697.31022 704.25015 L683.42914 707.84421 L669.10872 708.57046 L654.93526 706.39917 L641.489 701.41922 L629.32045 693.8345 L618.92777 683.95553 L610.73646 672.18675 L605.08187 659.00999 L602.19548 644.96468 L602.19548 630.62587 L605.08187 616.58057 L610.73646 603.4038 L618.92777 591.63502 L629.32045 581.75605 L641.489 574.17133 L654.93526 569.19139 L669.10872 567.02009 L683.42914 567.74634 L697.31022 571.3404 L710.18367 577.65513 L721.52246 586.43201 L730.86237 597.3117 L737.82103 609.8488 L742.11354 623.53003 L743.56418 637.79528 M748.00999 673.22835 L746.55935 687.4936 L742.26684 701.17482 L735.30818 713.71192 L725.96827 724.59161 L714.62948 733.36849 L701.75603 739.68322 L687.87495 743.27728 L673.55453 744.00353 L659.38107 741.83224 L645.93481 736.85229 L633.76626 729.26757 L623.37358 719.3886 L615.18227 707.61982 L609.52768 694.44306 L606.6413 680.39776 L606.6413 666.05894 L609.52768 652.01364 L615.18227 638.83687 L623.37358 627.06809 L633.76626 617.18912 L645.93481 609.6044 L659.38107 604.62446 L673.55453 602.45316 L687.87495 603.17941 L701.75603 606.77347 L714.62948 613.0882 L725.96827 621.86508 L735.30818 632.74477 L742.26684 645.28187 L746.55935 658.9631 L748.00999 673.22835 M742.12954 708.66142 L740.67891 722.92667 L736.3864 736.6079 L729.42774 749.14499 L720.08783 760.02469 L708.74904 768.80156 L695.87558 775.11629 L681.9945 778.71035 L667.67409 779.4366 L653.50062 777.26531 L640.05437 772.28536 L627.88581 764.70064 L617.49314 754.82167 L609.30183 743.05289 L603.64723 729.87613 L600.76085 715.83083 L600.76085 701.49201 L603.64723 687.44671 L609.30183 674.26994 L617.49314 662.50116 L627.88581 652.62219 L640.05437 645.03747 L653.50062 640.05753 L667.67409 637.88623 L681.9945 638.61248 L695.87558 642.20654 L708.74904 648.52127 L720.08783 657.29815 L729.42774 668.17784 L736.3864 680.71494 L740.67891 694.39617 L742.12954 708.66142 M722.83037 744.09449 L721.37974 758.35974 L717.08723 772.04097 L710.12857 784.57806 L700.78866 795.45776 L689.44987 804.23463 L676.57641 810.54936 L662.69533 814.14342 L648.37492 814.86967 L634.20145 812.69838 L620.7552 807.71843 L608.58664 800.13371 L598.19397 790.25474 L590.00266 778.48597 L584.34806 765.3092 L581.46168 751.2639 L581.46168 736.92508 L584.34806 722.87978 L590.00266 709.70301 L598.19397 697.93423 L608.58664 688.05526 L620.7552 680.47054 L634.20145 675.4906 L648.37492 673.3193 L662.69533 674.04555 L676.57641 677.63961 L689.44987 683.95434 L700.78866 692.73122 L710.12857 703.61091 L717.08723 716.14801 L721.37974 729.82924 L722.83037 744.09449 M688.84989 779.52756 L687.39926 793.79281 L683.10675 807.47404 L676.14809 820.01113 L666.80818 830.89083 L655.46939 839.6677 L642.59593 845.98243 L628.71485 849.5765 L614.39444 850.30274 L600.22097 848.13145 L586.77472 843.1515 L574.60616 835.56678 L564.21349 825.68781 L556.02218 813.91904 L550.36758 800.74227 L547.4812 786.69697 L547.4812 772.35815 L550.36758 758.31285 L556.02218 745.13608 L564.21349 733.3673 L574.60616 723.48833 L586.77472 715.90362 L600.22097 710.92367 L614.39444 708.75237 L628.71485 709.47862 L642.59593 713.07268 L655.46939 719.38741 L666.80818 728.16429 L676.14809 739.04398 L683.10675 751.58108 L687.39926 765.26231 L688.84989 779.52756 M644.43743 814.96063 L642.98679 829.22588 L638.69428 842.90711 L631.73562 855.4442 L622.39571 866.3239 L611.05692 875.10077 L598.18347 881.41551 L584.30239 885.00957 L569.98197 885.73582 L555.80851 883.56452 L542.36225 878.58457 L530.1937 870.99986 L519.80103 861.12088 L511.60971 849.35211 L505.95512 836.17534 L503.06874 822.13004 L503.06874 807.79122 L505.95512 793.74592 L511.60971 780.56915 L519.80103 768.80038 L530.1937 758.9214 L542.36225 751.33669 L555.80851 746.35674 L569.98197 744.18544 L584.30239 744.91169 L598.18347 748.50575 L611.05692 754.82049 L622.39571 763.59736 L631.73562 774.47706 L638.69428 787.01415 L642.98679 800.69538 L644.43743 814.96063 M599.84941 850.3937 L598.39877 864.65895 L594.10626 878.34018 L587.14761 890.87728 L577.80769 901.75697 L566.46891 910.53385 L553.59545 916.84858 L539.71437 920.44264 L525.39396 921.16889 L511.22049 918.99759 L497.77423 914.01764 L485.60568 906.43293 L475.21301 896.55396 L467.0217 884.78518 L461.3671 871.60841 L458.48072 857.56311 L458.48072 843.22429 L461.3671 829.17899 L467.0217 816.00222 L475.21301 804.23345 L485.60568 794.35448 L497.77423 786.76976 L511.22049 781.78981 L525.39396 779.61852 L539.71437 780.34476 L553.59545 783.93883 L566.46891 790.25356 L577.80769 799.03043 L587.14761 809.91013 L594.10626 822.44722 L598.39877 836.12845 L599.84941 850.3937 M564.38029 885.82677 L562.92966 900.09202 L558.63715 913.77325 L551.67849 926.31035 L542.33858 937.19004 L530.99979 945.96692 L518.12633 952.28165 L504.24525 955.87571 L489.92484 956.60196 L475.75137 954.43066 L462.30512 949.45072 L450.13656 941.866 L439.74389 931.98703 L431.55258 920.21825 L425.89798 907.04148 L423.0116 892.99618 L423.0116 878.65736 L425.89798 864.61206 L431.55258 851.43529 L439.74389 839.66652 L450.13656 829.78755 L462.30512 822.20283 L475.75137 817.22288 L489.92484 815.05159 L504.24525 815.77784 L518.12633 819.3719 L530.99979 825.68663 L542.33858 834.4635 L551.67849 845.3432 L558.63715 857.88029 L562.92966 871.56152 L564.38029 885.82677 M541.42786 921.25984 L539.97722 935.52509 L535.68471 949.20632 L528.72605 961.74342 L519.38614 972.62311 L508.04735 981.39999 L495.1739 987.71472 L481.29282 991.30878 L466.97241 992.03503 L452.79894 989.86373 L439.35268 984.88379 L427.18413 977.29907 L416.79146 967.4201 L408.60015 955.65132 L402.94555 942.47455 L400.05917 928.42925 L400.05917 914.09043 L402.94555 900.04513 L408.60015 886.86836 L416.79146 875.09959 L427.18413 865.22062 L439.35268 857.6359 L452.79894 852.65595 L466.97241 850.48466 L481.29282 851.21091 L495.1739 854.80497 L508.04735 861.1197 L519.38614 869.89657 L528.72605 880.77627 L535.68471 893.31336 L539.97722 906.99459 L541.42786 921.25984 M530.99352 956.69291 L529.54289 970.95816 L525.25037 984.63939 L518.29172 997.17649 L508.95181 1008.05618 L497.61302 1016.83306 L484.73956 1023.14779 L470.85848 1026.74185 L456.53807 1027.4681 L442.3646 1025.2968 L428.91835 1020.31686 L416.74979 1012.73214 L406.35712 1002.85317 L398.16581 991.08439 L392.51121 977.90762 L389.62483 963.86232 L389.62483 949.5235 L392.51121 935.4782 L398.16581 922.30144 L406.35712 910.53266 L416.74979 900.65369 L428.91835 893.06897 L442.3646 888.08902 L456.53807 885.91773 L470.85848 886.64398 L484.73956 890.23804 L497.61302 896.55277 L508.95181 905.32964 L518.29172 916.20934 L525.25037 928.74644 L529.54289 942.42766 L530.99352 956.69291 M531.62194 992.12598 L530.17131 1006.39123 L525.87879 1020.07246 L518.92014 1032.60956 L509.58023 1043.48925 L498.24144 1052.26613 L485.36798 1058.58086 L471.4869 1062.17492 L457.16649 1062.90117 L442.99302 1060.72987 L429.54677 1055.74993 L417.37821 1048.16521 L406.98554 1038.28624 L398.79423 1026.51746 L393.13963 1013.34069 L390.25325 999.29539 L390.25325 984.95658 L393.13963 970.91127 L398.79423 957.73451 L406.98554 945.96573 L417.37821 936.08676 L429.54677 928.50204 L442.99302 923.52209 L457.16649 921.3508 L471.4869 922.07705 L485.36798 925.67111 L498.24144 931.98584 L509.58023 940.76272 L518.92014 951.64241 L525.87879 964.17951 L530.17131 977.86073 L531.62194 992.12598 M540.31843 1027.55906 L538.86779 1041.8243 L534.57528 1055.50553 L527.61663 1068.04263 L518.27671 1078.92232 L506.93793 1087.6992 L494.06447 1094.01393 L480.18339 1097.60799 L465.86298 1098.33424 L451.68951 1096.16295 L438.24325 1091.183 L426.0747 1083.59828 L415.68203 1073.71931 L407.49072 1061.95053 L401.83612 1048.77376 L398.94974 1034.72846 L398.94974 1020.38965 L401.83612 1006.34435 L407.49072 993.16758 L415.68203 981.3988 L426.0747 971.51983 L438.24325 963.93511 L451.68951 958.95516 L465.86298 956.78387 L480.18339 957.51012 L494.06447 961.10418 L506.93793 967.41891 L518.27671 976.19579 L527.61663 987.07548 L534.57528 999.61258 L538.86779 1013.29381 L540.31843 1027.55906 M552.7901 1062.99213 L551.33947 1077.25738 L547.04696 1090.9386 L540.0883 1103.4757 L530.74839 1114.35539 L519.4096 1123.13227 L506.53614 1129.447 L492.65506 1133.04106 L478.33465 1133.76731 L464.16118 1131.59602 L450.71493 1126.61607 L438.54637 1119.03135 L428.1537 1109.15238 L419.96239 1097.3836 L414.30779 1084.20684 L411.42141 1070.16153 L411.42141 1055.82272 L414.30779 1041.77742 L419.96239 1028.60065 L428.1537 1016.83187 L438.54637 1006.9529 L450.71493 999.36818 L464.16118 994.38824 L478.33465 992.21694 L492.65506 992.94319 L506.53614 996.53725 L519.4096 1002.85198 L530.74839 1011.62886 L540.0883 1022.50855 L547.04696 1035.04565 L551.33947 1048.72688 L552.7901 1062.99213 M564.85626 1098.4252 L563.40562 1112.69045 L559.11311 1126.37167 L552.15445 1138.90877 L542.81454 1149.78847 L531.47575 1158.56534 L518.6023 1164.88007 L504.72122 1168.47413 L490.4008 1169.20038 L476.22734 1167.02909 L462.78108 1162.04914 L450.61253 1154.46442 L440.21985 1144.58545 L432.02854 1132.81667 L426.37395 1119.63991 L423.48756 1105.59461 L423.48756 1091.25579 L426.37395 1077.21049 L432.02854 1064.03372 L440.21985 1052.26494 L450.61253 1042.38597 L462.78108 1034.80125 L476.22734 1029.82131 L490.4008 1027.65001 L504.72122 1028.37626 L518.6023 1031.97032 L531.47575 1038.28505 L542.81454 1047.06193 L552.15445 1057.94162 L559.11311 1070.47872 L563.40562 1084.15995 L564.85626 1098.4252 M768.89764 389.76378 L767.447 404.02903 L763.15449 417.71026 L756.19583 430.24735 L746.85592 441.12705 L735.51713 449.90392 L722.64368 456.21866 L708.7626 459.81272 L694.44218 460.53897 L680.26872 458.36767 L666.82246 453.38772 L654.65391 445.803 L644.26124 435.92403 L636.06992 424.15526 L630.41533 410.97849 L627.52895 396.93319 L627.52895 382.59437 L630.41533 368.54907 L636.06992 355.3723 L644.26124 343.60352 L654.65391 333.72455 L666.82246 326.13984 L680.26872 321.15989 L694.44218 318.98859 L708.7626 319.71484 L722.64368 323.3089 L735.51713 329.62364 L746.85592 338.40051 L756.19583 349.28021 L763.15449 361.8173 L767.447 375.49853 L768.89764 389.76378 M786.9749 425.19685 L785.52426 439.4621 L781.23175 453.14333 L774.27309 465.68042 L764.93318 476.56012 L753.59439 485.33699 L740.72094 491.65173 L726.83986 495.24579 L712.51944 495.97204 L698.34598 493.80074 L684.89972 488.82079 L672.73116 481.23608 L662.33849 471.35711 L654.14718 459.58833 L648.49259 446.41156 L645.6062 432.36626 L645.6062 418.02744 L648.49259 403.98214 L654.14718 390.80537 L662.33849 379.0366 L672.73116 369.15762 L684.89972 361.57291 L698.34598 356.59296 L712.51944 354.42166 L726.83986 355.14791 L740.72094 358.74197 L753.59439 365.05671 L764.93318 373.83358 L774.27309 384.71328 L781.23175 397.25037 L785.52426 410.9316 L786.9749 425.19685 M807.71357 460.62992 L806.26293 474.89517 L801.97042 488.5764 L795.01176 501.1135 L785.67185 511.99319 L774.33306 520.77007 L761.45961 527.0848 L747.57853 530.67886 L733.25811 531.40511 L719.08465 529.23381 L705.63839 524.25387 L693.46984 516.66915 L683.07716 506.79018 L674.88585 495.0214 L669.23126 481.84463 L666.34487 467.79933 L666.34487 453.46051 L669.23126 439.41521 L674.88585 426.23844 L683.07716 414.46967 L693.46984 404.5907 L705.63839 397.00598 L719.08465 392.02603 L733.25811 389.85474 L747.57853 390.58098 L761.45961 394.17505 L774.33306 400.48978 L785.67185 409.26665 L795.01176 420.14635 L801.97042 432.68344 L806.26293 446.36467 L807.71357 460.62992 M831.60477 496.06299 L830.15414 510.32824 L825.86163 524.00947 L818.90297 536.54657 L809.56306 547.42626 L798.22427 556.20314 L785.35082 562.51787 L771.46974 566.11193 L757.14932 566.83818 L742.97586 564.66688 L729.5296 559.68694 L717.36104 552.10222 L706.96837 542.22325 L698.77706 530.45447 L693.12247 517.2777 L690.23608 503.2324 L690.23608 488.89358 L693.12247 474.84828 L698.77706 461.67151 L706.96837 449.90274 L717.36104 440.02377 L729.5296 432.43905 L742.97586 427.4591 L757.14932 425.28781 L771.46974 426.01406 L785.35082 429.60812 L798.22427 435.92285 L809.56306 444.69972 L818.90297 455.57942 L825.86163 468.11651 L830.15414 481.79774 L831.60477 496.06299 M860.07928 531.49606 L858.62865 545.76131 L854.33614 559.44254 L847.37748 571.97964 L838.03757 582.85933 L826.69878 591.63621 L813.82533 597.95094 L799.94424 601.545 L785.62383 602.27125 L771.45036 600.09995 L758.00411 595.12001 L745.83555 587.53529 L735.44288 577.65632 L727.25157 565.88754 L721.59697 552.71077 L718.71059 538.66547 L718.71059 524.32665 L721.59697 510.28135 L727.25157 497.10459 L735.44288 485.33581 L745.83555 475.45684 L758.00411 467.87212 L771.45036 462.89217 L785.62383 460.72088 L799.94424 461.44713 L813.82533 465.04119 L826.69878 471.35592 L838.03757 480.13279 L847.37748 491.01249 L854.33614 503.54959 L858.62865 517.23081 L860.07928 531.49606 M895.54812 566.92913 L894.09748 581.19438 L889.80497 594.87561 L882.84631 607.41271 L873.5064 618.2924 L862.16761 627.06928 L849.29416 633.38401 L835.41308 636.97807 L821.09266 637.70432 L806.9192 635.53302 L793.47294 630.55308 L781.30439 622.96836 L770.91171 613.08939 L762.7204 601.32061 L757.06581 588.14384 L754.17943 574.09854 L754.17943 559.75973 L757.06581 545.71442 L762.7204 532.53766 L770.91171 520.76888 L781.30439 510.88991 L793.47294 503.30519 L806.9192 498.32524 L821.09266 496.15395 L835.41308 496.8802 L849.29416 500.47426 L862.16761 506.78899 L873.5064 515.56587 L882.84631 526.44556 L889.80497 538.98266 L894.09748 552.66388 L895.54812 566.92913 M940.90809 602.3622 L939.45746 616.62745 L935.16494 630.30868 L928.20629 642.84578 L918.86638 653.72547 L907.52759 662.50235 L894.65413 668.81708 L880.77305 672.41114 L866.45264 673.13739 L852.27917 670.9661 L838.83291 665.98615 L826.66436 658.40143 L816.27169 648.52246 L808.08038 636.75368 L802.42578 623.57691 L799.5394 609.53161 L799.5394 595.1928 L802.42578 581.1475 L808.08038 567.97073 L816.27169 556.20195 L826.66436 546.32298 L838.83291 538.73826 L852.27917 533.75831 L866.45264 531.58702 L880.77305 532.31327 L894.65413 535.90733 L907.52759 542.22206 L918.86638 550.99894 L928.20629 561.87863 L935.16494 574.41573 L939.45746 588.09696 L940.90809 602.3622 M997.3897 637.79528 L995.93907 652.06053 L991.64656 665.74175 L984.6879 678.27885 L975.34799 689.15854 L964.0092 697.93542 L951.13574 704.25015 L937.25466 707.84421 L922.93425 708.57046 L908.76078 706.39917 L895.31453 701.41922 L883.14597 693.8345 L872.7533 683.95553 L864.56199 672.18675 L858.90739 659.00999 L856.02101 644.96468 L856.02101 630.62587 L858.90739 616.58057 L864.56199 603.4038 L872.7533 591.63502 L883.14597 581.75605 L895.31453 574.17133 L908.76078 569.19139 L922.93425 567.02009 L937.25466 567.74634 L951.13574 571.3404 L964.0092 577.65513 L975.34799 586.43201 L984.6879 597.3117 L991.64656 609.8488 L995.93907 623.53003 L997.3897 637.79528 M1016.92913 738.44242 L1014.39958 739.68322 L1000.5185 743.27728 L986.19809 744.00353 L972.02462 741.83224 L958.57836 736.85229 L946.40981 729.26757 L936.01714 719.3886 L927.82583 707.61982 L922.17123 694.44306 L919.28485 680.39776 L919.28485 666.05894 L922.17123 652.01364 L927.82583 638.83687 L936.01714 627.06809 L946.40981 617.18912 L958.57836 609.6044 L972.02462 604.62446 L986.19809 602.45316 L1000.5185 603.17941 L1014.39958 606.77347 L1016.92913 608.01428 M1016.92913 773.13875 L1014.62491 772.28536 L1002.45635 764.70064 L992.06368 754.82167 L983.87237 743.05289 L978.21778 729.87613 L975.33139 715.83083 L975.33139 701.49201 L978.21778 687.44671 L983.87237 674.26994 L992.06368 662.50116 L1002.45635 652.62219 L1014.62491 645.03747 L1016.92913 644.18408 M1016.92913 768.49087 L1015.56377 765.3092 L1012.67739 751.2639 L1012.67739 736.92508 L1015.56377 722.87978 L1016.92913 719.6981 M910.62992 389.76378 L909.17929 404.02903 L904.88677 417.71026 L897.92812 430.24735 L888.58821 441.12705 L877.24942 449.90392 L864.37596 456.21866 L850.49488 459.81272 L836.17447 460.53897 L822.001 458.36767 L808.55475 453.38772 L796.38619 445.803 L785.99352 435.92403 L777.80221 424.15526 L772.14761 410.97849 L769.26123 396.93319 L769.26123 382.59437 L772.14761 368.54907 L777.80221 355.3723 L785.99352 343.60352 L796.38619 333.72455 L808.55475 326.13984 L822.001 321.15989 L836.17447 318.98859 L850.49488 319.71484 L864.37596 323.3089 L877.24942 329.62364 L888.58821 338.40051 L897.92812 349.28021 L904.88677 361.8173 L909.17929 375.49853 L910.62992 389.76378 M940.55228 425.19685 L939.10165 439.4621 L934.80914 453.14333 L927.85048 465.68042 L918.51057 476.56012 L907.17178 485.33699 L894.29833 491.65173 L880.41724 495.24579 L866.09683 495.97204 L851.92336 493.80074 L838.47711 488.82079 L826.30855 481.23608 L815.91588 471.35711 L807.72457 459.58833 L802.06997 446.41156 L799.18359 432.36626 L799.18359 418.02744 L802.06997 403.98214 L807.72457 390.80537 L815.91588 379.0366 L826.30855 369.15762 L838.47711 361.57291 L851.92336 356.59296 L866.09683 354.42166 L880.41724 355.14791 L894.29833 358.74197 L907.17178 365.05671 L918.51057 373.83358 L927.85048 384.71328 L934.80914 397.25037 L939.10165 410.9316 L940.55228 425.19685 M967.70807 460.62992 L966.25744 474.89517 L961.96492 488.5764 L955.00627 501.1135 L945.66636 511.99319 L934.32757 520.77007 L921.45411 527.0848 L907.57303 530.67886 L893.25262 531.40511 L879.07915 529.23381 L865.6329 524.25387 L853.46434 516.66915 L843.07167 506.79018 L834.88036 495.0214 L829.22576 481.84463 L826.33938 467.79933 L826.33938 453.46051 L829.22576 439.41521 L834.88036 426.23844 L843.07167 414.46967 L853.46434 404.5907 L865.6329 397.00598 L879.07915 392.02603 L893.25262 389.85474 L907.57303 390.58098 L921.45411 394.17505 L934.32757 400.48978 L945.66636 409.26665 L955.00627 420.14635 L961.96492 432.68344 L966.25744 446.36467 L967.70807 460.62992 M995.40561 496.06299 L993.95497 510.32824 L989.66246 524.00947 L982.7038 536.54657 L973.36389 547.42626 L962.0251 556.20314 L949.15165 562.51787 L935.27057 566.11193 L920.95015 566.83818 L906.77669 564.66688 L893.33043 559.68694 L881.16188 552.10222 L870.76921 542.22325 L862.57789 530.45447 L856.9233 517.2777 L854.03692 503.2324 L854.03692 488.89358 L856.9233 474.84828 L862.57789 461.67151 L870.76921 449.90274 L881.16188 440.02377 L893.33043 432.43905 L906.77669 427.4591 L920.95015 425.28781 L935.27057 426.01406 L949.15165 429.60812 L962.0251 435.92285 L973.36389 444.69972 L982.7038 455.57942 L989.66246 468.11651 L993.95497 481.79774 L995.40561 496.06299 M1016.92913 566.39976 L1013.83205 571.97964 L1004.49214 582.85933 L993.15335 591.63621 L980.27989 597.95094 L966.39881 601.545 L952.0784 602.27125 L937.90493 600.09995 L924.45868 595.12001 L912.29012 587.53529 L901.89745 577.65632 L893.70614 565.88754 L888.05154 552.71077 L885.16516 538.66547 L885.16516 524.32665 L888.05154 510.28135 L893.70614 497.10459 L901.89745 485.33581 L912.29012 475.45684 L924.45868 467.87212 L937.90493 462.89217 L952.0784 460.72088 L966.39881 461.44713 L980.27989 465.04119 L993.15335 471.35592 L1004.49214 480.13279 L1013.83205 491.01249 L1016.92913 496.59237 M1016.92913 632.4951 L1015.11697 633.38401 L1001.23589 636.97807 L986.91548 637.70432 L972.74201 635.53302 L959.29575 630.55308 L947.1272 622.96836 L936.73453 613.08939 L928.54321 601.32061 L922.88862 588.14384 L920.00224 574.09854 L920.00224 559.75973 L922.88862 545.71442 L928.54321 532.53766 L936.73453 520.76888 L947.1272 510.88991 L959.29575 503.30519 L972.74201 498.32524 L986.91548 496.15395 L1001.23589 496.8802 L1015.11697 500.47426 L1016.92913 501.36317 M1016.92913 672.42321 L1007.41757 670.9661 L993.97131 665.98615 L981.80276 658.40143 L971.41009 648.52246 L963.21878 636.75368 L957.56418 623.57691 L954.6778 609.53161 L954.6778 595.1928 L957.56418 581.1475 L963.21878 567.97073 L971.41009 556.20195 L981.80276 546.32298 L993.97131 538.73826 L1007.41757 533.75831 L1016.92913 532.3012 M1016.92913 697.53317 L1010.99517 693.8345 L1000.6025 683.95553 L992.41119 672.18675 L986.75659 659.00999 L983.87021 644.96468 L983.87021 630.62587 L986.75659 616.58057 L992.41119 603.4038 L1000.6025 591.63502 L1010.99517 581.75605 L1016.92913 578.05738 M1016.92913 710.97021 L1014.5972 707.61982 L1008.9426 694.44306 L1006.05622 680.39776 L1006.05622 666.05894 L1008.9426 652.01364 L1014.5972 638.83687 L1016.92913 635.48648" fill="none" stroke="black" stroke-width="0.03cm" />
    </g>
</svg>