<?xml version="1.0" standalone="no"?>
  <!DOCTYPE svg PUBLIC "-//W3C//DTD SVG 1.1//EN" 
      "http://www.w3.org/Graphics/SVG/1.1/DTD/svg11.dtd">
  <svg width="29.7cm" height="42cm"
      xmlns="http://www.w3.org/2000/svg" version="1.1" viewBox="0 0 1052.3622 1488.18898">
    <g>
      <path d="M354.33071 389.76378 L352.27147 406.72316 L346.21342 422.69692 L336.50864 436.75672 L323.72112 448.08547 L308.59405 456.02477 L292.00654 460.11323 L274.9226 460.11323 L258.33509 456.02477 L243.20801 448.08547 L230.4205 436.75672 L220.71571 422.69692 L214.65767 406.72316 L212.59843 389.76378 L214.65767 372.8044 L220.71571 356.83064 L230.4205 342.77084 L243.20801 331.44209 L258.33509 323.50279 L274.9226 319.41433 L292.00654 319.41433 L308.59405 323.50279 L323.72112 331.44209 L336.50864 342.77084 L346.21342 356.83064 L352.27147 372.8044 L354.33071 389.76378 M359.64897 425.19685 L357.58972 442.15623 L351.53168 458.12999 L341.82689 472.18979 L329.03938 483.51854 L313.9123 491.45784 L297.32479 495.5463 L280.24085 495.5463 L263.65334 491.45784 L248.52627 483.51854 L235.73876 472.18979 L226.03397 458.12999 L219.97592 442.15623 L217.91668 425.19685 L219.97592 408.23747 L226.03397 392.26371 L235.73876 378.20391 L248.52627 366.87516 L263.65334 358.93586 L280.24085 354.8474 L297.32479 354.8474 L313.9123 358.93586 L329.03938 366.87516 L341.82689 378.20391 L351.53168 392.26371 L357.58972 408.23747 L359.64897 425.19685 M364.50249 460.62992 L362.44325 477.5893 L356.3852 493.56306 L346.68041 507.62287 L333.8929 518.95161 L318.76583 526.89091 L302.17831 530.97937 L285.09438 530.97937 L268.50687 526.89091 L253.37979 518.95161 L240.59228 507.62287 L230.88749 493.56306 L224.82944 477.5893 L222.7702 460.62992 L224.82944 443.67054 L230.88749 427.69678 L240.59228 413.63698 L253.37979 402.30823 L268.50687 394.36893 L285.09438 390.28047 L302.17831 390.28047 L318.76583 394.36893 L333.8929 402.30823 L346.68041 413.63698 L356.3852 427.69678 L362.44325 443.67054 L364.50249 460.62992 M367.97951 496.06299 L365.92027 513.02237 L359.86222 528.99613 L350.15744 543.05594 L337.36993 554.38468 L322.24285 562.32399 L305.65534 566.41244 L288.5714 566.41244 L271.98389 562.32399 L256.85681 554.38468 L244.0693 543.05594 L234.36452 528.99613 L228.30647 513.02237 L226.24723 496.06299 L228.30647 479.10361 L234.36452 463.12985 L244.0693 449.07005 L256.85681 437.7413 L271.98389 429.802 L288.5714 425.71354 L305.65534 425.71354 L322.24285 429.802 L337.36993 437.7413 L350.15744 449.07005 L359.86222 463.12985 L365.92027 479.10361 L367.97951 496.06299 M370.08827 531.49606 L368.02903 548.45544 L361.97098 564.4292 L352.2662 578.48901 L339.47869 589.81775 L324.35161 597.75706 L307.7641 601.84551 L290.68016 601.84551 L274.09265 597.75706 L258.96557 589.81775 L246.17806 578.48901 L236.47328 564.4292 L230.41523 548.45544 L228.35599 531.49606 L230.41523 514.53669 L236.47328 498.56292 L246.17806 484.50312 L258.96557 473.17437 L274.09265 465.23507 L290.68016 461.14662 L307.7641 461.14662 L324.35161 465.23507 L339.47869 473.17437 L352.2662 484.50312 L361.97098 498.56292 L368.02903 514.53669 L370.08827 531.49606 M371.57093 566.92913 L369.51169 583.88851 L363.45364 599.86227 L353.74885 613.92208 L340.96134 625.25083 L325.83426 633.19013 L309.24675 637.27858 L292.16282 637.27858 L275.5753 633.19013 L260.44823 625.25083 L247.66072 613.92208 L237.95593 599.86227 L231.89788 583.88851 L229.83864 566.92913 L231.89788 549.96976 L237.95593 533.996 L247.66072 519.93619 L260.44823 508.60744 L275.5753 500.66814 L292.16282 496.57969 L309.24675 496.57969 L325.83426 500.66814 L340.96134 508.60744 L353.74885 519.93619 L363.45364 533.996 L369.51169 549.96976 L371.57093 566.92913 M373.2689 602.3622 L371.20966 619.32158 L365.15161 635.29534 L355.44683 649.35515 L342.65932 660.6839 L327.53224 668.6232 L310.94473 672.71165 L293.86079 672.71165 L277.27328 668.6232 L262.1462 660.6839 L249.35869 649.35515 L239.65391 635.29534 L233.59586 619.32158 L231.53662 602.3622 L233.59586 585.40283 L239.65391 569.42907 L249.35869 555.36926 L262.1462 544.04051 L277.27328 536.10121 L293.86079 532.01276 L310.94473 532.01276 L327.53224 536.10121 L342.65932 544.04051 L355.44683 555.36926 L365.15161 569.42907 L371.20966 585.40283 L373.2689 602.3622 M375.47176 637.79528 L373.41252 654.75465 L367.35447 670.72841 L357.64968 684.78822 L344.86217 696.11697 L329.7351 704.05627 L313.14758 708.14472 L296.06365 708.14472 L279.47614 704.05627 L264.34906 696.11697 L251.56155 684.78822 L241.85676 670.72841 L235.79871 654.75465 L233.73947 637.79528 L235.79871 620.8359 L241.85676 604.86214 L251.56155 590.80233 L264.34906 579.47358 L279.47614 571.53428 L296.06365 567.44583 L313.14758 567.44583 L329.7351 571.53428 L344.86217 579.47358 L357.64968 590.80233 L367.35447 604.86214 L373.41252 620.8359 L375.47176 637.79528 M377.88743 673.22835 L375.82819 690.18772 L369.77014 706.16148 L360.06536 720.22129 L347.27784 731.55004 L332.15077 739.48934 L315.56326 743.57779 L298.47932 743.57779 L281.89181 739.48934 L266.76473 731.55004 L253.97722 720.22129 L244.27243 706.16148 L238.21439 690.18772 L236.15514 673.22835 L238.21439 656.26897 L244.27243 640.29521 L253.97722 626.2354 L266.76473 614.90666 L281.89181 606.96735 L298.47932 602.8789 L315.56326 602.8789 L332.15077 606.96735 L347.27784 614.90666 L360.06536 626.2354 L369.77014 640.29521 L375.82819 656.26897 L377.88743 673.22835 M380.10221 708.66142 L378.04297 725.6208 L371.98492 741.59456 L362.28014 755.65436 L349.49263 766.98311 L334.36555 774.92241 L317.77804 779.01087 L300.6941 779.01087 L284.10659 774.92241 L268.97951 766.98311 L256.192 755.65436 L246.48722 741.59456 L240.42917 725.6208 L238.36993 708.66142 L240.42917 691.70204 L246.48722 675.72828 L256.192 661.66847 L268.97951 650.33973 L284.10659 642.40042 L300.6941 638.31197 L317.77804 638.31197 L334.36555 642.40042 L349.49263 650.33973 L362.28014 661.66847 L371.98492 675.72828 L378.04297 691.70204 L380.10221 708.66142 M381.83249 744.09449 L379.77325 761.05387 L373.7152 777.02763 L364.01042 791.08743 L351.22291 802.41618 L336.09583 810.35548 L319.50832 814.44394 L302.42438 814.44394 L285.83687 810.35548 L270.7098 802.41618 L257.92228 791.08743 L248.2175 777.02763 L242.15945 761.05387 L240.10021 744.09449 L242.15945 727.13511 L248.2175 711.16135 L257.92228 697.10154 L270.7098 685.7728 L285.83687 677.83349 L302.42438 673.74504 L319.50832 673.74504 L336.09583 677.83349 L351.22291 685.7728 L364.01042 697.10154 L373.7152 711.16135 L379.77325 727.13511 L381.83249 744.09449 M383.33325 779.52756 L381.27401 796.48694 L375.21596 812.4607 L365.51118 826.5205 L352.72367 837.84925 L337.59659 845.78855 L321.00908 849.87701 L303.92514 849.87701 L287.33763 845.78855 L272.21055 837.84925 L259.42304 826.5205 L249.71826 812.4607 L243.66021 796.48694 L241.60097 779.52756 L243.66021 762.56818 L249.71826 746.59442 L259.42304 732.53461 L272.21055 721.20587 L287.33763 713.26657 L303.92514 709.17811 L321.00908 709.17811 L337.59659 713.26657 L352.72367 721.20587 L365.51118 732.53461 L375.21596 746.59442 L381.27401 762.56818 L383.33325 779.52756 M385.435 814.96063 L383.37575 831.92001 L377.31771 847.89377 L367.61292 861.95357 L354.82541 873.28232 L339.69833 881.22162 L323.11082 885.31008 L306.02688 885.31008 L289.43937 881.22162 L274.3123 873.28232 L261.52479 861.95357 L251.82 847.89377 L245.76195 831.92001 L243.70271 814.96063 L245.76195 798.00125 L251.82 782.02749 L261.52479 767.96769 L274.3123 756.63894 L289.43937 748.69964 L306.02688 744.61118 L323.11082 744.61118 L339.69833 748.69964 L354.82541 756.63894 L367.61292 767.96769 L377.31771 782.02749 L383.37575 798.00125 L385.435 814.96063 M388.58131 850.3937 L386.52207 867.35308 L380.46403 883.32684 L370.75924 897.38665 L357.97173 908.71539 L342.84465 916.65469 L326.25714 920.74315 L309.1732 920.74315 L292.58569 916.65469 L277.45862 908.71539 L264.6711 897.38665 L254.96632 883.32684 L248.90827 867.35308 L246.84903 850.3937 L248.90827 833.43432 L254.96632 817.46056 L264.6711 803.40076 L277.45862 792.07201 L292.58569 784.13271 L309.1732 780.04425 L326.25714 780.04425 L342.84465 784.13271 L357.97173 792.07201 L370.75924 803.40076 L380.46403 817.46056 L386.52207 833.43432 L388.58131 850.3937 M392.20558 885.82677 L390.14634 902.78615 L384.08829 918.75991 L374.38351 932.81972 L361.596 944.14846 L346.46892 952.08777 L329.88141 956.17622 L312.79747 956.17622 L296.20996 952.08777 L281.08288 944.14846 L268.29537 932.81972 L258.59059 918.75991 L252.53254 902.78615 L250.4733 885.82677 L252.53254 868.86739 L258.59059 852.89363 L268.29537 838.83383 L281.08288 827.50508 L296.20996 819.56578 L312.79747 815.47732 L329.88141 815.47732 L346.46892 819.56578 L361.596 827.50508 L374.38351 838.83383 L384.08829 852.89363 L390.14634 868.86739 L392.20558 885.82677 M394.99692 921.25984 L392.93767 938.21922 L386.87963 954.19298 L377.17484 968.25279 L364.38733 979.58153 L349.26025 987.52084 L332.67274 991.60929 L315.5888 991.60929 L299.00129 987.52084 L283.87422 979.58153 L271.0867 968.25279 L261.38192 954.19298 L255.32387 938.21922 L253.26463 921.25984 L255.32387 904.30046 L261.38192 888.3267 L271.0867 874.2669 L283.87422 862.93815 L299.00129 854.99885 L315.5888 850.91039 L332.67274 850.91039 L349.26025 854.99885 L364.38733 862.93815 L377.17484 874.2669 L386.87963 888.3267 L392.93767 904.30046 L394.99692 921.25984 M395.7749 956.69291 L393.71565 973.65229 L387.65761 989.62605 L377.95282 1003.68586 L365.16531 1015.0146 L350.03823 1022.95391 L333.45072 1027.04236 L316.36678 1027.04236 L299.77927 1022.95391 L284.6522 1015.0146 L271.86469 1003.68586 L262.1599 989.62605 L256.10185 973.65229 L254.04261 956.69291 L256.10185 939.73354 L262.1599 923.75978 L271.86469 909.69997 L284.6522 898.37122 L299.77927 890.43192 L316.36678 886.34347 L333.45072 886.34347 L350.03823 890.43192 L365.16531 898.37122 L377.95282 909.69997 L387.65761 923.75978 L393.71565 939.73354 L395.7749 956.69291 M394.26742 992.12598 L392.20818 1009.08536 L386.15013 1025.05912 L376.44535 1039.11893 L363.65784 1050.44768 L348.53076 1058.38698 L331.94325 1062.47543 L314.85931 1062.47543 L298.2718 1058.38698 L283.14472 1050.44768 L270.35721 1039.11893 L260.65243 1025.05912 L254.59438 1009.08536 L252.53514 992.12598 L254.59438 975.16661 L260.65243 959.19285 L270.35721 945.13304 L283.14472 933.80429 L298.2718 925.86499 L314.85931 921.77654 L331.94325 921.77654 L348.53076 925.86499 L363.65784 933.80429 L376.44535 945.13304 L386.15013 959.19285 L392.20818 975.16661 L394.26742 992.12598 M391.35926 1027.55906 L389.30002 1044.51843 L383.24197 1060.49219 L373.53719 1074.552 L360.74968 1085.88075 L345.6226 1093.82005 L329.03509 1097.9085 L311.95115 1097.9085 L295.36364 1093.82005 L280.23656 1085.88075 L267.44905 1074.552 L257.74427 1060.49219 L251.68622 1044.51843 L249.62698 1027.55906 L251.68622 1010.59968 L257.74427 994.62592 L267.44905 980.56611 L280.23656 969.23736 L295.36364 961.29806 L311.95115 957.20961 L329.03509 957.20961 L345.6226 961.29806 L360.74968 969.23736 L373.53719 980.56611 L383.24197 994.62592 L389.30002 1010.59968 L391.35926 1027.55906 M388.53194 1062.99213 L386.4727 1079.9515 L380.41465 1095.92526 L370.70987 1109.98507 L357.92235 1121.31382 L342.79528 1129.25312 L326.20777 1133.34157 L309.12383 1133.34157 L292.53632 1129.25312 L277.40924 1121.31382 L264.62173 1109.98507 L254.91694 1095.92526 L248.8589 1079.9515 L246.79966 1062.99213 L248.8589 1046.03275 L254.91694 1030.05899 L264.62173 1015.99918 L277.40924 1004.67043 L292.53632 996.73113 L309.12383 992.64268 L326.20777 992.64268 L342.79528 996.73113 L357.92235 1004.67043 L370.70987 1015.99918 L380.41465 1030.05899 L386.4727 1046.03275 L388.53194 1062.99213 M387.08172 1098.4252 L385.02248 1115.38457 L378.96443 1131.35834 L369.25965 1145.41814 L356.47214 1156.74689 L341.34506 1164.68619 L324.75755 1168.77464 L307.67361 1168.77464 L291.0861 1164.68619 L275.95902 1156.74689 L263.17151 1145.41814 L253.46673 1131.35834 L247.40868 1115.38457 L245.34944 1098.4252 L247.40868 1081.46582 L253.46673 1065.49206 L263.17151 1051.43225 L275.95902 1040.10351 L291.0861 1032.1642 L307.67361 1028.07575 L324.75755 1028.07575 L341.34506 1032.1642 L356.47214 1040.10351 L369.25965 1051.43225 L378.96443 1065.49206 L385.02248 1081.46582 L387.08172 1098.4252 M496.06299 389.76378 L494.00375 406.72316 L487.9457 422.69692 L478.24092 436.75672 L465.45341 448.08547 L450.32633 456.02477 L433.73882 460.11323 L416.65488 460.11323 L400.06737 456.02477 L384.94029 448.08547 L372.15278 436.75672 L362.448 422.69692 L356.38995 406.72316 L354.33071 389.76378 L356.38995 372.8044 L362.448 356.83064 L372.15278 342.77084 L384.94029 331.44209 L400.06737 323.50279 L416.65488 319.41433 L433.73882 319.41433 L450.32633 323.50279 L465.45341 331.44209 L478.24092 342.77084 L487.9457 356.83064 L494.00375 372.8044 L496.06299 389.76378 M494.70408 425.19685 L492.64484 442.15623 L486.58679 458.12999 L476.88201 472.18979 L464.09449 483.51854 L448.96742 491.45784 L432.37991 495.5463 L415.29597 495.5463 L398.70846 491.45784 L383.58138 483.51854 L370.79387 472.18979 L361.08908 458.12999 L355.03104 442.15623 L352.97179 425.19685 L355.03104 408.23747 L361.08908 392.26371 L370.79387 378.20391 L383.58138 366.87516 L398.70846 358.93586 L415.29597 354.8474 L432.37991 354.8474 L448.96742 358.93586 L464.09449 366.87516 L476.88201 378.20391 L486.58679 392.26371 L492.64484 408.23747 L494.70408 425.19685 M493.63772 460.62992 L491.57848 477.5893 L485.52043 493.56306 L475.81565 507.62287 L463.02814 518.95161 L447.90106 526.89091 L431.31355 530.97937 L414.22961 530.97937 L397.6421 526.89091 L382.51502 518.95161 L369.72751 507.62287 L360.02273 493.56306 L353.96468 477.5893 L351.90544 460.62992 L353.96468 443.67054 L360.02273 427.69678 L369.72751 413.63698 L382.51502 402.30823 L397.6421 394.36893 L414.22961 390.28047 L431.31355 390.28047 L447.90106 394.36893 L463.02814 402.30823 L475.81565 413.63698 L485.52043 427.69678 L491.57848 443.67054 L493.63772 460.62992 M492.89251 496.06299 L490.83327 513.02237 L484.77522 528.99613 L475.07044 543.05594 L462.28293 554.38468 L447.15585 562.32399 L430.56834 566.41244 L413.4844 566.41244 L396.89689 562.32399 L381.76981 554.38468 L368.9823 543.05594 L359.27752 528.99613 L353.21947 513.02237 L351.16023 496.06299 L353.21947 479.10361 L359.27752 463.12985 L368.9823 449.07005 L381.76981 437.7413 L396.89689 429.802 L413.4844 425.71354 L430.56834 425.71354 L447.15585 429.802 L462.28293 437.7413 L475.07044 449.07005 L484.77522 463.12985 L490.83327 479.10361 L492.89251 496.06299 M492.18181 531.49606 L490.12257 548.45544 L484.06452 564.4292 L474.35974 578.48901 L461.57222 589.81775 L446.44515 597.75706 L429.85764 601.84551 L412.7737 601.84551 L396.18619 597.75706 L381.05911 589.81775 L368.2716 578.48901 L358.56682 564.4292 L352.50877 548.45544 L350.44953 531.49606 L352.50877 514.53669 L358.56682 498.56292 L368.2716 484.50312 L381.05911 473.17437 L396.18619 465.23507 L412.7737 461.14662 L429.85764 461.14662 L446.44515 465.23507 L461.57222 473.17437 L474.35974 484.50312 L484.06452 498.56292 L490.12257 514.53669 L492.18181 531.49606 M490.99003 566.92913 L488.93079 583.88851 L482.87274 599.86227 L473.16796 613.92208 L460.38044 625.25083 L445.25337 633.19013 L428.66586 637.27858 L411.58192 637.27858 L394.99441 633.19013 L379.86733 625.25083 L367.07982 613.92208 L357.37503 599.86227 L351.31699 583.88851 L349.25775 566.92913 L351.31699 549.96976 L357.37503 533.996 L367.07982 519.93619 L379.86733 508.60744 L394.99441 500.66814 L411.58192 496.57969 L428.66586 496.57969 L445.25337 500.66814 L460.38044 508.60744 L473.16796 519.93619 L482.87274 533.996 L488.93079 549.96976 L490.99003 566.92913 M488.81554 602.3622 L486.7563 619.32158 L480.69825 635.29534 L470.99347 649.35515 L458.20596 660.6839 L443.07888 668.6232 L426.49137 672.71165 L409.40743 672.71165 L392.81992 668.6232 L377.69284 660.6839 L364.90533 649.35515 L355.20055 635.29534 L349.1425 619.32158 L347.08326 602.3622 L349.1425 585.40283 L355.20055 569.42907 L364.90533 555.36926 L377.69284 544.04051 L392.81992 536.10121 L409.40743 532.01276 L426.49137 532.01276 L443.07888 536.10121 L458.20596 544.04051 L470.99347 555.36926 L480.69825 569.42907 L486.7563 585.40283 L488.81554 602.3622 M485.44258 637.79528 L483.38334 654.75465 L477.32529 670.72841 L467.62051 684.78822 L454.833 696.11697 L439.70592 704.05627 L423.11841 708.14472 L406.03447 708.14472 L389.44696 704.05627 L374.31988 696.11697 L361.53237 684.78822 L351.82759 670.72841 L345.76954 654.75465 L343.7103 637.79528 L345.76954 620.8359 L351.82759 604.86214 L361.53237 590.80233 L374.31988 579.47358 L389.44696 571.53428 L406.03447 567.44583 L423.11841 567.44583 L439.70592 571.53428 L454.833 579.47358 L467.62051 590.80233 L477.32529 604.86214 L483.38334 620.8359 L485.44258 637.79528 M481.17799 673.22835 L479.11875 690.18772 L473.0607 706.16148 L463.35591 720.22129 L450.5684 731.55004 L435.44133 739.48934 L418.85382 743.57779 L401.76988 743.57779 L385.18237 739.48934 L370.05529 731.55004 L357.26778 720.22129 L347.56299 706.16148 L341.50495 690.18772 L339.4457 673.22835 L341.50495 656.26897 L347.56299 640.29521 L357.26778 626.2354 L370.05529 614.90666 L385.18237 606.96735 L401.76988 602.8789 L418.85382 602.8789 L435.44133 606.96735 L450.5684 614.90666 L463.35591 626.2354 L473.0607 640.29521 L479.11875 656.26897 L481.17799 673.22835 M476.83948 708.66142 L474.78024 725.6208 L468.72219 741.59456 L459.01741 755.65436 L446.22989 766.98311 L431.10282 774.92241 L414.51531 779.01087 L397.43137 779.01087 L380.84386 774.92241 L365.71678 766.98311 L352.92927 755.65436 L343.22448 741.59456 L337.16644 725.6208 L335.10719 708.66142 L337.16644 691.70204 L343.22448 675.72828 L352.92927 661.66847 L365.71678 650.33973 L380.84386 642.40042 L397.43137 638.31197 L414.51531 638.31197 L431.10282 642.40042 L446.22989 650.33973 L459.01741 661.66847 L468.72219 675.72828 L474.78024 691.70204 L476.83948 708.66142 M473.46685 744.09449 L471.40761 761.05387 L465.34956 777.02763 L455.64478 791.08743 L442.85727 802.41618 L427.73019 810.35548 L411.14268 814.44394 L394.05874 814.44394 L377.47123 810.35548 L362.34415 802.41618 L349.55664 791.08743 L339.85186 777.02763 L333.79381 761.05387 L331.73457 744.09449 L333.79381 727.13511 L339.85186 711.16135 L349.55664 697.10154 L362.34415 685.7728 L377.47123 677.83349 L394.05874 673.74504 L411.14268 673.74504 L427.73019 677.83349 L442.85727 685.7728 L455.64478 697.10154 L465.34956 711.16135 L471.40761 727.13511 L473.46685 744.09449 M471.83046 779.52756 L469.77122 796.48694 L463.71317 812.4607 L454.00839 826.5205 L441.22088 837.84925 L426.0938 845.78855 L409.50629 849.87701 L392.42235 849.87701 L375.83484 845.78855 L360.70776 837.84925 L347.92025 826.5205 L338.21547 812.4607 L332.15742 796.48694 L330.09818 779.52756 L332.15742 762.56818 L338.21547 746.59442 L347.92025 732.53461 L360.70776 721.20587 L375.83484 713.26657 L392.42235 709.17811 L409.50629 709.17811 L426.0938 713.26657 L441.22088 721.20587 L454.00839 732.53461 L463.71317 746.59442 L469.77122 762.56818 L471.83046 779.52756 M472.30091 814.96063 L470.24166 831.92001 L464.18362 847.89377 L454.47883 861.95357 L441.69132 873.28232 L426.56424 881.22162 L409.97673 885.31008 L392.89279 885.31008 L376.30528 881.22162 L361.17821 873.28232 L348.3907 861.95357 L338.68591 847.89377 L332.62786 831.92001 L330.56862 814.96063 L332.62786 798.00125 L338.68591 782.02749 L348.3907 767.96769 L361.17821 756.63894 L376.30528 748.69964 L392.89279 744.61118 L409.97673 744.61118 L426.56424 748.69964 L441.69132 756.63894 L454.47883 767.96769 L464.18362 782.02749 L470.24166 798.00125 L472.30091 814.96063 M474.77712 850.3937 L472.71788 867.35308 L466.65983 883.32684 L456.95504 897.38665 L444.16753 908.71539 L429.04046 916.65469 L412.45294 920.74315 L395.36901 920.74315 L378.7815 916.65469 L363.65442 908.71539 L350.86691 897.38665 L341.16212 883.32684 L335.10407 867.35308 L333.04483 850.3937 L335.10407 833.43432 L341.16212 817.46056 L350.86691 803.40076 L363.65442 792.07201 L378.7815 784.13271 L395.36901 780.04425 L412.45294 780.04425 L429.04046 784.13271 L444.16753 792.07201 L456.95504 803.40076 L466.65983 817.46056 L472.71788 833.43432 L474.77712 850.3937 M478.41653 885.82677 L476.35728 902.78615 L470.29924 918.75991 L460.59445 932.81972 L447.80694 944.14846 L432.67986 952.08777 L416.09235 956.17622 L399.00841 956.17622 L382.4209 952.08777 L367.29383 944.14846 L354.50631 932.81972 L344.80153 918.75991 L338.74348 902.78615 L336.68424 885.82677 L338.74348 868.86739 L344.80153 852.89363 L354.50631 838.83383 L367.29383 827.50508 L382.4209 819.56578 L399.00841 815.47732 L416.09235 815.47732 L432.67986 819.56578 L447.80694 827.50508 L460.59445 838.83383 L470.29924 852.89363 L476.35728 868.86739 L478.41653 885.82677 M481.97019 921.25984 L479.91095 938.21922 L473.8529 954.19298 L464.14812 968.25279 L451.36061 979.58153 L436.23353 987.52084 L419.64602 991.60929 L402.56208 991.60929 L385.97457 987.52084 L370.84749 979.58153 L358.05998 968.25279 L348.3552 954.19298 L342.29715 938.21922 L340.23791 921.25984 L342.29715 904.30046 L348.3552 888.3267 L358.05998 874.2669 L370.84749 862.93815 L385.97457 854.99885 L402.56208 850.91039 L419.64602 850.91039 L436.23353 854.99885 L451.36061 862.93815 L464.14812 874.2669 L473.8529 888.3267 L479.91095 904.30046 L481.97019 921.25984 M484.49802 956.69291 L482.43878 973.65229 L476.38073 989.62605 L466.67595 1003.68586 L453.88844 1015.0146 L438.76136 1022.95391 L422.17385 1027.04236 L405.08991 1027.04236 L388.5024 1022.95391 L373.37532 1015.0146 L360.58781 1003.68586 L350.88303 989.62605 L344.82498 973.65229 L342.76574 956.69291 L344.82498 939.73354 L350.88303 923.75978 L360.58781 909.69997 L373.37532 898.37122 L388.5024 890.43192 L405.08991 886.34347 L422.17385 886.34347 L438.76136 890.43192 L453.88844 898.37122 L466.67595 909.69997 L476.38073 923.75978 L482.43878 939.73354 L484.49802 956.69291 M486.16496 992.12598 L484.10572 1009.08536 L478.04767 1025.05912 L468.34289 1039.11893 L455.55538 1050.44768 L440.4283 1058.38698 L423.84079 1062.47543 L406.75685 1062.47543 L390.16934 1058.38698 L375.04226 1050.44768 L362.25475 1039.11893 L352.54997 1025.05912 L346.49192 1009.08536 L344.43268 992.12598 L346.49192 975.16661 L352.54997 959.19285 L362.25475 945.13304 L375.04226 933.80429 L390.16934 925.86499 L406.75685 921.77654 L423.84079 921.77654 L440.4283 925.86499 L455.55538 933.80429 L468.34289 945.13304 L478.04767 959.19285 L484.10572 975.16661 L486.16496 992.12598 M488.1523 1027.55906 L486.09306 1044.51843 L480.03501 1060.49219 L470.33023 1074.552 L457.54272 1085.88075 L442.41564 1093.82005 L425.82813 1097.9085 L408.74419 1097.9085 L392.15668 1093.82005 L377.02961 1085.88075 L364.24209 1074.552 L354.53731 1060.49219 L348.47926 1044.51843 L346.42002 1027.55906 L348.47926 1010.59968 L354.53731 994.62592 L364.24209 980.56611 L377.02961 969.23736 L392.15668 961.29806 L408.74419 957.20961 L425.82813 957.20961 L442.41564 961.29806 L457.54272 969.23736 L470.33023 980.56611 L480.03501 994.62592 L486.09306 1010.59968 L488.1523 1027.55906 M491.31493 1062.99213 L489.25569 1079.9515 L483.19764 1095.92526 L473.49286 1109.98507 L460.70534 1121.31382 L445.57827 1129.25312 L428.99076 1133.34157 L411.90682 1133.34157 L395.31931 1129.25312 L380.19223 1121.31382 L367.40472 1109.98507 L357.69994 1095.92526 L351.64189 1079.9515 L349.58265 1062.99213 L351.64189 1046.03275 L357.69994 1030.05899 L367.40472 1015.99918 L380.19223 1004.67043 L395.31931 996.73113 L411.90682 992.64268 L428.99076 992.64268 L445.57827 996.73113 L460.70534 1004.67043 L473.49286 1015.99918 L483.19764 1030.05899 L489.25569 1046.03275 L491.31493 1062.99213 M495.1339 1098.4252 L493.07466 1115.38457 L487.01661 1131.35834 L477.31182 1145.41814 L464.52431 1156.74689 L449.39723 1164.68619 L432.80972 1168.77464 L415.72579 1168.77464 L399.13827 1164.68619 L384.0112 1156.74689 L371.22369 1145.41814 L361.5189 1131.35834 L355.46085 1115.38457 L353.40161 1098.4252 L355.46085 1081.46582 L361.5189 1065.49206 L371.22369 1051.43225 L384.0112 1040.10351 L399.13827 1032.1642 L415.72579 1028.07575 L432.80972 1028.07575 L449.39723 1032.1642 L464.52431 1040.10351 L477.31182 1051.43225 L487.01661 1065.49206 L493.07466 1081.46582 L495.1339 1098.4252 M637.79528 389.76378 L635.73603 406.72316 L629.67799 422.69692 L619.9732 436.75672 L607.18569 448.08547 L592.05861 456.02477 L575.4711 460.11323 L558.38716 460.11323 L541.79965 456.02477 L526.67258 448.08547 L513.88507 436.75672 L504.18028 422.69692 L498.12223 406.72316 L496.06299 389.76378 L498.12223 372.8044 L504.18028 356.83064 L513.88507 342.77084 L526.67258 331.44209 L541.79965 323.50279 L558.38716 319.41433 L575.4711 319.41433 L592.05861 323.50279 L607.18569 331.44209 L619.9732 342.77084 L629.67799 356.83064 L635.73603 372.8044 L637.79528 389.76378 M636.13037 425.19685 L634.07113 442.15623 L628.01308 458.12999 L618.3083 472.18979 L605.52079 483.51854 L590.39371 491.45784 L573.8062 495.5463 L556.72226 495.5463 L540.13475 491.45784 L525.00767 483.51854 L512.22016 472.18979 L502.51538 458.12999 L496.45733 442.15623 L494.39809 425.19685 L496.45733 408.23747 L502.51538 392.26371 L512.22016 378.20391 L525.00767 366.87516 L540.13475 358.93586 L556.72226 354.8474 L573.8062 354.8474 L590.39371 358.93586 L605.52079 366.87516 L618.3083 378.20391 L628.01308 392.26371 L634.07113 408.23747 L636.13037 425.19685 M633.57236 460.62992 L631.51312 477.5893 L625.45508 493.56306 L615.75029 507.62287 L602.96278 518.95161 L587.8357 526.89091 L571.24819 530.97937 L554.16425 530.97937 L537.57674 526.89091 L522.44967 518.95161 L509.66215 507.62287 L499.95737 493.56306 L493.89932 477.5893 L491.84008 460.62992 L493.89932 443.67054 L499.95737 427.69678 L509.66215 413.63698 L522.44967 402.30823 L537.57674 394.36893 L554.16425 390.28047 L571.24819 390.28047 L587.8357 394.36893 L602.96278 402.30823 L615.75029 413.63698 L625.45508 427.69678 L631.51312 443.67054 L633.57236 460.62992 M630.93771 496.06299 L628.87847 513.02237 L622.82042 528.99613 L613.11564 543.05594 L600.32813 554.38468 L585.20105 562.32399 L568.61354 566.41244 L551.5296 566.41244 L534.94209 562.32399 L519.81501 554.38468 L507.0275 543.05594 L497.32272 528.99613 L491.26467 513.02237 L489.20543 496.06299 L491.26467 479.10361 L497.32272 463.12985 L507.0275 449.07005 L519.81501 437.7413 L534.94209 429.802 L551.5296 425.71354 L568.61354 425.71354 L585.20105 429.802 L600.32813 437.7413 L613.11564 449.07005 L622.82042 463.12985 L628.87847 479.10361 L630.93771 496.06299 M629.31937 531.49606 L627.26013 548.45544 L621.20208 564.4292 L611.4973 578.48901 L598.70979 589.81775 L583.58271 597.75706 L566.9952 601.84551 L549.91126 601.84551 L533.32375 597.75706 L518.19667 589.81775 L505.40916 578.48901 L495.70438 564.4292 L489.64633 548.45544 L487.58709 531.49606 L489.64633 514.53669 L495.70438 498.56292 L505.40916 484.50312 L518.19667 473.17437 L533.32375 465.23507 L549.91126 461.14662 L566.9952 461.14662 L583.58271 465.23507 L598.70979 473.17437 L611.4973 484.50312 L621.20208 498.56292 L627.26013 514.53669 L629.31937 531.49606 M629.79292 566.92913 L627.73367 583.88851 L621.67563 599.86227 L611.97084 613.92208 L599.18333 625.25083 L584.05625 633.19013 L567.46874 637.27858 L550.3848 637.27858 L533.79729 633.19013 L518.67022 625.25083 L505.88271 613.92208 L496.17792 599.86227 L490.11987 583.88851 L488.06063 566.92913 L490.11987 549.96976 L496.17792 533.996 L505.88271 519.93619 L518.67022 508.60744 L533.79729 500.66814 L550.3848 496.57969 L567.46874 496.57969 L584.05625 500.66814 L599.18333 508.60744 L611.97084 519.93619 L621.67563 533.996 L627.73367 549.96976 L629.79292 566.92913 M632.88933 602.3622 L630.83009 619.32158 L624.77204 635.29534 L615.06726 649.35515 L602.27975 660.6839 L587.15267 668.6232 L570.56516 672.71165 L553.48122 672.71165 L536.89371 668.6232 L521.76663 660.6839 L508.97912 649.35515 L499.27434 635.29534 L493.21629 619.32158 L491.15705 602.3622 L493.21629 585.40283 L499.27434 569.42907 L508.97912 555.36926 L521.76663 544.04051 L536.89371 536.10121 L553.48122 532.01276 L570.56516 532.01276 L587.15267 536.10121 L602.27975 544.04051 L615.06726 555.36926 L624.77204 569.42907 L630.83009 585.40283 L632.88933 602.3622 M638.24246 637.79528 L636.18322 654.75465 L630.12517 670.72841 L620.42039 684.78822 L607.63287 696.11697 L592.5058 704.05627 L575.91829 708.14472 L558.83435 708.14472 L542.24684 704.05627 L527.11976 696.11697 L514.33225 684.78822 L504.62747 670.72841 L498.56942 654.75465 L496.51018 637.79528 L498.56942 620.8359 L504.62747 604.86214 L514.33225 590.80233 L527.11976 579.47358 L542.24684 571.53428 L558.83435 567.44583 L575.91829 567.44583 L592.5058 571.53428 L607.63287 579.47358 L620.42039 590.80233 L630.12517 604.86214 L636.18322 620.8359 L638.24246 637.79528 M644.56506 673.22835 L642.50582 690.18772 L636.44777 706.16148 L626.74298 720.22129 L613.95547 731.55004 L598.8284 739.48934 L582.24088 743.57779 L565.15695 743.57779 L548.56943 739.48934 L533.44236 731.55004 L520.65485 720.22129 L510.95006 706.16148 L504.89201 690.18772 L502.83277 673.22835 L504.89201 656.26897 L510.95006 640.29521 L520.65485 626.2354 L533.44236 614.90666 L548.56943 606.96735 L565.15695 602.8789 L582.24088 602.8789 L598.8284 606.96735 L613.95547 614.90666 L626.74298 626.2354 L636.44777 640.29521 L642.50582 656.26897 L644.56506 673.22835 M650.08021 708.66142 L648.02097 725.6208 L641.96292 741.59456 L632.25813 755.65436 L619.47062 766.98311 L604.34355 774.92241 L587.75604 779.01087 L570.6721 779.01087 L554.08459 774.92241 L538.95751 766.98311 L526.17 755.65436 L516.46521 741.59456 L510.40717 725.6208 L508.34792 708.66142 L510.40717 691.70204 L516.46521 675.72828 L526.17 661.66847 L538.95751 650.33973 L554.08459 642.40042 L570.6721 638.31197 L587.75604 638.31197 L604.34355 642.40042 L619.47062 650.33973 L632.25813 661.66847 L641.96292 675.72828 L648.02097 691.70204 L650.08021 708.66142 M653.2297 744.09449 L651.17046 761.05387 L645.11241 777.02763 L635.40763 791.08743 L622.62012 802.41618 L607.49304 810.35548 L590.90553 814.44394 L573.82159 814.44394 L557.23408 810.35548 L542.10701 802.41618 L529.31949 791.08743 L519.61471 777.02763 L513.55666 761.05387 L511.49742 744.09449 L513.55666 727.13511 L519.61471 711.16135 L529.31949 697.10154 L542.10701 685.7728 L557.23408 677.83349 L573.82159 673.74504 L590.90553 673.74504 L607.49304 677.83349 L622.62012 685.7728 L635.40763 697.10154 L645.11241 711.16135 L651.17046 727.13511 L653.2297 744.09449 M653.46892 779.52756 L651.40967 796.48694 L645.35163 812.4607 L635.64684 826.5205 L622.85933 837.84925 L607.73225 845.78855 L591.14474 849.87701 L574.0608 849.87701 L557.47329 845.78855 L542.34622 837.84925 L529.5587 826.5205 L519.85392 812.4607 L513.79587 796.48694 L511.73663 779.52756 L513.79587 762.56818 L519.85392 746.59442 L529.5587 732.53461 L542.34622 721.20587 L557.47329 713.26657 L574.0608 709.17811 L591.14474 709.17811 L607.73225 713.26657 L622.85933 721.20587 L635.64684 732.53461 L645.35163 746.59442 L651.40967 762.56818 L653.46892 779.52756 M651.52425 814.96063 L649.46501 831.92001 L643.40696 847.89377 L633.70218 861.95357 L620.91467 873.28232 L605.78759 881.22162 L589.20008 885.31008 L572.11614 885.31008 L555.52863 881.22162 L540.40155 873.28232 L527.61404 861.95357 L517.90926 847.89377 L511.85121 831.92001 L509.79197 814.96063 L511.85121 798.00125 L517.90926 782.02749 L527.61404 767.96769 L540.40155 756.63894 L555.52863 748.69964 L572.11614 744.61118 L589.20008 744.61118 L605.78759 748.69964 L620.91467 756.63894 L633.70218 767.96769 L643.40696 782.02749 L649.46501 798.00125 L651.52425 814.96063 M648.63257 850.3937 L646.57333 867.35308 L640.51528 883.32684 L630.8105 897.38665 L618.02298 908.71539 L602.89591 916.65469 L586.3084 920.74315 L569.22446 920.74315 L552.63695 916.65469 L537.50987 908.71539 L524.72236 897.38665 L515.01757 883.32684 L508.95953 867.35308 L506.90029 850.3937 L508.95953 833.43432 L515.01757 817.46056 L524.72236 803.40076 L537.50987 792.07201 L552.63695 784.13271 L569.22446 780.04425 L586.3084 780.04425 L602.89591 784.13271 L618.02298 792.07201 L630.8105 803.40076 L640.51528 817.46056 L646.57333 833.43432 L648.63257 850.3937 M645.55451 885.82677 L643.49527 902.78615 L637.43722 918.75991 L627.73244 932.81972 L614.94492 944.14846 L599.81785 952.08777 L583.23034 956.17622 L566.1464 956.17622 L549.55889 952.08777 L534.43181 944.14846 L521.6443 932.81972 L511.93952 918.75991 L505.88147 902.78615 L503.82223 885.82677 L505.88147 868.86739 L511.93952 852.89363 L521.6443 838.83383 L534.43181 827.50508 L549.55889 819.56578 L566.1464 815.47732 L583.23034 815.47732 L599.81785 819.56578 L614.94492 827.50508 L627.73244 838.83383 L637.43722 852.89363 L643.49527 868.86739 L645.55451 885.82677 M642.81203 921.25984 L640.75279 938.21922 L634.69474 954.19298 L624.98996 968.25279 L612.20245 979.58153 L597.07537 987.52084 L580.48786 991.60929 L563.40392 991.60929 L546.81641 987.52084 L531.68934 979.58153 L518.90182 968.25279 L509.19704 954.19298 L503.13899 938.21922 L501.07975 921.25984 L503.13899 904.30046 L509.19704 888.3267 L518.90182 874.2669 L531.68934 862.93815 L546.81641 854.99885 L563.40392 850.91039 L580.48786 850.91039 L597.07537 854.99885 L612.20245 862.93815 L624.98996 874.2669 L634.69474 888.3267 L640.75279 904.30046 L642.81203 921.25984 M640.69481 956.69291 L638.63557 973.65229 L632.57752 989.62605 L622.87274 1003.68586 L610.08522 1015.0146 L594.95815 1022.95391 L578.37064 1027.04236 L561.2867 1027.04236 L544.69919 1022.95391 L529.57211 1015.0146 L516.7846 1003.68586 L507.07982 989.62605 L501.02177 973.65229 L498.96253 956.69291 L501.02177 939.73354 L507.07982 923.75978 L516.7846 909.69997 L529.57211 898.37122 L544.69919 890.43192 L561.2867 886.34347 L578.37064 886.34347 L594.95815 890.43192 L610.08522 898.37122 L622.87274 909.69997 L632.57752 923.75978 L638.63557 939.73354 L640.69481 956.69291 M639.2127 992.12598 L637.15346 1009.08536 L631.09541 1025.05912 L621.39062 1039.11893 L608.60311 1050.44768 L593.47604 1058.38698 L576.88853 1062.47543 L559.80459 1062.47543 L543.21708 1058.38698 L528.09 1050.44768 L515.30249 1039.11893 L505.5977 1025.05912 L499.53966 1009.08536 L497.48041 992.12598 L499.53966 975.16661 L505.5977 959.19285 L515.30249 945.13304 L528.09 933.80429 L543.21708 925.86499 L559.80459 921.77654 L576.88853 921.77654 L593.47604 925.86499 L608.60311 933.80429 L621.39062 945.13304 L631.09541 959.19285 L637.15346 975.16661 L639.2127 992.12598 M638.58077 1027.55906 L636.52153 1044.51843 L630.46349 1060.49219 L620.7587 1074.552 L607.97119 1085.88075 L592.84411 1093.82005 L576.2566 1097.9085 L559.17266 1097.9085 L542.58515 1093.82005 L527.45808 1085.88075 L514.67056 1074.552 L504.96578 1060.49219 L498.90773 1044.51843 L496.84849 1027.55906 L498.90773 1010.59968 L504.96578 994.62592 L514.67056 980.56611 L527.45808 969.23736 L542.58515 961.29806 L559.17266 957.20961 L576.2566 957.20961 L592.84411 961.29806 L607.97119 969.23736 L620.7587 980.56611 L630.46349 994.62592 L636.52153 1010.59968 L638.58077 1027.55906 M638.91245 1062.99213 L636.85321 1079.9515 L630.79516 1095.92526 L621.09038 1109.98507 L608.30287 1121.31382 L593.17579 1129.25312 L576.58828 1133.34157 L559.50434 1133.34157 L542.91683 1129.25312 L527.78975 1121.31382 L515.00224 1109.98507 L505.29746 1095.92526 L499.23941 1079.9515 L497.18017 1062.99213 L499.23941 1046.03275 L505.29746 1030.05899 L515.00224 1015.99918 L527.78975 1004.67043 L542.91683 996.73113 L559.50434 992.64268 L576.58828 992.64268 L593.17579 996.73113 L608.30287 1004.67043 L621.09038 1015.99918 L630.79516 1030.05899 L636.85321 1046.03275 L638.91245 1062.99213 M639.79626 1098.4252 L637.73702 1115.38457 L631.67897 1131.35834 L621.97418 1145.41814 L609.18667 1156.74689 L594.0596 1164.68619 L577.47209 1168.77464 L560.38815 1168.77464 L543.80064 1164.68619 L528.67356 1156.74689 L515.88605 1145.41814 L506.18126 1131.35834 L500.12322 1115.38457 L498.06397 1098.4252 L500.12322 1081.46582 L506.18126 1065.49206 L515.88605 1051.43225 L528.67356 1040.10351 L543.80064 1032.1642 L560.38815 1028.07575 L577.47209 1028.07575 L594.0596 1032.1642 L609.18667 1040.10351 L621.97418 1051.43225 L631.67897 1065.49206 L637.73702 1081.46582 L639.79626 1098.4252 M779.52756 389.76378 L777.46832 406.72316 L771.41027 422.69692 L761.70549 436.75672 L748.91797 448.08547 L733.7909 456.02477 L717.20339 460.11323 L700.11945 460.11323 L683.53194 456.02477 L668.40486 448.08547 L655.61735 436.75672 L645.91257 422.69692 L639.85452 406.72316 L637.79528 389.76378 L639.85452 372.8044 L645.91257 356.83064 L655.61735 342.77084 L668.40486 331.44209 L683.53194 323.50279 L700.11945 319.41433 L717.20339 319.41433 L733.7909 323.50279 L748.91797 331.44209 L761.70549 342.77084 L771.41027 356.83064 L777.46832 372.8044 L779.52756 389.76378 M774.0326 425.19685 L771.97336 442.15623 L765.91531 458.12999 L756.21053 472.18979 L743.42301 483.51854 L728.29594 491.45784 L711.70843 495.5463 L694.62449 495.5463 L678.03698 491.45784 L662.9099 483.51854 L650.12239 472.18979 L640.41761 458.12999 L634.35956 442.15623 L632.30032 425.19685 L634.35956 408.23747 L640.41761 392.26371 L650.12239 378.20391 L662.9099 366.87516 L678.03698 358.93586 L694.62449 354.8474 L711.70843 354.8474 L728.29594 358.93586 L743.42301 366.87516 L756.21053 378.20391 L765.91531 392.26371 L771.97336 408.23747 L774.0326 425.19685 M769.05015 460.62992 L766.99091 477.5893 L760.93286 493.56306 L751.22808 507.62287 L738.44056 518.95161 L723.31349 526.89091 L706.72598 530.97937 L689.64204 530.97937 L673.05453 526.89091 L657.92745 518.95161 L645.13994 507.62287 L635.43515 493.56306 L629.37711 477.5893 L627.31786 460.62992 L629.37711 443.67054 L635.43515 427.69678 L645.13994 413.63698 L657.92745 402.30823 L673.05453 394.36893 L689.64204 390.28047 L706.72598 390.28047 L723.31349 394.36893 L738.44056 402.30823 L751.22808 413.63698 L760.93286 427.69678 L766.99091 443.67054 L769.05015 460.62992 M763.92575 496.06299 L761.86651 513.02237 L755.80846 528.99613 L746.10368 543.05594 L733.31617 554.38468 L718.18909 562.32399 L701.60158 566.41244 L684.51764 566.41244 L667.93013 562.32399 L652.80305 554.38468 L640.01554 543.05594 L630.31076 528.99613 L624.25271 513.02237 L622.19347 496.06299 L624.25271 479.10361 L630.31076 463.12985 L640.01554 449.07005 L652.80305 437.7413 L667.93013 429.802 L684.51764 425.71354 L701.60158 425.71354 L718.18909 429.802 L733.31617 437.7413 L746.10368 449.07005 L755.80846 463.12985 L761.86651 479.10361 L763.92575 496.06299 M758.0056 531.49606 L755.94636 548.45544 L749.88831 564.4292 L740.18353 578.48901 L727.39602 589.81775 L712.26894 597.75706 L695.68143 601.84551 L678.59749 601.84551 L662.00998 597.75706 L646.8829 589.81775 L634.09539 578.48901 L624.39061 564.4292 L618.33256 548.45544 L616.27332 531.49606 L618.33256 514.53669 L624.39061 498.56292 L634.09539 484.50312 L646.8829 473.17437 L662.00998 465.23507 L678.59749 461.14662 L695.68143 461.14662 L712.26894 465.23507 L727.39602 473.17437 L740.18353 484.50312 L749.88831 498.56292 L755.94636 514.53669 L758.0056 531.49606 M751.68881 566.92913 L749.62957 583.88851 L743.57152 599.86227 L733.86674 613.92208 L721.07923 625.25083 L705.95215 633.19013 L689.36464 637.27858 L672.2807 637.27858 L655.69319 633.19013 L640.56611 625.25083 L627.7786 613.92208 L618.07382 599.86227 L612.01577 583.88851 L609.95653 566.92913 L612.01577 549.96976 L618.07382 533.996 L627.7786 519.93619 L640.56611 508.60744 L655.69319 500.66814 L672.2807 496.57969 L689.36464 496.57969 L705.95215 500.66814 L721.07923 508.60744 L733.86674 519.93619 L743.57152 533.996 L749.62957 549.96976 L751.68881 566.92913 M746.62391 602.3622 L744.56467 619.32158 L738.50662 635.29534 L728.80183 649.35515 L716.01432 660.6839 L700.88725 668.6232 L684.29974 672.71165 L667.2158 672.71165 L650.62829 668.6232 L635.50121 660.6839 L622.7137 649.35515 L613.00891 635.29534 L606.95087 619.32158 L604.89162 602.3622 L606.95087 585.40283 L613.00891 569.42907 L622.7137 555.36926 L635.50121 544.04051 L650.62829 536.10121 L667.2158 532.01276 L684.29974 532.01276 L700.88725 536.10121 L716.01432 544.04051 L728.80183 555.36926 L738.50662 569.42907 L744.56467 585.40283 L746.62391 602.3622 M744.13463 637.79528 L742.07539 654.75465 L736.01734 670.72841 L726.31256 684.78822 L713.52505 696.11697 L698.39797 704.05627 L681.81046 708.14472 L664.72652 708.14472 L648.13901 704.05627 L633.01193 696.11697 L620.22442 684.78822 L610.51964 670.72841 L604.46159 654.75465 L602.40235 637.79528 L604.46159 620.8359 L610.51964 604.86214 L620.22442 590.80233 L633.01193 579.47358 L648.13901 571.53428 L664.72652 567.44583 L681.81046 567.44583 L698.39797 571.53428 L713.52505 579.47358 L726.31256 590.80233 L736.01734 604.86214 L742.07539 620.8359 L744.13463 637.79528 M743.98238 673.22835 L741.92314 690.18772 L735.86509 706.16148 L726.16031 720.22129 L713.3728 731.55004 L698.24572 739.48934 L681.65821 743.57779 L664.57427 743.57779 L647.98676 739.48934 L632.85969 731.55004 L620.07217 720.22129 L610.36739 706.16148 L604.30934 690.18772 L602.2501 673.22835 L604.30934 656.26897 L610.36739 640.29521 L620.07217 626.2354 L632.85969 614.90666 L647.98676 606.96735 L664.57427 602.8789 L681.65821 602.8789 L698.24572 606.96735 L713.3728 614.90666 L726.16031 626.2354 L735.86509 640.29521 L741.92314 656.26897 L743.98238 673.22835 M744.76834 708.66142 L742.7091 725.6208 L736.65105 741.59456 L726.94627 755.65436 L714.15876 766.98311 L699.03168 774.92241 L682.44417 779.01087 L665.36023 779.01087 L648.77272 774.92241 L633.64564 766.98311 L620.85813 755.65436 L611.15335 741.59456 L605.0953 725.6208 L603.03606 708.66142 L605.0953 691.70204 L611.15335 675.72828 L620.85813 661.66847 L633.64564 650.33973 L648.77272 642.40042 L665.36023 638.31197 L682.44417 638.31197 L699.03168 642.40042 L714.15876 650.33973 L726.94627 661.66847 L736.65105 675.72828 L742.7091 691.70204 L744.76834 708.66142 M745.09313 744.09449 L743.03389 761.05387 L736.97584 777.02763 L727.27106 791.08743 L714.48355 802.41618 L699.35647 810.35548 L682.76896 814.44394 L665.68502 814.44394 L649.09751 810.35548 L633.97043 802.41618 L621.18292 791.08743 L611.47814 777.02763 L605.42009 761.05387 L603.36085 744.09449 L605.42009 727.13511 L611.47814 711.16135 L621.18292 697.10154 L633.97043 685.7728 L649.09751 677.83349 L665.68502 673.74504 L682.76896 673.74504 L699.35647 677.83349 L714.48355 685.7728 L727.27106 697.10154 L736.97584 711.16135 L743.03389 727.13511 L745.09313 744.09449 M744.34367 779.52756 L742.28443 796.48694 L736.22638 812.4607 L726.5216 826.5205 L713.73409 837.84925 L698.60701 845.78855 L682.0195 849.87701 L664.93556 849.87701 L648.34805 845.78855 L633.22097 837.84925 L620.43346 826.5205 L610.72868 812.4607 L604.67063 796.48694 L602.61139 779.52756 L604.67063 762.56818 L610.72868 746.59442 L620.43346 732.53461 L633.22097 721.20587 L648.34805 713.26657 L664.93556 709.17811 L682.0195 709.17811 L698.60701 713.26657 L713.73409 721.20587 L726.5216 732.53461 L736.22638 746.59442 L742.28443 762.56818 L744.34367 779.52756 M742.7119 814.96063 L740.65266 831.92001 L734.59461 847.89377 L724.88983 861.95357 L712.10231 873.28232 L696.97524 881.22162 L680.38773 885.31008 L663.30379 885.31008 L646.71628 881.22162 L631.5892 873.28232 L618.80169 861.95357 L609.0969 847.89377 L603.03886 831.92001 L600.97961 814.96063 L603.03886 798.00125 L609.0969 782.02749 L618.80169 767.96769 L631.5892 756.63894 L646.71628 748.69964 L663.30379 744.61118 L680.38773 744.61118 L696.97524 748.69964 L712.10231 756.63894 L724.88983 767.96769 L734.59461 782.02749 L740.65266 798.00125 L742.7119 814.96063 M740.56566 850.3937 L738.50642 867.35308 L732.44837 883.32684 L722.74359 897.38665 L709.95607 908.71539 L694.829 916.65469 L678.24149 920.74315 L661.15755 920.74315 L644.57004 916.65469 L629.44296 908.71539 L616.65545 897.38665 L606.95067 883.32684 L600.89262 867.35308 L598.83338 850.3937 L600.89262 833.43432 L606.95067 817.46056 L616.65545 803.40076 L629.44296 792.07201 L644.57004 784.13271 L661.15755 780.04425 L678.24149 780.04425 L694.829 784.13271 L709.95607 792.07201 L722.74359 803.40076 L732.44837 817.46056 L738.50642 833.43432 L740.56566 850.3937 M737.98877 885.82677 L735.92953 902.78615 L729.87148 918.75991 L720.1667 932.81972 L707.37919 944.14846 L692.25211 952.08777 L675.6646 956.17622 L658.58066 956.17622 L641.99315 952.08777 L626.86607 944.14846 L614.07856 932.81972 L604.37378 918.75991 L598.31573 902.78615 L596.25649 885.82677 L598.31573 868.86739 L604.37378 852.89363 L614.07856 838.83383 L626.86607 827.50508 L641.99315 819.56578 L658.58066 815.47732 L675.6646 815.47732 L692.25211 819.56578 L707.37919 827.50508 L720.1667 838.83383 L729.87148 852.89363 L735.92953 868.86739 L737.98877 885.82677 M734.67967 921.25984 L732.62043 938.21922 L726.56238 954.19298 L716.8576 968.25279 L704.07009 979.58153 L688.94301 987.52084 L672.3555 991.60929 L655.27156 991.60929 L638.68405 987.52084 L623.55697 979.58153 L610.76946 968.25279 L601.06468 954.19298 L595.00663 938.21922 L592.94739 921.25984 L595.00663 904.30046 L601.06468 888.3267 L610.76946 874.2669 L623.55697 862.93815 L638.68405 854.99885 L655.27156 850.91039 L672.3555 850.91039 L688.94301 854.99885 L704.07009 862.93815 L716.8576 874.2669 L726.56238 888.3267 L732.62043 904.30046 L734.67967 921.25984 M730.14646 956.69291 L728.08722 973.65229 L722.02917 989.62605 L712.32439 1003.68586 L699.53688 1015.0146 L684.4098 1022.95391 L667.82229 1027.04236 L650.73835 1027.04236 L634.15084 1022.95391 L619.02376 1015.0146 L606.23625 1003.68586 L596.53147 989.62605 L590.47342 973.65229 L588.41418 956.69291 L590.47342 939.73354 L596.53147 923.75978 L606.23625 909.69997 L619.02376 898.37122 L634.15084 890.43192 L650.73835 886.34347 L667.82229 886.34347 L684.4098 890.43192 L699.53688 898.37122 L712.32439 909.69997 L722.02917 923.75978 L728.08722 939.73354 L730.14646 956.69291 M724.45344 992.12598 L722.39419 1009.08536 L716.33615 1025.05912 L706.63136 1039.11893 L693.84385 1050.44768 L678.71677 1058.38698 L662.12926 1062.47543 L645.04532 1062.47543 L628.45781 1058.38698 L613.33074 1050.44768 L600.54322 1039.11893 L590.83844 1025.05912 L584.78039 1009.08536 L582.72115 992.12598 L584.78039 975.16661 L590.83844 959.19285 L600.54322 945.13304 L613.33074 933.80429 L628.45781 925.86499 L645.04532 921.77654 L662.12926 921.77654 L678.71677 925.86499 L693.84385 933.80429 L706.63136 945.13304 L716.33615 959.19285 L722.39419 975.16661 L724.45344 992.12598 M718.27725 1027.55906 L716.21801 1044.51843 L710.15996 1060.49219 L700.45518 1074.552 L687.66767 1085.88075 L672.54059 1093.82005 L655.95308 1097.9085 L638.86914 1097.9085 L622.28163 1093.82005 L607.15455 1085.88075 L594.36704 1074.552 L584.66226 1060.49219 L578.60421 1044.51843 L576.54497 1027.55906 L578.60421 1010.59968 L584.66226 994.62592 L594.36704 980.56611 L607.15455 969.23736 L622.28163 961.29806 L638.86914 957.20961 L655.95308 957.20961 L672.54059 961.29806 L687.66767 969.23736 L700.45518 980.56611 L710.15996 994.62592 L716.21801 1010.59968 L718.27725 1027.55906 M712.64921 1062.99213 L710.58997 1079.9515 L704.53192 1095.92526 L694.82714 1109.98507 L682.03963 1121.31382 L666.91255 1129.25312 L650.32504 1133.34157 L633.2411 1133.34157 L616.65359 1129.25312 L601.52652 1121.31382 L588.739 1109.98507 L579.03422 1095.92526 L572.97617 1079.9515 L570.91693 1062.99213 L572.97617 1046.03275 L579.03422 1030.05899 L588.739 1015.99918 L601.52652 1004.67043 L616.65359 996.73113 L633.2411 992.64268 L650.32504 992.64268 L666.91255 996.73113 L682.03963 1004.67043 L694.82714 1015.99918 L704.53192 1030.05899 L710.58997 1046.03275 L712.64921 1062.99213 M708.52089 1098.4252 L706.46165 1115.38457 L700.4036 1131.35834 L690.69882 1145.41814 L677.9113 1156.74689 L662.78423 1164.68619 L646.19672 1168.77464 L629.11278 1168.77464 L612.52527 1164.68619 L597.39819 1156.74689 L584.61068 1145.41814 L574.9059 1131.35834 L568.84785 1115.38457 L566.78861 1098.4252 L568.84785 1081.46582 L574.9059 1065.49206 L584.61068 1051.43225 L597.39819 1040.10351 L612.52527 1032.1642 L629.11278 1028.07575 L646.19672 1028.07575 L662.78423 1032.1642 L677.9113 1040.10351 L690.69882 1051.43225 L700.4036 1065.49206 L706.46165 1081.46582 L708.52089 1098.4252 M921.25984 389.76378 L919.2006 406.72316 L913.14255 422.69692 L903.43777 436.75672 L890.65026 448.08547 L875.52318 456.02477 L858.93567 460.11323 L841.85173 460.11323 L825.26422 456.02477 L810.13714 448.08547 L797.34963 436.75672 L787.64485 422.69692 L781.5868 406.72316 L779.52756 389.76378 L781.5868 372.8044 L787.64485 356.83064 L797.34963 342.77084 L810.13714 331.44209 L825.26422 323.50279 L841.85173 319.41433 L858.93567 319.41433 L875.52318 323.50279 L890.65026 331.44209 L903.43777 342.77084 L913.14255 356.83064 L919.2006 372.8044 L921.25984 389.76378 M923.55309 425.19685 L921.49385 442.15623 L915.4358 458.12999 L905.73101 472.18979 L892.9435 483.51854 L877.81643 491.45784 L861.22892 495.5463 L844.14498 495.5463 L827.55747 491.45784 L812.43039 483.51854 L799.64288 472.18979 L789.93809 458.12999 L783.88005 442.15623 L781.8208 425.19685 L783.88005 408.23747 L789.93809 392.26371 L799.64288 378.20391 L812.43039 366.87516 L827.55747 358.93586 L844.14498 354.8474 L861.22892 354.8474 L877.81643 358.93586 L892.9435 366.87516 L905.73101 378.20391 L915.4358 392.26371 L921.49385 408.23747 L923.55309 425.19685 M927.32817 460.62992 L925.26893 477.5893 L919.21088 493.56306 L909.5061 507.62287 L896.71859 518.95161 L881.59151 526.89091 L865.004 530.97937 L847.92006 530.97937 L831.33255 526.89091 L816.20547 518.95161 L803.41796 507.62287 L793.71318 493.56306 L787.65513 477.5893 L785.59589 460.62992 L787.65513 443.67054 L793.71318 427.69678 L803.41796 413.63698 L816.20547 402.30823 L831.33255 394.36893 L847.92006 390.28047 L865.004 390.28047 L881.59151 394.36893 L896.71859 402.30823 L909.5061 413.63698 L919.21088 427.69678 L925.26893 443.67054 L927.32817 460.62992 M930.35963 496.06299 L928.30039 513.02237 L922.24234 528.99613 L912.53756 543.05594 L899.75005 554.38468 L884.62297 562.32399 L868.03546 566.41244 L850.95152 566.41244 L834.36401 562.32399 L819.23693 554.38468 L806.44942 543.05594 L796.74464 528.99613 L790.68659 513.02237 L788.62735 496.06299 L790.68659 479.10361 L796.74464 463.12985 L806.44942 449.07005 L819.23693 437.7413 L834.36401 429.802 L850.95152 425.71354 L868.03546 425.71354 L884.62297 429.802 L899.75005 437.7413 L912.53756 449.07005 L922.24234 463.12985 L928.30039 479.10361 L930.35963 496.06299 M930.95493 531.49606 L928.89569 548.45544 L922.83764 564.4292 L913.13286 578.48901 L900.34535 589.81775 L885.21827 597.75706 L868.63076 601.84551 L851.54682 601.84551 L834.95931 597.75706 L819.83223 589.81775 L807.04472 578.48901 L797.33994 564.4292 L791.28189 548.45544 L789.22265 531.49606 L791.28189 514.53669 L797.33994 498.56292 L807.04472 484.50312 L819.83223 473.17437 L834.95931 465.23507 L851.54682 461.14662 L868.63076 461.14662 L885.21827 465.23507 L900.34535 473.17437 L913.13286 484.50312 L922.83764 498.56292 L928.89569 514.53669 L930.95493 531.49606 M928.77908 566.92913 L926.71984 583.88851 L920.66179 599.86227 L910.957 613.92208 L898.16949 625.25083 L883.04241 633.19013 L866.4549 637.27858 L849.37097 637.27858 L832.78345 633.19013 L817.65638 625.25083 L804.86887 613.92208 L795.16408 599.86227 L789.10603 583.88851 L787.04679 566.92913 L789.10603 549.96976 L795.16408 533.996 L804.86887 519.93619 L817.65638 508.60744 L832.78345 500.66814 L849.37097 496.57969 L866.4549 496.57969 L883.04241 500.66814 L898.16949 508.60744 L910.957 519.93619 L920.66179 533.996 L926.71984 549.96976 L928.77908 566.92913 M924.81231 602.3622 L922.75307 619.32158 L916.69502 635.29534 L906.99023 649.35515 L894.20272 660.6839 L879.07564 668.6232 L862.48813 672.71165 L845.4042 672.71165 L828.81668 668.6232 L813.68961 660.6839 L800.9021 649.35515 L791.19731 635.29534 L785.13926 619.32158 L783.08002 602.3622 L785.13926 585.40283 L791.19731 569.42907 L800.9021 555.36926 L813.68961 544.04051 L828.81668 536.10121 L845.4042 532.01276 L862.48813 532.01276 L879.07564 536.10121 L894.20272 544.04051 L906.99023 555.36926 L916.69502 569.42907 L922.75307 585.40283 L924.81231 602.3622 M920.19466 637.79528 L918.13542 654.75465 L912.07737 670.72841 L902.37259 684.78822 L889.58508 696.11697 L874.458 704.05627 L857.87049 708.14472 L840.78655 708.14472 L824.19904 704.05627 L809.07196 696.11697 L796.28445 684.78822 L786.57967 670.72841 L780.52162 654.75465 L778.46238 637.79528 L780.52162 620.8359 L786.57967 604.86214 L796.28445 590.80233 L809.07196 579.47358 L824.19904 571.53428 L840.78655 567.44583 L857.87049 567.44583 L874.458 571.53428 L889.58508 579.47358 L902.37259 590.80233 L912.07737 604.86214 L918.13542 620.8359 L920.19466 637.79528 M915.39731 673.22835 L913.33807 690.18772 L907.28002 706.16148 L897.57524 720.22129 L884.78773 731.55004 L869.66065 739.48934 L853.07314 743.57779 L835.9892 743.57779 L819.40169 739.48934 L804.27461 731.55004 L791.4871 720.22129 L781.78232 706.16148 L775.72427 690.18772 L773.66503 673.22835 L775.72427 656.26897 L781.78232 640.29521 L791.4871 626.2354 L804.27461 614.90666 L819.40169 606.96735 L835.9892 602.8789 L853.07314 602.8789 L869.66065 606.96735 L884.78773 614.90666 L897.57524 626.2354 L907.28002 640.29521 L913.33807 656.26897 L915.39731 673.22835 M910.56511 708.66142 L908.50587 725.6208 L902.44782 741.59456 L892.74304 755.65436 L879.95553 766.98311 L864.82845 774.92241 L848.24094 779.01087 L831.157 779.01087 L814.56949 774.92241 L799.44242 766.98311 L786.6549 755.65436 L776.95012 741.59456 L770.89207 725.6208 L768.83283 708.66142 L770.89207 691.70204 L776.95012 675.72828 L786.6549 661.66847 L799.44242 650.33973 L814.56949 642.40042 L831.157 638.31197 L848.24094 638.31197 L864.82845 642.40042 L879.95553 650.33973 L892.74304 661.66847 L902.44782 675.72828 L908.50587 691.70204 L910.56511 708.66142 M906.09431 744.09449 L904.03506 761.05387 L897.97702 777.02763 L888.27223 791.08743 L875.48472 802.41618 L860.35764 810.35548 L843.77013 814.44394 L826.68619 814.44394 L810.09868 810.35548 L794.97161 802.41618 L782.1841 791.08743 L772.47931 777.02763 L766.42126 761.05387 L764.36202 744.09449 L766.42126 727.13511 L772.47931 711.16135 L782.1841 697.10154 L794.97161 685.7728 L810.09868 677.83349 L826.68619 673.74504 L843.77013 673.74504 L860.35764 677.83349 L875.48472 685.7728 L888.27223 697.10154 L897.97702 711.16135 L904.03506 727.13511 L906.09431 744.09449 M903.07297 779.52756 L901.01373 796.48694 L894.95568 812.4607 L885.2509 826.5205 L872.46339 837.84925 L857.33631 845.78855 L840.7488 849.87701 L823.66486 849.87701 L807.07735 845.78855 L791.95027 837.84925 L779.16276 826.5205 L769.45798 812.4607 L763.39993 796.48694 L761.34069 779.52756 L763.39993 762.56818 L769.45798 746.59442 L779.16276 732.53461 L791.95027 721.20587 L807.07735 713.26657 L823.66486 709.17811 L840.7488 709.17811 L857.33631 713.26657 L872.46339 721.20587 L885.2509 732.53461 L894.95568 746.59442 L901.01373 762.56818 L903.07297 779.52756 M902.78528 814.96063 L900.72604 831.92001 L894.66799 847.89377 L884.96321 861.95357 L872.1757 873.28232 L857.04862 881.22162 L840.46111 885.31008 L823.37717 885.31008 L806.78966 881.22162 L791.66259 873.28232 L778.87507 861.95357 L769.17029 847.89377 L763.11224 831.92001 L761.053 814.96063 L763.11224 798.00125 L769.17029 782.02749 L778.87507 767.96769 L791.66259 756.63894 L806.78966 748.69964 L823.37717 744.61118 L840.46111 744.61118 L857.04862 748.69964 L872.1757 756.63894 L884.96321 767.96769 L894.66799 782.02749 L900.72604 798.00125 L902.78528 814.96063 M905.38277 850.3937 L903.32352 867.35308 L897.26548 883.32684 L887.56069 897.38665 L874.77318 908.71539 L859.6461 916.65469 L843.05859 920.74315 L825.97465 920.74315 L809.38714 916.65469 L794.26007 908.71539 L781.47256 897.38665 L771.76777 883.32684 L765.70972 867.35308 L763.65048 850.3937 L765.70972 833.43432 L771.76777 817.46056 L781.47256 803.40076 L794.26007 792.07201 L809.38714 784.13271 L825.97465 780.04425 L843.05859 780.04425 L859.6461 784.13271 L874.77318 792.07201 L887.56069 803.40076 L897.26548 817.46056 L903.32352 833.43432 L905.38277 850.3937 M909.66722 885.82677 L907.60798 902.78615 L901.54993 918.75991 L891.84515 932.81972 L879.05764 944.14846 L863.93056 952.08777 L847.34305 956.17622 L830.25911 956.17622 L813.6716 952.08777 L798.54452 944.14846 L785.75701 932.81972 L776.05223 918.75991 L769.99418 902.78615 L767.93494 885.82677 L769.99418 868.86739 L776.05223 852.89363 L785.75701 838.83383 L798.54452 827.50508 L813.6716 819.56578 L830.25911 815.47732 L847.34305 815.47732 L863.93056 819.56578 L879.05764 827.50508 L891.84515 838.83383 L901.54993 852.89363 L907.60798 868.86739 L909.66722 885.82677 M913.65592 921.25984 L911.59668 938.21922 L905.53863 954.19298 L895.83385 968.25279 L883.04633 979.58153 L867.91926 987.52084 L851.33175 991.60929 L834.24781 991.60929 L817.6603 987.52084 L802.53322 979.58153 L789.74571 968.25279 L780.04093 954.19298 L773.98288 938.21922 L771.92364 921.25984 L773.98288 904.30046 L780.04093 888.3267 L789.74571 874.2669 L802.53322 862.93815 L817.6603 854.99885 L834.24781 850.91039 L851.33175 850.91039 L867.91926 854.99885 L883.04633 862.93815 L895.83385 874.2669 L905.53863 888.3267 L911.59668 904.30046 L913.65592 921.25984 M915.75646 956.69291 L913.69722 973.65229 L907.63917 989.62605 L897.93439 1003.68586 L885.14687 1015.0146 L870.0198 1022.95391 L853.43229 1027.04236 L836.34835 1027.04236 L819.76084 1022.95391 L804.63376 1015.0146 L791.84625 1003.68586 L782.14146 989.62605 L776.08342 973.65229 L774.02418 956.69291 L776.08342 939.73354 L782.14146 923.75978 L791.84625 909.69997 L804.63376 898.37122 L819.76084 890.43192 L836.34835 886.34347 L853.43229 886.34347 L870.0198 890.43192 L885.14687 898.37122 L897.93439 909.69997 L907.63917 923.75978 L913.69722 939.73354 L915.75646 956.69291 M916.01027 992.12598 L913.95103 1009.08536 L907.89298 1025.05912 L898.1882 1039.11893 L885.40069 1050.44768 L870.27361 1058.38698 L853.6861 1062.47543 L836.60216 1062.47543 L820.01465 1058.38698 L804.88758 1050.44768 L792.10006 1039.11893 L782.39528 1025.05912 L776.33723 1009.08536 L774.27799 992.12598 L776.33723 975.16661 L782.39528 959.19285 L792.10006 945.13304 L804.88758 933.80429 L820.01465 925.86499 L836.60216 921.77654 L853.6861 921.77654 L870.27361 925.86499 L885.40069 933.80429 L898.1882 945.13304 L907.89298 959.19285 L913.95103 975.16661 L916.01027 992.12598 M916.07625 1027.55906 L914.01701 1044.51843 L907.95896 1060.49219 L898.25418 1074.552 L885.46666 1085.88075 L870.33959 1093.82005 L853.75208 1097.9085 L836.66814 1097.9085 L820.08063 1093.82005 L804.95355 1085.88075 L792.16604 1074.552 L782.46125 1060.49219 L776.40321 1044.51843 L774.34396 1027.55906 L776.40321 1010.59968 L782.46125 994.62592 L792.16604 980.56611 L804.95355 969.23736 L820.08063 961.29806 L836.66814 957.20961 L853.75208 957.20961 L870.33959 961.29806 L885.46666 969.23736 L898.25418 980.56611 L907.95896 994.62592 L914.01701 1010.59968 L916.07625 1027.55906 M917.73081 1062.99213 L915.67156 1079.9515 L909.61352 1095.92526 L899.90873 1109.98507 L887.12122 1121.31382 L871.99414 1129.25312 L855.40663 1133.34157 L838.32269 1133.34157 L821.73518 1129.25312 L806.60811 1121.31382 L793.8206 1109.98507 L784.11581 1095.92526 L778.05776 1079.9515 L775.99852 1062.99213 L778.05776 1046.03275 L784.11581 1030.05899 L793.8206 1015.99918 L806.60811 1004.67043 L821.73518 996.73113 L838.32269 992.64268 L855.40663 992.64268 L871.99414 996.73113 L887.12122 1004.67043 L899.90873 1015.99918 L909.61352 1030.05899 L915.67156 1046.03275 L917.73081 1062.99213 M921.41303 1098.4252 L919.35379 1115.38457 L913.29574 1131.35834 L903.59095 1145.41814 L890.80344 1156.74689 L875.67636 1164.68619 L859.08885 1168.77464 L842.00492 1168.77464 L825.4174 1164.68619 L810.29033 1156.74689 L797.50282 1145.41814 L787.79803 1131.35834 L781.73998 1115.38457 L779.68074 1098.4252 L781.73998 1081.46582 L787.79803 1065.49206 L797.50282 1051.43225 L810.29033 1040.10351 L825.4174 1032.1642 L842.00492 1028.07575 L859.08885 1028.07575 L875.67636 1032.1642 L890.80344 1040.10351 L903.59095 1051.43225 L913.29574 1065.49206 L919.35379 1081.46582 L921.41303 1098.4252" fill="none" stroke="black" stroke-width="0.03cm" />
    </g>
</svg>