<?xml version="1.0" encoding="UTF-8"?>
<svg width="272px" height="308px" viewBox="0 0 272 308" version="1.1" xmlns="http://www.w3.org/2000/svg" xmlns:xlink="http://www.w3.org/1999/xlink">
    <!-- Generator: Sketch 53.2 (72643) - https://sketchapp.com -->
    <title>cloud3</title>
    <desc>Created with Sketch.</desc>
    <g id="Page-1" stroke="none" stroke-width="1" fill="none" fill-rule="evenodd">
        <path d="M66.5958616,83.3708539 C66.2026987,80.3027352 66,77.175039 66,74 C66,33.6832133 98.6832133,1 139,1 C179.316787,1 212,33.6832133 212,74 C212,90.525456 206.508894,105.768395 197.251742,118.003759 C197.500866,118.001254 197.750287,118 198,118 C238.316787,118 271,150.683213 271,191 C271,231.316787 238.316787,264 198,264 C177.894028,264 159.686536,255.871637 146.484366,242.721752 C142.173868,278.926856 111.365351,307 74,307 C33.6832133,307 1,274.316787 1,234 C1,219.658157 5.13583165,206.282289 12.2798857,195.000006 C5.13583312,183.717716 1,170.341846 1,156 C1,118.182591 29.756529,87.0816293 66.5958466,83.3708554 L66.5958616,83.3708539 Z" id="cloud3" stroke="#979797" fill="#D8D8D8"></path>
    </g>
</svg>