<?xml version="1.0" encoding="UTF-8"?>
<svg width="362px" height="235px" viewBox="0 0 362 235" version="1.1" xmlns="http://www.w3.org/2000/svg" xmlns:xlink="http://www.w3.org/1999/xlink">
    <!-- Generator: Sketch 53.2 (72643) - https://sketchapp.com -->
    <title>cloud1</title>
    <desc>Created with Sketch.</desc>
    <g id="Page-1" stroke="none" stroke-width="1" fill="none" fill-rule="evenodd">
        <path d="M147,74 C147,33.6832133 179.683213,1 220,1 C260.316787,1 293,33.6832133 293,74 C293,78.8197772 292.532903,83.5304581 291.641508,88.0892446 C330.266552,89.9867482 361,121.904283 361,161 C361,201.316787 328.316787,234 288,234 C265.225816,234 244.887433,223.571098 231.5,207.228445 C218.112567,223.571098 197.774184,234 175,234 C155.404715,234 137.612694,226.27931 124.5,213.713995 C111.387303,226.279312 93.595283,234 74,234 C33.6832133,234 1,201.316787 1,161 C1,120.683213 33.6832133,88 74,88 C93.595283,88 111.387303,95.720688 124.499996,108.286001 C131.583893,101.497823 140.033448,96.1235473 149.395207,92.6166362 C147.832337,86.6733626 147,80.4338827 147,74 Z" id="cloud1" stroke="#979797" fill="#D8D8D8"></path>
    </g>
</svg>