<?xml version="1.0" encoding="UTF-8"?>
<svg width="333px" height="251px" viewBox="0 0 333 251" version="1.1" xmlns="http://www.w3.org/2000/svg" xmlns:xlink="http://www.w3.org/1999/xlink">
    <!-- Generator: Sketch 53.2 (72643) - https://sketchapp.com -->
    <title>cloud2</title>
    <desc>Created with Sketch.</desc>
    <g id="Page-1" stroke="none" stroke-width="1" fill="none" fill-rule="evenodd">
        <path d="M74,74 C74,33.6832133 106.683213,1 147,1 C186.745997,1 219.073038,32.7643318 219.980418,72.2922932 C231.266806,65.1406205 244.649856,61 259,61 C299.316787,61 332,93.6832133 332,134 C332,174.316787 299.316787,207 259,207 C251.657798,207 244.568765,205.916059 237.884193,203.899472 C227.174445,230.904049 200.817272,250 170,250 C146.667669,250 125.891994,239.053653 112.528298,222.016284 C101.345664,228.978349 88.1424854,233 74,233 C33.6832133,233 1,200.316787 1,160 C1,119.683213 33.6832133,87 74,87 C74.3859507,87 74.7712019,87.0029951 75.1557316,87.0089634 C74.3963968,82.7875315 74,78.4400575 74,74 Z" id="cloud2" stroke="#979797" fill="#D8D8D8"></path>
    </g>
</svg>