<?xml version="1.0" standalone="no"?>
  <!DOCTYPE svg PUBLIC "-//W3C//DTD SVG 1.1//EN" 
      "http://www.w3.org/Graphics/SVG/1.1/DTD/svg11.dtd">
  <svg width="21cm" height="29.7cm"
      xmlns="http://www.w3.org/2000/svg" version="1.1" viewBox="0 0 744.09449 1052.3622">
    <g>
      <path d="M372.04724 526.1811 L389.87485 378.30868 M372.04724 526.1811 L389.51555 384.83417 M372.04724 526.1811 L388.45122 391.83678 M372.04724 526.1811 L386.7207 399.40413 M372.04724 526.1811 L384.38244 407.57479 M372.04724 526.1811 L381.50587 416.32404 M372.04724 526.1811 L378.16085 425.55622 M372.04724 526.1811 L374.40639 435.10496 M372.04724 526.1811 L370.28046 444.74117 M372.04724 526.1811 L365.79231 454.18771 M372.04724 526.1811 L360.91869 463.13875 M372.04724 526.1811 L355.60491 471.28328 M372.04724 526.1811 L349.77094 478.32518 M372.04724 526.1811 L343.32219 483.99731 M372.04724 526.1811 L336.16368 488.07666 M372.04724 526.1811 L328.21619 490.39857 M372.04724 526.1811 L319.43201 490.8678 M372.04724 526.1811 L309.80864 489.46497 M372.04724 526.1811 L299.39831 486.24789 M372.04724 526.1811 L288.31213 481.34762 M372.04724 526.1811 L276.71812 474.95961 M372.04724 526.1811 L264.83347 467.33084 M372.04724 526.1811 L252.91187 458.74478 M372.04724 526.1811 L241.2279 449.50684 M372.04724 526.1811 L230.06047 439.92853 M372.04724 526.1811 L219.67755 430.30401 M372.04724 526.1811 L210.32374 420.88856 M372.04724 526.1811 L202.21181 411.88137 M372.04724 526.1811 L195.518 403.41398 M372.04724 526.1811 L190.38063 395.5461 M372.04724 526.1811 L186.90095 388.26941 M372.04724 526.1811 L185.14489 381.51869 M372.04724 526.1811 L185.14489 375.18864 M372.04724 526.1811 L186.90095 369.15403 M372.04724 526.1811 L190.38063 363.29032 M372.04724 526.1811 L195.518 357.49234 M372.04724 526.1811 L202.21181 351.68897 M372.04724 526.1811 L210.32374 345.85251 M372.04724 526.1811 L219.67755 340.00229 M372.04724 526.1811 L230.06047 334.20276 M372.04724 526.1811 L241.2279 328.55688 M372.04724 526.1811 L252.91187 323.19615 M372.04724 526.1811 L264.83347 318.2686 M372.04724 526.1811 L276.71812 313.92622 M372.04724 526.1811 L288.31213 310.31304 M372.04724 526.1811 L299.39831 307.55465 M372.04724 526.1811 L309.80864 305.74983 M372.04724 526.1811 L319.43201 304.96431 M372.04724 526.1811 L328.21619 305.22696 M372.04724 526.1811 L336.16368 306.52811 M372.04724 526.1811 L343.32219 308.82011 M372.04724 526.1811 L349.77094 312.02009 M372.04724 526.1811 L355.60491 316.01494 M372.04724 526.1811 L360.91869 320.66868 M372.04724 526.1811 L365.79231 325.83186 M372.04724 526.1811 L370.28046 331.35293 M372.04724 526.1811 L374.40639 337.09055 M372.04724 526.1811 L378.16085 342.92609 M372.04724 526.1811 L381.50587 348.77477 M372.04724 526.1811 L384.38244 354.59415 M372.04724 526.1811 L386.7207 360.38849 M372.04724 526.1811 L388.45122 366.20803 M372.04724 526.1811 L389.51555 372.14244 M372.04724 526.1811 L389.87485 378.30868 M389.87485 378.30868 L389.51555 384.83417 L388.45122 391.83678 L386.7207 399.40413 L384.38244 407.57479 L381.50587 416.32404 L378.16085 425.55622 L374.40639 435.10496 L370.28046 444.74117 L365.79231 454.18771 L360.91869 463.13875 L355.60491 471.28328 L349.77094 478.32518 L343.32219 483.99731 L336.16368 488.07666 L328.21619 490.39857 L319.43201 490.8678 L309.80864 489.46497 L299.39831 486.24789 L288.31213 481.34762 L276.71812 474.95961 L264.83347 467.33084 L252.91187 458.74478 L241.2279 449.50684 L230.06047 439.92853 L219.67755 430.30401 L210.32374 420.88856 L202.21181 411.88137 L195.518 403.41398 L190.38063 395.5461 L186.90095 388.26941 L185.14489 381.51869 L185.14489 375.18864 L186.90095 369.15403 L190.38063 363.29032 L195.518 357.49234 L202.21181 351.68897 L210.32374 345.85251 L219.67755 340.00229 L230.06047 334.20276 L241.2279 328.55688 L252.91187 323.19615 L264.83347 318.2686 L276.71812 313.92622 L288.31213 310.31304 L299.39831 307.55465 L309.80864 305.74983 L319.43201 304.96431 L328.21619 305.22696 L336.16368 306.52811 L343.32219 308.82011 L349.77094 312.02009 L355.60491 316.01494 L360.91869 320.66868 L365.79231 325.83186 L370.28046 331.35293 L374.40639 337.09055 L378.16085 342.92609 L381.50587 348.77477 L384.38244 354.59415 L386.7207 360.38849 L388.45122 366.20803 L389.51555 372.14244 L389.87485 378.30868 M406.02341 378.30868 L405.4869 386.19918 L403.90523 394.84637 L401.35859 404.43999 L397.96916 415.08498 L393.8851 426.77468 L389.26032 439.37717 L384.23227 452.63702 L378.90086 466.19265 L373.31141 479.61641 L367.4447 492.4518 L361.21615 504.22629 L354.48504 514.47498 L347.07306 522.7716 L338.79009 528.75898 L329.46399 532.17392 L318.97045 532.86463 L307.25886 530.80026 L294.3706 526.07284 L280.44681 518.89156 L265.72442 509.56928 L250.52077 498.50124 L235.20907 486.13703 L220.18873 472.94899 L205.85534 459.40372 L192.57506 445.94535 L180.66662 432.97503 L170.39219 420.80449 L161.95627 409.62863 L155.51006 399.51596 L151.15845 390.41473 L148.96696 382.17359 L148.96696 374.57334 L151.15845 367.36466 L155.51006 360.30616 L161.95627 353.19777 L170.39219 345.90575 L180.66662 338.37731 L192.57506 330.64416 L205.85534 322.81629 L220.18873 315.06769 L235.20907 307.61694 L250.52077 300.70552 L265.72442 294.57654 L280.44681 289.45581 L294.3706 285.53665 L307.25886 282.96865 L318.97045 281.85021 L329.46399 282.22422 L338.79009 284.07634 L347.07306 287.33556 L354.48504 291.87715 L361.21615 297.52851 L367.4447 304.07842 L373.31141 311.29027 L378.90086 318.91922 L384.23227 326.73249 L389.26032 334.53115 L393.8851 342.17105 L397.96916 349.58 L401.35859 356.76834 L403.90523 363.83046 L405.4869 370.93575 L406.02341 378.30868" fill="none" stroke="black" stroke-width="0.03cm" />
    </g>
</svg>