<?xml version="1.0" standalone="no"?>
  <!DOCTYPE svg PUBLIC "-//W3C//DTD SVG 1.1//EN" 
      "http://www.w3.org/Graphics/SVG/1.1/DTD/svg11.dtd">
  <svg width="21cm" height="29.7cm"
      xmlns="http://www.w3.org/2000/svg" version="1.1" viewBox="0 0 744.09449 1052.3622">
    <g>
      <path d="M372.04724 526.1811 L372.13747 325.71288 M372.04724 526.1811 L371.7956 338.79456 M372.04724 526.1811 L370.77169 352.09841 M372.04724 526.1811 L369.0709 365.58304 M372.04724 526.1811 L366.70175 379.20461 M372.04724 526.1811 L363.67618 392.91715 M372.04724 526.1811 L360.0094 406.67292 M372.04724 526.1811 L355.71992 420.42277 M372.04724 526.1811 L350.82939 434.11654 M372.04724 526.1811 L345.36254 447.70345 M372.04724 526.1811 L339.34707 461.13252 M372.04724 526.1811 L332.81342 474.35293 M372.04724 526.1811 L325.79471 487.31444 M372.04724 526.1811 L318.32643 499.96769 M372.04724 526.1811 L310.44631 512.26458 M372.04724 526.1811 L302.19398 524.15853 M372.04724 526.1811 L293.61075 535.60478 M372.04724 526.1811 L284.7393 546.5606 M372.04724 526.1811 L275.62328 556.98551 M372.04724 526.1811 L266.30708 566.84141 M372.04724 526.1811 L256.83534 576.09273 M372.04724 526.1811 L247.25268 584.70652 M372.04724 526.1811 L237.60325 592.65252 M372.04724 526.1811 L227.93037 599.9032 M372.04724 526.1811 L218.27617 606.43379 M372.04724 526.1811 L208.68121 612.22227 M372.04724 526.1811 L199.18416 617.24938 M372.04724 526.1811 L189.82146 621.49858 M372.04724 526.1811 L180.62707 624.95603 M372.04724 526.1811 L171.63223 627.61057 M372.04724 526.1811 L162.86524 629.45371 M372.04724 526.1811 L154.35134 630.47958 M372.04724 526.1811 L146.11258 630.68491 M372.04724 526.1811 L138.1678 630.06907 M372.04724 526.1811 L130.53258 628.634 M372.04724 526.1811 L123.21936 626.38425 M372.04724 526.1811 L116.23745 623.32703 M372.04724 526.1811 L109.59324 619.47215 M372.04724 526.1811 L103.2903 614.8321 M372.04724 526.1811 L97.32961 609.42206 M372.04724 526.1811 L91.7098 603.25995 M372.04724 526.1811 L86.42736 596.36638 M372.04724 526.1811 L81.4769 588.76477 M372.04724 526.1811 L76.85141 580.48127 M372.04724 526.1811 L72.54252 571.54476 M372.04724 526.1811 L68.54076 561.98687 M372.04724 526.1811 L64.83584 551.84186 M372.04724 526.1811 L61.41686 541.14658 M372.04724 526.1811 L58.27254 529.94033 M372.04724 526.1811 L55.39147 518.26476 M372.04724 526.1811 L52.76224 506.16363 M372.04724 526.1811 L50.37363 493.68264 M372.04724 526.1811 L48.21477 480.86916 M372.04724 526.1811 L46.27526 467.77197 M372.04724 526.1811 L44.54526 454.4409 M372.04724 526.1811 L43.0156 440.92654 M372.04724 526.1811 L41.67788 427.27983 M372.04724 526.1811 L40.52447 413.5517 M372.04724 526.1811 L39.54862 399.79268 M372.04724 526.1811 L38.74447 386.05245 M372.04724 526.1811 L38.1071 372.37953 M372.04724 526.1811 L37.63256 358.82081 M372.04724 526.1811 L37.31786 345.42124 M372.04724 526.1811 L37.16101 332.22347 M372.04724 526.1811 L37.16101 319.26754 M372.04724 526.1811 L37.31786 306.59064 M372.04724 526.1811 L37.63256 294.22686 M372.04724 526.1811 L38.1071 282.20705 M372.04724 526.1811 L38.74447 270.55867 M372.04724 526.1811 L39.54862 259.30575 M372.04724 526.1811 L40.52447 248.46887 M372.04724 526.1811 L41.67788 238.06516 M372.04724 526.1811 L43.0156 228.10845 M372.04724 526.1811 L44.54526 218.60934 M372.04724 526.1811 L46.27526 209.57542 M372.04724 526.1811 L48.21477 201.01142 M372.04724 526.1811 L50.37363 192.91948 M372.04724 526.1811 L52.76224 185.29939 M372.04724 526.1811 L55.39147 178.14885 M372.04724 526.1811 L58.27254 171.46378 M372.04724 526.1811 L61.41686 165.23857 M372.04724 526.1811 L64.83584 159.46638 M372.04724 526.1811 L68.54076 154.13941 M372.04724 526.1811 L72.54252 149.24918 M372.04724 526.1811 L76.85141 144.78677 M372.04724 526.1811 L81.4769 140.74308 M372.04724 526.1811 L86.42736 137.10902 M372.04724 526.1811 L91.7098 133.87575 M372.04724 526.1811 L97.32961 131.03483 M372.04724 526.1811 L103.2903 128.5784 M372.04724 526.1811 L109.59324 126.49935 M372.04724 526.1811 L116.23745 124.79136 M372.04724 526.1811 L123.21936 123.44912 M372.04724 526.1811 L130.53258 122.4683 M372.04724 526.1811 L138.1678 121.84569 M372.04724 526.1811 L146.11258 121.57923 M372.04724 526.1811 L154.35134 121.66802 M372.04724 526.1811 L162.86524 122.11237 M372.04724 526.1811 L171.63223 122.91376 M372.04724 526.1811 L180.62707 124.07482 M372.04724 526.1811 L189.82146 125.59933 M372.04724 526.1811 L199.18416 127.49212 M372.04724 526.1811 L208.68121 129.75902 M372.04724 526.1811 L218.27617 132.40675 M372.04724 526.1811 L227.93037 135.44282 M372.04724 526.1811 L237.60325 138.87541 M372.04724 526.1811 L247.25268 142.71316 M372.04724 526.1811 L256.83534 146.96506 M372.04724 526.1811 L266.30708 151.64025 M372.04724 526.1811 L275.62328 156.74776 M372.04724 526.1811 L284.7393 162.29631 M372.04724 526.1811 L293.61075 168.29409 M372.04724 526.1811 L302.19398 174.74845 M372.04724 526.1811 L310.44631 181.66564 M372.04724 526.1811 L318.32643 189.05055 M372.04724 526.1811 L325.79471 196.90641 M372.04724 526.1811 L332.81342 205.23449 M372.04724 526.1811 L339.34707 214.03388 M372.04724 526.1811 L345.36254 223.30115 M372.04724 526.1811 L350.82939 233.03019 M372.04724 526.1811 L355.71992 243.21192 M372.04724 526.1811 L360.0094 253.83415 M372.04724 526.1811 L363.67618 264.88141 M372.04724 526.1811 L366.70175 276.33485 M372.04724 526.1811 L369.0709 288.17216 M372.04724 526.1811 L370.77169 300.3676 M372.04724 526.1811 L371.7956 312.892 M372.04724 526.1811 L372.13747 325.71288 M372.13747 325.71288 L371.7956 338.79456 L370.77169 352.09841 L369.0709 365.58304 L366.70175 379.20461 L363.67618 392.91715 L360.0094 406.67292 L355.71992 420.42277 L350.82939 434.11654 L345.36254 447.70345 L339.34707 461.13252 L332.81342 474.35293 L325.79471 487.31444 L318.32643 499.96769 L310.44631 512.26458 L302.19398 524.15853 L293.61075 535.60478 L284.7393 546.5606 L275.62328 556.98551 L266.30708 566.84141 L256.83534 576.09273 L247.25268 584.70652 L237.60325 592.65252 L227.93037 599.9032 L218.27617 606.43379 L208.68121 612.22227 L199.18416 617.24938 L189.82146 621.49858 L180.62707 624.95603 L171.63223 627.61057 L162.86524 629.45371 L154.35134 630.47958 L146.11258 630.68491 L138.1678 630.06907 L130.53258 628.634 L123.21936 626.38425 L116.23745 623.32703 L109.59324 619.47215 L103.2903 614.8321 L97.32961 609.42206 L91.7098 603.25995 L86.42736 596.36638 L81.4769 588.76477 L76.85141 580.48127 L72.54252 571.54476 L68.54076 561.98687 L64.83584 551.84186 L61.41686 541.14658 L58.27254 529.94033 L55.39147 518.26476 L52.76224 506.16363 L50.37363 493.68264 L48.21477 480.86916 L46.27526 467.77197 L44.54526 454.4409 L43.0156 440.92654 L41.67788 427.27983 L40.52447 413.5517 L39.54862 399.79268 L38.74447 386.05245 L38.1071 372.37953 L37.63256 358.82081 L37.31786 345.42124 L37.16101 332.22347 L37.16101 319.26754 L37.31786 306.59064 L37.63256 294.22686 L38.1071 282.20705 L38.74447 270.55867 L39.54862 259.30575 L40.52447 248.46887 L41.67788 238.06516 L43.0156 228.10845 L44.54526 218.60934 L46.27526 209.57542 L48.21477 201.01142 L50.37363 192.91948 L52.76224 185.29939 L55.39147 178.14885 L58.27254 171.46378 L61.41686 165.23857 L64.83584 159.46638 L68.54076 154.13941 L72.54252 149.24918 L76.85141 144.78677 L81.4769 140.74308 L86.42736 137.10902 L91.7098 133.87575 L97.32961 131.03483 L103.2903 128.5784 L109.59324 126.49935 L116.23745 124.79136 L123.21936 123.44912 L130.53258 122.4683 L138.1678 121.84569 L146.11258 121.57923 L154.35134 121.66802 L162.86524 122.11237 L171.63223 122.91376 L180.62707 124.07482 L189.82146 125.59933 L199.18416 127.49212 L208.68121 129.75902 L218.27617 132.40675 L227.93037 135.44282 L237.60325 138.87541 L247.25268 142.71316 L256.83534 146.96506 L266.30708 151.64025 L275.62328 156.74776 L284.7393 162.29631 L293.61075 168.29409 L302.19398 174.74845 L310.44631 181.66564 L318.32643 189.05055 L325.79471 196.90641 L332.81342 205.23449 L339.34707 214.03388 L345.36254 223.30115 L350.82939 233.03019 L355.71992 243.21192 L360.0094 253.83415 L363.67618 264.88141 L366.70175 276.33485 L369.0709 288.17216 L370.77169 300.3676 L371.7956 312.892 L372.13747 325.71288 M429.90621 325.71288 L429.46904 341.4417 L428.1597 357.49632 L425.98472 373.8228 L422.95492 390.3635 L419.08546 407.05757 L414.39579 423.84155 L408.90958 440.64995 L402.6547 457.41592 L395.66312 474.07187 L387.97078 490.5501 L379.61749 506.78342 L370.6467 522.70573 L361.10534 538.25252 L351.04348 553.36141 L340.51407 567.97251 L329.57255 582.02878 L318.27644 595.47636 L306.68489 608.26475 L294.85818 620.347 L282.85716 631.67976 L270.74272 642.22341 L258.57515 651.94197 L246.4136 660.80314 L234.31549 668.77821 L222.33589 675.84193 L210.52702 681.97248 L198.93771 687.1513 L187.613 691.36303 L176.59373 694.59537 L165.91625 696.83899 L155.61216 698.08752 L145.70819 698.3374 L136.22618 697.58793 L127.18304 695.84124 L118.59092 693.10227 L110.45739 689.37889 L102.78568 684.68189 L95.57501 679.02509 L88.82095 672.42543 L82.51582 664.9031 L76.64907 656.48161 L71.20773 647.18793 L66.17685 637.05256 L61.53995 626.10963 L57.27942 614.39694 L53.37692 601.95598 L49.81375 588.83189 L46.57118 575.07344 L43.63067 560.73282 L40.9742 545.86551 L38.58437 530.53002 L36.4446 514.78753 L35.43307 506.24775 M35.43307 185.30028 L36.4446 180.18008 L38.58437 171.13159 L40.9742 162.67172 L43.63067 154.79021 L46.57118 147.47461 L49.81375 140.71067 L53.37692 134.48285 L57.27942 128.77469 L61.53995 123.56925 L66.17685 118.84943 L71.20773 114.59838 L76.64907 110.79974 L82.51582 107.43792 L88.82095 104.49837 L95.57501 101.96775 L102.78568 99.83411 L110.45739 98.08704 L118.59092 96.71777 L127.18304 95.71928 L136.22618 95.08638 L145.70819 94.81574 L155.61216 94.90591 L165.91625 95.35739 L176.59373 96.17254 L187.613 97.35566 L198.93771 98.91284 L210.52702 100.852 L222.33589 103.18273 L234.31549 105.91623 L246.4136 109.06516 L258.57515 112.6435 L270.74272 116.66635 L282.85716 121.1497 L294.85818 126.1102 L306.68489 131.56487 L318.27644 137.53076 L329.57255 144.02463 L340.51407 151.06252 L351.04348 158.6594 L361.10534 166.82866 L370.6467 175.58172 L379.61749 184.92754 L387.97078 194.87218 L395.66312 205.41832 L402.6547 216.56487 L408.90958 228.30656 L414.39579 240.6336 L419.08546 253.53139 L422.95492 266.9803 L425.98472 280.95553 L428.1597 295.42704 L429.46904 310.3596 L429.90621 325.71288 M491.07213 325.71288 L490.53544 344.099 L488.92793 362.93357 L486.25725 382.14784 L482.53618 401.66774 L477.78265 421.41463 L472.01975 441.30624 L465.27576 461.25762 L457.58416 481.1821 L448.98364 500.9923 L439.51799 520.60105 L429.2361 539.92236 L418.19178 558.8722 L406.44355 577.36932 L394.0544 595.33587 L381.09142 612.69794 L367.62542 629.38603 L353.73033 645.33534 L339.48269 660.486 L324.96091 674.78317 L310.24456 688.17707 L295.41352 700.62289 L280.54715 712.08069 L265.7234 722.51519 L251.01792 731.89557 L236.50314 740.19523 L222.2475 747.39151 L208.31464 753.46545 L194.76267 758.40158 L181.64365 762.18765 L169.00307 764.81449 L156.87952 766.27585 L145.30452 766.5683 L134.30244 765.69114 L123.89059 763.64643 L114.07946 760.43902 L104.87307 756.07658 L96.26942 750.56982 L88.26102 743.93256 L80.83551 736.182 L73.97624 727.3389 L67.66298 717.42788 L61.87263 706.4776 L56.5799 694.5211 L51.75801 681.59595 L47.37926 667.7445 L43.41565 653.01405 L39.8393 637.45689 L36.62277 621.1304 L35.43307 614.10257 M35.43307 128.94961 L36.62277 125.76249 L39.8393 118.67765 L43.41565 112.20607 L47.37926 106.3206 L51.75801 100.99405 L56.5799 96.19961 L61.87263 91.91138 L67.66298 88.10465 L73.97624 84.75627 L80.83551 81.84489 L88.26102 79.35118 L96.26942 77.25802 L104.87307 75.55062 L114.07946 74.21664 L123.89059 73.24624 L134.30244 72.63219 L145.30452 72.36985 L156.87952 72.45724 L169.00307 72.89502 L181.64365 73.6865 L194.76267 74.83763 L208.31464 76.35693 L222.2475 78.25551 L236.50314 80.54695 L251.01792 83.24721 L265.7234 86.37454 L280.54715 89.94931 L295.41352 93.9938 L310.24456 98.53196 L324.96091 103.58915 L339.48269 109.19178 L353.73033 115.36689 L367.62542 122.14173 L381.09142 129.54323 L394.0544 137.59742 L406.44355 146.32882 L418.19178 155.75976 L429.2361 165.90972 L439.51799 176.79458 L448.98364 188.42595 L457.58416 200.81046 L465.27576 213.94912 L472.01975 227.83673 L477.78265 242.46137 L482.53618 257.80401 L486.25725 273.83821 L488.92793 290.53001 L490.53544 307.83787 L491.07213 325.71288 M555.0377 325.71288 L554.40009 346.76641 L552.49007 368.40973 L549.31603 390.55664 L544.89203 413.1135 L539.23789 435.9805 L532.37932 459.05297 L524.34803 482.22283 L515.18185 505.38005 L504.92494 528.41413 L493.62778 551.21547 L481.34731 573.67671 L468.14684 595.69389 L454.09601 617.16752 L439.27052 638.00343 L423.75188 658.11341 L407.62689 677.41578 L390.98709 695.83562 L373.928 713.305 L356.54827 729.76286 L338.94865 745.15498 L321.23088 759.4336 L303.4965 772.55717 L285.84554 784.48987 L268.37525 795.20121 L251.17875 804.6655 L234.34381 812.86145 L217.95169 819.77165 L202.07604 825.38223 L186.78205 829.68243 L172.12574 832.66435 L158.15345 834.32266 L144.90158 834.65447 L132.39654 833.65919 L120.65494 831.33857 L109.684 827.69668 L99.4821 822.74014 L90.03957 816.47821 L81.33951 808.92319 L73.35873 800.09067 L66.06868 789.99993 L59.4366 778.6744 L53.4266 766.14213 L48.00067 752.43621 L43.11965 737.59527 L38.74404 721.66392 L35.43307 707.29172 M35.43307 91.64219 L38.74404 86.66237 L43.11965 81.38617 L48.00067 76.67639 L53.4266 72.49722 L59.4366 68.81507 L66.06868 65.59888 L73.35873 62.82036 L81.33951 60.45422 L90.03957 58.47827 L99.4821 56.87353 L109.684 55.62427 L120.65494 54.71803 L132.39654 54.14569 L144.90158 53.90145 L158.15345 53.98279 L172.12574 54.39057 L186.78205 55.12892 L202.07604 56.20532 L217.95169 57.63056 L234.34381 59.41874 L251.17875 61.5872 L268.37525 64.15656 L285.84554 67.15057 L303.4965 70.59603 L321.23088 74.52263 L338.94865 78.96276 L356.54827 83.95115 L373.928 89.52457 L390.98709 95.72132 L407.62689 102.58071 L423.75188 110.14241 L439.27052 118.44573 L454.09601 127.52879 L468.14684 137.42759 L481.34731 148.17505 L493.62778 159.79997 L504.92494 172.32595 L515.18185 185.77037 L524.34803 200.14337 L532.37932 215.44689 L539.23789 231.67387 L544.89203 248.80757 L549.31603 266.82102 L552.49007 285.67679 L554.40009 305.32688 L555.0377 325.71288" fill="none" stroke="black" stroke-width="0.03cm" />
    </g>
</svg>