<?xml version="1.0" standalone="no"?>
  <!DOCTYPE svg PUBLIC "-//W3C//DTD SVG 1.1//EN" 
      "http://www.w3.org/Graphics/SVG/1.1/DTD/svg11.dtd">
  <svg width="29.7cm" height="42cm"
      xmlns="http://www.w3.org/2000/svg" version="1.1" viewBox="0 0 1052.3622 1488.18898">
    <g>
      <path d="M526.1811 744.09449 L833.51619 811.38516 M526.1811 744.09449 L830.73092 837.64267 M526.1811 744.09449 L822.77192 868.32309 M526.1811 744.09449 L810.45513 903.31323 M526.1811 744.09449 L793.95329 939.04853 M526.1811 744.09449 L771.57969 970.67471 M526.1811 744.09449 L739.91653 994.34685 M526.1811 744.09449 L695.89837 1007.97827 M526.1811 744.09449 L641.11474 1010.73766 M526.1811 744.09449 L581.63819 1002.49092 M526.1811 744.09449 L524.02916 983.67314 M526.1811 744.09449 L472.88447 955.65797 M526.1811 744.09449 L430.53712 921.39083 M526.1811 744.09449 L397.93898 885.44406 M526.1811 744.09449 L375.65417 852.33623 M526.1811 744.09449 L364.28336 824.12435 M526.1811 744.09449 L364.28336 798.81736 M526.1811 744.09449 L375.65417 771.57289 M526.1811 744.09449 L397.93898 739.05921 M526.1811 744.09449 L430.53712 702.20101 M526.1811 744.09449 L472.88447 665.93865 M526.1811 744.09449 L524.02916 635.65634 M526.1811 744.09449 L581.63819 614.98876 M526.1811 744.09449 L641.11474 605.84157 M526.1811 744.09449 L695.89837 608.90863 M526.1811 744.09449 L739.91653 623.96734 M526.1811 744.09449 L771.57969 649.77665 M526.1811 744.09449 L793.95329 683.62709 M526.1811 744.09449 L810.45513 720.92554 M526.1811 744.09449 L822.77192 756.02389 M526.1811 744.09449 L830.73092 785.73758 M526.1811 744.09449 L833.51619 811.38516 M833.51619 811.38516 L830.73092 837.64267 L822.77192 868.32309 L810.45513 903.31323 L793.95329 939.04853 L771.57969 970.67471 L739.91653 994.34685 L695.89837 1007.97827 L641.11474 1010.73766 L581.63819 1002.49092 L524.02916 983.67314 L472.88447 955.65797 L430.53712 921.39083 L397.93898 885.44406 L375.65417 852.33623 L364.28336 824.12435 L364.28336 798.81736 L375.65417 771.57289 L397.93898 739.05921 L430.53712 702.20101 L472.88447 665.93865 L524.02916 635.65634 L581.63819 614.98876 L641.11474 605.84157 L695.89837 608.90863 L739.91653 623.96734 L771.57969 649.77665 L793.95329 683.62709 L810.45513 720.92554 L822.77192 756.02389 L830.73092 785.73758 L833.51619 811.38516 M864.34249 811.38516 L860.14626 843.47391 L848.44426 883.06533 L831.45857 929.4843 L811.19678 976.23311 L786.794 1016.03055 L752.98878 1044.67002 L703.37093 1060.70807 L638.19044 1063.91503 L566.40712 1054.29132 L497.60361 1031.88099 L437.44863 997.34591 L387.82927 953.32417 L349.05147 905.73697 L321.81704 862.1945 L307.58659 826.76134 L307.58659 796.2519 L321.81704 762.01098 L349.05147 718.43489 L387.82927 668.43609 L437.44863 620.66714 L497.60361 582.11432 L566.40712 556.48127 L638.19044 545.30239 L703.37093 549.0397 L752.98878 567.55177 L786.794 599.94007 L811.19678 643.75356 L831.45857 693.719 L848.44426 741.44007 L860.14626 780.12169 L864.34249 811.38516" fill="none" stroke="black" stroke-width="0.03cm" />
    </g>
</svg>