<?xml version="1.0" standalone="no"?>
  <!DOCTYPE svg PUBLIC "-//W3C//DTD SVG 1.1//EN" 
      "http://www.w3.org/Graphics/SVG/1.1/DTD/svg11.dtd">
  <svg width="21cm" height="29.7cm"
      xmlns="http://www.w3.org/2000/svg" version="1.1" viewBox="0 0 744.09449 1052.3622">
    <g>
      <path d="M372.04724 526.1811 L708.66142 713.85934 M372.04724 526.1811 L708.66142 720.31813 M372.04724 526.1811 L708.66142 726.82672 M372.04724 526.1811 L708.66142 733.39202 M372.04724 526.1811 L708.66142 740.02238 M372.04724 526.1811 L708.66142 746.72771 M372.04724 526.1811 L708.66142 753.51944 M372.04724 526.1811 L708.66142 760.41065 M372.04724 526.1811 L708.66142 767.41609 M372.04724 526.1811 L708.66142 774.55233 M372.04724 526.1811 L708.66142 781.83785 M372.04724 526.1811 L708.66142 789.29324 M372.04724 526.1811 L708.66142 796.94132 M372.04724 526.1811 L708.66142 804.80746 M372.04724 526.1811 L708.66142 812.91977 M372.04724 526.1811 L708.66142 821.30951 M372.04724 526.1811 L708.66142 830.0114 M372.04724 526.1811 L708.66142 839.06415 M372.04724 526.1811 L708.66142 848.51094 M372.04724 526.1811 L708.66142 858.40016 M372.04724 526.1811 L706.86037 866.95299 M372.04724 526.1811 L699.42139 870.02499 M372.04724 526.1811 L691.63139 872.82844 M372.04724 526.1811 L683.49567 875.36209 M372.04724 526.1811 L675.0207 877.62477 M372.04724 526.1811 L666.21427 879.61549 M372.04724 526.1811 L657.08559 881.33335 M372.04724 526.1811 L647.64548 882.7776 M372.04724 526.1811 L637.9065 883.94758 M372.04724 526.1811 L627.88302 884.84277 M372.04724 526.1811 L617.59143 885.46278 M372.04724 526.1811 L607.05016 885.80732 M372.04724 526.1811 L596.27985 885.87623 M372.04724 526.1811 L585.30336 885.66949 M372.04724 526.1811 L574.14582 885.1872 M372.04724 526.1811 L562.83469 884.42955 M372.04724 526.1811 L551.39969 883.39691 M372.04724 526.1811 L539.87279 882.08972 M372.04724 526.1811 L528.28809 880.50858 M372.04724 526.1811 L516.6817 878.65418 M372.04724 526.1811 L505.0916 876.52736 M372.04724 526.1811 L493.55738 874.12907 M372.04724 526.1811 L482.12001 871.46037 M372.04724 526.1811 L470.82149 868.52247 M372.04724 526.1811 L459.70463 865.31672 M372.04724 526.1811 L448.81266 861.8446 M372.04724 526.1811 L438.18895 858.10778 M372.04724 526.1811 L427.8767 854.10808 M372.04724 526.1811 L417.91853 849.84757 M372.04724 526.1811 L408.35621 845.32853 M372.04724 526.1811 L399.23031 840.55353 M372.04724 526.1811 L390.57991 835.52546 M372.04724 526.1811 L382.4423 830.24759 M372.04724 526.1811 L374.8527 824.72359 M372.04724 526.1811 L367.84406 818.95768 M372.04724 526.1811 L361.44683 812.95459 M372.04724 526.1811 L355.68882 806.71974 M372.04724 526.1811 L350.59499 800.25925 M372.04724 526.1811 L346.1874 793.58006 M372.04724 526.1811 L342.48506 786.69001 M372.04724 526.1811 L339.50394 779.59793 M372.04724 526.1811 L337.25683 772.31373 M372.04724 526.1811 L335.75339 764.8485 M372.04724 526.1811 L335.00006 757.21455 M372.04724 526.1811 L335.00006 749.42556 M372.04724 526.1811 L335.75339 741.49656 M372.04724 526.1811 L337.25683 733.44404 M372.04724 526.1811 L339.50394 725.28601 M372.04724 526.1811 L342.48506 717.04196 M372.04724 526.1811 L346.1874 708.73292 M372.04724 526.1811 L350.59499 700.38142 M372.04724 526.1811 L355.68882 692.01149 M372.04724 526.1811 L361.44683 683.64857 M372.04724 526.1811 L367.84406 675.31943 M372.04724 526.1811 L374.8527 667.05208 M372.04724 526.1811 L382.4423 658.87564 M372.04724 526.1811 L390.57991 650.82016 M372.04724 526.1811 L399.23031 642.91646 M372.04724 526.1811 L408.35621 635.19593 M372.04724 526.1811 L417.91853 627.6903 M372.04724 526.1811 L427.8767 620.43143 M372.04724 526.1811 L438.18895 613.45102 M372.04724 526.1811 L448.81266 606.78039 M372.04724 526.1811 L459.70463 600.45018 M372.04724 526.1811 L470.82149 594.49014 M372.04724 526.1811 L482.12001 588.9288 M372.04724 526.1811 L493.55738 583.79328 M372.04724 526.1811 L505.0916 579.10899 M372.04724 526.1811 L516.6817 574.89944 M372.04724 526.1811 L528.28809 571.18599 M372.04724 526.1811 L539.87279 567.98769 M372.04724 526.1811 L551.39969 565.32108 M372.04724 526.1811 L562.83469 563.20004 M372.04724 526.1811 L574.14582 561.63568 M372.04724 526.1811 L585.30336 560.63622 M372.04724 526.1811 L596.27985 560.20694 M372.04724 526.1811 L607.05016 560.3501 M372.04724 526.1811 L617.59143 561.06494 M372.04724 526.1811 L627.88302 562.34769 M372.04724 526.1811 L637.9065 564.1916 M372.04724 526.1811 L647.64548 566.58699 M372.04724 526.1811 L657.08559 569.52135 M372.04724 526.1811 L666.21427 572.97945 M372.04724 526.1811 L675.0207 576.94348 M372.04724 526.1811 L683.49567 581.39321 M372.04724 526.1811 L691.63139 586.30618 M372.04724 526.1811 L699.42139 591.6579 M372.04724 526.1811 L706.86037 597.42207 M372.04724 526.1811 L708.66142 602.37509 M372.04724 526.1811 L708.66142 607.18544 M372.04724 526.1811 L708.66142 612.20921 M372.04724 526.1811 L708.66142 617.42174 M372.04724 526.1811 L708.66142 622.80063 M372.04724 526.1811 L708.66142 628.32556 M372.04724 526.1811 L708.66142 633.97816 M372.04724 526.1811 L708.66142 639.74192 M372.04724 526.1811 L708.66142 645.60209 M372.04724 526.1811 L708.66142 651.54567 M372.04724 526.1811 L708.66142 657.56129 M372.04724 526.1811 L708.66142 663.63925 M372.04724 526.1811 L708.66142 669.77143 M372.04724 526.1811 L708.66142 675.9513 M372.04724 526.1811 L708.66142 682.17388 M372.04724 526.1811 L708.66142 688.43573 M372.04724 526.1811 L708.66142 694.7349 M372.04724 526.1811 L708.66142 701.07096 M372.04724 526.1811 L708.66142 707.44494 M372.04724 526.1811 L708.66142 713.85934 M708.66142 866.10401 L706.86037 866.95299 L699.42139 870.02499 L691.63139 872.82844 L683.49567 875.36209 L675.0207 877.62477 L666.21427 879.61549 L657.08559 881.33335 L647.64548 882.7776 L637.9065 883.94758 L627.88302 884.84277 L617.59143 885.46278 L607.05016 885.80732 L596.27985 885.87623 L585.30336 885.66949 L574.14582 885.1872 L562.83469 884.42955 L551.39969 883.39691 L539.87279 882.08972 L528.28809 880.50858 L516.6817 878.65418 L505.0916 876.52736 L493.55738 874.12907 L482.12001 871.46037 L470.82149 868.52247 L459.70463 865.31672 L448.81266 861.8446 L438.18895 858.10778 L427.8767 854.10808 L417.91853 849.84757 L408.35621 845.32853 L399.23031 840.55353 L390.57991 835.52546 L382.4423 830.24759 L374.8527 824.72359 L367.84406 818.95768 L361.44683 812.95459 L355.68882 806.71974 L350.59499 800.25925 L346.1874 793.58006 L342.48506 786.69001 L339.50394 779.59793 L337.25683 772.31373 L335.75339 764.8485 L335.00006 757.21455 L335.00006 749.42556 L335.75339 741.49656 L337.25683 733.44404 L339.50394 725.28601 L342.48506 717.04196 L346.1874 708.73292 L350.59499 700.38142 L355.68882 692.01149 L361.44683 683.64857 L367.84406 675.31943 L374.8527 667.05208 L382.4423 658.87564 L390.57991 650.82016 L399.23031 642.91646 L408.35621 635.19593 L417.91853 627.6903 L427.8767 620.43143 L438.18895 613.45102 L448.81266 606.78039 L459.70463 600.45018 L470.82149 594.49014 L482.12001 588.9288 L493.55738 583.79328 L505.0916 579.10899 L516.6817 574.89944 L528.28809 571.18599 L539.87279 567.98769 L551.39969 565.32108 L562.83469 563.20004 L574.14582 561.63568 L585.30336 560.63622 L596.27985 560.20694 L607.05016 560.3501 L617.59143 561.06494 L627.88302 562.34769 L637.9065 564.1916 L647.64548 566.58699 L657.08559 569.52135 L666.21427 572.97945 L675.0207 576.94348 L683.49567 581.39321 L691.63139 586.30618 L699.42139 591.6579 L706.86037 597.42207 L708.66142 598.98541 M708.66142 892.75782 L708.181 892.92901 L698.75626 895.8236 L688.90418 898.4073 L678.62974 900.67945 L667.93971 902.63946 L656.84289 904.28679 L645.35032 905.62098 L633.47555 906.64163 L621.23485 907.34843 L608.64745 907.74117 L595.73569 907.81972 L582.52522 907.58407 L569.04515 907.03427 L555.32806 906.17052 L541.41013 904.99305 L527.33104 903.50224 L513.13391 901.69851 L498.86512 899.58236 L484.57406 897.15435 L470.31271 894.41512 L456.13524 891.36533 L442.09758 888.00569 L428.25701 884.33694 L414.67161 880.35986 L401.39976 876.07527 L388.49961 871.48404 L376.02852 866.58714 L364.0425 861.3856 L352.59577 855.88062 L341.74019 850.07361 L331.52477 843.96619 L321.99538 837.56037 L313.19453 830.85855 L305.16123 823.86369 L297.93079 816.57937 L291.53476 809.00996 L286.00084 801.16075 L281.35282 793.03807 L277.61055 784.64949 L274.78993 776.00392 L272.9029 767.11184 L271.95739 757.98537 L271.95739 748.63849 L272.9029 739.08713 L274.78993 729.34932 L277.61055 719.44531 L281.35282 709.3976 L286.00084 699.23104 L291.53476 688.97284 L297.93079 678.65257 L305.16123 668.30209 L313.19453 657.95548 L321.99538 647.64889 L331.52477 637.42038 L341.74019 627.3097 L352.59577 617.35801 L364.0425 607.60763 L376.02852 598.10164 L388.49961 588.88359 L401.39976 579.99706 L414.67161 571.4853 L428.25701 563.3908 L442.09758 555.75488 L456.13524 548.61732 L470.31271 542.01592 L484.57406 535.98619 L498.86512 530.56094 L513.13391 525.77004 L527.33104 521.64009 L541.41013 518.19416 L555.32806 515.45163 L569.04515 513.428 L582.52522 512.13472 L595.73569 511.57914 L608.64745 511.76442 L621.23485 512.68951 L633.47555 514.34914 L645.35032 516.73391 L656.84289 519.83032 L667.93971 523.62092 L678.62974 528.08446 L688.90418 533.19606 L698.75626 538.92748 L708.181 545.24732 L708.66142 545.61451 M708.66142 916.60232 L702.37835 918.22869 L690.7231 920.7632 L678.55187 922.94912 L665.86976 924.78606 L652.68464 926.27365 L639.00757 927.41155 L624.85317 928.19951 L610.24002 928.63733 L595.19099 928.7249 L579.73357 928.4622 L563.90016 927.84929 L547.72828 926.88633 L531.2607 925.57355 L514.54547 923.91124 L497.63586 921.89976 L480.59009 919.53949 L463.47081 916.83083 L446.34459 913.77418 L429.28137 910.36987 L412.35389 906.61821 L395.63688 902.51939 L379.20635 898.07352 L363.13873 893.28058 L347.50997 888.14041 L332.3944 882.65274 L317.86367 876.81717 L303.98614 870.63324 L290.82644 864.10045 L278.44515 857.21834 L266.89851 849.98659 L256.23819 842.40511 L246.51119 834.4742 L237.75974 826.1947 L230.02125 817.56818 L223.32831 808.59713 L217.70874 799.28519 L213.18559 789.63737 L209.77723 779.66031 L207.4974 769.36255 L206.35521 758.75473 L206.35521 747.84991 L207.4974 736.66376 L209.77723 725.21481 L213.18559 713.52466 L217.70874 701.61812 L223.32831 689.5234 L230.02125 677.27214 L237.75974 664.89949 L246.51119 652.44408 L256.23819 639.94793 L266.89851 627.45628 L278.44515 615.01741 L290.82644 602.68229 L303.98614 590.50423 L317.86367 578.53847 L332.3944 566.84166 L347.50997 555.47135 L363.13873 544.48538 L379.20635 533.94131 L395.63688 523.8958 L412.35389 514.40401 L429.28137 505.51902 L446.34459 497.29123 L463.47081 489.76789 L480.59009 482.99262 L497.63586 477.00497 L514.54547 471.8401 L531.2607 467.52848 L547.72828 464.0956 L563.90016 461.56183 L579.73357 459.94221 L595.19099 459.24636 L610.24002 459.47842 L624.85317 460.63702 L639.00757 462.71526 L652.68464 465.7008 L665.86976 469.57592 L678.55187 474.31767 L690.7231 479.89804 L702.37835 486.28418 L708.66142 490.32063 M708.66142 938.6898 L702.50366 940.01298 L688.92783 942.41347 L674.72932 944.43063 L659.91102 946.06412 L644.47968 947.3136 L628.44654 948.17882 L611.8279 948.65956 L594.64576 948.75571 L576.92835 948.46725 L558.71064 947.79426 L540.03481 946.73688 L520.9505 945.29536 L501.51502 943.46999 L481.79326 941.26112 L461.85715 938.6691 L441.785 935.69429 L421.66095 932.33696 L401.57415 928.59728 L381.61782 924.4753 L361.88817 919.97081 L342.48306 915.08339 L323.49996 909.81228 L305.03388 904.15637 L287.17645 898.11419 L270.01511 891.68385 L253.63255 884.86307 L238.10616 877.64923 L223.50772 870.03939 L209.90312 862.03042 L197.35226 853.61911 L185.90898 844.80234 L175.62109 835.5773 L166.53052 825.9417 L158.67339 815.89408 L152.08024 805.4341 L146.77614 794.56289 L142.78094 783.28339 L140.10936 771.60073 L138.77115 759.52264 L138.77115 747.05983 L140.10936 734.22635 L142.78094 721.04002 L146.77614 707.52269 L152.08024 693.70066 L158.67339 679.60483 L166.53052 665.27097 L175.62109 650.73984 L185.90898 636.05718 L197.35226 621.27369 L209.90312 606.44485 L223.50772 591.63062 L238.10616 576.89505 L253.63255 562.30577 L270.01511 547.93335 L287.17645 533.85059 L305.03388 520.13173 L323.49996 506.85159 L342.48306 494.08468 L361.88817 481.90427 L381.61782 470.38148 L401.57415 459.58451 L421.66095 449.57793 L441.785 440.42201 L461.85715 432.17213 L481.79326 424.87832 L501.51502 418.58486 L520.9505 413.32992 L540.03481 409.14534 L558.71064 406.05642 L576.92835 404.08181 L594.64576 403.23342 L611.8279 403.51636 L628.44654 404.92892 L644.47968 407.4626 L659.91102 411.1021 L674.72932 415.82544 L688.92783 421.60402 L702.50366 428.40281 L708.66142 432.10014" fill="none" stroke="black" stroke-width="0.03cm" />
    </g>
</svg>