<?xml version="1.0" standalone="no"?>
  <!DOCTYPE svg PUBLIC "-//W3C//DTD SVG 1.1//EN" 
      "http://www.w3.org/Graphics/SVG/1.1/DTD/svg11.dtd">
  <svg width="29.7cm" height="42cm"
      xmlns="http://www.w3.org/2000/svg" version="1.1" viewBox="0 0 1052.3622 1488.18898">
    <g>
      <path d="M526.1811 744.09449 L587.80529 525.82124 M526.1811 744.09449 L585.82209 560.12261 M526.1811 744.09449 L579.95966 598.54252 M526.1811 744.09449 L570.47646 640.46065 M526.1811 744.09449 L557.79169 684.9148 M526.1811 744.09449 L542.46503 730.70149 M526.1811 744.09449 L525.16367 776.51542 M526.1811 744.09449 L506.61608 821.06831 M526.1811 744.09449 L487.55672 863.20892 M526.1811 744.09449 L468.67353 901.98489 M526.1811 744.09449 L450.57888 936.615 M526.1811 744.09449 L433.81017 966.47889 M526.1811 744.09449 L418.76164 991.11138 M526.1811 744.09449 L405.60765 1010.18795 M526.1811 744.09449 L394.28881 1023.50067 M526.1811 744.09449 L384.53453 1030.92976 M526.1811 744.09449 L375.91719 1032.41821 M526.1811 744.09449 L367.92846 1027.95546 M526.1811 744.09449 L360.06346 1017.57401 M526.1811 744.09449 L351.89764 1001.35955 M526.1811 744.09449 L343.14385 979.4724 M526.1811 744.09449 L333.68221 952.17532 M526.1811 744.09449 L323.56209 919.86068 M526.1811 744.09449 L312.98038 883.07012 M526.1811 744.09449 L302.24425 842.50394 M526.1811 744.09449 L291.7272 799.02639 M526.1811 744.09449 L281.82626 753.68697 M526.1811 744.09449 L272.92578 707.72246 M526.1811 744.09449 L265.37035 662.44183 M526.1811 744.09449 L259.44702 619.11732 M526.1811 744.09449 L255.37527 578.84777 M526.1811 744.09449 L253.30249 542.43304 M526.1811 744.09449 L253.30249 510.30682 M526.1811 744.09449 L255.37527 482.55186 M526.1811 744.09449 L259.44702 458.99679 M526.1811 744.09449 L265.37035 439.3616 M526.1811 744.09449 L272.92578 423.30091 M526.1811 744.09449 L281.82626 410.34476 M526.1811 744.09449 L291.7272 399.95934 M526.1811 744.09449 L302.24425 391.62278 M526.1811 744.09449 L312.98038 384.88069 M526.1811 744.09449 L323.56209 379.3777 M526.1811 744.09449 L333.68221 374.86625 M526.1811 744.09449 L343.14385 371.19755 M526.1811 744.09449 L351.89764 368.30112 M526.1811 744.09449 L360.06346 366.15945 M526.1811 744.09449 L367.92846 364.78288 M526.1811 744.09449 L375.91719 364.18874 M526.1811 744.09449 L384.53453 364.38709 M526.1811 744.09449 L394.28881 365.37441 M526.1811 744.09449 L405.60765 367.13568 M526.1811 744.09449 L418.76164 369.65483 M526.1811 744.09449 L433.81017 372.93251 M526.1811 744.09449 L450.57888 377.00945 M526.1811 744.09449 L468.67353 381.99227 M526.1811 744.09449 L487.55672 388.07717 M526.1811 744.09449 L506.61608 395.56543 M526.1811 744.09449 L525.16367 404.86437 M526.1811 744.09449 L542.46503 416.4676 M526.1811 744.09449 L557.79169 430.91133 M526.1811 744.09449 L570.47646 448.70784 M526.1811 744.09449 L579.95966 470.26603 M526.1811 744.09449 L585.82209 495.88929 M526.1811 744.09449 L587.80529 525.82124 M587.80529 525.82124 L585.82209 560.12261 L579.95966 598.54252 L570.47646 640.46065 L557.79169 684.9148 L542.46503 730.70149 L525.16367 776.51542 L506.61608 821.06831 L487.55672 863.20892 L468.67353 901.98489 L450.57888 936.615 L433.81017 966.47889 L418.76164 991.11138 L405.60765 1010.18795 L394.28881 1023.50067 L384.53453 1030.92976 L375.91719 1032.41821 L367.92846 1027.95546 L360.06346 1017.57401 L351.89764 1001.35955 L343.14385 979.4724 L333.68221 952.17532 L323.56209 919.86068 L312.98038 883.07012 L302.24425 842.50394 L291.7272 799.02639 L281.82626 753.68697 L272.92578 707.72246 L265.37035 662.44183 L259.44702 619.11732 L255.37527 578.84777 L253.30249 542.43304 L253.30249 510.30682 L255.37527 482.55186 L259.44702 458.99679 L265.37035 439.3616 L272.92578 423.30091 L281.82626 410.34476 L291.7272 399.95934 L302.24425 391.62278 L312.98038 384.88069 L323.56209 379.3777 L333.68221 374.86625 L343.14385 371.19755 L351.89764 368.30112 L360.06346 366.15945 L367.92846 364.78288 L375.91719 364.18874 L384.53453 364.38709 L394.28881 365.37441 L405.60765 367.13568 L418.76164 369.65483 L433.81017 372.93251 L450.57888 377.00945 L468.67353 381.99227 L487.55672 388.07717 L506.61608 395.56543 L525.16367 404.86437 L542.46503 416.4676 L557.79169 430.91133 L570.47646 448.70784 L579.95966 470.26603 L585.82209 495.88929 L587.80529 525.82124 M676.72227 525.82124 L673.82653 567.52437 L665.25263 615.23584 L651.34213 668.01906 L632.66702 724.35154 L610.02471 782.36084 L584.41449 840.08892 L556.98323 895.78215 L528.93474 947.99069 L501.41229 995.51296 L475.38675 1037.41104 L451.6088 1073.03126 L430.66053 1101.98935 L412.85905 1124.11782 L398.10743 1139.39138 L385.91687 1147.85055 L375.50706 1149.53966 L365.95557 1144.4695 L356.36329 1132.60964 L346.00137 1113.91127 L334.41216 1088.3578 L321.45076 1056.03575 L307.26912 1017.21257 L292.25679 972.40277 L276.95877 922.40291 L261.99019 868.28651 L247.96316 811.3779 L235.43377 753.2695 L224.87056 695.85391 L216.64144 641.07709 L211.01315 590.67202 L208.15725 545.88955 L208.15725 507.33266 L211.01315 474.9834 L216.64144 448.42945 L224.87056 427.14949 L235.43377 410.45026 L247.96316 397.4514 L261.99019 387.2423 L276.95877 379.01368 L292.25679 372.13943 L307.26912 366.20727 L321.45076 361.00691 L334.41216 356.49025 L346.00137 352.71842 L356.36329 349.80763 L365.95557 347.88205 L375.50706 347.03793 L385.91687 347.3206 L398.10743 348.71468 L412.85905 351.14733 L430.66053 354.50466 L451.6088 358.6612 L475.38675 363.52183 L501.41229 369.0731 L528.93474 375.43807 L556.98323 382.92445 L584.41449 392.05231 L610.02471 403.54625 L632.66702 418.27976 L651.34213 437.16743 L665.25263 461.01379 L673.82653 490.40242 L676.72227 525.82124" fill="none" stroke="black" stroke-width="0.03cm" />
    </g>
</svg>