<?xml version="1.0" standalone="no"?>
  <!DOCTYPE svg PUBLIC "-//W3C//DTD SVG 1.1//EN" 
      "http://www.w3.org/Graphics/SVG/1.1/DTD/svg11.dtd">
  <svg width="21cm" height="29.7cm"
      xmlns="http://www.w3.org/2000/svg" version="1.1" viewBox="0 0 744.09449 1052.3622">
    <g>
      <path d="M372.04724 526.1811 L373.88128 363.86867 M372.04724 526.1811 L373.84834 368.08592 M372.04724 526.1811 L373.74727 371.12432 M372.04724 526.1811 L373.57109 373.17523 M372.04724 526.1811 L373.30748 374.48044 M372.04724 526.1811 L372.93773 375.31723 M372.04724 526.1811 L372.43552 375.98126 M372.04724 526.1811 L371.76554 376.76822 M372.04724 526.1811 L370.88218 377.95586 M372.04724 526.1811 L369.72847 379.78751 M372.04724 526.1811 L368.23555 382.45818 M372.04724 526.1811 L366.32287 386.10425 M372.04724 526.1811 L363.8993 390.79715 M372.04724 526.1811 L360.86547 396.54148 M372.04724 526.1811 L357.11728 403.2775 M372.04724 526.1811 L352.55067 410.88773 M372.04724 526.1811 L347.06762 419.2149 M372.04724 526.1811 L340.58285 428.09292 M372.04724 526.1811 L333.03088 437.35449 M372.04724 526.1811 L324.37277 446.83124 M372.04724 526.1811 L314.60134 456.35531 M372.04724 526.1811 L303.74412 465.7618 M372.04724 526.1811 L291.8623 474.89162 M372.04724 526.1811 L279.04462 483.59415 M372.04724 526.1811 L265.39514 491.72965 M372.04724 526.1811 L251.03218 499.17114 M372.04724 526.1811 L236.10786 505.80583 M372.04724 526.1811 L220.80312 511.53599 M372.04724 526.1811 L205.32575 516.27947 M372.04724 526.1811 L189.91096 519.96992 M372.04724 526.1811 L174.81807 522.5568 M372.04724 526.1811 L160.32247 524.00523 M372.04724 526.1811 L146.70266 524.29588 M372.04724 526.1811 L134.22285 523.42489 M372.04724 526.1811 L123.11182 521.40386 M372.04724 526.1811 L113.53955 518.25985 M372.04724 526.1811 L105.59331 514.03558 M372.04724 526.1811 L99.2696 508.78948 M372.04724 526.1811 L94.51162 502.59581 M372.04724 526.1811 L91.22889 495.54454 M372.04724 526.1811 L89.30145 487.74103 M372.04724 526.1811 L88.58515 479.30531 M372.04724 526.1811 L88.91789 470.37093 M372.04724 526.1811 L90.12652 461.08336 M372.04724 526.1811 L92.03399 451.59777 M372.04724 526.1811 L94.46611 442.0765 M372.04724 526.1811 L97.25773 432.68627 M372.04724 526.1811 L100.2579 423.59547 M372.04724 526.1811 L103.3338 414.97206 M372.04724 526.1811 L106.37332 406.98265 M372.04724 526.1811 L109.28636 399.79163 M372.04724 526.1811 L112.00484 393.54017 M372.04724 526.1811 L114.4816 388.318 M372.04724 526.1811 L116.6885 384.15326 M372.04724 526.1811 L118.61381 381.00797 M372.04724 526.1811 L120.25928 378.77772 M372.04724 526.1811 L121.63699 377.29577 M372.04724 526.1811 L122.76624 376.34139 M372.04724 526.1811 L123.67058 375.65215 M372.04724 526.1811 L124.3752 374.93913 M372.04724 526.1811 L124.90457 373.90436 M372.04724 526.1811 L125.28052 372.25912 M372.04724 526.1811 L125.52075 369.74185 M372.04724 526.1811 L125.63768 366.1343 M372.04724 526.1811 L125.63768 361.27483 M372.04724 526.1811 L125.52075 355.06757 M372.04724 526.1811 L125.28052 347.4868 M372.04724 526.1811 L124.90457 338.57606 M372.04724 526.1811 L124.3752 328.44196 M372.04724 526.1811 L123.67058 317.24312 M372.04724 526.1811 L122.76624 305.17502 M372.04724 526.1811 L121.63699 292.45207 M372.04724 526.1811 L120.25928 279.28849 M372.04724 526.1811 L118.61381 265.87994 M372.04724 526.1811 L116.6885 252.40249 M372.04724 526.1811 L114.4816 239.02973 M372.04724 526.1811 L112.00484 225.92518 M372.04724 526.1811 L109.28636 213.23728 M372.04724 526.1811 L106.37332 201.09807 M372.04724 526.1811 L103.3338 189.62091 M372.04724 526.1811 L100.2579 178.8979 M372.04724 526.1811 L97.25773 168.99796 M372.04724 526.1811 L94.46611 159.9659 M372.04724 526.1811 L92.03399 151.82278 M372.04724 526.1811 L90.12652 144.56756 M372.04724 526.1811 L88.91789 138.17994 M372.04724 526.1811 L88.58515 132.624 M372.04724 526.1811 L89.30145 127.85236 M372.04724 526.1811 L91.22889 123.81054 M372.04724 526.1811 L94.51162 120.44111 M372.04724 526.1811 L99.2696 117.68734 M372.04724 526.1811 L105.59331 115.49644 M372.04724 526.1811 L113.53955 113.82191 M372.04724 526.1811 L123.11182 112.62543 M372.04724 526.1811 L134.22285 111.87809 M372.04724 526.1811 L146.70266 111.56118 M372.04724 526.1811 L160.32247 111.66659 M372.04724 526.1811 L174.81807 112.19703 M372.04724 526.1811 L189.91096 113.16595 M372.04724 526.1811 L205.32575 114.59723 M372.04724 526.1811 L220.80312 116.52461 M372.04724 526.1811 L236.10786 118.99069 M372.04724 526.1811 L251.03218 122.04538 M372.04724 526.1811 L265.39514 125.74379 M372.04724 526.1811 L279.04462 130.14343 M372.04724 526.1811 L291.8623 135.30075 M372.04724 526.1811 L303.74412 141.26723 M372.04724 526.1811 L314.60134 148.08504 M372.04724 526.1811 L324.37277 155.7828 M372.04724 526.1811 L333.03088 164.37159 M372.04724 526.1811 L340.58285 173.84168 M372.04724 526.1811 L347.06762 184.16027 M372.04724 526.1811 L352.55067 195.27045 M372.04724 526.1811 L357.11728 207.09153 M372.04724 526.1811 L360.86547 219.52049 M372.04724 526.1811 L363.8993 232.43429 M372.04724 526.1811 L366.32287 245.69246 M372.04724 526.1811 L368.23555 259.1389 M372.04724 526.1811 L369.72847 272.60368 M372.04724 526.1811 L370.88218 285.91251 M372.04724 526.1811 L371.76554 298.88178 M372.04724 526.1811 L372.43552 311.30455 M372.04724 526.1811 L372.93773 322.96408 M372.04724 526.1811 L373.30748 333.65307 M372.04724 526.1811 L373.57109 343.19238 M372.04724 526.1811 L373.74727 351.44773 M372.04724 526.1811 L373.84834 358.34294 M372.04724 526.1811 L373.88128 363.86867 M373.88128 363.86867 L373.84834 368.08592 L373.74727 371.12432 L373.57109 373.17523 L373.30748 374.48044 L372.93773 375.31723 L372.43552 375.98126 L371.76554 376.76822 L370.88218 377.95586 L369.72847 379.78751 L368.23555 382.45818 L366.32287 386.10425 L363.8993 390.79715 L360.86547 396.54148 L357.11728 403.2775 L352.55067 410.88773 L347.06762 419.2149 L340.58285 428.09292 L333.03088 437.35449 L324.37277 446.83124 L314.60134 456.35531 L303.74412 465.7618 L291.8623 474.89162 L279.04462 483.59415 L265.39514 491.72965 L251.03218 499.17114 L236.10786 505.80583 L220.80312 511.53599 L205.32575 516.27947 L189.91096 519.96992 L174.81807 522.5568 L160.32247 524.00523 L146.70266 524.29588 L134.22285 523.42489 L123.11182 521.40386 L113.53955 518.25985 L105.59331 514.03558 L99.2696 508.78948 L94.51162 502.59581 L91.22889 495.54454 L89.30145 487.74103 L88.58515 479.30531 L88.91789 470.37093 L90.12652 461.08336 L92.03399 451.59777 L94.46611 442.0765 L97.25773 432.68627 L100.2579 423.59547 L103.3338 414.97206 L106.37332 406.98265 L109.28636 399.79163 L112.00484 393.54017 L114.4816 388.318 L116.6885 384.15326 L118.61381 381.00797 L120.25928 378.77772 L121.63699 377.29577 L122.76624 376.34139 L123.67058 375.65215 L124.3752 374.93913 L124.90457 373.90436 L125.28052 372.25912 L125.52075 369.74185 L125.63768 366.1343 L125.63768 361.27483 L125.52075 355.06757 L125.28052 347.4868 L124.90457 338.57606 L124.3752 328.44196 L123.67058 317.24312 L122.76624 305.17502 L121.63699 292.45207 L120.25928 279.28849 L118.61381 265.87994 L116.6885 252.40249 L114.4816 239.02973 L112.00484 225.92518 L109.28636 213.23728 L106.37332 201.09807 L103.3338 189.62091 L100.2579 178.8979 L97.25773 168.99796 L94.46611 159.9659 L92.03399 151.82278 L90.12652 144.56756 L88.91789 138.17994 L88.58515 132.624 L89.30145 127.85236 L91.22889 123.81054 L94.51162 120.44111 L99.2696 117.68734 L105.59331 115.49644 L113.53955 113.82191 L123.11182 112.62543 L134.22285 111.87809 L146.70266 111.56118 L160.32247 111.66659 L174.81807 112.19703 L189.91096 113.16595 L205.32575 114.59723 L220.80312 116.52461 L236.10786 118.99069 L251.03218 122.04538 L265.39514 125.74379 L279.04462 130.14343 L291.8623 135.30075 L303.74412 141.26723 L314.60134 148.08504 L324.37277 155.7828 L333.03088 164.37159 L340.58285 173.84168 L347.06762 184.16027 L352.55067 195.27045 L357.11728 207.09153 L360.86547 219.52049 L363.8993 232.43429 L366.32287 245.69246 L368.23555 259.1389 L369.72847 272.60368 L370.88218 285.91251 L371.76554 298.88178 L372.43552 311.30455 L372.93773 322.96408 L373.30748 333.65307 L373.57109 343.19238 L373.74727 351.44773 L373.84834 358.34294 L373.88128 363.86867 M377.53175 363.86867 L377.49102 368.78334 L377.37253 372.05432 L377.1868 374.03796 L376.94941 375.18371 L376.67823 376.00024 L376.3895 377.01645 L376.09318 378.74077 L375.78764 381.62207 L375.45412 386.01519 L375.05138 392.15384 L374.5111 400.1328 L373.73468 409.90083 L372.59214 421.2796 L370.92368 434.04544 L368.54452 447.96321 L365.2532 462.78253 L360.84351 478.23915 L355.11942 494.06029 L347.91218 509.97213 L339.09793 525.70753 L328.61365 541.01311 L316.46864 555.65487 L302.74808 569.42206 L287.60495 582.1294 L271.23631 593.61774 L253.85378 603.75352 L235.71203 612.42736 L217.12059 619.55209 L198.43625 625.06066 L180.06438 628.90408 L162.44901 631.04964 L146.04947 631.47963 L131.3041 630.19054 L118.58261 627.19292 L108.13036 622.51186 L100.01887 616.188 L94.18648 608.27913 L90.50186 598.86208 L88.77489 588.03487 L88.76613 575.91877 L90.19929 562.65998 L92.7757 548.43072 L96.18967 533.42918 L100.14334 517.87811 L104.36019 502.02181 L108.59603 486.12134 L112.647 470.44811 L116.35428 455.27641 L119.60549 440.87561 L122.33315 427.5035 L124.51069 415.40264 L126.14675 404.80204 L127.27829 395.91305 L127.96336 388.857 L128.27404 383.61195 L128.28988 380.01206 L128.09223 377.76021 L127.75964 376.45065 L127.36423 375.60007 L126.96896 374.68473 L126.62584 373.18078 L126.37468 370.60455 L126.24233 366.54933 L126.24233 360.71559 L126.37468 352.93155 L126.62584 343.16209 L126.96896 331.50451 L127.36423 318.17111 L127.75964 303.45945 L128.09223 287.71266 L128.28988 271.27315 L128.27404 254.4461 L127.96336 237.52726 L127.27829 220.80861 L126.14675 204.56465 L124.51069 189.04886 L122.33315 174.48586 L119.60549 161.06167 L116.35428 148.9147 L112.647 138.12958 L108.59603 128.73496 L104.36019 120.70584 L100.14334 113.97004 L96.18967 108.41804 L92.7757 103.91569 L90.19929 100.32193 L88.76613 97.5006 L88.77489 95.32443 L90.50186 93.67765 L94.18648 92.45782 L100.01887 91.57706 L108.13036 90.96269 L118.58261 90.55741 L131.3041 90.3194 L146.04947 90.22212 L162.44901 90.25423 L180.06438 90.41951 L198.43625 90.73689 L217.12059 91.24052 L235.71203 91.97996 L253.85378 93.0202 L271.23631 94.4416 L287.60495 96.3394 L302.74808 98.82291 L316.46864 102.01392 L328.61365 106.04453 L339.09793 111.05405 L347.91218 117.18238 L355.11942 124.55322 L360.84351 133.25882 L365.2532 143.34881 L368.54452 154.82194 L370.92368 167.62156 L372.59214 181.63561 L373.73468 196.7009 L374.5111 212.61088 L375.05138 229.12533 L375.45412 245.97952 L375.78764 262.88987 L376.09318 279.55945 L376.3895 295.69346 L376.67823 310.96667 L376.94941 325.03027 L377.1868 337.55845 L377.37253 348.29188 L377.49102 357.07277 L377.53175 363.86867 M392.37986 363.86867 L392.14752 369.43503 L391.46418 372.84096 L390.37028 374.69001 L388.93113 375.74086 L387.23352 376.83745 L385.38062 378.82898 L383.48476 382.4877 L381.65824 388.43163 L380.00201 397.05888 L378.59281 408.49927 L377.46956 422.60831 L376.62012 439.11467 L375.96999 457.71681 L375.37464 478.07134 L374.61713 499.79213 L373.41286 522.46146 L371.42221 545.6474 L368.27195 568.92278 L363.5845 591.88247 L357.01361 614.1569 L348.28289 635.42114 L337.2227 655.39932 L323.79872 673.86514 L308.12457 690.63912 L290.44933 705.58374 L271.11068 718.59737 L250.46861 729.60768 L228.94647 738.56532 L207.05418 745.43809 L185.38189 750.20616 L164.59508 752.85824 L145.39914 753.38891 L128.47201 751.79716 L114.36798 748.08608 L103.40023 742.26379 L95.5863 734.34544 L90.77622 724.35649 L88.71031 712.33706 L89.03346 698.34721 L91.31626 682.47312 L95.0819 664.83355 L99.83608 645.58627 L105.09713 624.93371 L110.42354 603.12677 L115.43644 580.46615 L119.83534 557.29993 L123.40656 534.01687 L126.02408 511.03511 L127.644 488.7865 L128.29376 467.69824 L128.05804 448.17416 L127.06304 430.57982 L125.46096 415.23652 L123.41577 402.43069 L121.09149 392.39501 L118.64315 385.14331 L116.21069 380.40686 L113.91543 377.67033 L111.85864 376.22952 L110.12171 375.26355 L108.76709 373.91556 L107.83988 371.37469 L107.36915 366.95196 L107.36915 360.14265 L107.83988 350.66829 L108.76709 338.49318 L110.12171 323.81175 L111.85864 307.00606 L113.91543 288.57542 L116.21069 269.04335 L118.64315 248.88118 L121.09149 228.55617 L123.41577 208.53512 L125.46096 189.26905 L127.06304 171.1814 L128.05804 154.6443 L128.29376 139.95091 L127.644 127.29083 L126.02408 116.73406 L123.40656 108.22668 L119.83534 101.60344 L115.43644 96.64078 L110.42354 93.10153 L105.09713 90.74784 L99.83608 89.35016 L95.0819 88.69447 L91.31626 88.58735 L89.03346 88.85913 L88.71031 89.3651 L90.77622 89.98533 L95.5863 90.62332 L103.40023 91.20399 L114.36798 91.67143 L128.47201 91.98669 L145.39914 92.12596 L164.59508 92.07927 L185.38189 91.84991 L207.05418 91.45467 L228.94647 90.92473 L250.46861 90.30728 L271.11068 89.6675 L290.44933 89.0909 L308.12457 88.68551 L323.79872 88.58352 L337.2227 88.94218 L348.28289 89.94331 L357.01361 91.79113 L363.5845 94.70819 L368.27195 98.92923 L371.42221 104.69297 L373.41286 112.23225 L374.61713 121.75003 L375.37464 133.35941 L375.96999 147.05262 L376.62012 162.69854 L377.46956 180.05314 L378.59281 198.78036 L380.00201 218.47903 L381.65824 238.70952 L383.48476 259.01237 L385.38062 278.91626 L387.23352 297.96049 L388.93113 315.64498 L390.37028 331.44558 L391.46418 344.91122 L392.14752 355.74652 L392.37986 363.86867 M435.5642 363.86867 L434.98412 370.04242 L433.26401 373.49971 L430.46411 375.19407 L426.68395 376.31682 L422.06119 378.16324 L416.76975 381.98072 L411.01763 388.8144 L405.04471 399.36449 L399.11855 413.86967 L393.51527 432.13087 L388.49189 453.80985 L384.25699 478.49924 L380.93986 505.69654 L378.56116 534.81271 L377.00958 565.20279 L376.02852 596.20563 L375.21698 627.18331 L374.04743 657.55372 L371.90224 686.81322 L368.12786 714.5485 L362.10336 740.43866 L353.31655 764.24973 L341.43769 785.82391 L326.3769 805.06607 L308.3084 821.92955 L287.64206 836.40253 L264.92205 848.49599 L240.72144 858.23368 L215.72875 865.64409 L190.76056 870.75438 L166.75988 873.58596 L144.75171 874.15161 L125.72927 872.45398 L110.47565 868.48524 L99.34723 862.22801 L92.27172 853.65755 L88.9577 842.74541 L88.94123 829.46457 L91.61531 813.79655 L96.27345 795.74038 L102.1628 775.32368 L108.54044 752.61558 L114.7267 727.74078 L120.1495 700.89358 L124.37557 672.35035 L127.12605 642.47793 L128.2765 611.73562 L127.84286 580.66845 L125.95691 549.88993 L122.83525 520.05421 L118.74628 491.81947 L113.97918 465.80738 L108.81781 442.56648 L103.52146 422.55085 L98.31304 406.12805 L93.37405 393.59804 L88.84517 384.96716 L84.83066 379.75377 L81.40462 377.06866 L78.61789 375.74665 L76.50412 374.49693 L75.08467 372.05798 L74.37206 367.34236 L74.37206 359.55596 L75.08467 348.27787 L76.50412 333.48881 L78.61789 315.54029 L81.40462 295.06155 L84.83066 272.80781 L88.84517 249.48899 L93.37405 225.79523 L98.31304 202.43701 L103.52146 180.12091 L108.81781 159.52349 L113.97918 141.23592 L118.74628 125.69734 L122.83525 113.13394 L125.95691 103.51825 L127.84286 96.60375 L128.2765 92.05719 L127.12605 89.51268 L124.37557 88.59377 L120.1495 88.93322 L114.7267 90.18936 L108.54044 92.058 L102.1628 94.27963 L96.27345 96.64217 L91.61531 98.97994 L88.94123 101.1696 L88.9577 103.12425 L92.27172 104.78644 L99.34723 106.12108 L110.47565 107.10874 L125.72927 107.74 L144.75171 108.01101 L166.75988 107.92065 L190.76056 107.46925 L215.72875 106.65905 L240.72144 105.49621 L264.92205 103.99453 L287.64206 102.1805 L308.3084 100.09949 L326.3769 97.82279 L341.43769 95.45469 L353.31655 93.13906 L362.10336 91.06444 L368.12786 89.4667 L371.90224 88.62831 L374.04743 88.8734 L375.21698 90.5582 L376.02852 94.05685 L377.00958 99.74315 L378.56116 107.96957 L380.93986 119.03924 L384.25699 133.10327 L388.49189 150.05918 L393.51527 169.56764 L399.11855 191.10516 L405.04471 214.0298 L411.01763 237.64453 L416.76975 261.23968 L422.06119 284.10964 L426.68395 305.5708 L430.46411 324.87515 L433.26401 341.30814 L434.98412 354.36393 L435.5642 363.86867" fill="none" stroke="black" stroke-width="0.03cm" />
    </g>
</svg>