<?xml version="1.0" standalone="no"?>
  <!DOCTYPE svg PUBLIC "-//W3C//DTD SVG 1.1//EN" 
      "http://www.w3.org/Graphics/SVG/1.1/DTD/svg11.dtd">
  <svg width="21cm" height="29.7cm"
      xmlns="http://www.w3.org/2000/svg" version="1.1" viewBox="0 0 744.09449 1052.3622">
    <g>
      <path d="M372.04724 526.1811 L703.16057 683.78212 M372.04724 526.1811 L702.73128 696.19162 M372.04724 526.1811 L701.40142 705.33683 M372.04724 526.1811 L699.04615 711.40234 M372.04724 526.1811 L695.46177 714.74855 M372.04724 526.1811 L690.37403 715.85757 M372.04724 526.1811 L683.45259 715.27133 M372.04724 526.1811 L674.33372 713.53168 M372.04724 526.1811 L662.65205 711.13095 M372.04724 526.1811 L648.0808 708.47821 M372.04724 526.1811 L630.37781 705.88335 M372.04724 526.1811 L609.43179 703.55918 M372.04724 526.1811 L585.30197 701.63312 M372.04724 526.1811 L558.24318 700.16272 M372.04724 526.1811 L528.70951 699.15862 M372.04724 526.1811 L497.33277 698.60899 M372.04724 526.1811 L464.87628 698.49993 M372.04724 526.1811 L432.16974 698.82801 M372.04724 526.1811 L400.03498 699.60287 M372.04724 526.1811 L369.21503 700.83949 M372.04724 526.1811 L340.31815 702.5414 M372.04724 526.1811 L313.78539 704.6776 M372.04724 526.1811 L289.88465 707.15811 M372.04724 526.1811 L268.7289 709.81432 M372.04724 526.1811 L250.31108 712.38616 M372.04724 526.1811 L234.54631 714.51327 M372.04724 526.1811 L221.31234 715.74184 M372.04724 526.1811 L210.48155 715.5495 M372.04724 526.1811 L201.94155 713.38737 M372.04724 526.1811 L195.60495 708.73557 M372.04724 526.1811 L191.41098 701.16538 M372.04724 526.1811 L189.3226 690.39842 M372.04724 526.1811 L189.3226 676.35314 M372.04724 526.1811 L191.41098 659.16976 M372.04724 526.1811 L195.60495 639.20903 M372.04724 526.1811 L201.94155 617.02435 M372.04724 526.1811 L210.48155 593.31245 M372.04724 526.1811 L221.31234 568.85079 M372.04724 526.1811 L234.54631 544.4324 M372.04724 526.1811 L250.31108 520.80768 M372.04724 526.1811 L268.7289 498.64054 M372.04724 526.1811 L289.88465 478.48239 M372.04724 526.1811 L313.78539 460.76377 M372.04724 526.1811 L340.31815 445.8007 M372.04724 526.1811 L369.21503 433.81071 M372.04724 526.1811 L400.03498 424.93362 M372.04724 526.1811 L432.16974 419.25238 M372.04724 526.1811 L464.87628 416.81068 M372.04724 526.1811 L497.33277 417.62502 M372.04724 526.1811 L528.70951 421.69004 M372.04724 526.1811 L558.24318 428.97676 M372.04724 526.1811 L585.30197 439.42377 M372.04724 526.1811 L609.43179 452.92212 M372.04724 526.1811 L630.37781 469.29586 M372.04724 526.1811 L648.0808 488.28061 M372.04724 526.1811 L662.65205 509.50463 M372.04724 526.1811 L674.33372 532.47691 M372.04724 526.1811 L683.45259 556.58769 M372.04724 526.1811 L690.37403 581.1254 M372.04724 526.1811 L695.46177 605.31183 M372.04724 526.1811 L699.04615 628.3538 M372.04724 526.1811 L701.40142 649.506 M372.04724 526.1811 L702.73128 668.13613 M372.04724 526.1811 L703.16057 683.78212 M703.16057 683.78212 L702.73128 696.19162 L701.40142 705.33683 L699.04615 711.40234 L695.46177 714.74855 L690.37403 715.85757 L683.45259 715.27133 L674.33372 713.53168 L662.65205 711.13095 L648.0808 708.47821 L630.37781 705.88335 L609.43179 703.55918 L585.30197 701.63312 L558.24318 700.16272 L528.70951 699.15862 L497.33277 698.60899 L464.87628 698.49993 L432.16974 698.82801 L400.03498 699.60287 L369.21503 700.83949 L340.31815 702.5414 L313.78539 704.6776 L289.88465 707.15811 L268.7289 709.81432 L250.31108 712.38616 L234.54631 714.51327 L221.31234 715.74184 L210.48155 715.5495 L201.94155 713.38737 L195.60495 708.73557 L191.41098 701.16538 L189.3226 690.39842 L189.3226 676.35314 L191.41098 659.16976 L195.60495 639.20903 L201.94155 617.02435 L210.48155 593.31245 L221.31234 568.85079 L234.54631 544.4324 L250.31108 520.80768 L268.7289 498.64054 L289.88465 478.48239 L313.78539 460.76377 L340.31815 445.8007 L369.21503 433.81071 L400.03498 424.93362 L432.16974 419.25238 L464.87628 416.81068 L497.33277 417.62502 L528.70951 421.69004 L558.24318 428.97676 L585.30197 439.42377 L609.43179 452.92212 L630.37781 469.29586 L648.0808 488.28061 L662.65205 509.50463 L674.33372 532.47691 L683.45259 556.58769 L690.37403 581.1254 L695.46177 605.31183 L699.04615 628.3538 L701.40142 649.506 L702.73128 668.13613 L703.16057 683.78212 M708.66142 715.4023 L707.32312 715.10061 L702.42037 712.52359 L695.2151 708.92406 L685.07998 705.00336 L671.40147 701.29137 L653.65767 698.1369 L631.50579 695.70203 L604.86514 693.9906 L573.97847 692.90016 L539.43439 692.28128 L502.13968 691.99194 L463.23946 691.93905 L423.99569 692.10276 L385.64541 692.54139 L349.2662 693.37668 L315.67573 694.76049 L285.3836 696.82611 L258.60044 699.63011 L235.29471 703.09501 L215.27727 706.96671 L198.2898 710.80391 L184.07714 713.98985 L172.43225 715.74732 L163.21267 715.19966 L156.33561 711.4679 L151.76162 703.78738 L149.47635 691.62431 L149.47635 674.76999 L151.76162 653.39305 L156.33561 628.03801 L163.21267 599.56964 L172.43225 569.0744 L184.07714 537.73897 L198.2898 506.72892 L215.27727 477.08857 L235.29471 449.67511 L258.60044 425.13145 L285.3836 403.89337 L315.67573 386.22108 L349.2662 372.2433 L385.64541 362.00337 L423.99569 355.49973 L463.23946 352.71668 L502.13968 353.64405 L539.43439 358.28545 L573.97847 366.65556 L604.86514 378.76618 L631.50579 394.60093 L653.65767 414.07932 L671.40147 437.01274 L685.07998 463.05821 L695.2151 491.67907 L702.42037 522.1242 L707.32312 553.43705 L708.66142 566.50436" fill="none" stroke="black" stroke-width="0.03cm" />
    </g>
</svg>