<?xml version="1.0" standalone="no"?>
  <!DOCTYPE svg PUBLIC "-//W3C//DTD SVG 1.1//EN" 
      "http://www.w3.org/Graphics/SVG/1.1/DTD/svg11.dtd">
  <svg width="21cm" height="29.7cm"
      xmlns="http://www.w3.org/2000/svg" version="1.1" viewBox="0 0 744.09449 1052.3622">
    <g>
      <path d="M372.04724 526.1811 L571.67657 536.22999 M372.04724 526.1811 L571.42115 546.38639 M372.04724 526.1811 L570.65571 556.5734 M372.04724 526.1811 L569.38276 566.76643 M372.04724 526.1811 L567.60648 576.94039 M372.04724 526.1811 L565.33264 587.06972 M372.04724 526.1811 L562.56865 597.12846 M372.04724 526.1811 L559.32345 607.09031 M372.04724 526.1811 L555.60748 616.92874 M372.04724 526.1811 L551.43265 626.61705 M372.04724 526.1811 L546.81221 636.1285 M372.04724 526.1811 L541.76072 645.4364 M372.04724 526.1811 L536.29398 654.51422 M372.04724 526.1811 L530.42887 663.3357 M372.04724 526.1811 L524.18335 671.87498 M372.04724 526.1811 L517.57629 680.10671 M372.04724 526.1811 L510.62741 688.00619 M372.04724 526.1811 L503.35714 695.54945 M372.04724 526.1811 L495.78658 702.7134 M372.04724 526.1811 L487.93735 709.47591 M372.04724 526.1811 L479.83148 715.81596 M372.04724 526.1811 L471.49136 721.7137 M372.04724 526.1811 L462.93962 727.15054 M372.04724 526.1811 L454.19904 732.1093 M372.04724 526.1811 L445.29248 736.5742 M372.04724 526.1811 L436.24282 740.531 M372.04724 526.1811 L427.07287 743.96705 M372.04724 526.1811 L417.8053 746.87133 M372.04724 526.1811 L408.46265 749.23449 M372.04724 526.1811 L399.06724 751.04894 M372.04724 526.1811 L389.64113 752.30883 M372.04724 526.1811 L380.20613 753.01009 M372.04724 526.1811 L370.78377 753.15045 M372.04724 526.1811 L361.39525 752.72947 M372.04724 526.1811 L352.0615 751.7485 M372.04724 526.1811 L342.80311 750.21072 M372.04724 526.1811 L333.64035 748.12106 M372.04724 526.1811 L324.59318 745.48628 M372.04724 526.1811 L315.68126 742.31485 M372.04724 526.1811 L306.9239 738.61694 M372.04724 526.1811 L298.34011 734.4044 M372.04724 526.1811 L289.94856 729.6907 M372.04724 526.1811 L281.76764 724.49084 M372.04724 526.1811 L273.81544 718.82131 M372.04724 526.1811 L266.10974 712.70002 M372.04724 526.1811 L258.66797 706.14618 M372.04724 526.1811 L251.50713 699.18024 M372.04724 526.1811 L244.64379 691.82381 M372.04724 526.1811 L238.09395 684.0995 M372.04724 526.1811 L231.87307 676.03085 M372.04724 526.1811 L225.99595 667.64221 M372.04724 526.1811 L220.47665 658.95863 M372.04724 526.1811 L215.3285 650.00572 M372.04724 526.1811 L210.56397 640.80956 M372.04724 526.1811 L206.19466 631.39656 M372.04724 526.1811 L202.23122 621.79333 M372.04724 526.1811 L198.68335 612.02662 M372.04724 526.1811 L195.55973 602.12315 M372.04724 526.1811 L192.86801 592.10955 M372.04724 526.1811 L190.61477 582.01225 M372.04724 526.1811 L188.80552 571.85738 M372.04724 526.1811 L187.4447 561.67072 M372.04724 526.1811 L186.53563 551.47759 M372.04724 526.1811 L186.08053 541.30285 M372.04724 526.1811 L186.08053 531.17079 M372.04724 526.1811 L186.53563 521.10511 M372.04724 526.1811 L187.4447 511.12892 M372.04724 526.1811 L188.80552 501.26465 M372.04724 526.1811 L190.61477 491.5341 M372.04724 526.1811 L192.86801 481.9584 M372.04724 526.1811 L195.55973 472.558 M372.04724 526.1811 L198.68335 463.35268 M372.04724 526.1811 L202.23122 454.36156 M372.04724 526.1811 L206.19466 445.60307 M372.04724 526.1811 L210.56397 437.09503 M372.04724 526.1811 L215.3285 428.85457 M372.04724 526.1811 L220.47665 420.89818 M372.04724 526.1811 L225.99595 413.24171 M372.04724 526.1811 L231.87307 405.90037 M372.04724 526.1811 L238.09395 398.88871 M372.04724 526.1811 L244.64379 392.22064 M372.04724 526.1811 L251.50713 385.90937 M372.04724 526.1811 L258.66797 379.96748 M372.04724 526.1811 L266.10974 374.40682 M372.04724 526.1811 L273.81544 369.23853 M372.04724 526.1811 L281.76764 364.47301 M372.04724 526.1811 L289.94856 360.1199 M372.04724 526.1811 L298.34011 356.18806 M372.04724 526.1811 L306.9239 352.68552 M372.04724 526.1811 L315.68126 349.61946 M372.04724 526.1811 L324.59318 346.99623 M372.04724 526.1811 L333.64035 344.82126 M372.04724 526.1811 L342.80311 343.09906 M372.04724 526.1811 L352.0615 341.83325 M372.04724 526.1811 L361.39525 341.02646 M372.04724 526.1811 L370.78377 340.68039 M372.04724 526.1811 L380.20613 340.79577 M372.04724 526.1811 L389.64113 341.37235 M372.04724 526.1811 L399.06724 342.40892 M372.04724 526.1811 L408.46265 343.90332 M372.04724 526.1811 L417.8053 345.85241 M372.04724 526.1811 L427.07287 348.25213 M372.04724 526.1811 L436.24282 351.09751 M372.04724 526.1811 L445.29248 354.38266 M372.04724 526.1811 L454.19904 358.1008 M372.04724 526.1811 L462.93962 362.24433 M372.04724 526.1811 L471.49136 366.8048 M372.04724 526.1811 L479.83148 371.77296 M372.04724 526.1811 L487.93735 377.13879 M372.04724 526.1811 L495.78658 382.8915 M372.04724 526.1811 L503.35714 389.0196 M372.04724 526.1811 L510.62741 395.51088 M372.04724 526.1811 L517.57629 402.35245 M372.04724 526.1811 L524.18335 409.53072 M372.04724 526.1811 L530.42887 417.03149 M372.04724 526.1811 L536.29398 424.83986 M372.04724 526.1811 L541.76072 432.94031 M372.04724 526.1811 L546.81221 441.31666 M372.04724 526.1811 L551.43265 449.95211 M372.04724 526.1811 L555.60748 458.82918 M372.04724 526.1811 L559.32345 467.92975 M372.04724 526.1811 L562.56865 477.23504 M372.04724 526.1811 L565.33264 486.7256 M372.04724 526.1811 L567.60648 496.38133 M372.04724 526.1811 L569.38276 506.18141 M372.04724 526.1811 L570.65571 516.10441 M372.04724 526.1811 L571.42115 526.12819 M372.04724 526.1811 L571.67657 536.22999 M571.67657 536.22999 L571.42115 546.38639 L570.65571 556.5734 L569.38276 566.76643 L567.60648 576.94039 L565.33264 587.06972 L562.56865 597.12846 L559.32345 607.09031 L555.60748 616.92874 L551.43265 626.61705 L546.81221 636.1285 L541.76072 645.4364 L536.29398 654.51422 L530.42887 663.3357 L524.18335 671.87498 L517.57629 680.10671 L510.62741 688.00619 L503.35714 695.54945 L495.78658 702.7134 L487.93735 709.47591 L479.83148 715.81596 L471.49136 721.7137 L462.93962 727.15054 L454.19904 732.1093 L445.29248 736.5742 L436.24282 740.531 L427.07287 743.96705 L417.8053 746.87133 L408.46265 749.23449 L399.06724 751.04894 L389.64113 752.30883 L380.20613 753.01009 L370.78377 753.15045 L361.39525 752.72947 L352.0615 751.7485 L342.80311 750.21072 L333.64035 748.12106 L324.59318 745.48628 L315.68126 742.31485 L306.9239 738.61694 L298.34011 734.4044 L289.94856 729.6907 L281.76764 724.49084 L273.81544 718.82131 L266.10974 712.70002 L258.66797 706.14618 L251.50713 699.18024 L244.64379 691.82381 L238.09395 684.0995 L231.87307 676.03085 L225.99595 667.64221 L220.47665 658.95863 L215.3285 650.00572 L210.56397 640.80956 L206.19466 631.39656 L202.23122 621.79333 L198.68335 612.02662 L195.55973 602.12315 L192.86801 592.10955 L190.61477 582.01225 L188.80552 571.85738 L187.4447 561.67072 L186.53563 551.47759 L186.08053 541.30285 L186.08053 531.17079 L186.53563 521.10511 L187.4447 511.12892 L188.80552 501.26465 L190.61477 491.5341 L192.86801 481.9584 L195.55973 472.558 L198.68335 463.35268 L202.23122 454.36156 L206.19466 445.60307 L210.56397 437.09503 L215.3285 428.85457 L220.47665 420.89818 L225.99595 413.24171 L231.87307 405.90037 L238.09395 398.88871 L244.64379 392.22064 L251.50713 385.90937 L258.66797 379.96748 L266.10974 374.40682 L273.81544 369.23853 L281.76764 364.47301 L289.94856 360.1199 L298.34011 356.18806 L306.9239 352.68552 L315.68126 349.61946 L324.59318 346.99623 L333.64035 344.82126 L342.80311 343.09906 L352.0615 341.83325 L361.39525 341.02646 L370.78377 340.68039 L380.20613 340.79577 L389.64113 341.37235 L399.06724 342.40892 L408.46265 343.90332 L417.8053 345.85241 L427.07287 348.25213 L436.24282 351.09751 L445.29248 354.38266 L454.19904 358.1008 L462.93962 362.24433 L471.49136 366.8048 L479.83148 371.77296 L487.93735 377.13879 L495.78658 382.8915 L503.35714 389.0196 L510.62741 395.51088 L517.57629 402.35245 L524.18335 409.53072 L530.42887 417.03149 L536.29398 424.83986 L541.76072 432.94031 L546.81221 441.31666 L551.43265 449.95211 L555.60748 458.82918 L559.32345 467.92975 L562.56865 477.23504 L565.33264 486.7256 L567.60648 496.38133 L569.38276 506.18141 L570.65571 516.10441 L571.42115 526.12819 L571.67657 536.22999 M613.91206 536.22999 L613.59842 548.42432 L612.65859 560.66895 L611.09582 572.93467 L608.91553 585.19141 L606.12522 597.40835 L602.73451 609.55396 L598.75498 621.5961 L594.2002 633.50213 L589.08555 645.23905 L583.4282 656.77363 L577.24697 668.07255 L570.56222 679.10258 L563.39572 689.83069 L555.77052 700.22432 L547.71081 710.25143 L539.24177 719.88078 L530.38944 729.082 L521.18055 737.82584 L511.64238 746.08423 L501.80262 753.83053 L491.68924 761.03956 L481.33034 767.68781 L470.75403 773.75349 L459.98834 779.21669 L449.06111 784.0594 L437.99989 788.26566 L426.8319 791.82156 L415.58397 794.71536 L404.28247 796.93746 L392.95332 798.48053 L381.62196 799.33945 L370.31333 799.51138 L359.05193 798.99574 L347.86178 797.79425 L336.76648 795.91088 L325.78921 793.35187 L314.95279 790.12569 L304.27968 786.24301 L293.792 781.71665 L283.51162 776.56157 L273.46026 770.79476 L263.65951 764.43518 L254.13082 757.50371 L244.89542 750.023 L235.97425 742.01741 L227.38793 733.51288 L219.15659 724.53676 L211.29984 715.11775 L203.83658 705.28566 L196.78499 695.07133 L190.16228 684.50642 L183.98468 673.62325 L178.2673 662.45463 L173.02414 651.03372 L168.26801 639.3938 L164.01057 627.56818 L160.26223 615.58999 L157.03216 603.49207 L154.32827 591.30681 L152.15717 579.06607 L150.52419 566.80103 L149.4333 554.54215 L148.88719 542.31907 L148.88719 530.16058 L149.4333 518.09453 L150.52419 506.14791 L152.15717 494.34672 L154.32827 482.71609 L157.03216 471.28021 L160.26223 460.06238 L164.01057 449.08506 L168.26801 438.36989 L173.02414 427.93771 L178.2673 417.80861 L183.98468 408.00194 L190.16228 398.53636 L196.78499 389.42985 L203.83658 380.69972 L211.29984 372.3626 L219.15659 364.43449 L227.38793 356.93068 L235.97425 349.86578 L244.89542 343.25367 L254.13082 337.10748 L263.65951 331.43955 L273.46026 326.26139 L283.51162 321.58362 L293.792 317.41595 L304.27968 313.76711 L314.95279 310.64482 L325.78921 308.05573 L336.76648 306.00542 L347.86178 304.4983 L359.05193 303.53766 L370.31333 303.12558 L381.62196 303.26296 L392.95332 303.94951 L404.28247 305.18373 L415.58397 306.96292 L426.8319 309.28325 L437.99989 312.1397 L449.06111 315.52617 L459.98834 319.43545 L470.75403 323.85933 L481.33034 328.78856 L491.68924 334.21299 L501.80262 340.12154 L511.64238 346.50229 L521.18055 353.34248 L530.38944 360.62862 L539.24177 368.34645 L547.71081 376.48102 L555.77052 385.01668 L563.39572 393.93712 L570.56222 403.22537 L577.24697 412.86379 L583.4282 422.83405 L589.08555 433.11716 L594.2002 443.69339 L598.75498 454.54228 L602.73451 465.64261 L606.12522 476.97233 L608.91553 488.50856 L611.09582 500.22754 L612.65859 512.10464 L613.59842 524.11429 L613.91206 536.22999 M657.13792 536.22999 L656.7634 550.46448 L655.64122 564.7736 L653.77544 579.12367 L651.17284 593.47971 L647.84284 607.80559 L643.79746 622.06404 L639.05123 636.21683 L633.62112 650.22488 L627.52642 664.04842 L620.78862 677.64724 L613.43127 690.98084 L605.47984 704.00865 L596.96152 716.69033 L587.90507 728.98592 L578.34061 740.85613 L568.29944 752.26256 L557.81379 763.16794 L546.91669 773.53632 L535.64168 783.3333 L524.02265 792.52618 L512.09366 801.0842 L499.88871 808.97862 L487.4416 816.18288 L474.78581 822.67276 L461.95428 828.42641 L448.97942 833.42446 L435.89292 837.65013 L422.72576 841.08921 L409.50814 843.73018 L396.26949 845.56417 L383.03846 846.58505 L369.84296 846.78939 L356.71021 846.17653 L343.66677 844.74849 L330.73865 842.51007 L317.95135 839.46877 L305.32994 835.63479 L292.89915 831.02099 L280.68348 825.64288 L268.70751 819.51854 L256.99597 812.66859 L245.57376 805.11607 L234.46584 796.8864 L223.69722 788.00722 L213.29279 778.50832 L203.27719 768.42145 L193.67464 757.78017 L184.50859 746.61968 L175.80147 734.97662 L167.57461 722.88886 L159.84812 710.39527 L152.64092 697.5355 L145.97065 684.34973 L139.85362 670.87845 L134.30481 657.16222 L129.33779 643.24142 L124.96473 629.15607 L121.19631 614.94561 L118.04177 600.64873 L115.50883 586.30317 L113.60368 571.94567 L112.33098 557.61179 L111.69385 543.33585 L111.69385 529.1509 L112.33098 515.08868 L113.60368 501.17961 L115.50883 487.45283 L118.04177 473.93623 L121.19631 460.65653 L124.96473 447.63931 L129.33779 434.9091 L134.30481 422.48949 L139.85362 410.40318 L145.97065 398.67203 L152.64092 387.31717 L159.84812 376.35907 L167.57461 365.8175 L175.80147 355.71167 L184.50859 346.06015 L193.67464 336.88093 L203.27719 328.19138 L213.29279 320.00823 L223.69722 312.34753 L234.46584 305.22459 L245.57376 298.65391 L256.99597 292.64913 L268.70751 287.22295 L280.68348 282.38706 L292.89915 278.15204 L305.32994 274.52728 L317.95135 271.5209 L330.73865 269.13971 L343.66677 267.38915 L356.71021 266.27323 L369.84296 265.79452 L383.03846 265.95412 L396.26949 266.75167 L409.50814 268.18532 L422.72576 270.25179 L435.89292 272.94633 L448.97942 276.26284 L461.95428 280.19383 L474.78581 284.73053 L487.4416 289.86296 L499.88871 295.57997 L512.09366 301.86934 L524.02265 308.71792 L535.64168 316.1116 L546.91669 324.03549 L557.81379 332.47388 L568.29944 341.4104 L578.34061 350.82798 L587.90507 360.70894 L596.96152 371.035 L605.47984 381.78728 L613.43127 392.94627 L620.78862 404.49187 L627.52642 416.40329 L633.62112 428.65904 L639.05123 441.23683 L643.79746 454.11355 L647.84284 467.26514 L651.17284 480.66656 L653.77544 494.29166 L655.64122 508.11315 L656.7634 522.10252 L657.13792 536.22999 M701.37579 536.22999 L700.93784 552.50689 L699.62565 568.88742 L697.44418 585.3336 L694.40162 601.80564 L690.50944 618.26201 L685.78223 634.65952 L680.23766 650.95351 L673.89639 667.09803 L666.7819 683.04606 L658.92039 698.74978 L650.34056 714.16087 L641.07346 729.23078 L631.15227 743.9111 L620.61202 758.15386 L609.48941 771.91184 L597.82249 785.13893 L585.65042 797.79039 L573.01314 809.82315 L559.95115 821.19606 L546.50517 831.87016 L532.71592 841.80882 L518.62383 850.97799 L504.26882 859.34629 L489.69011 866.88518 L474.92602 873.56901 L460.01384 879.37515 L444.98976 884.28399 L429.88874 888.27902 L414.74454 891.34687 L399.58972 893.47728 L384.45566 894.66314 L369.37267 894.90051 L354.37006 894.1886 L339.4763 892.52977 L324.71908 889.92956 L310.12554 886.39664 L295.72234 881.94283 L281.5359 876.58309 L267.59289 870.33546 L253.92054 863.22108 L240.54674 855.2641 L227.49996 846.49162 L214.80922 836.93361 L202.50391 826.62281 L190.61355 815.59457 L179.16719 803.88673 L168.19283 791.53935 L157.71735 778.59458 L147.76636 765.09636 L138.36423 751.09015 L129.53396 736.62265 L121.29716 721.7415 L113.67399 706.49494 L106.6831 690.93147 L100.3416 675.09958 L94.66501 659.04737 L89.66722 642.8223 L85.36047 626.47088 L81.75528 610.03845 L78.86048 593.56894 L76.68317 577.10475 L75.22866 560.68653 L74.50051 544.35318 L74.50051 528.14177 L75.22866 512.08752 L76.68317 496.22385 L78.86048 480.58249 L81.75528 465.19349 L85.36047 450.08543 L89.66722 435.28549 L94.66501 420.81963 L100.3416 406.71275 L106.6831 392.98878 L113.67399 379.67086 L121.29716 366.78143 L129.53396 354.34237 L138.36423 342.37501 L147.76636 330.90023 L157.71735 319.93847 L168.19283 309.50974 L179.16719 299.63358 L190.61355 290.32904 L202.50391 281.61462 L214.80922 273.50825 L227.49996 266.0271 L240.54674 259.18746 L253.92054 253.00455 L267.59289 247.49242 L281.5359 242.66377 L295.72234 238.52991 L310.12554 235.10059 L324.71908 232.38398 L339.4763 230.38659 L354.37006 229.11322 L369.37267 228.56694 L384.45566 228.74907 L399.58972 229.65917 L414.74454 231.29505 L429.88874 233.65275 L444.98976 236.72663 L460.01384 240.50935 L474.92602 244.99192 L489.69011 250.16381 L504.26882 256.01301 L518.62383 262.52612 L532.71592 269.68848 L546.50517 277.48433 L559.95115 285.89693 L573.01314 294.90869 L585.65042 304.50139 L597.82249 314.65624 L609.48941 325.35396 L620.61202 336.57476 L631.15227 348.29841 L641.07346 360.50426 L650.34056 373.1712 L658.92039 386.27764 L666.7819 399.80144 L673.89639 413.7198 L680.23766 428.00922 L685.78223 442.64529 L690.50944 457.60261 L694.40162 472.85463 L697.44418 488.37347 L699.62565 504.12984 L700.93784 520.09287 L701.37579 536.22999" fill="none" stroke="black" stroke-width="0.03cm" />
    </g>
</svg>