<?xml version="1.0" standalone="no"?>
  <!DOCTYPE svg PUBLIC "-//W3C//DTD SVG 1.1//EN" 
      "http://www.w3.org/Graphics/SVG/1.1/DTD/svg11.dtd">
  <svg width="21cm" height="29.7cm"
      xmlns="http://www.w3.org/2000/svg" version="1.1" viewBox="0 0 744.09449 1052.3622">
    <g>
      <path d="M372.04724 526.1811 L526.12452 538.21308 M372.04724 526.1811 L526.14322 533.05164 M372.04724 526.1811 L526.20605 529.10306 M372.04724 526.1811 L526.33296 526.68078 M372.04724 526.1811 L526.55645 525.99442 M372.04724 526.1811 L526.92031 527.13726 M372.04724 526.1811 L527.47771 530.08319 M372.04724 526.1811 L528.28856 534.6936 M372.04724 526.1811 L529.41593 540.73394 M372.04724 526.1811 L530.92142 547.89861 M372.04724 526.1811 L532.85961 555.8417 M372.04724 526.1811 L535.27155 564.21082 M372.04724 526.1811 L538.17747 572.68034 M372.04724 526.1811 L541.56918 580.98078 M372.04724 526.1811 L545.40248 588.92104 M372.04724 526.1811 L549.59039 596.40107 M372.04724 526.1811 L553.99765 603.41234 M372.04724 526.1811 L558.43733 610.01967 M372.04724 526.1811 L562.6701 616.31762 M372.04724 526.1811 L566.40641 622.39401 M372.04724 526.1811 L569.31193 628.30967 M372.04724 526.1811 L571.01566 634.08989 M372.04724 526.1811 L571.12006 639.72391 M372.04724 526.1811 L569.21188 645.1692 M372.04724 526.1811 L564.87234 650.35854 M372.04724 526.1811 L557.70301 655.20809 M372.04724 526.1811 L547.37327 659.62551 M372.04724 526.1811 L533.6408 663.51738 M372.04724 526.1811 L516.38248 666.79558 M372.04724 526.1811 L495.62716 669.38257 M372.04724 526.1811 L471.57619 671.21539 M372.04724 526.1811 L444.60824 672.2487 M372.04724 526.1811 L415.26631 672.45667 M372.04724 526.1811 L384.22621 671.83408 M372.04724 526.1811 L352.24741 670.39653 M372.04724 526.1811 L320.10855 668.17979 M372.04724 526.1811 L288.53193 665.23833 M372.04724 526.1811 L258.1266 661.64284 M372.04724 526.1811 L229.41156 657.47671 M372.04724 526.1811 L202.81775 652.83145 M372.04724 526.1811 L178.60873 647.80081 M372.04724 526.1811 L156.80998 642.47386 M372.04724 526.1811 L137.28125 636.92716 M372.04724 526.1811 L119.79348 631.21657 M372.04724 526.1811 L104.08358 625.36948 M372.04724 526.1811 L89.89105 619.37893 M372.04724 526.1811 L76.98038 613.20136 M372.04724 526.1811 L65.1527 606.76077 M372.04724 526.1811 L54.24984 599.9625 M372.04724 526.1811 L44.15327 592.72118 M372.04724 526.1811 L35.43307 584.89049 M372.04724 526.1811 L35.43307 575.49499 M372.04724 526.1811 L35.43307 566.37173 M372.04724 526.1811 L35.43307 557.66948 M372.04724 526.1811 L35.43307 549.59317 M372.04724 526.1811 L35.43307 542.37669 M372.04724 526.1811 L35.43307 536.25533 M372.04724 526.1811 L35.43307 531.43976 M372.04724 526.1811 L35.43307 528.09331 M372.04724 526.1811 L35.43307 526.31398 M372.04724 526.1811 L35.43307 526.12224 M372.04724 526.1811 L35.43307 527.45511 M372.04724 526.1811 L35.43307 530.16672 M372.04724 526.1811 L35.43307 534.03472 M372.04724 526.1811 L35.43307 538.7718 M372.04724 526.1811 L35.43307 544.04087 M372.04724 526.1811 L35.43307 549.47255 M372.04724 526.1811 L35.43307 554.68319 M372.04724 526.1811 L35.43307 559.29197 M372.04724 526.1811 L35.43307 562.93561 M372.04724 526.1811 L35.43307 565.2797 M372.04724 526.1811 L35.43307 566.02589 M372.04724 526.1811 L35.43307 564.91472 M372.04724 526.1811 L35.43307 561.7246 M372.04724 526.1811 L35.43307 556.28097 M372.04724 526.1811 L35.43307 548.47654 M372.04724 526.1811 L35.43307 538.26215 M372.04724 526.1811 L35.43307 525.63955 M372.04724 526.1811 L44.15327 511.05458 M372.04724 526.1811 L54.24984 495.20082 M372.04724 526.1811 L65.1527 478.46219 M372.04724 526.1811 L76.98038 461.23207 M372.04724 526.1811 L89.89105 443.8925 M372.04724 526.1811 L104.08358 426.79803 M372.04724 526.1811 L119.79348 410.26407 M372.04724 526.1811 L137.28125 394.56009 M372.04724 526.1811 L156.80998 379.90707 M372.04724 526.1811 L178.60873 366.47884 M372.04724 526.1811 L202.81775 354.40622 M372.04724 526.1811 L229.41156 343.78296 M372.04724 526.1811 L258.1266 334.67262 M372.04724 526.1811 L288.53193 327.11561 M372.04724 526.1811 L320.10855 321.13555 M372.04724 526.1811 L352.24741 316.74491 M372.04724 526.1811 L384.22621 313.94938 M372.04724 526.1811 L415.26631 312.75106 M372.04724 526.1811 L444.60824 313.15051 M372.04724 526.1811 L471.57619 315.14757 M372.04724 526.1811 L495.62716 318.74108 M372.04724 526.1811 L516.38248 323.92748 M372.04724 526.1811 L533.6408 330.69815 M372.04724 526.1811 L547.37327 339.03569 M372.04724 526.1811 L557.70301 348.90882 M372.04724 526.1811 L564.87234 360.26643 M372.04724 526.1811 L569.21188 373.03073 M372.04724 526.1811 L571.12006 387.09027 M372.04724 526.1811 L571.01566 402.29339 M372.04724 526.1811 L569.31193 418.44302 M372.04724 526.1811 L566.40641 435.29389 M372.04724 526.1811 L562.6701 452.55301 M372.04724 526.1811 L558.43733 469.88422 M372.04724 526.1811 L553.99765 486.91748 M372.04724 526.1811 L549.59039 503.26282 M372.04724 526.1811 L545.40248 518.5284 M372.04724 526.1811 L541.56918 532.34165 M372.04724 526.1811 L538.17747 544.37134 M372.04724 526.1811 L535.27155 554.34807 M372.04724 526.1811 L532.85961 562.07997 M372.04724 526.1811 L530.92142 567.46226 M372.04724 526.1811 L529.41593 570.49431 M372.04724 526.1811 L528.28856 571.27771 M372.04724 526.1811 L527.47771 569.99509 M372.04724 526.1811 L526.92031 566.90863 M372.04724 526.1811 L526.55645 562.35697 M372.04724 526.1811 L526.33296 556.74531 M372.04724 526.1811 L526.20605 550.52887 M372.04724 526.1811 L526.14322 544.19036 M372.04724 526.1811 L526.12452 538.21308 M526.12452 538.21308 L526.14322 533.05164 L526.20605 529.10306 L526.33296 526.68078 L526.55645 525.99442 L526.92031 527.13726 L527.47771 530.08319 L528.28856 534.6936 L529.41593 540.73394 L530.92142 547.89861 L532.85961 555.8417 L535.27155 564.21082 L538.17747 572.68034 L541.56918 580.98078 L545.40248 588.92104 L549.59039 596.40107 L553.99765 603.41234 L558.43733 610.01967 L562.6701 616.31762 L566.40641 622.39401 L569.31193 628.30967 L571.01566 634.08989 L571.12006 639.72391 L569.21188 645.1692 L564.87234 650.35854 L557.70301 655.20809 L547.37327 659.62551 L533.6408 663.51738 L516.38248 666.79558 L495.62716 669.38257 L471.57619 671.21539 L444.60824 672.2487 L415.26631 672.45667 L384.22621 671.83408 L352.24741 670.39653 L320.10855 668.17979 L288.53193 665.23833 L258.1266 661.64284 L229.41156 657.47671 L202.81775 652.83145 L178.60873 647.80081 L156.80998 642.47386 L137.28125 636.92716 L119.79348 631.21657 L104.08358 625.36948 L89.89105 619.37893 L76.98038 613.20136 L65.1527 606.76077 L54.24984 599.9625 L44.15327 592.72118 L35.43307 585.54205 M35.43307 524.62239 L44.15327 511.05458 L54.24984 495.20082 L65.1527 478.46219 L76.98038 461.23207 L89.89105 443.8925 L104.08358 426.79803 L119.79348 410.26407 L137.28125 394.56009 L156.80998 379.90707 L178.60873 366.47884 L202.81775 354.40622 L229.41156 343.78296 L258.1266 334.67262 L288.53193 327.11561 L320.10855 321.13555 L352.24741 316.74491 L384.22621 313.94938 L415.26631 312.75106 L444.60824 313.15051 L471.57619 315.14757 L495.62716 318.74108 L516.38248 323.92748 L533.6408 330.69815 L547.37327 339.03569 L557.70301 348.90882 L564.87234 360.26643 L569.21188 373.03073 L571.12006 387.09027 L571.01566 402.29339 L569.31193 418.44302 L566.40641 435.29389 L562.6701 452.55301 L558.43733 469.88422 L553.99765 486.91748 L549.59039 503.26282 L545.40248 518.5284 L541.56918 532.34165 L538.17747 544.37134 L535.27155 554.34807 L532.85961 562.07997 L530.92142 567.46226 L529.41593 570.49431 L528.28856 571.27771 L527.47771 569.99509 L526.92031 566.90863 L526.55645 562.35697 L526.33296 556.74531 L526.20605 550.52887 L526.14322 544.19036 L526.12452 538.21308 M538.73764 538.21308 L538.53712 532.15258 L537.9444 527.93226 L536.98635 526.04903 L535.70872 526.78602 L534.17739 530.19034 L532.47955 536.0756 L530.72443 544.05089 L529.04277 553.57466 L527.58452 564.02915 L526.51399 574.80755 L526.00198 585.40451 L526.21442 595.49882 L527.29786 605.01465 L529.36216 614.11949 L532.46156 623.1042 L536.57571 632.25994 L541.59277 641.80755 L547.2965 651.86611 L553.35979 662.44793 L559.34592 673.46967 L564.71847 684.772 L568.85955 696.14229 L571.09427 707.33692 L570.71815 718.10088 L567.02241 728.18375 L559.32406 737.35171 L547.05863 745.39597 L529.8481 752.13799 L507.56067 757.43232 L480.37735 761.16784 L448.82228 763.26787 L413.74846 763.68999 L376.27545 762.42574 L337.67977 759.50053 L299.24305 754.97387 L262.084 748.93965 L227.13256 741.52622 L195.15608 732.8958 L166.56584 723.24257 L141.30781 712.78866 L119.04402 701.77744 L99.31303 690.46339 L81.63568 679.09807 L65.57838 667.91225 L50.78522 657.09478 L36.9885 646.76976 L35.43307 645.59628 M35.43307 372.07021 L36.9885 369.02658 L50.78522 344.63767 L65.57838 321.67214 L81.63568 300.41611 L99.31303 281.04534 L119.04402 263.65217 L141.30781 248.26921 L166.56584 234.88312 L195.15608 223.44771 L227.13256 213.8962 L262.084 206.15141 L299.24305 200.13618 L337.67977 195.78274 L376.27545 193.03838 L413.74846 191.8685 L448.82228 192.25804 L480.37735 194.21203 L507.56067 197.75543 L529.8481 202.93214 L547.05863 209.80292 L559.32406 218.44115 L567.02241 228.9254 L570.71815 241.32883 L571.09427 255.70933 L568.85955 272.09829 L564.71847 290.48772 L559.34592 310.81709 L553.35979 332.95632 L547.2965 356.67678 L541.59277 381.63229 L536.57571 407.35508 L532.46156 433.265 L529.36216 458.69319 L527.29786 482.91996 L526.21442 505.22409 L526.00198 524.93908 L526.51399 541.5094 L527.58452 554.53803 L529.04277 563.81511 L530.72443 569.32885 L532.47955 571.28425 L534.17739 570.05685 L535.70872 566.16212 L536.98635 560.24758 L537.9444 553.06831 L538.53712 545.44577 L538.73764 538.21308 M575.15069 538.21308 L574.79791 531.30474 L573.74107 527.02295 L571.98553 526.0849 L569.54312 528.80953 L566.43668 535.0854 L562.70663 544.3978 L558.41929 555.91879 L553.67627 568.65626 L548.62353 581.64884 L543.45822 594.18615 L538.43081 606.02268 L533.84024 617.46803 L530.01992 629.14772 L527.31379 641.7028 L526.04264 655.61766 L526.46287 671.14755 L528.72155 688.31126 L532.81282 706.92242 L538.54203 726.63961 L545.50322 747.02156 L553.07524 767.57888 L560.43886 787.81718 L566.61453 807.26969 L570.51619 825.51898 L571.01226 842.20886 L566.98079 857.0483 L557.36669 869.80914 L541.35041 880.31993 L518.48349 888.45751 L488.81334 894.13819 L452.9819 897.30977 L412.22639 897.94538 L368.2707 896.03983 L323.10617 891.60888 L278.67183 884.69143 L236.58423 875.35452 L198.17781 863.7005 L164.26539 849.87556 L134.81399 834.07856 L109.25524 816.56852 L86.81683 797.66909 L66.72868 777.76803 L48.33575 757.30952 L35.43307 741.8983 M35.43307 213.78883 L48.33575 197.87342 L66.72868 179.45974 L86.81683 163.62493 L109.25524 150.12039 L134.81399 138.70319 L164.26539 129.15757 L198.17781 121.30331 L236.58423 114.99664 L278.67183 110.12755 L323.10617 106.61557 L368.2707 104.40553 L412.22639 103.46415 L452.9819 103.77756 L488.81334 105.35036 L518.48349 108.20592 L541.35041 112.38807 L557.36669 117.96415 L566.98079 125.02884 L571.01226 133.70857 L570.51619 144.16514 L566.61453 156.59702 L560.43886 171.23527 L553.07524 188.32944 L545.50322 208.1166 L538.54203 230.76314 L532.81282 256.28881 L528.72155 284.55774 L526.46287 315.27941 L526.04264 347.97466 L527.31379 381.90441 L530.01992 416.07506 L533.84024 449.31069 L538.43081 480.35899 L543.45822 508.01848 L548.62353 531.26963 L553.67627 549.38854 L558.41929 562.01825 L562.70663 569.18219 L566.43668 571.293 L569.54312 569.06497 L571.98553 563.44017 L573.74107 555.56218 L574.79791 546.71264 L575.15069 538.21308 M615.13454 538.21308 L614.74815 530.51085 L613.59281 526.38988 L611.67837 526.81039 L609.01571 532.04658 L605.60969 541.65407 L601.45211 554.56753 L596.51853 569.33777 L590.77538 584.49787 L584.20334 599.02673 L576.82966 612.82335 L568.76439 626.73931 L560.23218 641.96997 L551.59101 659.55198 L543.32962 680.1223 L536.03824 703.85423 L530.35132 730.50048 L526.866 759.49118 L526.04524 790.05072 L528.11884 821.31021 L532.99786 852.40222 L540.21775 882.53193 L548.92255 911.0233 L557.89661 937.3425 L565.642 961.10215 L570.48972 982.05102 L570.72265 1000.05375 L564.67892 1015.06498 L562.54251 1016.92913 M198.70587 1016.92913 L171.6107 1007.93338 L136.75158 991.42527 L107.02143 971.93882 L81.25953 949.56096 L58.29531 924.482 L37.16652 897.01924 L35.43307 894.46759 M35.43307 105.24294 L37.16652 103.92102 L58.29531 90.85422 L81.25953 79.62731 L107.02143 70.00517 L136.75158 61.82196 L171.6107 54.96591 L212.32982 49.36497 L258.54215 44.97484 L308.58605 41.76963 L360.22302 39.73514 L410.70017 38.86428 L457.08527 39.1545 L496.86817 40.60662 L528.36425 43.22522 L550.88443 47.02051 L564.67892 52.01184 L570.72265 58.23332 L570.48972 65.74177 L565.642 74.62745 L557.89661 85.02727 L548.92255 97.13984 L540.21775 111.24013 L532.99786 127.68945 L528.11884 146.93304 L526.04524 169.47234 L526.866 195.79159 L530.35132 226.20807 L536.03824 260.64134 L543.32962 298.58389 L551.59101 339.19642 L560.23218 381.21084 L568.76439 422.89769 L576.82966 462.27235 L584.20334 497.36821 L590.77538 526.51527 L596.51853 548.57464 L601.45211 563.07428 L605.60969 570.21578 L609.01571 570.83792 L611.67837 566.22032 L613.59281 557.97939 L614.74815 547.98725 L615.13454 538.21308" fill="none" stroke="black" stroke-width="0.03cm" />
    </g>
</svg>