<?xml version="1.0" standalone="no"?>
  <!DOCTYPE svg PUBLIC "-//W3C//DTD SVG 1.1//EN" 
      "http://www.w3.org/Graphics/SVG/1.1/DTD/svg11.dtd">
  <svg width="21cm" height="29.7cm"
      xmlns="http://www.w3.org/2000/svg" version="1.1" viewBox="0 0 744.09449 1052.3622">
    <g>
      <path d="M372.04724 526.1811 L398.32236 344.86204 M372.04724 526.1811 L396.77512 375.74607 M372.04724 526.1811 L392.13109 406.57817 M372.04724 526.1811 L384.39867 435.17521 M372.04724 526.1811 L373.64501 460.58088 M372.04724 526.1811 L360.07896 483.11221 M372.04724 526.1811 L344.16152 503.82821 M372.04724 526.1811 L326.71506 523.68437 M372.04724 526.1811 L308.97797 542.83578 M372.04724 526.1811 L292.54161 561.00575 M372.04724 526.1811 L279.13937 578.06574 M372.04724 526.1811 L270.35357 593.72474 M372.04724 526.1811 L267.46057 607.47419 M372.04724 526.1811 L271.4988 618.71268 M372.04724 526.1811 L282.75612 626.88312 M372.04724 526.1811 L300.37795 631.56386 M372.04724 526.1811 L322.52865 632.51226 M372.04724 526.1811 L346.65342 629.67932 M372.04724 526.1811 L369.68193 623.21164 M372.04724 526.1811 L388.31011 613.44449 M372.04724 526.1811 L399.82308 600.87534 M372.04724 526.1811 L401.69457 586.09819 M372.04724 526.1811 L392.2036 569.68674 M372.04724 526.1811 L371.6875 552.05073 M372.04724 526.1811 L342.4719 533.37116 M372.04724 526.1811 L308.07122 513.83087 M372.04724 526.1811 L272.26734 493.62474 M372.04724 526.1811 L238.41395 472.1477 M372.04724 526.1811 L209.08082 448.28321 M372.04724 526.1811 L185.99806 421.24825 M372.04724 526.1811 L170.19011 391.32898 M372.04724 526.1811 L162.18145 360.13989 M372.04724 526.1811 L162.18145 330.27681 M372.04724 526.1811 L170.19011 304.52997 M372.04724 526.1811 L185.99806 285.03593 M372.04724 526.1811 L209.08082 272.77768 M372.04724 526.1811 L238.41395 267.67185 M372.04724 526.1811 L272.26734 269.10352 M372.04724 526.1811 L308.07122 275.99344 M372.04724 526.1811 L342.4719 286.72794 M372.04724 526.1811 L371.6875 299.55454 M372.04724 526.1811 L392.2036 312.89652 M372.04724 526.1811 L401.69457 325.50991 M372.04724 526.1811 L399.82308 336.52857 M372.04724 526.1811 L388.31011 345.43656 M372.04724 526.1811 L369.68193 351.99534 M372.04724 526.1811 L346.65342 356.14716 M372.04724 526.1811 L322.52865 357.91571 M372.04724 526.1811 L300.37795 357.32708 M372.04724 526.1811 L282.75612 354.37147 M372.04724 526.1811 L271.4988 349.01624 M372.04724 526.1811 L267.46057 341.26674 M372.04724 526.1811 L270.35357 331.25834 M372.04724 526.1811 L279.13937 319.35723 M372.04724 526.1811 L292.54161 306.24763 M372.04724 526.1811 L308.97797 292.98489 M372.04724 526.1811 L326.71506 280.99096 M372.04724 526.1811 L344.16152 271.95885 M372.04724 526.1811 L360.07896 267.62227 M372.04724 526.1811 L373.64501 269.36308 M372.04724 526.1811 L384.39867 277.98779 M372.04724 526.1811 L392.13109 293.91082 M372.04724 526.1811 L396.77512 316.73159 M372.04724 526.1811 L398.32236 344.86204 M398.32236 344.86204 L396.77512 375.74607 L392.13109 406.57817 L384.39867 435.17521 L373.64501 460.58088 L360.07896 483.11221 L344.16152 503.82821 L326.71506 523.68437 L308.97797 542.83578 L292.54161 561.00575 L279.13937 578.06574 L270.35357 593.72474 L267.46057 607.47419 L271.4988 618.71268 L282.75612 626.88312 L300.37795 631.56386 L322.52865 632.51226 L346.65342 629.67932 L369.68193 623.21164 L388.31011 613.44449 L399.82308 600.87534 L401.69457 586.09819 L392.2036 569.68674 L371.6875 552.05073 L342.4719 533.37116 L308.07122 513.83087 L272.26734 493.62474 L238.41395 472.1477 L209.08082 448.28321 L185.99806 421.24825 L170.19011 391.32898 L162.18145 360.13989 L162.18145 330.27681 L170.19011 304.52997 L185.99806 285.03593 L209.08082 272.77768 L238.41395 267.67185 L272.26734 269.10352 L308.07122 275.99344 L342.4719 286.72794 L371.6875 299.55454 L392.2036 312.89652 L401.69457 325.50991 L399.82308 336.52857 L388.31011 345.43656 L369.68193 351.99534 L346.65342 356.14716 L322.52865 357.91571 L300.37795 357.32708 L282.75612 354.37147 L271.4988 349.01624 L267.46057 341.26674 L270.35357 331.25834 L279.13937 319.35723 L292.54161 306.24763 L308.97797 292.98489 L326.71506 280.99096 L344.16152 271.95885 L360.07896 267.62227 L373.64501 269.36308 L384.39867 277.98779 L392.13109 293.91082 L396.77512 316.73159 L398.32236 344.86204 M456.13746 344.86204 L454.56277 382.02812 L449.80032 418.57717 L441.73009 451.43106 L430.15161 480.13762 L414.83436 506.42531 L395.66965 532.27448 L372.9444 558.04603 L347.67357 583.91224 L321.82 610.01966 L298.17865 635.71963 L279.81225 659.78109 L269.26878 680.86163 L268.30813 697.84817 L277.96623 709.9837 L297.38448 716.83827 L323.712 718.21773 L352.68385 714.08766 L378.9868 704.55586 L397.0856 689.9225 L401.93677 670.77138 L388.89373 648.04153 L357.03128 622.98951 L309.90728 596.95741 L253.88893 570.94183 L195.90379 545.17681 L141.72575 519.34035 L95.17735 493.43655 L58.13803 466.2289 L35.43307 440.53551 M35.43307 276.27705 L58.13803 268.3393 L95.17735 269.06374 L141.72575 278.67419 L195.90379 294.61514 L253.88893 313.86393 L309.90728 333.65702 L357.03128 351.84998 L388.89373 367.04789 L401.93677 378.63265 L397.0856 386.71556 L378.9868 391.85069 L352.68385 394.70079 L323.712 395.8101 L297.38448 395.44821 L277.96623 393.52261 L268.30813 389.60939 L269.26878 383.08336 L279.81225 373.29962 L298.17865 359.88045 L321.82 343.05877 L347.67357 323.8433 L372.9444 304.01052 L395.66965 286.04193 L414.83436 272.89548 L430.15161 267.47747 L441.73009 271.75837 L449.80032 286.54692 L454.56277 311.65294 L456.13746 344.86204 M505.81676 344.86204 L504.11026 388.29973 L499.03088 430.21063 L490.65976 466.79677 L478.99931 499.06465 L463.80533 530.59689 L444.50325 562.94657 L420.39787 597.01194 L391.30322 633.47894 L358.4204 671.09645 L324.92196 707.35474 L295.58688 739.72407 L275.30883 766.44649 L267.47343 786.71716 L274.01485 800.45597 L294.4984 807.9292 L324.90022 809.40747 L358.61566 804.95574 L387.15434 794.39002 L401.81339 777.40602 L393.63985 753.86244 L357.23575 724.15828 L295.81318 689.5656 L219.33741 652.28668 L139.83294 614.97916 L67.30473 579.68061 L35.43307 562.01465 M35.43307 307.25865 L67.30473 320.59964 L139.83294 346.48926 L219.33741 369.37432 L295.81318 386.57903 L357.23575 397.26766 L393.63985 401.87087 L401.81339 401.75558 L387.15434 399.07303 L358.61566 396.0695 L324.90022 394.45255 L294.4984 395.01407 L274.01485 397.48633 L267.47343 400.58846 L275.30883 402.27968 L295.58688 400.26907 L324.92196 392.72882 L358.4204 378.7827 L391.30322 358.5121 L420.39787 333.69726 L444.50325 307.72474 L463.80533 285.00978 L478.99931 270.45783 L490.65976 268.25682 L499.03088 280.33381 L504.11026 306.79746 L505.81676 344.86204 M558.06946 344.86204 L555.84511 394.5432 L549.28737 441.42976 L538.6931 481.48456 L524.45385 518.27198 L507.08425 556.32729 L486.81148 597.47771 L462.81901 643.73035 L433.42544 693.44861 L397.57041 742.11121 L356.92871 785.08403 L316.97486 819.49548 L285.48915 844.64984 L269.00593 861.46357 L270.95684 871.58054 L291.72669 876.59579 L326.09297 877.54399 L364.39531 874.64396 L393.90481 867.25095 L401.21376 854.00333 L372.90559 833.20013 L306.36372 803.45083 L213.48638 764.54095 L113.4051 718.22834 L35.43307 674.98436 M35.43307 379.94169 L113.4051 395.81285 L213.48638 402.28421 L306.36372 396.56701 L372.90559 381.49955 L401.21376 362.02824 L393.90481 343.3006 L364.39531 329.42702 L326.09297 323.02391 L291.72669 325.1884 L270.95684 335.5571 L269.00593 352.28179 L285.48915 371.97846 L316.97486 389.91824 L356.92871 400.84451 L397.57041 400.61832 L433.42544 388.03571 L462.81901 364.60977 L486.81148 334.04068 L507.08425 302.72164 L524.45385 278.13106 L538.6931 267.52817 L549.28737 275.31552 L555.84511 302.1802 L558.06946 344.86204" fill="none" stroke="black" stroke-width="0.03cm" />
    </g>
</svg>