<?xml version="1.0" standalone="no"?>
  <!DOCTYPE svg PUBLIC "-//W3C//DTD SVG 1.1//EN" 
      "http://www.w3.org/Graphics/SVG/1.1/DTD/svg11.dtd">
  <svg width="21cm" height="29.7cm"
      xmlns="http://www.w3.org/2000/svg" version="1.1" viewBox="0 0 744.09449 1052.3622">
    <g>
      <path d="M372.04724 526.1811 L590.68636 520.83482 M372.04724 526.1811 L588.62437 561.09209 M372.04724 526.1811 L582.47288 601.81371 M372.04724 526.1811 L572.33383 642.63969 M372.04724 526.1811 L558.37186 683.11922 M372.04724 526.1811 L540.80639 722.6878 M372.04724 526.1811 L519.90133 760.66969 M372.04724 526.1811 L495.95361 796.33198 M372.04724 526.1811 L469.28317 829.02464 M372.04724 526.1811 L440.22666 858.25172 M372.04724 526.1811 L409.13642 883.67265 M372.04724 526.1811 L376.38467 905.08829 M372.04724 526.1811 L342.37079 922.41073 M372.04724 526.1811 L307.52808 935.62194 M372.04724 526.1811 L272.32632 944.73983 M372.04724 526.1811 L237.26715 949.79276 M372.04724 526.1811 L202.87132 950.80215 M372.04724 526.1811 L169.6589 947.77276 M372.04724 526.1811 L138.12473 940.69078 M372.04724 526.1811 L108.7127 929.52962 M372.04724 526.1811 L81.79172 914.26348 M372.04724 526.1811 L57.63616 894.88873 M372.04724 526.1811 L36.41279 871.45349 M372.04724 526.1811 L35.43307 828.59222 M372.04724 526.1811 L35.43307 787.77774 M372.04724 526.1811 L35.43307 748.98928 M372.04724 526.1811 L35.43307 711.59306 M372.04724 526.1811 L35.43307 675.26238 M372.04724 526.1811 L35.43307 639.83768 M372.04724 526.1811 L35.43307 605.22342 M372.04724 526.1811 L35.43307 571.3527 M372.04724 526.1811 L35.43307 538.17114 M372.04724 526.1811 L35.43307 505.62925 M372.04724 526.1811 L35.43307 473.67513 M372.04724 526.1811 L35.43307 442.24199 M372.04724 526.1811 L35.43307 411.22806 M372.04724 526.1811 L35.43307 380.46973 M372.04724 526.1811 L35.43307 349.71029 M372.04724 526.1811 L35.43307 318.56566 M372.04724 526.1811 L35.43307 286.4863 M372.04724 526.1811 L35.43307 252.7095 M372.04724 526.1811 L36.41279 217.09279 M372.04724 526.1811 L57.63616 198.62331 M372.04724 526.1811 L81.79172 183.34791 M372.04724 526.1811 L108.7127 171.2962 M372.04724 526.1811 L138.12473 162.47205 M372.04724 526.1811 L169.6589 156.866 M372.04724 526.1811 L202.87132 154.46615 M372.04724 526.1811 L237.26715 155.2659 M372.04724 526.1811 L272.32632 159.26756 M372.04724 526.1811 L307.52808 166.48109 M372.04724 526.1811 L342.37079 176.9184 M372.04724 526.1811 L376.38467 190.58375 M372.04724 526.1811 L409.13642 207.46198 M372.04724 526.1811 L440.22666 227.50608 M372.04724 526.1811 L469.28317 250.62639 M372.04724 526.1811 L495.95361 276.68334 M372.04724 526.1811 L519.90133 305.48554 M372.04724 526.1811 L540.80639 336.7941 M372.04724 526.1811 L558.37186 370.33328 M372.04724 526.1811 L572.33383 405.80561 M372.04724 526.1811 L582.47288 442.90834 M372.04724 526.1811 L588.62437 481.34612 M372.04724 526.1811 L590.68636 520.83482 M590.68636 520.83482 L588.62437 561.09209 L582.47288 601.81371 L572.33383 642.63969 L558.37186 683.11922 L540.80639 722.6878 L519.90133 760.66969 L495.95361 796.33198 L469.28317 829.02464 L440.22666 858.25172 L409.13642 883.67265 L376.38467 905.08829 L342.37079 922.41073 L307.52808 935.62194 L272.32632 944.73983 L237.26715 949.79276 L202.87132 950.80215 L169.6589 947.77276 L138.12473 940.69078 L108.7127 929.52962 L81.79172 914.26348 L57.63616 894.88873 L36.41279 871.45349 L35.43307 869.98383 M35.43307 218.25297 L36.41279 217.09279 L57.63616 198.62331 L81.79172 183.34791 L108.7127 171.2962 L138.12473 162.47205 L169.6589 156.866 L202.87132 154.46615 L237.26715 155.2659 L272.32632 159.26756 L307.52808 166.48109 L342.37079 176.9184 L376.38467 190.58375 L409.13642 207.46198 L440.22666 227.50608 L469.28317 250.62639 L495.95361 276.68334 L519.90133 305.48554 L540.80639 336.7941 L558.37186 370.33328 L572.33383 405.80561 L582.47288 442.90834 L588.62437 481.34612 L590.68636 520.83482 M675.70719 520.83482 L673.11474 569.24553 L665.38367 618.44752 L652.65273 668.01243 L635.1513 717.30535 L613.19202 765.41631 L587.15511 811.20964 L557.46522 853.63086 L524.56588 891.88481 L488.89982 925.47451 L450.90232 954.18086 L411.01032 977.97652 L369.68383 996.95001 L327.43087 1011.24653 L302.6624 1016.92913 M125.47563 1016.92913 L124.29903 1016.69013 L90.0616 1004.67295 L59.33792 988.05769 L35.43307 969.03564 M35.43307 139.99297 L59.33792 124.84892 L90.0616 111.5699 L124.29903 101.93609 L161.54436 95.85792 L201.17788 93.26651 L242.5095 94.12939 L284.82532 98.45756 L327.43087 106.30319 L369.68383 117.74793 L411.01032 132.88367 L450.90232 151.78822 L488.89982 174.49928 L524.56588 200.99058 L557.46522 231.15421 L587.15511 264.79261 L613.19202 301.6232 L635.1513 341.29647 L652.65273 383.42587 L665.38367 427.6235 L673.11474 473.53137 L675.70719 520.83482 M708.66142 765.87443 L688.58619 808.33129 L656.97594 861.24951 L621.0283 909.352 L581.38168 951.8261 L538.65049 988.34934 L496.35471 1016.92913 M35.43307 73.55089 L38.35536 71.72451 L72.17847 58.0237 L110.7937 48.23189 L153.5137 42.12482 L199.48721 39.53887 L247.77217 40.39871 L297.41413 44.7298 L347.51853 52.65419 L397.30211 64.37012 L446.10964 80.1179 L493.39141 100.13647 L538.65049 124.61623 L581.38168 153.65473 L621.0283 187.22181 L656.97594 225.1404 L688.58619 267.08838 L708.66142 301.36582 M708.66142 935.56127 L686.90614 962.39432 L640.01376 1007.61737 L627.66165 1016.92913 M486.67544 35.43307 L536.70838 53.59531 L589.68341 78.68893 L640.01376 109.21178 L686.90614 145.27208 L708.66142 166.4943" fill="none" stroke="black" stroke-width="0.03cm" />
    </g>
</svg>