<?xml version="1.0" standalone="no"?>
  <!DOCTYPE svg PUBLIC "-//W3C//DTD SVG 1.1//EN" 
      "http://www.w3.org/Graphics/SVG/1.1/DTD/svg11.dtd">
  <svg width="21cm" height="29.7cm"
      xmlns="http://www.w3.org/2000/svg" version="1.1" viewBox="0 0 744.09449 1052.3622">
    <g>
      <path d="M372.04724 526.1811 L555.43306 523.86459 M372.04724 526.1811 L555.71335 533.51058 M372.04724 526.1811 L555.8218 543.38099 M372.04724 526.1811 L555.75241 553.44925 M372.04724 526.1811 L555.49577 563.68639 M372.04724 526.1811 L555.03912 574.06118 M372.04724 526.1811 L554.36649 584.54017 M372.04724 526.1811 L553.4589 595.08777 M372.04724 526.1811 L552.29469 605.66628 M372.04724 526.1811 L550.8498 616.23598 M372.04724 526.1811 L549.09826 626.75509 M372.04724 526.1811 L547.01261 637.17981 M372.04724 526.1811 L544.56448 647.46429 M372.04724 526.1811 L541.72515 657.56062 M372.04724 526.1811 L538.46618 667.4188 M372.04724 526.1811 L534.76002 676.98675 M372.04724 526.1811 L530.58071 686.21037 M372.04724 526.1811 L525.90443 695.03364 M372.04724 526.1811 L520.71019 703.39886 M372.04724 526.1811 L514.98034 711.24696 M372.04724 526.1811 L508.70111 718.51797 M372.04724 526.1811 L501.86305 725.15166 M372.04724 526.1811 L494.46138 731.08835 M372.04724 526.1811 L486.49625 736.26981 M372.04724 526.1811 L477.9729 740.6404 M372.04724 526.1811 L468.90175 744.14828 M372.04724 526.1811 L459.2983 746.74664 M372.04724 526.1811 L449.183 748.39502 M372.04724 526.1811 L438.58103 749.06048 M372.04724 526.1811 L427.52189 748.71871 M372.04724 526.1811 L416.03903 747.35485 M372.04724 526.1811 L404.16936 744.96405 M372.04724 526.1811 L391.95271 741.55178 M372.04724 526.1811 L379.43128 737.13361 M372.04724 526.1811 L366.64908 731.73481 M372.04724 526.1811 L353.65135 725.38947 M372.04724 526.1811 L340.48407 718.13934 M372.04724 526.1811 L327.19346 710.03251 M372.04724 526.1811 L313.82551 701.12185 M372.04724 526.1811 L300.42571 691.46345 M372.04724 526.1811 L287.0387 681.11504 M372.04724 526.1811 L273.7081 670.13459 M372.04724 526.1811 L260.47642 658.57908 M372.04724 526.1811 L247.38501 646.50346 M372.04724 526.1811 L234.47408 633.96001 M372.04724 526.1811 L221.78288 620.99785 M372.04724 526.1811 L209.34981 607.66288 M372.04724 526.1811 L197.21264 593.99793 M372.04724 526.1811 L185.40875 580.04308 M372.04724 526.1811 L173.97531 565.83636 M372.04724 526.1811 L162.94954 551.41441 M372.04724 526.1811 L152.36889 536.81337 M372.04724 526.1811 L142.27115 522.06978 M372.04724 526.1811 L132.69452 507.2215 M372.04724 526.1811 L123.67764 492.3086 M372.04724 526.1811 L115.25951 477.37417 M372.04724 526.1811 L107.47929 462.46503 M372.04724 526.1811 L100.37609 447.63227 M372.04724 526.1811 L93.9886 432.93164 M372.04724 526.1811 L88.35473 418.42378 M372.04724 526.1811 L83.51109 404.17414 M372.04724 526.1811 L79.49247 390.25276 M372.04724 526.1811 L76.33128 376.73379 M372.04724 526.1811 L74.05693 363.69473 M372.04724 526.1811 L72.69526 351.2155 M372.04724 526.1811 L72.26794 339.37719 M372.04724 526.1811 L72.79191 328.26069 M372.04724 526.1811 L74.27887 317.94498 M372.04724 526.1811 L76.73485 308.50541 M372.04724 526.1811 L80.15982 300.01168 M372.04724 526.1811 L84.54747 292.52585 M372.04724 526.1811 L89.88495 286.10026 M372.04724 526.1811 L96.15289 280.77551 M372.04724 526.1811 L103.32537 276.57862 M372.04724 526.1811 L111.37007 273.52137 M372.04724 526.1811 L120.24855 271.59911 M372.04724 526.1811 L129.91656 270.78986 M372.04724 526.1811 L140.32446 271.05412 M372.04724 526.1811 L151.41779 272.33518 M372.04724 526.1811 L163.13776 274.56018 M372.04724 526.1811 L175.42196 277.64173 M372.04724 526.1811 L188.20499 281.48024 M372.04724 526.1811 L201.41918 285.96672 M372.04724 526.1811 L214.99525 290.98601 M372.04724 526.1811 L228.86311 296.42023 M372.04724 526.1811 L242.95248 302.15236 M372.04724 526.1811 L257.1936 308.06964 M372.04724 526.1811 L271.51789 314.06674 M372.04724 526.1811 L285.85852 320.04848 M372.04724 526.1811 L300.15099 325.93196 M372.04724 526.1811 L314.33358 331.64815 M372.04724 526.1811 L328.34781 337.14262 M372.04724 526.1811 L342.13876 342.3757 M372.04724 526.1811 L355.65544 347.3222 M372.04724 526.1811 L368.85116 351.97074 M372.04724 526.1811 L381.6837 356.32275 M372.04724 526.1811 L394.11548 360.39123 M372.04724 526.1811 L406.11379 364.19903 M372.04724 526.1811 L417.65072 367.77687 M372.04724 526.1811 L428.70318 371.16135 M372.04724 526.1811 L439.2527 374.39317 M372.04724 526.1811 L449.28535 377.51552 M372.04724 526.1811 L458.79151 380.57278 M372.04724 526.1811 L467.76571 383.60929 M372.04724 526.1811 L476.20639 386.66849 M372.04724 526.1811 L484.11569 389.79218 M372.04724 526.1811 L491.49916 393.01992 M372.04724 526.1811 L498.36557 396.38867 M372.04724 526.1811 L504.72654 399.93252 M372.04724 526.1811 L510.59632 403.68249 M372.04724 526.1811 L515.99148 407.66649 M372.04724 526.1811 L520.93055 411.90927 M372.04724 526.1811 L525.43375 416.43248 M372.04724 526.1811 L529.52259 421.25471 M372.04724 526.1811 L533.21959 426.39157 M372.04724 526.1811 L536.54788 431.85576 M372.04724 526.1811 L539.53082 437.65716 M372.04724 526.1811 L542.19172 443.80289 M372.04724 526.1811 L544.55339 450.29737 M372.04724 526.1811 L546.63782 457.14236 M372.04724 526.1811 L548.46583 464.33697 M372.04724 526.1811 L550.0567 471.87769 M372.04724 526.1811 L551.4279 479.7584 M372.04724 526.1811 L552.5947 487.97036 M372.04724 526.1811 L553.56996 496.50222 M372.04724 526.1811 L554.36382 505.34001 M372.04724 526.1811 L554.98349 514.46718 M372.04724 526.1811 L555.43306 523.86459 M555.43306 523.86459 L555.71335 533.51058 L555.8218 543.38099 L555.75241 553.44925 L555.49577 563.68639 L555.03912 574.06118 L554.36649 584.54017 L553.4589 595.08777 L552.29469 605.66628 L550.8498 616.23598 L549.09826 626.75509 L547.01261 637.17981 L544.56448 647.46429 L541.72515 657.56062 L538.46618 667.4188 L534.76002 676.98675 L530.58071 686.21037 L525.90443 695.03364 L520.71019 703.39886 L514.98034 711.24696 L508.70111 718.51797 L501.86305 725.15166 L494.46138 731.08835 L486.49625 736.26981 L477.9729 740.6404 L468.90175 744.14828 L459.2983 746.74664 L449.183 748.39502 L438.58103 749.06048 L427.52189 748.71871 L416.03903 747.35485 L404.16936 744.96405 L391.95271 741.55178 L379.43128 737.13361 L366.64908 731.73481 L353.65135 725.38947 L340.48407 718.13934 L327.19346 710.03251 L313.82551 701.12185 L300.42571 691.46345 L287.0387 681.11504 L273.7081 670.13459 L260.47642 658.57908 L247.38501 646.50346 L234.47408 633.96001 L221.78288 620.99785 L209.34981 607.66288 L197.21264 593.99793 L185.40875 580.04308 L173.97531 565.83636 L162.94954 551.41441 L152.36889 536.81337 L142.27115 522.06978 L132.69452 507.2215 L123.67764 492.3086 L115.25951 477.37417 L107.47929 462.46503 L100.37609 447.63227 L93.9886 432.93164 L88.35473 418.42378 L83.51109 404.17414 L79.49247 390.25276 L76.33128 376.73379 L74.05693 363.69473 L72.69526 351.2155 L72.26794 339.37719 L72.79191 328.26069 L74.27887 317.94498 L76.73485 308.50541 L80.15982 300.01168 L84.54747 292.52585 L89.88495 286.10026 L96.15289 280.77551 L103.32537 276.57862 L111.37007 273.52137 L120.24855 271.59911 L129.91656 270.78986 L140.32446 271.05412 L151.41779 272.33518 L163.13776 274.56018 L175.42196 277.64173 L188.20499 281.48024 L201.41918 285.96672 L214.99525 290.98601 L228.86311 296.42023 L242.95248 302.15236 L257.1936 308.06964 L271.51789 314.06674 L285.85852 320.04848 L300.15099 325.93196 L314.33358 331.64815 L328.34781 337.14262 L342.13876 342.3757 L355.65544 347.3222 L368.85116 351.97074 L381.6837 356.32275 L394.11548 360.39123 L406.11379 364.19903 L417.65072 367.77687 L428.70318 371.16135 L439.2527 374.39317 L449.28535 377.51552 L458.79151 380.57278 L467.76571 383.60929 L476.20639 386.66849 L484.11569 389.79218 L491.49916 393.01992 L498.36557 396.38867 L504.72654 399.93252 L510.59632 403.68249 L515.99148 407.66649 L520.93055 411.90927 L525.43375 416.43248 L529.52259 421.25471 L533.21959 426.39157 L536.54788 431.85576 L539.53082 437.65716 L542.19172 443.80289 L544.55339 450.29737 L546.63782 457.14236 L548.46583 464.33697 L550.0567 471.87769 L551.4279 479.7584 L552.5947 487.97036 L553.56996 496.50222 L554.36382 505.34001 L554.98349 514.46718 L555.43306 523.86459 M586.16943 518.98799 L586.54826 530.54737 L586.82969 542.42624 L587.00586 554.59277 L587.06335 567.01233 L586.98321 579.64769 L586.74106 592.45911 L586.30739 605.40457 L585.64797 618.43987 L584.72434 631.51872 L583.49442 644.59269 L581.91319 657.61114 L579.93362 670.52103 L577.50755 683.26664 L574.58672 695.78925 L571.12387 708.02679 L567.07379 719.91346 L562.39443 731.37946 L557.04798 742.35086 L551.00184 752.74962 L544.22952 762.49393 L536.71147 771.4989 L528.43565 779.67758 L519.39804 786.94249 L509.60289 793.20748 L499.06281 798.39002 L487.79866 802.4137 L475.83924 805.21102 L463.22076 806.72596 L449.98619 806.91656 L436.18443 805.75689 L421.86941 803.23856 L407.09903 799.37137 L391.93411 794.18314 L376.43733 787.71869 L360.67216 780.03789 L344.70193 771.21312 L328.58889 761.32612 L312.39353 750.46456 L296.17392 738.71865 L279.98535 726.1778 L263.88003 712.92783 L247.90709 699.04863 L232.11263 684.61247 L216.54005 669.68307 L201.23042 654.31527 L186.22306 638.55535 L171.5561 622.44185 L157.26716 606.00684 L143.39401 589.27753 L129.97521 572.27801 L117.05068 555.03115 L104.66213 537.5606 L92.85346 519.8926 L81.67089 502.0578 L71.16301 484.09289 L61.38061 466.04198 L52.37632 447.95778 L44.2041 429.9024 L36.91854 411.94793 L35.43307 407.787 M35.43307 241.72948 L42.95058 235.04565 L51.87381 229.73495 L61.93772 226.03238 L73.09072 223.9475 L85.27244 223.46014 L98.41444 224.5189 L112.44107 227.04096 L127.27038 230.91324 L142.81516 235.99514 L158.98406 242.12263 L175.68264 249.11367 L192.81455 256.77461 L210.28256 264.9072 L227.98972 273.31582 L245.84028 281.81436 L263.7407 290.2325 L281.60031 298.42064 L299.33204 306.25322 L316.85314 313.63067 L334.08595 320.48085 L350.9585 326.75918 L367.40502 332.44771 L383.36637 337.55379 L398.79049 342.10647 L413.63257 346.15192 L427.85489 349.74901 L441.42661 352.9653 L454.32358 355.87365 L466.52801 358.54926 L478.0282 361.0673 L488.81823 363.50106 L498.89762 365.92052 L508.27102 368.3914 L516.9479 370.97443 L524.94216 373.72507 L532.27183 376.69329 L538.9587 379.92367 L545.02793 383.45553 L550.50769 387.32318 L555.42876 391.55625 L559.82405 396.18 L563.72822 401.21564 L567.17719 406.68066 L570.20765 412.58906 L572.8566 418.95158 L575.1608 425.77587 L577.1563 433.06662 L578.87791 440.82558 L580.3587 449.05161 L581.62949 457.74065 L582.71838 466.88565 L583.65026 476.47654 L584.44638 486.50014 L585.12391 496.94011 L585.69561 507.77696 L586.16943 518.98799 M613.43033 512.64182 L613.90163 526.10424 L614.38292 539.97821 L614.8654 554.22603 L615.33217 568.80672 L615.758 583.67645 L616.10938 598.78888 L616.34465 614.09563 L616.41443 629.54658 L616.26269 645.09016 L615.82748 660.67344 L615.04186 676.24194 L613.83507 691.73932 L612.13395 707.10676 L609.86447 722.28209 L606.95343 737.19883 L603.33015 751.78504 L598.92825 765.96217 L593.68733 779.64404 L587.55467 792.7361 L580.48665 805.1351 L572.45014 816.72933 L563.42347 827.39974 L553.39731 837.02181 L542.37505 845.46849 L530.373 852.61398 L517.42016 858.3384 L503.55765 862.53303 L488.83785 865.1057 L473.32321 865.98609 L457.08484 865.13021 L440.20085 862.52372 L422.75458 858.18365 L404.83273 852.15822 L386.5235 844.52469 L367.91476 835.38537 L349.09241 824.86214 L330.13884 813.0899 L311.13172 800.20959 L292.14305 786.36138 L273.23849 771.67852 L254.47712 756.28232 L235.91146 740.27846 L217.58785 723.75487 L199.54714 706.78099 L181.82563 689.40827 L164.45624 671.67183 L147.46979 653.59284 L130.89643 635.18142 L114.76704 616.43993 L99.11456 597.36622 L83.97526 577.95706 L69.38972 558.21129 L55.40368 538.13289 L42.06855 517.73376 L35.43307 506.85723 M35.43307 176.56569 L40.54094 176.45958 L56.57154 178.29478 L73.71033 182.16534 L91.84754 187.91119 L110.86627 195.32355 L130.64419 204.15168 L151.05516 214.11231 L171.97089 224.90143 L193.2625 236.20735 L214.80205 247.72428 L236.46361 259.16497 L258.12415 270.27086 L279.66487 280.8194 L300.9725 290.63096 L321.94049 299.57335 L342.46999 307.56348 L362.47068 314.56803 L381.86167 320.60058 L400.57238 325.71276 L418.54261 329.98479 L435.72213 333.51681 L452.0703 336.42141 L467.55555 338.81737 L482.15487 340.82462 L495.85329 342.5604 L508.64339 344.13637 L520.52481 345.6567 L531.5038 347.2168 L541.59279 348.90275 L550.80996 350.7911 L559.17891 352.94909 L566.72818 355.43508 L573.49095 358.29922 L579.50456 361.58414 L584.81007 365.32573 L589.45186 369.55394 L593.47705 374.29346 L596.93501 379.56447 L599.87679 385.38316 L602.35446 391.76225 L604.42054 398.71136 L606.12734 406.2372 L607.52623 414.34379 L608.66705 423.03239 L609.59736 432.30151 L610.36179 442.1467 L611.00137 452.56035 L611.55288 463.5315 L612.04822 475.04557 L612.51379 487.08419 L612.96992 499.62504 L613.43033 512.64182 M637.49177 505.54007 L638.03377 520.90204 L638.72237 536.7626 L639.5496 553.07673 L640.49633 569.79539 L641.53187 586.86631 L642.61368 604.23493 L643.68729 621.84529 L644.68649 639.6409 L645.53427 657.56549 L646.14478 675.5632 L646.42479 693.57851 L646.27491 711.55595 L645.59129 729.43915 L644.26793 747.16929 L642.199 764.68323 L639.28152 781.91111 L635.41793 798.77384 L630.51876 815.18046 L624.50517 831.02584 L617.31129 846.18883 L608.88629 860.53137 L599.19611 873.89888 L588.22471 886.12216 L575.97486 897.02129 L562.46838 906.41141 L547.74585 914.11049 L531.86571 919.94867 L514.9029 923.77843 L496.94692 925.48496 L478.09955 924.99527 L458.47219 922.28526 L438.18293 917.38345 L417.35354 910.37091 L396.10643 901.37703 L374.5617 890.57149 L352.83439 878.15325 L331.03215 864.33764 L309.25321 849.34309 L287.58494 833.37864 L266.1029 816.63348 L244.87051 799.26918 L223.93927 781.41501 L203.34961 763.16628 L183.13215 744.5853 L163.30952 725.70438 L143.89849 706.53034 L124.91236 687.04977 L106.3635 667.23462 L88.26589 647.04769 L70.63761 626.44785 L53.50308 605.39477 L36.89495 583.85336 L35.43307 581.84313 M35.43307 138.12627 L56.9121 145.82197 L79.58901 155.81152 L103.16979 167.68486 L127.49184 181.02503 L152.39048 195.37961 L177.70082 210.28361 L203.25877 225.28235 L228.90254 239.95046 L254.47473 253.90897 L279.82441 266.84218 L304.8089 278.50964 L329.29536 288.75272 L353.16215 297.50034 L376.30025 304.7648 L398.61517 310.62437 L420.02706 315.205 L440.47004 318.6641 L459.89132 321.17691 L478.25024 322.92561 L495.51735 324.091 L511.67346 324.84642 L526.70881 325.35358 L540.62227 325.76005 L553.42071 326.19787 L565.11839 326.78327 L575.73649 327.61693 L585.30266 328.78482 L593.85068 330.35937 L601.42006 332.40077 L608.05573 334.95839 L613.80756 338.07223 L618.73005 341.77433 L622.88173 346.09009 L626.32467 351.03944 L629.12387 356.63794 L631.34654 362.89766 L633.06139 369.82784 L634.33784 377.43545 L635.24522 385.72546 L635.85189 394.7009 L636.22443 404.36285 L636.42673 414.71009 L636.51917 425.73875 L636.55776 437.4418 L636.5933 449.80851 L636.67051 462.82391 L636.82727 476.46835 L637.09378 490.71708 L637.49177 505.54007" fill="none" stroke="black" stroke-width="0.03cm" />
    </g>
</svg>