<?xml version="1.0" standalone="no"?>
  <!DOCTYPE svg PUBLIC "-//W3C//DTD SVG 1.1//EN" 
      "http://www.w3.org/Graphics/SVG/1.1/DTD/svg11.dtd">
  <svg width="21cm" height="29.7cm"
      xmlns="http://www.w3.org/2000/svg" version="1.1" viewBox="0 0 744.09449 1052.3622">
    <g>
      <path d="M372.04724 526.1811 L446.35535 473.6796 M372.04724 526.1811 L446.08198 483.03207 M372.04724 526.1811 L445.5899 492.42794 M372.04724 526.1811 L444.88933 501.84267 M372.04724 526.1811 L443.98926 511.2521 M372.04724 526.1811 L442.89725 520.63259 M372.04724 526.1811 L441.61925 529.9611 M372.04724 526.1811 L440.1594 539.21535 M372.04724 526.1811 L438.52004 548.37387 M372.04724 526.1811 L436.70169 557.41601 M372.04724 526.1811 L434.70317 566.32195 M372.04724 526.1811 L432.52183 575.07265 M372.04724 526.1811 L430.15372 583.64976 M372.04724 526.1811 L427.59399 592.03561 M372.04724 526.1811 L424.8372 600.21307 M372.04724 526.1811 L421.87777 608.16553 M372.04724 526.1811 L418.71043 615.87684 M372.04724 526.1811 L415.33065 623.33127 M372.04724 526.1811 L411.73511 630.51356 M372.04724 526.1811 L407.92218 637.40894 M372.04724 526.1811 L403.89229 644.00319 M372.04724 526.1811 L399.64834 650.2828 M372.04724 526.1811 L395.19601 656.23505 M372.04724 526.1811 L390.54402 661.84816 M372.04724 526.1811 L385.70429 667.11145 M372.04724 526.1811 L380.69204 672.01546 M372.04724 526.1811 L375.52582 676.55206 M372.04724 526.1811 L370.22739 680.71456 M372.04724 526.1811 L364.82158 684.49767 M372.04724 526.1811 L359.33602 687.89759 M372.04724 526.1811 L353.80082 690.91186 M372.04724 526.1811 L348.24817 693.53928 M372.04724 526.1811 L342.71187 695.77973 M372.04724 526.1811 L337.22683 697.63394 M372.04724 526.1811 L331.82853 699.10327 M372.04724 526.1811 L326.55246 700.18942 M372.04724 526.1811 L321.43355 700.89414 M372.04724 526.1811 L316.50561 701.21899 M372.04724 526.1811 L311.80078 701.16505 M372.04724 526.1811 L307.34902 700.73275 M372.04724 526.1811 L303.17763 699.92167 M372.04724 526.1811 L299.31083 698.73046 M372.04724 526.1811 L295.76941 697.15678 M372.04724 526.1811 L292.57039 695.19731 M372.04724 526.1811 L289.72683 692.84791 M372.04724 526.1811 L287.24762 690.10373 M372.04724 526.1811 L285.13741 686.95949 M372.04724 526.1811 L283.39658 683.40975 M372.04724 526.1811 L282.02128 679.44933 M372.04724 526.1811 L281.00354 675.07364 M372.04724 526.1811 L280.33144 670.27914 M372.04724 526.1811 L279.98933 665.06382 M372.04724 526.1811 L279.95816 659.42759 M372.04724 526.1811 L280.21576 653.37274 M372.04724 526.1811 L280.73725 646.90431 M372.04724 526.1811 L281.49545 640.03041 M372.04724 526.1811 L282.46133 632.76245 M372.04724 526.1811 L283.6045 625.1153 M372.04724 526.1811 L284.89371 617.10737 M372.04724 526.1811 L286.29733 608.76046 M372.04724 526.1811 L287.78394 600.09966 M372.04724 526.1811 L289.3228 591.15304 M372.04724 526.1811 L290.88438 581.95126 M372.04724 526.1811 L292.44089 572.52713 M372.04724 526.1811 L293.96672 562.91509 M372.04724 526.1811 L295.43891 553.15069 M372.04724 526.1811 L296.8376 543.27 M372.04724 526.1811 L298.1463 533.30909 M372.04724 526.1811 L299.35229 523.30355 M372.04724 526.1811 L300.44682 513.28801 M372.04724 526.1811 L301.42528 503.29581 M372.04724 526.1811 L302.2873 493.35869 M372.04724 526.1811 L303.03678 483.50656 M372.04724 526.1811 L303.68183 473.76743 M372.04724 526.1811 L304.23457 464.1673 M372.04724 526.1811 L304.71096 454.73021 M372.04724 526.1811 L305.13044 445.4783 M372.04724 526.1811 L305.51554 436.43197 M372.04724 526.1811 L305.89145 427.61001 M372.04724 526.1811 L306.28547 419.02979 M372.04724 526.1811 L306.72644 410.70748 M372.04724 526.1811 L307.24416 402.65825 M372.04724 526.1811 L307.86871 394.8965 M372.04724 526.1811 L308.62983 387.43604 M372.04724 526.1811 L309.55627 380.29032 M372.04724 526.1811 L310.67518 373.47259 M372.04724 526.1811 L312.01149 366.99605 M372.04724 526.1811 L313.58738 360.87398 M372.04724 526.1811 L315.42177 355.11981 M372.04724 526.1811 L317.52991 349.74719 M372.04724 526.1811 L319.92306 344.76994 M372.04724 526.1811 L322.60833 340.20197 M372.04724 526.1811 L325.58851 336.05708 M372.04724 526.1811 L328.86197 332.34893 M372.04724 526.1811 L332.42254 329.09083 M372.04724 526.1811 L336.25954 326.29554 M372.04724 526.1811 L340.3579 323.97504 M372.04724 526.1811 L344.69815 322.14043 M372.04724 526.1811 L349.25669 320.80161 M372.04724 526.1811 L354.00634 319.96697 M372.04724 526.1811 L358.91689 319.64301 M372.04724 526.1811 L363.95571 319.83413 M372.04724 526.1811 L369.08833 320.54239 M372.04724 526.1811 L374.27908 321.76746 M372.04724 526.1811 L379.49163 323.50649 M372.04724 526.1811 L384.68961 325.75424 M372.04724 526.1811 L389.83712 328.5031 M372.04724 526.1811 L394.89929 331.74333 M372.04724 526.1811 L399.84269 335.46318 M372.04724 526.1811 L404.63582 339.64918 M372.04724 526.1811 L409.24946 344.28634 M372.04724 526.1811 L413.657 349.35838 M372.04724 526.1811 L417.83471 354.848 M372.04724 526.1811 L421.76197 360.737 M372.04724 526.1811 L425.42136 367.0065 M372.04724 526.1811 L428.79882 373.63704 M372.04724 526.1811 L431.88361 380.60868 M372.04724 526.1811 L434.66827 387.90104 M372.04724 526.1811 L437.14856 395.49336 M372.04724 526.1811 L439.32324 403.36451 M372.04724 526.1811 L441.19387 411.49288 M372.04724 526.1811 L442.76459 419.85644 M372.04724 526.1811 L444.04172 428.43263 M372.04724 526.1811 L445.03348 437.19839 M372.04724 526.1811 L445.74959 446.13016 M372.04724 526.1811 L446.20088 455.20392 M372.04724 526.1811 L446.39887 464.39529 M372.04724 526.1811 L446.35535 473.6796 M446.35535 473.6796 L446.08198 483.03207 L445.5899 492.42794 L444.88933 501.84267 L443.98926 511.2521 L442.89725 520.63259 L441.61925 529.9611 L440.1594 539.21535 L438.52004 548.37387 L436.70169 557.41601 L434.70317 566.32195 L432.52183 575.07265 L430.15372 583.64976 L427.59399 592.03561 L424.8372 600.21307 L421.87777 608.16553 L418.71043 615.87684 L415.33065 623.33127 L411.73511 630.51356 L407.92218 637.40894 L403.89229 644.00319 L399.64834 650.2828 L395.19601 656.23505 L390.54402 661.84816 L385.70429 667.11145 L380.69204 672.01546 L375.52582 676.55206 L370.22739 680.71456 L364.82158 684.49767 L359.33602 687.89759 L353.80082 690.91186 L348.24817 693.53928 L342.71187 695.77973 L337.22683 697.63394 L331.82853 699.10327 L326.55246 700.18942 L321.43355 700.89414 L316.50561 701.21899 L311.80078 701.16505 L307.34902 700.73275 L303.17763 699.92167 L299.31083 698.73046 L295.76941 697.15678 L292.57039 695.19731 L289.72683 692.84791 L287.24762 690.10373 L285.13741 686.95949 L283.39658 683.40975 L282.02128 679.44933 L281.00354 675.07364 L280.33144 670.27914 L279.98933 665.06382 L279.95816 659.42759 L280.21576 653.37274 L280.73725 646.90431 L281.49545 640.03041 L282.46133 632.76245 L283.6045 625.1153 L284.89371 617.10737 L286.29733 608.76046 L287.78394 600.09966 L289.3228 591.15304 L290.88438 581.95126 L292.44089 572.52713 L293.96672 562.91509 L295.43891 553.15069 L296.8376 543.27 L298.1463 533.30909 L299.35229 523.30355 L300.44682 513.28801 L301.42528 503.29581 L302.2873 493.35869 L303.03678 483.50656 L303.68183 473.76743 L304.23457 464.1673 L304.71096 454.73021 L305.13044 445.4783 L305.51554 436.43197 L305.89145 427.61001 L306.28547 419.02979 L306.72644 410.70748 L307.24416 402.65825 L307.86871 394.8965 L308.62983 387.43604 L309.55627 380.29032 L310.67518 373.47259 L312.01149 366.99605 L313.58738 360.87398 L315.42177 355.11981 L317.52991 349.74719 L319.92306 344.76994 L322.60833 340.20197 L325.58851 336.05708 L328.86197 332.34893 L332.42254 329.09083 L336.25954 326.29554 L340.3579 323.97504 L344.69815 322.14043 L349.25669 320.80161 L354.00634 319.96697 L358.91689 319.64301 L363.95571 319.83413 L369.08833 320.54239 L374.27908 321.76746 L379.49163 323.50649 L384.68961 325.75424 L389.83712 328.5031 L394.89929 331.74333 L399.84269 335.46318 L404.63582 339.64918 L409.24946 344.28634 L413.657 349.35838 L417.83471 354.848 L421.76197 360.737 L425.42136 367.0065 L428.79882 373.63704 L431.88361 380.60868 L434.66827 387.90104 L437.14856 395.49336 L439.32324 403.36451 L441.19387 411.49288 L442.76459 419.85644 L444.04172 428.43263 L445.03348 437.19839 L445.74959 446.13016 L446.20088 455.20392 L446.39887 464.39529 L446.35535 473.6796 M466.5947 462.12104 L466.12821 473.41694 L465.41402 484.76185 L464.46993 496.12568 L463.31118 507.47875 L461.94995 518.79203 L460.39496 530.03752 L458.65151 541.18818 L456.72162 552.21795 L454.60364 563.10196 L452.29243 573.81651 L449.77964 584.33891 L447.05412 594.64728 L444.10254 604.72041 L440.91003 614.53747 L437.46093 624.07791 L433.7396 633.32128 L429.73133 642.2472 L425.42312 650.83544 L420.80457 659.06596 L415.86868 666.9192 L410.61254 674.37634 L405.03797 681.41966 L399.152 688.03292 L392.96725 694.20182 L386.50212 699.91429 L379.78082 705.16093 L372.8333 709.93518 L365.69491 714.23349 L358.40605 718.05535 L351.01153 721.40315 L343.5599 724.2819 L336.10269 726.69887 L328.69351 728.663 L321.38712 730.18438 L314.23846 731.27353 L307.30173 731.94072 L300.6294 732.19533 L294.27133 732.04524 L288.27391 731.49627 L282.67932 730.5518 L277.52482 729.21243 L272.84224 727.47589 L268.65746 725.33693 L264.99008 722.7875 L261.85322 719.81701 L259.25338 716.4127 L257.19043 712.56015 L255.65771 708.24396 L254.64224 703.4484 L254.12498 698.15833 L254.08125 692.35997 L254.4811 686.04187 L255.28989 679.19582 L256.46883 671.81764 L257.97559 663.90804 L259.76502 655.4732 L261.78982 646.52531 L264.00128 637.08275 L266.3501 627.17023 L268.78711 616.81852 L271.26412 606.06403 L273.73468 594.94818 L276.15489 583.5165 L278.48413 571.81771 L280.68583 559.9026 L282.72809 547.82295 L284.58435 535.63049 L286.23384 523.3759 L287.66211 511.10798 L288.86126 498.87294 L289.83025 486.71394 L290.57487 474.67072 L291.10779 462.77943 L291.44827 451.07267 L291.62187 439.57956 L291.65996 428.32602 L291.59909 417.33498 L291.48026 406.62682 L291.34807 396.21968 L291.24981 386.12989 L291.23441 376.37233 L291.35145 366.96092 L291.65003 357.90891 L292.17774 349.22933 L292.97958 340.93535 L294.09704 333.04064 L295.56717 325.55964 L297.42202 318.50766 L299.68823 311.90082 L302.38636 305.75623 L305.53035 300.09198 L309.12709 294.92713 L313.17617 290.28149 L317.66959 286.17543 L322.59126 282.62978 L327.91714 279.66529 L333.61607 277.30177 L339.6506 275.55721 L345.97795 274.44697 L352.55097 273.98309 L359.31907 274.17371 L366.22926 275.0227 L373.22702 276.5295 L380.25725 278.68911 L387.26518 281.49233 L394.19714 284.92604 L401.0014 288.97373 L407.62881 293.61599 L414.03352 298.83109 L420.17348 304.59554 L426.01098 310.88465 L431.513 317.67302 L436.65151 324.93489 L441.40372 332.64448 L445.75216 340.77617 L449.68465 349.30465 L453.19429 358.2049 L456.27915 367.45213 L458.9421 377.02169 L461.19033 386.88886 L463.03495 397.02868 L464.49043 407.41575 L465.57401 418.02407 L466.30508 428.82686 L466.70448 439.79643 L466.7938 450.90426 L466.5947 462.12104 M488.27021 450.1145 L487.55882 463.3542 L486.58302 476.65458 L485.37054 489.98035 L483.94479 503.29633 L482.32403 516.56804 L480.5207 529.76223 L478.54077 542.84726 L476.38394 555.79312 L474.04486 568.57071 L471.51296 581.15194 L468.77203 593.50992 L465.80078 605.61855 L462.5738 617.45208 L459.06258 628.98469 L455.23673 640.19009 L451.06534 651.04126 L446.51842 661.51038 L441.56829 671.56889 L436.19105 681.18778 L430.36788 690.3381 L424.0863 698.99156 L417.34125 707.12137 L410.13589 714.70311 L402.48228 721.71566 L394.40173 728.1421 L385.92492 733.97048 L377.09173 739.19447 L367.95079 743.81373 L358.5588 747.83399 L348.97964 751.26684 L339.28319 754.12917 L329.54415 756.44233 L319.84053 758.23097 L310.25225 759.52177 L300.85958 760.342 L291.74165 760.71809 L282.97496 760.67428 L274.63204 760.23141 L266.78015 759.40588 L259.48014 758.20893 L252.78554 756.64606 L246.7417 754.71682 L241.38524 752.41472 L236.74354 749.72749 L232.83455 746.63739 L229.66667 743.12182 L227.23879 739.15407 L225.54057 734.7042 L224.55268 729.74015 L224.24736 724.229 L224.58887 718.13831 L225.5342 711.4377 L227.03377 704.10041 L229.03219 696.10495 L231.46913 687.43664 L234.2802 678.08898 L237.39793 668.06491 L240.75273 657.37755 L244.27393 646.05065 L247.89088 634.11857 L251.53401 621.62572 L255.13596 608.62558 L258.63268 595.17931 L261.96458 581.35401 L265.07754 567.22079 L267.92401 552.85279 L270.46389 538.32318 L272.66542 523.70337 L274.50591 509.06151 L275.97227 494.46124 L277.06147 479.9609 L277.78069 465.61295 L278.14739 451.4639 L278.18899 437.55433 L277.94252 423.91923 L277.45386 410.58847 L276.77691 397.58735 L275.97248 384.93714 L275.10701 372.65576 L274.25116 360.75834 L273.47828 349.25788 L272.86279 338.16581 L272.47855 327.49273 L272.39718 317.2491 L272.68654 307.44585 L273.40963 298.09476 L274.62388 289.20862 L276.37988 280.80186 L278.72011 272.89117 L281.67791 265.49597 L285.27656 258.63874 L289.52864 252.34507 L294.43494 246.64386 L299.98301 241.56756 L306.14765 237.151 L312.89216 233.42974 L320.16968 230.43824 L327.92463 228.20813 L336.09413 226.7665 L344.60947 226.13442 L353.39758 226.32584 L362.38235 227.34701 L371.48607 229.19618 L380.63069 231.86383 L389.73902 235.3332 L398.73592 239.58116 L407.54936 244.57929 L416.11139 250.29505 L424.35905 256.69303 L432.23512 263.73615 L439.68882 271.38673 L446.67639 279.60739 L453.16146 288.36181 L459.11535 297.61519 L464.51728 307.33457 L469.35429 317.48891 L473.62113 328.04899 L477.31993 338.98717 L480.4598 350.27703 L483.05617 361.89288 L485.13015 373.80934 L486.70765 386.00076 L487.81847 398.44079 L488.49532 411.10197 L488.77274 423.95534 L488.68604 436.97029 L488.27021 450.1145 M511.34492 437.79852 L510.34782 452.96126 L509.08419 468.20656 L507.59414 483.49483 L505.91108 498.78595 L504.06053 514.04025 L502.05913 529.21939 L499.91371 544.28705 L497.62072 559.20929 L495.16702 573.95399 L492.53266 588.48925 L489.69137 602.78303 L486.60931 616.80349 L483.24566 630.51852 L479.55426 643.89492 L475.48536 656.89769 L470.98773 669.4896 L466.01077 681.63098 L460.5068 693.27991 L454.43322 704.39277 L447.75467 714.92509 L440.44498 724.83283 L432.4888 734.07389 L423.88303 742.60986 L414.63781 750.40779 L404.77717 757.44207 L394.33915 763.69604 L383.37564 769.16334 L371.95167 773.84874 L360.14438 777.76845 L348.0416 780.94972 L335.74016 783.42973 L323.34391 785.25386 L310.96161 786.4734 L298.70469 787.1429 L286.68496 787.31734 L275.01241 787.0494 L263.79305 786.3869 L253.12692 785.37075 L243.10634 784.03335 L233.81432 782.39754 L225.32331 780.47602 L217.69417 778.27128 L210.97546 775.77579 L205.20292 772.97251 L200.39934 769.83554 L196.5745 766.33087 L193.72548 762.41734 L191.837 758.04764 L190.882 753.16959 L190.82235 747.7276 L191.6096 741.66448 L193.18585 734.92349 L195.4847 727.45072 L198.43224 719.19771 L201.94805 710.12414 L205.94636 700.20051 L210.33716 689.41056 L215.0274 677.75324 L219.92231 665.24412 L224.92666 651.91588 L229.94622 637.81808 L234.88916 623.01591 L239.66756 607.58813 L244.1989 591.62435 L248.40758 575.22175 L252.22641 558.4817 L255.59798 541.50623 L258.47598 524.39495 L260.82633 507.24235 L262.62813 490.13578 L263.87439 473.15402 L264.57241 456.36662 L264.74398 439.8337 L264.42512 423.60634 L263.66558 407.72713 L262.52793 392.23103 L261.08638 377.14624 L259.42518 362.49508 L257.63691 348.29479 L255.82034 334.55831 L254.07827 321.29517 L252.5152 308.51242 L251.23487 296.21547 L250.33816 284.4089 L249.92204 273.09666 L250.07802 262.2829 L250.89 251.97339 L252.43226 242.17701 L254.76757 232.90718 L257.94567 224.18311 L262.00192 216.03074 L266.9554 208.48379 L272.80561 201.5853 L279.53258 195.38646 L287.09874 189.94391 L295.45089 185.31676 L304.52233 181.56319 L314.23497 178.73714 L324.50145 176.88481 L335.22716 176.04193 L346.31225 176.23178 L357.65351 177.464 L369.1461 179.73437 L380.68533 183.02533 L392.16813 187.30727 L403.4946 192.54036 L414.56937 198.67676 L425.30284 205.66301 L435.61237 213.44237 L445.42332 221.9571 L454.66993 231.15034 L463.29612 240.96773 L471.25607 251.35853 L478.51465 262.2764 L485.04766 273.67974 L490.84182 285.53167 L495.89462 297.79967 L500.21386 310.45503 L503.81707 323.47201 L506.73061 336.82697 L508.9887 350.4974 L510.63217 364.46093 L511.70714 378.69443 L512.26352 393.17322 L512.35351 407.8704 L512.02998 422.75637 L511.34492 437.79852" fill="none" stroke="black" stroke-width="0.03cm" />
    </g>
</svg>