<?xml version="1.0" standalone="no"?>
  <!DOCTYPE svg PUBLIC "-//W3C//DTD SVG 1.1//EN" 
      "http://www.w3.org/Graphics/SVG/1.1/DTD/svg11.dtd">
  <svg width="21cm" height="29.7cm"
      xmlns="http://www.w3.org/2000/svg" version="1.1" viewBox="0 0 744.09449 1052.3622">
    <g>
      <path d="M372.04724 526.1811 L532.08811 508.89372 M372.04724 526.1811 L525.6793 513.94742 M372.04724 526.1811 L518.99487 519.10427 M372.04724 526.1811 L512.05337 524.36368 M372.04724 526.1811 L504.87381 529.72664 M372.04724 526.1811 L497.47583 535.19517 M372.04724 526.1811 L489.88032 540.77158 M372.04724 526.1811 L482.1095 546.45783 M372.04724 526.1811 L474.18701 552.25483 M372.04724 526.1811 L466.13779 558.16177 M372.04724 526.1811 L457.98805 564.17552 M372.04724 526.1811 L449.76509 570.29008 M372.04724 526.1811 L441.49711 576.49608 M372.04724 526.1811 L433.21297 582.7805 M372.04724 526.1811 L424.94187 589.1265 M372.04724 526.1811 L416.71306 595.51333 M372.04724 526.1811 L408.55547 601.91658 M372.04724 526.1811 L400.4973 608.30839 M372.04724 526.1811 L392.56572 614.65797 M372.04724 526.1811 L384.7864 620.93211 M372.04724 526.1811 L377.18323 627.0959 M372.04724 526.1811 L369.77791 633.11343 M372.04724 526.1811 L362.5897 638.94855 M372.04724 526.1811 L355.63512 644.56566 M372.04724 526.1811 L348.92776 649.93041 M372.04724 526.1811 L342.47811 655.01036 M372.04724 526.1811 L336.2935 659.77559 M372.04724 526.1811 L330.37801 664.19915 M372.04724 526.1811 L324.73258 668.25747 M372.04724 526.1811 L319.35507 671.93058 M372.04724 526.1811 L314.24043 675.20225 M372.04724 526.1811 L309.38094 678.06007 M372.04724 526.1811 L304.7665 680.49531 M372.04724 526.1811 L300.38493 682.50278 M372.04724 526.1811 L296.2224 684.08061 M372.04724 526.1811 L292.26381 685.22992 M372.04724 526.1811 L288.49323 685.95444 M372.04724 526.1811 L284.89437 686.26017 M372.04724 526.1811 L281.45107 686.15495 M372.04724 526.1811 L278.14774 685.64806 M372.04724 526.1811 L274.96984 684.74984 M372.04724 526.1811 L271.90435 683.4713 M372.04724 526.1811 L268.94015 681.82389 M372.04724 526.1811 L266.06844 679.81915 M372.04724 526.1811 L263.28309 677.4686 M372.04724 526.1811 L260.58093 674.78357 M372.04724 526.1811 L257.96199 671.77526 M372.04724 526.1811 L255.42969 668.45471 M372.04724 526.1811 L252.99097 664.83298 M372.04724 526.1811 L250.6563 660.9214 M372.04724 526.1811 L248.43971 656.73182 M372.04724 526.1811 L246.35862 652.27694 M372.04724 526.1811 L244.43373 647.57069 M372.04724 526.1811 L242.68874 642.62862 M372.04724 526.1811 L241.15003 637.46821 M372.04724 526.1811 L239.84628 632.10918 M372.04724 526.1811 L238.80804 626.57369 M372.04724 526.1811 L238.0672 620.88646 M372.04724 526.1811 L237.6565 615.07476 M372.04724 526.1811 L237.60888 609.16817 M372.04724 526.1811 L237.95696 603.19829 M372.04724 526.1811 L238.73236 597.19822 M372.04724 526.1811 L239.96514 591.2019 M372.04724 526.1811 L241.68317 585.24333 M372.04724 526.1811 L243.91159 579.35567 M372.04724 526.1811 L246.67224 573.57026 M372.04724 526.1811 L249.9832 567.91565 M372.04724 526.1811 L253.85837 562.41662 M372.04724 526.1811 L258.30709 557.09328 M372.04724 526.1811 L263.33387 551.96035 M372.04724 526.1811 L268.93821 547.02659 M372.04724 526.1811 L275.11442 542.29444 M372.04724 526.1811 L281.85166 537.76 M372.04724 526.1811 L289.13392 533.41324 M372.04724 526.1811 L296.94021 529.23855 M372.04724 526.1811 L305.24473 525.21558 M372.04724 526.1811 L314.01714 521.32034 M372.04724 526.1811 L323.22291 517.52653 M372.04724 526.1811 L332.82371 513.80703 M372.04724 526.1811 L342.77785 510.13544 M372.04724 526.1811 L353.0407 506.48768 M372.04724 526.1811 L363.56526 502.84339 M372.04724 526.1811 L374.30256 499.18708 M372.04724 526.1811 L385.20225 495.50818 M372.04724 526.1811 L396.21305 491.80077 M372.04724 526.1811 L407.28327 488.06313 M372.04724 526.1811 L418.36126 484.29588 M372.04724 526.1811 L429.39583 480.5025 M372.04724 526.1811 L440.33673 476.69048 M372.04724 526.1811 L451.13499 472.87221 M372.04724 526.1811 L461.74321 469.06543 M372.04724 526.1811 L472.11576 465.29339 M372.04724 526.1811 L482.20898 461.58452 M372.04724 526.1811 L491.98157 457.97177 M372.04724 526.1811 L501.39491 454.49159 M372.04724 526.1811 L510.41331 451.18275 M372.04724 526.1811 L519.00421 448.08502 M372.04724 526.1811 L527.13802 445.23788 M372.04724 526.1811 L534.78817 442.67925 M372.04724 526.1811 L541.93152 440.44414 M372.04724 526.1811 L548.54853 438.56344 M372.04724 526.1811 L554.62343 437.063 M372.04724 526.1811 L560.14428 435.96287 M372.04724 526.1811 L565.10284 435.27686 M372.04724 526.1811 L569.49446 435.01236 M372.04724 526.1811 L573.31784 435.17043 M372.04724 526.1811 L576.57469 435.74604 M372.04724 526.1811 L579.26944 436.72863 M372.04724 526.1811 L581.40883 438.10272 M372.04724 526.1811 L583.0015 439.84869 M372.04724 526.1811 L584.05764 441.94363 M372.04724 526.1811 L584.58861 444.36224 M372.04724 526.1811 L584.60656 447.07773 M372.04724 526.1811 L584.12419 450.06273 M372.04724 526.1811 L583.15445 453.29012 M372.04724 526.1811 L581.71035 456.73379 M372.04724 526.1811 L579.80489 460.3694 M372.04724 526.1811 L577.4509 464.17492 M372.04724 526.1811 L574.66112 468.13112 M372.04724 526.1811 L571.44817 472.22192 M372.04724 526.1811 L567.82468 476.43458 M372.04724 526.1811 L563.8034 480.75971 M372.04724 526.1811 L559.39734 485.19113 M372.04724 526.1811 L554.61993 489.72558 M372.04724 526.1811 L549.4852 494.3621 M372.04724 526.1811 L544.00783 499.1014 M372.04724 526.1811 L538.20336 503.94491 M372.04724 526.1811 L532.08811 508.89372 M532.08811 508.89372 L525.6793 513.94742 L518.99487 519.10427 L512.05337 524.36368 L504.87381 529.72664 L497.47583 535.19517 L489.88032 540.77158 L482.1095 546.45783 L474.18701 552.25483 L466.13779 558.16177 L457.98805 564.17552 L449.76509 570.29008 L441.49711 576.49608 L433.21297 582.7805 L424.94187 589.1265 L416.71306 595.51333 L408.55547 601.91658 L400.4973 608.30839 L392.56572 614.65797 L384.7864 620.93211 L377.18323 627.0959 L369.77791 633.11343 L362.5897 638.94855 L355.63512 644.56566 L348.92776 649.93041 L342.47811 655.01036 L336.2935 659.77559 L330.37801 664.19915 L324.73258 668.25747 L319.35507 671.93058 L314.24043 675.20225 L309.38094 678.06007 L304.7665 680.49531 L300.38493 682.50278 L296.2224 684.08061 L292.26381 685.22992 L288.49323 685.95444 L284.89437 686.26017 L281.45107 686.15495 L278.14774 685.64806 L274.96984 684.74984 L271.90435 683.4713 L268.94015 681.82389 L266.06844 679.81915 L263.28309 677.4686 L260.58093 674.78357 L257.96199 671.77526 L255.42969 668.45471 L252.99097 664.83298 L250.6563 660.9214 L248.43971 656.73182 L246.35862 652.27694 L244.43373 647.57069 L242.68874 642.62862 L241.15003 637.46821 L239.84628 632.10918 L238.80804 626.57369 L238.0672 620.88646 L237.6565 615.07476 L237.60888 609.16817 L237.95696 603.19829 L238.73236 597.19822 L239.96514 591.2019 L241.68317 585.24333 L243.91159 579.35567 L246.67224 573.57026 L249.9832 567.91565 L253.85837 562.41662 L258.30709 557.09328 L263.33387 551.96035 L268.93821 547.02659 L275.11442 542.29444 L281.85166 537.76 L289.13392 533.41324 L296.94021 529.23855 L305.24473 525.21558 L314.01714 521.32034 L323.22291 517.52653 L332.82371 513.80703 L342.77785 510.13544 L353.0407 506.48768 L363.56526 502.84339 L374.30256 499.18708 L385.20225 495.50818 L396.21305 491.80077 L407.28327 488.06313 L418.36126 484.29588 L429.39583 480.5025 L440.33673 476.69048 L451.13499 472.87221 L461.74321 469.06543 L472.11576 465.29339 L482.20898 461.58452 L491.98157 457.97177 L501.39491 454.49159 L510.41331 451.18275 L519.00421 448.08502 L527.13802 445.23788 L534.78817 442.67925 L541.93152 440.44414 L548.54853 438.56344 L554.62343 437.063 L560.14428 435.96287 L565.10284 435.27686 L569.49446 435.01236 L573.31784 435.17043 L576.57469 435.74604 L579.26944 436.72863 L581.40883 438.10272 L583.0015 439.84869 L584.05764 441.94363 L584.58861 444.36224 L584.60656 447.07773 L584.12419 450.06273 L583.15445 453.29012 L581.71035 456.73379 L579.80489 460.3694 L577.4509 464.17492 L574.66112 468.13112 L571.44817 472.22192 L567.82468 476.43458 L563.8034 480.75971 L559.39734 485.19113 L554.61993 489.72558 L549.4852 494.3621 L544.00783 499.1014 L538.20336 503.94491 L532.08811 508.89372 M557.63171 500.34225 L550.17404 506.30687 L542.36395 512.38901 L534.2227 518.59404 L525.77313 524.92775 L517.03912 531.3987 L508.04502 538.01759 L498.81604 544.79591 L489.37949 551.7443 L479.76538 558.87097 L470.00633 566.18041 L460.13738 573.67218 L450.19575 581.33985 L440.22037 589.17028 L430.25144 597.14312 L420.32986 605.23068 L410.49663 613.39816 L400.79216 621.60416 L391.2556 629.80162 L381.92418 637.9389 L372.83256 645.9611 L364.01216 653.81156 L355.49067 661.4333 L347.29152 668.77053 L339.43353 675.76998 L331.93059 682.38213 L324.79145 688.56224 L318.01973 694.27108 L311.61387 699.47559 L305.56735 704.14909 L299.8689 708.27147 L294.50292 711.82902 L289.4499 714.81416 L284.68694 717.22501 L280.18842 719.06479 L275.92661 720.34115 L271.8724 721.06544 L267.99606 721.25192 L264.26798 720.91695 L260.65943 720.07821 L257.14329 718.75397 L253.69484 716.96235 L250.29237 714.72073 L246.91787 712.0453 L243.55758 708.95064 L240.20251 705.44955 L236.84884 701.553 L233.49827 697.2703 L230.1582 692.60943 L226.84193 687.57757 L223.56856 682.18178 L220.36296 676.42986 L217.25547 670.33129 L214.28161 663.89822 L211.48155 657.14646 L208.89953 650.09638 L206.58324 642.77373 L204.58296 635.21012 L202.95074 627.44332 L201.73949 619.51722 L201.00201 611.48138 L200.78997 603.39024 L201.15297 595.30194 L202.13753 587.27683 L203.78618 579.37566 L206.13657 571.65759 L209.22068 564.17805 L213.06417 556.98659 L217.68574 550.12482 L223.09677 543.62458 L229.3009 537.50641 L236.29398 531.77845 L244.06396 526.43591 L252.59101 521.46114 L261.84783 516.82435 L271.79992 512.48501 L282.40617 508.39392 L293.61933 504.49583 L305.38671 500.73247 L317.65089 497.04592 L330.35045 493.38202 L343.42076 489.69346 L356.79471 485.94078 L370.40354 482.09218 L384.17748 478.12436 L398.04656 474.01914 L411.94116 469.76155 L425.79265 465.34296 L439.53351 460.76414 L453.09743 456.03751 L466.41996 451.18837 L479.43916 446.25497 L492.09619 441.28773 L504.33586 436.3474 L516.10688 431.50277 L527.36129 426.82825 L538.05469 422.40091 L548.14719 418.29726 L557.60416 414.58999 L566.39678 411.3452 L574.50242 408.61994 L581.90472 406.46048 L588.59355 404.90107 L594.56473 403.96344 L599.81961 403.65676 L604.36452 403.97821 L608.21008 404.91387 L611.37045 406.43998 L613.86257 408.52442 L615.70535 411.12831 L616.9189 414.2077 L617.5238 417.71522 L617.54049 421.60173 L616.98869 425.81781 L615.88702 430.31522 L614.25264 435.04816 L612.10117 439.97438 L609.44658 445.05613 L606.30134 450.26103 L602.67663 455.5626 L598.58261 460.94072 L594.02891 466.38184 L589.02497 471.8789 L583.5806 477.43101 L577.70641 483.04283 L571.41424 488.72354 L564.71756 494.48545 L557.63171 500.34225 M584.52222 491.78836 L576.26385 498.59863 L567.54853 505.52374 L558.39855 512.58768 L548.83995 519.80605 L538.90182 527.19472 L528.61517 534.77405 L518.01166 542.56762 L507.12327 550.60017 L495.9846 558.8945 L484.63431 567.46862 L473.11556 576.33313 L461.47566 585.48916 L449.76548 594.92672 L438.03869 604.62359 L426.3509 614.54488 L414.75859 624.64318 L403.31812 634.85957 L392.08457 645.12506 L381.11061 655.36265 L370.44545 665.48982 L360.13379 675.42111 L350.21492 685.07088 L340.72192 694.35587 L331.681 703.19758 L323.11104 711.52427 L315.02323 719.27258 L307.42102 726.38869 L300.30007 732.82902 L293.6486 738.56056 L287.44767 743.56074 L281.67179 747.81701 L276.28963 751.3262 L271.26477 754.09352 L266.55662 756.13154 L262.12147 757.45895 L257.91346 758.09926 L253.88573 758.07951 L249.99148 757.42886 L246.18514 756.17732 L242.42341 754.35447 L238.66633 751.98827 L234.87834 749.10402 L231.02913 745.72348 L227.09458 741.8642 L223.05747 737.53906 L218.90815 732.75622 L214.64505 727.51926 L210.27506 721.82778 L205.81374 715.67831 L201.28545 709.06568 L196.72317 701.98456 L192.16825 694.43145 L187.66998 686.40671 L183.28488 677.91673 L179.07598 668.97597 L175.11178 659.60881 L171.46516 649.85102 L168.21212 639.75063 L165.43042 629.36828 L163.19815 618.7768 L161.59226 608.06002 L160.68704 597.31092 L160.55267 586.62906 L161.25379 576.11745 L162.84818 565.87898 L165.38558 556.01255 L168.90664 546.6091 L173.44205 537.7477 L179.01194 529.4919 L185.62536 521.88657 L193.28015 514.95538 L201.96293 508.69919 L211.6493 503.09546 L222.30429 498.09885 L233.88303 493.64314 L246.33146 489.64438 L259.58727 486.00535 L273.58096 482.62094 L288.23686 479.38439 L303.4743 476.19378 L319.20869 472.95711 L335.3527 469.59236 L351.81723 466.02959 L368.51246 462.21291 L385.34869 458.09253 L402.23641 453.62271 L419.08594 448.76934 L435.8083 443.51691 L452.31627 437.87345 L468.52536 431.87312 L484.3548 425.57635 L499.72835 419.06783 L514.57407 412.45299 L528.82289 405.85392 L542.40981 399.40355 L555.27573 393.23901 L567.36901 387.49487 L578.64668 382.29693 L589.07519 377.75693 L598.63086 373.9685 L607.29995 371.00445 L615.07832 368.91534 L621.97085 367.72933 L627.99053 367.45302 L633.1574 368.07314 L637.49721 369.5588 L641.04014 371.86418 L643.8193 374.93135 L645.86938 378.69319 L647.22524 383.07625 L647.92074 388.00338 L647.98763 393.39619 L647.45465 399.17724 L646.34687 405.27197 L644.68529 411.61032 L642.48658 418.12816 L639.76321 424.76842 L636.52372 431.4821 L632.77324 438.22907 L628.51417 444.97864 L623.7471 451.71005 L618.47168 458.41269 L612.68772 465.08597 L606.39618 471.739 L599.60012 478.38956 L592.30558 485.06268 L584.52222 491.78836 M613.14651 483.38913 L604.41122 491.01201 L595.07813 498.71365 L585.1682 506.54585 L574.70971 514.54942 L563.73727 522.75263 L552.29012 531.18602 L540.40995 539.88714 L528.13838 548.89815 L515.5171 558.26197 L502.59199 568.01702 L489.41449 578.19272 L476.04273 588.80506 L462.54114 599.85324 L448.97933 611.31726 L435.43076 623.15665 L421.97119 635.31045 L408.67702 647.69852 L395.62362 660.22395 L382.8835 672.77657 L370.52471 685.23714 L358.60923 697.48185 L347.19155 709.38702 L336.31747 720.8334 L326.02307 731.71003 L316.33403 741.91736 L307.26514 751.3696 L298.82011 759.99628 L290.99168 767.74294 L283.76193 774.57127 L277.10291 780.45851 L270.9774 785.39649 L265.33996 789.39028 L260.13801 792.45657 L255.3132 794.62186 L250.80271 795.92057 L246.54077 796.39309 L242.46011 796.08378 L238.4935 795.03896 L234.57524 793.30498 L230.64262 790.9263 L226.63741 787.94372 L222.50714 784.3927 L218.20645 780.30194 L213.69822 775.69215 L208.95464 770.57524 L203.95814 764.95394 L198.70215 758.82187 L193.19168 752.16433 L187.44371 744.95966 L181.48741 737.18129 L175.36404 728.80056 L169.1267 719.78999 L162.83978 710.12707 L156.57821 699.79823 L150.42633 688.80282 L144.4767 677.1567 L138.82853 664.89524 L133.58597 652.07531 L128.85626 638.77625 L124.74767 625.09948 L121.36741 611.16684 L118.81953 597.11759 L117.20276 583.10442 L116.6085 569.28843 L117.11893 555.83341 L118.80527 542.89978 L121.72628 530.63822 L125.92712 519.18343 L131.43837 508.64812 L138.27554 499.11762 L146.43874 490.64525 L155.91286 483.2489 L166.66799 476.90904 L178.6601 471.5685 L191.83208 467.13434 L206.11494 463.48192 L221.42923 460.46124 L237.68649 457.90531 L254.7909 455.64028 L272.64088 453.49639 L291.13057 451.31428 L310.15142 448.94558 L329.5935 446.25896 L349.34628 443.145 L369.2974 439.50342 L389.3326 435.23657 L409.33716 430.26455 L429.19742 424.53969 L448.80219 418.05674 L468.04418 410.85824 L486.82132 403.03475 L505.03648 394.72117 L522.5943 386.09117 L539.40261 377.34809 L555.37574 368.71294 L570.43742 360.41151 L584.52309 352.66186 L597.58162 345.66335 L609.57637 339.58798 L620.4857 334.57438 L630.30278 330.72459 L639.03495 328.1032 L646.70252 326.73861 L653.33719 326.62593 L658.98016 327.73086 L663.67996 329.99434 L667.49026 333.33738 L670.46745 337.66598 L672.66845 342.87577 L674.14853 348.85629 L674.95938 355.49476 L675.14742 362.67943 L674.75248 370.30218 L673.80675 378.26079 L672.33426 386.4606 L670.35059 394.81575 L667.86315 403.25016 L664.87175 411.69822 L661.36958 420.1054 L657.34443 428.42875 L652.78032 436.63746 L647.65913 444.71342 L641.96252 452.65164 L635.67371 460.46057 L628.77932 468.16193 L621.27095 475.78986 L613.14651 483.38913" fill="none" stroke="black" stroke-width="0.03cm" />
    </g>
</svg>