<svg xmlns="http://www.w3.org/2000/svg" viewBox="0 0 564.25 531.42"><defs><style>.a{fill:#010101;}</style></defs><title>output2svg</title><path class="a" d="M289.35,353l-11.66-18.16,9.9-19.18,21.56-1,11.66,18.17L310.91,352Zm18-6.55h0Zm-16.52-12.23,4.55,7.08,8.41-.39,3.86-7.48-4.55-7.09-8.41.4Z" transform="translate(-17.13 -68.11)"/><path class="a" d="M284.17,366.77l-21-29.53,15.08-32.95,36.07-3.41,21,29.53-15.08,32.95Zm-8.58-30.71,13.77,19.37L313,353.19l9.89-21.61-13.77-19.37-23.66,2.24Z" transform="translate(-17.13 -68.11)"/><path class="a" d="M280.28,381l-31.41-40,19-47.22,50.38-7.18,31.41,40-19,47.22Zm-19.75-41.7,24.14,30.78,38.72-5.52L338,328.3l-24.14-30.77-38.72,5.52Z" transform="translate(-17.13 -68.11)"/><path class="a" d="M277.72,395.73l-42.85-49.61,21.54-61.9,64.38-12.3,42.84,49.6-21.54,61.91Zm-32-51.69,35.6,41.22L334.85,375l17.89-51.44-35.59-41.21-53.49,10.22Z" transform="translate(-17.13 -68.11)"/><path class="a" d="M276.5,410.73l-55.22-58.16L244,275.67l78-18.75,55.22,58.15L354.48,392Zm-45.12-60.59,48.07,50.62,67.87-16.32,19.8-66.94-48.07-50.61-67.87,16.32Z" transform="translate(-17.13 -68.11)"/><path class="a" d="M276.67,426l-68.49-65.62,22.58-92.13,91.08-26.5,68.48,65.62-22.58,92.12Zm-59.18-68.33L279,416.52l81.76-23.79L381,310l-61.48-58.91-81.76,23.79Z" transform="translate(-17.13 -68.11)"/><path class="a" d="M278.23,441.29l-82.56-71.94,21-107.47,103.58-35.52,82.55,71.94-21,107.47Zm-74-74.86,75.77,66L375,399.85l19.29-98.63-75.76-66-95.06,32.6Zm174.22,36.38h0Z" transform="translate(-17.13 -68.11)"/><path class="a" d="M281.19,456.66,183.84,379.6l18.07-122.84L317.32,211l97.34,77.06L396.6,410.89Zm-89.62-80.13,90.83,71.9,107.68-42.7,16.85-114.61-90.82-71.91L208.42,261.92Z" transform="translate(-17.13 -68.11)"/><path class="a" d="M285.56,472,172.78,391,186.47,252.9,313,195.69l112.78,80.93L412,414.75ZM179.72,387.89l106.59,76.48,119.53-54.06,12.94-130.55L312.2,203.27,192.66,257.34Z" transform="translate(-17.13 -68.11)"/><path class="a" d="M291.33,487.08,162.57,403.6l7.91-153.26,136.69-69.78,128.77,83.49L428,417.31ZM168.74,400.45l123,79.71,130.52-66.62,7.56-146.34-123-79.72L176.3,254.1Z" transform="translate(-17.13 -68.11)"/><path class="a" d="M298.51,501.94l-145.22-84.7L154,249.12l146-83.41,145.22,84.7-.75,168.12ZM158.7,414.14l139.84,81.57,140.55-80.33.71-161.88L300,171.94,159.42,252.26Z" transform="translate(-17.13 -68.11)"/><path class="a" d="M307.07,516.43,145,431.89l-7.82-182.6,154.24-98.07,162,84.53.06,1.39,7.76,181.22ZM149.7,428.92l157.13,82,149.55-95.1-7.57-177.06-157.14-82L142.12,251.85Z" transform="translate(-17.13 -68.11)"/><path class="a" d="M317,530.45l-179.15-83L120.1,250.87,281.51,137.2l179.16,83,.11,1.21L478.4,416.77ZM141.8,444.71l174.75,80.91L474,414.74l-17.3-191.8L282,142,124.5,252.91Z" transform="translate(-17.13 -68.11)"/><path class="a" d="M328.25,543.91,131.81,464l-29-210.09.82-.63L270.25,123.74l196.44,79.93.14,1,28.86,209.05ZM135.09,461.43l192.59,78.36,164.16-127.6-28.43-206L270.82,127.85,106.66,255.46Z" transform="translate(-17.13 -68.11)"/><path class="a" d="M340.82,556.71l-.82-.29L127,481.26,85.44,258.38l.66-.57L257.69,110.93,471.5,186.38l.16.85,41.4,222ZM129.64,479l210.54,74.3L509.79,408.12,468.87,188.64l-210.55-74.3L88.71,259.53Z" transform="translate(-17.13 -68.11)"/><path class="a" d="M354.65,568.77l-.66-.2-230.51-69.3L68.09,264.33,243.85,98.88l.67.2L475,168.38l.16.67,55.24,234.27ZM125.5,497.37,354,566.07,527.76,402.52,473,170.28l-228.51-68.7L70.74,265.13Z" transform="translate(-17.13 -68.11)"/><path class="a" d="M369.71,580,121.3,517.92l-.14-.5L50.85,271.76l.36-.37L228.8,87.67l.5.12,247.9,61.94.15.5,70.31,245.66-.37.37Zm-247-63.56L369.13,578l176.51-182.6L475.76,151.23,229.37,89.67,52.87,272.26Z" transform="translate(-17.13 -68.11)"/><path class="a" d="M385.93,590.26l-.34-.07L120.51,537.11l-.11-.33L33.83,280.67l.23-.26,178.51-203,.34.07L478,130.54l.12.32L564.68,387l-.23.26ZM121.42,536.07,385.49,589,563.32,386.7,477.08,131.58,213,78.7,35.19,280.94Z" transform="translate(-17.13 -68.11)"/><path class="a" d="M403.28,599.53l-.17,0-282-42.74-.06-.17-104-265.54.11-.14,178-222.81.17,0,282,42.74.06.16,104,265.55-.11.14ZM121.59,556.22,403,598.89l177.67-222.4L476.92,111.42,195.48,68.76,17.81,291.16Z" transform="translate(-17.13 -68.11)"/></svg>