<svg color-interpolation="auto" height="600" stroke="#000" stroke-linecap="square" stroke-miterlimit="10" width="600" xmlns="http://www.w3.org/2000/svg"><path d="m0 0h600v600h-600z" stroke="none"/><g fill="none" stroke="#fff" stroke-linecap="round" stroke-width="11.4"><path d="m308.1045 312.6221-14.9833.7077-8.1045-12.6221 6.8788-13.3298 14.9833-.7077 8.1045 12.6221-6.8787 13.3298z"/><path d="m287.5156 327.2789-17.3821-24.4513 12.4845-27.2789 29.8664-2.8276 17.3821 24.4513-12.4845 27.2789z" stroke-width="10.8"/><path d="m255.4503 306.3504 16.7753-41.7563 44.5496-6.3504 27.7745 35.4059-16.7753 41.7563-44.5496 6.3504z" stroke-width="10.2"/><path d="m260.7814 254.5919 58.9339-11.2603 39.2186 45.4081-19.7153 56.6685-58.9339 11.2602-39.2186-45.4081z" stroke-width="9.6"/><path d="m321.2747 228.0807 51.6466 54.384-21.2747 71.9194-72.9213 17.5352-51.6466-54.3841 21.2747-71.9193z" stroke-width="9"/><path d="m386.4153 274.8526-21.4293 87.4116-86.4154 25.1474-64.9859-62.2642 21.4294-87.4116 86.4153-25.1474z" stroke-width="8.4"/><path d="m379.1597 368.9836-99.3214 34.0625-79.1597-68.9835 20.1617-103.0462 99.3214-34.0625 79.1597 68.9835-20.1616 103.0462z" stroke-width="7.8"/><path d="m282.54 418.723-94.0871-74.4823 17.4599-118.723 111.5473-44.2407 94.087 74.4823-17.46 118.723z" stroke-width="7.2"/><path d="m176.9974 355.636 13.3191-134.3414 123.0026-55.636 109.6835 78.7054-13.3191 134.3414-123.0026 55.636z" stroke-width="6.6"/><path d="m174.1393 218.3968 133.6007-68.197 125.8608 81.6031-7.7401 149.8003-133.6008 68.197-125.8607-81.6032 7.74-149.8z" stroke-width="6"/><path d="m300.7303 135.0016 142.5276 83.1316-.7302 164.9983-143.258 81.8669-142.5276-83.1316.7303-164.9985 143.2576-81.8667z" stroke-width="5.4"/><path d="m451.8937 203.4169 7.6966 179.8353-151.8936 96.5832-159.5904-83.2523-7.6967-179.8352 151.894-96.5833 159.59 83.2521z" stroke-width="4.8"/><path d="m476.9521 381.9326-159.4317 112.2787-176.9521-81.9325-17.5205-194.2113 159.4317-112.2788 176.9524 81.9327 17.5203 194.2109z" stroke-width="4.2"/><path d="m328.7148 508.0276-194.5145-79.146-28.7149-208.0275 165.7997-128.8816 194.5145 79.1458 28.7149 208.0279-165.7994 128.8813z" stroke-width="3.6"/><path d="m129.0702 446.3148-41.2474-221.1869 170.9297-146.3148 212.1772 74.872 41.2475 221.1869-170.93 146.315-212.1768-74.872z" stroke-width="3"/><path d="m70.1617 230.9032 174.7587-164.4974 229.8383 69.0967 55.0796 233.5941-174.7586 164.4975-229.8386-69.0968-55.0795-233.5938z" stroke-width="2.4"/><path d="m229.8333 54.8436 247.395 61.8121 70.1667 245.1563-177.2282 183.3443-247.395-61.8119-70.1667-245.1567 177.2279-183.344z" stroke-width="1.8"/><path d="m478.2855 97.2334 86.4583 255.783-178.2855 202.7666-264.7437-53.0163-86.4584-255.783 178.2858-202.7668 264.7432 53.0163z" stroke-width="1.2"/><path d="m581.7808 342.715-177.8826 222.6718-281.7808-42.7149-103.8983-265.3867 177.8826-222.6719 281.7812 42.715 103.898 265.3864z" stroke-width=".6"/></g></svg>