<?xml version="1.0" encoding="utf-8"?>
<!-- Generator: Adobe Illustrator 22.1.0, SVG Export Plug-In . SVG Version: 6.00 Build 0)  -->
<svg version="1.1" id="Ebene_1" xmlns="http://www.w3.org/2000/svg" xmlns:xlink="http://www.w3.org/1999/xlink" x="0px" y="0px"
	 viewBox="0 0 600 600" enable-background="new 0 0 600 600" xml:space="preserve">
<g>
	<path d="M451.1876,238.1189c-36.0775,0-72.155,0.0004-108.2325-0.0016c-1.4397-0.0001-2.8797-0.0477-4.3191-0.031
		c-3.8034,0.044-6.5073,2.6117-6.5435,6.1868c-0.0365,3.5963,2.5716,6.1887,6.3939,6.3232
		c5.2067,0.1832,9.0449,2.6051,11.2105,7.2962c2.1723,4.7054,1.5255,9.27-1.7924,13.2488
		c-3.2653,3.9156-7.6029,5.2682-12.5193,4.095c-5.0494-1.2049-8.1248-4.586-9.3099-9.6158
		c-0.2522-1.0701-0.1867-2.2263-0.1871-3.3428c-0.0093-23.5985-0.0066-47.197-0.0083-70.7955
		c-0.0001-1.2797-0.055-2.5605-0.0211-3.8391c0.1765-6.6584,5.5352-11.9678,12.2087-11.9897
		c12.1591-0.04,24.3185-0.0024,36.4776-0.0284c1.1045-0.0024,2.2615-0.0612,3.3026-0.3864
		c2.9188-0.9119,4.5946-3.6973,4.2125-6.7247c-0.3732-2.9577-2.7961-5.1989-5.8427-5.3745c-0.7975-0.046-1.5994-0.019-2.3993-0.0187
		c-36.2375,0.0127-72.475,0.0321-108.7125,0.0201c-1.6664-0.0005-3.3832-0.0766-4.9903-0.47
		c-5.9891-1.4664-9.8337-7.1689-9.1918-13.4043c0.63-6.1193,5.4601-10.7565,11.5871-11.107
		c0.9574-0.0548,1.9186-0.0601,2.8781-0.0602c23.7585-0.0031,47.517-0.0093,71.2755,0.0004
		c12.0788,0.0049,24.1575,0.0424,36.2363,0.0571c1.1992,0.0014,2.4068,0.0259,3.5963-0.0977
		c3.3262-0.3456,5.6842-3.0634,5.6072-6.3702c-0.0766-3.2872-2.565-5.8835-5.933-6.0351c-2.3153-0.1042-4.6386-0.0363-6.9583-0.0368
		c-10.2393-0.0023-20.4788,0.0225-30.718-0.0107c-6.0365-0.0196-10.8471-3.7695-12.3164-9.4878
		c-1.8534-7.2134,3.1578-14.5367,10.5485-15.402c0.7934-0.0929,1.5979-0.0915,2.3911-0.1856
		c3.0913-0.3669,5.4092-2.8992,5.5045-5.987c0.098-3.1769-2.1693-5.8794-5.3559-6.3569c-0.5511-0.0826-1.1151-0.0779-1.673-0.1161
		c-6.9448-0.4758-11.9482-6.0027-11.7411-12.9689c0.2013-6.7731,5.8109-12.0804,12.731-12.0614
		c11.3585,0.0312,22.7171,0.0559,34.0756,0.0736c1.1989,0.0019,2.4003-0.0251,3.5965-0.102c3.1921-0.205,5.5775-2.5196,5.8282-5.612
		c0.2611-3.2215-1.7755-5.9941-4.9716-6.647c-0.9287-0.1897-1.9049-0.2005-2.8594-0.2016
		c-11.9992-0.0129-23.9986,0.0146-35.9977-0.0192c-6.0498-0.0171-11.0023-4.0772-12.207-9.8818
		c-1.5172-7.3107,3.5322-14.2396,11.1592-15.0207c7.2492-0.7423,13.5739,4.9288,13.5706,12.0306
		c-0.0014,2.9695,2.1259,6.2212,5.3833,6.6213c3.8162,0.4688,6.9974-2.087,7.1372-5.9557c0.0735-2.0342,0.4149-3.965,1.3209-5.7908
		c2.5904-5.2197,8.2989-7.9135,14.0632-6.631c5.6447,1.2559,9.6272,6.2361,9.6296,12.1702
		c0.0135,33.9175,0.0033,67.8349,0.0085,101.7524c0.0025,16.0784,0.0343,32.1568,0.0263,48.2352
		c-0.0031,6.4386-4.7094,11.7417-11.0126,12.5025c-6.3824,0.7704-12.2793-3.4109-13.7154-9.7762
		c-0.2085-0.924-0.2022-1.9-0.2593-2.8541c-0.2146-3.5886-2.9075-6.1485-6.4143-6.0805c-3.39,0.0658-6.1165,2.6181-6.0617,6.1342
		c0.1,6.4039-5.1642,12.6146-12.6529,12.6754c-3.6398,0.0296-6.1828,2.7623-6.1379,6.2833c0.0446,3.5004,2.6746,6.0964,6.3261,6.123
		c5.5994,0.0407,11.1992,0.0093,16.7989,0.0117c30.7179,0.0128,61.4357,0.027,92.1536,0.0379
		c1.2797,0.0005,2.5621,0.021,3.8386-0.0504c3.3492-0.1875,5.8146-2.7717,5.8682-6.0949c0.0553-3.431-2.4352-6.1897-5.8635-6.3461
		c-2.2353-0.1019-4.4788-0.0272-6.7187-0.0274c-10.2393-0.001-20.4814-0.1427-30.7171,0.0495
		c-6.7789,0.1273-13.0589-5.3686-13.0118-13.2931c0.1458-24.5569,0.0484-49.1153,0.0521-73.6731
		c0.0037-25.2781-0.0044-50.5563,0.0367-75.8344c0.0106-6.538,5.0857-11.7586,11.7562-12.2911
		c6.1176-0.4883,12.076,4.2305,13.0826,10.3611c1.0692,6.5117-2.9251,12.7619-9.2285,14.3075
		c-1.2269,0.3008-2.5423,0.2214-3.8068,0.392c-2.7372,0.3693-4.8123,2.1615-5.4167,4.7508
		c-0.6026,2.5821,0.216,4.7397,2.2376,6.4203c1.2246,1.0181,2.6924,1.3086,4.2621,1.3065
		c22.9579-0.0319,45.9158-0.0604,68.8737-0.0701c26.157-0.011,52.314-0.0067,78.4711,0.0086
		c1.4348,0.0008,2.8855,0.0559,4.3016,0.2676c6.0685,0.9075,10.6095,6.322,10.5093,12.4415
		c-0.103,6.2821-4.8306,11.565-11.0319,12.2285c-1.7441,0.1866-3.5131,0.1946-5.2707,0.1956
		c-22.4786,0.0121-44.9572,0.008-67.4358,0.008c-25.8364,0-51.6729,0-77.5093,0.0003c-0.56,0-1.1209-0.0173-1.6797,0.0088
		c-3.2216,0.1501-5.7212,2.6123-5.9055,5.8048c-0.1888,3.2711,2.1646,6.1158,5.4238,6.5298
		c0.7127,0.0905,1.4369,0.0875,2.1521,0.1623c6.4306,0.673,11.1331,5.8053,11.1491,12.2733
		c0.0302,12.1592-0.0044,24.3185,0.0302,36.4776c0.0034,1.1785,0.1077,2.4259,0.5012,3.5206
		c0.9803,2.7269,3.9583,4.3523,6.7273,3.8707c2.9348-0.5104,5.0433-2.7973,5.248-5.7263c0.0501-0.7168,0.0248-1.4392,0.0242-2.1591
		c-0.01-11.9191-0.0381-23.8382-0.0263-35.7572c0.0063-6.3541,4.6567-11.6909,10.7749-12.4551
		c6.4847-0.81,12.2378,2.9651,13.8622,9.1851c0.298,1.1412,0.2493,2.3723,0.3679,3.5611c0.317,3.1771,2.5723,5.5194,5.6761,5.9005
		c2.6806,0.3291,5.5169-1.3717,6.4287-4.0159c0.3296-0.9559,0.3209-2.0342,0.4258-3.0609
		c0.5374-5.2581,3.1781-9.0665,8.1315-10.8942c4.8226-1.7795,9.3243-0.8529,13.1053,2.7281
		c3.6308,3.4387,4.7706,8.8538,2.9714,13.4939c-1.8471,4.7638-6.3167,7.9212-11.5119,7.9762
		c-5.919,0.0627-11.8391,0.0152-17.7587,0.0157c-6.5596,0.0006-13.1192,0.011-19.6788-0.0025
		c-2.8654-0.0059-4.9429,1.2522-6.0524,3.8791c-1.6095,3.8109,0.9104,8.0748,5.0379,8.5561c1.3445,0.1568,2.716,0.1087,4.0752,0.108
		c35.7572-0.0163,71.5144-0.0464,107.2717-0.0379c1.8222,0.0004,3.715,0.0656,5.4536,0.5428
		c5.8035,1.5927,9.6562,7.3885,8.944,13.1367c-0.7968,6.4295-5.704,11.0709-11.9946,11.3116
		c-1.5979,0.0612-3.1992,0.0485-4.7989,0.0481c-47.8365-0.011-95.6731-0.0249-143.5096-0.0374
		c-0.8799-0.0002-1.7626-0.0335-2.6391,0.0233c-3.2021,0.2077-5.6703,2.7416-5.8141,5.9305
		c-0.1467,3.254,2.2518,6.1292,5.4993,6.4855c1.1876,0.1303,2.3972,0.0785,3.5967,0.0782
		c23.9979-0.0073,47.9958-0.018,71.9937-0.0309c7.0732-0.0038,12.5652,5.3044,12.7081,12.2931
		c0.1414,6.9157-5.2018,12.4303-12.306,12.7006c-3.8168,0.1453-6.5306,2.7424-6.5306,6.25c0,3.5876,2.8932,6.2607,6.7708,6.2591
		c24.3183-0.01,48.6366-0.0305,72.9549-0.0058c1.7419,0.0018,3.5496,0.0964,5.2132,0.5575
		c5.7343,1.5894,9.5934,7.4815,8.8451,13.2185c-0.8404,6.4434-5.8087,11.1107-12.069,11.1818
		c-7.0386,0.08-14.0786,0.0538-21.1179,0.0549C512.1429,238.1215,481.6653,238.1189,451.1876,238.1189z M475.8223,206.7471
		c0.0013,0,0.0026,0,0.0039,0c0-1.0395,0.0009-2.079-0.0002-3.1185c-0.0055-5.2773,0.06-10.5561-0.0438-15.8315
		c-0.063-3.1995-2.4679-5.6328-5.5234-5.9113c-3.276-0.2985-6.0081,1.6177-6.7539,4.8217
		c-0.1963,0.8432-0.2158,1.7411-0.2169,2.6141c-0.0134,11.2745-0.0111,22.5491-0.0051,33.8236
		c0.0006,1.0389-0.0154,2.0852,0.0955,3.1152c0.3769,3.5022,3.357,5.9037,6.8511,5.5759c3.2303-0.3031,5.5447-2.8593,5.5768-6.3785
		C475.8632,219.2215,475.8223,212.9841,475.8223,206.7471z M363.3232,94.5536c0.0126,0,0.0251,0,0.0377,0
		c0-5.9183,0.001-11.8367-0.0014-17.755c-0.0002-0.6395,0.031-1.2848-0.0393-1.9177c-0.3295-2.9644-2.7075-5.2487-5.7306-5.5426
		c-2.902-0.2821-5.7675,1.6841-6.5269,4.5624c-0.2001,0.7587-0.2139,1.5817-0.2148,2.3754
		c-0.0125,12.0766-0.0092,24.1532-0.0069,36.2298c0.0001,0.4794-0.0098,0.9633,0.048,1.4375
		c0.4491,3.687,4.1131,6.1625,7.7122,5.2234c2.9232-0.7628,4.6789-2.9503,4.7064-6.139
		C363.3608,106.8701,363.3232,100.7117,363.3232,94.5536z M357.1029,144.3638c-3.5044-0.0041-6.2331,2.6868-6.259,6.1722
		c-0.0264,3.5601,2.8456,6.4375,6.3559,6.3676c3.4199-0.068,6.1702-2.9034,6.1557-6.346
		C363.3411,147.1003,360.5827,144.3679,357.1029,144.3638z M407.0518,131.7757c-0.0422,3.4377,2.6948,6.2496,6.1495,6.3177
		c3.5016,0.0691,6.2922-2.5746,6.3815-6.0455c0.093-3.6153-2.6241-6.4161-6.23-6.4222
		C409.8717,125.6198,407.0941,128.3307,407.0518,131.7757z M438.3163,225.5378c-0.0261-3.4906-2.7519-6.2018-6.2344-6.2012
		c-3.4454,0.0006-6.2448,2.7687-6.2771,6.2067c-0.0331,3.5293,2.8565,6.382,6.4023,6.3204
		C435.6846,231.8034,438.3426,229.0511,438.3163,225.5378z M438.2801,188.092c-0.0021-3.5471-2.6334-6.2159-6.1499-6.2377
		c-3.466-0.0215-6.2691,2.7-6.3257,6.1415c-0.0579,3.5181,2.8365,6.4296,6.3511,6.3885
		C435.6228,194.3438,438.2822,191.6115,438.2801,188.092z M469.6395,144.3592c-3.5025-0.025-6.238,2.642-6.2928,6.1353
		c-0.0555,3.5385,2.8181,6.4585,6.3106,6.4125c3.4294-0.0451,6.1599-2.842,6.16-6.3097
		C475.8174,147.0937,473.134,144.3841,469.6395,144.3592z M375.8552,100.5532c3.5229-0.0069,6.232-2.6764,6.2528-6.1616
		c0.0206-3.4537-2.7031-6.2343-6.164-6.2928c-3.5527-0.06-6.408,2.7739-6.371,6.3232
		C369.6091,97.8964,372.3386,100.5601,375.8552,100.5532z"/>
	<path d="M188.3315,463.1201c-49.038,0-98.076,0.0045-147.114-0.0162c-1.9871-0.0009-4.0332,0.0208-5.9503-0.4148
		c-6.1831-1.4049-10.0626-7.2507-9.3406-13.7513c0.6715-6.0456,5.9199-10.7471,12.1507-10.7661
		c11.5995-0.0354,23.1993-0.0082,34.7989-0.0146c1.1994-0.0007,2.4065,0.0245,3.5965-0.0959
		c3.329-0.3371,5.698-3.0454,5.6323-6.3492c-0.0654-3.2883-2.5519-5.8523-5.9104-6.0699c-0.7173-0.0465-1.4393-0.0248-2.1592-0.025
		c-11.8396-0.0015-23.6793,0.02-35.5189-0.0105c-6.0502-0.0156-10.9431-3.7248-12.3032-9.4745
		c-1.1643-4.9218,0.1372-9.2554,4.0219-12.5526c3.8775-3.2911,8.3712-3.928,13.0279-1.9561
		c4.6799,1.9818,7.1467,5.7119,7.5755,10.7814c0.0737,0.8716,0.0494,1.7797,0.2961,2.6034c0.829,2.7681,3.6649,4.6502,6.4351,4.3808
		c3.1073-0.3022,5.4921-2.6912,5.7723-5.7842c0.1006-1.1107,0.0663-2.2528,0.3189-3.3275
		c1.5033-6.3956,7.2364-10.3356,13.8151-9.5637c6.2734,0.736,10.8805,6.0634,10.8748,12.5764
		c-0.0104,11.9195-0.0218,23.8389-0.0309,35.7584c-0.0005,0.7198-0.036,1.4446,0.033,2.1586
		c0.3143,3.2546,3.1156,5.7576,6.338,5.6973c3.258-0.061,5.9132-2.606,6.1297-5.9001c0.0471-0.7171,0.0201-1.4394,0.0202-2.1593
		c0.001-11.9196-0.0309-23.8394,0.0113-35.7589c0.032-9.0505,9.1219-15.0363,17.3904-11.5119
		c5.3634,2.2861,8.3922,7.8378,7.4577,13.6697c-0.8866,5.5328-5.6424,9.8649-11.3773,10.3534
		c-0.557,0.0475-1.1219,0.009-1.6775,0.0659c-3.1785,0.3257-5.5712,2.964-5.5929,6.1461c-0.0216,3.1642,2.3525,5.8768,5.5098,6.2463
		c0.7112,0.0832,1.4381,0.0401,2.1578,0.0402c12.7996,0.0018,25.5992-0.0058,38.3988,0.003
		c23.2788,0.0158,46.5576,0.0608,69.8364,0.0579c36.9574-0.0045,73.9148-0.0384,110.8722-0.0588
		c1.5994-0.0009,3.1996-0.0232,4.798,0.0184c6.8943,0.179,12.2688,5.6819,12.2477,12.5177
		c-0.0212,6.8311-5.4406,12.3334-12.3086,12.4823c-1.6792,0.0364-3.3594,0.0428-5.0392,0.0424
		c-45.1184-0.0111-90.2368-0.025-135.3551-0.0381C194.8909,463.1192,191.6112,463.1201,188.3315,463.1201z M63.3192,450.5487
		c-0.0188-3.5052-2.7172-6.1854-6.2266-6.1848c-3.502,0.0006-6.2265,2.6955-6.2486,6.1806
		c-0.0225,3.5552,2.8575,6.4334,6.3632,6.3593C60.6418,456.8311,63.3379,454.0278,63.3192,450.5487z M213.2632,450.5502
		c-0.0208-3.5624-2.6445-6.193-6.1769-6.1931c-3.4618-0.0001-6.2569,2.747-6.2926,6.1846c-0.0362,3.4784,2.9377,6.4324,6.4048,6.362
		C210.6447,456.8338,213.2837,454.0691,213.2632,450.5502z M244.6552,456.9053c3.3909-0.0385,6.224-2.9044,6.2303-6.3022
		c0.0065-3.5253-2.8994-6.3252-6.4739-6.2379c-3.4783,0.0849-6.1474,2.8799-6.0755,6.3624
		C238.4069,454.1636,241.2508,456.9439,244.6552,456.9053z"/>
	<path d="M438.2814,375.6162c0-36.3176-0.0004-72.6351,0.0014-108.9527c0.0001-1.1997,0.0516-2.4001,0.0273-3.5992
		c-0.0706-3.4746-2.6236-6.1194-5.9967-6.2444c-3.3422-0.1238-6.161,2.379-6.4886,5.7887
		c-0.0916,0.9536-0.0078,1.9326-0.1771,2.8687c-1.1681,6.4582-7.2009,10.7756-13.9632,10.0381
		c-6.3347-0.6909-11.1776-6.5308-10.8613-13.0973c0.3131-6.5,5.7014-11.7926,12.2198-11.802
		c25.1183-0.0362,50.2367-0.0302,75.3551-0.006c6.9059,0.0066,12.3241,5.4097,12.4634,12.294
		c0.1341,6.6233-5.0646,12.3009-11.5947,12.6629c-7.075,0.3922-12.8591-4.5708-13.4252-11.5258
		c-0.0389-0.4776-0.0047-0.9612-0.0456-1.4384c-0.2844-3.322-2.9342-5.788-6.2073-5.789c-3.1693-0.0011-5.8279,2.3619-6.2106,5.5497
		c-0.076,0.633-0.0712,1.278-0.0709,1.9175c0.0095,23.2783,0.0239,46.5566,0.0331,69.8349
		c0.0005,1.1995-0.0664,2.3993-0.0534,3.5984c0.0412,3.81,2.579,6.5414,6.1377,6.6347c3.5897,0.0942,6.3101-2.4641,6.3689-6.315
		c0.0902-5.9052,4.314-11.395,10.9203-12.3716c6.783-1.0027,13.3041,4.0784,14.0368,11.0358
		c0.757,7.1891-4.481,13.5526-11.481,13.8147c-3.3552,0.1256-6.7188,0.0296-10.0785,0.0301
		c-8.9594,0.0013-17.9189-0.0108-26.8783,0.015c-1.1095,0.0032-2.2593,0.053-3.3198,0.3411
		c-2.874,0.7809-4.7672,3.7077-4.4196,6.6092c0.3631,3.031,2.6859,5.2954,5.7144,5.497c1.4348,0.0955,2.877,0.1081,4.3159,0.1092
		c11.1993,0.0085,22.3987-0.0175,33.5979,0.0149c5.5499,0.0161,10.0385,3.1237,11.8875,8.0995
		c3.088,8.3102-3.1219,16.9796-12.0747,16.9353c-12.0783-0.0599-24.157-0.0684-36.2354-0.0758
		c-3.6346-0.0023-5.85,1.3791-6.8414,4.1508c-1.2331,3.4474,0.6844,7.1979,4.2285,8.1095c0.9898,0.2546,2.0555,0.2943,3.0865,0.296
		c12.0792,0.0195,24.1586-0.0096,36.2377,0.0236c5.3435,0.0147,9.8981,3.1611,11.5898,8.1163
		c1.6642,4.8748,0.8291,9.3946-2.84,13.0802c-3.7187,3.7354-8.2635,4.7912-13.2404,2.9479
		c-4.8748-1.8055-7.5066-5.4953-8.1428-10.6268c-0.0588-0.4741-0.014-0.9601-0.0493-1.4381
		c-0.251-3.3986-2.7611-5.8304-6.0823-5.9026c-3.3967-0.0738-6.1183,2.4013-6.3602,5.8686
		c-0.0944,1.3529-0.0218,2.7177-0.0218,4.0771c-0.0005,22.4786,0.0008,44.9572-0.0031,67.4359
		c-0.0002,1.3594-0.0411,2.7188-0.0616,4.0782c-0.1029,6.8122-5.4153,12.2015-12.152,12.3274
		c-6.8417,0.1279-12.4942-5.1399-12.8165-11.9847c-0.0752-1.5964-0.0279-3.1989-0.028-4.7985
		C438.2812,447.7713,438.2815,411.6937,438.2814,375.6162z M475.8144,375.6654c0.0292-3.4884-2.6446-6.2798-6.1004-6.3686
		c-3.4913-0.0898-6.3945,2.8089-6.3672,6.357c0.0266,3.4479,2.8193,6.2463,6.2368,6.2494
		C473.021,381.9063,475.7853,379.1389,475.8144,375.6654z"/>
	<path d="M238.4138,188.1606c0,23.2726,0,46.545,0,69.8175c0,24.8709,0.0021,49.7418-0.0042,74.6127
		c-0.0005,1.8386-0.1338,3.6792-0.0807,5.5153c0.1782,6.1546-4.856,12.479-12.4859,12.5093
		c-7.0013,0.0279-12.4567-5.5226-12.5596-12.7362c-0.0217-1.5186-0.0164-3.0377-0.0165-4.5566
		c-0.0007-47.2653-0.0006-94.5305-0.0006-141.7957c0-24.9515,0-49.903,0-74.8545c0-25.4314-0.0041-50.8628,0.0109-76.2943
		c0.0009-1.4347,0.0525-2.885,0.2622-4.3012c0.8985-6.0697,6.2981-10.62,12.4156-10.5378
		c6.2753,0.0842,11.587,4.8095,12.2489,11.0029c0.2033,1.902,0.2006,3.8316,0.2017,5.7487
		c0.0128,22.0738,0.0082,44.1476,0.0082,66.2215c0,24.7912,0,49.5823,0,74.3735
		C238.4138,184.6438,238.4138,186.4022,238.4138,188.1606z"/>
	<path d="M313.3986,300.6864c0,35.9986,0.0005,71.9972-0.0018,107.9958c-0.0001,1.5997,0.0002,3.2003-0.0446,4.7992
		c-0.1881,6.7097-5.6753,12.0995-12.3929,12.1917c-6.6665,0.0915-12.3-5.2481-12.5825-11.9599
		c-0.0672-1.5969-0.0396-3.1982-0.0385-4.7974c0.0149-23.9189,0.0461-47.8379,0.0461-71.7568
		c0.0001-23.7589-0.0404-47.5179-0.0435-71.2768c-0.0016-12.4792,0.0413-24.9583,0.0557-37.4375
		c0.0014-1.1992,0.0297-2.4084-0.105-3.5959c-0.3747-3.3012-3.1485-5.6294-6.4589-5.5076
		c-3.1929,0.1174-5.7028,2.5451-5.9448,5.7841c-0.0594,0.796-0.0328,1.599-0.033,2.3988
		c-0.0018,11.7597,0.0141,23.5193-0.0082,35.279c-0.0114,6.0255-3.512,10.8181-9.1315,12.3208
		c-5.0014,1.3375-9.4121,0.083-12.8174-3.8283c-3.339-3.8352-4.0205-8.3472-2.0856-13.011
		c1.9817-4.7764,5.765-7.3513,10.9534-7.6687c3.6689-0.2244,5.8362-1.7009,6.6382-4.7332c0.9763-3.6908-1.6353-7.3974-5.442-7.7632
		c-1.4253-0.137-2.8956-0.17-4.255-0.563c-6.0226-1.7413-9.5996-7.5475-8.7146-13.953c0.8191-5.9282,6.0318-10.456,12.1806-10.4727
		c11.5996-0.0315,23.1993-0.0083,34.799-0.0113c1.0398-0.0003,2.0811,0.0058,3.119-0.0455c3.437-0.1696,6.0456-2.8585,6.0531-6.21
		c0.0075-3.3444-2.6053-6.1562-6.0254-6.2311c-4.5577-0.0997-9.1191-0.0316-13.679-0.0325
		c-7.9998-0.0015-15.9996,0.0169-23.9993-0.006c-6.4333-0.0184-11.7018-4.5658-12.4716-10.7076
		c-0.8249-6.5822,3.06-12.3559,9.3933-13.9601c7.3899-1.8719,14.7422,3.3923,15.4628,11.0759
		c0.0373,0.3972,0.0121,0.7999,0.0364,1.1987c0.2161,3.5547,2.7159,6.0976,6.0727,6.1831c3.4236,0.0872,6.1677-2.508,6.4594-6.0998
		c0.0903-1.1122,0.0557-2.26,0.3275-3.328c1.5708-6.1716,7.3596-10.0135,13.8434-9.2656
		c5.8624,0.6763,10.5841,5.8828,10.8135,11.9602c0.0482,1.2776-0.0181,2.5592-0.0181,3.839
		c-0.0014,36.3987-0.0012,72.7974-0.0012,109.1962C313.3718,300.6864,313.3852,300.6864,313.3986,300.6864z M300.7604,238.0841
		c-3.4558,0.0329-6.1714,2.8063-6.1587,6.2899c0.0128,3.4969,2.7228,6.2111,6.2109,6.2205c3.5583,0.0096,6.424-2.883,6.3311-6.3908
		C307.0531,240.7841,304.2025,238.0513,300.7604,238.0841z"/>
	<path d="M151.2193,388.1762c-11.036,0-22.072,0-33.1079,0c-25.8285,0-51.657,0.0033-77.4855-0.0093
		c-1.3554-0.0007-2.7246-0.0367-4.0637-0.2251c-6.3043-0.8871-10.751-6.09-10.7079-12.4501
		c0.0423-6.2444,4.4833-11.3585,10.6855-12.2278c1.3393-0.1877,2.708-0.2298,4.0633-0.2306
		c22.7917-0.0134,45.5834-0.0096,68.3751-0.0096c24.7095,0,49.419-0.0037,74.1286,0.001
		c26.5484,0.0052,53.0969,0.0142,79.6453,0.0308c6.8441,0.0042,11.8885,4.1981,12.9758,10.7441
		c1.0974,6.6075-3.6823,13.2018-10.3293,14.0996c-1.9707,0.2662-3.9871,0.2646-5.9826,0.266
		c-22.9516,0.017-45.9033,0.0108-68.8549,0.0108C177.4471,388.1762,164.3332,388.1762,151.2193,388.1762z"/>
	<path d="M388.3589,450.679c0,35.9057,0.0005,71.8113-0.0018,107.717c-0.0001,1.6791-0.01,3.3586-0.0421,5.0374
		c-0.127,6.6553-5.4449,11.9947-12.0842,12.145c-6.8417,0.1547-12.4578-4.9026-12.8644-11.6027
		c-0.0581-0.9567-0.0436-1.9185-0.0437-2.8779c-0.0019-48.7008-0.0016-97.4017-0.0016-146.1025c0-25.11-0.009-50.22,0.0205-75.3299
		c0.002-1.6634,0.0706-3.3871,0.4961-4.979c1.5764-5.8972,7.4585-9.8362,13.2858-9.0662
		c6.5467,0.8651,11.1733,5.8702,11.1819,12.3041c0.033,24.79,0.0156,49.58,0.0166,74.3701
		c0.0005,12.7948,0.0001,25.5897,0.0001,38.3846C388.3343,450.679,388.3466,450.679,388.3589,450.679z"/>
	<path d="M94.1775,88.1761c-17.1974,0-34.3949,0.0027-51.5923-0.0045c-1.5988-0.0007-3.1992-0.0301-4.7961-0.1055
		c-6.5544-0.3092-11.6814-5.4073-11.9171-11.8231c-0.2474-6.7345,4.2391-12.1176,10.8762-13.0173
		c0.9476-0.1285,1.9114-0.1928,2.8677-0.1932c24.2364-0.0104,48.4727-0.0182,72.7091-0.0042
		c11.7571,0.0068,23.5141,0.0625,35.2712,0.0853c1.2787,0.0025,2.5609-0.0193,3.8355-0.1117c2.9775-0.216,5.254-2.4013,5.593-5.306
		c0.3721-3.1874-1.3959-6.0185-4.3978-6.8149c-1.0623-0.2818-2.2118-0.3223-3.3217-0.3243
		c-12.0782-0.022-24.1566,0.027-36.2345-0.0308c-6.9773-0.0334-12.3869-5.7072-12.2623-12.6821
		c0.121-6.7777,5.7475-12.3109,12.5246-12.3171c6.7046-0.0061,12.2245,5.3377,12.4658,12.0683
		c0.1628,4.541,3.3029,7.3443,7.4382,6.6405c2.798-0.4762,4.8059-2.7555,5.0554-5.6001c0.1318-1.5035,0.2355-3.0538,0.6859-4.4772
		c1.8085-5.7154,7.7059-9.3751,13.4521-8.484c6.4757,1.0042,10.8354,5.9121,10.8407,12.3318
		c0.0192,23.5155,0.0071,47.0311,0.0098,70.5466c0.0002,1.3594-0.0219,2.7214,0.0497,4.0778
		c0.3363,6.3725-4.4771,12.7187-12.2454,13.0233c-6.822,0.2675-12.4691-5.2346-12.7644-12.2841
		c-0.1673-3.9946-2.771-6.6336-6.4307-6.518c-3.3797,0.1068-5.9606,2.6568-6.0587,6.1898
		c-0.0544,1.9598-0.3789,3.8093-1.2354,5.5632c-2.5528,5.2278-8.2712,7.9571-14.0286,6.7032
		c-5.5492-1.2086-9.6237-6.1635-9.7584-11.8669c-0.1376-5.8277,3.7124-11.029,9.3296-12.4423
		c1.2205-0.3071,2.5356-0.3255,3.8074-0.328c11.7582-0.0232,23.5164-0.0123,35.2747-0.0172
		c0.7985-0.0003,1.6079,0.0267,2.3934-0.088c3.375-0.4928,5.586-3.1534,5.4557-6.4987c-0.1255-3.2209-2.462-5.6351-5.7858-5.9424
		c-0.7146-0.0661-1.4385-0.0414-2.1581-0.0416c-11.5983-0.0021-23.1965-0.0015-34.7948-0.0015c-6.7179,0-13.4359,0-20.1538,0
		C94.1775,88.1129,94.1775,88.1445,94.1775,88.1761z M138.3155,75.5085c-0.0379-3.4641-2.8311-6.2337-6.2612-6.2083
		c-3.4045,0.0252-6.2336,2.8653-6.2489,6.2729c-0.0156,3.4988,2.9671,6.4333,6.4332,6.329
		C135.6965,81.7981,138.3537,79.0023,138.3155,75.5085z"/>
	<path d="M138.283,263.0945c0-24.7977-0.0146-49.5954,0.0101-74.393c0.0063-6.366,3.548-11.1011,9.3305-12.6921
		c7.7789-2.1403,15.6103,3.6344,15.6348,11.7028c0.0742,24.4772,0.0583,48.9547,0.0784,73.4321
		c0.0007,0.7994-0.041,1.603,0.0252,2.3974c0.282,3.3822,2.853,5.7818,6.1759,5.8031c3.4332,0.022,6.1315-2.4233,6.2477-5.9423
		c0.1674-5.0651,2.2169-8.9912,6.7306-11.3578c4.5992-2.4114,9.1808-2.0312,13.3285,1.0606
		c4.2604,3.1759,5.7942,7.6308,4.6819,12.7488c-1.0987,5.0549-4.4388,8.2097-9.4614,9.4631
		c-1.0658,0.266-2.2218,0.2309-3.3364,0.2323c-11.919,0.015-23.8379,0.0031-35.7569,0.0213
		c-0.9491,0.0015-1.9351,0.0373-2.8402,0.2878c-3.0262,0.8373-4.9568,3.7745-4.5463,6.7483
		c0.4303,3.1174,2.8501,5.4012,6.0349,5.4141c12.3984,0.0503,24.7971,0.0455,37.1956,0.0252
		c5.9736-0.0098,10.8238,3.4204,12.51,8.9486c2.4192,7.9313-3.4031,15.9914-11.6776,16.0294
		c-12.1587,0.0558-24.3179,0.0073-36.4768,0.0285c-1.0283,0.0018-2.0944,0.0546-3.0771,0.3241
		c-2.9329,0.8043-4.8287,3.618-4.5304,6.5314c0.3179,3.1057,2.7128,5.4256,5.8581,5.6463c0.7168,0.0503,1.4391,0.0283,2.1588,0.0284
		c11.839,0.0015,23.678-0.015,35.5169,0.0085c5.6248,0.0112,10.292,3.1649,12.0068,8.2684
		c1.6409,4.8836,0.7578,9.3822-2.9159,13.0642c-3.7514,3.76-8.3613,4.6778-13.2748,2.8592
		c-4.8521-1.7958-7.4791-5.5434-8.0629-10.6916c-0.0539-0.475-0.009-0.9605-0.0475-1.4381
		c-0.2545-3.1526-2.5438-5.4975-5.6842-5.8354c-2.9673-0.3194-5.8117,1.7284-6.5939,4.7885
		c-0.1564,0.6118-0.2105,1.2588-0.2387,1.8929c-0.3108,6.9825-5.7608,12.2354-12.5972,12.1256
		c-6.9449-0.1115-12.3717-5.6497-12.3989-12.6588c-0.0031-0.7997,0.0294-1.5995,0.0295-2.3993
		c0.0017-24.1575,0.0014-48.315,0.0014-72.4725C138.3086,263.0945,138.2958,263.0945,138.283,263.0945z M175.817,300.5664
		c-0.0163-3.465-2.7726-6.2531-6.2009-6.2724c-3.4682-0.0195-6.4212,2.9894-6.3293,6.4491
		c0.0912,3.4344,2.9225,6.1385,6.3856,6.0989C173.1675,306.8021,175.8335,304.0793,175.817,300.5664z"/>
	<path d="M225.7399,475.6064c12.4753,0,24.9505-0.0022,37.4258,0.0008c7.0014,0.0016,12.2821,5.0367,12.6985,12.0593
		c0.0561,0.9456,0.1315,1.9377,0.4582,2.8108c0.982,2.6248,3.7488,4.2095,6.5127,3.8713c2.8714-0.3513,5.1177-2.6151,5.4735-5.534
		c0.1639-1.3445,0.1306-2.7383,0.4799-4.0305c1.6501-6.1042,7.2955-9.8046,13.7156-9.0992
		c5.877,0.6457,10.5569,5.787,10.8613,11.9009c0.0433,0.8699,0.0711,1.7779,0.3378,2.5925c0.9319,2.8462,3.8583,4.59,6.7866,4.1507
		c2.9501-0.4426,5.1056-2.8335,5.3886-5.8987c0.1314-1.4231,0.1693-2.8994,0.5932-4.2433c1.9088-6.0521,8.1846-9.655,14.3909-8.3838
		c6.2734,1.285,10.6106,7.2136,9.9558,13.6088c-0.6451,6.3002-5.946,11.1701-12.3277,11.1766
		c-25.1109,0.0257-50.2218,0.028-75.3326-0.0011c-6.4189-0.0074-11.5872-4.8118-12.241-11.2143
		c-0.073-0.7154-0.0704-1.4394-0.1624-2.1518c-0.4009-3.1068-2.9306-5.3306-6.0758-5.3665
		c-3.1538-0.036-5.7283,2.0979-6.2296,5.1891c-0.0891,0.5492-0.1185,1.1137-0.1179,1.6711
		c0.0233,24.3102,0.0708,48.6204,0.0475,72.9305c-0.0018,1.8902-0.2236,3.8685-0.8087,5.6532
		c-1.814,5.5327-7.1626,8.7784-13.1485,8.2304c-5.5029-0.5038-10.0823-4.8817-10.9007-10.5018
		c-0.1948-1.338-0.2437-2.7072-0.2445-4.0621c-0.014-23.6714-0.0101-47.3428-0.0104-71.0143c0-0.7197,0.021-1.4405-0.0089-2.159
		c-0.1286-3.0898-2.3084-5.5158-5.2713-5.8871c-3.2614-0.4087-6.1241,1.4621-6.9198,4.5844
		c-0.1949,0.7647-0.2383,1.5763-0.2813,2.3701c-0.35,6.4581-5.5493,11.5715-11.9874,11.7705
		c-6.7562,0.2089-12.272-4.7083-12.9759-11.5677c-0.6243-6.0841,3.9626-12.1398,10.1039-13.2614
		c1.0119-0.1848,2.0706-0.1528,3.1078-0.1536c12.2356-0.0094,24.4711-0.0061,36.7067-0.0061
		C225.7399,475.6295,225.7399,475.618,225.7399,475.6064z"/>
	<path d="M125.7985,300.536c0.0003,12.4766-0.1195,24.9549,0.0543,37.429c0.0788,5.6555-4.3329,12.02-11.4064,12.5921
		c-6.4666,0.523-12.1162-3.6865-13.4283-10.143c-1.4694-7.2305,3.907-14.2125,11.4113-14.8127
		c0.4776-0.0382,0.961-0.0067,1.4382-0.0482c3.2535-0.2826,5.6287-2.7813,5.7161-5.9997c0.0879-3.2399-2.1211-5.9152-5.3074-6.3897
		c-0.6298-0.0938-1.2763-0.0706-1.9141-0.1161c-6.5295-0.4664-11.562-5.8893-11.5558-12.4488
		c0.0063-6.6349,5.1878-12.1274,11.7907-12.5211c0.9504-0.0567,1.9448-0.0543,2.8333-0.3427
		c2.8474-0.9241,4.5037-3.7624,4.1035-6.8063c-0.3715-2.8256-2.7046-5.0426-5.6533-5.3422c-1.1106-0.1128-2.2577-0.034-3.335-0.2776
		c-5.5163-1.2473-9.4295-5.9793-9.7314-11.6485c-0.0382-0.7168,0.0015-1.455-0.1592-2.145c-0.6623-2.8447-3.4835-4.8698-6.4403-4.69
		c-3.0836,0.1875-5.59,2.6029-5.8372,5.6665c-0.0641,0.7948-0.0231,1.5984-0.0235,2.3979
		c-0.0122,24.3931-0.0775,48.7864,0.0071,73.1793c0.0186,5.3578-4.0429,11.7008-11.0392,12.4391
		c-6.5443,0.6906-12.2661-3.3252-13.7064-9.7287c-0.2253-1.0017-0.2739-2.0605-0.2742-3.093
		c-0.0078-24.7129,0.0019-49.4258,0.009-74.1387c0.001-3.5269-2.0879-6.1539-5.307-6.6708
		c-2.9185-0.4686-5.8318,1.2388-6.8142,4.0984c-0.2782,0.8098-0.3438,1.7154-0.3795,2.5822
		c-0.2871,6.9708-5.9111,12.2102-12.9486,12.0308c-6.8181-0.1738-12.134-5.7619-12.0547-12.6721
		c0.0787-6.8581,5.5088-12.2982,12.4194-12.3057c24.0734-0.0261,48.1468-0.0123,72.2202-0.0065
		c1.5972,0.0004,3.222-0.1175,4.7868,0.1243c6.1882,0.9564,10.5095,6.0736,10.5196,12.3778
		C125.8123,275.5828,125.7982,288.0594,125.7985,300.536z"/>
	<path d="M538.4137,413.26c0.0001,13.9142,0.003,27.8283-0.0009,41.7424c-0.0031,10.8748-0.0018,21.7496-0.0271,32.6245
		c-0.017,7.3064-5.3079,12.884-12.2866,13.0046c-7.2134,0.1246-12.775-5.4908-12.8073-12.9662
		c-0.027-6.2367-0.0294-12.4734-0.0236-18.7102c0.0178-18.9513,0.0652-37.9026,0.0633-56.8539
		c-0.0025-24.1491-0.0543-48.2983-0.0393-72.4474c0.001-1.7404,0.1358-3.5483,0.6131-5.2084
		c1.6108-5.6024,7.1577-9.3784,12.7535-8.8816c6.1371,0.5449,10.7992,4.9372,11.5654,10.943
		c0.1411,1.1062,0.1814,2.2318,0.1819,3.3484c0.01,23.2702,0.0076,46.5404,0.0075,69.8106
		C538.4136,410.8639,538.4136,412.062,538.4137,413.26z"/>
	<path d="M488.4272,538.1183c-24.467,0.0004-48.934,0.0107-73.4009-0.0213c-1.7419-0.0023-3.5491-0.0732-5.2131-0.5266
		c-5.8616-1.597-9.6156-7.3322-8.9443-13.3733c0.6792-6.1119,5.7607-10.8382,11.9304-11.0869
		c0.7985-0.0322,1.5988-0.028,2.3982-0.028c48.7744-0.0012,97.5487-0.0061,146.3231,0.0194
		c1.7428,0.0009,3.5458,0.0728,5.2172,0.5086c5.7865,1.5087,9.7289,7.2723,9.0997,13.0328
		c-0.7012,6.4205-5.5826,11.1354-11.8503,11.4434c-0.3992,0.0197-0.7993,0.0301-1.1989,0.0301
		C538.0012,538.118,513.2142,538.1178,488.4272,538.1183z"/>
	<path d="M113.4571,163.16c-24.4656,0-48.9313,0.0067-73.3969-0.0164c-1.5081-0.0014-3.0506-0.0775-4.5178-0.3939
		c-6.2311-1.3438-10.2174-7.0085-9.6336-13.5338c0.5339-5.9678,5.5032-10.6915,11.6553-11.0574
		c1.0363-0.0616,2.0775-0.0597,3.1163-0.0591c23.9058,0.0133,47.8116,0.0417,71.7173,0.0438
		c25.1846,0.0022,50.3696,0.0695,75.5534-0.0764c9.8287-0.0569,16.1078,10.2063,11.2262,18.7745
		c-2.2669,3.9788-5.8354,6.0216-10.4054,6.2689c-1.2761,0.069-2.5577,0.0481-3.8368,0.0482
		C161.1092,163.1606,137.2831,163.16,113.4571,163.16z"/>
	<path d="M301.0759,513.1216c12.4789,0.0006,24.9578-0.0155,37.4366,0.0082c5.2628,0.01,9.7802,3.2339,11.5865,8.1629
		c1.7951,4.8984,0.4185,10.3318-3.5326,13.7566c-2.3901,2.0716-5.1894,3.0175-8.3626,3.093
		c-3.5376,0.0842-6.0581,2.6832-6.1112,6.0853c-0.0535,3.4254,2.435,6.104,5.8688,6.3698c1.2683,0.0981,2.5698,0.1451,3.7861,0.4742
		c5.9398,1.6064,9.8046,7.4509,9.0506,13.5487c-0.7473,6.0425-5.7938,10.7265-11.8062,10.958
		c-6.309,0.243-11.6969-3.8631-12.9161-9.9113c-0.203-1.0071-0.1859-2.0683-0.1869-3.1046
		c-0.0119-11.9191,0.0002-23.8382-0.0218-35.7573c-0.0019-1.0269-0.0493-2.0985-0.3372-3.0719
		c-0.8951-3.0261-3.757-4.7811-6.8652-4.3448c-2.9556,0.4149-5.2183,2.8442-5.2446,5.9248
		c-0.0716,8.3987-0.0535,16.7983-0.0592,25.1974c-0.0028,4.2395,0.0686,8.4796,0.0196,12.7184
		c-0.0715,6.195-4.7834,11.5366-10.7361,12.2717c-6.475,0.7996-12.2712-2.9949-13.8887-9.1828
		c-0.298-1.1401-0.338-2.3716-0.3403-3.5613c-0.0237-11.9191-0.0074-23.8383-0.0271-35.7573
		c-0.0017-1.0295-0.0411-2.0958-0.303-3.0812c-0.812-3.0541-3.6035-4.8883-6.7289-4.5473
		c-2.9668,0.3236-5.2409,2.6991-5.4682,5.7507c-0.0593,0.796-0.0331,1.5989-0.0332,2.3987
		c-0.002,11.8392,0.0237,23.6785-0.013,35.5175c-0.0181,5.8359-3.5875,10.6039-9.1212,12.0846
		c-5.0011,1.3382-9.4124,0.0878-12.8187-3.8223c-3.3392-3.8329-4.0255-8.3413-2.0904-13.0084
		c1.9811-4.7781,5.7585-7.3535,10.9469-7.6763c3.4726-0.2162,5.6143-1.5475,6.5224-4.2612
		c1.3163-3.9336-1.3715-7.9238-5.5477-8.2695c-1.2674-0.1049-2.5712-0.1334-3.7847-0.4657
		c-6.1827-1.6933-9.8525-7.4903-8.9577-14.0043c0.8119-5.9106,6.0443-10.4774,12.1691-10.5154
		c6.319-0.0392,12.6386,0.015,18.958,0.0205C288.4373,513.1253,294.7566,513.1211,301.0759,513.1216z M300.9032,550.5939
		c3.4543-0.0304,6.2387-2.8159,6.2407-6.2427c0.002-3.5071-2.9319-6.3467-6.474-6.2661c-3.4476,0.0786-6.1232,2.8911-6.0682,6.3788
		C294.6566,547.9518,297.4044,550.6248,300.9032,550.5939z"/>
	<path d="M75.8204,238.0779c-12.5592,0-25.1184,0.0182-37.6775-0.0085c-5.4161-0.0116-10.0895-3.4981-11.7312-8.637
		c-1.6641-5.2092,0.2095-10.8873,4.6697-14.0439c2.2178-1.5696,4.695-2.3168,7.4297-2.3092
		c11.519,0.0317,23.0381,0.0323,34.5572,0.0396c1.1197,0.0007,2.2438,0.0266,3.3583-0.0583
		c3.1752-0.2418,5.609-2.8649,5.6783-6.0572c0.0716-3.2957-2.3567-6.0663-5.6115-6.3665c-0.7145-0.0659-1.4387-0.0355-2.1584-0.0356
		c-12.0792-0.002-24.1585,0.0232-36.2376-0.0135c-5.4909-0.0167-10.1729-3.6338-11.7542-8.9303
		c-1.5608-5.2279,0.4207-10.947,4.9746-13.9219c4.0728-2.6606,8.4151-2.9722,12.7553-0.7362
		c4.2477,2.1884,6.5615,5.7985,6.7312,10.5844c0.1077,3.0383,1.2368,5.2666,4.1229,6.3777c3.8717,1.4905,8.0371-1.1674,8.385-5.2953
		c0.0805-0.9552,0.0267-1.9318,0.2017-2.8673c1.2064-6.4491,6.9552-10.6953,13.6643-10.1389
		c6.214,0.5154,11.1149,5.8962,11.1315,12.328c0.03,11.5992,0.0075,23.1984,0.0111,34.7977
		c0.0004,1.1197-0.0244,2.2433,0.056,3.3584c0.2298,3.1859,2.8277,5.6318,6.0166,5.7198c3.2986,0.091,6.0898-2.317,6.4057-5.5666
		c0.0771-0.7932,0.0407-1.5984,0.0408-2.3981c0.0022-11.9192-0.0288-23.8385,0.0158-35.7576
		c0.0199-5.314,2.5274-9.2376,7.329-11.4117c4.6989-2.1276,9.2418-1.4639,13.2584,1.827c3.9745,3.2563,5.4361,8.8488,3.7213,13.7181
		c-1.6917,4.8035-6.1793,8.1961-11.2643,8.2933c-2.7303,0.0522-4.8518,0.9817-6.1325,3.4175
		c-2.1172,4.0264,0.6153,8.7662,5.2001,9.1261c1.1108,0.0872,2.251,0.0829,3.3222,0.3462
		c6.3616,1.5632,10.2515,7.3311,9.4539,13.9147c-0.7372,6.0846-6.1227,10.7316-12.4864,10.737
		c-12.479,0.0106-24.958,0.0031-37.437,0.0031C75.8204,238.1012,75.8204,238.0896,75.8204,238.0779z M63.3557,225.6517
		c0.026-3.461-2.702-6.261-6.1532-6.3156c-3.4701-0.0549-6.2823,2.64-6.3585,6.0933c-0.0792,3.5879,2.693,6.4393,6.2561,6.4347
		C60.5595,231.8596,63.3297,229.1085,63.3557,225.6517z"/>
	<path d="M375.5901,313.0388c-12.4692,0-24.9398-0.1045-37.4071,0.0485c-5.42,0.0665-12.0581-4.3986-12.328-11.9019
		c-0.2492-6.9283,4.7739-12.5815,11.6293-13.0998c0.6366-0.0482,1.2781-0.0433,1.9174-0.0433
		c24.5396,0.0009,49.0792-0.001,73.6188,0.0108c5.7497,0.0027,10.5312,3.4128,12.2319,8.6636
		c1.681,5.1901-0.1833,10.9018-4.5971,14.0603c-2.2885,1.6376-4.8454,2.3315-7.6574,2.3252
		c-12.4691-0.0276-24.9384-0.0119-37.4076-0.0119C375.5901,313.0731,375.5901,313.0559,375.5901,313.0388z"/>
	<path d="M75.8349,513.0854c12.5478,0.0016,25.0959-0.0532,37.6432,0.0281c5.1927,0.0336,9.0568,2.5664,11.2075,7.2632
		c2.1465,4.6877,1.522,9.2377-1.7591,13.2536c-2.5257,3.0914-5.8978,4.5002-9.9033,4.4893
		c-9.111-0.025-18.2221-0.002-27.3332-0.0012c-15.2654,0.0013-30.5307,0.0065-45.7961-0.0106
		c-1.3527-0.0015-2.7389,0.0073-4.0521-0.2657c-6.4309-1.3365-10.4861-6.9215-9.9379-13.5472
		c0.5142-6.215,5.771-11.0084,12.2871-11.2034c0.1597-0.0048,0.3196-0.0074,0.4794-0.0074
		C51.0587,513.0837,63.4468,513.0837,75.8349,513.0854z"/>
	<path d="M163.2794,525.3684c0,12.5474-0.1225,25.0964,0.0534,37.6412c0.0838,5.976-4.7697,12.5546-12.3927,12.582
		c-6.9536,0.0251-12.4186-5.2797-12.6363-12.3715c-0.0784-2.5552-0.0218-5.1146-0.0219-7.6721
		c-0.0008-21.8188-0.0009-43.6376,0.0014-65.4565c0.0001-0.9588-0.0239-1.9214,0.0487-2.8758
		c0.4569-6.0051,5.1831-10.9673,10.9636-11.5413c6.3612-0.6317,11.8487,2.9745,13.5533,8.9867
		c0.2998,1.0573,0.4018,2.2001,0.4121,3.3051c0.0583,6.2331,0.0691,12.4667,0.0798,18.7002
		c0.0107,6.234,0.0023,12.4679,0.0023,18.7018C163.3219,525.3684,163.3006,525.3684,163.2794,525.3684z"/>
	<path d="M313.392,75.6878c0,12.3891,0.0195,24.7783-0.0079,37.1673c-0.0145,6.5705-4.3609,11.5996-10.8327,12.6505
		c-6.7596,1.0976-13.4864-4.0708-14.103-10.896c-0.1505-1.6663-0.1069-3.3526-0.1073-5.0297
		c-0.006-23.2599-0.0113-46.5198,0.0117-69.7796c0.0015-1.5889,0.0204-3.2277,0.3885-4.7573
		c1.4073-5.8475,6.9859-9.9119,12.7811-9.4704c6.475,0.4933,11.3343,5.3099,11.8292,11.7499
		c0.0673,0.8748,0.0453,1.7574,0.0455,2.6364c0.0025,11.9097,0.0017,23.8194,0.0017,35.7291
		C313.3964,75.6878,313.3942,75.6878,313.392,75.6878z"/>
	<path d="M525.5719,313.0388c-12.4686,0-24.9374,0.0341-37.4058-0.0136c-6.7976-0.026-12.136-5.3034-12.3917-12.0908
		c-0.2484-6.5956,4.9853-12.3437,11.7135-12.8466c0.7956-0.0595,1.5976-0.046,2.3966-0.0461
		c23.979-0.0022,47.958-0.0139,71.9369,0.0234c1.7397,0.0027,3.5441,0.1342,5.2065,0.6026
		c5.6948,1.6048,9.5474,7.5504,8.775,13.2626c-0.8738,6.461-5.8032,11.0248-12.1059,11.0966
		c-6.3934,0.0728-12.7877,0.0629-19.1816,0.0738c-6.3145,0.0108-12.629,0.0024-18.9434,0.0024
		C525.5719,313.0817,525.5719,313.0602,525.5719,313.0388z"/>
	<path d="M225.735,425.616c-12.3911-0.0002-24.7822,0.0221-37.1732-0.0091c-6.7045-0.0169-11.7236-4.4416-12.6749-11.0606
		c-0.9588-6.6707,4.141-13.104,10.9789-13.8498c7.0984-0.7743,13.3911,4.2786,13.8941,11.1472
		c0.0697,0.9528,0.0818,1.9282,0.3058,2.848c0.6884,2.8279,3.3407,4.8135,6.1738,4.7239c2.9849-0.0943,5.5037-2.281,5.9882-5.2481
		c0.1281-0.7847,0.112-1.5919,0.188-2.3863c0.5953-6.2177,5.7007-10.9581,12.0484-11.1943
		c6.2391-0.2321,11.7208,4.2704,12.6971,10.4504c0.1368,0.8658,0.1856,1.7461,0.2591,2.6211
		c0.2622,3.1192,2.6126,5.467,5.7521,5.7372c2.8868,0.2484,5.7003-1.7643,6.4398-4.6735c0.1944-0.7647,0.2388-1.5757,0.2824-2.3693
		c0.3709-6.746,5.967-11.9418,12.6957-11.7706c6.8405,0.174,12.3085,5.7221,12.3213,12.5016
		c0.0125,6.6795-5.3297,12.2837-12.0446,12.5086c-3.3539,0.1124-6.7145,0.0233-10.0721,0.0235
		C244.4415,425.6166,235.0882,425.6162,225.735,425.616z"/>
	<path d="M175.8267,75.5727c-0.0002-12.3912-0.0188-24.7824,0.0073-37.1736c0.0144-6.8249,4.4999-11.8916,11.22-12.779
		c6.6602-0.8795,13.0128,4.296,13.7061,11.1664c0.7038,6.9756-4.3292,13.2016-11.0857,13.7278
		c-1.0316,0.0803-2.0914,0.0935-3.0819,0.3529c-2.8013,0.7336-4.7373,3.4814-4.5565,6.2935
		c0.1881,2.9243,2.294,5.3186,5.1599,5.8124c0.7045,0.1214,1.4311,0.113,2.147,0.1704c6.3918,0.5118,11.2226,5.5518,11.5067,12.0033
		c0.2787,6.3285-4.2793,11.8366-10.6075,12.7989c-0.788,0.1198-1.5873,0.1709-2.3829,0.234
		c-3.1561,0.2505-5.4868,2.5255-5.8046,5.6757c-0.3,2.9741,1.7828,5.8414,4.8212,6.5524c0.769,0.18,1.5793,0.2059,2.3735,0.2524
		c6.1559,0.3602,10.9969,5.1432,11.5407,11.4171c0.5339,6.16-3.5403,11.8155-9.5101,13.201
		c-8.0306,1.8637-15.4054-3.9568-15.4399-12.2922C175.7886,100.5152,175.8268,88.0439,175.8267,75.5727z"/>
	<path d="M425.7987,375.5843c0.0001,12.3915,0.0075,24.783-0.0028,37.1746c-0.0057,6.8708-4.3878,11.8989-11.1319,12.8155
		c-6.6153,0.899-13.0693-4.2989-13.7983-11.1131c-0.7361-6.88,4.3878-13.2412,11.0891-13.7728
		c0.9529-0.0756,1.9274-0.0741,2.8512-0.286c3.0016-0.6886,4.8836-3.2313,4.7741-6.3199c-0.1075-3.0302-2.2551-5.4341-5.2958-5.8913
		c-0.6294-0.0946-1.2744-0.0815-1.9112-0.1308c-6.3793-0.494-11.3425-5.6321-11.5595-11.9639
		c-0.2197-6.4108,4.2637-11.8634,10.575-12.8349c0.8663-0.1334,1.7477-0.169,2.6221-0.2491
		c2.9357-0.2692,5.2261-2.4967,5.5371-5.3855c0.3303-3.0678-1.3863-5.8504-4.2472-6.7058
		c-0.9027-0.2698-1.8844-0.3208-2.8355-0.3759c-6.1275-0.3546-11.1288-5.2381-11.6207-11.3783
		c-0.4948-6.1751,3.5844-11.8167,9.5067-13.2446c8.3593-2.0155,15.5994,4.7147,15.4947,12.2481
		C425.6724,350.6396,425.7986,363.1129,425.7987,375.5843z"/>
	<path d="M76.0172,475.6414c12.4719,0.0002,24.9438-0.0163,37.4156,0.0074c5.9951,0.0114,10.9844,4.0977,12.1952,9.8969
		c1.1811,5.6566-1.7349,11.4585-6.993,13.9139c-8.1278,3.7954-17.457-1.9166-17.7922-10.8939
		c-0.1794-4.8048-3.9284-7.7792-8.1377-6.4564c-2.7372,0.8602-4.262,3.1124-4.39,6.4357
		c-0.1814,4.7106-2.3808,8.2584-6.4524,10.5226c-8.2167,4.5694-18.11-1.1446-18.5354-10.6335
		c-0.1783-3.9775-2.5479-6.5252-6.1202-6.58c-3.4238-0.0526-6.1018,2.4316-6.3641,5.8665
		c-0.0908,1.1888-0.1279,2.4057-0.4195,3.5513c-1.5272,6.0006-7.192,9.9176-13.3516,9.311
		c-6.021-0.593-10.8724-5.6045-11.1976-11.5668c-0.3502-6.4219,3.7344-11.9144,9.8648-13.1749
		c1.0053-0.2067,2.0666-0.1912,3.1021-0.1922C51.2333,475.637,63.6252,475.6412,76.0172,475.6414z"/>
	<path d="M188.2947,238.0782c-6.9165-0.009-12.5126-5.5761-12.5261-12.4611c-0.0136-6.9565,5.713-12.5933,12.7295-12.53
		c6.8998,0.0623,12.4362,5.7104,12.3644,12.6139C200.7902,232.6595,195.2788,238.0873,188.2947,238.0782z"/>
	<path d="M88.3181,113.2229c-0.0289,6.8922-5.6738,12.4971-12.5391,12.4502c-6.8776-0.047-12.4462-5.6683-12.4524-12.5703
		c-0.0063-6.9232,5.5204-12.4832,12.453-12.5282C82.7978,100.529,88.3479,106.1277,88.3181,113.2229z"/>
	<path d="M188.457,538.1132c-7.0104,0.046-12.7344-5.6257-12.6883-12.5725c0.0456-6.8792,5.6649-12.4477,12.5677-12.454
		c6.9229-0.0064,12.4825,5.5208,12.5263,12.4531C200.9063,532.4495,195.3629,538.0679,188.457,538.1132z"/>
	<path d="M88.3533,38.081c0.0132,6.9244-5.5033,12.4884-12.4373,12.5445c-6.9036,0.0558-12.5364-5.489-12.589-12.3921
		c-0.0534-7.0122,5.6074-12.7406,12.5565-12.7064C82.7579,25.5607,88.3401,31.1806,88.3533,38.081z"/>
	<path d="M338.3409,388.0782c-6.9794,0.0038-12.4714-5.4564-12.4949-12.4226c-0.0234-6.9288,5.4595-12.5198,12.3775-12.6216
		c6.9177-0.1017,12.6773,5.646,12.6496,12.6235C350.8455,382.5843,345.3061,388.0744,338.3409,388.0782z"/>
	<path d="M525.8218,575.5944c-6.9217-0.0078-12.5125-5.5583-12.5449-12.4546c-0.0327-6.9456,5.7157-12.6358,12.7008-12.5723
		c6.8611,0.0624,12.4889,5.773,12.4256,12.6085C538.3394,570.0826,532.7473,575.6021,525.8218,575.5944z"/>
	<path d="M525.8425,275.5946c-6.9246,0.0011-12.5156-5.5314-12.5657-12.4343c-0.0505-6.9413,5.6943-12.6468,12.6798-12.593
		c6.8657,0.0528,12.4918,5.7427,12.4466,12.5877C538.3576,270.0551,532.7653,275.5935,525.8425,275.5946z"/>
	<path d="M525.7809,175.6059c6.9316-0.0248,12.5231,5.458,12.6226,12.3775c0.0996,6.9253-5.6425,12.6787-12.6248,12.6497
		c-6.8745-0.0286-12.4993-5.6674-12.5015-12.5326C513.2748,181.2168,518.8651,175.6306,525.7809,175.6059z"/>
	<path d="M463.2781,563.0828c0.3806,6.128-5.0069,12.545-12.3673,12.5211c-7.0284-0.0227-12.6905-5.6408-12.624-12.6094
		c0.0657-6.8812,5.6988-12.4674,12.5923-12.4214C458.8233,550.626,463.6744,557.4556,463.2781,563.0828z"/>
	<path d="M38.2689,313.0382c-5.9558,0.36-12.4951-4.9285-12.4321-12.4553c0.058-6.923,5.5796-12.5175,12.4576-12.538
		c6.9688-0.0208,12.6627,5.6923,12.572,12.6827C50.765,308.558,44.0186,313.4639,38.2689,313.0382z"/>
	<path d="M425.835,450.5181c0.0243,6.962-5.45,12.5465-12.3524,12.6009c-7.0299,0.0554-12.6852-5.544-12.6764-12.5511
		c0.0087-6.9091,5.5702-12.4503,12.5075-12.4619C420.2813,438.0943,425.8107,443.5756,425.835,450.5181z"/>
	<path d="M388.3177,263.2031c-0.0264,6.9512-5.5448,12.4108-12.5246,12.3912c-6.9424-0.0195-12.4641-5.5483-12.4672-12.4831
		c-0.0031-7.0119,5.6672-12.6225,12.679-12.5453C382.8986,250.6418,388.3441,256.2309,388.3177,263.2031z"/>
	<path d="M88.3177,563.2262c-0.0318,6.9437-5.5644,12.3971-12.5475,12.3681c-6.9417-0.0288-12.4508-5.5652-12.4442-12.5058
		c0.0067-7.009,5.6886-12.6107,12.702-12.5226C82.9192,550.6525,88.3497,556.2466,88.3177,563.2262z"/>
	<path d="M463.2787,38.1524c-0.0134,6.9786-5.4942,12.4754-12.4386,12.4747c-6.8906-0.0007-12.5255-5.5961-12.5533-12.4655
		c-0.0281-6.942,5.7625-12.7205,12.6628-12.6362C457.8571,25.6097,463.2921,31.176,463.2787,38.1524z"/>
	<path d="M163.2787,413.0793c0.0063,6.9657-5.4598,12.5355-12.3605,12.5951c-6.9088,0.0596-12.6775-5.7256-12.631-12.6673
		c0.0459-6.8674,5.7035-12.4576,12.5847-12.4347C157.8218,400.5956,163.2724,406.0901,163.2787,413.0793z"/>
	<path d="M525.8893,50.6199c-6.8858,0.0359-12.519-5.5097-12.6107-12.4147c-0.0916-6.8849,5.7341-12.7314,12.6315-12.6767
		c6.8405,0.0542,12.496,5.7485,12.4924,12.5779C538.3987,44.9751,532.7901,50.5839,525.8893,50.6199z"/>
	<path d="M263.3046,88.0793c-6.9552-0.0147-12.4711-5.521-12.484-12.4622c-0.0128-6.8863,5.5536-12.5153,12.4421-12.5821
		c6.8889-0.0668,12.7197,5.7702,12.6469,12.6601C275.8364,82.6018,270.2465,88.094,263.3046,88.0793z"/>
	<path d="M563.2725,388.0793c-6.9503-0.029-12.463-5.5603-12.452-12.4941c0.011-6.8923,5.5974-12.5129,12.4744-12.5508
		c6.9024-0.0381,12.7116,5.8074,12.6143,12.6929C575.8113,382.6413,570.2183,388.1083,563.2725,388.0793z"/>
	<path d="M538.4031,113.0409c0.0501,6.8165-5.5842,12.5366-12.4404,12.63c-6.8874,0.0938-12.731-5.7213-12.6858-12.6239
		c0.0451-6.8838,5.6674-12.4651,12.5595-12.4678C532.7264,100.5764,538.3525,106.1555,538.4031,113.0409z"/>
	<path d="M563.4254,438.1072c6.9044,0.0414,12.5079,5.6595,12.4866,12.5192c-0.0217,6.9694-5.7505,12.5732-12.7715,12.4929
		c-6.8807-0.0787-12.4179-5.7681-12.321-12.6595C550.9172,443.505,556.4684,438.0655,563.4254,438.1072z"/>
	<path d="M263.2972,313.0387c-6.9854-0.0113-12.4749-5.4792-12.478-12.429c-0.0031-6.8954,5.5798-12.53,12.4491-12.5644
		c6.9408-0.0348,12.7218,5.7508,12.6445,12.6544C275.8355,307.6077,270.2712,313.0499,263.2972,313.0387z"/>
	<path d="M488.3025,438.1067c6.9505-0.0177,12.4978,5.4599,12.5595,12.4015c0.0613,6.9011-5.4826,12.5527-12.3712,12.6113
		c-7.015,0.0596-12.7389-5.5824-12.7231-12.5412C475.7834,443.7085,481.3959,438.1242,488.3025,438.1067z"/>
</g>
</svg>
